<?xml version="1.0" encoding="utf-8" standalone="no"?>
<!DOCTYPE svg PUBLIC "-//W3C//DTD SVG 1.1//EN"
  "http://www.w3.org/Graphics/SVG/1.1/DTD/svg11.dtd">
<svg xmlns:xlink="http://www.w3.org/1999/xlink" width="1152pt" height="432pt" viewBox="0 0 1152 432" xmlns="http://www.w3.org/2000/svg" version="1.1">
 <metadata>
  <rdf:RDF xmlns:dc="http://purl.org/dc/elements/1.1/" xmlns:cc="http://creativecommons.org/ns#" xmlns:rdf="http://www.w3.org/1999/02/22-rdf-syntax-ns#">
   <cc:Work>
    <dc:type rdf:resource="http://purl.org/dc/dcmitype/StillImage"/>
    <dc:date>2022-11-25T09:00:18.004360</dc:date>
    <dc:format>image/svg+xml</dc:format>
    <dc:creator>
     <cc:Agent>
      <dc:title>Matplotlib v3.5.2, https://matplotlib.org/</dc:title>
     </cc:Agent>
    </dc:creator>
   </cc:Work>
  </rdf:RDF>
 </metadata>
 <defs>
  <style type="text/css">*{stroke-linejoin: round; stroke-linecap: butt}</style>
 </defs>
 <g id="figure_1">
  <g id="patch_1">
   <path d="M 0 432 
L 1152 432 
L 1152 0 
L 0 0 
z
" style="fill: #ffffff"/>
  </g>
  <g id="axes_1">
   <g id="patch_2">
    <path d="M 144 384.48 
L 1036.8 384.48 
L 1036.8 51.84 
L 144 51.84 
z
" style="fill: #ffffff"/>
   </g>
   <g id="matplotlib.axis_1">
    <g id="xtick_1">
     <g id="line2d_1">
      <defs>
       <path id="m66eadbaa81" d="M 0 0 
L 0 3.5 
" style="stroke: #000000; stroke-width: 0.8"/>
      </defs>
      <g>
       <use xlink:href="#m66eadbaa81" x="184.581818" y="384.48" style="stroke: #000000; stroke-width: 0.8"/>
      </g>
     </g>
     <g id="text_1">
      <!-- 0 -->
      <g transform="translate(181.400568 399.078438)scale(0.1 -0.1)">
       <defs>
        <path id="DejaVuSans-30" d="M 2034 4250 
Q 1547 4250 1301 3770 
Q 1056 3291 1056 2328 
Q 1056 1369 1301 889 
Q 1547 409 2034 409 
Q 2525 409 2770 889 
Q 3016 1369 3016 2328 
Q 3016 3291 2770 3770 
Q 2525 4250 2034 4250 
z
M 2034 4750 
Q 2819 4750 3233 4129 
Q 3647 3509 3647 2328 
Q 3647 1150 3233 529 
Q 2819 -91 2034 -91 
Q 1250 -91 836 529 
Q 422 1150 422 2328 
Q 422 3509 836 4129 
Q 1250 4750 2034 4750 
z
" transform="scale(0.015625)"/>
       </defs>
       <use xlink:href="#DejaVuSans-30"/>
      </g>
     </g>
    </g>
    <g id="xtick_2">
     <g id="line2d_2">
      <g>
       <use xlink:href="#m66eadbaa81" x="301.397645" y="384.48" style="stroke: #000000; stroke-width: 0.8"/>
      </g>
     </g>
     <g id="text_2">
      <!-- 250 -->
      <g transform="translate(291.853895 399.078438)scale(0.1 -0.1)">
       <defs>
        <path id="DejaVuSans-32" d="M 1228 531 
L 3431 531 
L 3431 0 
L 469 0 
L 469 531 
Q 828 903 1448 1529 
Q 2069 2156 2228 2338 
Q 2531 2678 2651 2914 
Q 2772 3150 2772 3378 
Q 2772 3750 2511 3984 
Q 2250 4219 1831 4219 
Q 1534 4219 1204 4116 
Q 875 4013 500 3803 
L 500 4441 
Q 881 4594 1212 4672 
Q 1544 4750 1819 4750 
Q 2544 4750 2975 4387 
Q 3406 4025 3406 3419 
Q 3406 3131 3298 2873 
Q 3191 2616 2906 2266 
Q 2828 2175 2409 1742 
Q 1991 1309 1228 531 
z
" transform="scale(0.015625)"/>
        <path id="DejaVuSans-35" d="M 691 4666 
L 3169 4666 
L 3169 4134 
L 1269 4134 
L 1269 2991 
Q 1406 3038 1543 3061 
Q 1681 3084 1819 3084 
Q 2600 3084 3056 2656 
Q 3513 2228 3513 1497 
Q 3513 744 3044 326 
Q 2575 -91 1722 -91 
Q 1428 -91 1123 -41 
Q 819 9 494 109 
L 494 744 
Q 775 591 1075 516 
Q 1375 441 1709 441 
Q 2250 441 2565 725 
Q 2881 1009 2881 1497 
Q 2881 1984 2565 2268 
Q 2250 2553 1709 2553 
Q 1456 2553 1204 2497 
Q 953 2441 691 2322 
L 691 4666 
z
" transform="scale(0.015625)"/>
       </defs>
       <use xlink:href="#DejaVuSans-32"/>
       <use xlink:href="#DejaVuSans-35" x="63.623047"/>
       <use xlink:href="#DejaVuSans-30" x="127.246094"/>
      </g>
     </g>
    </g>
    <g id="xtick_3">
     <g id="line2d_3">
      <g>
       <use xlink:href="#m66eadbaa81" x="418.213472" y="384.48" style="stroke: #000000; stroke-width: 0.8"/>
      </g>
     </g>
     <g id="text_3">
      <!-- 500 -->
      <g transform="translate(408.669722 399.078438)scale(0.1 -0.1)">
       <use xlink:href="#DejaVuSans-35"/>
       <use xlink:href="#DejaVuSans-30" x="63.623047"/>
       <use xlink:href="#DejaVuSans-30" x="127.246094"/>
      </g>
     </g>
    </g>
    <g id="xtick_4">
     <g id="line2d_4">
      <g>
       <use xlink:href="#m66eadbaa81" x="535.029298" y="384.48" style="stroke: #000000; stroke-width: 0.8"/>
      </g>
     </g>
     <g id="text_4">
      <!-- 750 -->
      <g transform="translate(525.485548 399.078438)scale(0.1 -0.1)">
       <defs>
        <path id="DejaVuSans-37" d="M 525 4666 
L 3525 4666 
L 3525 4397 
L 1831 0 
L 1172 0 
L 2766 4134 
L 525 4134 
L 525 4666 
z
" transform="scale(0.015625)"/>
       </defs>
       <use xlink:href="#DejaVuSans-37"/>
       <use xlink:href="#DejaVuSans-35" x="63.623047"/>
       <use xlink:href="#DejaVuSans-30" x="127.246094"/>
      </g>
     </g>
    </g>
    <g id="xtick_5">
     <g id="line2d_5">
      <g>
       <use xlink:href="#m66eadbaa81" x="651.845125" y="384.48" style="stroke: #000000; stroke-width: 0.8"/>
      </g>
     </g>
     <g id="text_5">
      <!-- 1000 -->
      <g transform="translate(639.120125 399.078438)scale(0.1 -0.1)">
       <defs>
        <path id="DejaVuSans-31" d="M 794 531 
L 1825 531 
L 1825 4091 
L 703 3866 
L 703 4441 
L 1819 4666 
L 2450 4666 
L 2450 531 
L 3481 531 
L 3481 0 
L 794 0 
L 794 531 
z
" transform="scale(0.015625)"/>
       </defs>
       <use xlink:href="#DejaVuSans-31"/>
       <use xlink:href="#DejaVuSans-30" x="63.623047"/>
       <use xlink:href="#DejaVuSans-30" x="127.246094"/>
       <use xlink:href="#DejaVuSans-30" x="190.869141"/>
      </g>
     </g>
    </g>
    <g id="xtick_6">
     <g id="line2d_6">
      <g>
       <use xlink:href="#m66eadbaa81" x="768.660951" y="384.48" style="stroke: #000000; stroke-width: 0.8"/>
      </g>
     </g>
     <g id="text_6">
      <!-- 1250 -->
      <g transform="translate(755.935951 399.078438)scale(0.1 -0.1)">
       <use xlink:href="#DejaVuSans-31"/>
       <use xlink:href="#DejaVuSans-32" x="63.623047"/>
       <use xlink:href="#DejaVuSans-35" x="127.246094"/>
       <use xlink:href="#DejaVuSans-30" x="190.869141"/>
      </g>
     </g>
    </g>
    <g id="xtick_7">
     <g id="line2d_7">
      <g>
       <use xlink:href="#m66eadbaa81" x="885.476778" y="384.48" style="stroke: #000000; stroke-width: 0.8"/>
      </g>
     </g>
     <g id="text_7">
      <!-- 1500 -->
      <g transform="translate(872.751778 399.078438)scale(0.1 -0.1)">
       <use xlink:href="#DejaVuSans-31"/>
       <use xlink:href="#DejaVuSans-35" x="63.623047"/>
       <use xlink:href="#DejaVuSans-30" x="127.246094"/>
       <use xlink:href="#DejaVuSans-30" x="190.869141"/>
      </g>
     </g>
    </g>
    <g id="xtick_8">
     <g id="line2d_8">
      <g>
       <use xlink:href="#m66eadbaa81" x="1002.292605" y="384.48" style="stroke: #000000; stroke-width: 0.8"/>
      </g>
     </g>
     <g id="text_8">
      <!-- 1750 -->
      <g transform="translate(989.567605 399.078438)scale(0.1 -0.1)">
       <use xlink:href="#DejaVuSans-31"/>
       <use xlink:href="#DejaVuSans-37" x="63.623047"/>
       <use xlink:href="#DejaVuSans-35" x="127.246094"/>
       <use xlink:href="#DejaVuSans-30" x="190.869141"/>
      </g>
     </g>
    </g>
    <g id="text_9">
     <!-- Position -->
     <g transform="translate(570.935938 412.756563)scale(0.1 -0.1)">
      <defs>
       <path id="DejaVuSans-50" d="M 1259 4147 
L 1259 2394 
L 2053 2394 
Q 2494 2394 2734 2622 
Q 2975 2850 2975 3272 
Q 2975 3691 2734 3919 
Q 2494 4147 2053 4147 
L 1259 4147 
z
M 628 4666 
L 2053 4666 
Q 2838 4666 3239 4311 
Q 3641 3956 3641 3272 
Q 3641 2581 3239 2228 
Q 2838 1875 2053 1875 
L 1259 1875 
L 1259 0 
L 628 0 
L 628 4666 
z
" transform="scale(0.015625)"/>
       <path id="DejaVuSans-6f" d="M 1959 3097 
Q 1497 3097 1228 2736 
Q 959 2375 959 1747 
Q 959 1119 1226 758 
Q 1494 397 1959 397 
Q 2419 397 2687 759 
Q 2956 1122 2956 1747 
Q 2956 2369 2687 2733 
Q 2419 3097 1959 3097 
z
M 1959 3584 
Q 2709 3584 3137 3096 
Q 3566 2609 3566 1747 
Q 3566 888 3137 398 
Q 2709 -91 1959 -91 
Q 1206 -91 779 398 
Q 353 888 353 1747 
Q 353 2609 779 3096 
Q 1206 3584 1959 3584 
z
" transform="scale(0.015625)"/>
       <path id="DejaVuSans-73" d="M 2834 3397 
L 2834 2853 
Q 2591 2978 2328 3040 
Q 2066 3103 1784 3103 
Q 1356 3103 1142 2972 
Q 928 2841 928 2578 
Q 928 2378 1081 2264 
Q 1234 2150 1697 2047 
L 1894 2003 
Q 2506 1872 2764 1633 
Q 3022 1394 3022 966 
Q 3022 478 2636 193 
Q 2250 -91 1575 -91 
Q 1294 -91 989 -36 
Q 684 19 347 128 
L 347 722 
Q 666 556 975 473 
Q 1284 391 1588 391 
Q 1994 391 2212 530 
Q 2431 669 2431 922 
Q 2431 1156 2273 1281 
Q 2116 1406 1581 1522 
L 1381 1569 
Q 847 1681 609 1914 
Q 372 2147 372 2553 
Q 372 3047 722 3315 
Q 1072 3584 1716 3584 
Q 2034 3584 2315 3537 
Q 2597 3491 2834 3397 
z
" transform="scale(0.015625)"/>
       <path id="DejaVuSans-69" d="M 603 3500 
L 1178 3500 
L 1178 0 
L 603 0 
L 603 3500 
z
M 603 4863 
L 1178 4863 
L 1178 4134 
L 603 4134 
L 603 4863 
z
" transform="scale(0.015625)"/>
       <path id="DejaVuSans-74" d="M 1172 4494 
L 1172 3500 
L 2356 3500 
L 2356 3053 
L 1172 3053 
L 1172 1153 
Q 1172 725 1289 603 
Q 1406 481 1766 481 
L 2356 481 
L 2356 0 
L 1766 0 
Q 1100 0 847 248 
Q 594 497 594 1153 
L 594 3053 
L 172 3053 
L 172 3500 
L 594 3500 
L 594 4494 
L 1172 4494 
z
" transform="scale(0.015625)"/>
       <path id="DejaVuSans-6e" d="M 3513 2113 
L 3513 0 
L 2938 0 
L 2938 2094 
Q 2938 2591 2744 2837 
Q 2550 3084 2163 3084 
Q 1697 3084 1428 2787 
Q 1159 2491 1159 1978 
L 1159 0 
L 581 0 
L 581 3500 
L 1159 3500 
L 1159 2956 
Q 1366 3272 1645 3428 
Q 1925 3584 2291 3584 
Q 2894 3584 3203 3211 
Q 3513 2838 3513 2113 
z
" transform="scale(0.015625)"/>
      </defs>
      <use xlink:href="#DejaVuSans-50"/>
      <use xlink:href="#DejaVuSans-6f" x="56.677734"/>
      <use xlink:href="#DejaVuSans-73" x="117.859375"/>
      <use xlink:href="#DejaVuSans-69" x="169.958984"/>
      <use xlink:href="#DejaVuSans-74" x="197.742188"/>
      <use xlink:href="#DejaVuSans-69" x="236.951172"/>
      <use xlink:href="#DejaVuSans-6f" x="264.734375"/>
      <use xlink:href="#DejaVuSans-6e" x="325.916016"/>
     </g>
    </g>
   </g>
   <g id="matplotlib.axis_2">
    <g id="ytick_1">
     <g id="line2d_9">
      <defs>
       <path id="mdcde64c58e" d="M 0 0 
L -3.5 0 
" style="stroke: #000000; stroke-width: 0.8"/>
      </defs>
      <g>
       <use xlink:href="#mdcde64c58e" x="144" y="373.889831" style="stroke: #000000; stroke-width: 0.8"/>
      </g>
     </g>
     <g id="text_10">
      <!-- 0 -->
      <g transform="translate(130.6375 377.68905)scale(0.1 -0.1)">
       <use xlink:href="#DejaVuSans-30"/>
      </g>
     </g>
    </g>
    <g id="ytick_2">
     <g id="line2d_10">
      <g>
       <use xlink:href="#mdcde64c58e" x="144" y="326.977745" style="stroke: #000000; stroke-width: 0.8"/>
      </g>
     </g>
     <g id="text_11">
      <!-- 50000 -->
      <g transform="translate(105.1875 330.776963)scale(0.1 -0.1)">
       <use xlink:href="#DejaVuSans-35"/>
       <use xlink:href="#DejaVuSans-30" x="63.623047"/>
       <use xlink:href="#DejaVuSans-30" x="127.246094"/>
       <use xlink:href="#DejaVuSans-30" x="190.869141"/>
       <use xlink:href="#DejaVuSans-30" x="254.492188"/>
      </g>
     </g>
    </g>
    <g id="ytick_3">
     <g id="line2d_11">
      <g>
       <use xlink:href="#mdcde64c58e" x="144" y="280.065658" style="stroke: #000000; stroke-width: 0.8"/>
      </g>
     </g>
     <g id="text_12">
      <!-- 100000 -->
      <g transform="translate(98.825 283.864877)scale(0.1 -0.1)">
       <use xlink:href="#DejaVuSans-31"/>
       <use xlink:href="#DejaVuSans-30" x="63.623047"/>
       <use xlink:href="#DejaVuSans-30" x="127.246094"/>
       <use xlink:href="#DejaVuSans-30" x="190.869141"/>
       <use xlink:href="#DejaVuSans-30" x="254.492188"/>
       <use xlink:href="#DejaVuSans-30" x="318.115234"/>
      </g>
     </g>
    </g>
    <g id="ytick_4">
     <g id="line2d_12">
      <g>
       <use xlink:href="#mdcde64c58e" x="144" y="233.153572" style="stroke: #000000; stroke-width: 0.8"/>
      </g>
     </g>
     <g id="text_13">
      <!-- 150000 -->
      <g transform="translate(98.825 236.952791)scale(0.1 -0.1)">
       <use xlink:href="#DejaVuSans-31"/>
       <use xlink:href="#DejaVuSans-35" x="63.623047"/>
       <use xlink:href="#DejaVuSans-30" x="127.246094"/>
       <use xlink:href="#DejaVuSans-30" x="190.869141"/>
       <use xlink:href="#DejaVuSans-30" x="254.492188"/>
       <use xlink:href="#DejaVuSans-30" x="318.115234"/>
      </g>
     </g>
    </g>
    <g id="ytick_5">
     <g id="line2d_13">
      <g>
       <use xlink:href="#mdcde64c58e" x="144" y="186.241486" style="stroke: #000000; stroke-width: 0.8"/>
      </g>
     </g>
     <g id="text_14">
      <!-- 200000 -->
      <g transform="translate(98.825 190.040704)scale(0.1 -0.1)">
       <use xlink:href="#DejaVuSans-32"/>
       <use xlink:href="#DejaVuSans-30" x="63.623047"/>
       <use xlink:href="#DejaVuSans-30" x="127.246094"/>
       <use xlink:href="#DejaVuSans-30" x="190.869141"/>
       <use xlink:href="#DejaVuSans-30" x="254.492188"/>
       <use xlink:href="#DejaVuSans-30" x="318.115234"/>
      </g>
     </g>
    </g>
    <g id="ytick_6">
     <g id="line2d_14">
      <g>
       <use xlink:href="#mdcde64c58e" x="144" y="139.329399" style="stroke: #000000; stroke-width: 0.8"/>
      </g>
     </g>
     <g id="text_15">
      <!-- 250000 -->
      <g transform="translate(98.825 143.128618)scale(0.1 -0.1)">
       <use xlink:href="#DejaVuSans-32"/>
       <use xlink:href="#DejaVuSans-35" x="63.623047"/>
       <use xlink:href="#DejaVuSans-30" x="127.246094"/>
       <use xlink:href="#DejaVuSans-30" x="190.869141"/>
       <use xlink:href="#DejaVuSans-30" x="254.492188"/>
       <use xlink:href="#DejaVuSans-30" x="318.115234"/>
      </g>
     </g>
    </g>
    <g id="ytick_7">
     <g id="line2d_15">
      <g>
       <use xlink:href="#mdcde64c58e" x="144" y="92.417313" style="stroke: #000000; stroke-width: 0.8"/>
      </g>
     </g>
     <g id="text_16">
      <!-- 300000 -->
      <g transform="translate(98.825 96.216532)scale(0.1 -0.1)">
       <defs>
        <path id="DejaVuSans-33" d="M 2597 2516 
Q 3050 2419 3304 2112 
Q 3559 1806 3559 1356 
Q 3559 666 3084 287 
Q 2609 -91 1734 -91 
Q 1441 -91 1130 -33 
Q 819 25 488 141 
L 488 750 
Q 750 597 1062 519 
Q 1375 441 1716 441 
Q 2309 441 2620 675 
Q 2931 909 2931 1356 
Q 2931 1769 2642 2001 
Q 2353 2234 1838 2234 
L 1294 2234 
L 1294 2753 
L 1863 2753 
Q 2328 2753 2575 2939 
Q 2822 3125 2822 3475 
Q 2822 3834 2567 4026 
Q 2313 4219 1838 4219 
Q 1578 4219 1281 4162 
Q 984 4106 628 3988 
L 628 4550 
Q 988 4650 1302 4700 
Q 1616 4750 1894 4750 
Q 2613 4750 3031 4423 
Q 3450 4097 3450 3541 
Q 3450 3153 3228 2886 
Q 3006 2619 2597 2516 
z
" transform="scale(0.015625)"/>
       </defs>
       <use xlink:href="#DejaVuSans-33"/>
       <use xlink:href="#DejaVuSans-30" x="63.623047"/>
       <use xlink:href="#DejaVuSans-30" x="127.246094"/>
       <use xlink:href="#DejaVuSans-30" x="190.869141"/>
       <use xlink:href="#DejaVuSans-30" x="254.492188"/>
       <use xlink:href="#DejaVuSans-30" x="318.115234"/>
      </g>
     </g>
    </g>
    <g id="text_17">
     <!-- Depth of coverage -->
     <g transform="translate(92.745312 264.602187)rotate(-90)scale(0.1 -0.1)">
      <defs>
       <path id="DejaVuSans-44" d="M 1259 4147 
L 1259 519 
L 2022 519 
Q 2988 519 3436 956 
Q 3884 1394 3884 2338 
Q 3884 3275 3436 3711 
Q 2988 4147 2022 4147 
L 1259 4147 
z
M 628 4666 
L 1925 4666 
Q 3281 4666 3915 4102 
Q 4550 3538 4550 2338 
Q 4550 1131 3912 565 
Q 3275 0 1925 0 
L 628 0 
L 628 4666 
z
" transform="scale(0.015625)"/>
       <path id="DejaVuSans-65" d="M 3597 1894 
L 3597 1613 
L 953 1613 
Q 991 1019 1311 708 
Q 1631 397 2203 397 
Q 2534 397 2845 478 
Q 3156 559 3463 722 
L 3463 178 
Q 3153 47 2828 -22 
Q 2503 -91 2169 -91 
Q 1331 -91 842 396 
Q 353 884 353 1716 
Q 353 2575 817 3079 
Q 1281 3584 2069 3584 
Q 2775 3584 3186 3129 
Q 3597 2675 3597 1894 
z
M 3022 2063 
Q 3016 2534 2758 2815 
Q 2500 3097 2075 3097 
Q 1594 3097 1305 2825 
Q 1016 2553 972 2059 
L 3022 2063 
z
" transform="scale(0.015625)"/>
       <path id="DejaVuSans-70" d="M 1159 525 
L 1159 -1331 
L 581 -1331 
L 581 3500 
L 1159 3500 
L 1159 2969 
Q 1341 3281 1617 3432 
Q 1894 3584 2278 3584 
Q 2916 3584 3314 3078 
Q 3713 2572 3713 1747 
Q 3713 922 3314 415 
Q 2916 -91 2278 -91 
Q 1894 -91 1617 61 
Q 1341 213 1159 525 
z
M 3116 1747 
Q 3116 2381 2855 2742 
Q 2594 3103 2138 3103 
Q 1681 3103 1420 2742 
Q 1159 2381 1159 1747 
Q 1159 1113 1420 752 
Q 1681 391 2138 391 
Q 2594 391 2855 752 
Q 3116 1113 3116 1747 
z
" transform="scale(0.015625)"/>
       <path id="DejaVuSans-68" d="M 3513 2113 
L 3513 0 
L 2938 0 
L 2938 2094 
Q 2938 2591 2744 2837 
Q 2550 3084 2163 3084 
Q 1697 3084 1428 2787 
Q 1159 2491 1159 1978 
L 1159 0 
L 581 0 
L 581 4863 
L 1159 4863 
L 1159 2956 
Q 1366 3272 1645 3428 
Q 1925 3584 2291 3584 
Q 2894 3584 3203 3211 
Q 3513 2838 3513 2113 
z
" transform="scale(0.015625)"/>
       <path id="DejaVuSans-20" transform="scale(0.015625)"/>
       <path id="DejaVuSans-66" d="M 2375 4863 
L 2375 4384 
L 1825 4384 
Q 1516 4384 1395 4259 
Q 1275 4134 1275 3809 
L 1275 3500 
L 2222 3500 
L 2222 3053 
L 1275 3053 
L 1275 0 
L 697 0 
L 697 3053 
L 147 3053 
L 147 3500 
L 697 3500 
L 697 3744 
Q 697 4328 969 4595 
Q 1241 4863 1831 4863 
L 2375 4863 
z
" transform="scale(0.015625)"/>
       <path id="DejaVuSans-63" d="M 3122 3366 
L 3122 2828 
Q 2878 2963 2633 3030 
Q 2388 3097 2138 3097 
Q 1578 3097 1268 2742 
Q 959 2388 959 1747 
Q 959 1106 1268 751 
Q 1578 397 2138 397 
Q 2388 397 2633 464 
Q 2878 531 3122 666 
L 3122 134 
Q 2881 22 2623 -34 
Q 2366 -91 2075 -91 
Q 1284 -91 818 406 
Q 353 903 353 1747 
Q 353 2603 823 3093 
Q 1294 3584 2113 3584 
Q 2378 3584 2631 3529 
Q 2884 3475 3122 3366 
z
" transform="scale(0.015625)"/>
       <path id="DejaVuSans-76" d="M 191 3500 
L 800 3500 
L 1894 563 
L 2988 3500 
L 3597 3500 
L 2284 0 
L 1503 0 
L 191 3500 
z
" transform="scale(0.015625)"/>
       <path id="DejaVuSans-72" d="M 2631 2963 
Q 2534 3019 2420 3045 
Q 2306 3072 2169 3072 
Q 1681 3072 1420 2755 
Q 1159 2438 1159 1844 
L 1159 0 
L 581 0 
L 581 3500 
L 1159 3500 
L 1159 2956 
Q 1341 3275 1631 3429 
Q 1922 3584 2338 3584 
Q 2397 3584 2469 3576 
Q 2541 3569 2628 3553 
L 2631 2963 
z
" transform="scale(0.015625)"/>
       <path id="DejaVuSans-61" d="M 2194 1759 
Q 1497 1759 1228 1600 
Q 959 1441 959 1056 
Q 959 750 1161 570 
Q 1363 391 1709 391 
Q 2188 391 2477 730 
Q 2766 1069 2766 1631 
L 2766 1759 
L 2194 1759 
z
M 3341 1997 
L 3341 0 
L 2766 0 
L 2766 531 
Q 2569 213 2275 61 
Q 1981 -91 1556 -91 
Q 1019 -91 701 211 
Q 384 513 384 1019 
Q 384 1609 779 1909 
Q 1175 2209 1959 2209 
L 2766 2209 
L 2766 2266 
Q 2766 2663 2505 2880 
Q 2244 3097 1772 3097 
Q 1472 3097 1187 3025 
Q 903 2953 641 2809 
L 641 3341 
Q 956 3463 1253 3523 
Q 1550 3584 1831 3584 
Q 2591 3584 2966 3190 
Q 3341 2797 3341 1997 
z
" transform="scale(0.015625)"/>
       <path id="DejaVuSans-67" d="M 2906 1791 
Q 2906 2416 2648 2759 
Q 2391 3103 1925 3103 
Q 1463 3103 1205 2759 
Q 947 2416 947 1791 
Q 947 1169 1205 825 
Q 1463 481 1925 481 
Q 2391 481 2648 825 
Q 2906 1169 2906 1791 
z
M 3481 434 
Q 3481 -459 3084 -895 
Q 2688 -1331 1869 -1331 
Q 1566 -1331 1297 -1286 
Q 1028 -1241 775 -1147 
L 775 -588 
Q 1028 -725 1275 -790 
Q 1522 -856 1778 -856 
Q 2344 -856 2625 -561 
Q 2906 -266 2906 331 
L 2906 616 
Q 2728 306 2450 153 
Q 2172 0 1784 0 
Q 1141 0 747 490 
Q 353 981 353 1791 
Q 353 2603 747 3093 
Q 1141 3584 1784 3584 
Q 2172 3584 2450 3431 
Q 2728 3278 2906 2969 
L 2906 3500 
L 3481 3500 
L 3481 434 
z
" transform="scale(0.015625)"/>
      </defs>
      <use xlink:href="#DejaVuSans-44"/>
      <use xlink:href="#DejaVuSans-65" x="77.001953"/>
      <use xlink:href="#DejaVuSans-70" x="138.525391"/>
      <use xlink:href="#DejaVuSans-74" x="202.001953"/>
      <use xlink:href="#DejaVuSans-68" x="241.210938"/>
      <use xlink:href="#DejaVuSans-20" x="304.589844"/>
      <use xlink:href="#DejaVuSans-6f" x="336.376953"/>
      <use xlink:href="#DejaVuSans-66" x="397.558594"/>
      <use xlink:href="#DejaVuSans-20" x="432.763672"/>
      <use xlink:href="#DejaVuSans-63" x="464.550781"/>
      <use xlink:href="#DejaVuSans-6f" x="519.53125"/>
      <use xlink:href="#DejaVuSans-76" x="580.712891"/>
      <use xlink:href="#DejaVuSans-65" x="639.892578"/>
      <use xlink:href="#DejaVuSans-72" x="701.416016"/>
      <use xlink:href="#DejaVuSans-61" x="742.529297"/>
      <use xlink:href="#DejaVuSans-67" x="803.808594"/>
      <use xlink:href="#DejaVuSans-65" x="867.285156"/>
     </g>
    </g>
   </g>
   <g id="line2d_16">
    <path d="M 184.581818 340.873105 
L 185.049081 331.6652 
L 185.516345 325.316119 
L 185.983608 325.149112 
L 186.450871 321.16909 
L 186.918135 320.404423 
L 187.385398 320.253366 
L 188.787188 319.501835 
L 189.254451 317.118701 
L 190.656241 314.737443 
L 191.123504 312.043751 
L 191.590768 311.539915 
L 192.058031 311.406685 
L 192.525294 310.390569 
L 192.992558 310.350225 
L 193.459821 307.61525 
L 193.927084 307.427602 
L 194.394348 306.085916 
L 194.861611 305.357841 
L 195.328874 304.064943 
L 197.665191 299.175766 
L 198.132454 297.627667 
L 198.599717 297.57794 
L 199.066981 297.000921 
L 200.001507 296.586219 
L 200.936034 295.131006 
L 201.403297 294.983702 
L 201.870561 294.432016 
L 202.337824 294.187135 
L 202.805087 292.082658 
L 203.27235 291.68672 
L 205.141404 291.448407 
L 205.608667 290.525177 
L 207.010457 290.631198 
L 207.944984 289.962232 
L 208.412247 289.858087 
L 208.87951 289.462149 
L 210.748563 289.145962 
L 211.68309 289.106556 
L 212.150353 288.179573 
L 212.617617 287.638207 
L 213.08488 282.608293 
L 213.552143 281.903674 
L 214.019407 281.792961 
L 214.48667 277.434829 
L 214.953933 277.037014 
L 215.421196 276.879389 
L 215.88846 276.496587 
L 216.355723 276.520043 
L 216.822986 273.232444 
L 217.29025 272.289511 
L 217.757513 271.900141 
L 218.224776 269.519821 
L 218.69204 269.507624 
L 219.159303 264.576226 
L 220.093829 263.745882 
L 220.561093 262.24751 
L 221.028356 262.302866 
L 221.495619 260.260314 
L 221.962883 259.641074 
L 222.430146 250.664916 
L 222.897409 250.249274 
L 223.364673 246.037507 
L 223.831936 243.499563 
L 224.299199 242.937557 
L 224.766463 242.158816 
L 225.233726 241.959909 
L 225.700989 237.254627 
L 226.168252 236.369865 
L 226.635516 233.544819 
L 227.102779 233.027848 
L 227.570042 233.443489 
L 228.037306 229.041258 
L 228.504569 228.825463 
L 228.971832 223.818067 
L 229.439096 222.85074 
L 229.906359 222.832913 
L 230.373622 220.825076 
L 230.840886 221.154398 
L 231.308149 217.872429 
L 231.775412 217.122774 
L 232.242675 212.790912 
L 232.709939 211.358217 
L 233.177202 208.243254 
L 234.111729 207.651224 
L 234.578992 207.380072 
L 235.046255 206.295464 
L 235.513519 205.948315 
L 235.980782 204.28575 
L 236.448045 204.399278 
L 237.382572 203.996772 
L 238.317098 201.016916 
L 238.784362 200.350765 
L 239.251625 197.673023 
L 239.718888 197.21047 
L 240.186152 196.047988 
L 240.653415 193.183536 
L 241.120678 193.131933 
L 241.587942 190.965533 
L 242.055205 189.94754 
L 242.989732 189.515949 
L 243.456995 190.091091 
L 243.924258 187.315772 
L 244.391521 187.18348 
L 244.858785 185.261961 
L 245.793311 178.667998 
L 246.260575 183.358269 
L 246.727838 183.328245 
L 247.195101 183.41644 
L 247.662365 180.555741 
L 248.129628 180.392487 
L 248.596891 179.347285 
L 249.064154 179.369803 
L 249.531418 179.838924 
L 249.998681 179.848306 
L 250.465944 180.243306 
L 250.933208 179.998425 
L 251.400471 178.181051 
L 251.867734 177.159306 
L 252.334998 176.462192 
L 252.802261 174.500329 
L 253.269524 174.690792 
L 253.736788 174.151303 
L 254.204051 176.562584 
L 254.671314 198.951846 
L 255.138577 210.620759 
L 256.073104 207.92519 
L 256.540367 207.308765 
L 257.007631 198.499614 
L 257.474894 198.907749 
L 257.942157 197.017192 
L 258.876684 196.422347 
L 259.343947 196.46832 
L 259.811211 197.340885 
L 260.278474 197.191705 
L 260.745737 197.296788 
L 261.213 196.955268 
L 261.680264 198.886169 
L 262.147527 199.524174 
L 262.61479 197.108201 
L 263.082054 197.294911 
L 263.549317 191.768668 
L 264.01658 189.164109 
L 264.483844 188.90703 
L 264.951107 189.720486 
L 265.41837 189.946602 
L 265.885634 190.784452 
L 266.352897 190.311578 
L 266.82016 191.295794 
L 267.287423 191.059357 
L 267.754687 193.784011 
L 268.22195 194.775732 
L 268.689213 193.940697 
L 269.156477 193.647966 
L 269.62374 189.824631 
L 270.558267 190.128621 
L 271.02553 190.757243 
L 271.492793 194.752276 
L 271.960057 189.5638 
L 272.42732 191.001186 
L 272.894583 189.632291 
L 273.82911 189.601329 
L 274.296373 189.366769 
L 274.763636 187.966912 
L 275.2309 187.077459 
L 275.698163 184.906368 
L 276.165426 184.154836 
L 276.63269 178.927891 
L 277.099953 178.679257 
L 277.567216 176.457501 
L 278.03448 175.690957 
L 278.501743 175.721919 
L 278.969006 173.795709 
L 279.436269 172.841517 
L 279.903533 172.413679 
L 280.370796 172.684831 
L 280.838059 175.158036 
L 281.305323 173.25622 
L 281.772586 171.870437 
L 282.239849 171.382551 
L 282.707113 171.746589 
L 283.174376 172.798358 
L 283.641639 173.326588 
L 284.108902 173.483275 
L 284.576166 174.036837 
L 285.043429 176.531622 
L 285.510692 176.008083 
L 285.977956 177.358213 
L 286.445219 156.05262 
L 287.379746 155.222276 
L 287.847009 155.116254 
L 288.314272 152.758453 
L 288.781536 154.480127 
L 289.248799 153.93407 
L 289.716062 157.07718 
L 290.183325 160.993401 
L 290.650589 172.750508 
L 291.117852 172.905318 
L 291.585115 172.244795 
L 292.052379 173.605246 
L 292.519642 168.944999 
L 292.986905 169.162671 
L 293.454169 169.915141 
L 293.921432 171.724071 
L 294.388695 169.662754 
L 294.855959 169.423503 
L 295.323222 173.407277 
L 295.790485 173.778821 
L 296.257748 173.96084 
L 296.725012 171.678097 
L 297.192275 170.161899 
L 297.659538 175.141148 
L 298.126802 174.657015 
L 298.594065 176.549449 
L 299.061328 174.383048 
L 299.995855 171.937052 
L 300.463118 170.30545 
L 300.930382 172.676387 
L 301.397645 172.292646 
L 301.864908 175.784781 
L 302.332171 174.662644 
L 302.799435 173.915804 
L 303.733961 177.251253 
L 304.201225 177.780422 
L 304.668488 177.219353 
L 305.135751 177.297227 
L 305.603015 178.642666 
L 306.070278 178.554471 
L 306.537541 180.938543 
L 307.004805 177.457666 
L 307.472068 179.667226 
L 307.939331 178.80592 
L 308.873858 178.946656 
L 309.341121 178.795599 
L 309.808384 180.920717 
L 310.275648 181.306334 
L 310.742911 182.260526 
L 311.210174 186.087614 
L 311.677438 182.390941 
L 312.144701 182.719326 
L 312.611964 182.056927 
L 313.079228 182.209861 
L 313.546491 182.617058 
L 314.013754 179.891466 
L 314.481017 181.448947 
L 314.948281 180.919778 
L 315.415544 182.665846 
L 315.882807 186.578314 
L 316.350071 189.13127 
L 317.284597 188.573016 
L 317.751861 186.99677 
L 318.686387 187.311081 
L 319.15365 183.468043 
L 319.620914 183.624729 
L 320.088177 181.392652 
L 320.55544 180.57732 
L 321.022704 180.517273 
L 321.489967 179.809839 
L 322.424494 183.552485 
L 322.891757 170.412409 
L 323.35902 170.645093 
L 323.826284 170.211626 
L 324.76081 167.278682 
L 325.228073 164.508992 
L 325.695337 163.749955 
L 326.629863 166.107756 
L 327.097127 179.032974 
L 327.56439 178.452203 
L 328.031653 178.438129 
L 328.498917 179.535872 
L 328.96618 179.944007 
L 329.433443 181.947153 
L 329.900707 179.764803 
L 330.835233 179.615622 
L 331.302496 179.666288 
L 331.76976 180.627985 
L 332.237023 179.29662 
L 332.704286 176.611372 
L 333.17155 180.473175 
L 333.638813 179.587475 
L 334.106076 185.033968 
L 334.57334 185.99379 
L 335.040603 186.573623 
L 335.507866 184.515121 
L 336.442393 175.4761 
L 336.909656 172.831197 
L 337.376919 172.835888 
L 337.844183 173.25622 
L 338.311446 170.18254 
L 338.778709 170.19849 
L 339.245973 168.695427 
L 339.713236 169.481674 
L 340.180499 174.511587 
L 341.582289 168.999417 
L 342.049553 168.953443 
L 342.516816 173.542384 
L 342.984079 172.820876 
L 343.451342 174.368975 
L 343.918606 170.138443 
L 344.385869 169.186127 
L 344.853132 169.879488 
L 345.320396 169.594263 
L 345.787659 171.695924 
L 346.254922 172.358323 
L 346.722186 170.937825 
L 347.189449 173.988987 
L 347.656712 172.510318 
L 348.123976 173.604308 
L 348.591239 172.77584 
L 349.058502 172.830258 
L 349.525765 172.13033 
L 349.993029 170.899357 
L 350.460292 171.455734 
L 350.927555 171.441661 
L 351.394819 171.595532 
L 351.862082 172.515947 
L 352.329345 174.258262 
L 352.796609 174.505958 
L 353.263872 171.934237 
L 353.731135 171.967076 
L 354.198398 171.846981 
L 354.665662 167.780641 
L 355.132925 165.853493 
L 355.600188 165.724954 
L 356.067452 167.407221 
L 356.534715 169.94235 
L 357.001978 183.358269 
L 357.469242 184.111677 
L 357.936505 184.413791 
L 358.403768 181.859897 
L 358.871032 181.573733 
L 359.805558 175.404794 
L 360.272821 175.344746 
L 360.740085 176.070945 
L 361.207348 175.131765 
L 361.674611 175.363511 
L 362.141875 173.172717 
L 362.609138 171.514843 
L 363.076401 177.804816 
L 363.543665 178.257048 
L 364.010928 177.410754 
L 364.478191 176.827168 
L 364.945455 178.215766 
L 365.412718 178.951347 
L 365.879981 178.97105 
L 366.347244 181.159968 
L 366.814508 179.715076 
L 367.281771 179.738532 
L 367.749034 171.953002 
L 368.216298 171.593656 
L 368.683561 171.796316 
L 369.150824 170.970663 
L 369.618088 172.435259 
L 370.552614 174.067799 
L 371.019878 175.842952 
L 371.487141 175.686266 
L 371.954404 177.465172 
L 372.421667 177.622797 
L 372.888931 176.314888 
L 373.356194 177.115208 
L 373.823457 177.179009 
L 374.290721 176.083142 
L 374.757984 176.078451 
L 375.225247 176.492216 
L 376.159774 176.607619 
L 376.627037 177.233427 
L 377.094301 177.345077 
L 377.561564 180.421572 
L 378.028827 180.884125 
L 378.49609 182.247391 
L 378.963354 180.519149 
L 379.430617 178.246728 
L 379.89788 177.832963 
L 380.365144 177.071111 
L 380.832407 177.220291 
L 381.29967 176.619817 
L 381.766934 175.736931 
L 382.234197 179.946822 
L 382.70146 180.419696 
L 383.168724 181.136512 
L 383.635987 180.171062 
L 384.10325 175.681575 
L 384.570513 177.819828 
L 385.037777 177.5787 
L 385.50504 175.165542 
L 385.972303 174.949746 
L 386.439567 169.918894 
L 386.90683 170.515616 
L 387.374093 170.659167 
L 387.841357 169.705913 
L 388.30862 173.97116 
L 388.775883 174.38774 
L 389.243146 177.171503 
L 389.71041 178.451264 
L 390.177673 175.996824 
L 390.644936 178.926953 
L 391.579463 172.080603 
L 392.046726 172.903441 
L 392.51399 168.887767 
L 392.981253 179.349162 
L 393.448516 181.884291 
L 393.91578 182.554196 
L 394.383043 181.189992 
L 394.850306 181.082094 
L 395.317569 183.757021 
L 395.784833 185.437412 
L 397.186623 185.371735 
L 397.653886 189.223218 
L 398.121149 188.868562 
L 398.588413 187.320464 
L 399.522939 177.60497 
L 399.990203 176.838427 
L 400.457466 176.79433 
L 401.859256 177.413569 
L 402.326519 173.747859 
L 402.793782 171.796316 
L 403.261046 172.179119 
L 403.728309 170.668549 
L 404.195572 170.311079 
L 404.662836 169.196448 
L 405.130099 169.141092 
L 405.597362 170.111234 
L 406.064626 171.621803 
L 406.531889 181.46865 
L 406.999152 179.806086 
L 407.466415 177.469864 
L 407.933679 176.90598 
L 408.400942 178.479412 
L 408.868205 178.697084 
L 409.335469 177.413569 
L 409.802732 179.228129 
L 410.269995 178.850017 
L 410.737259 178.227025 
L 411.204522 181.641286 
L 411.671785 182.026904 
L 412.139049 184.159527 
L 413.073575 185.421462 
L 413.540838 186.713421 
L 414.008102 187.371129 
L 414.475365 192.705971 
L 414.942628 193.675175 
L 415.409892 193.713643 
L 415.877155 194.587146 
L 416.811682 194.674402 
L 417.278945 217.653819 
L 417.746208 218.546086 
L 418.680735 221.948151 
L 419.615261 221.95941 
L 420.082525 227.549454 
L 421.017051 227.189169 
L 421.484315 224.909242 
L 421.951578 220.018188 
L 422.418841 218.015042 
L 422.886105 217.901514 
L 423.353368 185.746094 
L 423.820631 184.686819 
L 424.287894 184.172663 
L 424.755158 181.793282 
L 425.222421 181.508994 
L 425.689684 180.602653 
L 426.156948 180.518211 
L 426.624211 178.076906 
L 427.091474 179.679423 
L 427.558738 177.452975 
L 428.026001 178.130386 
L 428.493264 177.45579 
L 428.960528 175.740684 
L 429.427791 181.334481 
L 429.895054 181.81017 
L 430.362317 181.565289 
L 430.829581 176.803712 
L 431.296844 176.486586 
L 431.764107 176.638581 
L 432.231371 175.80167 
L 432.698634 177.596526 
L 433.165897 176.924745 
L 433.633161 176.028724 
L 434.100424 167.786271 
L 434.567687 167.024418 
L 435.034951 167.175475 
L 435.502214 167.58924 
L 435.969477 167.773135 
L 436.43674 170.062445 
L 436.904004 169.826008 
L 437.371267 170.973478 
L 437.83853 172.727052 
L 438.305794 183.051464 
L 438.773057 179.807962 
L 439.24032 172.071221 
L 439.707584 171.021328 
L 440.174847 171.053228 
L 440.64211 171.378798 
L 441.109374 171.087943 
L 441.576637 169.473229 
L 442.511163 169.749072 
L 442.978427 174.171006 
L 443.44569 174.130661 
L 443.912953 174.293915 
L 444.380217 173.535816 
L 444.84748 173.79008 
L 445.314743 174.244189 
L 446.24927 174.42996 
L 446.716533 174.495637 
L 447.183797 174.868119 
L 447.65106 169.84665 
L 448.118323 169.096056 
L 448.585586 169.218028 
L 449.05285 169.806305 
L 449.520113 171.126411 
L 449.987376 174.015258 
L 450.45464 174.820269 
L 450.921903 176.258594 
L 451.389166 170.395521 
L 451.85643 170.928442 
L 452.323693 172.179119 
L 452.790956 172.242919 
L 453.25822 173.111731 
L 453.725483 174.284533 
L 454.192746 168.830534 
L 454.660009 173.548951 
L 455.127273 173.999307 
L 455.594536 174.824022 
L 456.061799 177.986835 
L 456.529063 178.431561 
L 456.996326 179.950575 
L 457.463589 179.917736 
L 457.930853 176.96509 
L 458.398116 177.189329 
L 458.865379 177.872369 
L 459.332642 176.71927 
L 459.799906 175.904876 
L 460.267169 176.081266 
L 460.734432 176.555078 
L 461.668959 177.972761 
L 462.136222 182.641452 
L 462.603486 186.07354 
L 463.070749 185.622246 
L 463.538012 185.530298 
L 464.005276 185.768612 
L 464.472539 185.266652 
L 464.939802 191.163502 
L 465.407065 189.042137 
L 465.874329 189.629476 
L 466.341592 188.383491 
L 466.808855 188.67247 
L 467.276119 189.211021 
L 467.743382 199.57953 
L 468.677909 200.626608 
L 469.145172 196.392323 
L 469.612435 193.844997 
L 470.079699 188.883574 
L 470.546962 189.463408 
L 471.014225 189.373336 
L 471.481488 188.500772 
L 471.948752 186.946105 
L 472.416015 184.991748 
L 472.883278 186.454466 
L 473.350542 192.201197 
L 473.817805 193.265163 
L 474.285068 189.795545 
L 474.752332 180.408437 
L 475.219595 176.62357 
L 475.686858 175.586812 
L 476.154122 180.298662 
L 476.621385 179.823912 
L 477.555911 182.090704 
L 478.023175 182.147937 
L 478.490438 179.737594 
L 478.957701 178.568545 
L 479.424965 179.38763 
L 479.892228 179.957142 
L 480.359491 179.900848 
L 480.826755 179.601549 
L 481.294018 178.079721 
L 481.761281 178.086288 
L 482.228545 176.903166 
L 482.695808 178.896929 
L 483.163071 169.595201 
L 483.630334 167.554525 
L 484.097598 167.577981 
L 484.564861 167.896045 
L 485.499388 170.363621 
L 485.966651 170.015533 
L 486.433914 172.011173 
L 486.901178 169.316543 
L 487.368441 176.531622 
L 487.835704 179.506786 
L 488.302967 173.289997 
L 488.770231 173.424165 
L 489.237494 173.973975 
L 489.704757 172.359261 
L 490.172021 173.627764 
L 490.639284 171.675283 
L 491.106547 171.120782 
L 491.573811 167.65867 
L 492.041074 169.855094 
L 492.508337 174.222609 
L 492.975601 174.153179 
L 493.442864 172.411802 
L 493.910127 171.439784 
L 494.844654 172.909071 
L 495.311917 172.006482 
L 495.77918 172.13033 
L 496.246444 166.733564 
L 496.713707 166.531842 
L 497.648234 168.150309 
L 498.115497 170.46026 
L 498.58276 169.508883 
L 499.050024 164.301641 
L 499.517287 164.134634 
L 499.98455 165.426593 
L 500.451813 169.431947 
L 501.38634 170.907801 
L 501.853603 195.320851 
L 502.320867 196.909294 
L 502.78813 198.066146 
L 503.255393 196.892406 
L 503.722657 196.141812 
L 504.18992 193.273607 
L 504.657183 199.763425 
L 505.124447 200.297285 
L 505.59171 200.364838 
L 506.058973 196.189663 
L 506.526236 194.11521 
L 506.9935 193.039047 
L 507.460763 178.266431 
L 508.39529 173.71502 
L 509.329816 172.64261 
L 509.79708 172.625722 
L 510.264343 170.847754 
L 510.731606 170.37488 
L 511.19887 169.221781 
L 511.666133 164.736985 
L 512.133396 164.480845 
L 512.600659 163.031262 
L 513.067923 162.735716 
L 513.535186 158.716288 
L 514.002449 157.360529 
L 514.469713 158.226526 
L 514.936976 157.577263 
L 515.404239 158.360694 
L 515.871503 157.733011 
L 516.338766 157.391491 
L 516.806029 157.227298 
L 517.273293 158.609328 
L 517.740556 158.361633 
L 518.207819 163.043459 
L 518.675082 162.772307 
L 519.142346 161.129446 
L 519.609609 151.595972 
L 520.076872 148.099145 
L 520.544136 146.777162 
L 521.011399 147.106485 
L 521.478662 147.070832 
L 521.945926 146.914145 
L 522.413189 147.144953 
L 522.880452 146.461913 
L 523.347715 148.274596 
L 523.814979 148.636757 
L 524.282242 150.537635 
L 524.749505 149.931531 
L 525.216769 151.121221 
L 525.684032 150.040367 
L 526.151295 147.82424 
L 526.618559 147.007031 
L 527.085822 146.894442 
L 527.553085 146.897257 
L 528.020349 142.963209 
L 528.487612 147.061449 
L 528.954875 147.154335 
L 529.422138 146.610155 
L 529.889402 147.962161 
L 530.356665 148.001567 
L 530.823928 151.617551 
L 531.291192 151.957195 
L 531.758455 150.932635 
L 532.225718 149.088051 
L 532.692982 148.62456 
L 533.160245 149.17437 
L 533.627508 154.071991 
L 534.094772 153.91812 
L 534.562035 153.884343 
L 535.496561 148.780308 
L 535.963825 148.241757 
L 536.431088 144.672686 
L 536.898351 144.705524 
L 537.832878 144.112555 
L 538.300141 145.22531 
L 539.234668 142.896594 
L 539.701931 143.974634 
L 540.169195 143.649064 
L 540.636458 147.058635 
L 541.103721 123.789301 
L 541.570984 121.202569 
L 542.038248 121.649172 
L 542.972774 124.245287 
L 543.440038 126.745701 
L 543.907301 126.626544 
L 544.374564 130.829867 
L 544.841828 129.546353 
L 545.309091 142.225751 
L 545.776354 144.727104 
L 546.710881 144.850013 
L 547.178144 144.56385 
L 547.645407 142.597295 
L 548.112671 142.091583 
L 548.579934 140.485313 
L 549.047197 142.538186 
L 549.514461 143.193079 
L 549.981724 136.579413 
L 550.448987 136.583166 
L 550.916251 134.057419 
L 551.383514 134.895269 
L 551.850777 138.310469 
L 552.318041 136.24446 
L 552.785304 136.02585 
L 553.252567 140.539731 
L 554.187094 141.128947 
L 554.654357 140.665455 
L 555.12162 140.845598 
L 555.588884 139.583663 
L 556.056147 140.932854 
L 556.52341 143.338506 
L 556.990674 140.392427 
L 557.457937 142.759611 
L 557.9252 140.748021 
L 558.392463 140.891572 
L 558.859727 146.061284 
L 559.32699 147.228456 
L 560.261517 150.197991 
L 560.72878 150.706518 
L 561.196043 156.071385 
L 561.663307 167.352803 
L 562.13057 168.603479 
L 562.597833 168.920605 
L 563.065097 169.925462 
L 563.53236 168.940308 
L 563.999623 168.74703 
L 564.466886 170.919998 
L 565.401413 158.908628 
L 565.868676 158.066086 
L 566.33594 157.913153 
L 566.803203 156.861384 
L 567.270466 156.769436 
L 567.73773 157.238557 
L 568.204993 157.014317 
L 568.672256 158.044507 
L 569.13952 157.867179 
L 569.606783 163.575442 
L 570.074046 156.183035 
L 570.541309 155.301088 
L 571.008573 156.024472 
L 571.475836 154.163001 
L 572.410363 154.677157 
L 572.877626 155.349877 
L 573.344889 157.529412 
L 573.812153 159.085017 
L 574.279416 172.665128 
L 574.746679 171.615235 
L 575.213943 151.561257 
L 575.681206 150.21488 
L 576.615732 149.90526 
L 577.082996 150.6521 
L 577.550259 152.405674 
L 578.017522 149.125581 
L 578.484786 150.151079 
L 578.952049 149.97469 
L 579.419312 150.191424 
L 579.886576 149.000795 
L 580.353839 147.22095 
L 580.821102 148.407826 
L 581.288366 148.000629 
L 581.755629 149.015807 
L 582.222892 154.22774 
L 582.690155 153.872146 
L 583.157419 155.371456 
L 583.624682 154.736267 
L 584.091945 158.543652 
L 584.559209 155.723297 
L 585.026472 155.02806 
L 585.493735 155.893119 
L 585.960999 145.949633 
L 586.428262 146.403742 
L 586.895525 147.07177 
L 587.830052 149.283206 
L 588.297315 148.599227 
L 588.764578 148.190154 
L 589.231842 149.40893 
L 589.699105 151.59128 
L 590.166368 161.582616 
L 590.633632 161.266429 
L 591.100895 162.380122 
L 591.568158 162.127735 
L 592.035422 162.167141 
L 592.502685 161.842509 
L 592.969948 161.155716 
L 593.437211 161.940087 
L 593.904475 163.596083 
L 594.371738 156.832299 
L 594.839001 158.072654 
L 595.306265 158.144899 
L 595.773528 154.090756 
L 596.240791 153.236018 
L 596.708055 153.166588 
L 597.175318 152.931089 
L 597.642581 151.904653 
L 598.109845 153.326089 
L 598.577108 158.006977 
L 599.044371 158.135516 
L 600.446161 155.309532 
L 600.913424 155.728926 
L 601.380688 153.603809 
L 601.847951 156.347228 
L 602.315214 157.314555 
L 602.782478 157.371788 
L 603.249741 157.678593 
L 603.717004 163.399991 
L 604.184268 163.531345 
L 604.651531 166.234419 
L 605.586057 159.552261 
L 606.053321 158.966799 
L 606.520584 159.762428 
L 606.987847 162.745098 
L 607.455111 162.93087 
L 608.389637 162.41859 
L 608.856901 164.235026 
L 609.324164 168.732018 
L 609.791427 164.384206 
L 610.258691 162.793887 
L 610.725954 165.455678 
L 611.193217 165.862875 
L 611.66048 182.332771 
L 612.127744 184.607068 
L 612.595007 183.478364 
L 613.06227 183.110573 
L 613.529534 183.546855 
L 613.996797 187.298884 
L 614.46406 189.178182 
L 614.931324 188.244632 
L 615.398587 185.537804 
L 615.86585 185.691676 
L 616.333114 178.963544 
L 616.800377 180.44409 
L 617.26764 179.027345 
L 617.734903 179.042357 
L 618.202167 162.775122 
L 618.66943 161.267367 
L 619.136693 162.062058 
L 620.07122 164.494919 
L 620.538483 169.838205 
L 621.005747 169.735937 
L 621.47301 172.773026 
L 621.940273 172.495306 
L 622.407537 173.470139 
L 622.8748 175.912382 
L 623.342063 176.692999 
L 623.809326 175.78009 
L 624.27659 175.436694 
L 624.743853 174.569758 
L 625.211116 174.507835 
L 625.67838 173.996493 
L 626.145643 175.105494 
L 626.612906 174.059355 
L 627.08017 174.222609 
L 627.547433 176.555078 
L 628.481959 178.227963 
L 629.416486 174.244189 
L 629.883749 172.958797 
L 630.351013 172.918453 
L 630.818276 173.295626 
L 631.285539 172.596636 
L 631.752803 171.146114 
L 632.220066 172.371458 
L 632.687329 172.304843 
L 633.154593 173.534878 
L 633.621856 173.290935 
L 634.089119 172.764581 
L 634.556382 171.690295 
L 635.023646 161.615455 
L 635.958172 166.655689 
L 636.892699 166.607839 
L 637.359962 166.455844 
L 637.827226 166.547792 
L 638.294489 164.813921 
L 638.761752 169.269631 
L 639.229016 176.491278 
L 639.696279 159.788698 
L 640.163542 157.152239 
L 640.630805 156.704698 
L 641.098069 156.790078 
L 641.565332 157.296728 
L 642.032595 155.512192 
L 642.967122 155.21477 
L 643.434385 155.543154 
L 643.901649 175.327858 
L 644.368912 176.643273 
L 644.836175 177.1518 
L 645.303439 176.597299 
L 645.770702 176.847809 
L 646.237965 175.419805 
L 646.705228 175.290328 
L 647.172492 174.578203 
L 647.639755 174.902834 
L 648.107018 175.688143 
L 648.574282 178.850955 
L 649.041545 179.67004 
L 649.508808 180.115705 
L 649.976072 180.364339 
L 650.443335 180.884125 
L 650.910598 172.021494 
L 651.377862 171.885449 
L 653.714178 169.492932 
L 654.181441 169.565177 
L 654.648705 170.107481 
L 655.115968 173.982419 
L 655.583231 173.843559 
L 656.050495 174.501267 
L 656.517758 180.818448 
L 656.985021 180.751833 
L 657.452285 181.791405 
L 657.919548 182.475383 
L 658.386811 182.070063 
L 659.321338 180.242368 
L 659.788601 178.71491 
L 660.255864 177.812322 
L 660.723128 178.693331 
L 661.190391 179.913045 
L 661.657654 180.047214 
L 662.592181 176.799021 
L 663.526707 178.13883 
L 664.928497 186.042578 
L 665.863024 188.307494 
L 666.330287 187.841188 
L 666.797551 188.557066 
L 667.264814 188.29342 
L 667.732077 188.487636 
L 668.199341 189.087173 
L 668.666604 187.108421 
L 669.133867 188.025083 
L 669.60113 187.344858 
L 670.068394 188.304679 
L 670.535657 189.841519 
L 671.00292 186.515452 
L 671.470184 187.107483 
L 671.937447 188.810391 
L 672.40471 188.816021 
L 672.871974 189.483111 
L 673.339237 189.566614 
L 673.8065 191.626993 
L 674.273764 191.531292 
L 674.741027 188.828218 
L 675.20829 189.211021 
L 675.675553 191.26577 
L 676.142817 192.099867 
L 676.61008 190.238395 
L 677.077343 190.332219 
L 677.544607 190.733787 
L 678.01187 190.405402 
L 678.479133 191.059357 
L 678.946397 190.63058 
L 679.41366 191.451542 
L 679.880923 191.687979 
L 680.348187 194.859236 
L 680.81545 195.83876 
L 681.282713 194.787929 
L 681.749976 194.210911 
L 682.21724 194.221231 
L 682.684503 194.105828 
L 683.151766 194.992466 
L 683.61903 195.084414 
L 684.086293 190.431673 
L 684.553556 180.476928 
L 685.02082 178.473782 
L 685.488083 179.875515 
L 685.955346 181.782961 
L 686.42261 182.200478 
L 686.889873 185.793006 
L 687.357136 185.148434 
L 687.824399 187.181604 
L 688.291663 185.974087 
L 688.758926 207.340666 
L 689.226189 207.040428 
L 689.693453 205.831973 
L 690.160716 205.770987 
L 690.627979 205.285916 
L 691.095243 206.97006 
L 691.562506 206.585381 
L 692.029769 205.9774 
L 692.497033 206.18569 
L 692.964296 205.355346 
L 693.431559 206.358326 
L 693.898822 206.885618 
L 694.366086 206.58069 
L 694.833349 206.763647 
L 695.300612 205.75879 
L 695.767876 203.522022 
L 696.235139 203.610216 
L 696.702402 203.976131 
L 697.169666 205.400382 
L 697.636929 202.489018 
L 698.104192 202.056488 
L 699.038719 203.131713 
L 699.973245 207.769442 
L 700.440509 208.25076 
L 700.907772 207.074205 
L 701.375035 206.309538 
L 701.842299 209.283764 
L 702.309562 208.77899 
L 702.776825 207.36506 
L 703.244089 202.257272 
L 703.711352 201.585491 
L 704.645878 203.061345 
L 705.113142 203.231167 
L 705.580405 209.59526 
L 706.047668 210.053122 
L 706.514932 211.005438 
L 706.982195 212.457836 
L 707.449458 216.641456 
L 707.916722 216.859128 
L 708.383985 216.789698 
L 708.851248 216.853498 
L 709.318512 215.28382 
L 709.785775 217.111515 
L 710.253038 227.965095 
L 710.720301 227.971663 
L 711.654828 227.239834 
L 712.589355 226.404799 
L 713.056618 226.598077 
L 713.523881 226.22841 
L 713.991145 227.290499 
L 714.458408 228.952125 
L 714.925671 228.637814 
L 715.392935 224.444812 
L 716.327461 224.128625 
L 717.261988 220.487309 
L 717.729251 221.264173 
L 718.196514 220.589577 
L 718.663778 220.624292 
L 719.131041 220.058532 
L 719.598304 217.928723 
L 720.065568 211.047659 
L 720.532831 211.429523 
L 721.467358 221.480907 
L 721.934621 221.243531 
L 722.401884 219.356727 
L 722.869147 219.986288 
L 723.336411 220.23023 
L 723.803674 220.189886 
L 724.270937 219.404578 
L 724.738201 217.928723 
L 725.205464 217.467108 
L 725.672727 215.612205 
L 726.139991 216.214556 
L 726.607254 216.476325 
L 727.074517 215.213452 
L 727.54178 215.040815 
L 728.009044 210.321459 
L 728.476307 210.158205 
L 729.878097 214.772478 
L 730.34536 212.250484 
L 730.812624 211.37792 
L 731.74715 212.446577 
L 732.214414 213.753548 
L 732.681677 213.245021 
L 733.14894 213.366054 
L 733.616203 210.697694 
L 734.083467 210.987611 
L 734.55073 209.93678 
L 735.017993 205.870441 
L 735.485257 203.06416 
L 735.95252 202.983471 
L 736.419783 197.537916 
L 736.887047 199.161074 
L 737.35431 196.890529 
L 737.821573 181.68726 
L 738.288837 180.551049 
L 738.7561 181.766073 
L 739.223363 184.550774 
L 740.15789 176.101907 
L 740.625153 176.032477 
L 741.092416 176.561646 
L 741.55968 180.276145 
L 742.026943 178.545089 
L 742.494206 177.802001 
L 742.96147 177.5787 
L 743.428733 177.508332 
L 743.895996 173.702823 
L 744.36326 172.883738 
L 744.830523 172.790852 
L 745.297786 172.126577 
L 746.232313 174.56882 
L 746.699576 174.311742 
L 747.166839 174.60635 
L 747.634103 174.462799 
L 748.101366 174.171006 
L 748.568629 173.051683 
L 749.035893 171.008193 
L 750.437683 171.05792 
L 751.372209 170.222885 
L 751.839472 171.160188 
L 752.306736 170.928442 
L 752.773999 170.872148 
L 753.241262 174.209474 
L 753.708526 173.906422 
L 754.175789 174.308927 
L 754.643052 181.640348 
L 755.110316 186.507946 
L 755.577579 181.721037 
L 756.044842 179.769494 
L 756.512106 179.735717 
L 756.979369 168.56032 
L 757.446632 170.547516 
L 757.913895 170.403027 
L 758.381159 169.67026 
L 758.848422 171.318751 
L 759.315685 171.21273 
L 759.782949 169.322172 
L 760.250212 169.875735 
L 760.717475 169.09418 
L 761.652002 170.933134 
L 762.119265 171.362848 
L 762.586528 172.764581 
L 763.053792 172.814308 
L 763.521055 173.169902 
L 763.988318 169.297778 
L 764.455582 169.228348 
L 764.922845 169.949856 
L 765.390108 170.215379 
L 765.857372 172.348002 
L 766.324635 172.943786 
L 766.791898 173.044177 
L 767.259162 172.865911 
L 767.726425 172.8828 
L 768.193688 175.310969 
L 768.660951 175.09705 
L 769.128215 175.816682 
L 770.062741 175.009794 
L 770.530005 175.386029 
L 770.997268 175.494865 
L 771.464531 176.846871 
L 771.931795 175.447953 
L 772.399058 175.30534 
L 772.866321 172.724237 
L 773.333585 177.01294 
L 773.800848 177.448284 
L 774.268111 178.312405 
L 774.735374 177.361966 
L 775.202638 175.791349 
L 775.669901 176.388071 
L 776.137164 177.815137 
L 776.604428 178.150089 
L 777.071691 177.463296 
L 778.006218 177.442655 
L 778.473481 177.279401 
L 778.940744 178.36307 
L 779.408008 182.655526 
L 779.875271 182.614243 
L 780.342534 182.031595 
L 780.809797 180.35308 
L 781.277061 179.889589 
L 781.744324 180.457225 
L 782.211587 180.133532 
L 782.678851 180.143853 
L 783.146114 181.411417 
L 783.613377 180.825016 
L 784.080641 177.906146 
L 784.547904 179.098651 
L 785.015167 184.030988 
L 785.482431 184.395026 
L 785.949694 183.463352 
L 786.416957 181.643163 
L 786.88422 182.519481 
L 787.818747 186.653374 
L 788.28601 189.833075 
L 788.753274 189.259809 
L 789.6878 190.674678 
L 790.155064 193.310199 
L 790.622327 193.282051 
L 791.08959 192.766957 
L 791.556854 194.692229 
L 792.024117 194.702549 
L 792.958643 196.140874 
L 793.425907 195.987941 
L 793.89317 196.661598 
L 794.360433 194.182764 
L 795.29496 197.206717 
L 795.762223 196.774187 
L 796.229487 198.196562 
L 796.69675 197.674899 
L 797.164013 196.673795 
L 797.631276 197.404686 
L 798.09854 197.595149 
L 798.565803 202.961891 
L 799.033066 200.490563 
L 799.50033 196.990921 
L 799.967593 197.497572 
L 800.434856 198.19187 
L 800.90212 199.74466 
L 801.369383 199.770931 
L 801.836646 198.798913 
L 802.30391 198.877725 
L 802.771173 195.363072 
L 803.238436 199.892903 
L 803.705699 201.687759 
L 804.172963 193.808405 
L 804.640226 193.067194 
L 805.107489 193.146945 
L 805.574753 194.21654 
L 806.042016 197.56231 
L 806.509279 195.668938 
L 806.976543 202.984409 
L 807.443806 203.252746 
L 807.911069 206.123766 
L 808.378333 223.159421 
L 808.845596 222.322509 
L 809.312859 223.99258 
L 809.780122 220.56143 
L 810.714649 224.667176 
L 811.181912 223.788043 
L 811.649176 224.069516 
L 812.116439 223.288898 
L 812.583702 224.298447 
L 813.050966 225.914099 
L 813.518229 226.504253 
L 813.985492 234.654759 
L 814.452756 235.075091 
L 814.920019 233.364676 
L 815.387282 233.619878 
L 815.854545 232.351375 
L 817.256335 232.468655 
L 817.723599 232.224713 
L 818.190862 232.194689 
L 818.658125 232.005164 
L 819.125389 234.374224 
L 819.592652 234.082431 
L 820.527179 235.233654 
L 820.994442 234.089937 
L 821.461705 234.230673 
L 821.928968 230.456127 
L 822.396232 229.289892 
L 822.863495 229.576056 
L 823.330758 218.232714 
L 823.798022 220.197392 
L 824.265285 218.631466 
L 824.732548 218.446633 
L 825.199812 219.428034 
L 825.667075 219.083699 
L 826.134338 219.003948 
L 826.601602 220.553924 
L 827.068865 220.604589 
L 827.536128 234.081493 
L 828.003391 234.274771 
L 828.937918 236.953451 
L 829.405181 241.511429 
L 830.339708 241.84732 
L 830.806971 242.390562 
L 831.741498 242.261084 
L 832.208761 243.053899 
L 832.676024 234.222229 
L 833.143288 233.701505 
L 833.610551 233.478204 
L 834.077814 219.268533 
L 834.545078 223.948482 
L 835.012341 223.313293 
L 835.479604 219.574399 
L 836.414131 218.623022 
L 836.881394 220.427261 
L 837.815921 220.161739 
L 838.283184 218.237405 
L 838.750447 218.379079 
L 839.217711 214.778108 
L 839.684974 215.312905 
L 840.152237 214.023761 
L 840.619501 213.398892 
L 841.086764 213.108976 
L 841.554027 213.35198 
L 842.021291 213.323833 
L 842.488554 216.311195 
L 842.955817 215.692893 
L 843.423081 218.875409 
L 843.890344 218.470089 
L 844.357607 219.084637 
L 844.82487 219.246015 
L 845.292134 220.363461 
L 845.759397 220.919838 
L 846.22666 220.803496 
L 846.693924 215.263179 
L 847.161187 215.885233 
L 847.62845 214.420638 
L 848.095714 213.565899 
L 848.562977 212.463465 
L 849.03024 210.582291 
L 849.497504 207.662482 
L 849.964767 208.474062 
L 850.43203 209.85703 
L 850.899293 210.440616 
L 852.301083 210.121614 
L 853.23561 211.843288 
L 853.702873 213.656909 
L 854.170137 213.093964 
L 854.6374 213.892408 
L 855.104663 213.193417 
L 855.571927 213.344474 
L 856.03919 214.166374 
L 856.506453 214.075365 
L 856.973716 213.525555 
L 857.44098 213.36793 
L 857.908243 213.700068 
L 858.84277 212.910068 
L 859.310033 214.154177 
L 859.777296 212.147278 
L 860.24456 212.689582 
L 860.711823 212.14071 
L 861.179086 212.566672 
L 861.64635 209.233099 
L 862.113613 209.198384 
L 862.580876 208.198218 
L 863.048139 208.771484 
L 863.515403 209.020118 
L 863.982666 209.520201 
L 864.449929 209.466721 
L 864.917193 207.867019 
L 865.384456 207.438243 
L 865.851719 205.919229 
L 866.318983 206.506569 
L 866.786246 206.017745 
L 867.253509 205.857305 
L 867.720772 206.247614 
L 868.188036 205.311249 
L 869.122562 205.062615 
L 869.589826 204.177853 
L 870.057089 205.959574 
L 870.524352 204.969729 
L 870.991616 206.231664 
L 871.458879 206.552542 
L 871.926142 207.78633 
L 872.393406 207.704703 
L 872.860669 210.232327 
L 873.327932 210.498787 
L 873.795195 210.237956 
L 874.262459 212.515069 
L 874.729722 217.326372 
L 875.196985 217.9944 
L 875.664249 216.569211 
L 876.131512 216.360921 
L 876.598775 215.495863 
L 877.066039 215.114936 
L 877.533302 215.16654 
L 878.000565 215.649734 
L 878.467829 220.392546 
L 878.935092 221.216322 
L 879.402355 221.780206 
L 879.869618 221.778329 
L 880.336882 219.996608 
L 880.804145 219.38206 
L 881.271408 219.915919 
L 881.738672 219.716074 
L 882.205935 219.712321 
L 882.673198 220.885123 
L 883.140462 220.684339 
L 883.607725 220.336252 
L 884.074988 220.221786 
L 884.542252 220.274328 
L 885.009515 221.354244 
L 885.944041 219.998485 
L 886.411305 220.389731 
L 886.878568 219.057428 
L 887.813095 219.29105 
L 888.280358 218.533889 
L 888.747621 218.420362 
L 889.214885 216.654591 
L 889.682148 215.983748 
L 890.149411 217.271016 
L 890.616675 217.23161 
L 891.083938 217.495256 
L 891.551201 218.129507 
L 892.485728 223.651998 
L 892.952991 223.702663 
L 893.420254 223.619159 
L 893.887518 231.149488 
L 894.354781 231.075367 
L 894.822044 231.727445 
L 895.289308 231.586708 
L 895.756571 236.286361 
L 896.691098 238.556906 
L 897.158361 238.527821 
L 897.625624 238.353308 
L 898.092887 234.823642 
L 898.560151 235.396908 
L 899.027414 236.155945 
L 899.494677 235.354687 
L 900.429204 235.781587 
L 900.896467 236.415838 
L 901.363731 237.522025 
L 901.830994 236.524674 
L 902.298257 248.349335 
L 902.76552 248.483504 
L 903.232784 248.865368 
L 903.700047 252.836945 
L 904.16731 253.278857 
L 904.634574 254.28559 
L 905.101837 254.22179 
L 905.5691 254.626172 
L 906.036364 257.830268 
L 906.97089 258.336918 
L 908.37268 257.831206 
L 908.839943 259.329578 
L 909.307207 261.443436 
L 909.77447 262.208104 
L 910.241733 262.323507 
L 910.708997 264.275988 
L 911.17626 265.611106 
L 912.110787 265.991094 
L 912.57805 264.08834 
L 913.045313 262.686607 
L 913.512577 263.394041 
L 913.97984 263.19701 
L 914.914366 262.537426 
L 915.38163 261.981987 
L 915.848893 261.83656 
L 916.316156 266.421747 
L 916.78342 267.06069 
L 917.250683 270.015213 
L 917.717946 270.461816 
L 918.18521 273.104843 
L 918.652473 273.958643 
L 919.587 276.934746 
L 920.054263 278.313023 
L 920.988789 277.339128 
L 921.456053 277.017311 
L 921.923316 277.366337 
L 922.390579 277.492999 
L 922.857843 280.230789 
L 923.325106 280.337748 
L 923.792369 278.607631 
L 924.259633 278.477215 
L 925.194159 280.243924 
L 925.661423 280.875361 
L 926.128686 280.553544 
L 926.595949 280.023437 
L 927.063212 267.812221 
L 927.530476 265.77999 
L 927.997739 265.208601 
L 928.465002 265.440346 
L 928.932266 265.318375 
L 929.399529 266.037068 
L 929.866792 266.545595 
L 930.334056 268.596591 
L 931.268582 271.477932 
L 931.735846 271.980829 
L 932.203109 273.530805 
L 932.670372 273.771933 
L 933.137635 275.310649 
L 933.604899 274.993524 
L 934.072162 275.168036 
L 934.539425 276.43091 
L 935.006689 278.387144 
L 935.473952 281.987177 
L 935.941215 282.088507 
L 936.408479 282.396251 
L 937.343005 282.203911 
L 937.810268 283.435823 
L 938.277532 283.716357 
L 938.744795 284.773755 
L 939.212058 284.734349 
L 939.679322 285.022389 
L 940.146585 286.344372 
L 940.613848 286.529206 
L 941.081112 287.933753 
L 942.015638 287.671046 
L 942.482902 287.474953 
L 942.950165 287.64196 
L 943.417428 287.943136 
L 943.884691 287.988171 
L 944.819218 288.324062 
L 945.286481 289.382399 
L 945.753745 293.172895 
L 946.221008 293.711446 
L 947.155535 295.426552 
L 947.622798 297.330244 
L 948.090061 297.290838 
L 948.557325 298.039555 
L 949.024588 298.45332 
L 949.959114 298.605315 
L 950.426378 299.594222 
L 950.893641 299.614863 
L 951.360904 300.17687 
L 951.828168 300.391727 
L 952.762694 300.381406 
L 953.229958 300.32605 
L 953.697221 300.537155 
L 954.631748 302.389244 
L 955.099011 306.561605 
L 955.566274 306.418992 
L 956.033537 306.567234 
L 956.500801 307.643397 
L 956.968064 308.07405 
L 957.435327 310.216994 
L 958.369854 310.28361 
L 959.304381 311.59621 
L 959.771644 314.710234 
L 960.238907 316.98547 
L 960.706171 316.999544 
L 961.173434 317.230351 
L 961.640697 317.243487 
L 962.10796 317.693843 
L 963.042487 318.773759 
L 963.50975 319.172512 
L 963.977014 319.256954 
L 964.91154 319.887452 
L 966.780593 322.456358 
L 967.71512 322.832593 
L 968.182383 323.370205 
L 968.649647 325.463423 
L 969.11691 325.997282 
L 969.584173 326.178363 
L 970.051437 327.121296 
L 970.5187 327.3005 
L 970.985963 327.793077 
L 971.453227 329.73899 
L 971.92049 329.967921 
L 972.387753 330.693182 
L 972.855016 330.746662 
L 973.32228 331.005616 
L 973.789543 332.584677 
L 975.191333 333.159819 
L 975.658596 333.509784 
L 976.12586 334.674142 
L 976.593123 334.705104 
L 977.52765 335.147954 
L 977.994913 335.908868 
L 978.929439 336.360162 
L 980.331229 336.682917 
L 980.798493 338.348296 
L 981.265756 338.616633 
L 981.733019 338.677619 
L 982.200283 339.332512 
L 982.667546 339.373794 
L 983.134809 339.741585 
L 983.602073 340.863722 
L 985.471126 341.869517 
L 985.938389 341.991489 
L 986.405652 342.413698 
L 986.872916 342.352712 
L 987.807442 342.443721 
L 988.274706 342.471869 
L 988.741969 343.177426 
L 990.143759 344.020906 
L 990.611022 344.916927 
L 991.545549 345.843909 
L 992.012812 346.106617 
L 992.480075 346.115999 
L 992.947339 346.494111 
L 993.414602 346.526949 
L 993.881865 346.73993 
L 994.349129 350.954512 
L 994.816392 351.343882 
L 995.283655 351.523087 
L 995.750919 354.13046 
L 996.218182 369.36 
L 996.218182 369.36 
" clip-path="url(#pf5d71d5b1b)" style="fill: none; stroke: #1f77b4; stroke-width: 1.5; stroke-linecap: square"/>
   </g>
   <g id="line2d_17">
    <path d="M 184.581818 339.786621 
L 996.218182 339.786621 
L 996.218182 339.786621 
" clip-path="url(#pf5d71d5b1b)" style="fill: none; stroke-dasharray: 5.55,2.4; stroke-dashoffset: 0; stroke: #ff7f0e; stroke-width: 1.5"/>
   </g>
   <g id="line2d_18">
    <path d="M 184.581818 203.373779 
L 996.218182 203.373779 
L 996.218182 203.373779 
" clip-path="url(#pf5d71d5b1b)" style="fill: none; stroke-dasharray: 5.55,2.4; stroke-dashoffset: 0; stroke: #2ca02c; stroke-width: 1.5"/>
   </g>
   <g id="line2d_19">
    <path d="M 184.581818 66.96 
L 996.218182 66.96 
L 996.218182 66.96 
" clip-path="url(#pf5d71d5b1b)" style="fill: none; stroke-dasharray: 5.55,2.4; stroke-dashoffset: 0; stroke: #d62728; stroke-width: 1.5"/>
   </g>
   <g id="patch_3">
    <path d="M 144 384.48 
L 144 51.84 
" style="fill: none; stroke: #000000; stroke-width: 0.8; stroke-linejoin: miter; stroke-linecap: square"/>
   </g>
   <g id="patch_4">
    <path d="M 1036.8 384.48 
L 1036.8 51.84 
" style="fill: none; stroke: #000000; stroke-width: 0.8; stroke-linejoin: miter; stroke-linecap: square"/>
   </g>
   <g id="patch_5">
    <path d="M 144 384.48 
L 1036.8 384.48 
" style="fill: none; stroke: #000000; stroke-width: 0.8; stroke-linejoin: miter; stroke-linecap: square"/>
   </g>
   <g id="patch_6">
    <path d="M 144 51.84 
L 1036.8 51.84 
" style="fill: none; stroke: #000000; stroke-width: 0.8; stroke-linejoin: miter; stroke-linecap: square"/>
   </g>
   <g id="text_18">
    <!-- HA -->
    <g transform="translate(581.783437 45.84)scale(0.12 -0.12)">
     <defs>
      <path id="DejaVuSans-48" d="M 628 4666 
L 1259 4666 
L 1259 2753 
L 3553 2753 
L 3553 4666 
L 4184 4666 
L 4184 0 
L 3553 0 
L 3553 2222 
L 1259 2222 
L 1259 0 
L 628 0 
L 628 4666 
z
" transform="scale(0.015625)"/>
      <path id="DejaVuSans-41" d="M 2188 4044 
L 1331 1722 
L 3047 1722 
L 2188 4044 
z
M 1831 4666 
L 2547 4666 
L 4325 0 
L 3669 0 
L 3244 1197 
L 1141 1197 
L 716 0 
L 50 0 
L 1831 4666 
z
" transform="scale(0.015625)"/>
     </defs>
     <use xlink:href="#DejaVuSans-48"/>
     <use xlink:href="#DejaVuSans-41" x="75.195312"/>
    </g>
   </g>
   <g id="legend_1">
    <g id="patch_7">
     <path d="M 146 28.936045 
L 1034.8 28.936045 
Q 1036.8 28.936045 1036.8 26.936045 
L 1036.8 13.25792 
Q 1036.8 11.25792 1034.8 11.25792 
L 146 11.25792 
Q 144 11.25792 144 13.25792 
L 144 26.936045 
Q 144 28.936045 146 28.936045 
z
" style="fill: #ffffff; opacity: 0.8; stroke: #cccccc; stroke-linejoin: miter"/>
    </g>
    <g id="line2d_20">
     <path d="M 148 19.356358 
L 158 19.356358 
L 168 19.356358 
" style="fill: none; stroke-dasharray: 5.55,2.4; stroke-dashoffset: 0; stroke: #ff7f0e; stroke-width: 1.5"/>
    </g>
    <g id="text_19">
     <!-- Average depth * 0.2 -->
     <g transform="translate(176 22.856358)scale(0.1 -0.1)">
      <defs>
       <path id="DejaVuSans-64" d="M 2906 2969 
L 2906 4863 
L 3481 4863 
L 3481 0 
L 2906 0 
L 2906 525 
Q 2725 213 2448 61 
Q 2172 -91 1784 -91 
Q 1150 -91 751 415 
Q 353 922 353 1747 
Q 353 2572 751 3078 
Q 1150 3584 1784 3584 
Q 2172 3584 2448 3432 
Q 2725 3281 2906 2969 
z
M 947 1747 
Q 947 1113 1208 752 
Q 1469 391 1925 391 
Q 2381 391 2643 752 
Q 2906 1113 2906 1747 
Q 2906 2381 2643 2742 
Q 2381 3103 1925 3103 
Q 1469 3103 1208 2742 
Q 947 2381 947 1747 
z
" transform="scale(0.015625)"/>
       <path id="DejaVuSans-2a" d="M 3009 3897 
L 1888 3291 
L 3009 2681 
L 2828 2375 
L 1778 3009 
L 1778 1831 
L 1422 1831 
L 1422 3009 
L 372 2375 
L 191 2681 
L 1313 3291 
L 191 3897 
L 372 4206 
L 1422 3572 
L 1422 4750 
L 1778 4750 
L 1778 3572 
L 2828 4206 
L 3009 3897 
z
" transform="scale(0.015625)"/>
       <path id="DejaVuSans-2e" d="M 684 794 
L 1344 794 
L 1344 0 
L 684 0 
L 684 794 
z
" transform="scale(0.015625)"/>
      </defs>
      <use xlink:href="#DejaVuSans-41"/>
      <use xlink:href="#DejaVuSans-76" x="62.533203"/>
      <use xlink:href="#DejaVuSans-65" x="121.712891"/>
      <use xlink:href="#DejaVuSans-72" x="183.236328"/>
      <use xlink:href="#DejaVuSans-61" x="224.349609"/>
      <use xlink:href="#DejaVuSans-67" x="285.628906"/>
      <use xlink:href="#DejaVuSans-65" x="349.105469"/>
      <use xlink:href="#DejaVuSans-20" x="410.628906"/>
      <use xlink:href="#DejaVuSans-64" x="442.416016"/>
      <use xlink:href="#DejaVuSans-65" x="505.892578"/>
      <use xlink:href="#DejaVuSans-70" x="567.416016"/>
      <use xlink:href="#DejaVuSans-74" x="630.892578"/>
      <use xlink:href="#DejaVuSans-68" x="670.101562"/>
      <use xlink:href="#DejaVuSans-20" x="733.480469"/>
      <use xlink:href="#DejaVuSans-2a" x="765.267578"/>
      <use xlink:href="#DejaVuSans-20" x="815.267578"/>
      <use xlink:href="#DejaVuSans-30" x="847.054688"/>
      <use xlink:href="#DejaVuSans-2e" x="910.677734"/>
      <use xlink:href="#DejaVuSans-32" x="942.464844"/>
     </g>
    </g>
    <g id="line2d_21">
     <path d="M 539.724219 19.356358 
L 549.724219 19.356358 
L 559.724219 19.356358 
" style="fill: none; stroke-dasharray: 5.55,2.4; stroke-dashoffset: 0; stroke: #2ca02c; stroke-width: 1.5"/>
    </g>
    <g id="text_20">
     <!-- Average depth -->
     <g transform="translate(567.724219 22.856358)scale(0.1 -0.1)">
      <use xlink:href="#DejaVuSans-41"/>
      <use xlink:href="#DejaVuSans-76" x="62.533203"/>
      <use xlink:href="#DejaVuSans-65" x="121.712891"/>
      <use xlink:href="#DejaVuSans-72" x="183.236328"/>
      <use xlink:href="#DejaVuSans-61" x="224.349609"/>
      <use xlink:href="#DejaVuSans-67" x="285.628906"/>
      <use xlink:href="#DejaVuSans-65" x="349.105469"/>
      <use xlink:href="#DejaVuSans-20" x="410.628906"/>
      <use xlink:href="#DejaVuSans-64" x="442.416016"/>
      <use xlink:href="#DejaVuSans-65" x="505.892578"/>
      <use xlink:href="#DejaVuSans-70" x="567.416016"/>
      <use xlink:href="#DejaVuSans-74" x="630.892578"/>
      <use xlink:href="#DejaVuSans-68" x="670.101562"/>
     </g>
    </g>
    <g id="line2d_22">
     <path d="M 904.189062 19.356358 
L 914.189062 19.356358 
L 924.189062 19.356358 
" style="fill: none; stroke-dasharray: 5.55,2.4; stroke-dashoffset: 0; stroke: #d62728; stroke-width: 1.5"/>
    </g>
    <g id="text_21">
     <!-- Average depth * 1.8 -->
     <g transform="translate(932.189062 22.856358)scale(0.1 -0.1)">
      <defs>
       <path id="DejaVuSans-38" d="M 2034 2216 
Q 1584 2216 1326 1975 
Q 1069 1734 1069 1313 
Q 1069 891 1326 650 
Q 1584 409 2034 409 
Q 2484 409 2743 651 
Q 3003 894 3003 1313 
Q 3003 1734 2745 1975 
Q 2488 2216 2034 2216 
z
M 1403 2484 
Q 997 2584 770 2862 
Q 544 3141 544 3541 
Q 544 4100 942 4425 
Q 1341 4750 2034 4750 
Q 2731 4750 3128 4425 
Q 3525 4100 3525 3541 
Q 3525 3141 3298 2862 
Q 3072 2584 2669 2484 
Q 3125 2378 3379 2068 
Q 3634 1759 3634 1313 
Q 3634 634 3220 271 
Q 2806 -91 2034 -91 
Q 1263 -91 848 271 
Q 434 634 434 1313 
Q 434 1759 690 2068 
Q 947 2378 1403 2484 
z
M 1172 3481 
Q 1172 3119 1398 2916 
Q 1625 2713 2034 2713 
Q 2441 2713 2670 2916 
Q 2900 3119 2900 3481 
Q 2900 3844 2670 4047 
Q 2441 4250 2034 4250 
Q 1625 4250 1398 4047 
Q 1172 3844 1172 3481 
z
" transform="scale(0.015625)"/>
      </defs>
      <use xlink:href="#DejaVuSans-41"/>
      <use xlink:href="#DejaVuSans-76" x="62.533203"/>
      <use xlink:href="#DejaVuSans-65" x="121.712891"/>
      <use xlink:href="#DejaVuSans-72" x="183.236328"/>
      <use xlink:href="#DejaVuSans-61" x="224.349609"/>
      <use xlink:href="#DejaVuSans-67" x="285.628906"/>
      <use xlink:href="#DejaVuSans-65" x="349.105469"/>
      <use xlink:href="#DejaVuSans-20" x="410.628906"/>
      <use xlink:href="#DejaVuSans-64" x="442.416016"/>
      <use xlink:href="#DejaVuSans-65" x="505.892578"/>
      <use xlink:href="#DejaVuSans-70" x="567.416016"/>
      <use xlink:href="#DejaVuSans-74" x="630.892578"/>
      <use xlink:href="#DejaVuSans-68" x="670.101562"/>
      <use xlink:href="#DejaVuSans-20" x="733.480469"/>
      <use xlink:href="#DejaVuSans-2a" x="765.267578"/>
      <use xlink:href="#DejaVuSans-20" x="815.267578"/>
      <use xlink:href="#DejaVuSans-31" x="847.054688"/>
      <use xlink:href="#DejaVuSans-2e" x="910.677734"/>
      <use xlink:href="#DejaVuSans-38" x="942.464844"/>
     </g>
    </g>
   </g>
  </g>
 </g>
 <defs>
  <clipPath id="pf5d71d5b1b">
   <rect x="144" y="51.84" width="892.8" height="332.64"/>
  </clipPath>
 </defs>
</svg>
