<?xml version="1.0" encoding="utf-8" standalone="no"?>
<!DOCTYPE svg PUBLIC "-//W3C//DTD SVG 1.1//EN"
  "http://www.w3.org/Graphics/SVG/1.1/DTD/svg11.dtd">
<svg xmlns:xlink="http://www.w3.org/1999/xlink" width="1152pt" height="432pt" viewBox="0 0 1152 432" xmlns="http://www.w3.org/2000/svg" version="1.1">
 <metadata>
  <rdf:RDF xmlns:dc="http://purl.org/dc/elements/1.1/" xmlns:cc="http://creativecommons.org/ns#" xmlns:rdf="http://www.w3.org/1999/02/22-rdf-syntax-ns#">
   <cc:Work>
    <dc:type rdf:resource="http://purl.org/dc/dcmitype/StillImage"/>
    <dc:date>2022-11-25T09:00:18.260180</dc:date>
    <dc:format>image/svg+xml</dc:format>
    <dc:creator>
     <cc:Agent>
      <dc:title>Matplotlib v3.5.2, https://matplotlib.org/</dc:title>
     </cc:Agent>
    </dc:creator>
   </cc:Work>
  </rdf:RDF>
 </metadata>
 <defs>
  <style type="text/css">*{stroke-linejoin: round; stroke-linecap: butt}</style>
 </defs>
 <g id="figure_1">
  <g id="patch_1">
   <path d="M 0 432 
L 1152 432 
L 1152 0 
L 0 0 
z
" style="fill: #ffffff"/>
  </g>
  <g id="axes_1">
   <g id="patch_2">
    <path d="M 144 384.48 
L 1036.8 384.48 
L 1036.8 51.84 
L 144 51.84 
z
" style="fill: #ffffff"/>
   </g>
   <g id="matplotlib.axis_1">
    <g id="xtick_1">
     <g id="line2d_1">
      <defs>
       <path id="m618d05eae6" d="M 0 0 
L 0 3.5 
" style="stroke: #000000; stroke-width: 0.8"/>
      </defs>
      <g>
       <use xlink:href="#m618d05eae6" x="184.581818" y="384.48" style="stroke: #000000; stroke-width: 0.8"/>
      </g>
     </g>
     <g id="text_1">
      <!-- 0 -->
      <g transform="translate(181.400568 399.078438)scale(0.1 -0.1)">
       <defs>
        <path id="DejaVuSans-30" d="M 2034 4250 
Q 1547 4250 1301 3770 
Q 1056 3291 1056 2328 
Q 1056 1369 1301 889 
Q 1547 409 2034 409 
Q 2525 409 2770 889 
Q 3016 1369 3016 2328 
Q 3016 3291 2770 3770 
Q 2525 4250 2034 4250 
z
M 2034 4750 
Q 2819 4750 3233 4129 
Q 3647 3509 3647 2328 
Q 3647 1150 3233 529 
Q 2819 -91 2034 -91 
Q 1250 -91 836 529 
Q 422 1150 422 2328 
Q 422 3509 836 4129 
Q 1250 4750 2034 4750 
z
" transform="scale(0.015625)"/>
       </defs>
       <use xlink:href="#DejaVuSans-30"/>
      </g>
     </g>
    </g>
    <g id="xtick_2">
     <g id="line2d_2">
      <g>
       <use xlink:href="#m618d05eae6" x="342.795534" y="384.48" style="stroke: #000000; stroke-width: 0.8"/>
      </g>
     </g>
     <g id="text_2">
      <!-- 200 -->
      <g transform="translate(333.251784 399.078438)scale(0.1 -0.1)">
       <defs>
        <path id="DejaVuSans-32" d="M 1228 531 
L 3431 531 
L 3431 0 
L 469 0 
L 469 531 
Q 828 903 1448 1529 
Q 2069 2156 2228 2338 
Q 2531 2678 2651 2914 
Q 2772 3150 2772 3378 
Q 2772 3750 2511 3984 
Q 2250 4219 1831 4219 
Q 1534 4219 1204 4116 
Q 875 4013 500 3803 
L 500 4441 
Q 881 4594 1212 4672 
Q 1544 4750 1819 4750 
Q 2544 4750 2975 4387 
Q 3406 4025 3406 3419 
Q 3406 3131 3298 2873 
Q 3191 2616 2906 2266 
Q 2828 2175 2409 1742 
Q 1991 1309 1228 531 
z
" transform="scale(0.015625)"/>
       </defs>
       <use xlink:href="#DejaVuSans-32"/>
       <use xlink:href="#DejaVuSans-30" x="63.623047"/>
       <use xlink:href="#DejaVuSans-30" x="127.246094"/>
      </g>
     </g>
    </g>
    <g id="xtick_3">
     <g id="line2d_3">
      <g>
       <use xlink:href="#m618d05eae6" x="501.00925" y="384.48" style="stroke: #000000; stroke-width: 0.8"/>
      </g>
     </g>
     <g id="text_3">
      <!-- 400 -->
      <g transform="translate(491.4655 399.078438)scale(0.1 -0.1)">
       <defs>
        <path id="DejaVuSans-34" d="M 2419 4116 
L 825 1625 
L 2419 1625 
L 2419 4116 
z
M 2253 4666 
L 3047 4666 
L 3047 1625 
L 3713 1625 
L 3713 1100 
L 3047 1100 
L 3047 0 
L 2419 0 
L 2419 1100 
L 313 1100 
L 313 1709 
L 2253 4666 
z
" transform="scale(0.015625)"/>
       </defs>
       <use xlink:href="#DejaVuSans-34"/>
       <use xlink:href="#DejaVuSans-30" x="63.623047"/>
       <use xlink:href="#DejaVuSans-30" x="127.246094"/>
      </g>
     </g>
    </g>
    <g id="xtick_4">
     <g id="line2d_4">
      <g>
       <use xlink:href="#m618d05eae6" x="659.222967" y="384.48" style="stroke: #000000; stroke-width: 0.8"/>
      </g>
     </g>
     <g id="text_4">
      <!-- 600 -->
      <g transform="translate(649.679217 399.078438)scale(0.1 -0.1)">
       <defs>
        <path id="DejaVuSans-36" d="M 2113 2584 
Q 1688 2584 1439 2293 
Q 1191 2003 1191 1497 
Q 1191 994 1439 701 
Q 1688 409 2113 409 
Q 2538 409 2786 701 
Q 3034 994 3034 1497 
Q 3034 2003 2786 2293 
Q 2538 2584 2113 2584 
z
M 3366 4563 
L 3366 3988 
Q 3128 4100 2886 4159 
Q 2644 4219 2406 4219 
Q 1781 4219 1451 3797 
Q 1122 3375 1075 2522 
Q 1259 2794 1537 2939 
Q 1816 3084 2150 3084 
Q 2853 3084 3261 2657 
Q 3669 2231 3669 1497 
Q 3669 778 3244 343 
Q 2819 -91 2113 -91 
Q 1303 -91 875 529 
Q 447 1150 447 2328 
Q 447 3434 972 4092 
Q 1497 4750 2381 4750 
Q 2619 4750 2861 4703 
Q 3103 4656 3366 4563 
z
" transform="scale(0.015625)"/>
       </defs>
       <use xlink:href="#DejaVuSans-36"/>
       <use xlink:href="#DejaVuSans-30" x="63.623047"/>
       <use xlink:href="#DejaVuSans-30" x="127.246094"/>
      </g>
     </g>
    </g>
    <g id="xtick_5">
     <g id="line2d_5">
      <g>
       <use xlink:href="#m618d05eae6" x="817.436683" y="384.48" style="stroke: #000000; stroke-width: 0.8"/>
      </g>
     </g>
     <g id="text_5">
      <!-- 800 -->
      <g transform="translate(807.892933 399.078438)scale(0.1 -0.1)">
       <defs>
        <path id="DejaVuSans-38" d="M 2034 2216 
Q 1584 2216 1326 1975 
Q 1069 1734 1069 1313 
Q 1069 891 1326 650 
Q 1584 409 2034 409 
Q 2484 409 2743 651 
Q 3003 894 3003 1313 
Q 3003 1734 2745 1975 
Q 2488 2216 2034 2216 
z
M 1403 2484 
Q 997 2584 770 2862 
Q 544 3141 544 3541 
Q 544 4100 942 4425 
Q 1341 4750 2034 4750 
Q 2731 4750 3128 4425 
Q 3525 4100 3525 3541 
Q 3525 3141 3298 2862 
Q 3072 2584 2669 2484 
Q 3125 2378 3379 2068 
Q 3634 1759 3634 1313 
Q 3634 634 3220 271 
Q 2806 -91 2034 -91 
Q 1263 -91 848 271 
Q 434 634 434 1313 
Q 434 1759 690 2068 
Q 947 2378 1403 2484 
z
M 1172 3481 
Q 1172 3119 1398 2916 
Q 1625 2713 2034 2713 
Q 2441 2713 2670 2916 
Q 2900 3119 2900 3481 
Q 2900 3844 2670 4047 
Q 2441 4250 2034 4250 
Q 1625 4250 1398 4047 
Q 1172 3844 1172 3481 
z
" transform="scale(0.015625)"/>
       </defs>
       <use xlink:href="#DejaVuSans-38"/>
       <use xlink:href="#DejaVuSans-30" x="63.623047"/>
       <use xlink:href="#DejaVuSans-30" x="127.246094"/>
      </g>
     </g>
    </g>
    <g id="xtick_6">
     <g id="line2d_6">
      <g>
       <use xlink:href="#m618d05eae6" x="975.650399" y="384.48" style="stroke: #000000; stroke-width: 0.8"/>
      </g>
     </g>
     <g id="text_6">
      <!-- 1000 -->
      <g transform="translate(962.925399 399.078438)scale(0.1 -0.1)">
       <defs>
        <path id="DejaVuSans-31" d="M 794 531 
L 1825 531 
L 1825 4091 
L 703 3866 
L 703 4441 
L 1819 4666 
L 2450 4666 
L 2450 531 
L 3481 531 
L 3481 0 
L 794 0 
L 794 531 
z
" transform="scale(0.015625)"/>
       </defs>
       <use xlink:href="#DejaVuSans-31"/>
       <use xlink:href="#DejaVuSans-30" x="63.623047"/>
       <use xlink:href="#DejaVuSans-30" x="127.246094"/>
       <use xlink:href="#DejaVuSans-30" x="190.869141"/>
      </g>
     </g>
    </g>
    <g id="text_7">
     <!-- Position -->
     <g transform="translate(570.935938 412.756563)scale(0.1 -0.1)">
      <defs>
       <path id="DejaVuSans-50" d="M 1259 4147 
L 1259 2394 
L 2053 2394 
Q 2494 2394 2734 2622 
Q 2975 2850 2975 3272 
Q 2975 3691 2734 3919 
Q 2494 4147 2053 4147 
L 1259 4147 
z
M 628 4666 
L 2053 4666 
Q 2838 4666 3239 4311 
Q 3641 3956 3641 3272 
Q 3641 2581 3239 2228 
Q 2838 1875 2053 1875 
L 1259 1875 
L 1259 0 
L 628 0 
L 628 4666 
z
" transform="scale(0.015625)"/>
       <path id="DejaVuSans-6f" d="M 1959 3097 
Q 1497 3097 1228 2736 
Q 959 2375 959 1747 
Q 959 1119 1226 758 
Q 1494 397 1959 397 
Q 2419 397 2687 759 
Q 2956 1122 2956 1747 
Q 2956 2369 2687 2733 
Q 2419 3097 1959 3097 
z
M 1959 3584 
Q 2709 3584 3137 3096 
Q 3566 2609 3566 1747 
Q 3566 888 3137 398 
Q 2709 -91 1959 -91 
Q 1206 -91 779 398 
Q 353 888 353 1747 
Q 353 2609 779 3096 
Q 1206 3584 1959 3584 
z
" transform="scale(0.015625)"/>
       <path id="DejaVuSans-73" d="M 2834 3397 
L 2834 2853 
Q 2591 2978 2328 3040 
Q 2066 3103 1784 3103 
Q 1356 3103 1142 2972 
Q 928 2841 928 2578 
Q 928 2378 1081 2264 
Q 1234 2150 1697 2047 
L 1894 2003 
Q 2506 1872 2764 1633 
Q 3022 1394 3022 966 
Q 3022 478 2636 193 
Q 2250 -91 1575 -91 
Q 1294 -91 989 -36 
Q 684 19 347 128 
L 347 722 
Q 666 556 975 473 
Q 1284 391 1588 391 
Q 1994 391 2212 530 
Q 2431 669 2431 922 
Q 2431 1156 2273 1281 
Q 2116 1406 1581 1522 
L 1381 1569 
Q 847 1681 609 1914 
Q 372 2147 372 2553 
Q 372 3047 722 3315 
Q 1072 3584 1716 3584 
Q 2034 3584 2315 3537 
Q 2597 3491 2834 3397 
z
" transform="scale(0.015625)"/>
       <path id="DejaVuSans-69" d="M 603 3500 
L 1178 3500 
L 1178 0 
L 603 0 
L 603 3500 
z
M 603 4863 
L 1178 4863 
L 1178 4134 
L 603 4134 
L 603 4863 
z
" transform="scale(0.015625)"/>
       <path id="DejaVuSans-74" d="M 1172 4494 
L 1172 3500 
L 2356 3500 
L 2356 3053 
L 1172 3053 
L 1172 1153 
Q 1172 725 1289 603 
Q 1406 481 1766 481 
L 2356 481 
L 2356 0 
L 1766 0 
Q 1100 0 847 248 
Q 594 497 594 1153 
L 594 3053 
L 172 3053 
L 172 3500 
L 594 3500 
L 594 4494 
L 1172 4494 
z
" transform="scale(0.015625)"/>
       <path id="DejaVuSans-6e" d="M 3513 2113 
L 3513 0 
L 2938 0 
L 2938 2094 
Q 2938 2591 2744 2837 
Q 2550 3084 2163 3084 
Q 1697 3084 1428 2787 
Q 1159 2491 1159 1978 
L 1159 0 
L 581 0 
L 581 3500 
L 1159 3500 
L 1159 2956 
Q 1366 3272 1645 3428 
Q 1925 3584 2291 3584 
Q 2894 3584 3203 3211 
Q 3513 2838 3513 2113 
z
" transform="scale(0.015625)"/>
      </defs>
      <use xlink:href="#DejaVuSans-50"/>
      <use xlink:href="#DejaVuSans-6f" x="56.677734"/>
      <use xlink:href="#DejaVuSans-73" x="117.859375"/>
      <use xlink:href="#DejaVuSans-69" x="169.958984"/>
      <use xlink:href="#DejaVuSans-74" x="197.742188"/>
      <use xlink:href="#DejaVuSans-69" x="236.951172"/>
      <use xlink:href="#DejaVuSans-6f" x="264.734375"/>
      <use xlink:href="#DejaVuSans-6e" x="325.916016"/>
     </g>
    </g>
   </g>
   <g id="matplotlib.axis_2">
    <g id="ytick_1">
     <g id="line2d_7">
      <defs>
       <path id="m7558b9f1e0" d="M 0 0 
L -3.5 0 
" style="stroke: #000000; stroke-width: 0.8"/>
      </defs>
      <g>
       <use xlink:href="#m7558b9f1e0" x="144" y="374.112928" style="stroke: #000000; stroke-width: 0.8"/>
      </g>
     </g>
     <g id="text_8">
      <!-- 0 -->
      <g transform="translate(130.6375 377.912147)scale(0.1 -0.1)">
       <use xlink:href="#DejaVuSans-30"/>
      </g>
     </g>
    </g>
    <g id="ytick_2">
     <g id="line2d_8">
      <g>
       <use xlink:href="#m7558b9f1e0" x="144" y="307.118378" style="stroke: #000000; stroke-width: 0.8"/>
      </g>
     </g>
     <g id="text_9">
      <!-- 200000 -->
      <g transform="translate(98.825 310.917597)scale(0.1 -0.1)">
       <use xlink:href="#DejaVuSans-32"/>
       <use xlink:href="#DejaVuSans-30" x="63.623047"/>
       <use xlink:href="#DejaVuSans-30" x="127.246094"/>
       <use xlink:href="#DejaVuSans-30" x="190.869141"/>
       <use xlink:href="#DejaVuSans-30" x="254.492188"/>
       <use xlink:href="#DejaVuSans-30" x="318.115234"/>
      </g>
     </g>
    </g>
    <g id="ytick_3">
     <g id="line2d_9">
      <g>
       <use xlink:href="#m7558b9f1e0" x="144" y="240.123828" style="stroke: #000000; stroke-width: 0.8"/>
      </g>
     </g>
     <g id="text_10">
      <!-- 400000 -->
      <g transform="translate(98.825 243.923047)scale(0.1 -0.1)">
       <use xlink:href="#DejaVuSans-34"/>
       <use xlink:href="#DejaVuSans-30" x="63.623047"/>
       <use xlink:href="#DejaVuSans-30" x="127.246094"/>
       <use xlink:href="#DejaVuSans-30" x="190.869141"/>
       <use xlink:href="#DejaVuSans-30" x="254.492188"/>
       <use xlink:href="#DejaVuSans-30" x="318.115234"/>
      </g>
     </g>
    </g>
    <g id="ytick_4">
     <g id="line2d_10">
      <g>
       <use xlink:href="#m7558b9f1e0" x="144" y="173.129278" style="stroke: #000000; stroke-width: 0.8"/>
      </g>
     </g>
     <g id="text_11">
      <!-- 600000 -->
      <g transform="translate(98.825 176.928497)scale(0.1 -0.1)">
       <use xlink:href="#DejaVuSans-36"/>
       <use xlink:href="#DejaVuSans-30" x="63.623047"/>
       <use xlink:href="#DejaVuSans-30" x="127.246094"/>
       <use xlink:href="#DejaVuSans-30" x="190.869141"/>
       <use xlink:href="#DejaVuSans-30" x="254.492188"/>
       <use xlink:href="#DejaVuSans-30" x="318.115234"/>
      </g>
     </g>
    </g>
    <g id="ytick_5">
     <g id="line2d_11">
      <g>
       <use xlink:href="#m7558b9f1e0" x="144" y="106.134728" style="stroke: #000000; stroke-width: 0.8"/>
      </g>
     </g>
     <g id="text_12">
      <!-- 800000 -->
      <g transform="translate(98.825 109.933947)scale(0.1 -0.1)">
       <use xlink:href="#DejaVuSans-38"/>
       <use xlink:href="#DejaVuSans-30" x="63.623047"/>
       <use xlink:href="#DejaVuSans-30" x="127.246094"/>
       <use xlink:href="#DejaVuSans-30" x="190.869141"/>
       <use xlink:href="#DejaVuSans-30" x="254.492188"/>
       <use xlink:href="#DejaVuSans-30" x="318.115234"/>
      </g>
     </g>
    </g>
    <g id="text_13">
     <!-- Depth of coverage -->
     <g transform="translate(92.745312 264.602187)rotate(-90)scale(0.1 -0.1)">
      <defs>
       <path id="DejaVuSans-44" d="M 1259 4147 
L 1259 519 
L 2022 519 
Q 2988 519 3436 956 
Q 3884 1394 3884 2338 
Q 3884 3275 3436 3711 
Q 2988 4147 2022 4147 
L 1259 4147 
z
M 628 4666 
L 1925 4666 
Q 3281 4666 3915 4102 
Q 4550 3538 4550 2338 
Q 4550 1131 3912 565 
Q 3275 0 1925 0 
L 628 0 
L 628 4666 
z
" transform="scale(0.015625)"/>
       <path id="DejaVuSans-65" d="M 3597 1894 
L 3597 1613 
L 953 1613 
Q 991 1019 1311 708 
Q 1631 397 2203 397 
Q 2534 397 2845 478 
Q 3156 559 3463 722 
L 3463 178 
Q 3153 47 2828 -22 
Q 2503 -91 2169 -91 
Q 1331 -91 842 396 
Q 353 884 353 1716 
Q 353 2575 817 3079 
Q 1281 3584 2069 3584 
Q 2775 3584 3186 3129 
Q 3597 2675 3597 1894 
z
M 3022 2063 
Q 3016 2534 2758 2815 
Q 2500 3097 2075 3097 
Q 1594 3097 1305 2825 
Q 1016 2553 972 2059 
L 3022 2063 
z
" transform="scale(0.015625)"/>
       <path id="DejaVuSans-70" d="M 1159 525 
L 1159 -1331 
L 581 -1331 
L 581 3500 
L 1159 3500 
L 1159 2969 
Q 1341 3281 1617 3432 
Q 1894 3584 2278 3584 
Q 2916 3584 3314 3078 
Q 3713 2572 3713 1747 
Q 3713 922 3314 415 
Q 2916 -91 2278 -91 
Q 1894 -91 1617 61 
Q 1341 213 1159 525 
z
M 3116 1747 
Q 3116 2381 2855 2742 
Q 2594 3103 2138 3103 
Q 1681 3103 1420 2742 
Q 1159 2381 1159 1747 
Q 1159 1113 1420 752 
Q 1681 391 2138 391 
Q 2594 391 2855 752 
Q 3116 1113 3116 1747 
z
" transform="scale(0.015625)"/>
       <path id="DejaVuSans-68" d="M 3513 2113 
L 3513 0 
L 2938 0 
L 2938 2094 
Q 2938 2591 2744 2837 
Q 2550 3084 2163 3084 
Q 1697 3084 1428 2787 
Q 1159 2491 1159 1978 
L 1159 0 
L 581 0 
L 581 4863 
L 1159 4863 
L 1159 2956 
Q 1366 3272 1645 3428 
Q 1925 3584 2291 3584 
Q 2894 3584 3203 3211 
Q 3513 2838 3513 2113 
z
" transform="scale(0.015625)"/>
       <path id="DejaVuSans-20" transform="scale(0.015625)"/>
       <path id="DejaVuSans-66" d="M 2375 4863 
L 2375 4384 
L 1825 4384 
Q 1516 4384 1395 4259 
Q 1275 4134 1275 3809 
L 1275 3500 
L 2222 3500 
L 2222 3053 
L 1275 3053 
L 1275 0 
L 697 0 
L 697 3053 
L 147 3053 
L 147 3500 
L 697 3500 
L 697 3744 
Q 697 4328 969 4595 
Q 1241 4863 1831 4863 
L 2375 4863 
z
" transform="scale(0.015625)"/>
       <path id="DejaVuSans-63" d="M 3122 3366 
L 3122 2828 
Q 2878 2963 2633 3030 
Q 2388 3097 2138 3097 
Q 1578 3097 1268 2742 
Q 959 2388 959 1747 
Q 959 1106 1268 751 
Q 1578 397 2138 397 
Q 2388 397 2633 464 
Q 2878 531 3122 666 
L 3122 134 
Q 2881 22 2623 -34 
Q 2366 -91 2075 -91 
Q 1284 -91 818 406 
Q 353 903 353 1747 
Q 353 2603 823 3093 
Q 1294 3584 2113 3584 
Q 2378 3584 2631 3529 
Q 2884 3475 3122 3366 
z
" transform="scale(0.015625)"/>
       <path id="DejaVuSans-76" d="M 191 3500 
L 800 3500 
L 1894 563 
L 2988 3500 
L 3597 3500 
L 2284 0 
L 1503 0 
L 191 3500 
z
" transform="scale(0.015625)"/>
       <path id="DejaVuSans-72" d="M 2631 2963 
Q 2534 3019 2420 3045 
Q 2306 3072 2169 3072 
Q 1681 3072 1420 2755 
Q 1159 2438 1159 1844 
L 1159 0 
L 581 0 
L 581 3500 
L 1159 3500 
L 1159 2956 
Q 1341 3275 1631 3429 
Q 1922 3584 2338 3584 
Q 2397 3584 2469 3576 
Q 2541 3569 2628 3553 
L 2631 2963 
z
" transform="scale(0.015625)"/>
       <path id="DejaVuSans-61" d="M 2194 1759 
Q 1497 1759 1228 1600 
Q 959 1441 959 1056 
Q 959 750 1161 570 
Q 1363 391 1709 391 
Q 2188 391 2477 730 
Q 2766 1069 2766 1631 
L 2766 1759 
L 2194 1759 
z
M 3341 1997 
L 3341 0 
L 2766 0 
L 2766 531 
Q 2569 213 2275 61 
Q 1981 -91 1556 -91 
Q 1019 -91 701 211 
Q 384 513 384 1019 
Q 384 1609 779 1909 
Q 1175 2209 1959 2209 
L 2766 2209 
L 2766 2266 
Q 2766 2663 2505 2880 
Q 2244 3097 1772 3097 
Q 1472 3097 1187 3025 
Q 903 2953 641 2809 
L 641 3341 
Q 956 3463 1253 3523 
Q 1550 3584 1831 3584 
Q 2591 3584 2966 3190 
Q 3341 2797 3341 1997 
z
" transform="scale(0.015625)"/>
       <path id="DejaVuSans-67" d="M 2906 1791 
Q 2906 2416 2648 2759 
Q 2391 3103 1925 3103 
Q 1463 3103 1205 2759 
Q 947 2416 947 1791 
Q 947 1169 1205 825 
Q 1463 481 1925 481 
Q 2391 481 2648 825 
Q 2906 1169 2906 1791 
z
M 3481 434 
Q 3481 -459 3084 -895 
Q 2688 -1331 1869 -1331 
Q 1566 -1331 1297 -1286 
Q 1028 -1241 775 -1147 
L 775 -588 
Q 1028 -725 1275 -790 
Q 1522 -856 1778 -856 
Q 2344 -856 2625 -561 
Q 2906 -266 2906 331 
L 2906 616 
Q 2728 306 2450 153 
Q 2172 0 1784 0 
Q 1141 0 747 490 
Q 353 981 353 1791 
Q 353 2603 747 3093 
Q 1141 3584 1784 3584 
Q 2172 3584 2450 3431 
Q 2728 3278 2906 2969 
L 2906 3500 
L 3481 3500 
L 3481 434 
z
" transform="scale(0.015625)"/>
      </defs>
      <use xlink:href="#DejaVuSans-44"/>
      <use xlink:href="#DejaVuSans-65" x="77.001953"/>
      <use xlink:href="#DejaVuSans-70" x="138.525391"/>
      <use xlink:href="#DejaVuSans-74" x="202.001953"/>
      <use xlink:href="#DejaVuSans-68" x="241.210938"/>
      <use xlink:href="#DejaVuSans-20" x="304.589844"/>
      <use xlink:href="#DejaVuSans-6f" x="336.376953"/>
      <use xlink:href="#DejaVuSans-66" x="397.558594"/>
      <use xlink:href="#DejaVuSans-20" x="432.763672"/>
      <use xlink:href="#DejaVuSans-63" x="464.550781"/>
      <use xlink:href="#DejaVuSans-6f" x="519.53125"/>
      <use xlink:href="#DejaVuSans-76" x="580.712891"/>
      <use xlink:href="#DejaVuSans-65" x="639.892578"/>
      <use xlink:href="#DejaVuSans-72" x="701.416016"/>
      <use xlink:href="#DejaVuSans-61" x="742.529297"/>
      <use xlink:href="#DejaVuSans-67" x="803.808594"/>
      <use xlink:href="#DejaVuSans-65" x="867.285156"/>
     </g>
    </g>
   </g>
   <g id="line2d_12">
    <path d="M 184.581818 338.655058 
L 185.372887 330.866941 
L 186.163955 326.937041 
L 186.955024 326.70658 
L 187.746093 321.260928 
L 188.537161 320.927965 
L 189.32823 319.477868 
L 190.119298 319.178067 
L 190.910367 317.66801 
L 191.701435 317.607715 
L 193.283573 312.766689 
L 194.074641 312.392189 
L 194.86571 312.32084 
L 195.656778 311.236868 
L 196.447847 309.49635 
L 197.238915 309.06993 
L 198.029984 305.143044 
L 198.821053 304.610437 
L 200.40319 303.936807 
L 201.194258 303.40487 
L 201.985327 302.382199 
L 202.776396 302.066989 
L 205.149601 300.377722 
L 206.731738 300.162669 
L 207.522807 296.474284 
L 208.313876 294.790376 
L 209.104944 290.463198 
L 209.896013 287.238081 
L 212.269219 286.171527 
L 213.851356 284.810868 
L 216.224561 284.750573 
L 217.806699 283.754029 
L 218.597767 282.792657 
L 219.388836 281.222975 
L 220.970973 280.991509 
L 221.762041 278.814856 
L 222.55311 278.504336 
L 223.344179 277.939572 
L 224.135247 276.234226 
L 225.717384 275.236342 
L 226.508453 274.861842 
L 228.881659 272.913641 
L 230.463796 264.342693 
L 231.254864 264.066006 
L 232.045933 260.230568 
L 232.837002 260.194726 
L 233.62807 256.767954 
L 234.419139 256.645354 
L 235.210207 255.518171 
L 236.001276 255.348675 
L 237.583413 254.045966 
L 238.374482 253.801771 
L 239.16555 253.267489 
L 239.956619 252.299753 
L 240.747687 249.187856 
L 241.538756 248.466325 
L 242.329825 248.065697 
L 243.911962 248.056653 
L 244.70303 247.353545 
L 245.494099 247.219891 
L 246.285167 245.600633 
L 247.076236 245.362467 
L 247.867305 244.403775 
L 248.658373 239.885663 
L 250.24051 238.991285 
L 251.031579 238.668037 
L 251.822648 237.793088 
L 252.613716 237.430982 
L 253.404785 236.012708 
L 254.195853 235.260359 
L 254.986922 234.271854 
L 256.569059 234.223618 
L 257.360128 233.816291 
L 258.151196 233.694361 
L 258.942265 230.423352 
L 259.733333 230.234763 
L 260.524402 230.414643 
L 261.31547 229.983533 
L 262.106539 228.837926 
L 263.688676 228.772942 
L 264.479745 228.814813 
L 265.270813 228.252394 
L 266.061882 227.341268 
L 266.852951 221.783735 
L 267.644019 218.851384 
L 268.435088 217.371474 
L 269.226156 216.782592 
L 270.017225 215.230663 
L 270.808293 214.112859 
L 271.599362 213.236571 
L 272.390431 213.355821 
L 273.181499 213.285812 
L 273.972568 214.247183 
L 274.763636 213.390993 
L 275.554705 212.245721 
L 276.345774 210.877022 
L 277.136842 210.613734 
L 277.927911 210.766146 
L 279.510048 207.537679 
L 280.301116 206.970905 
L 281.092185 206.999713 
L 281.883254 207.201701 
L 282.674322 205.68729 
L 283.465391 205.639724 
L 284.256459 200.52469 
L 285.047528 200.021896 
L 285.838596 200.432572 
L 288.211802 198.239506 
L 289.002871 197.799016 
L 289.793939 198.047231 
L 290.585008 197.605402 
L 291.376077 198.401297 
L 292.167145 197.554151 
L 292.958214 195.461911 
L 293.749282 195.127609 
L 294.540351 193.808821 
L 296.122488 193.774654 
L 297.704625 193.753215 
L 298.495694 193.602813 
L 299.286762 192.736238 
L 300.077831 223.613691 
L 300.8689 223.177222 
L 301.659968 218.411565 
L 302.451037 217.260598 
L 303.242105 216.588643 
L 304.033174 216.398378 
L 304.824242 222.071812 
L 305.615311 222.008502 
L 306.40638 221.633667 
L 307.197448 222.496892 
L 307.988517 216.712918 
L 308.779585 220.937929 
L 310.361722 213.18465 
L 311.152791 214.493723 
L 311.94386 212.382055 
L 312.734928 212.030669 
L 313.525997 212.296637 
L 314.317065 209.027973 
L 315.899203 207.252617 
L 317.48134 212.631275 
L 318.272408 212.354587 
L 319.854545 207.139731 
L 320.645614 207.814702 
L 321.436683 209.144208 
L 322.227751 208.279644 
L 323.01882 206.003504 
L 323.809888 205.718442 
L 324.600957 212.662762 
L 325.392026 213.087843 
L 326.183094 207.880356 
L 326.974163 207.620417 
L 327.765231 206.05777 
L 328.5563 205.981061 
L 329.347368 205.55531 
L 330.138437 202.111121 
L 330.929506 202.162036 
L 331.720574 201.363126 
L 332.511643 201.111227 
L 333.302711 201.351067 
L 334.09378 197.509935 
L 334.884848 196.476879 
L 335.675917 196.994077 
L 336.466986 197.175967 
L 337.258054 198.602616 
L 338.049123 199.363674 
L 338.840191 198.993864 
L 339.63126 198.956347 
L 340.422329 198.525237 
L 341.213397 198.698083 
L 342.004466 192.536594 
L 342.795534 192.334271 
L 343.586603 192.533915 
L 344.377671 192.590525 
L 345.16874 192.823331 
L 345.959809 193.383406 
L 346.750877 193.236687 
L 347.541946 193.44839 
L 348.333014 192.389876 
L 349.124083 197.065426 
L 349.915152 198.931224 
L 350.70622 199.23337 
L 351.497289 199.221981 
L 352.288357 198.790536 
L 353.079426 200.27547 
L 353.870494 199.393152 
L 354.661563 196.537509 
L 355.452632 195.747308 
L 356.2437 195.551684 
L 357.034769 192.746622 
L 357.825837 192.740928 
L 358.616906 196.416584 
L 359.407974 197.026904 
L 360.199043 193.048433 
L 360.990112 191.972165 
L 361.78118 190.295962 
L 362.572249 190.174032 
L 363.363317 189.606253 
L 364.154386 189.272955 
L 365.736523 188.180274 
L 366.527592 190.841632 
L 367.31866 190.778992 
L 368.109729 191.990924 
L 368.900797 190.477517 
L 369.691866 188.16855 
L 370.482935 187.354231 
L 371.274003 185.532649 
L 372.065072 185.401675 
L 372.85614 183.271248 
L 373.647209 182.914167 
L 374.438278 183.527167 
L 375.229346 181.612463 
L 376.020415 180.310089 
L 376.811483 180.694638 
L 377.602552 176.769762 
L 378.39362 178.742752 
L 379.184689 178.219859 
L 379.975758 178.201771 
L 380.766826 178.440941 
L 381.557895 174.936456 
L 382.348963 174.64704 
L 383.9311 172.440909 
L 384.722169 175.445615 
L 385.513238 175.537397 
L 386.304306 178.321021 
L 387.095375 179.038198 
L 387.886443 178.785628 
L 388.677512 180.999463 
L 390.259649 178.624506 
L 391.050718 178.706909 
L 391.841786 175.158878 
L 392.632855 172.91992 
L 393.423923 174.871137 
L 394.214992 175.102268 
L 395.006061 175.50256 
L 395.797129 174.599139 
L 396.588198 172.088518 
L 397.379266 172.008459 
L 398.170335 168.361611 
L 398.961404 169.744714 
L 399.752472 168.423246 
L 400.543541 162.312338 
L 401.334609 162.196773 
L 402.125678 161.097727 
L 402.916746 158.610554 
L 403.707815 162.762207 
L 404.498884 159.452006 
L 405.289952 158.539875 
L 406.081021 159.979923 
L 407.663158 158.6675 
L 408.454226 155.839325 
L 409.245295 153.955103 
L 410.036364 155.823916 
L 410.827432 155.896605 
L 411.618501 156.752125 
L 412.409569 158.825942 
L 413.200638 158.471876 
L 413.991707 159.15522 
L 414.782775 156.177647 
L 415.573844 156.288188 
L 417.155981 153.869685 
L 417.947049 153.296212 
L 418.738118 153.360191 
L 419.529187 146.287242 
L 420.320255 142.247135 
L 421.111324 148.232429 
L 421.902392 150.314954 
L 422.693461 150.532686 
L 423.48453 150.556469 
L 424.275598 148.631046 
L 425.066667 148.282005 
L 425.857735 148.864187 
L 426.648804 150.523977 
L 427.439872 158.272232 
L 428.230941 155.962595 
L 429.02201 158.537195 
L 429.813078 161.625644 
L 430.604147 160.680016 
L 431.395215 163.51757 
L 433.768421 158.923419 
L 434.55949 156.706569 
L 435.350558 158.693628 
L 436.141627 159.2125 
L 436.932695 160.591583 
L 437.723764 161.091028 
L 438.514833 151.239479 
L 439.305901 149.024304 
L 440.09697 148.773075 
L 440.888038 149.771963 
L 441.679107 151.330257 
L 442.470175 152.263156 
L 443.261244 153.465038 
L 444.052313 150.714912 
L 444.843381 150.970831 
L 445.63445 159.58767 
L 446.425518 156.977562 
L 447.216587 156.357863 
L 448.798724 154.682999 
L 449.589793 158.167385 
L 450.380861 158.106755 
L 451.17193 160.097833 
L 451.962998 158.511402 
L 452.754067 160.129991 
L 453.545136 160.794912 
L 454.336204 158.697982 
L 455.127273 159.3964 
L 455.918341 156.923632 
L 456.70941 156.670057 
L 457.500478 156.75715 
L 458.291547 155.483584 
L 459.082616 156.671732 
L 459.873684 157.321244 
L 460.664753 157.329284 
L 461.455821 161.095382 
L 462.24689 159.680792 
L 463.037959 161.033747 
L 463.829027 161.225352 
L 464.620096 161.091362 
L 465.411164 161.873859 
L 466.202233 159.167949 
L 466.993301 158.082972 
L 467.78437 157.707468 
L 468.575439 157.911131 
L 469.366507 158.41158 
L 470.157576 157.697754 
L 470.948644 157.641143 
L 471.739713 157.864905 
L 472.530781 158.685588 
L 473.32185 158.801489 
L 474.112919 161.810549 
L 474.903987 162.4135 
L 475.695056 161.100072 
L 476.486124 163.236528 
L 477.277193 162.4681 
L 478.068262 162.574622 
L 478.85933 161.821268 
L 479.650399 165.768922 
L 480.441467 164.630015 
L 481.232536 161.036092 
L 482.023604 161.713072 
L 482.814673 157.404652 
L 483.605742 155.338206 
L 484.39681 156.559851 
L 485.187879 155.286955 
L 485.978947 156.623161 
L 486.770016 156.566551 
L 487.561085 155.923403 
L 488.352153 157.80662 
L 489.143222 157.695409 
L 489.93429 158.525806 
L 490.725359 162.557203 
L 491.516427 162.586681 
L 492.307496 162.124083 
L 493.098565 162.668749 
L 493.889633 162.428909 
L 494.680702 164.044147 
L 495.47177 162.202802 
L 496.262839 163.539008 
L 497.053907 165.845631 
L 497.844976 161.995789 
L 498.636045 162.550504 
L 499.427113 165.722026 
L 500.218182 165.407151 
L 501.00925 165.794715 
L 501.800319 161.864145 
L 502.591388 160.615366 
L 503.382456 160.895068 
L 504.173525 158.021002 
L 504.964593 159.563217 
L 506.54673 159.813776 
L 507.337799 160.827404 
L 508.128868 159.066452 
L 508.919936 159.357879 
L 509.711005 159.077171 
L 510.502073 153.990945 
L 511.293142 156.033609 
L 512.084211 152.232338 
L 512.875279 142.283313 
L 513.666348 142.153343 
L 514.457416 139.696318 
L 515.248485 141.255281 
L 516.039553 144.751727 
L 516.830622 135.73694 
L 517.621691 141.645859 
L 518.412759 141.918192 
L 519.203828 144.153465 
L 519.994896 152.902619 
L 520.785965 148.89199 
L 521.577033 149.374351 
L 522.368102 145.955619 
L 523.159171 145.436076 
L 523.950239 149.186431 
L 524.741308 149.305681 
L 525.532376 149.703629 
L 526.323445 148.510791 
L 527.114514 146.536462 
L 527.905582 151.154731 
L 528.696651 151.221055 
L 529.487719 150.144788 
L 530.278788 143.552524 
L 531.069856 141.589919 
L 531.860925 140.554183 
L 532.651994 139.921755 
L 533.443062 140.289555 
L 535.025199 140.514656 
L 535.816268 142.553636 
L 536.607337 141.661603 
L 537.398405 142.49602 
L 538.189474 143.739439 
L 538.980542 141.354433 
L 539.771611 145.26122 
L 540.562679 146.095637 
L 541.353748 145.650459 
L 542.144817 143.802079 
L 542.935885 143.091937 
L 543.726954 145.363722 
L 544.518022 144.816376 
L 545.309091 145.342619 
L 546.100159 139.349286 
L 546.891228 137.08554 
L 547.682297 135.723541 
L 548.473365 136.449762 
L 549.264434 136.958586 
L 550.846571 131.744065 
L 551.63764 131.210453 
L 552.428708 129.066293 
L 553.219777 136.523456 
L 554.010845 136.840005 
L 554.801914 134.709244 
L 555.592982 134.93669 
L 556.384051 143.194438 
L 557.17512 144.677028 
L 557.966188 146.400463 
L 558.757257 142.023709 
L 559.548325 142.903012 
L 560.339394 143.36494 
L 561.130463 142.9958 
L 561.921531 144.394981 
L 562.7126 143.956501 
L 563.503668 145.251506 
L 564.294737 144.903804 
L 565.085805 145.098089 
L 565.876874 148.993152 
L 566.667943 148.265591 
L 567.459011 146.472147 
L 568.25008 145.376116 
L 569.041148 143.184054 
L 569.832217 142.703033 
L 570.623285 143.210852 
L 571.414354 143.337472 
L 572.996491 141.520915 
L 573.78756 142.224357 
L 574.578628 141.370512 
L 575.369697 142.534877 
L 576.160766 142.746245 
L 576.951834 143.199463 
L 577.742903 144.063358 
L 578.533971 143.365609 
L 579.32504 142.420651 
L 580.116108 142.321834 
L 580.907177 140.891836 
L 581.698246 142.31547 
L 582.489314 142.143294 
L 584.071451 136.376738 
L 585.653589 134.870031 
L 586.444657 132.671939 
L 587.235726 132.701082 
L 588.026794 131.821779 
L 588.817863 132.196948 
L 589.608931 130.891224 
L 590.4 134.13443 
L 591.191069 134.495196 
L 591.982137 138.229807 
L 593.564274 132.381518 
L 594.355343 130.763265 
L 595.146411 130.573335 
L 595.93748 129.878937 
L 597.519617 123.969682 
L 598.310686 124.576988 
L 599.101754 127.540827 
L 599.892823 129.923488 
L 600.683892 128.003759 
L 601.47496 130.530794 
L 602.266029 130.170028 
L 603.057097 130.765274 
L 603.848166 131.632184 
L 604.639234 133.283935 
L 605.430303 133.39816 
L 606.221372 133.194832 
L 607.01244 132.373479 
L 607.803509 132.549674 
L 608.594577 128.271737 
L 609.385646 128.200723 
L 610.176715 126.943235 
L 610.967783 127.07354 
L 611.758852 125.525631 
L 612.54992 124.54818 
L 613.340989 125.609374 
L 614.132057 128.494494 
L 614.923126 130.947165 
L 616.505263 130.983007 
L 617.296332 132.319883 
L 618.0874 128.034577 
L 618.878469 128.064724 
L 619.669537 128.35883 
L 620.460606 127.983326 
L 621.251675 128.782906 
L 622.042743 129.820986 
L 622.833812 131.810724 
L 624.415949 134.518979 
L 625.207018 132.848135 
L 625.998086 128.193019 
L 626.789155 127.711663 
L 627.580223 128.420465 
L 628.371292 133.859083 
L 629.16236 127.836943 
L 629.953429 133.612878 
L 630.744498 134.179987 
L 631.535566 145.090384 
L 632.326635 146.171006 
L 633.117703 142.340928 
L 633.908772 141.462629 
L 634.699841 144.278745 
L 635.490909 144.965104 
L 636.281978 151.506117 
L 637.073046 148.840404 
L 637.864115 147.446582 
L 638.655183 147.218801 
L 639.446252 150.636863 
L 640.237321 155.871817 
L 641.028389 155.47186 
L 641.819458 155.309063 
L 642.610526 151.402946 
L 643.401595 149.902938 
L 644.192663 152.651724 
L 644.983732 154.033822 
L 645.774801 154.272992 
L 646.565869 155.075587 
L 647.356938 153.262714 
L 648.148006 153.662002 
L 648.939075 154.615669 
L 649.730144 162.585341 
L 650.521212 162.084557 
L 651.312281 162.215531 
L 652.103349 164.426016 
L 652.894418 162.195098 
L 653.685486 163.672663 
L 654.476555 166.610039 
L 655.267624 168.24906 
L 656.058692 172.082153 
L 656.849761 172.087178 
L 657.640829 171.211894 
L 658.431898 168.280548 
L 659.222967 168.582693 
L 660.014035 169.967805 
L 660.805104 168.776307 
L 661.596172 169.399022 
L 662.387241 169.4831 
L 663.178309 169.090512 
L 663.969378 169.135063 
L 664.760447 169.474056 
L 665.551515 177.47421 
L 666.342584 177.301699 
L 667.133652 176.786511 
L 667.924721 176.696738 
L 668.715789 174.806487 
L 669.506858 177.276576 
L 670.297927 180.42599 
L 671.088995 180.465851 
L 671.880064 179.798251 
L 672.671132 179.318905 
L 673.462201 181.275146 
L 674.25327 182.886699 
L 675.044338 182.429797 
L 675.835407 182.848178 
L 676.626475 181.546139 
L 677.417544 181.356209 
L 678.208612 181.83254 
L 678.999681 181.863023 
L 679.79075 181.03229 
L 680.581818 181.387026 
L 681.372887 179.482706 
L 682.163955 179.715847 
L 682.955024 179.183241 
L 683.746093 180.709042 
L 684.537161 178.504586 
L 686.119298 178.410794 
L 686.910367 179.059301 
L 687.701435 179.537642 
L 688.492504 182.455255 
L 689.283573 181.294574 
L 690.074641 181.738748 
L 690.86571 181.744107 
L 691.656778 181.867377 
L 692.447847 181.735398 
L 693.238915 181.163935 
L 694.029984 181.842924 
L 694.821053 179.25459 
L 695.612121 179.968082 
L 696.40319 181.984953 
L 697.194258 177.77803 
L 697.985327 177.890916 
L 698.776396 175.802026 
L 699.567464 176.11556 
L 700.358533 176.897052 
L 701.149601 175.87103 
L 701.94067 175.885434 
L 702.731738 178.7595 
L 704.313876 186.831339 
L 705.104944 188.027861 
L 705.896013 188.499838 
L 706.687081 188.271386 
L 707.47815 184.646646 
L 708.269219 182.979487 
L 709.060287 184.669089 
L 709.851356 185.28075 
L 710.642424 186.175797 
L 711.433493 185.292809 
L 712.224561 187.812809 
L 713.01563 183.533532 
L 713.806699 183.243445 
L 714.597767 189.235773 
L 715.388836 190.240691 
L 716.179904 190.180396 
L 716.970973 191.854925 
L 717.762041 191.517942 
L 718.55311 192.881281 
L 720.135247 188.485769 
L 720.926316 185.907484 
L 721.717384 186.338259 
L 722.508453 183.597847 
L 723.299522 184.054749 
L 724.881659 184.018572 
L 725.672727 183.652782 
L 726.463796 182.094489 
L 728.045933 191.726295 
L 728.837002 190.510344 
L 729.62807 190.859051 
L 730.419139 185.083451 
L 731.210207 185.255292 
L 732.001276 186.060231 
L 733.583413 186.164408 
L 734.374482 185.982518 
L 735.16555 180.256828 
L 736.747687 181.502257 
L 737.538756 186.481627 
L 738.329825 187.507314 
L 739.120893 186.726827 
L 739.911962 186.968677 
L 740.70303 189.071971 
L 741.494099 190.269834 
L 742.285167 196.940481 
L 743.076236 196.444052 
L 743.867305 195.29342 
L 744.658373 195.611309 
L 745.449442 195.630403 
L 746.24051 196.709685 
L 747.031579 196.206221 
L 747.822648 195.069993 
L 748.613716 199.308739 
L 749.404785 199.204897 
L 750.195853 200.060417 
L 750.986922 201.188941 
L 751.77799 201.856206 
L 752.569059 205.331549 
L 753.360128 204.167183 
L 754.151196 204.021135 
L 754.942265 205.018014 
L 755.733333 205.554975 
L 756.524402 204.969443 
L 757.31547 206.523047 
L 758.106539 206.601765 
L 759.688676 206.458732 
L 760.479745 206.699912 
L 761.270813 207.27908 
L 762.061882 210.873673 
L 762.852951 209.160287 
L 763.644019 209.260444 
L 764.435088 203.848959 
L 765.226156 203.603424 
L 766.017225 204.128996 
L 766.808293 206.937408 
L 767.599362 207.09585 
L 768.390431 208.037458 
L 769.181499 206.818828 
L 769.972568 209.274848 
L 770.763636 209.614175 
L 771.554705 208.842063 
L 773.136842 202.490645 
L 773.927911 202.527827 
L 774.718979 202.885913 
L 775.510048 203.635247 
L 776.301116 203.189398 
L 777.092185 203.458716 
L 777.883254 205.046487 
L 778.674322 205.504395 
L 779.465391 206.919319 
L 781.047528 206.978945 
L 781.838596 207.413069 
L 782.629665 208.249831 
L 783.420734 208.539248 
L 784.211802 205.643073 
L 785.002871 208.050857 
L 785.793939 206.980619 
L 786.585008 205.119176 
L 787.376077 205.262544 
L 788.958214 199.898291 
L 789.749282 199.988063 
L 790.540351 201.038873 
L 791.331419 202.368715 
L 792.122488 202.870504 
L 792.913557 204.719553 
L 793.704625 207.58826 
L 794.495694 208.122542 
L 795.286762 208.431721 
L 796.077831 208.096079 
L 796.8689 202.938503 
L 797.659968 202.680574 
L 798.451037 202.73216 
L 799.242105 202.54424 
L 800.033174 200.805397 
L 800.824242 202.624969 
L 801.615311 203.226245 
L 802.40638 201.193295 
L 803.197448 202.294016 
L 803.988517 202.772022 
L 804.779585 202.862799 
L 805.570654 202.618939 
L 806.361722 205.061896 
L 807.152791 204.005726 
L 807.94386 202.17443 
L 808.734928 202.251139 
L 809.525997 200.239293 
L 810.317065 200.302268 
L 811.108134 201.581194 
L 811.899203 201.158793 
L 812.690271 202.467867 
L 813.48134 201.815005 
L 814.272408 203.796368 
L 815.063477 204.865601 
L 815.854545 209.068505 
L 816.645614 210.827781 
L 817.436683 210.805338 
L 818.227751 209.402137 
L 819.01882 209.06951 
L 819.809888 210.341066 
L 820.600957 209.823198 
L 821.392026 203.537435 
L 822.183094 203.080867 
L 822.974163 203.087231 
L 823.765231 200.724668 
L 824.5563 200.33476 
L 825.347368 198.338657 
L 826.138437 199.520441 
L 826.929506 204.740657 
L 827.720574 208.315821 
L 828.511643 208.142305 
L 829.302711 203.892171 
L 830.09378 204.170198 
L 830.884848 206.614159 
L 831.675917 205.448454 
L 832.466986 204.966093 
L 834.049123 204.75707 
L 834.840191 203.762871 
L 835.63126 203.194757 
L 836.422329 205.4374 
L 837.213397 204.161154 
L 838.004466 204.776164 
L 838.795534 203.214856 
L 839.586603 206.54951 
L 840.377671 210.894106 
L 841.16874 211.118873 
L 841.959809 214.081372 
L 842.750877 213.775877 
L 843.541946 214.583831 
L 844.333014 216.424841 
L 845.124083 216.659322 
L 845.915152 219.164918 
L 846.70622 218.875167 
L 847.497289 219.802371 
L 848.288357 224.907356 
L 849.079426 225.149206 
L 849.870494 226.03119 
L 850.661563 226.050283 
L 851.452632 224.530512 
L 852.2437 224.448443 
L 853.034769 226.287779 
L 853.825837 226.778179 
L 854.616906 230.129246 
L 855.407974 225.811783 
L 856.199043 225.093936 
L 857.78118 224.889268 
L 858.572249 225.77795 
L 859.363317 223.016435 
L 860.945455 223.19464 
L 862.527592 224.850076 
L 863.31866 225.257738 
L 864.109729 224.700008 
L 864.900797 224.996124 
L 865.691866 224.823948 
L 866.482935 223.894064 
L 867.274003 223.745671 
L 868.065072 223.7517 
L 868.85614 224.039107 
L 869.647209 223.468983 
L 871.229346 223.173537 
L 872.020415 223.698104 
L 872.811483 224.544581 
L 873.602552 225.886481 
L 874.39362 226.403009 
L 875.184689 226.097514 
L 875.975758 226.025495 
L 876.766826 216.37761 
L 877.557895 214.785485 
L 878.348963 212.81618 
L 879.140032 212.399809 
L 879.9311 212.302332 
L 880.722169 210.66264 
L 881.513238 210.768826 
L 882.304306 214.331596 
L 883.095375 215.743172 
L 883.886443 221.766317 
L 884.677512 221.185474 
L 885.468581 221.748228 
L 887.050718 222.009842 
L 887.841786 222.633226 
L 889.423923 222.981598 
L 890.214992 223.110227 
L 891.797129 226.781864 
L 892.588198 232.122669 
L 894.170335 232.275082 
L 894.961404 233.002308 
L 895.752472 234.57333 
L 896.543541 235.090863 
L 897.334609 235.206428 
L 898.125678 235.0644 
L 898.916746 235.502544 
L 899.707815 235.672375 
L 900.498884 235.573558 
L 901.289952 235.938344 
L 902.081021 238.872035 
L 902.872089 239.428425 
L 903.663158 241.659343 
L 904.454226 242.659237 
L 906.036364 247.423889 
L 906.827432 250.025623 
L 907.618501 250.454388 
L 908.409569 253.480197 
L 909.200638 253.394444 
L 909.991707 254.128034 
L 910.782775 254.342417 
L 911.573844 254.807024 
L 912.364912 254.924264 
L 913.155981 255.709105 
L 913.947049 255.538939 
L 914.738118 257.120346 
L 915.529187 259.578711 
L 916.320255 262.907335 
L 917.902392 263.14617 
L 918.693461 263.721319 
L 919.48453 266.277496 
L 920.275598 266.614813 
L 921.066667 270.09719 
L 921.857735 270.28042 
L 922.648804 271.527859 
L 923.439872 273.045285 
L 924.230941 273.071748 
L 925.02201 274.843084 
L 925.813078 275.029664 
L 926.604147 277.129608 
L 927.395215 278.674167 
L 928.186284 278.94449 
L 928.977352 280.815983 
L 929.768421 280.833067 
L 930.55949 281.165695 
L 932.141627 283.778147 
L 932.932695 286.032514 
L 933.723764 286.0774 
L 936.09697 286.669967 
L 936.888038 288.802738 
L 937.679107 288.951131 
L 939.261244 289.753391 
L 940.052313 290.841382 
L 940.843381 298.643568 
L 941.63445 298.765498 
L 942.425518 299.546319 
L 943.216587 302.23883 
L 944.007656 302.961032 
L 944.798724 305.956693 
L 945.589793 305.954683 
L 946.380861 306.23807 
L 947.17193 306.690618 
L 947.962998 306.984054 
L 948.754067 312.431046 
L 949.545136 312.609587 
L 950.336204 316.271174 
L 951.127273 318.705756 
L 951.918341 319.027664 
L 952.70941 320.06474 
L 953.500478 320.469052 
L 955.082616 323.254351 
L 958.24689 326.435922 
L 959.037959 326.626186 
L 959.829027 327.101178 
L 961.411164 327.376525 
L 964.575439 328.466862 
L 965.366507 329.526715 
L 966.157576 329.717985 
L 966.948644 330.14541 
L 970.112919 330.717209 
L 970.903987 333.799963 
L 971.695056 333.866622 
L 972.486124 334.81828 
L 973.277193 334.918102 
L 974.068262 335.726056 
L 974.85933 341.627271 
L 975.650399 342.249985 
L 978.023604 342.421491 
L 978.814673 345.87841 
L 980.39681 346.094468 
L 981.978947 346.159452 
L 984.352153 348.587335 
L 985.143222 350.705368 
L 986.725359 350.910706 
L 987.516427 351.424554 
L 988.307496 351.627213 
L 989.098565 352.64017 
L 989.889633 352.673332 
L 990.680702 353.085684 
L 992.262839 353.292697 
L 993.053907 355.724264 
L 993.844976 356.048853 
L 994.636045 356.136616 
L 995.427113 357.963222 
L 996.218182 369.36 
L 996.218182 369.36 
" clip-path="url(#p63a1ea96b7)" style="fill: none; stroke: #1f77b4; stroke-width: 1.5; stroke-linecap: square"/>
   </g>
   <g id="line2d_13">
    <path d="M 184.581818 339.9849 
L 996.218182 339.9849 
L 996.218182 339.9849 
" clip-path="url(#p63a1ea96b7)" style="fill: none; stroke-dasharray: 5.55,2.4; stroke-dashoffset: 0; stroke: #ff7f0e; stroke-width: 1.5"/>
   </g>
   <g id="line2d_14">
    <path d="M 184.581818 203.47245 
L 996.218182 203.47245 
L 996.218182 203.47245 
" clip-path="url(#p63a1ea96b7)" style="fill: none; stroke-dasharray: 5.55,2.4; stroke-dashoffset: 0; stroke: #2ca02c; stroke-width: 1.5"/>
   </g>
   <g id="line2d_15">
    <path d="M 184.581818 66.96 
L 996.218182 66.96 
L 996.218182 66.96 
" clip-path="url(#p63a1ea96b7)" style="fill: none; stroke-dasharray: 5.55,2.4; stroke-dashoffset: 0; stroke: #d62728; stroke-width: 1.5"/>
   </g>
   <g id="patch_3">
    <path d="M 144 384.48 
L 144 51.84 
" style="fill: none; stroke: #000000; stroke-width: 0.8; stroke-linejoin: miter; stroke-linecap: square"/>
   </g>
   <g id="patch_4">
    <path d="M 1036.8 384.48 
L 1036.8 51.84 
" style="fill: none; stroke: #000000; stroke-width: 0.8; stroke-linejoin: miter; stroke-linecap: square"/>
   </g>
   <g id="patch_5">
    <path d="M 144 384.48 
L 1036.8 384.48 
" style="fill: none; stroke: #000000; stroke-width: 0.8; stroke-linejoin: miter; stroke-linecap: square"/>
   </g>
   <g id="patch_6">
    <path d="M 144 51.84 
L 1036.8 51.84 
" style="fill: none; stroke: #000000; stroke-width: 0.8; stroke-linejoin: miter; stroke-linecap: square"/>
   </g>
   <g id="text_14">
    <!-- MP -->
    <g transform="translate(581.605312 45.84)scale(0.12 -0.12)">
     <defs>
      <path id="DejaVuSans-4d" d="M 628 4666 
L 1569 4666 
L 2759 1491 
L 3956 4666 
L 4897 4666 
L 4897 0 
L 4281 0 
L 4281 4097 
L 3078 897 
L 2444 897 
L 1241 4097 
L 1241 0 
L 628 0 
L 628 4666 
z
" transform="scale(0.015625)"/>
     </defs>
     <use xlink:href="#DejaVuSans-4d"/>
     <use xlink:href="#DejaVuSans-50" x="86.279297"/>
    </g>
   </g>
   <g id="legend_1">
    <g id="patch_7">
     <path d="M 146 28.936045 
L 1034.8 28.936045 
Q 1036.8 28.936045 1036.8 26.936045 
L 1036.8 13.25792 
Q 1036.8 11.25792 1034.8 11.25792 
L 146 11.25792 
Q 144 11.25792 144 13.25792 
L 144 26.936045 
Q 144 28.936045 146 28.936045 
z
" style="fill: #ffffff; opacity: 0.8; stroke: #cccccc; stroke-linejoin: miter"/>
    </g>
    <g id="line2d_16">
     <path d="M 148 19.356358 
L 158 19.356358 
L 168 19.356358 
" style="fill: none; stroke-dasharray: 5.55,2.4; stroke-dashoffset: 0; stroke: #ff7f0e; stroke-width: 1.5"/>
    </g>
    <g id="text_15">
     <!-- Average depth * 0.2 -->
     <g transform="translate(176 22.856358)scale(0.1 -0.1)">
      <defs>
       <path id="DejaVuSans-41" d="M 2188 4044 
L 1331 1722 
L 3047 1722 
L 2188 4044 
z
M 1831 4666 
L 2547 4666 
L 4325 0 
L 3669 0 
L 3244 1197 
L 1141 1197 
L 716 0 
L 50 0 
L 1831 4666 
z
" transform="scale(0.015625)"/>
       <path id="DejaVuSans-64" d="M 2906 2969 
L 2906 4863 
L 3481 4863 
L 3481 0 
L 2906 0 
L 2906 525 
Q 2725 213 2448 61 
Q 2172 -91 1784 -91 
Q 1150 -91 751 415 
Q 353 922 353 1747 
Q 353 2572 751 3078 
Q 1150 3584 1784 3584 
Q 2172 3584 2448 3432 
Q 2725 3281 2906 2969 
z
M 947 1747 
Q 947 1113 1208 752 
Q 1469 391 1925 391 
Q 2381 391 2643 752 
Q 2906 1113 2906 1747 
Q 2906 2381 2643 2742 
Q 2381 3103 1925 3103 
Q 1469 3103 1208 2742 
Q 947 2381 947 1747 
z
" transform="scale(0.015625)"/>
       <path id="DejaVuSans-2a" d="M 3009 3897 
L 1888 3291 
L 3009 2681 
L 2828 2375 
L 1778 3009 
L 1778 1831 
L 1422 1831 
L 1422 3009 
L 372 2375 
L 191 2681 
L 1313 3291 
L 191 3897 
L 372 4206 
L 1422 3572 
L 1422 4750 
L 1778 4750 
L 1778 3572 
L 2828 4206 
L 3009 3897 
z
" transform="scale(0.015625)"/>
       <path id="DejaVuSans-2e" d="M 684 794 
L 1344 794 
L 1344 0 
L 684 0 
L 684 794 
z
" transform="scale(0.015625)"/>
      </defs>
      <use xlink:href="#DejaVuSans-41"/>
      <use xlink:href="#DejaVuSans-76" x="62.533203"/>
      <use xlink:href="#DejaVuSans-65" x="121.712891"/>
      <use xlink:href="#DejaVuSans-72" x="183.236328"/>
      <use xlink:href="#DejaVuSans-61" x="224.349609"/>
      <use xlink:href="#DejaVuSans-67" x="285.628906"/>
      <use xlink:href="#DejaVuSans-65" x="349.105469"/>
      <use xlink:href="#DejaVuSans-20" x="410.628906"/>
      <use xlink:href="#DejaVuSans-64" x="442.416016"/>
      <use xlink:href="#DejaVuSans-65" x="505.892578"/>
      <use xlink:href="#DejaVuSans-70" x="567.416016"/>
      <use xlink:href="#DejaVuSans-74" x="630.892578"/>
      <use xlink:href="#DejaVuSans-68" x="670.101562"/>
      <use xlink:href="#DejaVuSans-20" x="733.480469"/>
      <use xlink:href="#DejaVuSans-2a" x="765.267578"/>
      <use xlink:href="#DejaVuSans-20" x="815.267578"/>
      <use xlink:href="#DejaVuSans-30" x="847.054688"/>
      <use xlink:href="#DejaVuSans-2e" x="910.677734"/>
      <use xlink:href="#DejaVuSans-32" x="942.464844"/>
     </g>
    </g>
    <g id="line2d_17">
     <path d="M 539.724219 19.356358 
L 549.724219 19.356358 
L 559.724219 19.356358 
" style="fill: none; stroke-dasharray: 5.55,2.4; stroke-dashoffset: 0; stroke: #2ca02c; stroke-width: 1.5"/>
    </g>
    <g id="text_16">
     <!-- Average depth -->
     <g transform="translate(567.724219 22.856358)scale(0.1 -0.1)">
      <use xlink:href="#DejaVuSans-41"/>
      <use xlink:href="#DejaVuSans-76" x="62.533203"/>
      <use xlink:href="#DejaVuSans-65" x="121.712891"/>
      <use xlink:href="#DejaVuSans-72" x="183.236328"/>
      <use xlink:href="#DejaVuSans-61" x="224.349609"/>
      <use xlink:href="#DejaVuSans-67" x="285.628906"/>
      <use xlink:href="#DejaVuSans-65" x="349.105469"/>
      <use xlink:href="#DejaVuSans-20" x="410.628906"/>
      <use xlink:href="#DejaVuSans-64" x="442.416016"/>
      <use xlink:href="#DejaVuSans-65" x="505.892578"/>
      <use xlink:href="#DejaVuSans-70" x="567.416016"/>
      <use xlink:href="#DejaVuSans-74" x="630.892578"/>
      <use xlink:href="#DejaVuSans-68" x="670.101562"/>
     </g>
    </g>
    <g id="line2d_18">
     <path d="M 904.189062 19.356358 
L 914.189062 19.356358 
L 924.189062 19.356358 
" style="fill: none; stroke-dasharray: 5.55,2.4; stroke-dashoffset: 0; stroke: #d62728; stroke-width: 1.5"/>
    </g>
    <g id="text_17">
     <!-- Average depth * 1.8 -->
     <g transform="translate(932.189062 22.856358)scale(0.1 -0.1)">
      <use xlink:href="#DejaVuSans-41"/>
      <use xlink:href="#DejaVuSans-76" x="62.533203"/>
      <use xlink:href="#DejaVuSans-65" x="121.712891"/>
      <use xlink:href="#DejaVuSans-72" x="183.236328"/>
      <use xlink:href="#DejaVuSans-61" x="224.349609"/>
      <use xlink:href="#DejaVuSans-67" x="285.628906"/>
      <use xlink:href="#DejaVuSans-65" x="349.105469"/>
      <use xlink:href="#DejaVuSans-20" x="410.628906"/>
      <use xlink:href="#DejaVuSans-64" x="442.416016"/>
      <use xlink:href="#DejaVuSans-65" x="505.892578"/>
      <use xlink:href="#DejaVuSans-70" x="567.416016"/>
      <use xlink:href="#DejaVuSans-74" x="630.892578"/>
      <use xlink:href="#DejaVuSans-68" x="670.101562"/>
      <use xlink:href="#DejaVuSans-20" x="733.480469"/>
      <use xlink:href="#DejaVuSans-2a" x="765.267578"/>
      <use xlink:href="#DejaVuSans-20" x="815.267578"/>
      <use xlink:href="#DejaVuSans-31" x="847.054688"/>
      <use xlink:href="#DejaVuSans-2e" x="910.677734"/>
      <use xlink:href="#DejaVuSans-38" x="942.464844"/>
     </g>
    </g>
   </g>
  </g>
 </g>
 <defs>
  <clipPath id="p63a1ea96b7">
   <rect x="144" y="51.84" width="892.8" height="332.64"/>
  </clipPath>
 </defs>
</svg>
