<?xml version="1.0" encoding="utf-8" standalone="no"?>
<!DOCTYPE svg PUBLIC "-//W3C//DTD SVG 1.1//EN"
  "http://www.w3.org/Graphics/SVG/1.1/DTD/svg11.dtd">
<svg xmlns:xlink="http://www.w3.org/1999/xlink" width="1152pt" height="432pt" viewBox="0 0 1152 432" xmlns="http://www.w3.org/2000/svg" version="1.1">
 <metadata>
  <rdf:RDF xmlns:dc="http://purl.org/dc/elements/1.1/" xmlns:cc="http://creativecommons.org/ns#" xmlns:rdf="http://www.w3.org/1999/02/22-rdf-syntax-ns#">
   <cc:Work>
    <dc:type rdf:resource="http://purl.org/dc/dcmitype/StillImage"/>
    <dc:date>2022-11-25T09:00:18.202820</dc:date>
    <dc:format>image/svg+xml</dc:format>
    <dc:creator>
     <cc:Agent>
      <dc:title>Matplotlib v3.5.2, https://matplotlib.org/</dc:title>
     </cc:Agent>
    </dc:creator>
   </cc:Work>
  </rdf:RDF>
 </metadata>
 <defs>
  <style type="text/css">*{stroke-linejoin: round; stroke-linecap: butt}</style>
 </defs>
 <g id="figure_1">
  <g id="patch_1">
   <path d="M 0 432 
L 1152 432 
L 1152 0 
L 0 0 
z
" style="fill: #ffffff"/>
  </g>
  <g id="axes_1">
   <g id="patch_2">
    <path d="M 144 384.48 
L 1036.8 384.48 
L 1036.8 51.84 
L 144 51.84 
z
" style="fill: #ffffff"/>
   </g>
   <g id="matplotlib.axis_1">
    <g id="xtick_1">
     <g id="line2d_1">
      <defs>
       <path id="m3f9a3d55de" d="M 0 0 
L 0 3.5 
" style="stroke: #000000; stroke-width: 0.8"/>
      </defs>
      <g>
       <use xlink:href="#m3f9a3d55de" x="184.581818" y="384.48" style="stroke: #000000; stroke-width: 0.8"/>
      </g>
     </g>
     <g id="text_1">
      <!-- 0 -->
      <g transform="translate(181.400568 399.078438)scale(0.1 -0.1)">
       <defs>
        <path id="DejaVuSans-30" d="M 2034 4250 
Q 1547 4250 1301 3770 
Q 1056 3291 1056 2328 
Q 1056 1369 1301 889 
Q 1547 409 2034 409 
Q 2525 409 2770 889 
Q 3016 1369 3016 2328 
Q 3016 3291 2770 3770 
Q 2525 4250 2034 4250 
z
M 2034 4750 
Q 2819 4750 3233 4129 
Q 3647 3509 3647 2328 
Q 3647 1150 3233 529 
Q 2819 -91 2034 -91 
Q 1250 -91 836 529 
Q 422 1150 422 2328 
Q 422 3509 836 4129 
Q 1250 4750 2034 4750 
z
" transform="scale(0.015625)"/>
       </defs>
       <use xlink:href="#DejaVuSans-30"/>
      </g>
     </g>
    </g>
    <g id="xtick_2">
     <g id="line2d_2">
      <g>
       <use xlink:href="#m3f9a3d55de" x="295.536892" y="384.48" style="stroke: #000000; stroke-width: 0.8"/>
      </g>
     </g>
     <g id="text_2">
      <!-- 200 -->
      <g transform="translate(285.993142 399.078438)scale(0.1 -0.1)">
       <defs>
        <path id="DejaVuSans-32" d="M 1228 531 
L 3431 531 
L 3431 0 
L 469 0 
L 469 531 
Q 828 903 1448 1529 
Q 2069 2156 2228 2338 
Q 2531 2678 2651 2914 
Q 2772 3150 2772 3378 
Q 2772 3750 2511 3984 
Q 2250 4219 1831 4219 
Q 1534 4219 1204 4116 
Q 875 4013 500 3803 
L 500 4441 
Q 881 4594 1212 4672 
Q 1544 4750 1819 4750 
Q 2544 4750 2975 4387 
Q 3406 4025 3406 3419 
Q 3406 3131 3298 2873 
Q 3191 2616 2906 2266 
Q 2828 2175 2409 1742 
Q 1991 1309 1228 531 
z
" transform="scale(0.015625)"/>
       </defs>
       <use xlink:href="#DejaVuSans-32"/>
       <use xlink:href="#DejaVuSans-30" x="63.623047"/>
       <use xlink:href="#DejaVuSans-30" x="127.246094"/>
      </g>
     </g>
    </g>
    <g id="xtick_3">
     <g id="line2d_3">
      <g>
       <use xlink:href="#m3f9a3d55de" x="406.491965" y="384.48" style="stroke: #000000; stroke-width: 0.8"/>
      </g>
     </g>
     <g id="text_3">
      <!-- 400 -->
      <g transform="translate(396.948215 399.078438)scale(0.1 -0.1)">
       <defs>
        <path id="DejaVuSans-34" d="M 2419 4116 
L 825 1625 
L 2419 1625 
L 2419 4116 
z
M 2253 4666 
L 3047 4666 
L 3047 1625 
L 3713 1625 
L 3713 1100 
L 3047 1100 
L 3047 0 
L 2419 0 
L 2419 1100 
L 313 1100 
L 313 1709 
L 2253 4666 
z
" transform="scale(0.015625)"/>
       </defs>
       <use xlink:href="#DejaVuSans-34"/>
       <use xlink:href="#DejaVuSans-30" x="63.623047"/>
       <use xlink:href="#DejaVuSans-30" x="127.246094"/>
      </g>
     </g>
    </g>
    <g id="xtick_4">
     <g id="line2d_4">
      <g>
       <use xlink:href="#m3f9a3d55de" x="517.447039" y="384.48" style="stroke: #000000; stroke-width: 0.8"/>
      </g>
     </g>
     <g id="text_4">
      <!-- 600 -->
      <g transform="translate(507.903289 399.078438)scale(0.1 -0.1)">
       <defs>
        <path id="DejaVuSans-36" d="M 2113 2584 
Q 1688 2584 1439 2293 
Q 1191 2003 1191 1497 
Q 1191 994 1439 701 
Q 1688 409 2113 409 
Q 2538 409 2786 701 
Q 3034 994 3034 1497 
Q 3034 2003 2786 2293 
Q 2538 2584 2113 2584 
z
M 3366 4563 
L 3366 3988 
Q 3128 4100 2886 4159 
Q 2644 4219 2406 4219 
Q 1781 4219 1451 3797 
Q 1122 3375 1075 2522 
Q 1259 2794 1537 2939 
Q 1816 3084 2150 3084 
Q 2853 3084 3261 2657 
Q 3669 2231 3669 1497 
Q 3669 778 3244 343 
Q 2819 -91 2113 -91 
Q 1303 -91 875 529 
Q 447 1150 447 2328 
Q 447 3434 972 4092 
Q 1497 4750 2381 4750 
Q 2619 4750 2861 4703 
Q 3103 4656 3366 4563 
z
" transform="scale(0.015625)"/>
       </defs>
       <use xlink:href="#DejaVuSans-36"/>
       <use xlink:href="#DejaVuSans-30" x="63.623047"/>
       <use xlink:href="#DejaVuSans-30" x="127.246094"/>
      </g>
     </g>
    </g>
    <g id="xtick_5">
     <g id="line2d_5">
      <g>
       <use xlink:href="#m3f9a3d55de" x="628.402113" y="384.48" style="stroke: #000000; stroke-width: 0.8"/>
      </g>
     </g>
     <g id="text_5">
      <!-- 800 -->
      <g transform="translate(618.858363 399.078438)scale(0.1 -0.1)">
       <defs>
        <path id="DejaVuSans-38" d="M 2034 2216 
Q 1584 2216 1326 1975 
Q 1069 1734 1069 1313 
Q 1069 891 1326 650 
Q 1584 409 2034 409 
Q 2484 409 2743 651 
Q 3003 894 3003 1313 
Q 3003 1734 2745 1975 
Q 2488 2216 2034 2216 
z
M 1403 2484 
Q 997 2584 770 2862 
Q 544 3141 544 3541 
Q 544 4100 942 4425 
Q 1341 4750 2034 4750 
Q 2731 4750 3128 4425 
Q 3525 4100 3525 3541 
Q 3525 3141 3298 2862 
Q 3072 2584 2669 2484 
Q 3125 2378 3379 2068 
Q 3634 1759 3634 1313 
Q 3634 634 3220 271 
Q 2806 -91 2034 -91 
Q 1263 -91 848 271 
Q 434 634 434 1313 
Q 434 1759 690 2068 
Q 947 2378 1403 2484 
z
M 1172 3481 
Q 1172 3119 1398 2916 
Q 1625 2713 2034 2713 
Q 2441 2713 2670 2916 
Q 2900 3119 2900 3481 
Q 2900 3844 2670 4047 
Q 2441 4250 2034 4250 
Q 1625 4250 1398 4047 
Q 1172 3844 1172 3481 
z
" transform="scale(0.015625)"/>
       </defs>
       <use xlink:href="#DejaVuSans-38"/>
       <use xlink:href="#DejaVuSans-30" x="63.623047"/>
       <use xlink:href="#DejaVuSans-30" x="127.246094"/>
      </g>
     </g>
    </g>
    <g id="xtick_6">
     <g id="line2d_6">
      <g>
       <use xlink:href="#m3f9a3d55de" x="739.357186" y="384.48" style="stroke: #000000; stroke-width: 0.8"/>
      </g>
     </g>
     <g id="text_6">
      <!-- 1000 -->
      <g transform="translate(726.632186 399.078438)scale(0.1 -0.1)">
       <defs>
        <path id="DejaVuSans-31" d="M 794 531 
L 1825 531 
L 1825 4091 
L 703 3866 
L 703 4441 
L 1819 4666 
L 2450 4666 
L 2450 531 
L 3481 531 
L 3481 0 
L 794 0 
L 794 531 
z
" transform="scale(0.015625)"/>
       </defs>
       <use xlink:href="#DejaVuSans-31"/>
       <use xlink:href="#DejaVuSans-30" x="63.623047"/>
       <use xlink:href="#DejaVuSans-30" x="127.246094"/>
       <use xlink:href="#DejaVuSans-30" x="190.869141"/>
      </g>
     </g>
    </g>
    <g id="xtick_7">
     <g id="line2d_7">
      <g>
       <use xlink:href="#m3f9a3d55de" x="850.31226" y="384.48" style="stroke: #000000; stroke-width: 0.8"/>
      </g>
     </g>
     <g id="text_7">
      <!-- 1200 -->
      <g transform="translate(837.58726 399.078438)scale(0.1 -0.1)">
       <use xlink:href="#DejaVuSans-31"/>
       <use xlink:href="#DejaVuSans-32" x="63.623047"/>
       <use xlink:href="#DejaVuSans-30" x="127.246094"/>
       <use xlink:href="#DejaVuSans-30" x="190.869141"/>
      </g>
     </g>
    </g>
    <g id="xtick_8">
     <g id="line2d_8">
      <g>
       <use xlink:href="#m3f9a3d55de" x="961.267334" y="384.48" style="stroke: #000000; stroke-width: 0.8"/>
      </g>
     </g>
     <g id="text_8">
      <!-- 1400 -->
      <g transform="translate(948.542334 399.078438)scale(0.1 -0.1)">
       <use xlink:href="#DejaVuSans-31"/>
       <use xlink:href="#DejaVuSans-34" x="63.623047"/>
       <use xlink:href="#DejaVuSans-30" x="127.246094"/>
       <use xlink:href="#DejaVuSans-30" x="190.869141"/>
      </g>
     </g>
    </g>
    <g id="text_9">
     <!-- Position -->
     <g transform="translate(570.935938 412.756563)scale(0.1 -0.1)">
      <defs>
       <path id="DejaVuSans-50" d="M 1259 4147 
L 1259 2394 
L 2053 2394 
Q 2494 2394 2734 2622 
Q 2975 2850 2975 3272 
Q 2975 3691 2734 3919 
Q 2494 4147 2053 4147 
L 1259 4147 
z
M 628 4666 
L 2053 4666 
Q 2838 4666 3239 4311 
Q 3641 3956 3641 3272 
Q 3641 2581 3239 2228 
Q 2838 1875 2053 1875 
L 1259 1875 
L 1259 0 
L 628 0 
L 628 4666 
z
" transform="scale(0.015625)"/>
       <path id="DejaVuSans-6f" d="M 1959 3097 
Q 1497 3097 1228 2736 
Q 959 2375 959 1747 
Q 959 1119 1226 758 
Q 1494 397 1959 397 
Q 2419 397 2687 759 
Q 2956 1122 2956 1747 
Q 2956 2369 2687 2733 
Q 2419 3097 1959 3097 
z
M 1959 3584 
Q 2709 3584 3137 3096 
Q 3566 2609 3566 1747 
Q 3566 888 3137 398 
Q 2709 -91 1959 -91 
Q 1206 -91 779 398 
Q 353 888 353 1747 
Q 353 2609 779 3096 
Q 1206 3584 1959 3584 
z
" transform="scale(0.015625)"/>
       <path id="DejaVuSans-73" d="M 2834 3397 
L 2834 2853 
Q 2591 2978 2328 3040 
Q 2066 3103 1784 3103 
Q 1356 3103 1142 2972 
Q 928 2841 928 2578 
Q 928 2378 1081 2264 
Q 1234 2150 1697 2047 
L 1894 2003 
Q 2506 1872 2764 1633 
Q 3022 1394 3022 966 
Q 3022 478 2636 193 
Q 2250 -91 1575 -91 
Q 1294 -91 989 -36 
Q 684 19 347 128 
L 347 722 
Q 666 556 975 473 
Q 1284 391 1588 391 
Q 1994 391 2212 530 
Q 2431 669 2431 922 
Q 2431 1156 2273 1281 
Q 2116 1406 1581 1522 
L 1381 1569 
Q 847 1681 609 1914 
Q 372 2147 372 2553 
Q 372 3047 722 3315 
Q 1072 3584 1716 3584 
Q 2034 3584 2315 3537 
Q 2597 3491 2834 3397 
z
" transform="scale(0.015625)"/>
       <path id="DejaVuSans-69" d="M 603 3500 
L 1178 3500 
L 1178 0 
L 603 0 
L 603 3500 
z
M 603 4863 
L 1178 4863 
L 1178 4134 
L 603 4134 
L 603 4863 
z
" transform="scale(0.015625)"/>
       <path id="DejaVuSans-74" d="M 1172 4494 
L 1172 3500 
L 2356 3500 
L 2356 3053 
L 1172 3053 
L 1172 1153 
Q 1172 725 1289 603 
Q 1406 481 1766 481 
L 2356 481 
L 2356 0 
L 1766 0 
Q 1100 0 847 248 
Q 594 497 594 1153 
L 594 3053 
L 172 3053 
L 172 3500 
L 594 3500 
L 594 4494 
L 1172 4494 
z
" transform="scale(0.015625)"/>
       <path id="DejaVuSans-6e" d="M 3513 2113 
L 3513 0 
L 2938 0 
L 2938 2094 
Q 2938 2591 2744 2837 
Q 2550 3084 2163 3084 
Q 1697 3084 1428 2787 
Q 1159 2491 1159 1978 
L 1159 0 
L 581 0 
L 581 3500 
L 1159 3500 
L 1159 2956 
Q 1366 3272 1645 3428 
Q 1925 3584 2291 3584 
Q 2894 3584 3203 3211 
Q 3513 2838 3513 2113 
z
" transform="scale(0.015625)"/>
      </defs>
      <use xlink:href="#DejaVuSans-50"/>
      <use xlink:href="#DejaVuSans-6f" x="56.677734"/>
      <use xlink:href="#DejaVuSans-73" x="117.859375"/>
      <use xlink:href="#DejaVuSans-69" x="169.958984"/>
      <use xlink:href="#DejaVuSans-74" x="197.742188"/>
      <use xlink:href="#DejaVuSans-69" x="236.951172"/>
      <use xlink:href="#DejaVuSans-6f" x="264.734375"/>
      <use xlink:href="#DejaVuSans-6e" x="325.916016"/>
     </g>
    </g>
   </g>
   <g id="matplotlib.axis_2">
    <g id="ytick_1">
     <g id="line2d_9">
      <defs>
       <path id="m2c51ea2c63" d="M 0 0 
L -3.5 0 
" style="stroke: #000000; stroke-width: 0.8"/>
      </defs>
      <g>
       <use xlink:href="#m2c51ea2c63" x="144" y="373.474335" style="stroke: #000000; stroke-width: 0.8"/>
      </g>
     </g>
     <g id="text_10">
      <!-- 0 -->
      <g transform="translate(130.6375 377.273554)scale(0.1 -0.1)">
       <use xlink:href="#DejaVuSans-30"/>
      </g>
     </g>
    </g>
    <g id="ytick_2">
     <g id="line2d_10">
      <g>
       <use xlink:href="#m2c51ea2c63" x="144" y="325.381584" style="stroke: #000000; stroke-width: 0.8"/>
      </g>
     </g>
     <g id="text_11">
      <!-- 100000 -->
      <g transform="translate(98.825 329.180803)scale(0.1 -0.1)">
       <use xlink:href="#DejaVuSans-31"/>
       <use xlink:href="#DejaVuSans-30" x="63.623047"/>
       <use xlink:href="#DejaVuSans-30" x="127.246094"/>
       <use xlink:href="#DejaVuSans-30" x="190.869141"/>
       <use xlink:href="#DejaVuSans-30" x="254.492188"/>
       <use xlink:href="#DejaVuSans-30" x="318.115234"/>
      </g>
     </g>
    </g>
    <g id="ytick_3">
     <g id="line2d_11">
      <g>
       <use xlink:href="#m2c51ea2c63" x="144" y="277.288834" style="stroke: #000000; stroke-width: 0.8"/>
      </g>
     </g>
     <g id="text_12">
      <!-- 200000 -->
      <g transform="translate(98.825 281.088053)scale(0.1 -0.1)">
       <use xlink:href="#DejaVuSans-32"/>
       <use xlink:href="#DejaVuSans-30" x="63.623047"/>
       <use xlink:href="#DejaVuSans-30" x="127.246094"/>
       <use xlink:href="#DejaVuSans-30" x="190.869141"/>
       <use xlink:href="#DejaVuSans-30" x="254.492188"/>
       <use xlink:href="#DejaVuSans-30" x="318.115234"/>
      </g>
     </g>
    </g>
    <g id="ytick_4">
     <g id="line2d_12">
      <g>
       <use xlink:href="#m2c51ea2c63" x="144" y="229.196084" style="stroke: #000000; stroke-width: 0.8"/>
      </g>
     </g>
     <g id="text_13">
      <!-- 300000 -->
      <g transform="translate(98.825 232.995303)scale(0.1 -0.1)">
       <defs>
        <path id="DejaVuSans-33" d="M 2597 2516 
Q 3050 2419 3304 2112 
Q 3559 1806 3559 1356 
Q 3559 666 3084 287 
Q 2609 -91 1734 -91 
Q 1441 -91 1130 -33 
Q 819 25 488 141 
L 488 750 
Q 750 597 1062 519 
Q 1375 441 1716 441 
Q 2309 441 2620 675 
Q 2931 909 2931 1356 
Q 2931 1769 2642 2001 
Q 2353 2234 1838 2234 
L 1294 2234 
L 1294 2753 
L 1863 2753 
Q 2328 2753 2575 2939 
Q 2822 3125 2822 3475 
Q 2822 3834 2567 4026 
Q 2313 4219 1838 4219 
Q 1578 4219 1281 4162 
Q 984 4106 628 3988 
L 628 4550 
Q 988 4650 1302 4700 
Q 1616 4750 1894 4750 
Q 2613 4750 3031 4423 
Q 3450 4097 3450 3541 
Q 3450 3153 3228 2886 
Q 3006 2619 2597 2516 
z
" transform="scale(0.015625)"/>
       </defs>
       <use xlink:href="#DejaVuSans-33"/>
       <use xlink:href="#DejaVuSans-30" x="63.623047"/>
       <use xlink:href="#DejaVuSans-30" x="127.246094"/>
       <use xlink:href="#DejaVuSans-30" x="190.869141"/>
       <use xlink:href="#DejaVuSans-30" x="254.492188"/>
       <use xlink:href="#DejaVuSans-30" x="318.115234"/>
      </g>
     </g>
    </g>
    <g id="ytick_5">
     <g id="line2d_13">
      <g>
       <use xlink:href="#m2c51ea2c63" x="144" y="181.103334" style="stroke: #000000; stroke-width: 0.8"/>
      </g>
     </g>
     <g id="text_14">
      <!-- 400000 -->
      <g transform="translate(98.825 184.902552)scale(0.1 -0.1)">
       <use xlink:href="#DejaVuSans-34"/>
       <use xlink:href="#DejaVuSans-30" x="63.623047"/>
       <use xlink:href="#DejaVuSans-30" x="127.246094"/>
       <use xlink:href="#DejaVuSans-30" x="190.869141"/>
       <use xlink:href="#DejaVuSans-30" x="254.492188"/>
       <use xlink:href="#DejaVuSans-30" x="318.115234"/>
      </g>
     </g>
    </g>
    <g id="ytick_6">
     <g id="line2d_14">
      <g>
       <use xlink:href="#m2c51ea2c63" x="144" y="133.010583" style="stroke: #000000; stroke-width: 0.8"/>
      </g>
     </g>
     <g id="text_15">
      <!-- 500000 -->
      <g transform="translate(98.825 136.809802)scale(0.1 -0.1)">
       <defs>
        <path id="DejaVuSans-35" d="M 691 4666 
L 3169 4666 
L 3169 4134 
L 1269 4134 
L 1269 2991 
Q 1406 3038 1543 3061 
Q 1681 3084 1819 3084 
Q 2600 3084 3056 2656 
Q 3513 2228 3513 1497 
Q 3513 744 3044 326 
Q 2575 -91 1722 -91 
Q 1428 -91 1123 -41 
Q 819 9 494 109 
L 494 744 
Q 775 591 1075 516 
Q 1375 441 1709 441 
Q 2250 441 2565 725 
Q 2881 1009 2881 1497 
Q 2881 1984 2565 2268 
Q 2250 2553 1709 2553 
Q 1456 2553 1204 2497 
Q 953 2441 691 2322 
L 691 4666 
z
" transform="scale(0.015625)"/>
       </defs>
       <use xlink:href="#DejaVuSans-35"/>
       <use xlink:href="#DejaVuSans-30" x="63.623047"/>
       <use xlink:href="#DejaVuSans-30" x="127.246094"/>
       <use xlink:href="#DejaVuSans-30" x="190.869141"/>
       <use xlink:href="#DejaVuSans-30" x="254.492188"/>
       <use xlink:href="#DejaVuSans-30" x="318.115234"/>
      </g>
     </g>
    </g>
    <g id="ytick_7">
     <g id="line2d_15">
      <g>
       <use xlink:href="#m2c51ea2c63" x="144" y="84.917833" style="stroke: #000000; stroke-width: 0.8"/>
      </g>
     </g>
     <g id="text_16">
      <!-- 600000 -->
      <g transform="translate(98.825 88.717052)scale(0.1 -0.1)">
       <use xlink:href="#DejaVuSans-36"/>
       <use xlink:href="#DejaVuSans-30" x="63.623047"/>
       <use xlink:href="#DejaVuSans-30" x="127.246094"/>
       <use xlink:href="#DejaVuSans-30" x="190.869141"/>
       <use xlink:href="#DejaVuSans-30" x="254.492188"/>
       <use xlink:href="#DejaVuSans-30" x="318.115234"/>
      </g>
     </g>
    </g>
    <g id="text_17">
     <!-- Depth of coverage -->
     <g transform="translate(92.745312 264.602187)rotate(-90)scale(0.1 -0.1)">
      <defs>
       <path id="DejaVuSans-44" d="M 1259 4147 
L 1259 519 
L 2022 519 
Q 2988 519 3436 956 
Q 3884 1394 3884 2338 
Q 3884 3275 3436 3711 
Q 2988 4147 2022 4147 
L 1259 4147 
z
M 628 4666 
L 1925 4666 
Q 3281 4666 3915 4102 
Q 4550 3538 4550 2338 
Q 4550 1131 3912 565 
Q 3275 0 1925 0 
L 628 0 
L 628 4666 
z
" transform="scale(0.015625)"/>
       <path id="DejaVuSans-65" d="M 3597 1894 
L 3597 1613 
L 953 1613 
Q 991 1019 1311 708 
Q 1631 397 2203 397 
Q 2534 397 2845 478 
Q 3156 559 3463 722 
L 3463 178 
Q 3153 47 2828 -22 
Q 2503 -91 2169 -91 
Q 1331 -91 842 396 
Q 353 884 353 1716 
Q 353 2575 817 3079 
Q 1281 3584 2069 3584 
Q 2775 3584 3186 3129 
Q 3597 2675 3597 1894 
z
M 3022 2063 
Q 3016 2534 2758 2815 
Q 2500 3097 2075 3097 
Q 1594 3097 1305 2825 
Q 1016 2553 972 2059 
L 3022 2063 
z
" transform="scale(0.015625)"/>
       <path id="DejaVuSans-70" d="M 1159 525 
L 1159 -1331 
L 581 -1331 
L 581 3500 
L 1159 3500 
L 1159 2969 
Q 1341 3281 1617 3432 
Q 1894 3584 2278 3584 
Q 2916 3584 3314 3078 
Q 3713 2572 3713 1747 
Q 3713 922 3314 415 
Q 2916 -91 2278 -91 
Q 1894 -91 1617 61 
Q 1341 213 1159 525 
z
M 3116 1747 
Q 3116 2381 2855 2742 
Q 2594 3103 2138 3103 
Q 1681 3103 1420 2742 
Q 1159 2381 1159 1747 
Q 1159 1113 1420 752 
Q 1681 391 2138 391 
Q 2594 391 2855 752 
Q 3116 1113 3116 1747 
z
" transform="scale(0.015625)"/>
       <path id="DejaVuSans-68" d="M 3513 2113 
L 3513 0 
L 2938 0 
L 2938 2094 
Q 2938 2591 2744 2837 
Q 2550 3084 2163 3084 
Q 1697 3084 1428 2787 
Q 1159 2491 1159 1978 
L 1159 0 
L 581 0 
L 581 4863 
L 1159 4863 
L 1159 2956 
Q 1366 3272 1645 3428 
Q 1925 3584 2291 3584 
Q 2894 3584 3203 3211 
Q 3513 2838 3513 2113 
z
" transform="scale(0.015625)"/>
       <path id="DejaVuSans-20" transform="scale(0.015625)"/>
       <path id="DejaVuSans-66" d="M 2375 4863 
L 2375 4384 
L 1825 4384 
Q 1516 4384 1395 4259 
Q 1275 4134 1275 3809 
L 1275 3500 
L 2222 3500 
L 2222 3053 
L 1275 3053 
L 1275 0 
L 697 0 
L 697 3053 
L 147 3053 
L 147 3500 
L 697 3500 
L 697 3744 
Q 697 4328 969 4595 
Q 1241 4863 1831 4863 
L 2375 4863 
z
" transform="scale(0.015625)"/>
       <path id="DejaVuSans-63" d="M 3122 3366 
L 3122 2828 
Q 2878 2963 2633 3030 
Q 2388 3097 2138 3097 
Q 1578 3097 1268 2742 
Q 959 2388 959 1747 
Q 959 1106 1268 751 
Q 1578 397 2138 397 
Q 2388 397 2633 464 
Q 2878 531 3122 666 
L 3122 134 
Q 2881 22 2623 -34 
Q 2366 -91 2075 -91 
Q 1284 -91 818 406 
Q 353 903 353 1747 
Q 353 2603 823 3093 
Q 1294 3584 2113 3584 
Q 2378 3584 2631 3529 
Q 2884 3475 3122 3366 
z
" transform="scale(0.015625)"/>
       <path id="DejaVuSans-76" d="M 191 3500 
L 800 3500 
L 1894 563 
L 2988 3500 
L 3597 3500 
L 2284 0 
L 1503 0 
L 191 3500 
z
" transform="scale(0.015625)"/>
       <path id="DejaVuSans-72" d="M 2631 2963 
Q 2534 3019 2420 3045 
Q 2306 3072 2169 3072 
Q 1681 3072 1420 2755 
Q 1159 2438 1159 1844 
L 1159 0 
L 581 0 
L 581 3500 
L 1159 3500 
L 1159 2956 
Q 1341 3275 1631 3429 
Q 1922 3584 2338 3584 
Q 2397 3584 2469 3576 
Q 2541 3569 2628 3553 
L 2631 2963 
z
" transform="scale(0.015625)"/>
       <path id="DejaVuSans-61" d="M 2194 1759 
Q 1497 1759 1228 1600 
Q 959 1441 959 1056 
Q 959 750 1161 570 
Q 1363 391 1709 391 
Q 2188 391 2477 730 
Q 2766 1069 2766 1631 
L 2766 1759 
L 2194 1759 
z
M 3341 1997 
L 3341 0 
L 2766 0 
L 2766 531 
Q 2569 213 2275 61 
Q 1981 -91 1556 -91 
Q 1019 -91 701 211 
Q 384 513 384 1019 
Q 384 1609 779 1909 
Q 1175 2209 1959 2209 
L 2766 2209 
L 2766 2266 
Q 2766 2663 2505 2880 
Q 2244 3097 1772 3097 
Q 1472 3097 1187 3025 
Q 903 2953 641 2809 
L 641 3341 
Q 956 3463 1253 3523 
Q 1550 3584 1831 3584 
Q 2591 3584 2966 3190 
Q 3341 2797 3341 1997 
z
" transform="scale(0.015625)"/>
       <path id="DejaVuSans-67" d="M 2906 1791 
Q 2906 2416 2648 2759 
Q 2391 3103 1925 3103 
Q 1463 3103 1205 2759 
Q 947 2416 947 1791 
Q 947 1169 1205 825 
Q 1463 481 1925 481 
Q 2391 481 2648 825 
Q 2906 1169 2906 1791 
z
M 3481 434 
Q 3481 -459 3084 -895 
Q 2688 -1331 1869 -1331 
Q 1566 -1331 1297 -1286 
Q 1028 -1241 775 -1147 
L 775 -588 
Q 1028 -725 1275 -790 
Q 1522 -856 1778 -856 
Q 2344 -856 2625 -561 
Q 2906 -266 2906 331 
L 2906 616 
Q 2728 306 2450 153 
Q 2172 0 1784 0 
Q 1141 0 747 490 
Q 353 981 353 1791 
Q 353 2603 747 3093 
Q 1141 3584 1784 3584 
Q 2172 3584 2450 3431 
Q 2728 3278 2906 2969 
L 2906 3500 
L 3481 3500 
L 3481 434 
z
" transform="scale(0.015625)"/>
      </defs>
      <use xlink:href="#DejaVuSans-44"/>
      <use xlink:href="#DejaVuSans-65" x="77.001953"/>
      <use xlink:href="#DejaVuSans-70" x="138.525391"/>
      <use xlink:href="#DejaVuSans-74" x="202.001953"/>
      <use xlink:href="#DejaVuSans-68" x="241.210938"/>
      <use xlink:href="#DejaVuSans-20" x="304.589844"/>
      <use xlink:href="#DejaVuSans-6f" x="336.376953"/>
      <use xlink:href="#DejaVuSans-66" x="397.558594"/>
      <use xlink:href="#DejaVuSans-20" x="432.763672"/>
      <use xlink:href="#DejaVuSans-63" x="464.550781"/>
      <use xlink:href="#DejaVuSans-6f" x="519.53125"/>
      <use xlink:href="#DejaVuSans-76" x="580.712891"/>
      <use xlink:href="#DejaVuSans-65" x="639.892578"/>
      <use xlink:href="#DejaVuSans-72" x="701.416016"/>
      <use xlink:href="#DejaVuSans-61" x="742.529297"/>
      <use xlink:href="#DejaVuSans-67" x="803.808594"/>
      <use xlink:href="#DejaVuSans-65" x="867.285156"/>
     </g>
    </g>
   </g>
   <g id="line2d_16">
    <path d="M 184.581818 345.580059 
L 185.691369 329.395886 
L 186.246144 329.265074 
L 186.80092 325.973125 
L 187.355695 324.989148 
L 189.020021 324.672697 
L 189.574796 324.657789 
L 190.129572 323.506448 
L 190.684347 322.994741 
L 191.239123 321.706817 
L 191.793898 321.295624 
L 192.348673 321.2206 
L 192.903449 319.926905 
L 194.012999 318.942446 
L 195.677326 318.831833 
L 196.232101 318.422083 
L 196.786876 317.719928 
L 197.896427 317.672798 
L 199.005978 317.194756 
L 199.560753 316.376217 
L 200.115528 316.312254 
L 200.670304 315.342704 
L 201.779855 315.280183 
L 202.33463 314.373154 
L 202.889405 313.934067 
L 203.444181 312.915944 
L 203.998956 311.477009 
L 204.553731 307.083255 
L 205.663282 306.472958 
L 206.218058 304.100542 
L 206.772833 303.89711 
L 207.327608 303.102137 
L 208.437159 302.931408 
L 208.991934 302.108541 
L 209.54671 300.715294 
L 210.101485 300.331514 
L 210.65626 300.138662 
L 211.765811 298.89835 
L 212.320587 298.709345 
L 212.875362 298.217837 
L 213.430137 296.429749 
L 215.649239 295.669883 
L 216.204014 294.473336 
L 217.313565 290.038703 
L 217.86834 289.335106 
L 218.423116 288.972006 
L 218.977891 288.841194 
L 219.532666 287.717747 
L 220.642217 286.584682 
L 221.196992 285.805579 
L 221.751768 285.27175 
L 222.306543 282.781507 
L 222.861319 282.722353 
L 223.416094 282.098109 
L 223.970869 281.972587 
L 224.525645 276.655934 
L 225.08042 275.522868 
L 225.635195 275.506998 
L 226.744746 275.237197 
L 227.299522 275.298275 
L 227.854297 274.76685 
L 228.963848 274.239273 
L 230.073398 274.328244 
L 230.628174 272.736855 
L 231.182949 272.090008 
L 231.737724 271.841849 
L 232.2925 270.818916 
L 233.402051 269.484343 
L 233.956826 269.504061 
L 235.066377 268.802387 
L 235.621152 268.677346 
L 236.175927 262.84081 
L 237.285478 262.109319 
L 238.395029 261.896269 
L 238.949804 261.207099 
L 239.50458 261.141693 
L 240.059355 259.873007 
L 241.168906 259.734499 
L 241.723681 258.774568 
L 242.278456 258.917404 
L 242.833232 257.415467 
L 243.388007 257.089398 
L 243.942783 256.418023 
L 244.497558 256.092916 
L 245.052333 256.184293 
L 245.607109 254.792488 
L 246.161884 254.636668 
L 246.716659 253.537749 
L 247.271435 253.363653 
L 247.82621 253.628163 
L 248.380986 253.300651 
L 248.935761 253.340568 
L 250.045312 253.018347 
L 250.600087 253.176572 
L 251.154862 251.768416 
L 251.709638 251.932893 
L 252.264413 243.218006 
L 252.819188 242.625984 
L 253.373964 231.529063 
L 253.928739 230.680226 
L 254.483515 230.426296 
L 255.03829 231.140955 
L 255.593065 230.948103 
L 256.147841 231.381899 
L 256.702616 231.408831 
L 257.257391 234.074132 
L 257.812167 233.428727 
L 258.366942 237.954255 
L 258.921718 237.222764 
L 259.476493 236.747127 
L 260.031268 234.418957 
L 260.586044 232.677999 
L 261.140819 232.674152 
L 261.695594 230.981768 
L 262.25037 231.105847 
L 262.805145 231.562247 
L 263.35992 227.894213 
L 264.469471 227.148775 
L 265.024247 228.196717 
L 265.579022 228.230381 
L 266.133797 224.699893 
L 266.688573 222.807443 
L 267.243348 223.244606 
L 267.798123 242.636565 
L 268.352899 247.617531 
L 268.907674 253.635858 
L 270.572 251.733789 
L 271.126776 252.853389 
L 271.681551 246.121846 
L 272.236326 246.098762 
L 272.791102 246.403189 
L 273.345877 246.381066 
L 274.455428 245.858779 
L 275.010203 245.502893 
L 275.564979 245.562528 
L 276.119754 245.01908 
L 276.674529 247.563667 
L 277.229305 247.472772 
L 278.338855 246.794664 
L 278.893631 246.830253 
L 279.448406 247.09861 
L 280.557957 246.924514 
L 281.112732 246.758594 
L 281.667508 246.729258 
L 282.222283 243.244457 
L 282.777058 243.553694 
L 283.331834 243.59842 
L 283.886609 243.41711 
L 284.441384 243.985086 
L 284.99616 243.18386 
L 285.550935 243.219449 
L 286.660486 244.326063 
L 287.215261 244.576145 
L 287.770037 244.287108 
L 288.324812 244.548252 
L 288.879587 243.879281 
L 289.434363 243.80618 
L 289.989138 242.325405 
L 290.543914 242.244609 
L 291.098689 239.832757 
L 292.20824 239.610088 
L 292.763015 236.492716 
L 293.31779 238.036012 
L 293.872566 236.846198 
L 294.427341 236.778868 
L 294.982116 238.111518 
L 295.536892 234.389139 
L 296.091667 235.72227 
L 296.646443 233.983236 
L 298.310769 234.687314 
L 298.865544 235.399568 
L 299.420319 234.632007 
L 299.975095 237.344919 
L 300.52987 238.860322 
L 301.084645 233.857233 
L 301.639421 233.841363 
L 302.194196 232.838148 
L 303.858522 232.794864 
L 304.413298 233.442674 
L 304.968073 233.721612 
L 305.522848 233.526355 
L 306.077624 235.475554 
L 306.632399 233.649473 
L 307.187175 235.100431 
L 307.74195 232.965594 
L 308.296725 236.123845 
L 308.851501 236.091622 
L 309.406276 235.17786 
L 309.961051 234.99655 
L 311.070602 233.185378 
L 311.625377 232.362991 
L 312.180153 230.897124 
L 312.734928 230.641271 
L 313.289704 230.52152 
L 313.844479 230.103594 
L 314.399254 229.923246 
L 314.95403 213.271612 
L 315.508805 208.280066 
L 316.06358 208.626334 
L 316.618356 208.508987 
L 317.173131 209.358786 
L 317.727907 206.880086 
L 318.282682 206.303454 
L 318.837457 206.852192 
L 319.392233 206.486206 
L 319.947008 215.806581 
L 320.501783 213.104731 
L 321.056559 212.692576 
L 321.611334 211.867304 
L 322.166109 211.767752 
L 322.720885 212.553588 
L 323.27566 211.377239 
L 323.830436 212.246756 
L 324.385211 210.326893 
L 324.939986 209.38139 
L 325.494762 211.04059 
L 326.049537 210.875632 
L 326.604312 212.600238 
L 327.159088 211.97407 
L 327.713863 211.95339 
L 328.268639 207.210483 
L 328.823414 206.902209 
L 329.378189 208.859583 
L 329.932965 208.599883 
L 330.48774 208.643166 
L 331.042515 208.935089 
L 331.597291 208.931723 
L 332.152066 209.257311 
L 332.706841 206.735808 
L 333.261617 206.392425 
L 334.371168 206.469374 
L 334.925943 207.875606 
L 335.480718 207.727961 
L 336.035494 213.307682 
L 336.590269 214.021378 
L 337.145044 220.920764 
L 337.69982 221.835008 
L 338.254595 221.591658 
L 338.809371 215.589683 
L 339.364146 215.953264 
L 340.473697 216.069649 
L 341.028472 215.95086 
L 341.583247 216.971388 
L 342.138023 213.746769 
L 342.692798 213.215825 
L 343.247573 213.035958 
L 343.802349 214.099289 
L 344.357124 212.66372 
L 344.9119 212.219343 
L 345.466675 207.156619 
L 346.02145 205.448365 
L 346.576226 205.763372 
L 347.131001 208.464742 
L 347.685776 207.761145 
L 348.240552 208.066534 
L 348.795327 206.317882 
L 349.350103 206.563636 
L 349.904878 209.313098 
L 350.459653 211.244503 
L 351.014429 211.139661 
L 351.569204 210.58419 
L 352.123979 209.244325 
L 352.678755 209.830576 
L 353.23353 210.099896 
L 353.788305 211.036742 
L 354.343081 211.249793 
L 354.897856 210.288419 
L 355.452632 215.403564 
L 356.007407 215.558904 
L 356.562182 215.205422 
L 358.226508 215.415587 
L 358.781284 216.213927 
L 359.336059 212.296772 
L 359.890835 212.584367 
L 360.44561 205.38873 
L 361.000385 203.023528 
L 361.555161 202.983611 
L 362.109936 197.633774 
L 362.664711 197.617422 
L 363.219487 197.92233 
L 363.774262 196.148189 
L 364.329037 196.253993 
L 364.883813 194.670298 
L 365.438588 195.504708 
L 365.993364 198.963057 
L 366.548139 193.70652 
L 367.102914 193.750284 
L 367.65769 192.177651 
L 368.212465 191.317753 
L 368.76724 189.191091 
L 369.322016 188.860213 
L 369.876791 188.869351 
L 370.431567 188.42834 
L 370.986342 188.430264 
L 371.541117 184.000441 
L 372.095893 183.804222 
L 372.650668 183.74074 
L 373.205443 184.533309 
L 373.760219 187.199571 
L 374.314994 184.598715 
L 374.869769 186.142973 
L 375.97932 186.309374 
L 376.534096 191.184536 
L 377.088871 190.469397 
L 377.643646 191.184055 
L 378.198422 187.97723 
L 378.753197 187.756485 
L 379.307972 189.704241 
L 379.862748 181.804045 
L 380.417523 181.092272 
L 380.972299 178.438033 
L 381.527074 177.700771 
L 382.081849 175.881904 
L 383.1914 175.661639 
L 383.746175 175.022486 
L 384.300951 175.380296 
L 384.855726 181.484228 
L 385.410501 175.913164 
L 385.965277 175.648654 
L 386.520052 170.350756 
L 387.074828 170.73646 
L 387.629603 170.574869 
L 388.184378 169.983328 
L 388.739154 169.976595 
L 389.293929 170.388269 
L 389.848704 170.35268 
L 390.40348 173.058859 
L 390.958255 173.061745 
L 391.513031 176.308967 
L 392.622581 171.884434 
L 393.177357 173.379157 
L 393.732132 163.958268 
L 394.286907 157.333492 
L 394.841683 152.507384 
L 395.396458 152.326075 
L 395.951233 153.186454 
L 396.506009 151.029013 
L 397.060784 150.47787 
L 397.61556 150.811634 
L 398.170335 163.700491 
L 399.279886 165.170205 
L 399.834661 164.261252 
L 400.389436 162.253861 
L 400.944212 161.609418 
L 401.498987 162.805004 
L 402.053763 164.413226 
L 402.608538 163.04643 
L 403.163313 163.155119 
L 403.718089 163.126264 
L 404.272864 164.760936 
L 405.382415 163.755798 
L 405.93719 163.628352 
L 407.601516 146.730964 
L 408.156292 145.187668 
L 408.711067 144.322479 
L 409.820618 144.14646 
L 410.375393 144.740886 
L 410.930168 142.035188 
L 411.484944 146.081231 
L 412.594495 146.281297 
L 413.14927 143.691983 
L 413.704045 144.02719 
L 414.258821 142.620958 
L 414.813596 142.200146 
L 415.923147 141.882734 
L 416.477922 143.467871 
L 417.032697 140.677049 
L 417.587473 139.801761 
L 418.142248 139.273221 
L 418.697024 136.283776 
L 419.251799 137.099429 
L 419.806574 137.025366 
L 420.36135 136.340044 
L 420.916125 136.050045 
L 421.4709 134.607263 
L 422.025676 136.629082 
L 422.580451 136.867622 
L 423.135226 136.501155 
L 423.690002 136.677655 
L 424.244777 134.508192 
L 424.799553 131.584152 
L 425.354328 129.89754 
L 425.909103 134.53849 
L 427.573429 135.69993 
L 428.128205 135.926447 
L 428.68298 136.878683 
L 429.237756 140.852106 
L 429.792531 141.356599 
L 430.347306 141.650927 
L 430.902082 143.439977 
L 431.456857 143.591469 
L 432.011632 144.142131 
L 432.566408 145.317037 
L 433.121183 144.207056 
L 433.675958 143.538567 
L 434.230734 143.749694 
L 434.785509 144.519178 
L 435.340285 143.580408 
L 435.89506 144.370572 
L 437.004611 143.716991 
L 437.559386 143.931966 
L 438.114161 138.228647 
L 438.668937 137.91941 
L 439.223712 132.893718 
L 439.778488 131.797684 
L 440.333263 133.023568 
L 440.888038 120.257348 
L 441.442814 120.44539 
L 441.997589 120.1703 
L 442.552364 120.56466 
L 443.10714 126.596453 
L 443.661915 124.323109 
L 444.21669 130.838234 
L 444.771466 131.236442 
L 445.326241 132.503205 
L 445.881017 140.095126 
L 446.435792 140.118692 
L 446.990567 139.679605 
L 447.545343 136.568966 
L 448.100118 136.379961 
L 448.654893 135.866331 
L 449.209669 139.375659 
L 450.31922 138.501333 
L 450.873995 135.437343 
L 451.42877 136.583394 
L 451.983546 139.055361 
L 452.538321 140.853068 
L 453.093096 140.784295 
L 454.202647 141.369584 
L 454.757422 147.161875 
L 455.312198 147.174379 
L 455.866973 142.521886 
L 456.976524 135.879797 
L 457.531299 135.849979 
L 458.086075 137.786674 
L 458.64085 137.50966 
L 459.195625 137.601036 
L 459.750401 137.170125 
L 460.305176 132.398843 
L 460.859952 135.740328 
L 461.414727 135.319516 
L 461.969502 135.12426 
L 462.524278 134.612553 
L 463.079053 136.450658 
L 463.633828 143.481818 
L 464.188604 140.336552 
L 464.743379 141.770678 
L 465.298154 142.318454 
L 465.85293 142.645485 
L 466.962481 141.078623 
L 467.517256 143.024456 
L 468.072031 142.923942 
L 468.626807 146.232723 
L 469.181582 148.277627 
L 469.736357 150.982844 
L 470.291133 150.422083 
L 470.845908 150.876078 
L 471.400684 151.495994 
L 471.955459 151.572942 
L 472.510234 148.860511 
L 473.06501 137.401451 
L 473.619785 134.842917 
L 474.17456 134.467794 
L 474.729336 135.883644 
L 475.284111 133.605491 
L 475.838886 135.233911 
L 476.393662 135.225254 
L 476.948437 137.508698 
L 477.503213 143.492879 
L 478.612763 150.897239 
L 479.167539 151.034303 
L 479.722314 150.958317 
L 480.277089 154.01942 
L 480.831865 156.329315 
L 481.38664 156.072981 
L 481.941416 157.619163 
L 483.050966 155.786348 
L 483.605742 157.36908 
L 484.160517 157.337339 
L 484.715292 156.946826 
L 485.270068 155.830112 
L 486.379618 141.811076 
L 486.934394 139.513685 
L 487.489169 140.082141 
L 488.043945 139.7806 
L 488.59872 141.406616 
L 489.153495 138.738911 
L 489.708271 139.904198 
L 490.263046 143.507307 
L 490.817821 152.065412 
L 491.372597 157.330125 
L 491.927372 155.09766 
L 492.482148 154.034329 
L 493.036923 153.892455 
L 493.591698 152.9407 
L 494.146474 155.246747 
L 494.701249 155.514624 
L 495.256024 156.065767 
L 495.8108 155.582916 
L 496.365575 151.735015 
L 496.92035 154.176684 
L 497.475126 153.915059 
L 498.029901 155.612252 
L 498.584677 154.618656 
L 499.139452 152.37032 
L 500.803778 153.32977 
L 501.358553 155.587244 
L 501.913329 155.804623 
L 502.468104 155.858487 
L 503.02288 150.652928 
L 503.577655 150.749113 
L 504.13243 152.320784 
L 504.687206 152.283272 
L 505.241981 151.888431 
L 505.796756 152.068778 
L 506.351532 151.512826 
L 506.906307 150.601949 
L 507.461082 150.48316 
L 508.015858 152.803155 
L 508.570633 152.902707 
L 509.125409 155.637741 
L 509.680184 155.753645 
L 510.234959 156.313925 
L 510.789735 149.959911 
L 511.34451 150.997753 
L 511.899285 149.720409 
L 512.454061 148.816747 
L 513.008836 149.739646 
L 513.563612 149.449166 
L 514.118387 148.041491 
L 514.673162 142.671936 
L 515.227938 140.559702 
L 515.782713 139.808974 
L 516.337488 139.503585 
L 516.892264 140.456784 
L 517.447039 140.42889 
L 518.001814 134.808771 
L 518.55659 134.969882 
L 519.111365 134.890048 
L 519.666141 135.032883 
L 520.220916 135.755237 
L 520.775691 135.9024 
L 521.330467 136.220774 
L 521.885242 141.718738 
L 522.440017 142.877292 
L 522.994793 148.008307 
L 523.549568 145.90954 
L 524.104344 145.481514 
L 524.659119 154.526318 
L 525.213894 149.738685 
L 525.76867 150.014256 
L 526.323445 147.550464 
L 526.87822 148.10834 
L 527.432996 149.508801 
L 527.987771 144.679327 
L 528.542546 147.991956 
L 529.097322 148.288688 
L 529.652097 144.372976 
L 530.206873 145.189591 
L 530.761648 145.289624 
L 531.316423 147.810646 
L 531.871199 148.303597 
L 532.425974 145.980236 
L 532.980749 146.426056 
L 533.535525 147.505257 
L 534.0903 147.093583 
L 534.645075 144.203209 
L 535.754626 135.728305 
L 536.864177 135.239201 
L 537.418952 136.418916 
L 537.973728 133.279903 
L 538.528503 128.031541 
L 539.083278 127.324577 
L 539.638054 130.892579 
L 540.192829 135.811024 
L 540.747605 139.408362 
L 541.30238 135.145901 
L 541.857155 133.225077 
L 542.411931 132.86871 
L 542.966706 134.397578 
L 543.521481 137.387504 
L 544.076257 139.192425 
L 544.631032 138.411399 
L 545.185807 137.82611 
L 545.740583 139.059689 
L 546.295358 141.736051 
L 546.850134 145.221813 
L 547.404909 144.129146 
L 547.959684 141.987576 
L 549.069235 141.95343 
L 549.62401 143.910805 
L 550.178786 145.371382 
L 550.733561 145.068398 
L 551.843112 143.598202 
L 552.397887 144.397504 
L 552.952663 144.35951 
L 553.507438 145.180935 
L 554.062213 145.562791 
L 554.616989 146.309191 
L 555.171764 145.191034 
L 555.726539 146.041314 
L 556.281315 157.525382 
L 556.83609 157.625896 
L 557.945641 158.739724 
L 558.500416 158.894101 
L 559.055192 161.354046 
L 560.164742 163.652398 
L 560.719518 162.374574 
L 561.274293 160.299372 
L 561.829069 156.319216 
L 562.383844 156.362499 
L 562.938619 156.044606 
L 563.493395 156.374522 
L 564.04817 155.764706 
L 564.602945 155.784424 
L 565.157721 153.457216 
L 565.712496 155.469898 
L 566.267271 159.654448 
L 567.376822 160.069007 
L 567.931598 159.108595 
L 568.486373 159.947814 
L 569.041148 154.710994 
L 569.595924 167.634959 
L 570.150699 169.825584 
L 570.705474 169.306663 
L 571.26025 169.295121 
L 571.815025 169.127758 
L 572.369801 169.154209 
L 572.924576 166.436488 
L 573.479351 162.707376 
L 574.034127 164.429577 
L 574.588902 167.674395 
L 575.698453 167.031395 
L 576.253228 166.775541 
L 576.808003 166.834215 
L 577.917554 166.588461 
L 578.47233 165.99692 
L 579.58188 164.528648 
L 580.136656 167.935539 
L 580.691431 168.491491 
L 581.246206 166.211894 
L 581.800982 158.520902 
L 582.355757 161.229966 
L 582.910533 157.634552 
L 583.465308 158.042379 
L 584.020083 157.837023 
L 584.574859 157.776907 
L 585.129634 158.515612 
L 585.684409 158.652195 
L 586.239185 159.881446 
L 586.79396 163.612481 
L 587.348735 161.74504 
L 587.903511 162.610228 
L 588.458286 165.471266 
L 589.013062 166.930881 
L 589.567837 159.714083 
L 590.122612 157.551352 
L 591.232163 157.520573 
L 591.786938 158.519459 
L 592.341714 157.515763 
L 593.451265 149.527077 
L 594.00604 148.671026 
L 594.560815 155.749317 
L 595.115591 157.689859 
L 595.670366 156.57555 
L 596.225141 156.266314 
L 596.779917 156.507258 
L 597.889467 158.25543 
L 598.444243 165.755494 
L 598.999018 166.770732 
L 599.553794 161.524775 
L 600.108569 160.84811 
L 601.21812 162.069666 
L 601.772895 166.368677 
L 602.32767 166.541811 
L 602.882446 167.025143 
L 603.437221 166.983783 
L 603.991997 164.008765 
L 604.546772 160.214728 
L 605.101547 158.403555 
L 605.656323 157.274819 
L 606.211098 158.638248 
L 606.765873 153.596685 
L 607.320649 153.634678 
L 607.875424 152.409756 
L 608.430199 152.60357 
L 608.984975 159.190353 
L 609.53975 158.669508 
L 610.094526 162.297625 
L 610.649301 162.477973 
L 611.204076 164.312231 
L 611.758852 169.5125 
L 612.313627 169.6991 
L 612.868402 169.676015 
L 613.423178 167.581095 
L 613.977953 167.170383 
L 614.532729 168.011044 
L 615.087504 168.355388 
L 615.642279 166.649538 
L 616.197055 168.394824 
L 616.75183 167.458458 
L 617.306605 166.979936 
L 617.861381 169.595219 
L 618.416156 174.106319 
L 618.970931 177.163095 
L 619.525707 178.640023 
L 620.080482 178.651565 
L 620.635258 175.993479 
L 621.190033 172.674598 
L 621.744808 177.887371 
L 622.299584 177.92825 
L 622.854359 177.183774 
L 623.409134 177.735398 
L 623.96391 178.723223 
L 624.518685 180.407912 
L 625.073461 184.106245 
L 625.628236 183.898003 
L 626.183011 187.844975 
L 626.737787 187.377995 
L 627.292562 184.536194 
L 627.847337 183.735931 
L 628.402113 182.712998 
L 628.956888 183.321852 
L 629.511663 183.473344 
L 630.066439 183.441603 
L 630.621214 182.827459 
L 631.17599 183.432465 
L 631.730765 184.554469 
L 632.28554 185.189775 
L 632.840316 186.039093 
L 633.395091 186.542624 
L 633.949866 184.658831 
L 634.504642 184.131734 
L 635.059417 184.580439 
L 635.614193 183.600309 
L 636.723743 184.116825 
L 637.833294 184.738184 
L 638.942845 184.961815 
L 639.49762 181.149022 
L 640.052395 179.18828 
L 640.607171 174.639668 
L 641.161946 174.340531 
L 641.716722 173.429173 
L 642.271497 173.526802 
L 642.826272 171.600687 
L 643.381048 171.686773 
L 643.935823 172.068149 
L 645.045374 177.006793 
L 645.600149 181.620812 
L 646.154925 179.983253 
L 646.7097 181.475571 
L 647.264475 179.118065 
L 647.819251 179.624001 
L 648.374026 178.240372 
L 648.928801 178.337039 
L 649.483577 176.852896 
L 650.038352 171.262595 
L 650.593127 171.364071 
L 651.147903 169.330709 
L 651.702678 169.874638 
L 652.257454 172.839556 
L 652.812229 170.480607 
L 653.367004 170.89709 
L 653.92178 170.221868 
L 654.476555 169.868386 
L 655.03133 173.093005 
L 655.586106 173.178129 
L 656.140881 175.484658 
L 656.695656 174.742586 
L 657.250432 176.686976 
L 657.805207 175.690014 
L 658.359983 175.818902 
L 658.914758 176.583096 
L 659.469533 177.039496 
L 660.024309 175.189849 
L 660.579084 171.849327 
L 661.133859 172.6342 
L 661.688635 169.846264 
L 662.24341 171.63339 
L 662.798186 171.491036 
L 663.907736 171.85654 
L 664.462512 171.037521 
L 665.572062 180.70224 
L 666.126838 180.81093 
L 666.681613 185.473522 
L 667.236388 184.702595 
L 667.791164 185.286441 
L 668.345939 185.449956 
L 668.900715 184.164437 
L 669.45549 183.17565 
L 670.010265 183.422366 
L 670.565041 182.58459 
L 671.119816 182.404242 
L 671.674591 180.35982 
L 672.229367 181.790579 
L 672.784142 180.956651 
L 673.338918 186.415178 
L 673.893693 187.509769 
L 674.448468 186.370933 
L 675.003244 186.417582 
L 675.558019 186.000618 
L 676.112794 184.252928 
L 676.66757 186.489722 
L 677.222345 189.965385 
L 677.77712 190.953691 
L 678.331896 190.139961 
L 678.886671 189.064607 
L 679.996222 191.603424 
L 680.550997 194.626053 
L 681.105773 196.365568 
L 681.660548 192.51911 
L 682.215323 191.571202 
L 682.770099 189.94759 
L 683.324874 187.43763 
L 683.87965 189.243512 
L 684.434425 187.458791 
L 684.9892 187.405888 
L 685.543976 187.156768 
L 686.098751 187.246221 
L 686.653526 187.748309 
L 687.208302 187.929619 
L 687.763077 190.453045 
L 688.317852 195.093515 
L 688.872628 195.092072 
L 689.427403 196.005834 
L 689.982179 193.328992 
L 690.536954 196.716164 
L 691.091729 197.638583 
L 691.646505 197.87039 
L 692.20128 196.464158 
L 692.756055 196.161174 
L 693.310831 196.598337 
L 693.865606 198.308996 
L 694.420382 198.469626 
L 694.975157 197.640026 
L 695.529932 197.638583 
L 696.084708 197.32069 
L 696.639483 194.84247 
L 697.194258 196.06595 
L 697.749034 196.512251 
L 698.303809 194.214379 
L 698.858584 194.261991 
L 699.41336 188.877046 
L 699.968135 190.488153 
L 700.522911 189.597956 
L 701.077686 187.223617 
L 701.632461 187.10098 
L 702.742012 188.312437 
L 703.296787 191.454817 
L 703.851563 191.607752 
L 704.406338 194.982901 
L 704.961114 194.562571 
L 705.515889 195.129584 
L 706.62544 195.813944 
L 707.180215 195.387842 
L 708.289766 194.95116 
L 708.844541 193.803186 
L 709.399316 197.391386 
L 709.954092 197.677538 
L 710.508867 198.114701 
L 711.063643 199.078961 
L 712.173193 197.659744 
L 712.727969 197.708317 
L 713.282744 197.973789 
L 713.837519 198.688448 
L 714.392295 196.5791 
L 714.94707 196.093363 
L 715.501846 196.194358 
L 716.056621 195.995735 
L 716.611396 197.022515 
L 717.166172 195.174791 
L 717.720947 195.204609 
L 718.275722 194.232654 
L 718.830498 193.754132 
L 719.385273 195.989964 
L 720.494824 190.925797 
L 721.049599 191.049876 
L 721.604375 190.894537 
L 722.15915 193.93496 
L 722.713925 194.420697 
L 723.268701 194.080681 
L 723.823476 195.315703 
L 724.378251 197.76651 
L 724.933027 199.013074 
L 725.487802 199.618562 
L 726.042578 197.651087 
L 726.597353 197.213924 
L 727.152128 196.021224 
L 727.706904 195.383033 
L 728.261679 195.226251 
L 728.816454 190.895018 
L 729.37123 192.106955 
L 729.926005 192.551813 
L 730.48078 194.621244 
L 731.035556 193.361214 
L 731.590331 188.192686 
L 732.145107 189.852848 
L 732.699882 191.153757 
L 733.254657 193.154415 
L 733.809433 195.905801 
L 734.364208 191.357189 
L 734.918983 194.01768 
L 735.473759 194.304313 
L 736.028534 195.663414 
L 736.58331 192.658579 
L 737.138085 192.470055 
L 737.69286 193.527615 
L 738.247636 192.957235 
L 738.802411 194.583251 
L 739.911962 194.143683 
L 740.466737 195.575404 
L 741.021512 194.922785 
L 741.576288 191.625546 
L 742.131063 189.793694 
L 742.685839 189.104524 
L 743.240614 189.113662 
L 743.795389 190.105816 
L 744.350165 193.833004 
L 744.90494 196.193877 
L 745.459715 197.215848 
L 746.014491 196.948933 
L 746.569266 194.771293 
L 747.124042 194.7333 
L 748.233592 194.990115 
L 748.788368 192.973586 
L 749.343143 192.812956 
L 749.897918 194.434644 
L 750.452694 194.45869 
L 751.007469 195.417179 
L 751.562244 193.878692 
L 752.11702 193.479522 
L 753.781346 200.121131 
L 754.336121 199.153024 
L 754.890897 197.956957 
L 755.445672 197.971385 
L 756.000447 196.773394 
L 756.555223 198.105564 
L 757.109998 198.047852 
L 757.664774 198.247918 
L 758.219549 196.329498 
L 758.774324 198.148366 
L 759.3291 198.240223 
L 759.883875 197.66792 
L 760.43865 195.7394 
L 760.993426 192.325296 
L 761.548201 191.893423 
L 762.102976 192.393107 
L 762.657752 193.884463 
L 763.212527 199.183322 
L 763.767303 199.040006 
L 764.322078 199.347799 
L 764.876853 196.360759 
L 765.431629 196.368453 
L 765.986404 198.433075 
L 766.541179 194.560166 
L 767.095955 196.950857 
L 767.65073 193.99171 
L 768.205505 192.584035 
L 768.760281 191.864567 
L 769.315056 192.353671 
L 769.869832 193.101032 
L 770.424607 192.541713 
L 770.979382 187.55161 
L 771.534158 186.961511 
L 772.088933 188.7395 
L 772.643708 192.268066 
L 773.198484 193.327549 
L 773.753259 192.63357 
L 774.86281 189.045851 
L 775.417585 187.166868 
L 775.972361 187.59874 
L 776.527136 187.639619 
L 777.081911 187.327497 
L 777.636687 187.405408 
L 778.191462 188.031575 
L 778.746237 188.200381 
L 779.301013 189.561406 
L 779.855788 189.539764 
L 780.410564 191.3216 
L 780.965339 189.784075 
L 781.520114 189.889398 
L 782.07489 190.878185 
L 782.629665 195.242602 
L 783.18444 195.142088 
L 783.739216 192.629242 
L 784.293991 194.417331 
L 784.848767 195.664857 
L 785.403542 194.615954 
L 785.958317 194.426949 
L 786.513093 194.357215 
L 787.067868 195.406598 
L 788.177419 191.000822 
L 788.732194 194.151859 
L 789.286969 193.438162 
L 789.841745 194.417811 
L 790.39652 194.335092 
L 790.951296 182.882284 
L 791.506071 182.463397 
L 792.060846 182.308057 
L 792.615622 182.655768 
L 793.170397 182.233032 
L 793.725172 182.507642 
L 794.279948 182.956347 
L 794.834723 183.94273 
L 795.389499 184.082199 
L 795.944274 184.679991 
L 796.499049 184.285631 
L 797.053825 176.850973 
L 797.6086 176.976014 
L 798.163375 175.536117 
L 798.718151 175.545735 
L 799.272926 174.660829 
L 799.827701 174.418922 
L 800.382477 175.25237 
L 800.937252 176.992365 
L 801.492028 177.816194 
L 802.046803 174.859452 
L 803.156354 176.006945 
L 803.711129 177.475697 
L 804.265904 178.50392 
L 804.82068 178.598663 
L 805.375455 178.367818 
L 805.930231 178.628 
L 806.485006 175.748687 
L 807.039781 176.064656 
L 807.594557 176.548469 
L 808.149332 178.137454 
L 808.704107 177.379993 
L 809.258883 178.289908 
L 809.813658 178.502478 
L 810.923209 180.861427 
L 811.477984 181.250497 
L 812.03276 180.854213 
L 812.587535 183.691204 
L 813.14231 181.200481 
L 814.251861 184.537637 
L 814.806636 188.682751 
L 815.361412 187.213037 
L 815.916187 186.636885 
L 817.025738 188.768356 
L 817.580513 188.921291 
L 818.135289 192.167071 
L 818.690064 192.170918 
L 819.244839 191.809742 
L 819.799615 192.243057 
L 820.35439 195.877426 
L 820.909165 195.724972 
L 822.018716 194.523616 
L 822.573492 194.465904 
L 823.128267 196.64643 
L 823.683042 196.872465 
L 824.237818 198.3215 
L 824.792593 198.479725 
L 825.347368 201.541791 
L 825.902144 199.907118 
L 826.456919 201.23015 
L 827.011695 201.079138 
L 827.56647 197.627041 
L 828.121245 195.972169 
L 828.676021 196.777723 
L 829.230796 196.671438 
L 829.785571 195.949085 
L 830.895122 200.908409 
L 831.449897 201.549966 
L 832.004673 201.45859 
L 832.559448 201.56728 
L 833.114224 200.796834 
L 833.668999 197.132647 
L 834.223774 197.204786 
L 834.77855 197.803541 
L 835.333325 197.779495 
L 835.8881 196.711836 
L 836.442876 194.88383 
L 836.997651 195.121889 
L 837.552427 193.876287 
L 838.107202 195.171906 
L 838.661977 195.621573 
L 839.216753 192.816323 
L 839.771528 191.683258 
L 840.326303 187.096171 
L 841.435854 188.921291 
L 841.990629 189.944705 
L 842.545405 189.997607 
L 843.10018 185.709176 
L 843.654956 189.574391 
L 844.209731 189.98895 
L 844.764506 190.695914 
L 845.319282 187.891144 
L 845.874057 187.300084 
L 846.428832 187.426568 
L 846.983608 188.416317 
L 847.538383 190.886842 
L 848.093159 190.855101 
L 848.647934 189.075188 
L 849.757485 188.108524 
L 850.31226 193.702191 
L 850.867035 192.827865 
L 851.421811 196.149151 
L 851.976586 196.161655 
L 852.531361 196.039018 
L 853.086137 196.225137 
L 853.640912 195.409484 
L 854.195688 194.890563 
L 854.750463 196.083744 
L 855.305238 196.102501 
L 855.860014 193.40065 
L 856.414789 192.961563 
L 856.969564 193.42133 
L 857.52434 195.547991 
L 858.079115 194.839585 
L 859.188666 195.385438 
L 859.743441 194.64529 
L 860.298217 195.094957 
L 860.852992 193.796934 
L 861.407767 192.890867 
L 861.962543 192.870187 
L 862.517318 193.506935 
L 863.072093 194.427911 
L 863.626869 197.338965 
L 864.181644 196.861404 
L 864.73642 196.168869 
L 865.291195 195.251259 
L 865.84597 196.181854 
L 866.400746 197.430822 
L 866.955521 195.129103 
L 867.510296 196.711836 
L 868.065072 195.082453 
L 868.619847 195.164692 
L 869.174623 191.994418 
L 869.729398 191.791947 
L 870.284173 192.095413 
L 870.838949 192.126192 
L 871.393724 194.527463 
L 871.948499 199.25498 
L 872.503275 199.549789 
L 873.05805 203.31978 
L 873.612825 203.260145 
L 874.167601 210.455782 
L 874.722376 210.16963 
L 875.277152 204.575962 
L 876.941478 204.935696 
L 877.496253 200.308212 
L 878.051028 200.527995 
L 878.605804 200.394779 
L 879.160579 200.648227 
L 879.715355 199.94463 
L 880.27013 210.337474 
L 880.824905 209.523263 
L 881.379681 209.664656 
L 881.934456 211.251717 
L 882.489231 211.153608 
L 883.044007 212.053423 
L 883.598782 211.611932 
L 884.153557 210.344688 
L 884.708333 213.218229 
L 885.263108 204.881351 
L 885.817884 205.158365 
L 886.372659 204.262397 
L 886.927434 204.195549 
L 887.48221 204.769776 
L 888.036985 206.323172 
L 888.59176 206.262094 
L 889.146536 207.117183 
L 889.701311 206.953668 
L 890.256086 210.504356 
L 890.810862 210.448568 
L 891.365637 209.081291 
L 892.475188 209.172186 
L 893.029963 211.447454 
L 893.584739 209.323198 
L 894.139514 208.978373 
L 895.249065 210.971817 
L 895.80384 212.284749 
L 896.358616 213.16677 
L 896.913391 213.009988 
L 897.468166 212.563206 
L 898.022942 211.385896 
L 898.577717 211.380125 
L 899.132492 215.467046 
L 899.687268 215.437229 
L 900.242043 215.924889 
L 900.796818 215.400198 
L 901.351594 215.786863 
L 901.906369 215.819566 
L 903.01592 216.948784 
L 903.570695 216.675617 
L 904.125471 219.068713 
L 904.680246 219.256274 
L 905.235021 220.014216 
L 905.789797 221.092936 
L 906.344572 218.912411 
L 906.899348 218.205929 
L 907.454123 217.902463 
L 908.008898 218.832577 
L 908.563674 222.773778 
L 909.118449 223.182566 
L 909.673224 223.902515 
L 910.228 224.335831 
L 910.782775 224.238683 
L 911.892326 228.158242 
L 912.447101 228.149586 
L 913.001877 227.907198 
L 913.556652 217.18011 
L 914.111427 217.142117 
L 914.666203 217.354687 
L 915.220978 215.867659 
L 915.775753 215.954707 
L 916.330529 215.643547 
L 916.885304 216.015785 
L 917.44008 220.884695 
L 917.994855 221.443052 
L 918.54963 225.174568 
L 919.659181 224.011204 
L 920.213956 226.345627 
L 920.768732 226.477882 
L 921.323507 229.003713 
L 921.878282 228.875786 
L 922.433058 228.972934 
L 922.987833 233.380634 
L 923.542609 235.753049 
L 924.097384 242.463912 
L 924.652159 242.396101 
L 925.76171 244.75986 
L 926.316485 245.068134 
L 926.871261 247.930134 
L 927.426036 248.315838 
L 927.980812 249.974076 
L 928.535587 250.299183 
L 929.090362 252.365728 
L 929.645138 252.73989 
L 930.199913 252.754799 
L 931.309464 253.334797 
L 931.864239 254.909354 
L 932.419014 255.500414 
L 932.97379 256.460826 
L 933.528565 257.073528 
L 934.083341 256.620975 
L 934.638116 259.350719 
L 935.192891 259.389674 
L 935.747667 259.631581 
L 936.302442 261.209985 
L 936.857217 261.254711 
L 937.411993 267.383651 
L 937.966768 268.279619 
L 938.521544 269.509351 
L 939.076319 273.472194 
L 939.631094 273.552508 
L 940.18587 274.426354 
L 940.740645 274.41433 
L 941.29542 274.540334 
L 941.850196 275.901839 
L 942.404971 276.441921 
L 943.514522 278.647454 
L 944.069297 279.380388 
L 944.624073 281.443567 
L 946.843174 282.080796 
L 947.397949 283.80444 
L 947.952725 284.17283 
L 948.5075 285.542031 
L 949.617051 285.629079 
L 950.171826 286.027768 
L 950.726602 287.624447 
L 951.281377 287.695624 
L 951.836152 289.167744 
L 952.390928 289.256234 
L 952.945703 291.985979 
L 954.055254 293.207535 
L 954.610029 294.517581 
L 955.71958 294.736403 
L 956.274355 294.83355 
L 956.829131 296.267676 
L 957.383906 300.704232 
L 957.938681 301.611262 
L 958.493457 301.927712 
L 959.603008 301.986866 
L 960.157783 302.412968 
L 960.712558 302.576964 
L 961.267334 308.993018 
L 961.822109 309.428257 
L 962.93166 309.741822 
L 963.486435 312.19311 
L 964.04121 312.687503 
L 964.595986 313.889341 
L 965.150761 313.923006 
L 966.260312 315.29942 
L 966.815087 315.300382 
L 967.369863 317.9022 
L 967.924638 317.972415 
L 968.479413 319.528216 
L 969.034189 327.563553 
L 969.588964 328.121428 
L 970.14374 329.209286 
L 970.698515 329.274693 
L 971.25329 329.509385 
L 971.808066 330.178355 
L 972.362841 330.327443 
L 972.917616 330.931488 
L 973.472392 332.631567 
L 974.027167 332.653689 
L 974.581942 335.002058 
L 975.136718 335.51617 
L 976.801044 335.686418 
L 977.355819 339.517968 
L 978.46537 339.824318 
L 979.574921 339.885396 
L 980.129696 341.072325 
L 980.684472 341.139655 
L 981.239247 341.851909 
L 982.348798 342.118343 
L 982.903573 342.581957 
L 983.458348 342.826749 
L 984.013124 342.834924 
L 985.122674 343.280263 
L 985.67745 344.937059 
L 986.232225 345.136644 
L 986.787001 345.215035 
L 987.341776 345.519943 
L 987.896551 345.659893 
L 988.451327 346.052329 
L 989.560877 347.721629 
L 990.115653 348.056354 
L 990.670428 348.609421 
L 991.225204 348.8369 
L 991.779979 348.844114 
L 992.334754 349.318308 
L 993.444305 349.624659 
L 993.99908 353.184965 
L 994.553856 353.496606 
L 995.108631 353.678397 
L 995.663406 356.361491 
L 996.218182 369.36 
L 996.218182 369.36 
" clip-path="url(#p440452dc52)" style="fill: none; stroke: #1f77b4; stroke-width: 1.5; stroke-linecap: square"/>
   </g>
   <g id="line2d_17">
    <path d="M 184.581818 339.417454 
L 996.218182 339.417454 
L 996.218182 339.417454 
" clip-path="url(#p440452dc52)" style="fill: none; stroke-dasharray: 5.55,2.4; stroke-dashoffset: 0; stroke: #ff7f0e; stroke-width: 1.5"/>
   </g>
   <g id="line2d_18">
    <path d="M 184.581818 203.188486 
L 996.218182 203.188486 
L 996.218182 203.188486 
" clip-path="url(#p440452dc52)" style="fill: none; stroke-dasharray: 5.55,2.4; stroke-dashoffset: 0; stroke: #2ca02c; stroke-width: 1.5"/>
   </g>
   <g id="line2d_19">
    <path d="M 184.581818 66.96 
L 996.218182 66.96 
L 996.218182 66.96 
" clip-path="url(#p440452dc52)" style="fill: none; stroke-dasharray: 5.55,2.4; stroke-dashoffset: 0; stroke: #d62728; stroke-width: 1.5"/>
   </g>
   <g id="patch_3">
    <path d="M 144 384.48 
L 144 51.84 
" style="fill: none; stroke: #000000; stroke-width: 0.8; stroke-linejoin: miter; stroke-linecap: square"/>
   </g>
   <g id="patch_4">
    <path d="M 1036.8 384.48 
L 1036.8 51.84 
" style="fill: none; stroke: #000000; stroke-width: 0.8; stroke-linejoin: miter; stroke-linecap: square"/>
   </g>
   <g id="patch_5">
    <path d="M 144 384.48 
L 1036.8 384.48 
" style="fill: none; stroke: #000000; stroke-width: 0.8; stroke-linejoin: miter; stroke-linecap: square"/>
   </g>
   <g id="patch_6">
    <path d="M 144 51.84 
L 1036.8 51.84 
" style="fill: none; stroke: #000000; stroke-width: 0.8; stroke-linejoin: miter; stroke-linecap: square"/>
   </g>
   <g id="text_18">
    <!-- NA -->
    <g transform="translate(581.806875 45.84)scale(0.12 -0.12)">
     <defs>
      <path id="DejaVuSans-4e" d="M 628 4666 
L 1478 4666 
L 3547 763 
L 3547 4666 
L 4159 4666 
L 4159 0 
L 3309 0 
L 1241 3903 
L 1241 0 
L 628 0 
L 628 4666 
z
" transform="scale(0.015625)"/>
      <path id="DejaVuSans-41" d="M 2188 4044 
L 1331 1722 
L 3047 1722 
L 2188 4044 
z
M 1831 4666 
L 2547 4666 
L 4325 0 
L 3669 0 
L 3244 1197 
L 1141 1197 
L 716 0 
L 50 0 
L 1831 4666 
z
" transform="scale(0.015625)"/>
     </defs>
     <use xlink:href="#DejaVuSans-4e"/>
     <use xlink:href="#DejaVuSans-41" x="74.804688"/>
    </g>
   </g>
   <g id="legend_1">
    <g id="patch_7">
     <path d="M 146 28.936045 
L 1034.8 28.936045 
Q 1036.8 28.936045 1036.8 26.936045 
L 1036.8 13.25792 
Q 1036.8 11.25792 1034.8 11.25792 
L 146 11.25792 
Q 144 11.25792 144 13.25792 
L 144 26.936045 
Q 144 28.936045 146 28.936045 
z
" style="fill: #ffffff; opacity: 0.8; stroke: #cccccc; stroke-linejoin: miter"/>
    </g>
    <g id="line2d_20">
     <path d="M 148 19.356358 
L 158 19.356358 
L 168 19.356358 
" style="fill: none; stroke-dasharray: 5.55,2.4; stroke-dashoffset: 0; stroke: #ff7f0e; stroke-width: 1.5"/>
    </g>
    <g id="text_19">
     <!-- Average depth * 0.2 -->
     <g transform="translate(176 22.856358)scale(0.1 -0.1)">
      <defs>
       <path id="DejaVuSans-64" d="M 2906 2969 
L 2906 4863 
L 3481 4863 
L 3481 0 
L 2906 0 
L 2906 525 
Q 2725 213 2448 61 
Q 2172 -91 1784 -91 
Q 1150 -91 751 415 
Q 353 922 353 1747 
Q 353 2572 751 3078 
Q 1150 3584 1784 3584 
Q 2172 3584 2448 3432 
Q 2725 3281 2906 2969 
z
M 947 1747 
Q 947 1113 1208 752 
Q 1469 391 1925 391 
Q 2381 391 2643 752 
Q 2906 1113 2906 1747 
Q 2906 2381 2643 2742 
Q 2381 3103 1925 3103 
Q 1469 3103 1208 2742 
Q 947 2381 947 1747 
z
" transform="scale(0.015625)"/>
       <path id="DejaVuSans-2a" d="M 3009 3897 
L 1888 3291 
L 3009 2681 
L 2828 2375 
L 1778 3009 
L 1778 1831 
L 1422 1831 
L 1422 3009 
L 372 2375 
L 191 2681 
L 1313 3291 
L 191 3897 
L 372 4206 
L 1422 3572 
L 1422 4750 
L 1778 4750 
L 1778 3572 
L 2828 4206 
L 3009 3897 
z
" transform="scale(0.015625)"/>
       <path id="DejaVuSans-2e" d="M 684 794 
L 1344 794 
L 1344 0 
L 684 0 
L 684 794 
z
" transform="scale(0.015625)"/>
      </defs>
      <use xlink:href="#DejaVuSans-41"/>
      <use xlink:href="#DejaVuSans-76" x="62.533203"/>
      <use xlink:href="#DejaVuSans-65" x="121.712891"/>
      <use xlink:href="#DejaVuSans-72" x="183.236328"/>
      <use xlink:href="#DejaVuSans-61" x="224.349609"/>
      <use xlink:href="#DejaVuSans-67" x="285.628906"/>
      <use xlink:href="#DejaVuSans-65" x="349.105469"/>
      <use xlink:href="#DejaVuSans-20" x="410.628906"/>
      <use xlink:href="#DejaVuSans-64" x="442.416016"/>
      <use xlink:href="#DejaVuSans-65" x="505.892578"/>
      <use xlink:href="#DejaVuSans-70" x="567.416016"/>
      <use xlink:href="#DejaVuSans-74" x="630.892578"/>
      <use xlink:href="#DejaVuSans-68" x="670.101562"/>
      <use xlink:href="#DejaVuSans-20" x="733.480469"/>
      <use xlink:href="#DejaVuSans-2a" x="765.267578"/>
      <use xlink:href="#DejaVuSans-20" x="815.267578"/>
      <use xlink:href="#DejaVuSans-30" x="847.054688"/>
      <use xlink:href="#DejaVuSans-2e" x="910.677734"/>
      <use xlink:href="#DejaVuSans-32" x="942.464844"/>
     </g>
    </g>
    <g id="line2d_21">
     <path d="M 539.724219 19.356358 
L 549.724219 19.356358 
L 559.724219 19.356358 
" style="fill: none; stroke-dasharray: 5.55,2.4; stroke-dashoffset: 0; stroke: #2ca02c; stroke-width: 1.5"/>
    </g>
    <g id="text_20">
     <!-- Average depth -->
     <g transform="translate(567.724219 22.856358)scale(0.1 -0.1)">
      <use xlink:href="#DejaVuSans-41"/>
      <use xlink:href="#DejaVuSans-76" x="62.533203"/>
      <use xlink:href="#DejaVuSans-65" x="121.712891"/>
      <use xlink:href="#DejaVuSans-72" x="183.236328"/>
      <use xlink:href="#DejaVuSans-61" x="224.349609"/>
      <use xlink:href="#DejaVuSans-67" x="285.628906"/>
      <use xlink:href="#DejaVuSans-65" x="349.105469"/>
      <use xlink:href="#DejaVuSans-20" x="410.628906"/>
      <use xlink:href="#DejaVuSans-64" x="442.416016"/>
      <use xlink:href="#DejaVuSans-65" x="505.892578"/>
      <use xlink:href="#DejaVuSans-70" x="567.416016"/>
      <use xlink:href="#DejaVuSans-74" x="630.892578"/>
      <use xlink:href="#DejaVuSans-68" x="670.101562"/>
     </g>
    </g>
    <g id="line2d_22">
     <path d="M 904.189062 19.356358 
L 914.189062 19.356358 
L 924.189062 19.356358 
" style="fill: none; stroke-dasharray: 5.55,2.4; stroke-dashoffset: 0; stroke: #d62728; stroke-width: 1.5"/>
    </g>
    <g id="text_21">
     <!-- Average depth * 1.8 -->
     <g transform="translate(932.189062 22.856358)scale(0.1 -0.1)">
      <use xlink:href="#DejaVuSans-41"/>
      <use xlink:href="#DejaVuSans-76" x="62.533203"/>
      <use xlink:href="#DejaVuSans-65" x="121.712891"/>
      <use xlink:href="#DejaVuSans-72" x="183.236328"/>
      <use xlink:href="#DejaVuSans-61" x="224.349609"/>
      <use xlink:href="#DejaVuSans-67" x="285.628906"/>
      <use xlink:href="#DejaVuSans-65" x="349.105469"/>
      <use xlink:href="#DejaVuSans-20" x="410.628906"/>
      <use xlink:href="#DejaVuSans-64" x="442.416016"/>
      <use xlink:href="#DejaVuSans-65" x="505.892578"/>
      <use xlink:href="#DejaVuSans-70" x="567.416016"/>
      <use xlink:href="#DejaVuSans-74" x="630.892578"/>
      <use xlink:href="#DejaVuSans-68" x="670.101562"/>
      <use xlink:href="#DejaVuSans-20" x="733.480469"/>
      <use xlink:href="#DejaVuSans-2a" x="765.267578"/>
      <use xlink:href="#DejaVuSans-20" x="815.267578"/>
      <use xlink:href="#DejaVuSans-31" x="847.054688"/>
      <use xlink:href="#DejaVuSans-2e" x="910.677734"/>
      <use xlink:href="#DejaVuSans-38" x="942.464844"/>
     </g>
    </g>
   </g>
  </g>
 </g>
 <defs>
  <clipPath id="p440452dc52">
   <rect x="144" y="51.84" width="892.8" height="332.64"/>
  </clipPath>
 </defs>
</svg>
