<?xml version="1.0" encoding="utf-8" standalone="no"?>
<!DOCTYPE svg PUBLIC "-//W3C//DTD SVG 1.1//EN"
  "http://www.w3.org/Graphics/SVG/1.1/DTD/svg11.dtd">
<svg xmlns:xlink="http://www.w3.org/1999/xlink" width="1152pt" height="432pt" viewBox="0 0 1152 432" xmlns="http://www.w3.org/2000/svg" version="1.1">
 <metadata>
  <rdf:RDF xmlns:dc="http://purl.org/dc/elements/1.1/" xmlns:cc="http://creativecommons.org/ns#" xmlns:rdf="http://www.w3.org/1999/02/22-rdf-syntax-ns#">
   <cc:Work>
    <dc:type rdf:resource="http://purl.org/dc/dcmitype/StillImage"/>
    <dc:date>2022-11-25T09:00:18.063953</dc:date>
    <dc:format>image/svg+xml</dc:format>
    <dc:creator>
     <cc:Agent>
      <dc:title>Matplotlib v3.5.2, https://matplotlib.org/</dc:title>
     </cc:Agent>
    </dc:creator>
   </cc:Work>
  </rdf:RDF>
 </metadata>
 <defs>
  <style type="text/css">*{stroke-linejoin: round; stroke-linecap: butt}</style>
 </defs>
 <g id="figure_1">
  <g id="patch_1">
   <path d="M 0 432 
L 1152 432 
L 1152 0 
L 0 0 
z
" style="fill: #ffffff"/>
  </g>
  <g id="axes_1">
   <g id="patch_2">
    <path d="M 144 384.48 
L 1036.8 384.48 
L 1036.8 51.84 
L 144 51.84 
z
" style="fill: #ffffff"/>
   </g>
   <g id="matplotlib.axis_1">
    <g id="xtick_1">
     <g id="line2d_1">
      <defs>
       <path id="m8441cb21a8" d="M 0 0 
L 0 3.5 
" style="stroke: #000000; stroke-width: 0.8"/>
      </defs>
      <g>
       <use xlink:href="#m8441cb21a8" x="184.581818" y="384.48" style="stroke: #000000; stroke-width: 0.8"/>
      </g>
     </g>
     <g id="text_1">
      <!-- 0 -->
      <g transform="translate(181.400568 399.078438)scale(0.1 -0.1)">
       <defs>
        <path id="DejaVuSans-30" d="M 2034 4250 
Q 1547 4250 1301 3770 
Q 1056 3291 1056 2328 
Q 1056 1369 1301 889 
Q 1547 409 2034 409 
Q 2525 409 2770 889 
Q 3016 1369 3016 2328 
Q 3016 3291 2770 3770 
Q 2525 4250 2034 4250 
z
M 2034 4750 
Q 2819 4750 3233 4129 
Q 3647 3509 3647 2328 
Q 3647 1150 3233 529 
Q 2819 -91 2034 -91 
Q 1250 -91 836 529 
Q 422 1150 422 2328 
Q 422 3509 836 4129 
Q 1250 4750 2034 4750 
z
" transform="scale(0.015625)"/>
       </defs>
       <use xlink:href="#DejaVuSans-30"/>
      </g>
     </g>
    </g>
    <g id="xtick_2">
     <g id="line2d_2">
      <g>
       <use xlink:href="#m8441cb21a8" x="288.371635" y="384.48" style="stroke: #000000; stroke-width: 0.8"/>
      </g>
     </g>
     <g id="text_2">
      <!-- 200 -->
      <g transform="translate(278.827885 399.078438)scale(0.1 -0.1)">
       <defs>
        <path id="DejaVuSans-32" d="M 1228 531 
L 3431 531 
L 3431 0 
L 469 0 
L 469 531 
Q 828 903 1448 1529 
Q 2069 2156 2228 2338 
Q 2531 2678 2651 2914 
Q 2772 3150 2772 3378 
Q 2772 3750 2511 3984 
Q 2250 4219 1831 4219 
Q 1534 4219 1204 4116 
Q 875 4013 500 3803 
L 500 4441 
Q 881 4594 1212 4672 
Q 1544 4750 1819 4750 
Q 2544 4750 2975 4387 
Q 3406 4025 3406 3419 
Q 3406 3131 3298 2873 
Q 3191 2616 2906 2266 
Q 2828 2175 2409 1742 
Q 1991 1309 1228 531 
z
" transform="scale(0.015625)"/>
       </defs>
       <use xlink:href="#DejaVuSans-32"/>
       <use xlink:href="#DejaVuSans-30" x="63.623047"/>
       <use xlink:href="#DejaVuSans-30" x="127.246094"/>
      </g>
     </g>
    </g>
    <g id="xtick_3">
     <g id="line2d_3">
      <g>
       <use xlink:href="#m8441cb21a8" x="392.161451" y="384.48" style="stroke: #000000; stroke-width: 0.8"/>
      </g>
     </g>
     <g id="text_3">
      <!-- 400 -->
      <g transform="translate(382.617701 399.078438)scale(0.1 -0.1)">
       <defs>
        <path id="DejaVuSans-34" d="M 2419 4116 
L 825 1625 
L 2419 1625 
L 2419 4116 
z
M 2253 4666 
L 3047 4666 
L 3047 1625 
L 3713 1625 
L 3713 1100 
L 3047 1100 
L 3047 0 
L 2419 0 
L 2419 1100 
L 313 1100 
L 313 1709 
L 2253 4666 
z
" transform="scale(0.015625)"/>
       </defs>
       <use xlink:href="#DejaVuSans-34"/>
       <use xlink:href="#DejaVuSans-30" x="63.623047"/>
       <use xlink:href="#DejaVuSans-30" x="127.246094"/>
      </g>
     </g>
    </g>
    <g id="xtick_4">
     <g id="line2d_4">
      <g>
       <use xlink:href="#m8441cb21a8" x="495.951267" y="384.48" style="stroke: #000000; stroke-width: 0.8"/>
      </g>
     </g>
     <g id="text_4">
      <!-- 600 -->
      <g transform="translate(486.407517 399.078438)scale(0.1 -0.1)">
       <defs>
        <path id="DejaVuSans-36" d="M 2113 2584 
Q 1688 2584 1439 2293 
Q 1191 2003 1191 1497 
Q 1191 994 1439 701 
Q 1688 409 2113 409 
Q 2538 409 2786 701 
Q 3034 994 3034 1497 
Q 3034 2003 2786 2293 
Q 2538 2584 2113 2584 
z
M 3366 4563 
L 3366 3988 
Q 3128 4100 2886 4159 
Q 2644 4219 2406 4219 
Q 1781 4219 1451 3797 
Q 1122 3375 1075 2522 
Q 1259 2794 1537 2939 
Q 1816 3084 2150 3084 
Q 2853 3084 3261 2657 
Q 3669 2231 3669 1497 
Q 3669 778 3244 343 
Q 2819 -91 2113 -91 
Q 1303 -91 875 529 
Q 447 1150 447 2328 
Q 447 3434 972 4092 
Q 1497 4750 2381 4750 
Q 2619 4750 2861 4703 
Q 3103 4656 3366 4563 
z
" transform="scale(0.015625)"/>
       </defs>
       <use xlink:href="#DejaVuSans-36"/>
       <use xlink:href="#DejaVuSans-30" x="63.623047"/>
       <use xlink:href="#DejaVuSans-30" x="127.246094"/>
      </g>
     </g>
    </g>
    <g id="xtick_5">
     <g id="line2d_5">
      <g>
       <use xlink:href="#m8441cb21a8" x="599.741083" y="384.48" style="stroke: #000000; stroke-width: 0.8"/>
      </g>
     </g>
     <g id="text_5">
      <!-- 800 -->
      <g transform="translate(590.197333 399.078438)scale(0.1 -0.1)">
       <defs>
        <path id="DejaVuSans-38" d="M 2034 2216 
Q 1584 2216 1326 1975 
Q 1069 1734 1069 1313 
Q 1069 891 1326 650 
Q 1584 409 2034 409 
Q 2484 409 2743 651 
Q 3003 894 3003 1313 
Q 3003 1734 2745 1975 
Q 2488 2216 2034 2216 
z
M 1403 2484 
Q 997 2584 770 2862 
Q 544 3141 544 3541 
Q 544 4100 942 4425 
Q 1341 4750 2034 4750 
Q 2731 4750 3128 4425 
Q 3525 4100 3525 3541 
Q 3525 3141 3298 2862 
Q 3072 2584 2669 2484 
Q 3125 2378 3379 2068 
Q 3634 1759 3634 1313 
Q 3634 634 3220 271 
Q 2806 -91 2034 -91 
Q 1263 -91 848 271 
Q 434 634 434 1313 
Q 434 1759 690 2068 
Q 947 2378 1403 2484 
z
M 1172 3481 
Q 1172 3119 1398 2916 
Q 1625 2713 2034 2713 
Q 2441 2713 2670 2916 
Q 2900 3119 2900 3481 
Q 2900 3844 2670 4047 
Q 2441 4250 2034 4250 
Q 1625 4250 1398 4047 
Q 1172 3844 1172 3481 
z
" transform="scale(0.015625)"/>
       </defs>
       <use xlink:href="#DejaVuSans-38"/>
       <use xlink:href="#DejaVuSans-30" x="63.623047"/>
       <use xlink:href="#DejaVuSans-30" x="127.246094"/>
      </g>
     </g>
    </g>
    <g id="xtick_6">
     <g id="line2d_6">
      <g>
       <use xlink:href="#m8441cb21a8" x="703.5309" y="384.48" style="stroke: #000000; stroke-width: 0.8"/>
      </g>
     </g>
     <g id="text_6">
      <!-- 1000 -->
      <g transform="translate(690.8059 399.078438)scale(0.1 -0.1)">
       <defs>
        <path id="DejaVuSans-31" d="M 794 531 
L 1825 531 
L 1825 4091 
L 703 3866 
L 703 4441 
L 1819 4666 
L 2450 4666 
L 2450 531 
L 3481 531 
L 3481 0 
L 794 0 
L 794 531 
z
" transform="scale(0.015625)"/>
       </defs>
       <use xlink:href="#DejaVuSans-31"/>
       <use xlink:href="#DejaVuSans-30" x="63.623047"/>
       <use xlink:href="#DejaVuSans-30" x="127.246094"/>
       <use xlink:href="#DejaVuSans-30" x="190.869141"/>
      </g>
     </g>
    </g>
    <g id="xtick_7">
     <g id="line2d_7">
      <g>
       <use xlink:href="#m8441cb21a8" x="807.320716" y="384.48" style="stroke: #000000; stroke-width: 0.8"/>
      </g>
     </g>
     <g id="text_7">
      <!-- 1200 -->
      <g transform="translate(794.595716 399.078438)scale(0.1 -0.1)">
       <use xlink:href="#DejaVuSans-31"/>
       <use xlink:href="#DejaVuSans-32" x="63.623047"/>
       <use xlink:href="#DejaVuSans-30" x="127.246094"/>
       <use xlink:href="#DejaVuSans-30" x="190.869141"/>
      </g>
     </g>
    </g>
    <g id="xtick_8">
     <g id="line2d_8">
      <g>
       <use xlink:href="#m8441cb21a8" x="911.110532" y="384.48" style="stroke: #000000; stroke-width: 0.8"/>
      </g>
     </g>
     <g id="text_8">
      <!-- 1400 -->
      <g transform="translate(898.385532 399.078438)scale(0.1 -0.1)">
       <use xlink:href="#DejaVuSans-31"/>
       <use xlink:href="#DejaVuSans-34" x="63.623047"/>
       <use xlink:href="#DejaVuSans-30" x="127.246094"/>
       <use xlink:href="#DejaVuSans-30" x="190.869141"/>
      </g>
     </g>
    </g>
    <g id="xtick_9">
     <g id="line2d_9">
      <g>
       <use xlink:href="#m8441cb21a8" x="1014.900349" y="384.48" style="stroke: #000000; stroke-width: 0.8"/>
      </g>
     </g>
     <g id="text_9">
      <!-- 1600 -->
      <g transform="translate(1002.175349 399.078438)scale(0.1 -0.1)">
       <use xlink:href="#DejaVuSans-31"/>
       <use xlink:href="#DejaVuSans-36" x="63.623047"/>
       <use xlink:href="#DejaVuSans-30" x="127.246094"/>
       <use xlink:href="#DejaVuSans-30" x="190.869141"/>
      </g>
     </g>
    </g>
    <g id="text_10">
     <!-- Position -->
     <g transform="translate(570.935938 412.756563)scale(0.1 -0.1)">
      <defs>
       <path id="DejaVuSans-50" d="M 1259 4147 
L 1259 2394 
L 2053 2394 
Q 2494 2394 2734 2622 
Q 2975 2850 2975 3272 
Q 2975 3691 2734 3919 
Q 2494 4147 2053 4147 
L 1259 4147 
z
M 628 4666 
L 2053 4666 
Q 2838 4666 3239 4311 
Q 3641 3956 3641 3272 
Q 3641 2581 3239 2228 
Q 2838 1875 2053 1875 
L 1259 1875 
L 1259 0 
L 628 0 
L 628 4666 
z
" transform="scale(0.015625)"/>
       <path id="DejaVuSans-6f" d="M 1959 3097 
Q 1497 3097 1228 2736 
Q 959 2375 959 1747 
Q 959 1119 1226 758 
Q 1494 397 1959 397 
Q 2419 397 2687 759 
Q 2956 1122 2956 1747 
Q 2956 2369 2687 2733 
Q 2419 3097 1959 3097 
z
M 1959 3584 
Q 2709 3584 3137 3096 
Q 3566 2609 3566 1747 
Q 3566 888 3137 398 
Q 2709 -91 1959 -91 
Q 1206 -91 779 398 
Q 353 888 353 1747 
Q 353 2609 779 3096 
Q 1206 3584 1959 3584 
z
" transform="scale(0.015625)"/>
       <path id="DejaVuSans-73" d="M 2834 3397 
L 2834 2853 
Q 2591 2978 2328 3040 
Q 2066 3103 1784 3103 
Q 1356 3103 1142 2972 
Q 928 2841 928 2578 
Q 928 2378 1081 2264 
Q 1234 2150 1697 2047 
L 1894 2003 
Q 2506 1872 2764 1633 
Q 3022 1394 3022 966 
Q 3022 478 2636 193 
Q 2250 -91 1575 -91 
Q 1294 -91 989 -36 
Q 684 19 347 128 
L 347 722 
Q 666 556 975 473 
Q 1284 391 1588 391 
Q 1994 391 2212 530 
Q 2431 669 2431 922 
Q 2431 1156 2273 1281 
Q 2116 1406 1581 1522 
L 1381 1569 
Q 847 1681 609 1914 
Q 372 2147 372 2553 
Q 372 3047 722 3315 
Q 1072 3584 1716 3584 
Q 2034 3584 2315 3537 
Q 2597 3491 2834 3397 
z
" transform="scale(0.015625)"/>
       <path id="DejaVuSans-69" d="M 603 3500 
L 1178 3500 
L 1178 0 
L 603 0 
L 603 3500 
z
M 603 4863 
L 1178 4863 
L 1178 4134 
L 603 4134 
L 603 4863 
z
" transform="scale(0.015625)"/>
       <path id="DejaVuSans-74" d="M 1172 4494 
L 1172 3500 
L 2356 3500 
L 2356 3053 
L 1172 3053 
L 1172 1153 
Q 1172 725 1289 603 
Q 1406 481 1766 481 
L 2356 481 
L 2356 0 
L 1766 0 
Q 1100 0 847 248 
Q 594 497 594 1153 
L 594 3053 
L 172 3053 
L 172 3500 
L 594 3500 
L 594 4494 
L 1172 4494 
z
" transform="scale(0.015625)"/>
       <path id="DejaVuSans-6e" d="M 3513 2113 
L 3513 0 
L 2938 0 
L 2938 2094 
Q 2938 2591 2744 2837 
Q 2550 3084 2163 3084 
Q 1697 3084 1428 2787 
Q 1159 2491 1159 1978 
L 1159 0 
L 581 0 
L 581 3500 
L 1159 3500 
L 1159 2956 
Q 1366 3272 1645 3428 
Q 1925 3584 2291 3584 
Q 2894 3584 3203 3211 
Q 3513 2838 3513 2113 
z
" transform="scale(0.015625)"/>
      </defs>
      <use xlink:href="#DejaVuSans-50"/>
      <use xlink:href="#DejaVuSans-6f" x="56.677734"/>
      <use xlink:href="#DejaVuSans-73" x="117.859375"/>
      <use xlink:href="#DejaVuSans-69" x="169.958984"/>
      <use xlink:href="#DejaVuSans-74" x="197.742188"/>
      <use xlink:href="#DejaVuSans-69" x="236.951172"/>
      <use xlink:href="#DejaVuSans-6f" x="264.734375"/>
      <use xlink:href="#DejaVuSans-6e" x="325.916016"/>
     </g>
    </g>
   </g>
   <g id="matplotlib.axis_2">
    <g id="ytick_1">
     <g id="line2d_10">
      <defs>
       <path id="maeee76beac" d="M 0 0 
L -3.5 0 
" style="stroke: #000000; stroke-width: 0.8"/>
      </defs>
      <g>
       <use xlink:href="#maeee76beac" x="144" y="373.301428" style="stroke: #000000; stroke-width: 0.8"/>
      </g>
     </g>
     <g id="text_11">
      <!-- 0 -->
      <g transform="translate(130.6375 377.100647)scale(0.1 -0.1)">
       <use xlink:href="#DejaVuSans-30"/>
      </g>
     </g>
    </g>
    <g id="ytick_2">
     <g id="line2d_11">
      <g>
       <use xlink:href="#maeee76beac" x="144" y="321.048631" style="stroke: #000000; stroke-width: 0.8"/>
      </g>
     </g>
     <g id="text_12">
      <!-- 100000 -->
      <g transform="translate(98.825 324.84785)scale(0.1 -0.1)">
       <use xlink:href="#DejaVuSans-31"/>
       <use xlink:href="#DejaVuSans-30" x="63.623047"/>
       <use xlink:href="#DejaVuSans-30" x="127.246094"/>
       <use xlink:href="#DejaVuSans-30" x="190.869141"/>
       <use xlink:href="#DejaVuSans-30" x="254.492188"/>
       <use xlink:href="#DejaVuSans-30" x="318.115234"/>
      </g>
     </g>
    </g>
    <g id="ytick_3">
     <g id="line2d_12">
      <g>
       <use xlink:href="#maeee76beac" x="144" y="268.795834" style="stroke: #000000; stroke-width: 0.8"/>
      </g>
     </g>
     <g id="text_13">
      <!-- 200000 -->
      <g transform="translate(98.825 272.595053)scale(0.1 -0.1)">
       <use xlink:href="#DejaVuSans-32"/>
       <use xlink:href="#DejaVuSans-30" x="63.623047"/>
       <use xlink:href="#DejaVuSans-30" x="127.246094"/>
       <use xlink:href="#DejaVuSans-30" x="190.869141"/>
       <use xlink:href="#DejaVuSans-30" x="254.492188"/>
       <use xlink:href="#DejaVuSans-30" x="318.115234"/>
      </g>
     </g>
    </g>
    <g id="ytick_4">
     <g id="line2d_13">
      <g>
       <use xlink:href="#maeee76beac" x="144" y="216.543037" style="stroke: #000000; stroke-width: 0.8"/>
      </g>
     </g>
     <g id="text_14">
      <!-- 300000 -->
      <g transform="translate(98.825 220.342256)scale(0.1 -0.1)">
       <defs>
        <path id="DejaVuSans-33" d="M 2597 2516 
Q 3050 2419 3304 2112 
Q 3559 1806 3559 1356 
Q 3559 666 3084 287 
Q 2609 -91 1734 -91 
Q 1441 -91 1130 -33 
Q 819 25 488 141 
L 488 750 
Q 750 597 1062 519 
Q 1375 441 1716 441 
Q 2309 441 2620 675 
Q 2931 909 2931 1356 
Q 2931 1769 2642 2001 
Q 2353 2234 1838 2234 
L 1294 2234 
L 1294 2753 
L 1863 2753 
Q 2328 2753 2575 2939 
Q 2822 3125 2822 3475 
Q 2822 3834 2567 4026 
Q 2313 4219 1838 4219 
Q 1578 4219 1281 4162 
Q 984 4106 628 3988 
L 628 4550 
Q 988 4650 1302 4700 
Q 1616 4750 1894 4750 
Q 2613 4750 3031 4423 
Q 3450 4097 3450 3541 
Q 3450 3153 3228 2886 
Q 3006 2619 2597 2516 
z
" transform="scale(0.015625)"/>
       </defs>
       <use xlink:href="#DejaVuSans-33"/>
       <use xlink:href="#DejaVuSans-30" x="63.623047"/>
       <use xlink:href="#DejaVuSans-30" x="127.246094"/>
       <use xlink:href="#DejaVuSans-30" x="190.869141"/>
       <use xlink:href="#DejaVuSans-30" x="254.492188"/>
       <use xlink:href="#DejaVuSans-30" x="318.115234"/>
      </g>
     </g>
    </g>
    <g id="ytick_5">
     <g id="line2d_14">
      <g>
       <use xlink:href="#maeee76beac" x="144" y="164.29024" style="stroke: #000000; stroke-width: 0.8"/>
      </g>
     </g>
     <g id="text_15">
      <!-- 400000 -->
      <g transform="translate(98.825 168.089459)scale(0.1 -0.1)">
       <use xlink:href="#DejaVuSans-34"/>
       <use xlink:href="#DejaVuSans-30" x="63.623047"/>
       <use xlink:href="#DejaVuSans-30" x="127.246094"/>
       <use xlink:href="#DejaVuSans-30" x="190.869141"/>
       <use xlink:href="#DejaVuSans-30" x="254.492188"/>
       <use xlink:href="#DejaVuSans-30" x="318.115234"/>
      </g>
     </g>
    </g>
    <g id="ytick_6">
     <g id="line2d_15">
      <g>
       <use xlink:href="#maeee76beac" x="144" y="112.037443" style="stroke: #000000; stroke-width: 0.8"/>
      </g>
     </g>
     <g id="text_16">
      <!-- 500000 -->
      <g transform="translate(98.825 115.836662)scale(0.1 -0.1)">
       <defs>
        <path id="DejaVuSans-35" d="M 691 4666 
L 3169 4666 
L 3169 4134 
L 1269 4134 
L 1269 2991 
Q 1406 3038 1543 3061 
Q 1681 3084 1819 3084 
Q 2600 3084 3056 2656 
Q 3513 2228 3513 1497 
Q 3513 744 3044 326 
Q 2575 -91 1722 -91 
Q 1428 -91 1123 -41 
Q 819 9 494 109 
L 494 744 
Q 775 591 1075 516 
Q 1375 441 1709 441 
Q 2250 441 2565 725 
Q 2881 1009 2881 1497 
Q 2881 1984 2565 2268 
Q 2250 2553 1709 2553 
Q 1456 2553 1204 2497 
Q 953 2441 691 2322 
L 691 4666 
z
" transform="scale(0.015625)"/>
       </defs>
       <use xlink:href="#DejaVuSans-35"/>
       <use xlink:href="#DejaVuSans-30" x="63.623047"/>
       <use xlink:href="#DejaVuSans-30" x="127.246094"/>
       <use xlink:href="#DejaVuSans-30" x="190.869141"/>
       <use xlink:href="#DejaVuSans-30" x="254.492188"/>
       <use xlink:href="#DejaVuSans-30" x="318.115234"/>
      </g>
     </g>
    </g>
    <g id="ytick_7">
     <g id="line2d_16">
      <g>
       <use xlink:href="#maeee76beac" x="144" y="59.784646" style="stroke: #000000; stroke-width: 0.8"/>
      </g>
     </g>
     <g id="text_17">
      <!-- 600000 -->
      <g transform="translate(98.825 63.583865)scale(0.1 -0.1)">
       <use xlink:href="#DejaVuSans-36"/>
       <use xlink:href="#DejaVuSans-30" x="63.623047"/>
       <use xlink:href="#DejaVuSans-30" x="127.246094"/>
       <use xlink:href="#DejaVuSans-30" x="190.869141"/>
       <use xlink:href="#DejaVuSans-30" x="254.492188"/>
       <use xlink:href="#DejaVuSans-30" x="318.115234"/>
      </g>
     </g>
    </g>
    <g id="text_18">
     <!-- Depth of coverage -->
     <g transform="translate(92.745312 264.602187)rotate(-90)scale(0.1 -0.1)">
      <defs>
       <path id="DejaVuSans-44" d="M 1259 4147 
L 1259 519 
L 2022 519 
Q 2988 519 3436 956 
Q 3884 1394 3884 2338 
Q 3884 3275 3436 3711 
Q 2988 4147 2022 4147 
L 1259 4147 
z
M 628 4666 
L 1925 4666 
Q 3281 4666 3915 4102 
Q 4550 3538 4550 2338 
Q 4550 1131 3912 565 
Q 3275 0 1925 0 
L 628 0 
L 628 4666 
z
" transform="scale(0.015625)"/>
       <path id="DejaVuSans-65" d="M 3597 1894 
L 3597 1613 
L 953 1613 
Q 991 1019 1311 708 
Q 1631 397 2203 397 
Q 2534 397 2845 478 
Q 3156 559 3463 722 
L 3463 178 
Q 3153 47 2828 -22 
Q 2503 -91 2169 -91 
Q 1331 -91 842 396 
Q 353 884 353 1716 
Q 353 2575 817 3079 
Q 1281 3584 2069 3584 
Q 2775 3584 3186 3129 
Q 3597 2675 3597 1894 
z
M 3022 2063 
Q 3016 2534 2758 2815 
Q 2500 3097 2075 3097 
Q 1594 3097 1305 2825 
Q 1016 2553 972 2059 
L 3022 2063 
z
" transform="scale(0.015625)"/>
       <path id="DejaVuSans-70" d="M 1159 525 
L 1159 -1331 
L 581 -1331 
L 581 3500 
L 1159 3500 
L 1159 2969 
Q 1341 3281 1617 3432 
Q 1894 3584 2278 3584 
Q 2916 3584 3314 3078 
Q 3713 2572 3713 1747 
Q 3713 922 3314 415 
Q 2916 -91 2278 -91 
Q 1894 -91 1617 61 
Q 1341 213 1159 525 
z
M 3116 1747 
Q 3116 2381 2855 2742 
Q 2594 3103 2138 3103 
Q 1681 3103 1420 2742 
Q 1159 2381 1159 1747 
Q 1159 1113 1420 752 
Q 1681 391 2138 391 
Q 2594 391 2855 752 
Q 3116 1113 3116 1747 
z
" transform="scale(0.015625)"/>
       <path id="DejaVuSans-68" d="M 3513 2113 
L 3513 0 
L 2938 0 
L 2938 2094 
Q 2938 2591 2744 2837 
Q 2550 3084 2163 3084 
Q 1697 3084 1428 2787 
Q 1159 2491 1159 1978 
L 1159 0 
L 581 0 
L 581 4863 
L 1159 4863 
L 1159 2956 
Q 1366 3272 1645 3428 
Q 1925 3584 2291 3584 
Q 2894 3584 3203 3211 
Q 3513 2838 3513 2113 
z
" transform="scale(0.015625)"/>
       <path id="DejaVuSans-20" transform="scale(0.015625)"/>
       <path id="DejaVuSans-66" d="M 2375 4863 
L 2375 4384 
L 1825 4384 
Q 1516 4384 1395 4259 
Q 1275 4134 1275 3809 
L 1275 3500 
L 2222 3500 
L 2222 3053 
L 1275 3053 
L 1275 0 
L 697 0 
L 697 3053 
L 147 3053 
L 147 3500 
L 697 3500 
L 697 3744 
Q 697 4328 969 4595 
Q 1241 4863 1831 4863 
L 2375 4863 
z
" transform="scale(0.015625)"/>
       <path id="DejaVuSans-63" d="M 3122 3366 
L 3122 2828 
Q 2878 2963 2633 3030 
Q 2388 3097 2138 3097 
Q 1578 3097 1268 2742 
Q 959 2388 959 1747 
Q 959 1106 1268 751 
Q 1578 397 2138 397 
Q 2388 397 2633 464 
Q 2878 531 3122 666 
L 3122 134 
Q 2881 22 2623 -34 
Q 2366 -91 2075 -91 
Q 1284 -91 818 406 
Q 353 903 353 1747 
Q 353 2603 823 3093 
Q 1294 3584 2113 3584 
Q 2378 3584 2631 3529 
Q 2884 3475 3122 3366 
z
" transform="scale(0.015625)"/>
       <path id="DejaVuSans-76" d="M 191 3500 
L 800 3500 
L 1894 563 
L 2988 3500 
L 3597 3500 
L 2284 0 
L 1503 0 
L 191 3500 
z
" transform="scale(0.015625)"/>
       <path id="DejaVuSans-72" d="M 2631 2963 
Q 2534 3019 2420 3045 
Q 2306 3072 2169 3072 
Q 1681 3072 1420 2755 
Q 1159 2438 1159 1844 
L 1159 0 
L 581 0 
L 581 3500 
L 1159 3500 
L 1159 2956 
Q 1341 3275 1631 3429 
Q 1922 3584 2338 3584 
Q 2397 3584 2469 3576 
Q 2541 3569 2628 3553 
L 2631 2963 
z
" transform="scale(0.015625)"/>
       <path id="DejaVuSans-61" d="M 2194 1759 
Q 1497 1759 1228 1600 
Q 959 1441 959 1056 
Q 959 750 1161 570 
Q 1363 391 1709 391 
Q 2188 391 2477 730 
Q 2766 1069 2766 1631 
L 2766 1759 
L 2194 1759 
z
M 3341 1997 
L 3341 0 
L 2766 0 
L 2766 531 
Q 2569 213 2275 61 
Q 1981 -91 1556 -91 
Q 1019 -91 701 211 
Q 384 513 384 1019 
Q 384 1609 779 1909 
Q 1175 2209 1959 2209 
L 2766 2209 
L 2766 2266 
Q 2766 2663 2505 2880 
Q 2244 3097 1772 3097 
Q 1472 3097 1187 3025 
Q 903 2953 641 2809 
L 641 3341 
Q 956 3463 1253 3523 
Q 1550 3584 1831 3584 
Q 2591 3584 2966 3190 
Q 3341 2797 3341 1997 
z
" transform="scale(0.015625)"/>
       <path id="DejaVuSans-67" d="M 2906 1791 
Q 2906 2416 2648 2759 
Q 2391 3103 1925 3103 
Q 1463 3103 1205 2759 
Q 947 2416 947 1791 
Q 947 1169 1205 825 
Q 1463 481 1925 481 
Q 2391 481 2648 825 
Q 2906 1169 2906 1791 
z
M 3481 434 
Q 3481 -459 3084 -895 
Q 2688 -1331 1869 -1331 
Q 1566 -1331 1297 -1286 
Q 1028 -1241 775 -1147 
L 775 -588 
Q 1028 -725 1275 -790 
Q 1522 -856 1778 -856 
Q 2344 -856 2625 -561 
Q 2906 -266 2906 331 
L 2906 616 
Q 2728 306 2450 153 
Q 2172 0 1784 0 
Q 1141 0 747 490 
Q 353 981 353 1791 
Q 353 2603 747 3093 
Q 1141 3584 1784 3584 
Q 2172 3584 2450 3431 
Q 2728 3278 2906 2969 
L 2906 3500 
L 3481 3500 
L 3481 434 
z
" transform="scale(0.015625)"/>
      </defs>
      <use xlink:href="#DejaVuSans-44"/>
      <use xlink:href="#DejaVuSans-65" x="77.001953"/>
      <use xlink:href="#DejaVuSans-70" x="138.525391"/>
      <use xlink:href="#DejaVuSans-74" x="202.001953"/>
      <use xlink:href="#DejaVuSans-68" x="241.210938"/>
      <use xlink:href="#DejaVuSans-20" x="304.589844"/>
      <use xlink:href="#DejaVuSans-6f" x="336.376953"/>
      <use xlink:href="#DejaVuSans-66" x="397.558594"/>
      <use xlink:href="#DejaVuSans-20" x="432.763672"/>
      <use xlink:href="#DejaVuSans-63" x="464.550781"/>
      <use xlink:href="#DejaVuSans-6f" x="519.53125"/>
      <use xlink:href="#DejaVuSans-76" x="580.712891"/>
      <use xlink:href="#DejaVuSans-65" x="639.892578"/>
      <use xlink:href="#DejaVuSans-72" x="701.416016"/>
      <use xlink:href="#DejaVuSans-61" x="742.529297"/>
      <use xlink:href="#DejaVuSans-67" x="803.808594"/>
      <use xlink:href="#DejaVuSans-65" x="867.285156"/>
     </g>
    </g>
   </g>
   <g id="line2d_17">
    <path d="M 184.581818 342.670316 
L 185.100767 333.377679 
L 185.619716 330.257664 
L 186.138665 330.090455 
L 186.657615 326.638636 
L 187.176564 325.028727 
L 187.695513 324.906978 
L 188.214462 324.5642 
L 189.25236 324.340035 
L 189.771309 320.8438 
L 190.290258 320.098676 
L 190.809207 316.226743 
L 191.847105 315.565223 
L 192.366054 312.615552 
L 192.885003 310.715641 
L 193.403953 309.576007 
L 193.922902 309.048254 
L 194.441851 302.931542 
L 194.9608 302.701107 
L 195.479749 299.461433 
L 195.998698 299.319828 
L 196.517647 296.462123 
L 197.036596 296.393672 
L 197.555545 294.504733 
L 198.074494 293.855231 
L 198.593443 292.263088 
L 199.631342 287.644463 
L 200.150291 286.193926 
L 200.66924 285.643704 
L 201.188189 284.845803 
L 201.707138 284.447637 
L 202.226087 283.646079 
L 202.745036 277.352752 
L 203.263985 276.946748 
L 203.782934 276.700115 
L 204.301883 274.014321 
L 204.820832 272.866327 
L 205.339781 267.644705 
L 205.858731 266.917346 
L 206.37768 265.058714 
L 209.491374 263.834954 
L 210.010323 262.161297 
L 210.529272 261.317414 
L 211.048221 258.902812 
L 211.56717 257.523338 
L 212.605069 256.666915 
L 213.124018 255.629174 
L 213.642967 255.521011 
L 214.161916 255.140611 
L 214.680865 253.785696 
L 215.199814 250.246614 
L 215.718763 249.541201 
L 216.237712 248.533767 
L 216.756661 248.40418 
L 217.27561 247.918752 
L 217.794559 247.862319 
L 218.313508 247.666371 
L 218.832458 247.007463 
L 219.351407 246.918633 
L 219.870356 244.546879 
L 220.389305 244.450211 
L 220.908254 239.163796 
L 221.427203 235.057248 
L 221.946152 233.07321 
L 222.465101 232.816648 
L 222.98405 232.726251 
L 224.021948 231.532275 
L 224.540897 231.606474 
L 225.059847 231.420454 
L 225.578796 231.621627 
L 226.616694 223.450334 
L 227.135643 222.558902 
L 227.654592 222.423567 
L 228.173541 222.148717 
L 228.69249 220.642269 
L 229.211439 214.843254 
L 229.730388 214.117985 
L 230.249337 211.362695 
L 230.768286 211.177197 
L 232.325134 209.016022 
L 232.844083 208.956976 
L 233.363032 208.759983 
L 234.40093 208.03994 
L 235.438828 206.386661 
L 235.957777 204.778842 
L 236.476726 204.764212 
L 236.995675 203.063906 
L 238.033574 203.007473 
L 238.552523 202.668352 
L 239.071472 201.067849 
L 239.590421 199.835205 
L 240.10937 199.775637 
L 240.628319 200.155515 
L 241.147268 199.459508 
L 241.666217 199.234298 
L 242.185166 197.759724 
L 243.223064 197.689183 
L 244.260963 196.65301 
L 244.779912 195.304888 
L 245.298861 195.107895 
L 245.81781 195.100057 
L 246.336759 195.20822 
L 246.855708 195.460079 
L 247.374657 194.854991 
L 248.412555 194.687782 
L 248.931504 194.199219 
L 249.450453 194.336643 
L 250.488352 192.278928 
L 251.007301 191.652417 
L 251.52625 186.879647 
L 252.045199 186.33047 
L 254.120995 185.660067 
L 254.639944 186.048305 
L 255.158893 185.886844 
L 255.677842 184.631209 
L 256.196791 184.873139 
L 256.715741 185.369018 
L 257.753639 184.70384 
L 258.272588 185.15635 
L 258.791537 183.90176 
L 259.310486 183.90176 
L 259.829435 183.526062 
L 260.348384 182.940831 
L 260.867333 182.929858 
L 261.905231 182.201976 
L 262.42418 206.637474 
L 262.94313 211.580067 
L 263.462079 219.872585 
L 263.981028 219.904982 
L 264.499977 220.23731 
L 265.018926 218.65405 
L 265.537875 219.838099 
L 266.056824 219.858477 
L 266.575773 214.900732 
L 267.613671 212.618852 
L 268.13262 215.913914 
L 268.651569 216.648065 
L 269.170518 213.806558 
L 269.689468 214.192184 
L 270.208417 211.705473 
L 270.727366 213.583961 
L 271.246315 217.218143 
L 271.765264 216.770337 
L 272.284213 217.52748 
L 272.803162 211.587382 
L 273.322111 210.243963 
L 273.84106 213.246408 
L 274.360009 213.056731 
L 274.878958 215.95049 
L 275.397907 214.900209 
L 275.916857 216.529451 
L 276.435806 217.139242 
L 277.473704 226.159642 
L 277.992653 222.785679 
L 278.511602 222.762165 
L 279.030551 220.173039 
L 279.5495 223.649418 
L 280.068449 224.16254 
L 280.587398 223.769599 
L 281.106347 223.739815 
L 281.625296 223.463398 
L 282.144246 226.783018 
L 282.663195 227.375565 
L 283.182144 228.709056 
L 283.701093 229.337657 
L 284.220042 230.439669 
L 285.25794 229.533083 
L 285.776889 228.319773 
L 286.295838 227.407961 
L 286.814787 221.079625 
L 287.333736 221.39889 
L 287.852685 219.985974 
L 288.371635 220.592629 
L 288.890584 220.500664 
L 289.409533 220.849713 
L 289.928482 221.582297 
L 290.447431 221.788695 
L 290.96638 222.271511 
L 291.485329 223.015069 
L 292.004278 226.242724 
L 292.523227 226.015947 
L 293.042176 226.881253 
L 293.561125 225.614645 
L 294.080074 225.253056 
L 294.599023 224.417534 
L 295.117973 213.336283 
L 295.636922 213.475798 
L 296.155871 213.405779 
L 296.67482 213.535366 
L 297.193769 214.228238 
L 297.712718 213.407869 
L 298.750616 214.487935 
L 299.269565 217.221279 
L 299.788514 223.136295 
L 300.307463 218.022836 
L 300.826412 214.349987 
L 301.345362 214.262725 
L 301.864311 210.647877 
L 302.38326 210.440433 
L 302.902209 200.051009 
L 303.940107 197.353197 
L 304.459056 199.094783 
L 304.978005 198.991323 
L 305.496954 198.017331 
L 306.015903 197.701724 
L 306.534852 198.409226 
L 307.053801 197.801526 
L 307.572751 204.548408 
L 309.129598 200.667592 
L 309.648547 201.145183 
L 310.167496 201.319707 
L 310.686445 199.467868 
L 311.205394 200.261066 
L 312.243292 203.51537 
L 312.762241 199.081197 
L 313.80014 192.39493 
L 314.319089 191.161764 
L 314.838038 191.476325 
L 315.356987 190.953275 
L 315.875936 190.185681 
L 316.394885 190.706642 
L 316.913834 190.667975 
L 317.432783 191.728706 
L 317.951732 191.864564 
L 318.470681 191.760058 
L 318.98963 191.400036 
L 320.546478 192.567886 
L 321.584376 192.472786 
L 322.103325 192.832285 
L 322.622274 193.99909 
L 323.141223 194.864919 
L 323.660172 194.688827 
L 324.179121 193.683484 
L 325.217019 189.145851 
L 326.254917 188.479627 
L 326.773867 186.744312 
L 327.292816 186.534778 
L 327.811765 185.35282 
L 328.330714 182.949191 
L 328.849663 186.162216 
L 329.368612 186.00389 
L 330.40651 185.913493 
L 330.925459 185.355955 
L 331.444408 184.456685 
L 331.963357 185.345505 
L 332.482306 183.884516 
L 333.001256 185.494425 
L 333.520205 184.959879 
L 334.039154 183.984842 
L 334.558103 183.282564 
L 335.077052 178.404766 
L 335.596001 177.426593 
L 336.11495 177.006481 
L 336.633899 177.312682 
L 337.152848 178.731868 
L 337.671797 175.794216 
L 338.190746 175.734648 
L 338.709695 174.997883 
L 339.228645 174.806116 
L 339.747594 176.468277 
L 340.266543 175.284229 
L 340.785492 175.225183 
L 341.82339 172.638669 
L 342.342339 174.8939 
L 342.861288 175.701728 
L 343.380237 175.183903 
L 343.899186 167.144288 
L 344.418135 170.041705 
L 344.937084 171.15887 
L 345.456033 171.33235 
L 345.974983 170.513026 
L 346.493932 166.781653 
L 347.012881 167.925467 
L 347.53183 170.633207 
L 348.050779 170.959787 
L 348.569728 171.823526 
L 349.088677 171.538748 
L 349.607626 172.428091 
L 350.126575 182.215562 
L 350.645524 182.792956 
L 351.164473 182.834235 
L 351.683422 183.016075 
L 352.202372 183.906985 
L 352.721321 183.52554 
L 353.24027 182.105831 
L 353.759219 181.587484 
L 354.278168 179.409064 
L 355.316066 178.792481 
L 355.835015 179.216252 
L 356.353964 180.597293 
L 356.872913 181.038307 
L 357.391862 183.634226 
L 357.910811 184.039185 
L 358.429761 183.906985 
L 358.94871 184.08778 
L 359.986608 183.821291 
L 360.505557 184.7493 
L 361.024506 185.443217 
L 361.543455 185.187179 
L 362.062404 185.152169 
L 362.581353 185.754644 
L 363.100302 188.28995 
L 363.619251 185.395667 
L 364.1382 185.34655 
L 364.65715 191.226034 
L 365.176099 188.959831 
L 365.695048 187.54169 
L 366.213997 188.450366 
L 366.732946 185.099394 
L 367.251895 185.412911 
L 367.770844 184.508937 
L 368.289793 184.809391 
L 368.808742 182.923588 
L 369.327691 182.672252 
L 369.84664 182.586557 
L 370.365589 184.275367 
L 370.884538 185.078493 
L 371.403488 185.418136 
L 371.922437 185.25354 
L 372.441386 186.779844 
L 372.960335 186.689447 
L 373.479284 193.402886 
L 373.998233 193.264416 
L 374.517182 189.712271 
L 375.036131 189.860669 
L 375.55508 188.737756 
L 376.074029 184.280593 
L 376.592978 182.802884 
L 377.111927 183.186942 
L 378.149826 189.667334 
L 378.668775 185.042961 
L 379.187724 182.316933 
L 379.706673 181.704007 
L 380.225622 185.230026 
L 380.744571 186.519625 
L 381.26352 190.672155 
L 381.782469 192.35156 
L 382.301418 193.284272 
L 382.820367 191.790365 
L 383.339316 197.137916 
L 383.858266 196.6551 
L 384.896164 197.594083 
L 385.415113 196.55791 
L 385.934062 200.275696 
L 386.453011 198.958926 
L 386.97196 197.95724 
L 387.490909 197.753454 
L 388.528807 199.886413 
L 389.047756 200.142452 
L 389.566705 199.945459 
L 390.085654 200.80972 
L 390.604604 200.800837 
L 391.123553 202.375214 
L 391.642502 202.864822 
L 392.161451 202.487557 
L 392.6804 203.983032 
L 393.199349 203.914059 
L 393.718298 204.198314 
L 394.237247 204.073952 
L 395.275145 204.185773 
L 395.794094 203.813733 
L 396.313043 204.698896 
L 396.831993 204.795041 
L 397.869891 204.294982 
L 398.907789 202.413358 
L 399.426738 201.616503 
L 399.945687 201.675549 
L 400.464636 197.984411 
L 400.983585 198.379442 
L 401.502534 196.222969 
L 402.021483 196.937265 
L 402.540432 196.286195 
L 403.059382 196.727731 
L 403.578331 198.851808 
L 404.09728 199.099486 
L 404.616229 199.201379 
L 405.135178 200.969614 
L 405.654127 201.240806 
L 406.173076 198.684076 
L 406.692025 201.234535 
L 407.210974 201.934723 
L 407.729923 201.723099 
L 408.248872 201.695405 
L 408.767821 202.190239 
L 409.80572 203.895248 
L 410.324669 203.621443 
L 410.843618 203.590614 
L 411.362567 204.196224 
L 411.881516 202.688208 
L 412.400465 202.02094 
L 412.919414 202.611396 
L 413.438363 206.200119 
L 413.957312 207.245174 
L 414.476261 206.08673 
L 414.99521 205.741339 
L 415.514159 208.824777 
L 416.552058 202.204347 
L 417.071007 200.198885 
L 417.589956 195.449628 
L 418.108905 194.636052 
L 418.627854 195.807037 
L 419.146803 195.123048 
L 419.665752 193.222614 
L 420.184701 192.090818 
L 420.70365 191.757445 
L 421.222599 194.097326 
L 421.741548 193.547626 
L 422.260498 200.515014 
L 422.779447 199.997712 
L 423.298396 200.285102 
L 423.817345 200.360346 
L 424.336294 199.879098 
L 424.855243 200.999398 
L 425.374192 200.44395 
L 425.893141 200.995217 
L 426.41209 201.147273 
L 426.931039 200.441338 
L 427.449988 198.306288 
L 427.968937 194.524754 
L 428.487887 194.791765 
L 429.006836 193.551806 
L 429.525785 194.159507 
L 430.044734 192.759132 
L 430.563683 192.797799 
L 431.082632 193.043387 
L 431.601581 192.320731 
L 432.639479 196.05367 
L 433.158428 196.020751 
L 433.677377 195.811217 
L 434.196326 187.703151 
L 434.715276 188.519862 
L 435.234225 187.148749 
L 435.753174 188.162976 
L 436.791072 183.147752 
L 437.310021 183.505684 
L 437.82897 182.207202 
L 438.347919 182.899551 
L 438.866868 184.035527 
L 439.385817 183.298763 
L 439.904766 185.182476 
L 440.423715 185.330874 
L 440.942664 189.841335 
L 441.461614 190.299592 
L 441.980563 189.746235 
L 442.499512 191.064573 
L 443.018461 185.970448 
L 443.53741 185.272351 
L 444.056359 187.574609 
L 444.575308 186.514922 
L 445.094257 189.900904 
L 445.613206 190.329376 
L 446.132155 186.762078 
L 446.651104 187.728232 
L 447.170053 186.017476 
L 447.689003 185.280189 
L 448.207952 186.001277 
L 448.726901 185.625057 
L 449.24585 187.187938 
L 449.764799 184.196466 
L 450.283748 181.866513 
L 451.321646 187.562068 
L 451.840595 188.406996 
L 452.359544 185.732175 
L 452.878493 184.9766 
L 453.397442 185.343415 
L 453.916392 184.259692 
L 454.435341 190.102077 
L 454.95429 191.208791 
L 455.473239 190.91722 
L 455.992188 192.503093 
L 456.511137 192.382911 
L 457.030086 194.376878 
L 458.067984 194.54879 
L 458.586933 194.011631 
L 459.105882 192.763834 
L 459.624831 194.175182 
L 460.143781 194.221687 
L 461.181679 197.980754 
L 461.700628 199.378516 
L 462.219577 200.064595 
L 462.738526 202.963058 
L 463.257475 203.553514 
L 463.776424 200.446041 
L 464.295373 201.246553 
L 464.814322 197.386117 
L 465.333271 197.303557 
L 465.85222 197.647381 
L 466.371169 192.365668 
L 466.890119 191.637264 
L 467.409068 192.177558 
L 467.928017 192.180171 
L 468.446966 194.532069 
L 468.965915 193.689231 
L 469.484864 196.970707 
L 471.041711 192.742933 
L 471.56066 192.767492 
L 472.079609 183.663487 
L 472.598558 181.997668 
L 473.117508 181.382653 
L 473.636457 182.102696 
L 474.155406 176.800082 
L 474.674355 177.857156 
L 475.193304 175.288931 
L 475.712253 175.277958 
L 476.231202 175.740918 
L 476.750151 175.556466 
L 477.2691 176.906155 
L 477.788049 176.945868 
L 478.306998 176.686171 
L 478.825947 179.110701 
L 479.344897 175.765477 
L 479.863846 173.57713 
L 480.382795 172.396217 
L 480.901744 173.265703 
L 481.420693 173.411488 
L 482.458591 173.095359 
L 482.97754 173.246892 
L 483.496489 173.681113 
L 484.015438 177.729137 
L 484.534387 179.489011 
L 485.053336 178.695814 
L 485.572286 178.641471 
L 486.091235 178.422532 
L 486.610184 178.459109 
L 487.129133 178.20098 
L 487.648082 179.468633 
L 488.68598 179.663013 
L 489.204929 180.163072 
L 489.723878 174.829107 
L 490.242827 175.893496 
L 490.761776 174.071441 
L 491.280725 171.126996 
L 491.799674 167.042917 
L 492.318624 167.337101 
L 493.356522 169.3875 
L 493.875471 169.605917 
L 494.39442 174.844783 
L 495.951267 184.65211 
L 496.470216 183.751794 
L 496.989165 183.666622 
L 497.508114 183.728281 
L 498.027063 181.546204 
L 498.546013 181.473572 
L 499.064962 181.19193 
L 499.583911 180.535112 
L 500.10286 181.648097 
L 500.621809 176.031966 
L 501.140758 175.193309 
L 501.659707 174.878224 
L 502.178656 174.097045 
L 502.697605 177.408305 
L 503.216554 177.858724 
L 503.735503 173.832646 
L 504.254452 173.758969 
L 504.773402 173.976864 
L 505.292351 175.560123 
L 505.8113 178.689021 
L 506.330249 182.930903 
L 506.849198 183.644154 
L 507.368147 184.744075 
L 507.887096 184.773337 
L 508.406045 183.19687 
L 508.924994 182.936128 
L 509.443943 181.553519 
L 509.962892 184.360539 
L 510.481841 168.515401 
L 511.51974 167.5644 
L 512.038689 167.942188 
L 512.557638 177.306412 
L 513.076587 177.115689 
L 513.595536 177.84148 
L 514.114485 178.145592 
L 514.633434 179.744527 
L 515.152383 181.84927 
L 515.671332 182.175327 
L 516.190281 183.226131 
L 516.70923 183.602351 
L 517.747129 185.009519 
L 518.266078 182.775712 
L 518.785027 183.248077 
L 519.303976 183.243375 
L 519.822925 183.792552 
L 520.341874 184.922257 
L 520.860823 184.87732 
L 521.379772 184.98078 
L 521.898721 185.67731 
L 522.41767 185.792789 
L 522.936619 189.320897 
L 523.455568 190.179411 
L 523.974518 193.718493 
L 524.493467 193.832927 
L 525.012416 195.769415 
L 525.531365 197.095069 
L 526.050314 197.77122 
L 526.569263 197.921185 
L 527.088212 197.646858 
L 527.607161 197.624389 
L 528.12611 203.249403 
L 529.682957 203.403549 
L 530.201907 204.879168 
L 531.239805 210.517245 
L 531.758754 210.854275 
L 532.277703 211.014169 
L 532.796652 238.719124 
L 533.315601 238.718602 
L 533.83455 239.369672 
L 534.353499 240.685397 
L 535.391397 240.65091 
L 535.910346 241.134249 
L 537.467194 241.144177 
L 537.986143 240.610153 
L 539.024041 240.611198 
L 539.54299 240.466458 
L 540.061939 235.599632 
L 541.099837 201.64681 
L 541.618786 200.866676 
L 542.137735 199.812737 
L 542.656684 199.495562 
L 543.175634 198.038232 
L 543.694583 197.277953 
L 544.213532 195.050417 
L 544.732481 189.094643 
L 545.25143 185.66895 
L 545.770379 176.764028 
L 546.289328 173.931404 
L 546.808277 172.50438 
L 547.327226 172.661138 
L 547.846175 171.699687 
L 548.365124 173.15336 
L 548.884073 172.584327 
L 549.403023 174.274182 
L 549.921972 174.451842 
L 550.440921 183.672893 
L 550.95987 184.165637 
L 551.478819 183.932589 
L 551.997768 181.812693 
L 552.516717 186.579716 
L 553.035666 185.314153 
L 553.554615 186.704077 
L 554.073564 186.147063 
L 554.592513 182.728162 
L 555.111462 182.216607 
L 555.630412 181.091604 
L 556.66831 183.282042 
L 557.187259 182.988381 
L 557.706208 187.82908 
L 558.225157 188.070488 
L 558.744106 186.998783 
L 559.263055 186.56404 
L 560.300953 186.561427 
L 560.819902 186.811718 
L 561.338851 186.535301 
L 561.857801 186.971089 
L 562.37675 186.885395 
L 562.895699 186.630401 
L 563.414648 187.49832 
L 563.933597 183.311303 
L 564.452546 180.519959 
L 564.971495 180.232046 
L 565.490444 179.645247 
L 566.528342 179.453479 
L 567.047291 179.199531 
L 567.56624 181.526348 
L 568.085189 185.281756 
L 568.604139 190.710299 
L 569.123088 190.524802 
L 569.642037 188.663557 
L 570.160986 188.696999 
L 570.679935 186.732816 
L 571.198884 186.42975 
L 571.717833 185.432244 
L 572.236782 185.667904 
L 572.755731 186.792385 
L 573.27468 186.023223 
L 573.793629 189.355384 
L 574.831528 181.904135 
L 575.350477 182.942921 
L 575.869426 180.860647 
L 576.388375 181.720728 
L 576.907324 174.950333 
L 577.426273 173.80652 
L 577.945222 174.653537 
L 578.464171 175.233021 
L 578.98312 181.035694 
L 579.502069 181.876441 
L 580.021018 181.490293 
L 580.539967 180.6276 
L 581.058917 177.671659 
L 581.577866 182.895371 
L 582.096815 182.452267 
L 582.615764 183.502549 
L 583.134713 182.123597 
L 583.653662 183.574135 
L 584.172611 183.717308 
L 584.69156 185.325649 
L 585.210509 185.376334 
L 585.729458 186.268289 
L 586.248407 194.872235 
L 586.767356 193.186037 
L 587.286306 193.094594 
L 587.805255 194.895748 
L 588.324204 194.50542 
L 588.843153 195.809127 
L 589.362102 196.060463 
L 589.881051 196.03904 
L 590.4 196.954509 
L 590.918949 197.223611 
L 591.437898 196.899643 
L 591.956847 195.267788 
L 592.475796 194.811099 
L 592.994745 195.21031 
L 593.513694 197.028185 
L 594.551593 197.024005 
L 595.070542 196.712056 
L 595.589491 188.125353 
L 596.10844 187.499365 
L 596.627389 189.536179 
L 597.146338 189.277005 
L 597.665287 185.979854 
L 598.184236 185.703436 
L 598.703185 185.191881 
L 599.222134 184.354269 
L 599.741083 184.090915 
L 600.260033 181.837774 
L 600.778982 181.604727 
L 601.297931 182.357167 
L 601.81688 182.379636 
L 602.335829 182.962777 
L 602.854778 183.007715 
L 603.373727 184.381441 
L 603.892676 183.381845 
L 604.411625 183.38498 
L 604.930574 184.215799 
L 605.968472 182.531692 
L 606.487422 182.298644 
L 607.006371 182.32268 
L 607.52532 183.884516 
L 608.044269 182.087543 
L 608.563218 181.052937 
L 609.082167 182.062984 
L 609.601116 181.75626 
L 610.120065 182.238031 
L 610.639014 181.849793 
L 611.157963 181.703485 
L 611.676912 179.967647 
L 612.195861 179.949881 
L 612.714811 179.711086 
L 613.752709 161.788376 
L 614.271658 161.118495 
L 615.309556 161.237632 
L 615.828505 159.324657 
L 616.347454 158.090446 
L 616.866403 157.93003 
L 617.385352 162.961974 
L 617.904301 175.063199 
L 618.42325 170.737713 
L 618.942199 169.031136 
L 619.461149 166.516209 
L 619.980098 168.814287 
L 621.017996 172.059708 
L 621.536945 171.119158 
L 622.055894 171.798445 
L 622.574843 170.715767 
L 623.093792 177.767282 
L 623.612741 182.083885 
L 624.13169 189.12913 
L 624.650639 184.31717 
L 625.169588 184.683984 
L 625.688538 187.252732 
L 626.207487 188.317121 
L 626.726436 188.361014 
L 627.245385 189.319852 
L 627.764334 189.04866 
L 628.283283 185.964178 
L 628.802232 188.261733 
L 629.321181 186.558815 
L 630.359079 185.097826 
L 630.878028 185.157395 
L 631.396977 187.150839 
L 631.915927 186.448039 
L 632.434876 184.734147 
L 633.472774 189.46407 
L 633.991723 190.816373 
L 634.510672 191.676454 
L 635.029621 191.691607 
L 635.54857 191.143475 
L 636.067519 193.221046 
L 636.586468 193.14737 
L 637.105417 193.762385 
L 637.624366 186.858223 
L 638.143316 184.979735 
L 638.662265 184.826634 
L 639.181214 183.635793 
L 640.738061 181.838297 
L 641.25701 180.544518 
L 641.775959 180.11291 
L 642.294908 179.956151 
L 642.813857 181.011135 
L 643.332806 179.402794 
L 643.851755 179.709518 
L 644.370704 175.666719 
L 644.889654 173.544733 
L 645.927552 175.708521 
L 646.446501 180.855944 
L 646.96545 184.357404 
L 647.484399 184.254466 
L 648.003348 184.969807 
L 648.522297 174.017098 
L 649.041246 172.716004 
L 649.560195 171.734174 
L 650.079144 171.294728 
L 650.598093 174.491554 
L 651.117043 172.272377 
L 651.635992 173.160152 
L 652.154941 175.095596 
L 652.67389 175.676647 
L 653.192839 180.738898 
L 654.230737 177.219672 
L 654.749686 173.045196 
L 655.268635 177.472053 
L 655.787584 178.77158 
L 656.306533 179.440939 
L 656.825482 179.779537 
L 657.344432 178.983204 
L 657.863381 178.797184 
L 658.38233 180.68351 
L 658.901279 177.440179 
L 659.420228 181.571285 
L 659.939177 181.283895 
L 660.458126 181.774026 
L 661.496024 181.867036 
L 662.014973 181.031514 
L 662.533922 180.900359 
L 663.052871 179.807231 
L 663.571821 181.980425 
L 664.09077 180.621329 
L 664.609719 177.902094 
L 665.128668 177.734362 
L 665.647617 175.826613 
L 666.166566 175.736215 
L 667.204464 173.80861 
L 667.723413 174.266867 
L 668.242362 174.412652 
L 668.761311 175.193309 
L 669.28026 169.118921 
L 669.799209 168.513834 
L 670.318159 169.994678 
L 670.837108 170.104931 
L 671.356057 167.860674 
L 672.912904 166.066313 
L 673.950802 167.164666 
L 674.469751 166.265396 
L 674.9887 166.698572 
L 675.507649 166.736194 
L 676.026598 171.361611 
L 676.545548 169.521268 
L 677.064497 161.037503 
L 677.583446 160.068737 
L 678.102395 159.922429 
L 678.621344 161.655132 
L 679.140293 160.904781 
L 679.659242 155.321047 
L 680.178191 154.831439 
L 680.69714 154.927584 
L 681.216089 156.554736 
L 681.735038 155.825809 
L 682.253987 149.619745 
L 682.772937 148.222505 
L 683.810835 148.793628 
L 684.329784 145.651667 
L 684.848733 145.898823 
L 685.367682 145.838732 
L 685.886631 146.023185 
L 686.40558 146.555118 
L 686.924529 146.68575 
L 687.443478 146.318413 
L 687.962427 146.221745 
L 688.481376 147.251125 
L 689.000326 149.369454 
L 689.519275 148.825502 
L 690.038224 142.940792 
L 690.557173 143.991073 
L 691.076122 144.216806 
L 691.595071 151.818542 
L 692.11402 155.177875 
L 692.632969 146.489802 
L 693.151918 147.597039 
L 693.670867 147.682734 
L 694.189816 147.981097 
L 694.708765 148.69069 
L 695.746664 147.961241 
L 696.265613 158.334466 
L 696.784562 160.37337 
L 697.303511 158.891481 
L 697.82246 152.692209 
L 698.341409 152.179609 
L 698.860358 152.209916 
L 699.379307 152.403251 
L 699.898256 154.542481 
L 700.417205 154.615635 
L 700.936154 155.564546 
L 701.974053 160.307009 
L 702.493002 164.192527 
L 703.011951 160.240648 
L 703.5309 160.120989 
L 704.049849 159.818968 
L 704.568798 159.98461 
L 705.087747 161.278389 
L 705.606696 164.18678 
L 706.125645 164.679001 
L 706.644594 166.447758 
L 707.163543 169.021208 
L 707.682492 167.101963 
L 708.201442 166.846447 
L 708.720391 167.689807 
L 709.23934 165.504595 
L 709.758289 162.70489 
L 710.277238 161.749709 
L 710.796187 162.085695 
L 711.315136 163.660071 
L 712.871983 161.246515 
L 713.390932 161.653041 
L 713.909881 164.488278 
L 714.428831 164.572405 
L 714.94778 164.334132 
L 715.466729 166.179701 
L 715.985678 165.717264 
L 716.504627 166.596156 
L 717.542525 165.703156 
L 718.061474 160.65449 
L 718.580423 158.441585 
L 719.099372 160.203549 
L 719.618321 161.134171 
L 720.13727 162.583664 
L 720.656219 165.36508 
L 721.175169 165.163907 
L 721.694118 161.904377 
L 722.213067 160.236991 
L 722.732016 167.096738 
L 723.250965 167.899341 
L 723.769914 171.281142 
L 724.288863 169.744387 
L 724.807812 169.881289 
L 725.326761 171.125428 
L 725.84571 173.237487 
L 726.364659 173.689996 
L 726.883608 170.907534 
L 727.402558 170.915895 
L 727.921507 171.813598 
L 728.440456 172.254089 
L 728.959405 172.452127 
L 729.478354 172.343964 
L 729.997303 172.490794 
L 730.516252 174.486851 
L 731.55415 170.802506 
L 732.073099 170.156662 
L 732.592048 168.374319 
L 733.110997 172.857086 
L 733.629947 173.223901 
L 734.667845 173.461651 
L 735.186794 173.027953 
L 735.705743 171.218438 
L 736.224692 168.871243 
L 736.743641 167.886278 
L 737.26259 169.006055 
L 737.781539 169.502979 
L 738.300488 169.27777 
L 739.338386 169.447069 
L 739.857336 170.266915 
L 740.376285 170.283113 
L 740.895234 167.529914 
L 741.414183 171.101915 
L 741.933132 169.453862 
L 742.452081 168.626177 
L 743.489979 168.307435 
L 744.008928 169.477898 
L 744.527877 167.878962 
L 745.046826 170.452412 
L 745.565775 168.196137 
L 746.084724 167.850746 
L 746.603674 167.745718 
L 747.122623 168.340877 
L 747.641572 173.498751 
L 748.160521 174.493644 
L 748.67947 174.341066 
L 749.198419 175.140011 
L 749.717368 177.858724 
L 750.236317 177.294916 
L 750.755266 172.13861 
L 751.274215 168.606844 
L 751.793164 169.494096 
L 752.312113 169.678549 
L 752.831063 170.291474 
L 753.350012 164.190437 
L 753.868961 163.68045 
L 754.38791 163.495475 
L 754.906859 164.182599 
L 755.425808 171.729471 
L 755.944757 168.950145 
L 756.463706 167.001115 
L 756.982655 167.710708 
L 757.501604 167.931215 
L 758.020553 173.415146 
L 758.539502 173.520174 
L 759.058452 174.070396 
L 759.577401 173.63722 
L 760.09635 180.236226 
L 760.615299 181.966316 
L 761.134248 180.482337 
L 761.653197 180.698141 
L 762.691095 180.513166 
L 763.210044 179.572093 
L 763.728993 175.426356 
L 764.247942 174.845305 
L 764.766891 170.186968 
L 765.285841 169.458042 
L 766.323739 163.549818 
L 766.842688 160.030592 
L 767.361637 159.813743 
L 767.880586 161.11118 
L 768.399535 167.501174 
L 768.918484 167.289551 
L 769.437433 170.952472 
L 769.956382 171.384602 
L 770.475331 172.615156 
L 770.99428 178.287197 
L 771.513229 177.378521 
L 772.032179 173.842051 
L 772.551128 173.360803 
L 773.070077 173.699401 
L 773.589026 173.555706 
L 774.107975 174.386526 
L 774.626924 172.350234 
L 775.145873 172.555588 
L 775.664822 174.94563 
L 776.183771 179.985413 
L 776.70272 179.309262 
L 777.221669 174.876134 
L 777.740618 173.861385 
L 778.259568 174.24492 
L 778.778517 173.984702 
L 779.297466 172.410847 
L 779.816415 171.817778 
L 780.335364 171.682443 
L 780.854313 172.052393 
L 781.373262 175.695981 
L 781.892211 175.563781 
L 782.41116 174.694295 
L 782.930109 174.61905 
L 783.449058 172.745788 
L 783.968007 174.233947 
L 784.486957 174.218794 
L 785.005906 175.575799 
L 785.524855 175.385077 
L 786.043804 172.964727 
L 786.562753 174.328525 
L 787.081702 174.46595 
L 787.600651 174.064126 
L 788.1196 177.1345 
L 788.638549 177.614181 
L 789.157498 178.839509 
L 789.676447 178.750157 
L 790.195396 179.646292 
L 790.714346 181.085334 
L 791.233295 181.904658 
L 791.752244 182.004461 
L 792.271193 182.580287 
L 792.790142 182.647693 
L 793.309091 182.960164 
L 793.82804 183.460224 
L 794.346989 177.106284 
L 794.865938 176.977742 
L 795.384887 179.308217 
L 795.903836 182.304914 
L 796.422785 180.585797 
L 796.941734 180.987621 
L 797.979633 180.07581 
L 798.498582 180.098279 
L 799.53648 182.136138 
L 800.055429 188.769108 
L 800.574378 187.690088 
L 801.093327 188.966101 
L 801.612276 189.117634 
L 802.131225 188.259643 
L 802.650174 189.570143 
L 803.169123 189.045525 
L 803.688073 190.131861 
L 804.207022 190.730678 
L 804.725971 189.292681 
L 805.24492 184.41854 
L 805.763869 183.807182 
L 806.282818 184.508937 
L 806.801767 185.008997 
L 807.320716 185.836158 
L 807.839665 184.344341 
L 808.358614 183.732461 
L 808.877563 182.814902 
L 809.396512 185.30736 
L 809.915462 189.380466 
L 810.434411 186.387425 
L 810.95336 187.330588 
L 811.472309 187.451815 
L 811.991258 187.430391 
L 812.510207 191.087565 
L 813.029156 189.425926 
L 813.548105 186.772006 
L 814.067054 189.12913 
L 814.586003 189.45362 
L 815.104952 191.648237 
L 815.623901 189.712793 
L 817.180749 187.373958 
L 817.699698 189.660541 
L 818.218647 189.60463 
L 818.737596 189.152643 
L 819.775494 189.123382 
L 820.294443 191.580308 
L 820.813392 190.657524 
L 821.332341 190.283917 
L 821.85129 192.594013 
L 822.370239 192.011394 
L 822.889189 192.303487 
L 823.408138 193.01517 
L 823.927087 194.796468 
L 824.446036 191.403694 
L 824.964985 189.904039 
L 825.483934 188.771198 
L 826.002883 188.540241 
L 826.521832 188.871523 
L 827.040781 188.539196 
L 827.55973 188.919596 
L 828.078679 189.97249 
L 828.597628 190.709777 
L 829.116578 198.544039 
L 829.635527 197.922753 
L 830.154476 192.180693 
L 830.673425 192.525562 
L 831.192374 195.123571 
L 832.230272 195.987309 
L 832.749221 198.816276 
L 833.26817 199.249451 
L 833.787119 199.213397 
L 834.306068 199.769367 
L 834.825017 200.960731 
L 835.343967 199.966882 
L 836.381865 194.149056 
L 836.900814 192.443002 
L 837.419763 196.507747 
L 837.938712 194.251994 
L 838.457661 193.623915 
L 838.97661 190.307953 
L 839.495559 191.074501 
L 840.014508 193.744619 
L 840.533457 190.95641 
L 841.052406 189.164139 
L 841.571355 189.09203 
L 843.128203 197.724192 
L 843.647152 202.330799 
L 844.166101 201.559025 
L 844.68505 201.654648 
L 845.203999 204.392694 
L 845.722948 202.153139 
L 846.241897 202.292654 
L 846.760846 202.239357 
L 847.798744 202.538243 
L 848.317694 200.81599 
L 848.836643 205.599211 
L 849.355592 204.952322 
L 849.874541 204.8776 
L 850.39349 205.065188 
L 850.912439 201.403312 
L 851.431388 200.701034 
L 852.469286 201.286788 
L 852.988235 203.765661 
L 853.507184 203.070699 
L 854.026133 203.021581 
L 854.545083 202.859075 
L 855.064032 199.630897 
L 855.582981 205.875106 
L 856.10193 205.841142 
L 856.620879 206.277453 
L 857.139828 207.35386 
L 857.658777 207.695071 
L 858.177726 208.169526 
L 858.696675 207.843992 
L 859.215624 208.287618 
L 859.734573 207.727468 
L 860.253522 208.223869 
L 860.772472 207.807937 
L 861.291421 209.033788 
L 861.81037 209.082383 
L 862.329319 208.552539 
L 862.848268 208.666973 
L 863.367217 209.982176 
L 863.886166 210.114898 
L 864.405115 211.68823 
L 864.924064 211.669419 
L 865.443013 213.205129 
L 865.961962 213.145038 
L 866.99986 209.627379 
L 867.51881 209.000868 
L 868.037759 206.27484 
L 868.556708 205.48948 
L 869.075657 205.664527 
L 869.594606 206.954126 
L 870.113555 207.513231 
L 870.632504 208.2385 
L 871.151453 209.428296 
L 872.189351 223.309774 
L 872.7083 224.383047 
L 873.227249 224.658942 
L 874.265148 221.44435 
L 874.784097 221.133445 
L 875.303046 221.310582 
L 875.821995 222.19052 
L 876.340944 221.724425 
L 876.859893 221.96322 
L 877.378842 221.343502 
L 877.897791 221.277663 
L 878.41674 216.97569 
L 878.935689 217.963791 
L 879.454638 216.894699 
L 879.973588 216.550353 
L 880.492537 216.016329 
L 881.011486 217.020628 
L 881.530435 219.678728 
L 882.049384 219.740908 
L 882.568333 217.112593 
L 883.606231 220.625026 
L 884.12518 221.421881 
L 884.644129 217.265693 
L 885.163078 219.033406 
L 885.682027 218.758033 
L 886.200977 218.795655 
L 886.719926 219.235624 
L 887.238875 218.943008 
L 887.757824 220.015236 
L 888.276773 219.403878 
L 888.795722 221.484062 
L 889.83362 219.643196 
L 890.352569 220.147958 
L 890.871518 221.64709 
L 891.390467 222.557857 
L 891.909416 226.315355 
L 892.428365 226.531682 
L 892.947315 227.864651 
L 893.466264 227.497314 
L 893.985213 228.963527 
L 894.504162 228.276403 
L 895.023111 229.122898 
L 895.54206 230.333073 
L 896.061009 230.050385 
L 896.579958 228.050148 
L 897.098907 228.743543 
L 897.617856 228.107626 
L 898.136805 228.247141 
L 898.655754 227.481638 
L 899.174704 218.858359 
L 899.693653 218.818647 
L 900.212602 216.912987 
L 900.731551 218.160784 
L 901.2505 217.15126 
L 901.769449 216.78131 
L 902.288398 215.216339 
L 902.807347 217.730743 
L 903.326296 219.413283 
L 903.845245 212.637663 
L 904.364194 208.32524 
L 904.883143 208.278735 
L 905.402093 208.776181 
L 905.921042 212.328849 
L 906.439991 212.4344 
L 906.95894 219.144181 
L 907.477889 218.100693 
L 907.996838 218.347849 
L 909.553685 219.719485 
L 910.072634 220.587404 
L 910.591583 220.134894 
L 911.110532 221.582819 
L 911.629482 220.947425 
L 912.148431 225.080622 
L 912.66738 227.838002 
L 914.224227 227.166031 
L 914.743176 227.618018 
L 915.262125 230.135557 
L 915.781074 229.743139 
L 916.300023 231.552131 
L 916.818972 231.859377 
L 917.337921 233.995471 
L 917.85687 225.507527 
L 918.37582 226.562511 
L 918.894769 226.034758 
L 919.413718 224.460381 
L 919.932667 225.044045 
L 920.451616 224.036611 
L 920.970565 224.576382 
L 921.489514 225.761476 
L 922.008463 226.253697 
L 922.527412 228.058509 
L 923.046361 228.389269 
L 923.56531 228.536099 
L 924.084259 232.818216 
L 926.160056 233.116579 
L 926.679005 234.806435 
L 927.197954 234.513297 
L 927.716903 236.692761 
L 928.235852 239.634593 
L 929.27375 239.773586 
L 929.792699 240.140923 
L 930.311648 240.214077 
L 930.830598 240.622171 
L 931.349547 240.760641 
L 931.868496 244.726106 
L 932.906394 246.154175 
L 933.425343 246.470827 
L 935.501139 246.495908 
L 936.539037 247.104653 
L 937.057987 247.560298 
L 938.095885 248.961195 
L 939.133783 249.409002 
L 939.652732 250.090901 
L 940.171681 250.30984 
L 940.69063 250.758691 
L 941.209579 250.787953 
L 941.728528 251.281742 
L 942.766426 251.39722 
L 943.285375 251.593168 
L 943.804325 252.97839 
L 944.323274 254.955636 
L 944.842223 255.64067 
L 945.361172 255.658959 
L 945.880121 256.278677 
L 946.918019 260.261385 
L 948.474866 261.070258 
L 950.031714 262.536994 
L 950.550663 262.795646 
L 951.069612 263.405436 
L 951.588561 263.660429 
L 952.10751 264.773936 
L 953.664357 265.625657 
L 954.183306 265.841984 
L 954.702255 266.973257 
L 955.221204 267.385531 
L 955.740153 274.196683 
L 956.778052 274.96898 
L 957.297001 274.915159 
L 957.81595 275.750159 
L 958.334899 277.545565 
L 959.372797 278.973634 
L 959.891746 278.990878 
L 960.410695 279.344106 
L 960.929644 285.846445 
L 961.448593 286.495424 
L 961.967542 292.043626 
L 962.486492 292.510244 
L 963.005441 292.675363 
L 963.52439 293.654057 
L 964.043339 294.101341 
L 964.562288 294.269073 
L 965.081237 294.589383 
L 966.638084 297.25114 
L 967.675982 300.816348 
L 968.194931 300.846655 
L 969.23283 301.54841 
L 969.751779 301.553113 
L 970.789677 301.762647 
L 971.308626 302.166561 
L 971.827575 303.28268 
L 972.346524 306.018114 
L 973.384422 306.167557 
L 973.903371 306.227125 
L 974.42232 306.845799 
L 974.941269 309.230616 
L 975.460219 309.358636 
L 975.979168 310.256861 
L 976.498117 312.47447 
L 977.017066 313.312605 
L 977.536015 324.875104 
L 978.054964 324.90123 
L 978.573913 327.967424 
L 979.092862 328.21458 
L 979.611811 328.808694 
L 980.13076 330.609848 
L 980.649709 331.078556 
L 981.168658 333.410076 
L 981.687608 341.806578 
L 982.206557 341.979534 
L 982.725506 347.40442 
L 983.244455 347.845956 
L 983.763404 348.06594 
L 985.320251 348.213293 
L 985.8392 350.02542 
L 987.396047 350.44083 
L 987.914997 350.45128 
L 988.433946 350.578255 
L 989.471844 351.203721 
L 989.990793 352.111352 
L 990.509742 352.417553 
L 991.028691 353.046154 
L 991.54764 353.263526 
L 992.066589 353.267184 
L 992.585538 353.71081 
L 993.104487 353.731711 
L 993.623436 353.916686 
L 994.142385 356.024041 
L 995.180284 356.343828 
L 995.699233 357.454723 
L 996.218182 369.36 
L 996.218182 369.36 
" clip-path="url(#pd720f8ab9b)" style="fill: none; stroke: #1f77b4; stroke-width: 1.5; stroke-linecap: square"/>
   </g>
   <g id="line2d_18">
    <path d="M 184.581818 339.263956 
L 996.218182 339.263956 
L 996.218182 339.263956 
" clip-path="url(#pd720f8ab9b)" style="fill: none; stroke-dasharray: 5.55,2.4; stroke-dashoffset: 0; stroke: #ff7f0e; stroke-width: 1.5"/>
   </g>
   <g id="line2d_19">
    <path d="M 184.581818 203.111978 
L 996.218182 203.111978 
L 996.218182 203.111978 
" clip-path="url(#pd720f8ab9b)" style="fill: none; stroke-dasharray: 5.55,2.4; stroke-dashoffset: 0; stroke: #2ca02c; stroke-width: 1.5"/>
   </g>
   <g id="line2d_20">
    <path d="M 184.581818 66.96 
L 996.218182 66.96 
L 996.218182 66.96 
" clip-path="url(#pd720f8ab9b)" style="fill: none; stroke-dasharray: 5.55,2.4; stroke-dashoffset: 0; stroke: #d62728; stroke-width: 1.5"/>
   </g>
   <g id="patch_3">
    <path d="M 144 384.48 
L 144 51.84 
" style="fill: none; stroke: #000000; stroke-width: 0.8; stroke-linejoin: miter; stroke-linecap: square"/>
   </g>
   <g id="patch_4">
    <path d="M 1036.8 384.48 
L 1036.8 51.84 
" style="fill: none; stroke: #000000; stroke-width: 0.8; stroke-linejoin: miter; stroke-linecap: square"/>
   </g>
   <g id="patch_5">
    <path d="M 144 384.48 
L 1036.8 384.48 
" style="fill: none; stroke: #000000; stroke-width: 0.8; stroke-linejoin: miter; stroke-linecap: square"/>
   </g>
   <g id="patch_6">
    <path d="M 144 51.84 
L 1036.8 51.84 
" style="fill: none; stroke: #000000; stroke-width: 0.8; stroke-linejoin: miter; stroke-linecap: square"/>
   </g>
   <g id="text_19">
    <!-- NP -->
    <g transform="translate(582.293437 45.84)scale(0.12 -0.12)">
     <defs>
      <path id="DejaVuSans-4e" d="M 628 4666 
L 1478 4666 
L 3547 763 
L 3547 4666 
L 4159 4666 
L 4159 0 
L 3309 0 
L 1241 3903 
L 1241 0 
L 628 0 
L 628 4666 
z
" transform="scale(0.015625)"/>
     </defs>
     <use xlink:href="#DejaVuSans-4e"/>
     <use xlink:href="#DejaVuSans-50" x="74.804688"/>
    </g>
   </g>
   <g id="legend_1">
    <g id="patch_7">
     <path d="M 146 28.936045 
L 1034.8 28.936045 
Q 1036.8 28.936045 1036.8 26.936045 
L 1036.8 13.25792 
Q 1036.8 11.25792 1034.8 11.25792 
L 146 11.25792 
Q 144 11.25792 144 13.25792 
L 144 26.936045 
Q 144 28.936045 146 28.936045 
z
" style="fill: #ffffff; opacity: 0.8; stroke: #cccccc; stroke-linejoin: miter"/>
    </g>
    <g id="line2d_21">
     <path d="M 148 19.356358 
L 158 19.356358 
L 168 19.356358 
" style="fill: none; stroke-dasharray: 5.55,2.4; stroke-dashoffset: 0; stroke: #ff7f0e; stroke-width: 1.5"/>
    </g>
    <g id="text_20">
     <!-- Average depth * 0.2 -->
     <g transform="translate(176 22.856358)scale(0.1 -0.1)">
      <defs>
       <path id="DejaVuSans-41" d="M 2188 4044 
L 1331 1722 
L 3047 1722 
L 2188 4044 
z
M 1831 4666 
L 2547 4666 
L 4325 0 
L 3669 0 
L 3244 1197 
L 1141 1197 
L 716 0 
L 50 0 
L 1831 4666 
z
" transform="scale(0.015625)"/>
       <path id="DejaVuSans-64" d="M 2906 2969 
L 2906 4863 
L 3481 4863 
L 3481 0 
L 2906 0 
L 2906 525 
Q 2725 213 2448 61 
Q 2172 -91 1784 -91 
Q 1150 -91 751 415 
Q 353 922 353 1747 
Q 353 2572 751 3078 
Q 1150 3584 1784 3584 
Q 2172 3584 2448 3432 
Q 2725 3281 2906 2969 
z
M 947 1747 
Q 947 1113 1208 752 
Q 1469 391 1925 391 
Q 2381 391 2643 752 
Q 2906 1113 2906 1747 
Q 2906 2381 2643 2742 
Q 2381 3103 1925 3103 
Q 1469 3103 1208 2742 
Q 947 2381 947 1747 
z
" transform="scale(0.015625)"/>
       <path id="DejaVuSans-2a" d="M 3009 3897 
L 1888 3291 
L 3009 2681 
L 2828 2375 
L 1778 3009 
L 1778 1831 
L 1422 1831 
L 1422 3009 
L 372 2375 
L 191 2681 
L 1313 3291 
L 191 3897 
L 372 4206 
L 1422 3572 
L 1422 4750 
L 1778 4750 
L 1778 3572 
L 2828 4206 
L 3009 3897 
z
" transform="scale(0.015625)"/>
       <path id="DejaVuSans-2e" d="M 684 794 
L 1344 794 
L 1344 0 
L 684 0 
L 684 794 
z
" transform="scale(0.015625)"/>
      </defs>
      <use xlink:href="#DejaVuSans-41"/>
      <use xlink:href="#DejaVuSans-76" x="62.533203"/>
      <use xlink:href="#DejaVuSans-65" x="121.712891"/>
      <use xlink:href="#DejaVuSans-72" x="183.236328"/>
      <use xlink:href="#DejaVuSans-61" x="224.349609"/>
      <use xlink:href="#DejaVuSans-67" x="285.628906"/>
      <use xlink:href="#DejaVuSans-65" x="349.105469"/>
      <use xlink:href="#DejaVuSans-20" x="410.628906"/>
      <use xlink:href="#DejaVuSans-64" x="442.416016"/>
      <use xlink:href="#DejaVuSans-65" x="505.892578"/>
      <use xlink:href="#DejaVuSans-70" x="567.416016"/>
      <use xlink:href="#DejaVuSans-74" x="630.892578"/>
      <use xlink:href="#DejaVuSans-68" x="670.101562"/>
      <use xlink:href="#DejaVuSans-20" x="733.480469"/>
      <use xlink:href="#DejaVuSans-2a" x="765.267578"/>
      <use xlink:href="#DejaVuSans-20" x="815.267578"/>
      <use xlink:href="#DejaVuSans-30" x="847.054688"/>
      <use xlink:href="#DejaVuSans-2e" x="910.677734"/>
      <use xlink:href="#DejaVuSans-32" x="942.464844"/>
     </g>
    </g>
    <g id="line2d_22">
     <path d="M 539.724219 19.356358 
L 549.724219 19.356358 
L 559.724219 19.356358 
" style="fill: none; stroke-dasharray: 5.55,2.4; stroke-dashoffset: 0; stroke: #2ca02c; stroke-width: 1.5"/>
    </g>
    <g id="text_21">
     <!-- Average depth -->
     <g transform="translate(567.724219 22.856358)scale(0.1 -0.1)">
      <use xlink:href="#DejaVuSans-41"/>
      <use xlink:href="#DejaVuSans-76" x="62.533203"/>
      <use xlink:href="#DejaVuSans-65" x="121.712891"/>
      <use xlink:href="#DejaVuSans-72" x="183.236328"/>
      <use xlink:href="#DejaVuSans-61" x="224.349609"/>
      <use xlink:href="#DejaVuSans-67" x="285.628906"/>
      <use xlink:href="#DejaVuSans-65" x="349.105469"/>
      <use xlink:href="#DejaVuSans-20" x="410.628906"/>
      <use xlink:href="#DejaVuSans-64" x="442.416016"/>
      <use xlink:href="#DejaVuSans-65" x="505.892578"/>
      <use xlink:href="#DejaVuSans-70" x="567.416016"/>
      <use xlink:href="#DejaVuSans-74" x="630.892578"/>
      <use xlink:href="#DejaVuSans-68" x="670.101562"/>
     </g>
    </g>
    <g id="line2d_23">
     <path d="M 904.189062 19.356358 
L 914.189062 19.356358 
L 924.189062 19.356358 
" style="fill: none; stroke-dasharray: 5.55,2.4; stroke-dashoffset: 0; stroke: #d62728; stroke-width: 1.5"/>
    </g>
    <g id="text_22">
     <!-- Average depth * 1.8 -->
     <g transform="translate(932.189062 22.856358)scale(0.1 -0.1)">
      <use xlink:href="#DejaVuSans-41"/>
      <use xlink:href="#DejaVuSans-76" x="62.533203"/>
      <use xlink:href="#DejaVuSans-65" x="121.712891"/>
      <use xlink:href="#DejaVuSans-72" x="183.236328"/>
      <use xlink:href="#DejaVuSans-61" x="224.349609"/>
      <use xlink:href="#DejaVuSans-67" x="285.628906"/>
      <use xlink:href="#DejaVuSans-65" x="349.105469"/>
      <use xlink:href="#DejaVuSans-20" x="410.628906"/>
      <use xlink:href="#DejaVuSans-64" x="442.416016"/>
      <use xlink:href="#DejaVuSans-65" x="505.892578"/>
      <use xlink:href="#DejaVuSans-70" x="567.416016"/>
      <use xlink:href="#DejaVuSans-74" x="630.892578"/>
      <use xlink:href="#DejaVuSans-68" x="670.101562"/>
      <use xlink:href="#DejaVuSans-20" x="733.480469"/>
      <use xlink:href="#DejaVuSans-2a" x="765.267578"/>
      <use xlink:href="#DejaVuSans-20" x="815.267578"/>
      <use xlink:href="#DejaVuSans-31" x="847.054688"/>
      <use xlink:href="#DejaVuSans-2e" x="910.677734"/>
      <use xlink:href="#DejaVuSans-38" x="942.464844"/>
     </g>
    </g>
   </g>
  </g>
 </g>
 <defs>
  <clipPath id="pd720f8ab9b">
   <rect x="144" y="51.84" width="892.8" height="332.64"/>
  </clipPath>
 </defs>
</svg>
