<?xml version="1.0" encoding="utf-8" standalone="no"?>
<!DOCTYPE svg PUBLIC "-//W3C//DTD SVG 1.1//EN"
  "http://www.w3.org/Graphics/SVG/1.1/DTD/svg11.dtd">
<svg xmlns:xlink="http://www.w3.org/1999/xlink" width="1152pt" height="432pt" viewBox="0 0 1152 432" xmlns="http://www.w3.org/2000/svg" version="1.1">
 <metadata>
  <rdf:RDF xmlns:dc="http://purl.org/dc/elements/1.1/" xmlns:cc="http://creativecommons.org/ns#" xmlns:rdf="http://www.w3.org/1999/02/22-rdf-syntax-ns#">
   <cc:Work>
    <dc:type rdf:resource="http://purl.org/dc/dcmitype/StillImage"/>
    <dc:date>2022-11-25T09:00:18.309652</dc:date>
    <dc:format>image/svg+xml</dc:format>
    <dc:creator>
     <cc:Agent>
      <dc:title>Matplotlib v3.5.2, https://matplotlib.org/</dc:title>
     </cc:Agent>
    </dc:creator>
   </cc:Work>
  </rdf:RDF>
 </metadata>
 <defs>
  <style type="text/css">*{stroke-linejoin: round; stroke-linecap: butt}</style>
 </defs>
 <g id="figure_1">
  <g id="patch_1">
   <path d="M 0 432 
L 1152 432 
L 1152 0 
L 0 0 
z
" style="fill: #ffffff"/>
  </g>
  <g id="axes_1">
   <g id="patch_2">
    <path d="M 144 384.48 
L 1036.8 384.48 
L 1036.8 51.84 
L 144 51.84 
z
" style="fill: #ffffff"/>
   </g>
   <g id="matplotlib.axis_1">
    <g id="xtick_1">
     <g id="line2d_1">
      <defs>
       <path id="mb77f6db422" d="M 0 0 
L 0 3.5 
" style="stroke: #000000; stroke-width: 0.8"/>
      </defs>
      <g>
       <use xlink:href="#mb77f6db422" x="184.581818" y="384.48" style="stroke: #000000; stroke-width: 0.8"/>
      </g>
     </g>
     <g id="text_1">
      <!-- 0 -->
      <g transform="translate(181.400568 399.078438)scale(0.1 -0.1)">
       <defs>
        <path id="DejaVuSans-30" d="M 2034 4250 
Q 1547 4250 1301 3770 
Q 1056 3291 1056 2328 
Q 1056 1369 1301 889 
Q 1547 409 2034 409 
Q 2525 409 2770 889 
Q 3016 1369 3016 2328 
Q 3016 3291 2770 3770 
Q 2525 4250 2034 4250 
z
M 2034 4750 
Q 2819 4750 3233 4129 
Q 3647 3509 3647 2328 
Q 3647 1150 3233 529 
Q 2819 -91 2034 -91 
Q 1250 -91 836 529 
Q 422 1150 422 2328 
Q 422 3509 836 4129 
Q 1250 4750 2034 4750 
z
" transform="scale(0.015625)"/>
       </defs>
       <use xlink:href="#DejaVuSans-30"/>
      </g>
     </g>
    </g>
    <g id="xtick_2">
     <g id="line2d_2">
      <g>
       <use xlink:href="#mb77f6db422" x="367.177176" y="384.48" style="stroke: #000000; stroke-width: 0.8"/>
      </g>
     </g>
     <g id="text_2">
      <!-- 200 -->
      <g transform="translate(357.633426 399.078438)scale(0.1 -0.1)">
       <defs>
        <path id="DejaVuSans-32" d="M 1228 531 
L 3431 531 
L 3431 0 
L 469 0 
L 469 531 
Q 828 903 1448 1529 
Q 2069 2156 2228 2338 
Q 2531 2678 2651 2914 
Q 2772 3150 2772 3378 
Q 2772 3750 2511 3984 
Q 2250 4219 1831 4219 
Q 1534 4219 1204 4116 
Q 875 4013 500 3803 
L 500 4441 
Q 881 4594 1212 4672 
Q 1544 4750 1819 4750 
Q 2544 4750 2975 4387 
Q 3406 4025 3406 3419 
Q 3406 3131 3298 2873 
Q 3191 2616 2906 2266 
Q 2828 2175 2409 1742 
Q 1991 1309 1228 531 
z
" transform="scale(0.015625)"/>
       </defs>
       <use xlink:href="#DejaVuSans-32"/>
       <use xlink:href="#DejaVuSans-30" x="63.623047"/>
       <use xlink:href="#DejaVuSans-30" x="127.246094"/>
      </g>
     </g>
    </g>
    <g id="xtick_3">
     <g id="line2d_3">
      <g>
       <use xlink:href="#mb77f6db422" x="549.772533" y="384.48" style="stroke: #000000; stroke-width: 0.8"/>
      </g>
     </g>
     <g id="text_3">
      <!-- 400 -->
      <g transform="translate(540.228783 399.078438)scale(0.1 -0.1)">
       <defs>
        <path id="DejaVuSans-34" d="M 2419 4116 
L 825 1625 
L 2419 1625 
L 2419 4116 
z
M 2253 4666 
L 3047 4666 
L 3047 1625 
L 3713 1625 
L 3713 1100 
L 3047 1100 
L 3047 0 
L 2419 0 
L 2419 1100 
L 313 1100 
L 313 1709 
L 2253 4666 
z
" transform="scale(0.015625)"/>
       </defs>
       <use xlink:href="#DejaVuSans-34"/>
       <use xlink:href="#DejaVuSans-30" x="63.623047"/>
       <use xlink:href="#DejaVuSans-30" x="127.246094"/>
      </g>
     </g>
    </g>
    <g id="xtick_4">
     <g id="line2d_4">
      <g>
       <use xlink:href="#mb77f6db422" x="732.36789" y="384.48" style="stroke: #000000; stroke-width: 0.8"/>
      </g>
     </g>
     <g id="text_4">
      <!-- 600 -->
      <g transform="translate(722.82414 399.078438)scale(0.1 -0.1)">
       <defs>
        <path id="DejaVuSans-36" d="M 2113 2584 
Q 1688 2584 1439 2293 
Q 1191 2003 1191 1497 
Q 1191 994 1439 701 
Q 1688 409 2113 409 
Q 2538 409 2786 701 
Q 3034 994 3034 1497 
Q 3034 2003 2786 2293 
Q 2538 2584 2113 2584 
z
M 3366 4563 
L 3366 3988 
Q 3128 4100 2886 4159 
Q 2644 4219 2406 4219 
Q 1781 4219 1451 3797 
Q 1122 3375 1075 2522 
Q 1259 2794 1537 2939 
Q 1816 3084 2150 3084 
Q 2853 3084 3261 2657 
Q 3669 2231 3669 1497 
Q 3669 778 3244 343 
Q 2819 -91 2113 -91 
Q 1303 -91 875 529 
Q 447 1150 447 2328 
Q 447 3434 972 4092 
Q 1497 4750 2381 4750 
Q 2619 4750 2861 4703 
Q 3103 4656 3366 4563 
z
" transform="scale(0.015625)"/>
       </defs>
       <use xlink:href="#DejaVuSans-36"/>
       <use xlink:href="#DejaVuSans-30" x="63.623047"/>
       <use xlink:href="#DejaVuSans-30" x="127.246094"/>
      </g>
     </g>
    </g>
    <g id="xtick_5">
     <g id="line2d_5">
      <g>
       <use xlink:href="#mb77f6db422" x="914.963248" y="384.48" style="stroke: #000000; stroke-width: 0.8"/>
      </g>
     </g>
     <g id="text_5">
      <!-- 800 -->
      <g transform="translate(905.419498 399.078438)scale(0.1 -0.1)">
       <defs>
        <path id="DejaVuSans-38" d="M 2034 2216 
Q 1584 2216 1326 1975 
Q 1069 1734 1069 1313 
Q 1069 891 1326 650 
Q 1584 409 2034 409 
Q 2484 409 2743 651 
Q 3003 894 3003 1313 
Q 3003 1734 2745 1975 
Q 2488 2216 2034 2216 
z
M 1403 2484 
Q 997 2584 770 2862 
Q 544 3141 544 3541 
Q 544 4100 942 4425 
Q 1341 4750 2034 4750 
Q 2731 4750 3128 4425 
Q 3525 4100 3525 3541 
Q 3525 3141 3298 2862 
Q 3072 2584 2669 2484 
Q 3125 2378 3379 2068 
Q 3634 1759 3634 1313 
Q 3634 634 3220 271 
Q 2806 -91 2034 -91 
Q 1263 -91 848 271 
Q 434 634 434 1313 
Q 434 1759 690 2068 
Q 947 2378 1403 2484 
z
M 1172 3481 
Q 1172 3119 1398 2916 
Q 1625 2713 2034 2713 
Q 2441 2713 2670 2916 
Q 2900 3119 2900 3481 
Q 2900 3844 2670 4047 
Q 2441 4250 2034 4250 
Q 1625 4250 1398 4047 
Q 1172 3844 1172 3481 
z
" transform="scale(0.015625)"/>
       </defs>
       <use xlink:href="#DejaVuSans-38"/>
       <use xlink:href="#DejaVuSans-30" x="63.623047"/>
       <use xlink:href="#DejaVuSans-30" x="127.246094"/>
      </g>
     </g>
    </g>
    <g id="text_6">
     <!-- Position -->
     <g transform="translate(570.935938 412.756563)scale(0.1 -0.1)">
      <defs>
       <path id="DejaVuSans-50" d="M 1259 4147 
L 1259 2394 
L 2053 2394 
Q 2494 2394 2734 2622 
Q 2975 2850 2975 3272 
Q 2975 3691 2734 3919 
Q 2494 4147 2053 4147 
L 1259 4147 
z
M 628 4666 
L 2053 4666 
Q 2838 4666 3239 4311 
Q 3641 3956 3641 3272 
Q 3641 2581 3239 2228 
Q 2838 1875 2053 1875 
L 1259 1875 
L 1259 0 
L 628 0 
L 628 4666 
z
" transform="scale(0.015625)"/>
       <path id="DejaVuSans-6f" d="M 1959 3097 
Q 1497 3097 1228 2736 
Q 959 2375 959 1747 
Q 959 1119 1226 758 
Q 1494 397 1959 397 
Q 2419 397 2687 759 
Q 2956 1122 2956 1747 
Q 2956 2369 2687 2733 
Q 2419 3097 1959 3097 
z
M 1959 3584 
Q 2709 3584 3137 3096 
Q 3566 2609 3566 1747 
Q 3566 888 3137 398 
Q 2709 -91 1959 -91 
Q 1206 -91 779 398 
Q 353 888 353 1747 
Q 353 2609 779 3096 
Q 1206 3584 1959 3584 
z
" transform="scale(0.015625)"/>
       <path id="DejaVuSans-73" d="M 2834 3397 
L 2834 2853 
Q 2591 2978 2328 3040 
Q 2066 3103 1784 3103 
Q 1356 3103 1142 2972 
Q 928 2841 928 2578 
Q 928 2378 1081 2264 
Q 1234 2150 1697 2047 
L 1894 2003 
Q 2506 1872 2764 1633 
Q 3022 1394 3022 966 
Q 3022 478 2636 193 
Q 2250 -91 1575 -91 
Q 1294 -91 989 -36 
Q 684 19 347 128 
L 347 722 
Q 666 556 975 473 
Q 1284 391 1588 391 
Q 1994 391 2212 530 
Q 2431 669 2431 922 
Q 2431 1156 2273 1281 
Q 2116 1406 1581 1522 
L 1381 1569 
Q 847 1681 609 1914 
Q 372 2147 372 2553 
Q 372 3047 722 3315 
Q 1072 3584 1716 3584 
Q 2034 3584 2315 3537 
Q 2597 3491 2834 3397 
z
" transform="scale(0.015625)"/>
       <path id="DejaVuSans-69" d="M 603 3500 
L 1178 3500 
L 1178 0 
L 603 0 
L 603 3500 
z
M 603 4863 
L 1178 4863 
L 1178 4134 
L 603 4134 
L 603 4863 
z
" transform="scale(0.015625)"/>
       <path id="DejaVuSans-74" d="M 1172 4494 
L 1172 3500 
L 2356 3500 
L 2356 3053 
L 1172 3053 
L 1172 1153 
Q 1172 725 1289 603 
Q 1406 481 1766 481 
L 2356 481 
L 2356 0 
L 1766 0 
Q 1100 0 847 248 
Q 594 497 594 1153 
L 594 3053 
L 172 3053 
L 172 3500 
L 594 3500 
L 594 4494 
L 1172 4494 
z
" transform="scale(0.015625)"/>
       <path id="DejaVuSans-6e" d="M 3513 2113 
L 3513 0 
L 2938 0 
L 2938 2094 
Q 2938 2591 2744 2837 
Q 2550 3084 2163 3084 
Q 1697 3084 1428 2787 
Q 1159 2491 1159 1978 
L 1159 0 
L 581 0 
L 581 3500 
L 1159 3500 
L 1159 2956 
Q 1366 3272 1645 3428 
Q 1925 3584 2291 3584 
Q 2894 3584 3203 3211 
Q 3513 2838 3513 2113 
z
" transform="scale(0.015625)"/>
      </defs>
      <use xlink:href="#DejaVuSans-50"/>
      <use xlink:href="#DejaVuSans-6f" x="56.677734"/>
      <use xlink:href="#DejaVuSans-73" x="117.859375"/>
      <use xlink:href="#DejaVuSans-69" x="169.958984"/>
      <use xlink:href="#DejaVuSans-74" x="197.742188"/>
      <use xlink:href="#DejaVuSans-69" x="236.951172"/>
      <use xlink:href="#DejaVuSans-6f" x="264.734375"/>
      <use xlink:href="#DejaVuSans-6e" x="325.916016"/>
     </g>
    </g>
   </g>
   <g id="matplotlib.axis_2">
    <g id="ytick_1">
     <g id="line2d_6">
      <defs>
       <path id="m2884c5efec" d="M 0 0 
L -3.5 0 
" style="stroke: #000000; stroke-width: 0.8"/>
      </defs>
      <g>
       <use xlink:href="#m2884c5efec" x="144" y="374.574455" style="stroke: #000000; stroke-width: 0.8"/>
      </g>
     </g>
     <g id="text_7">
      <!-- 0.0 -->
      <g transform="translate(121.096875 378.373674)scale(0.1 -0.1)">
       <defs>
        <path id="DejaVuSans-2e" d="M 684 794 
L 1344 794 
L 1344 0 
L 684 0 
L 684 794 
z
" transform="scale(0.015625)"/>
       </defs>
       <use xlink:href="#DejaVuSans-30"/>
       <use xlink:href="#DejaVuSans-2e" x="63.623047"/>
       <use xlink:href="#DejaVuSans-30" x="95.410156"/>
      </g>
     </g>
    </g>
    <g id="ytick_2">
     <g id="line2d_7">
      <g>
       <use xlink:href="#m2884c5efec" x="144" y="328.293676" style="stroke: #000000; stroke-width: 0.8"/>
      </g>
     </g>
     <g id="text_8">
      <!-- 0.2 -->
      <g transform="translate(121.096875 332.092895)scale(0.1 -0.1)">
       <use xlink:href="#DejaVuSans-30"/>
       <use xlink:href="#DejaVuSans-2e" x="63.623047"/>
       <use xlink:href="#DejaVuSans-32" x="95.410156"/>
      </g>
     </g>
    </g>
    <g id="ytick_3">
     <g id="line2d_8">
      <g>
       <use xlink:href="#m2884c5efec" x="144" y="282.012897" style="stroke: #000000; stroke-width: 0.8"/>
      </g>
     </g>
     <g id="text_9">
      <!-- 0.4 -->
      <g transform="translate(121.096875 285.812116)scale(0.1 -0.1)">
       <use xlink:href="#DejaVuSans-30"/>
       <use xlink:href="#DejaVuSans-2e" x="63.623047"/>
       <use xlink:href="#DejaVuSans-34" x="95.410156"/>
      </g>
     </g>
    </g>
    <g id="ytick_4">
     <g id="line2d_9">
      <g>
       <use xlink:href="#m2884c5efec" x="144" y="235.732118" style="stroke: #000000; stroke-width: 0.8"/>
      </g>
     </g>
     <g id="text_10">
      <!-- 0.6 -->
      <g transform="translate(121.096875 239.531336)scale(0.1 -0.1)">
       <use xlink:href="#DejaVuSans-30"/>
       <use xlink:href="#DejaVuSans-2e" x="63.623047"/>
       <use xlink:href="#DejaVuSans-36" x="95.410156"/>
      </g>
     </g>
    </g>
    <g id="ytick_5">
     <g id="line2d_10">
      <g>
       <use xlink:href="#m2884c5efec" x="144" y="189.451338" style="stroke: #000000; stroke-width: 0.8"/>
      </g>
     </g>
     <g id="text_11">
      <!-- 0.8 -->
      <g transform="translate(121.096875 193.250557)scale(0.1 -0.1)">
       <use xlink:href="#DejaVuSans-30"/>
       <use xlink:href="#DejaVuSans-2e" x="63.623047"/>
       <use xlink:href="#DejaVuSans-38" x="95.410156"/>
      </g>
     </g>
    </g>
    <g id="ytick_6">
     <g id="line2d_11">
      <g>
       <use xlink:href="#m2884c5efec" x="144" y="143.170559" style="stroke: #000000; stroke-width: 0.8"/>
      </g>
     </g>
     <g id="text_12">
      <!-- 1.0 -->
      <g transform="translate(121.096875 146.969778)scale(0.1 -0.1)">
       <defs>
        <path id="DejaVuSans-31" d="M 794 531 
L 1825 531 
L 1825 4091 
L 703 3866 
L 703 4441 
L 1819 4666 
L 2450 4666 
L 2450 531 
L 3481 531 
L 3481 0 
L 794 0 
L 794 531 
z
" transform="scale(0.015625)"/>
       </defs>
       <use xlink:href="#DejaVuSans-31"/>
       <use xlink:href="#DejaVuSans-2e" x="63.623047"/>
       <use xlink:href="#DejaVuSans-30" x="95.410156"/>
      </g>
     </g>
    </g>
    <g id="ytick_7">
     <g id="line2d_12">
      <g>
       <use xlink:href="#m2884c5efec" x="144" y="96.88978" style="stroke: #000000; stroke-width: 0.8"/>
      </g>
     </g>
     <g id="text_13">
      <!-- 1.2 -->
      <g transform="translate(121.096875 100.688999)scale(0.1 -0.1)">
       <use xlink:href="#DejaVuSans-31"/>
       <use xlink:href="#DejaVuSans-2e" x="63.623047"/>
       <use xlink:href="#DejaVuSans-32" x="95.410156"/>
      </g>
     </g>
    </g>
    <g id="text_14">
     <!-- Depth of coverage -->
     <g transform="translate(115.017187 264.602187)rotate(-90)scale(0.1 -0.1)">
      <defs>
       <path id="DejaVuSans-44" d="M 1259 4147 
L 1259 519 
L 2022 519 
Q 2988 519 3436 956 
Q 3884 1394 3884 2338 
Q 3884 3275 3436 3711 
Q 2988 4147 2022 4147 
L 1259 4147 
z
M 628 4666 
L 1925 4666 
Q 3281 4666 3915 4102 
Q 4550 3538 4550 2338 
Q 4550 1131 3912 565 
Q 3275 0 1925 0 
L 628 0 
L 628 4666 
z
" transform="scale(0.015625)"/>
       <path id="DejaVuSans-65" d="M 3597 1894 
L 3597 1613 
L 953 1613 
Q 991 1019 1311 708 
Q 1631 397 2203 397 
Q 2534 397 2845 478 
Q 3156 559 3463 722 
L 3463 178 
Q 3153 47 2828 -22 
Q 2503 -91 2169 -91 
Q 1331 -91 842 396 
Q 353 884 353 1716 
Q 353 2575 817 3079 
Q 1281 3584 2069 3584 
Q 2775 3584 3186 3129 
Q 3597 2675 3597 1894 
z
M 3022 2063 
Q 3016 2534 2758 2815 
Q 2500 3097 2075 3097 
Q 1594 3097 1305 2825 
Q 1016 2553 972 2059 
L 3022 2063 
z
" transform="scale(0.015625)"/>
       <path id="DejaVuSans-70" d="M 1159 525 
L 1159 -1331 
L 581 -1331 
L 581 3500 
L 1159 3500 
L 1159 2969 
Q 1341 3281 1617 3432 
Q 1894 3584 2278 3584 
Q 2916 3584 3314 3078 
Q 3713 2572 3713 1747 
Q 3713 922 3314 415 
Q 2916 -91 2278 -91 
Q 1894 -91 1617 61 
Q 1341 213 1159 525 
z
M 3116 1747 
Q 3116 2381 2855 2742 
Q 2594 3103 2138 3103 
Q 1681 3103 1420 2742 
Q 1159 2381 1159 1747 
Q 1159 1113 1420 752 
Q 1681 391 2138 391 
Q 2594 391 2855 752 
Q 3116 1113 3116 1747 
z
" transform="scale(0.015625)"/>
       <path id="DejaVuSans-68" d="M 3513 2113 
L 3513 0 
L 2938 0 
L 2938 2094 
Q 2938 2591 2744 2837 
Q 2550 3084 2163 3084 
Q 1697 3084 1428 2787 
Q 1159 2491 1159 1978 
L 1159 0 
L 581 0 
L 581 4863 
L 1159 4863 
L 1159 2956 
Q 1366 3272 1645 3428 
Q 1925 3584 2291 3584 
Q 2894 3584 3203 3211 
Q 3513 2838 3513 2113 
z
" transform="scale(0.015625)"/>
       <path id="DejaVuSans-20" transform="scale(0.015625)"/>
       <path id="DejaVuSans-66" d="M 2375 4863 
L 2375 4384 
L 1825 4384 
Q 1516 4384 1395 4259 
Q 1275 4134 1275 3809 
L 1275 3500 
L 2222 3500 
L 2222 3053 
L 1275 3053 
L 1275 0 
L 697 0 
L 697 3053 
L 147 3053 
L 147 3500 
L 697 3500 
L 697 3744 
Q 697 4328 969 4595 
Q 1241 4863 1831 4863 
L 2375 4863 
z
" transform="scale(0.015625)"/>
       <path id="DejaVuSans-63" d="M 3122 3366 
L 3122 2828 
Q 2878 2963 2633 3030 
Q 2388 3097 2138 3097 
Q 1578 3097 1268 2742 
Q 959 2388 959 1747 
Q 959 1106 1268 751 
Q 1578 397 2138 397 
Q 2388 397 2633 464 
Q 2878 531 3122 666 
L 3122 134 
Q 2881 22 2623 -34 
Q 2366 -91 2075 -91 
Q 1284 -91 818 406 
Q 353 903 353 1747 
Q 353 2603 823 3093 
Q 1294 3584 2113 3584 
Q 2378 3584 2631 3529 
Q 2884 3475 3122 3366 
z
" transform="scale(0.015625)"/>
       <path id="DejaVuSans-76" d="M 191 3500 
L 800 3500 
L 1894 563 
L 2988 3500 
L 3597 3500 
L 2284 0 
L 1503 0 
L 191 3500 
z
" transform="scale(0.015625)"/>
       <path id="DejaVuSans-72" d="M 2631 2963 
Q 2534 3019 2420 3045 
Q 2306 3072 2169 3072 
Q 1681 3072 1420 2755 
Q 1159 2438 1159 1844 
L 1159 0 
L 581 0 
L 581 3500 
L 1159 3500 
L 1159 2956 
Q 1341 3275 1631 3429 
Q 1922 3584 2338 3584 
Q 2397 3584 2469 3576 
Q 2541 3569 2628 3553 
L 2631 2963 
z
" transform="scale(0.015625)"/>
       <path id="DejaVuSans-61" d="M 2194 1759 
Q 1497 1759 1228 1600 
Q 959 1441 959 1056 
Q 959 750 1161 570 
Q 1363 391 1709 391 
Q 2188 391 2477 730 
Q 2766 1069 2766 1631 
L 2766 1759 
L 2194 1759 
z
M 3341 1997 
L 3341 0 
L 2766 0 
L 2766 531 
Q 2569 213 2275 61 
Q 1981 -91 1556 -91 
Q 1019 -91 701 211 
Q 384 513 384 1019 
Q 384 1609 779 1909 
Q 1175 2209 1959 2209 
L 2766 2209 
L 2766 2266 
Q 2766 2663 2505 2880 
Q 2244 3097 1772 3097 
Q 1472 3097 1187 3025 
Q 903 2953 641 2809 
L 641 3341 
Q 956 3463 1253 3523 
Q 1550 3584 1831 3584 
Q 2591 3584 2966 3190 
Q 3341 2797 3341 1997 
z
" transform="scale(0.015625)"/>
       <path id="DejaVuSans-67" d="M 2906 1791 
Q 2906 2416 2648 2759 
Q 2391 3103 1925 3103 
Q 1463 3103 1205 2759 
Q 947 2416 947 1791 
Q 947 1169 1205 825 
Q 1463 481 1925 481 
Q 2391 481 2648 825 
Q 2906 1169 2906 1791 
z
M 3481 434 
Q 3481 -459 3084 -895 
Q 2688 -1331 1869 -1331 
Q 1566 -1331 1297 -1286 
Q 1028 -1241 775 -1147 
L 775 -588 
Q 1028 -725 1275 -790 
Q 1522 -856 1778 -856 
Q 2344 -856 2625 -561 
Q 2906 -266 2906 331 
L 2906 616 
Q 2728 306 2450 153 
Q 2172 0 1784 0 
Q 1141 0 747 490 
Q 353 981 353 1791 
Q 353 2603 747 3093 
Q 1141 3584 1784 3584 
Q 2172 3584 2450 3431 
Q 2728 3278 2906 2969 
L 2906 3500 
L 3481 3500 
L 3481 434 
z
" transform="scale(0.015625)"/>
      </defs>
      <use xlink:href="#DejaVuSans-44"/>
      <use xlink:href="#DejaVuSans-65" x="77.001953"/>
      <use xlink:href="#DejaVuSans-70" x="138.525391"/>
      <use xlink:href="#DejaVuSans-74" x="202.001953"/>
      <use xlink:href="#DejaVuSans-68" x="241.210938"/>
      <use xlink:href="#DejaVuSans-20" x="304.589844"/>
      <use xlink:href="#DejaVuSans-6f" x="336.376953"/>
      <use xlink:href="#DejaVuSans-66" x="397.558594"/>
      <use xlink:href="#DejaVuSans-20" x="432.763672"/>
      <use xlink:href="#DejaVuSans-63" x="464.550781"/>
      <use xlink:href="#DejaVuSans-6f" x="519.53125"/>
      <use xlink:href="#DejaVuSans-76" x="580.712891"/>
      <use xlink:href="#DejaVuSans-65" x="639.892578"/>
      <use xlink:href="#DejaVuSans-72" x="701.416016"/>
      <use xlink:href="#DejaVuSans-61" x="742.529297"/>
      <use xlink:href="#DejaVuSans-67" x="803.808594"/>
      <use xlink:href="#DejaVuSans-65" x="867.285156"/>
     </g>
    </g>
    <g id="text_15">
     <!-- 1e6 -->
     <g transform="translate(144 48.84)scale(0.1 -0.1)">
      <use xlink:href="#DejaVuSans-31"/>
      <use xlink:href="#DejaVuSans-65" x="63.623047"/>
      <use xlink:href="#DejaVuSans-36" x="125.146484"/>
     </g>
    </g>
   </g>
   <g id="line2d_13">
    <path d="M 184.581818 331.588405 
L 185.494795 318.31878 
L 186.407772 313.711528 
L 187.320749 313.49262 
L 188.233725 308.030331 
L 189.146702 307.379855 
L 190.059679 307.245178 
L 191.885632 306.795097 
L 192.798609 306.775891 
L 193.711586 305.147039 
L 194.624563 304.226051 
L 195.53754 302.896867 
L 196.450516 302.686058 
L 197.363493 301.402924 
L 198.27647 300.704778 
L 199.189447 299.286041 
L 201.0154 299.066207 
L 201.928377 297.485487 
L 202.841354 296.428897 
L 203.754331 293.605538 
L 204.667307 292.983293 
L 205.580284 292.776186 
L 206.493261 292.37632 
L 207.406238 292.264321 
L 208.319215 291.852653 
L 209.232191 291.607828 
L 210.145168 290.446643 
L 211.058145 286.636115 
L 211.971122 279.559321 
L 212.884099 266.345696 
L 213.797075 266.021731 
L 214.710052 264.479887 
L 215.623029 262.57335 
L 216.536006 262.206806 
L 217.448983 261.241158 
L 218.361959 260.668202 
L 219.274936 260.556433 
L 220.187913 259.276538 
L 221.10089 258.766987 
L 222.013866 250.83099 
L 222.926843 248.71781 
L 223.83982 247.585088 
L 225.665774 247.006115 
L 227.491727 246.802249 
L 228.404704 245.361065 
L 229.317681 242.001312 
L 230.230658 241.050242 
L 231.143634 238.460601 
L 232.056611 238.362949 
L 232.969588 234.829411 
L 233.882565 234.746568 
L 234.795541 234.159034 
L 236.621495 232.641256 
L 237.534472 232.425819 
L 238.447449 231.83921 
L 240.273402 230.285333 
L 241.186379 230.064111 
L 242.099356 227.777377 
L 243.012333 226.526871 
L 243.925309 226.395896 
L 245.751263 222.997498 
L 246.66424 221.39896 
L 247.577216 217.734911 
L 248.490193 217.485689 
L 249.40317 215.393566 
L 250.316147 215.064047 
L 251.229124 214.868048 
L 252.1421 214.065077 
L 253.055077 213.950995 
L 253.968054 212.928652 
L 254.881031 210.872397 
L 256.706984 209.656832 
L 257.619961 209.221099 
L 258.532938 209.212537 
L 260.358892 208.98391 
L 262.184845 208.358657 
L 263.097822 206.983655 
L 264.010799 206.674499 
L 264.923775 206.227658 
L 265.836752 205.918734 
L 266.749729 205.360125 
L 268.575683 205.138903 
L 270.401636 205.209712 
L 271.314613 203.120367 
L 272.22759 198.277546 
L 273.140567 195.932499 
L 274.053543 194.943247 
L 274.96652 194.560505 
L 275.879497 194.019483 
L 276.792474 188.553723 
L 277.70545 186.441005 
L 278.618427 185.846066 
L 279.531404 185.995784 
L 280.444381 186.590723 
L 281.357358 184.966268 
L 282.270334 184.412056 
L 283.183311 182.454147 
L 284.096288 182.082744 
L 285.009265 183.058112 
L 285.922242 182.204694 
L 286.835218 181.586614 
L 287.748195 179.182328 
L 288.661172 175.649022 
L 289.574149 174.752563 
L 290.487125 174.336499 
L 291.400102 174.355937 
L 292.313079 173.639973 
L 293.226056 167.118086 
L 294.139033 164.659882 
L 295.052009 164.431949 
L 295.964986 165.065764 
L 298.703917 164.630957 
L 299.616893 163.990893 
L 300.52987 164.497436 
L 301.442847 164.076976 
L 302.355824 164.100579 
L 303.2688 162.366207 
L 304.181777 162.412256 
L 305.094754 162.287761 
L 306.007731 161.239501 
L 306.920708 161.447765 
L 307.833684 161.248526 
L 310.572615 161.060163 
L 311.485592 162.031134 
L 313.311545 157.833467 
L 314.224522 152.484335 
L 315.137499 149.2942 
L 316.050476 148.674269 
L 316.963452 149.69638 
L 317.876429 149.663984 
L 318.789406 149.769041 
L 319.702383 147.951132 
L 320.615359 151.873428 
L 321.528336 197.725416 
L 322.441313 199.406797 
L 323.35429 197.62221 
L 324.267267 197.235997 
L 325.180243 196.645223 
L 326.09322 189.213687 
L 327.006197 186.255882 
L 327.919174 187.16368 
L 328.832151 186.050627 
L 329.745127 187.069961 
L 330.658104 185.905305 
L 331.571081 187.785693 
L 332.484058 187.731545 
L 333.397034 184.845475 
L 334.310011 183.887695 
L 335.222988 185.482993 
L 336.135965 181.600498 
L 337.048942 182.084133 
L 337.961918 180.502256 
L 338.874895 178.057011 
L 339.787872 177.768913 
L 340.700849 171.637635 
L 341.613826 172.895315 
L 342.526802 172.421169 
L 343.439779 171.215554 
L 344.352756 170.910564 
L 345.265733 166.813095 
L 346.178709 166.752699 
L 347.091686 162.488388 
L 348.004663 181.463045 
L 348.91764 185.020879 
L 349.830617 183.556093 
L 350.743593 183.058574 
L 351.65657 181.391772 
L 352.569547 180.218323 
L 353.482524 182.364826 
L 354.395501 182.138281 
L 355.308477 182.556428 
L 356.221454 182.50737 
L 357.134431 181.921687 
L 358.047408 182.851005 
L 358.960384 184.368552 
L 359.873361 189.014216 
L 360.786338 189.305323 
L 361.699315 189.298843 
L 362.612292 175.977384 
L 363.525268 175.454642 
L 364.438245 175.122346 
L 365.351222 178.743817 
L 366.264199 178.747057 
L 367.177176 177.622203 
L 368.090152 178.315489 
L 369.003129 179.914027 
L 369.916106 180.106323 
L 370.829083 183.046079 
L 371.74206 183.04307 
L 372.655036 182.098942 
L 373.568013 182.049191 
L 374.48099 180.314356 
L 375.393967 180.522619 
L 376.306943 181.309855 
L 377.21992 177.757574 
L 378.132897 178.166002 
L 379.045874 176.425845 
L 379.958851 177.236684 
L 380.871827 176.00816 
L 381.784804 174.201127 
L 382.697781 176.179862 
L 383.610758 175.589551 
L 384.523735 175.849649 
L 385.436711 180.868337 
L 386.349688 180.711445 
L 387.262665 183.001418 
L 388.175642 183.267995 
L 389.088618 180.459909 
L 390.001595 180.817659 
L 390.914572 179.76616 
L 391.827549 180.99746 
L 392.740526 180.302091 
L 393.653502 180.40414 
L 394.566479 179.970721 
L 395.479456 178.085705 
L 396.392433 177.917705 
L 397.30541 177.32346 
L 398.218386 177.056883 
L 399.131363 177.170039 
L 400.04434 176.982371 
L 400.957317 172.051385 
L 401.870293 172.29945 
L 402.78327 171.790362 
L 403.696247 169.8748 
L 404.609224 168.248956 
L 406.435177 168.032131 
L 407.348154 168.169353 
L 408.261131 167.721587 
L 409.174108 161.8393 
L 410.087085 164.603419 
L 411.000061 166.769823 
L 411.913038 168.097618 
L 413.738992 168.43084 
L 414.651969 173.776501 
L 415.564945 173.63118 
L 416.477922 174.533655 
L 417.390899 174.553324 
L 418.303876 170.45169 
L 419.216852 170.362137 
L 420.129829 170.083989 
L 421.042806 171.732279 
L 421.955783 171.916014 
L 422.86876 170.835126 
L 423.781736 171.466165 
L 424.694713 171.944245 
L 425.60769 175.087404 
L 426.520667 176.527662 
L 427.433644 177.252882 
L 428.34662 176.944652 
L 429.259597 177.097379 
L 430.172574 177.847127 
L 431.085551 182.604097 
L 431.998527 182.87484 
L 432.911504 182.886873 
L 434.737458 183.92819 
L 435.650435 182.23038 
L 436.563411 183.178673 
L 437.476388 185.333969 
L 438.389365 185.137738 
L 439.302342 186.43198 
L 440.215319 186.06266 
L 442.041272 180.855841 
L 442.954249 180.822981 
L 443.867226 169.101911 
L 444.780202 166.651575 
L 446.606156 164.999583 
L 447.519133 165.058591 
L 448.43211 164.157041 
L 449.345086 165.859017 
L 450.258063 158.795182 
L 451.17104 158.756537 
L 452.084017 165.520936 
L 452.996994 168.472261 
L 453.90997 168.49355 
L 454.822947 168.696029 
L 455.735924 172.72963 
L 456.648901 175.281321 
L 457.561877 173.965327 
L 458.474854 177.196651 
L 459.387831 179.733763 
L 460.300808 179.802027 
L 461.213785 177.416716 
L 462.126761 177.828384 
L 463.039738 176.84376 
L 463.952715 175.36856 
L 464.865692 175.679567 
L 465.778669 173.016571 
L 466.691645 172.410987 
L 468.517599 171.777403 
L 469.430576 156.420978 
L 470.343553 157.652741 
L 471.256529 159.310287 
L 472.169506 165.334424 
L 473.082483 163.078005 
L 473.99546 163.193707 
L 474.908436 161.759697 
L 475.821413 158.523976 
L 476.73439 157.903814 
L 477.647367 160.66238 
L 478.560344 160.482116 
L 479.47332 160.830842 
L 480.386297 160.808858 
L 482.212251 160.042449 
L 483.125228 164.263024 
L 484.038204 165.136111 
L 484.951181 168.808954 
L 485.864158 162.00082 
L 486.777135 153.1281 
L 487.690111 152.326517 
L 488.603088 152.373492 
L 489.516065 155.887823 
L 490.429042 155.720055 
L 491.342019 154.770836 
L 493.167972 154.25712 
L 494.080949 158.924536 
L 494.993926 164.262562 
L 495.906903 165.531118 
L 496.819879 163.746762 
L 497.732856 165.289069 
L 499.55881 165.595911 
L 501.384763 166.654121 
L 502.29774 165.448275 
L 503.210717 165.376771 
L 504.123694 165.589894 
L 505.03667 167.235639 
L 505.949647 166.869095 
L 506.862624 165.966388 
L 507.775601 165.676902 
L 508.688578 166.074685 
L 509.601554 165.561432 
L 510.514531 166.789955 
L 511.427508 166.459742 
L 512.340485 166.943607 
L 514.166438 168.457914 
L 515.079415 170.21589 
L 515.992392 168.607632 
L 516.905369 168.608327 
L 517.818345 168.369055 
L 518.731322 169.243762 
L 519.644299 170.720119 
L 520.557276 170.251294 
L 521.470253 170.114072 
L 522.383229 167.35458 
L 523.296206 167.657488 
L 524.209183 168.44727 
L 525.12216 166.057562 
L 526.035137 166.292205 
L 526.948113 165.490853 
L 527.86109 166.108933 
L 528.774067 164.313008 
L 529.687044 160.572595 
L 530.60002 159.885325 
L 531.512997 154.404756 
L 532.425974 155.312784 
L 533.338951 157.987813 
L 536.077881 154.474408 
L 537.903835 162.226207 
L 538.816812 165.025963 
L 539.729788 164.30514 
L 540.642765 158.76024 
L 541.555742 158.620009 
L 542.468719 147.615597 
L 543.381695 146.945451 
L 544.294672 146.93874 
L 545.207649 146.450247 
L 546.120626 149.187986 
L 547.033603 153.129026 
L 547.946579 152.006254 
L 548.859556 152.075907 
L 549.772533 151.252572 
L 550.68551 153.1281 
L 551.598487 152.927704 
L 552.511463 151.728801 
L 553.42444 151.710289 
L 554.337417 151.90837 
L 555.250394 153.688098 
L 556.16337 156.259689 
L 557.076347 156.29278 
L 557.989324 156.811587 
L 558.902301 156.05374 
L 559.815278 155.064951 
L 560.728254 156.136119 
L 561.641231 155.051761 
L 562.554208 155.604122 
L 563.467185 155.959327 
L 564.380162 155.455561 
L 565.293138 155.198471 
L 566.206115 155.958864 
L 567.119092 155.241975 
L 568.032069 157.60322 
L 568.945046 156.628778 
L 569.858022 156.515853 
L 571.683976 152.958018 
L 572.596953 152.675706 
L 573.509929 150.956837 
L 574.422906 151.132473 
L 575.335883 152.102518 
L 577.161837 150.689335 
L 578.074813 150.664112 
L 578.98779 152.628036 
L 579.900767 155.363693 
L 581.726721 166.148503 
L 582.639697 174.902281 
L 583.552674 174.955736 
L 584.465651 175.406279 
L 585.378628 177.954961 
L 586.291604 177.942928 
L 587.204581 177.485443 
L 588.117558 182.980128 
L 589.030535 173.598089 
L 589.943512 173.41366 
L 591.769465 164.782757 
L 592.682442 157.440775 
L 593.595419 157.186693 
L 594.508396 155.416916 
L 595.421372 156.686167 
L 596.334349 156.005608 
L 597.247326 155.042505 
L 598.160303 139.074016 
L 599.073279 148.428981 
L 600.899233 146.019141 
L 601.81221 143.894391 
L 602.725187 142.282431 
L 603.638163 145.249029 
L 604.55114 146.801286 
L 605.464117 149.358068 
L 606.377094 167.493654 
L 607.290071 171.514528 
L 608.203047 171.603156 
L 609.116024 171.175059 
L 610.029001 169.838933 
L 610.941978 162.870204 
L 611.854954 162.131332 
L 612.767931 163.998067 
L 613.680908 166.399576 
L 614.593885 165.997859 
L 615.506862 167.363374 
L 616.419838 166.161462 
L 617.332815 165.270325 
L 618.245792 163.514433 
L 620.071746 163.279558 
L 620.984722 164.505536 
L 621.897699 162.835262 
L 622.810676 161.551896 
L 623.723653 168.321849 
L 624.63663 173.267413 
L 625.549606 173.194289 
L 627.37556 173.365297 
L 628.288537 172.869398 
L 629.201513 173.83898 
L 630.11449 175.774905 
L 631.027467 174.921488 
L 631.940444 175.186908 
L 632.853421 174.229822 
L 633.766397 172.948075 
L 634.679374 174.364036 
L 635.592351 174.177756 
L 636.505328 175.946376 
L 637.418305 175.86469 
L 638.331281 175.37851 
L 639.244258 175.48727 
L 640.157235 173.601791 
L 641.070212 174.662315 
L 641.983188 169.828288 
L 642.896165 168.22975 
L 643.809142 167.861818 
L 645.635096 167.864826 
L 646.548072 168.637021 
L 647.461049 165.152772 
L 648.374026 164.503222 
L 649.287003 164.10405 
L 650.19998 164.025835 
L 651.112956 163.456813 
L 652.93891 164.370396 
L 653.851887 165.411945 
L 654.764863 165.775712 
L 655.67784 165.561432 
L 656.590817 161.663896 
L 657.503794 161.376492 
L 658.416771 163.473706 
L 659.329747 164.455321 
L 660.242724 159.327179 
L 661.155701 156.880777 
L 662.068678 157.030496 
L 662.981655 159.327642 
L 663.894631 160.363637 
L 664.807608 160.119043 
L 665.720585 158.183581 
L 666.633562 160.862544 
L 667.546539 157.625666 
L 668.459515 161.711334 
L 669.372492 163.576912 
L 671.198446 162.528189 
L 672.111422 161.289484 
L 673.024399 163.002104 
L 673.937376 163.564647 
L 674.850353 163.937902 
L 675.76333 168.226742 
L 676.676306 171.161869 
L 677.589283 175.97669 
L 678.50226 176.043334 
L 679.415237 176.832884 
L 680.328214 181.983009 
L 681.24119 181.791407 
L 682.154167 183.484358 
L 683.067144 183.722704 
L 683.980121 184.873012 
L 684.893097 184.952152 
L 685.806074 185.671356 
L 686.719051 185.854165 
L 687.632028 186.951482 
L 688.545005 185.943718 
L 689.457981 186.418559 
L 690.370958 187.449463 
L 691.283935 185.067392 
L 692.196912 185.158565 
L 693.109889 183.547994 
L 694.022865 183.167797 
L 695.848819 183.07593 
L 697.674772 185.044483 
L 698.587749 184.099198 
L 699.500726 183.571828 
L 700.413703 182.497189 
L 701.32668 182.885484 
L 702.239656 182.982443 
L 703.152633 181.296202 
L 704.06561 181.525755 
L 704.978587 180.874816 
L 705.891564 180.856535 
L 706.80454 182.353255 
L 707.717517 182.170678 
L 708.630494 185.198366 
L 709.543471 187.331216 
L 710.456447 186.811483 
L 711.369424 188.425988 
L 712.282401 186.122593 
L 713.195378 185.517704 
L 714.108355 185.176614 
L 715.021331 184.272288 
L 715.934308 183.701646 
L 716.847285 183.463763 
L 717.760262 183.865943 
L 718.673239 187.794718 
L 719.586215 185.98352 
L 720.499192 187.819015 
L 721.412169 186.5935 
L 722.325146 181.187674 
L 723.238123 181.047675 
L 724.151099 180.314587 
L 725.064076 178.657504 
L 725.977053 177.501178 
L 726.89003 176.068557 
L 727.803006 181.702548 
L 728.715983 184.431031 
L 729.62896 185.492249 
L 730.541937 196.783834 
L 731.454914 194.848603 
L 733.280867 193.023983 
L 734.193844 191.225049 
L 735.106821 192.162004 
L 736.019798 203.328861 
L 736.932774 203.41263 
L 737.845751 201.995744 
L 738.758728 200.350231 
L 739.671705 202.879475 
L 740.584681 202.213032 
L 741.497658 202.22761 
L 742.410635 202.109826 
L 743.323612 197.633549 
L 744.236589 195.991044 
L 745.149565 198.872948 
L 746.062542 198.788717 
L 746.975519 200.857699 
L 747.888496 196.891436 
L 748.801473 193.911649 
L 749.714449 193.17347 
L 750.627426 193.652708 
L 751.540403 194.324473 
L 752.45338 194.198821 
L 753.366356 197.608789 
L 754.279333 198.370107 
L 755.19231 195.098982 
L 756.105287 199.240649 
L 757.018264 199.429012 
L 757.93124 198.651495 
L 758.844217 198.436058 
L 759.757194 199.91496 
L 760.670171 200.161405 
L 761.583148 200.054496 
L 762.496124 200.889402 
L 763.409101 200.238231 
L 764.322078 196.851172 
L 765.235055 197.032824 
L 766.148031 198.264587 
L 767.061008 199.19136 
L 767.973985 197.882077 
L 768.886962 197.631929 
L 769.799939 197.857779 
L 770.712915 195.355146 
L 771.625892 189.776692 
L 772.538869 188.692334 
L 773.451846 188.795771 
L 774.364823 189.68228 
L 775.277799 189.135009 
L 776.190776 193.444675 
L 777.103753 192.454267 
L 778.01673 191.156785 
L 778.929707 191.508982 
L 779.842683 191.08343 
L 780.75566 192.724547 
L 781.668637 193.163057 
L 782.581614 191.703593 
L 783.49459 193.154495 
L 784.407567 192.569275 
L 785.320544 196.456397 
L 786.233521 195.15475 
L 787.146498 185.159722 
L 788.059474 185.292085 
L 788.972451 183.939066 
L 789.885428 184.003628 
L 790.798405 183.908058 
L 791.711382 183.175896 
L 792.624358 184.45718 
L 793.537335 184.108454 
L 794.450312 190.280459 
L 795.363289 191.704055 
L 796.276265 191.614733 
L 797.189242 193.105437 
L 798.102219 192.14164 
L 799.015196 190.663663 
L 799.928173 190.606044 
L 800.841149 190.986935 
L 801.754126 191.823923 
L 802.667103 194.872669 
L 803.58008 200.040381 
L 804.493057 200.348611 
L 805.406033 198.975923 
L 806.31901 198.594338 
L 807.231987 201.480176 
L 808.144964 198.625577 
L 809.05794 198.614239 
L 809.970917 200.6617 
L 810.883894 200.508511 
L 811.796871 201.682654 
L 812.709848 201.015748 
L 813.622824 200.688312 
L 814.535801 200.491387 
L 815.448778 200.543684 
L 816.361755 200.946558 
L 817.274732 197.892258 
L 818.187708 197.890639 
L 819.100685 198.411297 
L 820.013662 198.048687 
L 820.926639 196.864362 
L 821.839616 196.794015 
L 822.752592 195.989656 
L 823.665569 196.707008 
L 825.491523 196.396695 
L 826.404499 197.304261 
L 827.317476 197.362112 
L 828.230453 199.508615 
L 829.14343 200.072083 
L 830.056407 198.58971 
L 830.969383 200.942625 
L 831.88236 201.379052 
L 832.795337 201.420936 
L 833.708314 200.720245 
L 835.534267 200.706361 
L 836.447244 203.629224 
L 837.360221 203.222416 
L 838.273198 203.340432 
L 840.099151 203.826148 
L 841.012128 205.239795 
L 841.925105 204.912358 
L 843.751058 206.418103 
L 844.664035 206.437541 
L 845.577012 205.142837 
L 846.489989 204.837615 
L 847.402966 205.455926 
L 848.315942 206.731424 
L 849.228919 206.310038 
L 850.141896 209.198653 
L 851.054873 211.097553 
L 851.967849 211.319701 
L 852.880826 212.27401 
L 853.793803 213.795491 
L 854.70678 213.422237 
L 855.619757 209.679741 
L 856.532733 209.323148 
L 857.44571 211.04271 
L 858.358687 211.39699 
L 859.271664 199.827258 
L 860.184641 204.704558 
L 861.097617 205.982833 
L 862.010594 203.725256 
L 862.923571 207.780378 
L 864.749524 207.347884 
L 865.662501 207.78894 
L 867.488455 209.849129 
L 868.401432 209.609857 
L 869.314408 212.021549 
L 870.227385 212.793049 
L 871.140362 218.495767 
L 872.053339 223.170126 
L 873.879292 222.422923 
L 874.792269 221.77962 
L 875.705246 221.566034 
L 876.618223 224.242914 
L 879.357153 224.356765 
L 880.27013 226.372987 
L 882.096083 232.920329 
L 883.922037 234.90184 
L 884.835014 236.538792 
L 885.747991 238.984037 
L 886.660967 244.503945 
L 887.573944 251.643681 
L 888.486921 251.834821 
L 889.399898 253.214451 
L 890.312875 253.702019 
L 891.225851 253.702481 
L 892.138828 253.453028 
L 893.051805 253.579606 
L 893.964782 252.917097 
L 896.703712 252.887246 
L 898.529666 253.170252 
L 899.442642 253.83415 
L 900.355619 257.73886 
L 901.268596 257.962627 
L 903.09455 258.021635 
L 904.007526 258.391881 
L 904.920503 258.597368 
L 905.83348 259.694685 
L 906.746457 259.707644 
L 907.659433 261.487834 
L 908.57241 264.916777 
L 909.485387 270.303628 
L 910.398364 270.696552 
L 912.224317 270.876584 
L 913.137294 272.741237 
L 914.050271 278.496252 
L 914.963248 280.460871 
L 915.876225 280.639978 
L 917.702178 281.389958 
L 918.615155 282.893157 
L 920.441108 282.938281 
L 921.354085 283.325188 
L 922.267062 283.421915 
L 923.180039 284.21725 
L 924.093016 287.334724 
L 925.005992 298.140129 
L 925.918969 298.641581 
L 926.831946 300.379424 
L 927.744923 301.516311 
L 928.6579 301.672741 
L 929.570876 304.549554 
L 930.483853 304.662016 
L 931.39683 305.380757 
L 932.309807 306.42462 
L 933.222784 307.849605 
L 934.13576 308.246462 
L 935.048737 308.306859 
L 935.961714 309.691348 
L 936.874691 312.316626 
L 937.787667 312.375634 
L 939.613621 312.67831 
L 940.526598 313.331794 
L 941.439575 314.803523 
L 943.265528 315.194827 
L 944.178505 315.814295 
L 945.091482 315.897601 
L 946.004459 320.376423 
L 946.917435 320.566869 
L 947.830412 320.92485 
L 948.743389 321.055362 
L 949.656366 321.063924 
L 950.569342 322.336646 
L 951.482319 322.818429 
L 952.395296 323.785234 
L 953.308273 328.182371 
L 955.134226 328.359163 
L 956.047203 328.836318 
L 956.96018 328.855988 
L 957.873157 329.852876 
L 958.786134 329.974363 
L 959.69911 330.246494 
L 960.612087 330.774789 
L 962.438041 331.032804 
L 963.351017 331.295216 
L 964.263994 331.3091 
L 965.176971 331.826288 
L 966.089948 332.872928 
L 967.002925 333.216794 
L 967.915901 333.911006 
L 969.741855 333.946873 
L 970.654832 334.172492 
L 972.480785 335.9506 
L 973.393762 336.155161 
L 974.306739 336.827158 
L 975.219716 336.920876 
L 976.132693 338.451613 
L 977.045669 338.752207 
L 977.958646 338.69343 
L 979.7846 339.043313 
L 980.697576 339.451509 
L 981.610553 339.641029 
L 982.52353 340.105457 
L 983.436507 341.92244 
L 984.349484 342.081877 
L 985.26246 342.753874 
L 986.175437 343.249541 
L 987.088414 343.87896 
L 988.001391 344.185339 
L 988.914368 344.230462 
L 989.827344 344.729138 
L 990.740321 344.756675 
L 991.653298 344.96031 
L 992.566275 350.240022 
L 993.479251 350.694962 
L 994.392228 350.934002 
L 995.305205 353.307743 
L 996.218182 369.36 
L 996.218182 369.36 
" clip-path="url(#pa694c75ae1)" style="fill: none; stroke: #1f77b4; stroke-width: 1.5; stroke-linecap: square"/>
   </g>
   <g id="line2d_14">
    <path d="M 184.581818 340.395174 
L 996.218182 340.395174 
L 996.218182 340.395174 
" clip-path="url(#pa694c75ae1)" style="fill: none; stroke-dasharray: 5.55,2.4; stroke-dashoffset: 0; stroke: #ff7f0e; stroke-width: 1.5"/>
   </g>
   <g id="line2d_15">
    <path d="M 184.581818 203.677587 
L 996.218182 203.677587 
L 996.218182 203.677587 
" clip-path="url(#pa694c75ae1)" style="fill: none; stroke-dasharray: 5.55,2.4; stroke-dashoffset: 0; stroke: #2ca02c; stroke-width: 1.5"/>
   </g>
   <g id="line2d_16">
    <path d="M 184.581818 66.96 
L 996.218182 66.96 
L 996.218182 66.96 
" clip-path="url(#pa694c75ae1)" style="fill: none; stroke-dasharray: 5.55,2.4; stroke-dashoffset: 0; stroke: #d62728; stroke-width: 1.5"/>
   </g>
   <g id="patch_3">
    <path d="M 144 384.48 
L 144 51.84 
" style="fill: none; stroke: #000000; stroke-width: 0.8; stroke-linejoin: miter; stroke-linecap: square"/>
   </g>
   <g id="patch_4">
    <path d="M 1036.8 384.48 
L 1036.8 51.84 
" style="fill: none; stroke: #000000; stroke-width: 0.8; stroke-linejoin: miter; stroke-linecap: square"/>
   </g>
   <g id="patch_5">
    <path d="M 144 384.48 
L 1036.8 384.48 
" style="fill: none; stroke: #000000; stroke-width: 0.8; stroke-linejoin: miter; stroke-linecap: square"/>
   </g>
   <g id="patch_6">
    <path d="M 144 51.84 
L 1036.8 51.84 
" style="fill: none; stroke: #000000; stroke-width: 0.8; stroke-linejoin: miter; stroke-linecap: square"/>
   </g>
   <g id="text_16">
    <!-- NS -->
    <g transform="translate(582.102188 45.84)scale(0.12 -0.12)">
     <defs>
      <path id="DejaVuSans-4e" d="M 628 4666 
L 1478 4666 
L 3547 763 
L 3547 4666 
L 4159 4666 
L 4159 0 
L 3309 0 
L 1241 3903 
L 1241 0 
L 628 0 
L 628 4666 
z
" transform="scale(0.015625)"/>
      <path id="DejaVuSans-53" d="M 3425 4513 
L 3425 3897 
Q 3066 4069 2747 4153 
Q 2428 4238 2131 4238 
Q 1616 4238 1336 4038 
Q 1056 3838 1056 3469 
Q 1056 3159 1242 3001 
Q 1428 2844 1947 2747 
L 2328 2669 
Q 3034 2534 3370 2195 
Q 3706 1856 3706 1288 
Q 3706 609 3251 259 
Q 2797 -91 1919 -91 
Q 1588 -91 1214 -16 
Q 841 59 441 206 
L 441 856 
Q 825 641 1194 531 
Q 1563 422 1919 422 
Q 2459 422 2753 634 
Q 3047 847 3047 1241 
Q 3047 1584 2836 1778 
Q 2625 1972 2144 2069 
L 1759 2144 
Q 1053 2284 737 2584 
Q 422 2884 422 3419 
Q 422 4038 858 4394 
Q 1294 4750 2059 4750 
Q 2388 4750 2728 4690 
Q 3069 4631 3425 4513 
z
" transform="scale(0.015625)"/>
     </defs>
     <use xlink:href="#DejaVuSans-4e"/>
     <use xlink:href="#DejaVuSans-53" x="74.804688"/>
    </g>
   </g>
   <g id="legend_1">
    <g id="patch_7">
     <path d="M 146 28.936045 
L 1034.8 28.936045 
Q 1036.8 28.936045 1036.8 26.936045 
L 1036.8 13.25792 
Q 1036.8 11.25792 1034.8 11.25792 
L 146 11.25792 
Q 144 11.25792 144 13.25792 
L 144 26.936045 
Q 144 28.936045 146 28.936045 
z
" style="fill: #ffffff; opacity: 0.8; stroke: #cccccc; stroke-linejoin: miter"/>
    </g>
    <g id="line2d_17">
     <path d="M 148 19.356358 
L 158 19.356358 
L 168 19.356358 
" style="fill: none; stroke-dasharray: 5.55,2.4; stroke-dashoffset: 0; stroke: #ff7f0e; stroke-width: 1.5"/>
    </g>
    <g id="text_17">
     <!-- Average depth * 0.2 -->
     <g transform="translate(176 22.856358)scale(0.1 -0.1)">
      <defs>
       <path id="DejaVuSans-41" d="M 2188 4044 
L 1331 1722 
L 3047 1722 
L 2188 4044 
z
M 1831 4666 
L 2547 4666 
L 4325 0 
L 3669 0 
L 3244 1197 
L 1141 1197 
L 716 0 
L 50 0 
L 1831 4666 
z
" transform="scale(0.015625)"/>
       <path id="DejaVuSans-64" d="M 2906 2969 
L 2906 4863 
L 3481 4863 
L 3481 0 
L 2906 0 
L 2906 525 
Q 2725 213 2448 61 
Q 2172 -91 1784 -91 
Q 1150 -91 751 415 
Q 353 922 353 1747 
Q 353 2572 751 3078 
Q 1150 3584 1784 3584 
Q 2172 3584 2448 3432 
Q 2725 3281 2906 2969 
z
M 947 1747 
Q 947 1113 1208 752 
Q 1469 391 1925 391 
Q 2381 391 2643 752 
Q 2906 1113 2906 1747 
Q 2906 2381 2643 2742 
Q 2381 3103 1925 3103 
Q 1469 3103 1208 2742 
Q 947 2381 947 1747 
z
" transform="scale(0.015625)"/>
       <path id="DejaVuSans-2a" d="M 3009 3897 
L 1888 3291 
L 3009 2681 
L 2828 2375 
L 1778 3009 
L 1778 1831 
L 1422 1831 
L 1422 3009 
L 372 2375 
L 191 2681 
L 1313 3291 
L 191 3897 
L 372 4206 
L 1422 3572 
L 1422 4750 
L 1778 4750 
L 1778 3572 
L 2828 4206 
L 3009 3897 
z
" transform="scale(0.015625)"/>
      </defs>
      <use xlink:href="#DejaVuSans-41"/>
      <use xlink:href="#DejaVuSans-76" x="62.533203"/>
      <use xlink:href="#DejaVuSans-65" x="121.712891"/>
      <use xlink:href="#DejaVuSans-72" x="183.236328"/>
      <use xlink:href="#DejaVuSans-61" x="224.349609"/>
      <use xlink:href="#DejaVuSans-67" x="285.628906"/>
      <use xlink:href="#DejaVuSans-65" x="349.105469"/>
      <use xlink:href="#DejaVuSans-20" x="410.628906"/>
      <use xlink:href="#DejaVuSans-64" x="442.416016"/>
      <use xlink:href="#DejaVuSans-65" x="505.892578"/>
      <use xlink:href="#DejaVuSans-70" x="567.416016"/>
      <use xlink:href="#DejaVuSans-74" x="630.892578"/>
      <use xlink:href="#DejaVuSans-68" x="670.101562"/>
      <use xlink:href="#DejaVuSans-20" x="733.480469"/>
      <use xlink:href="#DejaVuSans-2a" x="765.267578"/>
      <use xlink:href="#DejaVuSans-20" x="815.267578"/>
      <use xlink:href="#DejaVuSans-30" x="847.054688"/>
      <use xlink:href="#DejaVuSans-2e" x="910.677734"/>
      <use xlink:href="#DejaVuSans-32" x="942.464844"/>
     </g>
    </g>
    <g id="line2d_18">
     <path d="M 539.724219 19.356358 
L 549.724219 19.356358 
L 559.724219 19.356358 
" style="fill: none; stroke-dasharray: 5.55,2.4; stroke-dashoffset: 0; stroke: #2ca02c; stroke-width: 1.5"/>
    </g>
    <g id="text_18">
     <!-- Average depth -->
     <g transform="translate(567.724219 22.856358)scale(0.1 -0.1)">
      <use xlink:href="#DejaVuSans-41"/>
      <use xlink:href="#DejaVuSans-76" x="62.533203"/>
      <use xlink:href="#DejaVuSans-65" x="121.712891"/>
      <use xlink:href="#DejaVuSans-72" x="183.236328"/>
      <use xlink:href="#DejaVuSans-61" x="224.349609"/>
      <use xlink:href="#DejaVuSans-67" x="285.628906"/>
      <use xlink:href="#DejaVuSans-65" x="349.105469"/>
      <use xlink:href="#DejaVuSans-20" x="410.628906"/>
      <use xlink:href="#DejaVuSans-64" x="442.416016"/>
      <use xlink:href="#DejaVuSans-65" x="505.892578"/>
      <use xlink:href="#DejaVuSans-70" x="567.416016"/>
      <use xlink:href="#DejaVuSans-74" x="630.892578"/>
      <use xlink:href="#DejaVuSans-68" x="670.101562"/>
     </g>
    </g>
    <g id="line2d_19">
     <path d="M 904.189062 19.356358 
L 914.189062 19.356358 
L 924.189062 19.356358 
" style="fill: none; stroke-dasharray: 5.55,2.4; stroke-dashoffset: 0; stroke: #d62728; stroke-width: 1.5"/>
    </g>
    <g id="text_19">
     <!-- Average depth * 1.8 -->
     <g transform="translate(932.189062 22.856358)scale(0.1 -0.1)">
      <use xlink:href="#DejaVuSans-41"/>
      <use xlink:href="#DejaVuSans-76" x="62.533203"/>
      <use xlink:href="#DejaVuSans-65" x="121.712891"/>
      <use xlink:href="#DejaVuSans-72" x="183.236328"/>
      <use xlink:href="#DejaVuSans-61" x="224.349609"/>
      <use xlink:href="#DejaVuSans-67" x="285.628906"/>
      <use xlink:href="#DejaVuSans-65" x="349.105469"/>
      <use xlink:href="#DejaVuSans-20" x="410.628906"/>
      <use xlink:href="#DejaVuSans-64" x="442.416016"/>
      <use xlink:href="#DejaVuSans-65" x="505.892578"/>
      <use xlink:href="#DejaVuSans-70" x="567.416016"/>
      <use xlink:href="#DejaVuSans-74" x="630.892578"/>
      <use xlink:href="#DejaVuSans-68" x="670.101562"/>
      <use xlink:href="#DejaVuSans-20" x="733.480469"/>
      <use xlink:href="#DejaVuSans-2a" x="765.267578"/>
      <use xlink:href="#DejaVuSans-20" x="815.267578"/>
      <use xlink:href="#DejaVuSans-31" x="847.054688"/>
      <use xlink:href="#DejaVuSans-2e" x="910.677734"/>
      <use xlink:href="#DejaVuSans-38" x="942.464844"/>
     </g>
    </g>
   </g>
  </g>
 </g>
 <defs>
  <clipPath id="pa694c75ae1">
   <rect x="144" y="51.84" width="892.8" height="332.64"/>
  </clipPath>
 </defs>
</svg>
