<?xml version="1.0" encoding="utf-8" standalone="no"?>
<!DOCTYPE svg PUBLIC "-//W3C//DTD SVG 1.1//EN"
  "http://www.w3.org/Graphics/SVG/1.1/DTD/svg11.dtd">
<svg xmlns:xlink="http://www.w3.org/1999/xlink" width="1152pt" height="432pt" viewBox="0 0 1152 432" xmlns="http://www.w3.org/2000/svg" version="1.1">
 <metadata>
  <rdf:RDF xmlns:dc="http://purl.org/dc/elements/1.1/" xmlns:cc="http://creativecommons.org/ns#" xmlns:rdf="http://www.w3.org/1999/02/22-rdf-syntax-ns#">
   <cc:Work>
    <dc:type rdf:resource="http://purl.org/dc/dcmitype/StillImage"/>
    <dc:date>2022-11-25T09:00:17.949276</dc:date>
    <dc:format>image/svg+xml</dc:format>
    <dc:creator>
     <cc:Agent>
      <dc:title>Matplotlib v3.5.2, https://matplotlib.org/</dc:title>
     </cc:Agent>
    </dc:creator>
   </cc:Work>
  </rdf:RDF>
 </metadata>
 <defs>
  <style type="text/css">*{stroke-linejoin: round; stroke-linecap: butt}</style>
 </defs>
 <g id="figure_1">
  <g id="patch_1">
   <path d="M 0 432 
L 1152 432 
L 1152 0 
L 0 0 
z
" style="fill: #ffffff"/>
  </g>
  <g id="axes_1">
   <g id="patch_2">
    <path d="M 144 384.48 
L 1036.8 384.48 
L 1036.8 51.84 
L 144 51.84 
z
" style="fill: #ffffff"/>
   </g>
   <g id="matplotlib.axis_1">
    <g id="xtick_1">
     <g id="line2d_1">
      <defs>
       <path id="m7d139d1bbf" d="M 0 0 
L 0 3.5 
" style="stroke: #000000; stroke-width: 0.8"/>
      </defs>
      <g>
       <use xlink:href="#m7d139d1bbf" x="184.581818" y="384.48" style="stroke: #000000; stroke-width: 0.8"/>
      </g>
     </g>
     <g id="text_1">
      <!-- 0 -->
      <g transform="translate(181.400568 399.078438)scale(0.1 -0.1)">
       <defs>
        <path id="DejaVuSans-30" d="M 2034 4250 
Q 1547 4250 1301 3770 
Q 1056 3291 1056 2328 
Q 1056 1369 1301 889 
Q 1547 409 2034 409 
Q 2525 409 2770 889 
Q 3016 1369 3016 2328 
Q 3016 3291 2770 3770 
Q 2525 4250 2034 4250 
z
M 2034 4750 
Q 2819 4750 3233 4129 
Q 3647 3509 3647 2328 
Q 3647 1150 3233 529 
Q 2819 -91 2034 -91 
Q 1250 -91 836 529 
Q 422 1150 422 2328 
Q 422 3509 836 4129 
Q 1250 4750 2034 4750 
z
" transform="scale(0.015625)"/>
       </defs>
       <use xlink:href="#DejaVuSans-30"/>
      </g>
     </g>
    </g>
    <g id="xtick_2">
     <g id="line2d_2">
      <g>
       <use xlink:href="#m7d139d1bbf" x="366.4" y="384.48" style="stroke: #000000; stroke-width: 0.8"/>
      </g>
     </g>
     <g id="text_2">
      <!-- 500 -->
      <g transform="translate(356.85625 399.078438)scale(0.1 -0.1)">
       <defs>
        <path id="DejaVuSans-35" d="M 691 4666 
L 3169 4666 
L 3169 4134 
L 1269 4134 
L 1269 2991 
Q 1406 3038 1543 3061 
Q 1681 3084 1819 3084 
Q 2600 3084 3056 2656 
Q 3513 2228 3513 1497 
Q 3513 744 3044 326 
Q 2575 -91 1722 -91 
Q 1428 -91 1123 -41 
Q 819 9 494 109 
L 494 744 
Q 775 591 1075 516 
Q 1375 441 1709 441 
Q 2250 441 2565 725 
Q 2881 1009 2881 1497 
Q 2881 1984 2565 2268 
Q 2250 2553 1709 2553 
Q 1456 2553 1204 2497 
Q 953 2441 691 2322 
L 691 4666 
z
" transform="scale(0.015625)"/>
       </defs>
       <use xlink:href="#DejaVuSans-35"/>
       <use xlink:href="#DejaVuSans-30" x="63.623047"/>
       <use xlink:href="#DejaVuSans-30" x="127.246094"/>
      </g>
     </g>
    </g>
    <g id="xtick_3">
     <g id="line2d_3">
      <g>
       <use xlink:href="#m7d139d1bbf" x="548.218182" y="384.48" style="stroke: #000000; stroke-width: 0.8"/>
      </g>
     </g>
     <g id="text_3">
      <!-- 1000 -->
      <g transform="translate(535.493182 399.078438)scale(0.1 -0.1)">
       <defs>
        <path id="DejaVuSans-31" d="M 794 531 
L 1825 531 
L 1825 4091 
L 703 3866 
L 703 4441 
L 1819 4666 
L 2450 4666 
L 2450 531 
L 3481 531 
L 3481 0 
L 794 0 
L 794 531 
z
" transform="scale(0.015625)"/>
       </defs>
       <use xlink:href="#DejaVuSans-31"/>
       <use xlink:href="#DejaVuSans-30" x="63.623047"/>
       <use xlink:href="#DejaVuSans-30" x="127.246094"/>
       <use xlink:href="#DejaVuSans-30" x="190.869141"/>
      </g>
     </g>
    </g>
    <g id="xtick_4">
     <g id="line2d_4">
      <g>
       <use xlink:href="#m7d139d1bbf" x="730.036364" y="384.48" style="stroke: #000000; stroke-width: 0.8"/>
      </g>
     </g>
     <g id="text_4">
      <!-- 1500 -->
      <g transform="translate(717.311364 399.078438)scale(0.1 -0.1)">
       <use xlink:href="#DejaVuSans-31"/>
       <use xlink:href="#DejaVuSans-35" x="63.623047"/>
       <use xlink:href="#DejaVuSans-30" x="127.246094"/>
       <use xlink:href="#DejaVuSans-30" x="190.869141"/>
      </g>
     </g>
    </g>
    <g id="xtick_5">
     <g id="line2d_5">
      <g>
       <use xlink:href="#m7d139d1bbf" x="911.854545" y="384.48" style="stroke: #000000; stroke-width: 0.8"/>
      </g>
     </g>
     <g id="text_5">
      <!-- 2000 -->
      <g transform="translate(899.129545 399.078438)scale(0.1 -0.1)">
       <defs>
        <path id="DejaVuSans-32" d="M 1228 531 
L 3431 531 
L 3431 0 
L 469 0 
L 469 531 
Q 828 903 1448 1529 
Q 2069 2156 2228 2338 
Q 2531 2678 2651 2914 
Q 2772 3150 2772 3378 
Q 2772 3750 2511 3984 
Q 2250 4219 1831 4219 
Q 1534 4219 1204 4116 
Q 875 4013 500 3803 
L 500 4441 
Q 881 4594 1212 4672 
Q 1544 4750 1819 4750 
Q 2544 4750 2975 4387 
Q 3406 4025 3406 3419 
Q 3406 3131 3298 2873 
Q 3191 2616 2906 2266 
Q 2828 2175 2409 1742 
Q 1991 1309 1228 531 
z
" transform="scale(0.015625)"/>
       </defs>
       <use xlink:href="#DejaVuSans-32"/>
       <use xlink:href="#DejaVuSans-30" x="63.623047"/>
       <use xlink:href="#DejaVuSans-30" x="127.246094"/>
       <use xlink:href="#DejaVuSans-30" x="190.869141"/>
      </g>
     </g>
    </g>
    <g id="text_6">
     <!-- Position -->
     <g transform="translate(570.935938 412.756563)scale(0.1 -0.1)">
      <defs>
       <path id="DejaVuSans-50" d="M 1259 4147 
L 1259 2394 
L 2053 2394 
Q 2494 2394 2734 2622 
Q 2975 2850 2975 3272 
Q 2975 3691 2734 3919 
Q 2494 4147 2053 4147 
L 1259 4147 
z
M 628 4666 
L 2053 4666 
Q 2838 4666 3239 4311 
Q 3641 3956 3641 3272 
Q 3641 2581 3239 2228 
Q 2838 1875 2053 1875 
L 1259 1875 
L 1259 0 
L 628 0 
L 628 4666 
z
" transform="scale(0.015625)"/>
       <path id="DejaVuSans-6f" d="M 1959 3097 
Q 1497 3097 1228 2736 
Q 959 2375 959 1747 
Q 959 1119 1226 758 
Q 1494 397 1959 397 
Q 2419 397 2687 759 
Q 2956 1122 2956 1747 
Q 2956 2369 2687 2733 
Q 2419 3097 1959 3097 
z
M 1959 3584 
Q 2709 3584 3137 3096 
Q 3566 2609 3566 1747 
Q 3566 888 3137 398 
Q 2709 -91 1959 -91 
Q 1206 -91 779 398 
Q 353 888 353 1747 
Q 353 2609 779 3096 
Q 1206 3584 1959 3584 
z
" transform="scale(0.015625)"/>
       <path id="DejaVuSans-73" d="M 2834 3397 
L 2834 2853 
Q 2591 2978 2328 3040 
Q 2066 3103 1784 3103 
Q 1356 3103 1142 2972 
Q 928 2841 928 2578 
Q 928 2378 1081 2264 
Q 1234 2150 1697 2047 
L 1894 2003 
Q 2506 1872 2764 1633 
Q 3022 1394 3022 966 
Q 3022 478 2636 193 
Q 2250 -91 1575 -91 
Q 1294 -91 989 -36 
Q 684 19 347 128 
L 347 722 
Q 666 556 975 473 
Q 1284 391 1588 391 
Q 1994 391 2212 530 
Q 2431 669 2431 922 
Q 2431 1156 2273 1281 
Q 2116 1406 1581 1522 
L 1381 1569 
Q 847 1681 609 1914 
Q 372 2147 372 2553 
Q 372 3047 722 3315 
Q 1072 3584 1716 3584 
Q 2034 3584 2315 3537 
Q 2597 3491 2834 3397 
z
" transform="scale(0.015625)"/>
       <path id="DejaVuSans-69" d="M 603 3500 
L 1178 3500 
L 1178 0 
L 603 0 
L 603 3500 
z
M 603 4863 
L 1178 4863 
L 1178 4134 
L 603 4134 
L 603 4863 
z
" transform="scale(0.015625)"/>
       <path id="DejaVuSans-74" d="M 1172 4494 
L 1172 3500 
L 2356 3500 
L 2356 3053 
L 1172 3053 
L 1172 1153 
Q 1172 725 1289 603 
Q 1406 481 1766 481 
L 2356 481 
L 2356 0 
L 1766 0 
Q 1100 0 847 248 
Q 594 497 594 1153 
L 594 3053 
L 172 3053 
L 172 3500 
L 594 3500 
L 594 4494 
L 1172 4494 
z
" transform="scale(0.015625)"/>
       <path id="DejaVuSans-6e" d="M 3513 2113 
L 3513 0 
L 2938 0 
L 2938 2094 
Q 2938 2591 2744 2837 
Q 2550 3084 2163 3084 
Q 1697 3084 1428 2787 
Q 1159 2491 1159 1978 
L 1159 0 
L 581 0 
L 581 3500 
L 1159 3500 
L 1159 2956 
Q 1366 3272 1645 3428 
Q 1925 3584 2291 3584 
Q 2894 3584 3203 3211 
Q 3513 2838 3513 2113 
z
" transform="scale(0.015625)"/>
      </defs>
      <use xlink:href="#DejaVuSans-50"/>
      <use xlink:href="#DejaVuSans-6f" x="56.677734"/>
      <use xlink:href="#DejaVuSans-73" x="117.859375"/>
      <use xlink:href="#DejaVuSans-69" x="169.958984"/>
      <use xlink:href="#DejaVuSans-74" x="197.742188"/>
      <use xlink:href="#DejaVuSans-69" x="236.951172"/>
      <use xlink:href="#DejaVuSans-6f" x="264.734375"/>
      <use xlink:href="#DejaVuSans-6e" x="325.916016"/>
     </g>
    </g>
   </g>
   <g id="matplotlib.axis_2">
    <g id="ytick_1">
     <g id="line2d_6">
      <defs>
       <path id="ma325817c88" d="M 0 0 
L -3.5 0 
" style="stroke: #000000; stroke-width: 0.8"/>
      </defs>
      <g>
       <use xlink:href="#ma325817c88" x="144" y="376.031334" style="stroke: #000000; stroke-width: 0.8"/>
      </g>
     </g>
     <g id="text_7">
      <!-- 0 -->
      <g transform="translate(130.6375 379.830553)scale(0.1 -0.1)">
       <use xlink:href="#DejaVuSans-30"/>
      </g>
     </g>
    </g>
    <g id="ytick_2">
     <g id="line2d_7">
      <g>
       <use xlink:href="#ma325817c88" x="144" y="317.034745" style="stroke: #000000; stroke-width: 0.8"/>
      </g>
     </g>
     <g id="text_8">
      <!-- 100000 -->
      <g transform="translate(98.825 320.833963)scale(0.1 -0.1)">
       <use xlink:href="#DejaVuSans-31"/>
       <use xlink:href="#DejaVuSans-30" x="63.623047"/>
       <use xlink:href="#DejaVuSans-30" x="127.246094"/>
       <use xlink:href="#DejaVuSans-30" x="190.869141"/>
       <use xlink:href="#DejaVuSans-30" x="254.492188"/>
       <use xlink:href="#DejaVuSans-30" x="318.115234"/>
      </g>
     </g>
    </g>
    <g id="ytick_3">
     <g id="line2d_8">
      <g>
       <use xlink:href="#ma325817c88" x="144" y="258.038155" style="stroke: #000000; stroke-width: 0.8"/>
      </g>
     </g>
     <g id="text_9">
      <!-- 200000 -->
      <g transform="translate(98.825 261.837374)scale(0.1 -0.1)">
       <use xlink:href="#DejaVuSans-32"/>
       <use xlink:href="#DejaVuSans-30" x="63.623047"/>
       <use xlink:href="#DejaVuSans-30" x="127.246094"/>
       <use xlink:href="#DejaVuSans-30" x="190.869141"/>
       <use xlink:href="#DejaVuSans-30" x="254.492188"/>
       <use xlink:href="#DejaVuSans-30" x="318.115234"/>
      </g>
     </g>
    </g>
    <g id="ytick_4">
     <g id="line2d_9">
      <g>
       <use xlink:href="#ma325817c88" x="144" y="199.041565" style="stroke: #000000; stroke-width: 0.8"/>
      </g>
     </g>
     <g id="text_10">
      <!-- 300000 -->
      <g transform="translate(98.825 202.840784)scale(0.1 -0.1)">
       <defs>
        <path id="DejaVuSans-33" d="M 2597 2516 
Q 3050 2419 3304 2112 
Q 3559 1806 3559 1356 
Q 3559 666 3084 287 
Q 2609 -91 1734 -91 
Q 1441 -91 1130 -33 
Q 819 25 488 141 
L 488 750 
Q 750 597 1062 519 
Q 1375 441 1716 441 
Q 2309 441 2620 675 
Q 2931 909 2931 1356 
Q 2931 1769 2642 2001 
Q 2353 2234 1838 2234 
L 1294 2234 
L 1294 2753 
L 1863 2753 
Q 2328 2753 2575 2939 
Q 2822 3125 2822 3475 
Q 2822 3834 2567 4026 
Q 2313 4219 1838 4219 
Q 1578 4219 1281 4162 
Q 984 4106 628 3988 
L 628 4550 
Q 988 4650 1302 4700 
Q 1616 4750 1894 4750 
Q 2613 4750 3031 4423 
Q 3450 4097 3450 3541 
Q 3450 3153 3228 2886 
Q 3006 2619 2597 2516 
z
" transform="scale(0.015625)"/>
       </defs>
       <use xlink:href="#DejaVuSans-33"/>
       <use xlink:href="#DejaVuSans-30" x="63.623047"/>
       <use xlink:href="#DejaVuSans-30" x="127.246094"/>
       <use xlink:href="#DejaVuSans-30" x="190.869141"/>
       <use xlink:href="#DejaVuSans-30" x="254.492188"/>
       <use xlink:href="#DejaVuSans-30" x="318.115234"/>
      </g>
     </g>
    </g>
    <g id="ytick_5">
     <g id="line2d_10">
      <g>
       <use xlink:href="#ma325817c88" x="144" y="140.044975" style="stroke: #000000; stroke-width: 0.8"/>
      </g>
     </g>
     <g id="text_11">
      <!-- 400000 -->
      <g transform="translate(98.825 143.844194)scale(0.1 -0.1)">
       <defs>
        <path id="DejaVuSans-34" d="M 2419 4116 
L 825 1625 
L 2419 1625 
L 2419 4116 
z
M 2253 4666 
L 3047 4666 
L 3047 1625 
L 3713 1625 
L 3713 1100 
L 3047 1100 
L 3047 0 
L 2419 0 
L 2419 1100 
L 313 1100 
L 313 1709 
L 2253 4666 
z
" transform="scale(0.015625)"/>
       </defs>
       <use xlink:href="#DejaVuSans-34"/>
       <use xlink:href="#DejaVuSans-30" x="63.623047"/>
       <use xlink:href="#DejaVuSans-30" x="127.246094"/>
       <use xlink:href="#DejaVuSans-30" x="190.869141"/>
       <use xlink:href="#DejaVuSans-30" x="254.492188"/>
       <use xlink:href="#DejaVuSans-30" x="318.115234"/>
      </g>
     </g>
    </g>
    <g id="ytick_6">
     <g id="line2d_11">
      <g>
       <use xlink:href="#ma325817c88" x="144" y="81.048386" style="stroke: #000000; stroke-width: 0.8"/>
      </g>
     </g>
     <g id="text_12">
      <!-- 500000 -->
      <g transform="translate(98.825 84.847604)scale(0.1 -0.1)">
       <use xlink:href="#DejaVuSans-35"/>
       <use xlink:href="#DejaVuSans-30" x="63.623047"/>
       <use xlink:href="#DejaVuSans-30" x="127.246094"/>
       <use xlink:href="#DejaVuSans-30" x="190.869141"/>
       <use xlink:href="#DejaVuSans-30" x="254.492188"/>
       <use xlink:href="#DejaVuSans-30" x="318.115234"/>
      </g>
     </g>
    </g>
    <g id="text_13">
     <!-- Depth of coverage -->
     <g transform="translate(92.745312 264.602187)rotate(-90)scale(0.1 -0.1)">
      <defs>
       <path id="DejaVuSans-44" d="M 1259 4147 
L 1259 519 
L 2022 519 
Q 2988 519 3436 956 
Q 3884 1394 3884 2338 
Q 3884 3275 3436 3711 
Q 2988 4147 2022 4147 
L 1259 4147 
z
M 628 4666 
L 1925 4666 
Q 3281 4666 3915 4102 
Q 4550 3538 4550 2338 
Q 4550 1131 3912 565 
Q 3275 0 1925 0 
L 628 0 
L 628 4666 
z
" transform="scale(0.015625)"/>
       <path id="DejaVuSans-65" d="M 3597 1894 
L 3597 1613 
L 953 1613 
Q 991 1019 1311 708 
Q 1631 397 2203 397 
Q 2534 397 2845 478 
Q 3156 559 3463 722 
L 3463 178 
Q 3153 47 2828 -22 
Q 2503 -91 2169 -91 
Q 1331 -91 842 396 
Q 353 884 353 1716 
Q 353 2575 817 3079 
Q 1281 3584 2069 3584 
Q 2775 3584 3186 3129 
Q 3597 2675 3597 1894 
z
M 3022 2063 
Q 3016 2534 2758 2815 
Q 2500 3097 2075 3097 
Q 1594 3097 1305 2825 
Q 1016 2553 972 2059 
L 3022 2063 
z
" transform="scale(0.015625)"/>
       <path id="DejaVuSans-70" d="M 1159 525 
L 1159 -1331 
L 581 -1331 
L 581 3500 
L 1159 3500 
L 1159 2969 
Q 1341 3281 1617 3432 
Q 1894 3584 2278 3584 
Q 2916 3584 3314 3078 
Q 3713 2572 3713 1747 
Q 3713 922 3314 415 
Q 2916 -91 2278 -91 
Q 1894 -91 1617 61 
Q 1341 213 1159 525 
z
M 3116 1747 
Q 3116 2381 2855 2742 
Q 2594 3103 2138 3103 
Q 1681 3103 1420 2742 
Q 1159 2381 1159 1747 
Q 1159 1113 1420 752 
Q 1681 391 2138 391 
Q 2594 391 2855 752 
Q 3116 1113 3116 1747 
z
" transform="scale(0.015625)"/>
       <path id="DejaVuSans-68" d="M 3513 2113 
L 3513 0 
L 2938 0 
L 2938 2094 
Q 2938 2591 2744 2837 
Q 2550 3084 2163 3084 
Q 1697 3084 1428 2787 
Q 1159 2491 1159 1978 
L 1159 0 
L 581 0 
L 581 4863 
L 1159 4863 
L 1159 2956 
Q 1366 3272 1645 3428 
Q 1925 3584 2291 3584 
Q 2894 3584 3203 3211 
Q 3513 2838 3513 2113 
z
" transform="scale(0.015625)"/>
       <path id="DejaVuSans-20" transform="scale(0.015625)"/>
       <path id="DejaVuSans-66" d="M 2375 4863 
L 2375 4384 
L 1825 4384 
Q 1516 4384 1395 4259 
Q 1275 4134 1275 3809 
L 1275 3500 
L 2222 3500 
L 2222 3053 
L 1275 3053 
L 1275 0 
L 697 0 
L 697 3053 
L 147 3053 
L 147 3500 
L 697 3500 
L 697 3744 
Q 697 4328 969 4595 
Q 1241 4863 1831 4863 
L 2375 4863 
z
" transform="scale(0.015625)"/>
       <path id="DejaVuSans-63" d="M 3122 3366 
L 3122 2828 
Q 2878 2963 2633 3030 
Q 2388 3097 2138 3097 
Q 1578 3097 1268 2742 
Q 959 2388 959 1747 
Q 959 1106 1268 751 
Q 1578 397 2138 397 
Q 2388 397 2633 464 
Q 2878 531 3122 666 
L 3122 134 
Q 2881 22 2623 -34 
Q 2366 -91 2075 -91 
Q 1284 -91 818 406 
Q 353 903 353 1747 
Q 353 2603 823 3093 
Q 1294 3584 2113 3584 
Q 2378 3584 2631 3529 
Q 2884 3475 3122 3366 
z
" transform="scale(0.015625)"/>
       <path id="DejaVuSans-76" d="M 191 3500 
L 800 3500 
L 1894 563 
L 2988 3500 
L 3597 3500 
L 2284 0 
L 1503 0 
L 191 3500 
z
" transform="scale(0.015625)"/>
       <path id="DejaVuSans-72" d="M 2631 2963 
Q 2534 3019 2420 3045 
Q 2306 3072 2169 3072 
Q 1681 3072 1420 2755 
Q 1159 2438 1159 1844 
L 1159 0 
L 581 0 
L 581 3500 
L 1159 3500 
L 1159 2956 
Q 1341 3275 1631 3429 
Q 1922 3584 2338 3584 
Q 2397 3584 2469 3576 
Q 2541 3569 2628 3553 
L 2631 2963 
z
" transform="scale(0.015625)"/>
       <path id="DejaVuSans-61" d="M 2194 1759 
Q 1497 1759 1228 1600 
Q 959 1441 959 1056 
Q 959 750 1161 570 
Q 1363 391 1709 391 
Q 2188 391 2477 730 
Q 2766 1069 2766 1631 
L 2766 1759 
L 2194 1759 
z
M 3341 1997 
L 3341 0 
L 2766 0 
L 2766 531 
Q 2569 213 2275 61 
Q 1981 -91 1556 -91 
Q 1019 -91 701 211 
Q 384 513 384 1019 
Q 384 1609 779 1909 
Q 1175 2209 1959 2209 
L 2766 2209 
L 2766 2266 
Q 2766 2663 2505 2880 
Q 2244 3097 1772 3097 
Q 1472 3097 1187 3025 
Q 903 2953 641 2809 
L 641 3341 
Q 956 3463 1253 3523 
Q 1550 3584 1831 3584 
Q 2591 3584 2966 3190 
Q 3341 2797 3341 1997 
z
" transform="scale(0.015625)"/>
       <path id="DejaVuSans-67" d="M 2906 1791 
Q 2906 2416 2648 2759 
Q 2391 3103 1925 3103 
Q 1463 3103 1205 2759 
Q 947 2416 947 1791 
Q 947 1169 1205 825 
Q 1463 481 1925 481 
Q 2391 481 2648 825 
Q 2906 1169 2906 1791 
z
M 3481 434 
Q 3481 -459 3084 -895 
Q 2688 -1331 1869 -1331 
Q 1566 -1331 1297 -1286 
Q 1028 -1241 775 -1147 
L 775 -588 
Q 1028 -725 1275 -790 
Q 1522 -856 1778 -856 
Q 2344 -856 2625 -561 
Q 2906 -266 2906 331 
L 2906 616 
Q 2728 306 2450 153 
Q 2172 0 1784 0 
Q 1141 0 747 490 
Q 353 981 353 1791 
Q 353 2603 747 3093 
Q 1141 3584 1784 3584 
Q 2172 3584 2450 3431 
Q 2728 3278 2906 2969 
L 2906 3500 
L 3481 3500 
L 3481 434 
z
" transform="scale(0.015625)"/>
      </defs>
      <use xlink:href="#DejaVuSans-44"/>
      <use xlink:href="#DejaVuSans-65" x="77.001953"/>
      <use xlink:href="#DejaVuSans-70" x="138.525391"/>
      <use xlink:href="#DejaVuSans-74" x="202.001953"/>
      <use xlink:href="#DejaVuSans-68" x="241.210938"/>
      <use xlink:href="#DejaVuSans-20" x="304.589844"/>
      <use xlink:href="#DejaVuSans-6f" x="336.376953"/>
      <use xlink:href="#DejaVuSans-66" x="397.558594"/>
      <use xlink:href="#DejaVuSans-20" x="432.763672"/>
      <use xlink:href="#DejaVuSans-63" x="464.550781"/>
      <use xlink:href="#DejaVuSans-6f" x="519.53125"/>
      <use xlink:href="#DejaVuSans-76" x="580.712891"/>
      <use xlink:href="#DejaVuSans-65" x="639.892578"/>
      <use xlink:href="#DejaVuSans-72" x="701.416016"/>
      <use xlink:href="#DejaVuSans-61" x="742.529297"/>
      <use xlink:href="#DejaVuSans-67" x="803.808594"/>
      <use xlink:href="#DejaVuSans-65" x="867.285156"/>
     </g>
    </g>
   </g>
   <g id="line2d_12">
    <path d="M 184.581818 331.083603 
L 184.945455 318.889007 
L 185.309091 311.074319 
L 185.672727 309.623593 
L 186.036364 302.732201 
L 186.4 301.485603 
L 186.763636 282.412596 
L 187.127273 281.47986 
L 187.490909 278.105845 
L 187.854545 278.037409 
L 188.218182 277.175469 
L 188.581818 274.462805 
L 188.945455 273.013849 
L 189.672727 271.481708 
L 190.036364 269.913578 
L 190.4 264.366129 
L 190.763636 261.706563 
L 191.127273 261.277068 
L 191.490909 260.675302 
L 191.854545 260.554359 
L 192.581818 258.584463 
L 192.945455 258.143169 
L 193.309091 253.760902 
L 193.672727 253.437601 
L 194.036364 252.507225 
L 195.490909 251.247057 
L 196.218182 246.559778 
L 196.581818 246.270695 
L 196.945455 243.127947 
L 197.309091 243.475437 
L 198.036364 240.031216 
L 198.4 239.95865 
L 198.763636 238.386981 
L 199.127273 238.352763 
L 199.490909 235.217094 
L 200.581818 230.001206 
L 200.945455 228.71331 
L 201.672727 222.325749 
L 202.036364 222.092123 
L 202.4 221.706285 
L 202.763636 221.493307 
L 203.127273 220.616618 
L 203.490909 214.87743 
L 203.854545 214.255606 
L 204.218182 213.939384 
L 204.945455 212.432021 
L 205.309091 211.621998 
L 205.672727 210.288085 
L 206.036364 209.993102 
L 206.4 208.243263 
L 206.763636 207.328226 
L 207.127273 206.7477 
L 207.490909 206.491065 
L 208.218182 203.2787 
L 208.581818 203.253922 
L 208.945455 202.692274 
L 209.309091 202.568971 
L 209.672727 201.221489 
L 210.036364 201.006152 
L 210.4 199.950703 
L 210.763636 199.291711 
L 211.127273 197.428008 
L 211.490909 197.122996 
L 212.218182 196.01622 
L 212.581818 195.50354 
L 212.945455 195.32183 
L 213.309091 195.010328 
L 213.672727 193.527744 
L 214.036364 193.677005 
L 214.4 192.37731 
L 214.763636 192.313594 
L 215.127273 190.736615 
L 215.490909 189.865826 
L 216.218182 185.399194 
L 216.581818 185.487689 
L 216.945455 186.278833 
L 217.672727 180.97327 
L 218.036364 176.047644 
L 218.4 173.821113 
L 219.127273 171.536765 
L 219.490909 171.636469 
L 219.854545 170.609929 
L 220.218182 170.263029 
L 220.581818 170.362733 
L 220.945455 169.707871 
L 221.309091 170.948569 
L 221.672727 169.668933 
L 222.763636 167.681928 
L 223.127273 166.569252 
L 223.490909 166.489607 
L 224.581818 165.418229 
L 225.309091 165.073689 
L 226.036364 165.099057 
L 226.4 164.431216 
L 226.763636 163.387566 
L 227.127273 163.162199 
L 227.490909 161.677845 
L 227.854545 161.392891 
L 228.218182 160.89496 
L 228.581818 160.997024 
L 228.945455 160.400569 
L 229.672727 159.951605 
L 230.036364 160.285525 
L 230.4 160.146293 
L 231.127273 159.398217 
L 231.490909 159.386417 
L 231.854545 158.778163 
L 232.218182 158.671969 
L 232.581818 158.420053 
L 232.945455 154.303271 
L 233.309091 152.440749 
L 233.672727 208.239723 
L 234.036364 207.978369 
L 234.4 151.534561 
L 234.763636 152.207712 
L 235.127273 152.540453 
L 235.490909 150.618934 
L 235.854545 150.481472 
L 236.218182 150.013039 
L 236.581818 152.880273 
L 236.945455 140.047925 
L 237.309091 139.873295 
L 237.672727 141.735818 
L 238.036364 141.326381 
L 238.4 141.752337 
L 238.763636 148.178835 
L 239.127273 169.334422 
L 239.490909 178.325503 
L 239.854545 191.024519 
L 240.218182 190.554906 
L 240.581818 195.646311 
L 240.945455 211.186013 
L 241.309091 211.039112 
L 241.672727 204.990781 
L 242.036364 203.887545 
L 242.4 206.172483 
L 242.763636 205.781926 
L 243.127273 207.794299 
L 243.490909 207.579552 
L 243.854545 207.077491 
L 244.218182 207.032653 
L 244.581818 238.463086 
L 245.309091 245.185748 
L 245.672727 245.797542 
L 246.036364 245.016428 
L 246.4 245.069525 
L 246.763636 242.395209 
L 247.127273 241.758636 
L 247.490909 242.308484 
L 247.854545 242.487244 
L 248.218182 244.596372 
L 249.672727 243.153905 
L 250.036364 243.609949 
L 250.4 241.428845 
L 250.763636 242.20052 
L 251.490909 242.837094 
L 251.854545 247.513753 
L 252.218182 247.616407 
L 252.581818 253.221673 
L 252.945455 254.104852 
L 253.309091 253.944971 
L 253.672727 255.789795 
L 254.036364 256.426958 
L 254.4 257.715444 
L 254.763636 258.003347 
L 255.127273 258.758503 
L 255.490909 259.185639 
L 255.854545 260.72545 
L 256.218182 267.016256 
L 256.581818 267.693537 
L 257.309091 266.26051 
L 257.672727 266.294138 
L 258.036364 267.487639 
L 258.4 267.28587 
L 258.763636 261.714232 
L 259.127273 259.589765 
L 259.490909 260.675892 
L 259.854545 257.498926 
L 260.218182 256.117226 
L 260.581818 256.262358 
L 260.945455 256.113096 
L 261.672727 257.901873 
L 262.036364 257.734322 
L 262.4 259.103043 
L 262.763636 257.973259 
L 263.127273 255.911328 
L 263.490909 256.375631 
L 263.854545 255.580947 
L 264.218182 255.426966 
L 264.581818 255.081246 
L 265.309091 255.566198 
L 265.672727 255.441125 
L 266.036364 256.325484 
L 266.763636 256.575629 
L 267.127273 256.152624 
L 267.490909 256.075338 
L 267.854545 255.781535 
L 268.218182 255.904248 
L 268.581818 254.636412 
L 268.945455 256.05292 
L 269.309091 256.798637 
L 270.036364 258.546116 
L 270.4 256.958517 
L 271.127273 257.457038 
L 271.490909 257.502466 
L 271.854545 259.577966 
L 272.218182 260.874711 
L 272.581818 261.445208 
L 272.945455 262.826318 
L 273.309091 263.022777 
L 273.672727 263.49062 
L 274.036364 265.144294 
L 274.4 264.815093 
L 274.763636 265.74134 
L 275.127273 265.281166 
L 276.218182 265.121875 
L 276.581818 264.859931 
L 276.945455 266.416261 
L 277.309091 265.816265 
L 277.672727 265.433377 
L 278.036364 265.432197 
L 278.4 263.763184 
L 278.763636 262.7862 
L 279.127273 261.392111 
L 279.490909 261.488865 
L 279.854545 260.694181 
L 280.218182 260.638725 
L 280.581818 260.078257 
L 280.945455 259.970293 
L 281.309091 250.566237 
L 281.672727 251.296025 
L 282.036364 251.226999 
L 282.763636 250.482462 
L 283.127273 249.184537 
L 283.490909 249.160348 
L 283.854545 247.631746 
L 284.581818 245.732646 
L 284.945455 243.506115 
L 285.309091 243.493136 
L 285.672727 244.203455 
L 286.036364 244.122039 
L 286.4 244.4536 
L 286.763636 241.379288 
L 287.127273 240.617642 
L 287.490909 244.767462 
L 287.854545 245.340319 
L 288.218182 246.440605 
L 288.581818 245.793413 
L 288.945455 245.611703 
L 289.309091 247.100187 
L 289.672727 247.756229 
L 290.036364 250.234676 
L 290.4 244.013486 
L 291.127273 241.68902 
L 291.490909 241.497871 
L 291.854545 250.414616 
L 292.218182 249.116691 
L 292.581818 248.968019 
L 293.309091 248.297818 
L 293.672727 254.972692 
L 294.036364 252.615188 
L 294.4 254.606323 
L 294.763636 254.034056 
L 295.127273 254.260013 
L 295.490909 257.019874 
L 295.854545 256.956747 
L 296.581818 257.216332 
L 296.945455 257.983878 
L 297.309091 259.595075 
L 297.672727 260.637545 
L 298.036364 261.008633 
L 298.4 258.177977 
L 298.763636 258.964401 
L 299.127273 255.164431 
L 299.490909 254.65588 
L 299.854545 254.916055 
L 300.218182 254.508979 
L 300.581818 254.517238 
L 300.945455 253.4494 
L 301.309091 253.310168 
L 301.672727 254.83228 
L 302.036364 253.552644 
L 302.4 253.501907 
L 302.763636 253.018135 
L 303.127273 252.881853 
L 303.854545 253.921373 
L 304.218182 253.316068 
L 304.581818 254.626972 
L 304.945455 254.434053 
L 305.309091 254.475941 
L 305.672727 253.930812 
L 306.036364 254.737296 
L 306.763636 253.11371 
L 307.127273 253.415772 
L 307.490909 254.178008 
L 307.854545 254.567385 
L 308.581818 253.864736 
L 308.945455 253.886565 
L 309.309091 254.222255 
L 309.672727 254.31134 
L 310.036364 253.843497 
L 310.4 252.830526 
L 310.763636 252.900142 
L 311.127273 251.54381 
L 311.490909 251.467115 
L 311.854545 251.20694 
L 312.218182 251.89838 
L 312.945455 252.569761 
L 313.309091 253.501317 
L 314.036364 256.951438 
L 314.4 257.661167 
L 314.763636 256.729611 
L 315.127273 256.771498 
L 315.490909 255.409267 
L 315.854545 254.595114 
L 316.218182 254.879477 
L 316.581818 254.571515 
L 316.945455 257.165595 
L 317.672727 259.441684 
L 318.036364 259.516019 
L 318.4 260.068228 
L 318.763636 259.172659 
L 319.127273 258.98564 
L 319.490909 257.986828 
L 320.218182 258.343167 
L 320.581818 257.785649 
L 321.309091 257.206303 
L 321.672727 257.317807 
L 322.036364 257.60099 
L 322.4 256.670024 
L 322.763636 256.364422 
L 323.127273 256.503654 
L 323.490909 258.308359 
L 323.854545 258.81337 
L 324.218182 258.704226 
L 324.581818 258.759093 
L 324.945455 257.825767 
L 325.309091 259.654071 
L 326.036364 260.752588 
L 326.4 260.527811 
L 326.763636 259.288293 
L 327.127273 259.270004 
L 327.490909 259.131362 
L 327.854545 259.529589 
L 328.218182 259.342569 
L 328.581818 259.51248 
L 328.945455 258.567944 
L 329.309091 258.839919 
L 329.672727 258.429302 
L 330.036364 259.006879 
L 330.4 258.705406 
L 330.763636 255.238767 
L 331.127273 255.662362 
L 331.490909 258.537266 
L 331.854545 246.01111 
L 332.218182 243.500215 
L 332.581818 243.604639 
L 332.945455 240.606433 
L 333.309091 240.153339 
L 333.672727 239.510866 
L 334.036364 237.310883 
L 334.4 239.08727 
L 334.763636 241.600525 
L 335.127273 253.543205 
L 335.490909 248.063011 
L 335.854545 248.631149 
L 336.581818 248.43233 
L 336.945455 249.46595 
L 337.672727 250.192198 
L 338.036364 249.506068 
L 338.4 249.63704 
L 338.763636 254.579775 
L 339.127273 255.442895 
L 339.490909 255.87003 
L 340.218182 255.69245 
L 340.581818 255.87475 
L 340.945455 255.888319 
L 341.309091 257.478867 
L 341.672727 254.869448 
L 342.036364 254.83051 
L 342.4 254.31842 
L 343.127273 253.896004 
L 343.490909 253.261791 
L 343.854545 251.20399 
L 344.218182 250.981573 
L 344.581818 250.305472 
L 344.945455 251.136734 
L 345.309091 256.146724 
L 346.036364 257.583881 
L 346.4 256.591558 
L 346.763636 256.681823 
L 347.127273 258.192136 
L 347.854545 258.318979 
L 348.218182 256.697162 
L 348.581818 258.63579 
L 348.945455 258.675908 
L 349.309091 258.520157 
L 349.672727 258.674138 
L 350.036364 256.433448 
L 350.4 256.281236 
L 350.763636 255.320182 
L 351.127273 255.598646 
L 351.854545 250.308422 
L 352.581818 251.467705 
L 352.945455 251.332013 
L 353.309091 254.779773 
L 353.672727 252.298967 
L 354.036364 253.331407 
L 354.4 253.390404 
L 354.763636 255.336111 
L 355.490909 254.753225 
L 356.581818 254.690688 
L 356.945455 256.301885 
L 357.309091 255.413397 
L 357.672727 255.995693 
L 358.036364 254.747915 
L 358.4 254.290102 
L 359.127273 254.653521 
L 359.490909 254.288332 
L 359.854545 254.498359 
L 360.218182 253.743203 
L 360.581818 253.634059 
L 360.945455 253.295419 
L 361.672727 255.339651 
L 362.036364 255.025199 
L 362.763636 255.576817 
L 363.127273 255.160891 
L 363.490909 255.071806 
L 363.854545 254.628152 
L 364.218182 254.534937 
L 364.581818 254.272403 
L 364.945455 254.645261 
L 365.309091 254.716057 
L 365.672727 254.544967 
L 366.036364 255.514871 
L 366.4 254.934934 
L 366.763636 253.28008 
L 367.127273 250.629953 
L 367.490909 249.65297 
L 367.854545 249.585713 
L 368.218182 249.354447 
L 368.581818 252.707813 
L 368.945455 252.901912 
L 369.309091 251.37036 
L 369.672727 252.463567 
L 370.036364 252.706043 
L 370.4 251.926108 
L 370.763636 252.561501 
L 371.490909 250.131432 
L 371.854545 250.224057 
L 372.218182 248.855926 
L 372.581818 249.952082 
L 372.945455 249.546776 
L 373.309091 249.513148 
L 373.672727 252.358553 
L 374.036364 250.842341 
L 374.4 251.795726 
L 374.763636 251.647644 
L 375.127273 252.119617 
L 375.490909 253.848217 
L 375.854545 251.992774 
L 376.218182 252.357373 
L 376.581818 252.195723 
L 376.945455 251.857082 
L 377.309091 252.993946 
L 377.672727 253.232883 
L 378.763636 249.346187 
L 379.127273 251.589238 
L 379.490909 252.132006 
L 379.854545 252.127287 
L 380.218182 251.015201 
L 380.581818 250.326711 
L 380.945455 250.50193 
L 381.309091 251.306644 
L 381.672727 252.649996 
L 382.036364 253.190405 
L 382.4 252.748521 
L 382.763636 252.631707 
L 383.127273 253.181556 
L 383.490909 254.021077 
L 383.854545 249.694267 
L 384.218182 249.156218 
L 384.581818 248.25829 
L 384.945455 249.82111 
L 385.309091 250.093084 
L 385.672727 246.87187 
L 386.036364 247.366262 
L 386.4 246.906088 
L 386.763636 254.119601 
L 387.127273 257.638158 
L 387.490909 257.791549 
L 387.854545 257.013974 
L 388.218182 257.463528 
L 388.581818 259.117792 
L 388.945455 263.921295 
L 389.309091 263.980881 
L 390.036364 261.031642 
L 390.4 263.47882 
L 390.763636 263.6623 
L 391.127273 265.167893 
L 391.490909 262.551984 
L 391.854545 262.400953 
L 392.218182 261.810397 
L 392.581818 260.910699 
L 392.945455 261.993286 
L 393.672727 251.978615 
L 394.036364 252.07419 
L 394.4 251.924928 
L 394.763636 252.847635 
L 395.490909 244.46245 
L 395.854545 244.554484 
L 396.218182 243.706703 
L 396.581818 246.789275 
L 396.945455 245.183978 
L 397.309091 243.07249 
L 397.672727 243.140926 
L 398.036364 242.72264 
L 398.4 244.445341 
L 398.763636 246.916708 
L 399.127273 246.519661 
L 399.490909 247.458886 
L 399.854545 244.876016 
L 400.218182 245.245924 
L 400.581818 245.268343 
L 400.945455 244.991059 
L 401.672727 245.137961 
L 402.036364 245.123801 
L 402.4 244.303749 
L 402.763636 244.932652 
L 403.127273 246.898419 
L 403.854545 237.640084 
L 404.218182 240.084903 
L 404.581818 238.965147 
L 404.945455 238.903201 
L 405.309091 239.070161 
L 405.672727 239.903193 
L 406.4 242.484884 
L 406.763636 246.322022 
L 407.127273 245.763324 
L 407.490909 244.328527 
L 407.854545 244.953891 
L 408.218182 244.925573 
L 408.581818 245.948574 
L 408.945455 246.045328 
L 409.309091 246.450045 
L 410.036364 246.440605 
L 410.4 246.625855 
L 410.763636 245.83943 
L 411.127273 246.058897 
L 411.490909 244.958611 
L 411.854545 244.821739 
L 412.218182 245.646511 
L 412.581818 245.543267 
L 412.945455 244.962151 
L 413.309091 245.363328 
L 413.672727 245.379257 
L 414.036364 245.592824 
L 414.4 245.103743 
L 414.763636 246.239427 
L 415.490909 245.284862 
L 416.218182 245.274833 
L 416.581818 245.009938 
L 416.945455 245.32085 
L 417.309091 245.129111 
L 418.036364 245.592234 
L 418.4 242.785177 
L 418.763636 238.05129 
L 419.127273 238.110287 
L 419.490909 238.346863 
L 419.854545 238.371052 
L 420.581818 237.985214 
L 420.945455 236.432424 
L 421.309091 236.461922 
L 421.672727 238.844794 
L 422.036364 242.082527 
L 422.4 241.322651 
L 422.763636 239.850096 
L 423.127273 239.277829 
L 423.490909 239.78992 
L 423.854545 239.994048 
L 424.218182 242.044769 
L 424.581818 243.353314 
L 424.945455 243.376322 
L 425.309091 244.519676 
L 425.672727 241.220587 
L 426.036364 242.434737 
L 426.4 242.506713 
L 426.763636 242.327363 
L 427.127273 241.189909 
L 427.490909 241.144481 
L 427.854545 240.727376 
L 428.218182 239.580482 
L 428.581818 240.359237 
L 428.945455 238.290226 
L 429.309091 237.892589 
L 429.672727 237.820024 
L 430.036364 237.890819 
L 430.4 236.661921 
L 430.763636 237.989934 
L 431.490909 238.475476 
L 431.854545 237.741558 
L 432.218182 232.859 
L 432.581818 232.539239 
L 432.945455 232.546318 
L 433.309091 233.453096 
L 433.672727 232.535109 
L 434.036364 232.17877 
L 434.4 230.251351 
L 434.763636 230.201204 
L 435.490909 231.450162 
L 435.854545 229.325695 
L 436.218182 228.699741 
L 436.945455 228.329242 
L 437.672727 229.332184 
L 438.036364 228.032489 
L 438.4 231.578184 
L 438.763636 231.279072 
L 439.127273 231.786442 
L 439.490909 231.715646 
L 439.854545 232.16933 
L 440.218182 228.514491 
L 440.581818 234.530964 
L 440.945455 234.001174 
L 441.309091 234.178754 
L 441.672727 231.279072 
L 442.036364 230.086751 
L 442.4 229.714482 
L 442.763636 230.79471 
L 443.127273 230.995298 
L 443.490909 230.811819 
L 443.854545 230.771701 
L 444.218182 228.434846 
L 444.945455 231.457241 
L 445.309091 230.204744 
L 445.672727 226.485009 
L 446.036364 226.526306 
L 446.4 228.377619 
L 446.763636 228.977615 
L 447.127273 228.761097 
L 447.490909 232.014169 
L 447.854545 232.093815 
L 448.218182 237.424156 
L 448.581818 239.628269 
L 448.945455 239.014705 
L 449.309091 238.848334 
L 449.672727 239.843017 
L 450.4 245.727926 
L 450.763636 245.503149 
L 451.854545 247.236469 
L 452.218182 250.105473 
L 452.581818 249.81875 
L 452.945455 250.242346 
L 453.309091 250.307242 
L 453.672727 249.684828 
L 454.036364 250.269484 
L 454.763636 246.414057 
L 455.127273 246.629394 
L 455.490909 244.359206 
L 456.218182 242.412908 
L 456.581818 242.344472 
L 456.945455 243.688414 
L 457.309091 243.389302 
L 457.672727 247.615817 
L 458.036364 246.644733 
L 458.4 250.524349 
L 458.763636 251.679502 
L 459.127273 251.981565 
L 459.490909 251.673603 
L 459.854545 251.54853 
L 460.218182 251.085407 
L 460.581818 251.134964 
L 460.945455 251.36918 
L 461.309091 251.392189 
L 461.672727 251.148533 
L 462.036364 251.71903 
L 462.763636 251.684812 
L 463.127273 252.003394 
L 463.490909 251.861212 
L 463.854545 251.428177 
L 464.218182 249.838809 
L 464.581818 249.354447 
L 464.945455 247.962717 
L 465.309091 248.246491 
L 465.672727 247.696643 
L 466.4 247.22644 
L 466.763636 247.40343 
L 467.127273 247.110217 
L 467.490909 249.534976 
L 467.854545 249.513148 
L 468.218182 248.293688 
L 468.581818 244.164517 
L 468.945455 244.045934 
L 469.309091 237.237727 
L 469.672727 236.480801 
L 470.036364 234.364003 
L 470.4 234.840106 
L 470.763636 234.566952 
L 471.490909 235.057213 
L 471.854545 234.187014 
L 472.218182 226.681467 
L 472.581818 225.879114 
L 472.945455 222.018377 
L 473.672727 230.330406 
L 474.4 230.950461 
L 474.763636 230.600611 
L 475.127273 231.261963 
L 475.490909 231.066094 
L 475.854545 227.831901 
L 476.218182 228.982924 
L 476.581818 225.905072 
L 476.945455 228.258446 
L 477.309091 228.436616 
L 478.036364 228.062578 
L 478.4 226.403593 
L 478.763636 225.474987 
L 479.127273 227.909186 
L 479.490909 227.260814 
L 479.854545 229.968167 
L 480.218182 230.013005 
L 480.581818 227.360518 
L 480.945455 227.376447 
L 481.309091 228.01951 
L 481.672727 230.587042 
L 482.036364 231.47494 
L 482.4 231.682608 
L 482.763636 232.605905 
L 483.127273 232.530979 
L 483.490909 233.271386 
L 483.854545 231.492049 
L 484.218182 231.565205 
L 484.581818 230.993528 
L 484.945455 231.020077 
L 485.309091 229.519793 
L 485.672727 229.988226 
L 486.036364 229.015373 
L 486.4 228.447235 
L 486.763636 228.777026 
L 487.127273 235.424762 
L 487.490909 236.110892 
L 487.854545 236.241275 
L 488.218182 236.699088 
L 488.581818 237.87371 
L 488.945455 237.824743 
L 489.309091 239.249511 
L 489.672727 241.153921 
L 490.036364 241.410556 
L 490.4 241.273094 
L 490.763636 242.89196 
L 491.127273 238.161614 
L 491.490909 237.829463 
L 491.854545 232.992333 
L 492.218182 230.049583 
L 492.581818 229.75873 
L 492.945455 229.739851 
L 493.309091 230.231292 
L 493.672727 226.63958 
L 494.036364 227.065535 
L 494.4 226.939872 
L 494.763636 227.733967 
L 495.127273 232.224787 
L 495.490909 232.566377 
L 495.854545 233.339233 
L 496.218182 233.689672 
L 496.945455 238.06014 
L 497.672727 236.967523 
L 498.763636 237.038909 
L 499.127273 239.020604 
L 499.490909 238.832405 
L 499.854545 238.217071 
L 500.218182 239.107329 
L 500.581818 242.420578 
L 500.945455 241.963944 
L 501.309091 242.310254 
L 501.672727 242.116745 
L 502.4 239.843607 
L 502.763636 239.187565 
L 503.127273 237.806454 
L 503.490909 237.561619 
L 503.854545 239.700245 
L 504.218182 240.003487 
L 504.581818 238.75217 
L 504.945455 239.126798 
L 505.309091 239.206443 
L 505.672727 236.614133 
L 506.036364 235.359866 
L 506.4 234.572261 
L 506.763636 234.706774 
L 507.127273 233.434807 
L 507.490909 233.088497 
L 508.218182 231.65783 
L 508.581818 231.623612 
L 508.945455 235.876086 
L 509.672727 238.797007 
L 510.036364 238.57754 
L 510.4 240.256583 
L 510.763636 240.517938 
L 511.127273 238.871343 
L 511.490909 239.053052 
L 511.854545 238.933879 
L 512.218182 237.19171 
L 512.581818 237.838902 
L 512.945455 237.899669 
L 513.309091 237.063687 
L 514.036364 236.853659 
L 514.4 238.309695 
L 514.763636 238.169283 
L 515.127273 237.88433 
L 515.490909 237.381679 
L 515.854545 236.543337 
L 516.218182 236.694959 
L 516.581818 234.886123 
L 516.945455 232.161071 
L 517.309091 231.441312 
L 517.672727 231.162258 
L 518.036364 230.108579 
L 518.4 229.962858 
L 518.763636 230.292059 
L 519.127273 231.732755 
L 519.490909 232.298533 
L 519.854545 233.117995 
L 520.218182 227.50624 
L 520.581818 226.343417 
L 520.945455 218.123422 
L 521.309091 218.221946 
L 521.672727 217.725195 
L 522.036364 217.899235 
L 522.4 218.642592 
L 522.763636 213.158269 
L 523.127273 215.299845 
L 523.490909 218.734037 
L 523.854545 220.694493 
L 524.218182 228.02482 
L 524.581818 220.429009 
L 525.309091 219.606006 
L 525.672727 219.841403 
L 526.036364 227.374677 
L 526.4 226.166427 
L 526.763636 228.210069 
L 527.490909 229.331594 
L 527.854545 233.811795 
L 528.218182 232.808263 
L 528.581818 233.168142 
L 529.309091 232.593516 
L 529.672727 233.642475 
L 530.036364 233.253688 
L 530.4 233.309734 
L 531.127273 237.837723 
L 531.490909 238.456597 
L 532.218182 238.994056 
L 532.581818 238.207631 
L 532.945455 238.794647 
L 533.672727 240.322659 
L 534.036364 239.551573 
L 534.4 240.000538 
L 534.763636 239.625319 
L 535.127273 239.569272 
L 535.490909 241.390497 
L 535.854545 240.689028 
L 536.945455 240.946843 
L 537.309091 240.968672 
L 537.672727 245.259494 
L 538.036364 245.547397 
L 538.4 244.727344 
L 538.763636 244.293129 
L 539.127273 242.005832 
L 539.490909 241.365719 
L 539.854545 241.68371 
L 540.218182 241.568077 
L 540.581818 242.967476 
L 540.945455 242.163942 
L 541.309091 240.64832 
L 541.672727 242.03002 
L 542.036364 241.940935 
L 542.4 242.132674 
L 542.763636 241.931496 
L 543.127273 242.045359 
L 543.490909 242.535621 
L 543.854545 237.100855 
L 544.945455 236.717967 
L 545.309091 234.972848 
L 545.672727 234.554562 
L 546.4 236.573426 
L 546.763636 239.913813 
L 547.127273 241.066016 
L 547.490909 241.392267 
L 547.854545 240.895516 
L 548.218182 240.611152 
L 548.581818 242.962756 
L 548.945455 242.955677 
L 549.309091 242.340342 
L 549.672727 241.252445 
L 550.036364 241.362179 
L 550.4 241.353919 
L 550.763636 241.540938 
L 551.490909 239.135648 
L 551.854545 238.479015 
L 552.218182 238.322675 
L 552.581818 238.684914 
L 552.945455 237.994064 
L 553.309091 236.648351 
L 553.672727 234.743351 
L 554.036364 229.907401 
L 554.4 230.718604 
L 555.127273 231.367567 
L 555.490909 228.473784 
L 555.854545 228.760507 
L 556.218182 231.001198 
L 556.945455 233.238348 
L 557.309091 235.538035 
L 557.672727 231.153409 
L 558.4 230.164036 
L 558.763636 230.309758 
L 559.854545 225.59239 
L 560.218182 229.441918 
L 560.581818 230.181145 
L 560.945455 232.217707 
L 561.309091 231.664909 
L 561.672727 231.353407 
L 562.036364 232.543959 
L 562.4 232.874929 
L 562.763636 233.974626 
L 563.490909 235.200575 
L 563.854545 235.205885 
L 564.581818 235.906764 
L 564.945455 239.770451 
L 565.309091 229.016552 
L 565.672727 214.17891 
L 566.763636 213.157679 
L 567.127273 215.729341 
L 567.854545 215.241439 
L 568.581818 207.049762 
L 568.945455 206.342393 
L 569.309091 206.365992 
L 569.672727 206.699322 
L 570.036364 205.652723 
L 570.4 206.581919 
L 571.127273 206.655665 
L 571.490909 207.819668 
L 571.854545 211.325245 
L 572.218182 210.809025 
L 572.581818 211.40843 
L 572.945455 212.360045 
L 573.309091 212.922873 
L 573.672727 212.607241 
L 574.036364 212.781871 
L 574.763636 213.885107 
L 575.127273 219.457925 
L 575.490909 222.334599 
L 575.854545 227.706238 
L 576.218182 227.698569 
L 576.581818 228.057268 
L 576.945455 227.949304 
L 577.309091 224.180012 
L 577.672727 226.848428 
L 578.036364 227.015978 
L 578.763636 228.912128 
L 579.127273 235.060753 
L 579.490909 235.402933 
L 579.854545 235.481989 
L 580.218182 235.199985 
L 580.581818 235.133909 
L 580.945455 234.842466 
L 581.309091 235.693197 
L 581.672727 235.548065 
L 582.036364 235.551605 
L 582.4 235.81355 
L 582.763636 234.42831 
L 583.127273 235.266651 
L 583.490909 234.453088 
L 583.854545 234.484356 
L 584.218182 233.351622 
L 584.581818 232.878469 
L 585.309091 233.493214 
L 585.672727 232.139242 
L 586.036364 232.066086 
L 586.4 232.151631 
L 586.763636 232.092045 
L 587.127273 232.434815 
L 587.490909 231.838359 
L 587.854545 230.96816 
L 588.218182 231.104442 
L 588.581818 230.517426 
L 588.945455 232.070216 
L 589.309091 231.83482 
L 589.672727 232.115643 
L 590.036364 230.112709 
L 590.4 229.113307 
L 590.763636 229.987046 
L 591.127273 228.675552 
L 591.854545 227.657861 
L 592.581818 227.653141 
L 592.945455 227.053736 
L 593.309091 227.373497 
L 593.672727 229.92746 
L 594.036364 229.848994 
L 594.4 230.841907 
L 594.763636 229.963448 
L 595.490909 230.981729 
L 595.854545 230.385863 
L 596.218182 231.782313 
L 596.581818 231.334528 
L 596.945455 229.323335 
L 597.309091 228.871421 
L 597.672727 229.58469 
L 598.036364 229.829525 
L 598.4 232.612395 
L 598.763636 231.850749 
L 599.127273 233.843063 
L 599.490909 232.242486 
L 599.854545 232.494401 
L 600.218182 235.665468 
L 600.945455 236.32446 
L 601.309091 235.551605 
L 601.672727 234.387602 
L 602.036364 237.53507 
L 602.4 237.379319 
L 602.763636 238.216481 
L 603.127273 238.171053 
L 603.490909 237.872531 
L 603.854545 238.083738 
L 604.218182 238.103207 
L 604.581818 237.727989 
L 604.945455 236.540978 
L 605.672727 236.735076 
L 606.036364 238.550991 
L 606.4 239.626499 
L 606.763636 239.909093 
L 607.127273 237.254246 
L 607.854545 238.980486 
L 608.218182 238.91677 
L 608.581818 239.113819 
L 608.945455 242.950367 
L 609.309091 243.498445 
L 609.672727 245.737956 
L 610.036364 245.416424 
L 610.4 246.954466 
L 611.127273 242.109666 
L 611.490909 238.306155 
L 611.854545 238.256008 
L 612.218182 238.781078 
L 612.581818 240.812921 
L 612.945455 240.65481 
L 613.309091 239.469568 
L 613.672727 238.92385 
L 614.036364 242.765708 
L 614.4 243.394611 
L 614.763636 246.00934 
L 615.127273 244.263041 
L 615.854545 244.387524 
L 616.218182 246.224088 
L 616.581818 246.982784 
L 616.945455 232.327441 
L 617.672727 232.646613 
L 618.4 231.625382 
L 618.763636 234.266069 
L 619.127273 234.859575 
L 619.490909 234.228901 
L 619.854545 230.79353 
L 620.218182 243.342694 
L 620.581818 239.978119 
L 621.309091 239.054232 
L 621.672727 238.128576 
L 622.036364 238.851874 
L 622.4 238.92267 
L 622.763636 240.775163 
L 623.127273 245.135011 
L 623.490909 246.225268 
L 623.854545 245.933825 
L 624.218182 246.091345 
L 624.581818 245.132651 
L 624.945455 245.760375 
L 625.309091 245.364507 
L 625.672727 246.121434 
L 626.036364 247.383961 
L 626.4 246.098425 
L 627.127273 247.286026 
L 627.490909 242.859512 
L 627.854545 242.021761 
L 628.218182 235.765172 
L 628.581818 234.25604 
L 628.945455 234.100289 
L 629.309091 233.589968 
L 629.672727 234.341585 
L 630.036364 234.139226 
L 630.4 233.327433 
L 630.763636 233.91091 
L 631.127273 234.745711 
L 631.490909 239.372224 
L 632.945455 237.097315 
L 633.309091 234.375213 
L 633.672727 234.24188 
L 634.036364 234.618279 
L 634.4 233.061949 
L 634.763636 230.387043 
L 635.127273 230.769341 
L 635.490909 230.417721 
L 635.854545 229.4077 
L 636.218182 226.366426 
L 636.581818 226.299759 
L 636.945455 226.056694 
L 637.309091 226.371735 
L 637.672727 228.19945 
L 638.036364 227.516859 
L 638.4 227.959334 
L 638.763636 228.011841 
L 639.127273 222.48032 
L 639.490909 221.531065 
L 639.854545 219.433736 
L 640.218182 218.060886 
L 640.581818 218.16236 
L 640.945455 217.837289 
L 641.309091 213.910476 
L 641.672727 214.060327 
L 642.036364 212.076272 
L 642.4 212.564763 
L 642.763636 213.387766 
L 643.127273 213.216086 
L 643.490909 213.645581 
L 643.854545 213.119921 
L 644.218182 213.14647 
L 644.581818 213.440863 
L 644.945455 211.532323 
L 645.309091 212.27096 
L 645.672727 209.583666 
L 646.036364 209.423785 
L 646.4 208.682198 
L 646.763636 206.386051 
L 647.127273 206.925279 
L 647.490909 201.04096 
L 647.854545 201.772517 
L 648.218182 202.019123 
L 648.581818 202.59434 
L 648.945455 203.559524 
L 649.309091 203.151268 
L 649.672727 201.349512 
L 650.036364 201.474584 
L 650.4 201.400839 
L 650.763636 203.067492 
L 651.127273 202.59257 
L 651.490909 203.529436 
L 651.854545 204.825001 
L 652.218182 199.753654 
L 652.581818 199.467521 
L 652.945455 198.412072 
L 653.309091 198.128888 
L 653.672727 199.047465 
L 654.036364 198.937731 
L 654.4 198.009715 
L 655.127273 196.991434 
L 655.490909 196.992614 
L 656.218182 198.630949 
L 656.581818 196.984354 
L 656.945455 196.840402 
L 657.309091 195.936575 
L 657.672727 195.802652 
L 658.036364 196.774916 
L 658.4 194.779062 
L 658.763636 194.698826 
L 659.490909 195.272863 
L 659.854545 196.964885 
L 660.218182 194.866966 
L 660.581818 194.622131 
L 660.945455 191.86994 
L 661.309091 191.951945 
L 661.672727 194.755463 
L 662.036364 195.507669 
L 662.4 195.819171 
L 662.763636 194.062843 
L 663.127273 194.339537 
L 663.490909 195.354868 
L 663.854545 195.119472 
L 664.218182 195.049266 
L 664.581818 195.223306 
L 664.945455 198.004995 
L 665.309091 198.145997 
L 665.672727 201.537121 
L 666.036364 202.688144 
L 666.4 202.794338 
L 666.763636 200.922376 
L 667.127273 200.753056 
L 667.490909 200.779015 
L 667.854545 201.633285 
L 668.581818 201.793166 
L 668.945455 202.183723 
L 669.309091 203.586662 
L 669.672727 204.206717 
L 670.036364 205.53237 
L 670.4 205.1896 
L 670.763636 205.081636 
L 671.127273 205.322932 
L 671.490909 218.293922 
L 671.854545 219.959986 
L 672.218182 219.577688 
L 672.945455 218.184779 
L 673.309091 216.099839 
L 673.672727 214.768286 
L 674.036364 214.655603 
L 674.4 215.348812 
L 674.763636 217.750564 
L 675.127273 217.892745 
L 675.490909 221.515136 
L 675.854545 222.647871 
L 676.218182 222.387106 
L 676.581818 221.547584 
L 676.945455 221.44316 
L 677.309091 220.187123 
L 677.672727 220.913371 
L 678.036364 219.782406 
L 678.4 220.597739 
L 679.127273 220.770009 
L 679.490909 221.902744 
L 680.218182 223.069696 
L 680.581818 225.622479 
L 680.945455 225.041362 
L 681.309091 226.482059 
L 681.672727 226.563474 
L 682.036364 226.002417 
L 682.4 227.292672 
L 682.763636 229.393541 
L 683.127273 234.500285 
L 683.490909 234.096159 
L 684.218182 230.712704 
L 684.581818 230.522735 
L 684.945455 228.331012 
L 685.309091 228.590007 
L 685.672727 228.389419 
L 686.036364 225.031923 
L 686.763636 226.179996 
L 687.490909 230.941021 
L 687.854545 229.560501 
L 688.218182 229.694423 
L 688.581818 228.723339 
L 688.945455 227.242525 
L 689.309091 229.633657 
L 689.672727 225.566432 
L 690.036364 227.236035 
L 690.4 226.47085 
L 690.763636 224.896231 
L 691.127273 225.42602 
L 691.490909 222.036666 
L 691.854545 222.369997 
L 692.218182 223.231937 
L 692.581818 222.622502 
L 692.945455 225.996517 
L 693.672727 223.811873 
L 694.036364 223.325741 
L 694.763636 226.592383 
L 695.127273 227.132791 
L 695.490909 228.640154 
L 695.854545 228.516851 
L 696.218182 230.499727 
L 696.581818 227.16052 
L 696.945455 229.274958 
L 697.309091 226.228374 
L 697.672727 225.570562 
L 698.036364 223.811283 
L 698.4 220.733431 
L 698.763636 220.215441 
L 699.127273 211.260349 
L 699.490909 213.83968 
L 699.854545 215.063269 
L 700.218182 215.460316 
L 700.581818 217.64614 
L 700.945455 216.742312 
L 701.309091 217.263252 
L 701.672727 220.829006 
L 702.036364 221.297439 
L 702.4 228.105645 
L 702.763636 221.043753 
L 703.127273 218.554687 
L 703.490909 218.980643 
L 703.854545 217.12815 
L 704.218182 217.842008 
L 704.581818 212.308718 
L 704.945455 212.243232 
L 705.309091 211.774799 
L 705.672727 206.886932 
L 706.036364 211.569491 
L 706.763636 211.377162 
L 707.127273 212.876855 
L 707.490909 213.452662 
L 707.854545 212.768892 
L 708.218182 212.893964 
L 708.581818 213.48452 
L 708.945455 211.784829 
L 709.309091 214.984804 
L 709.672727 212.432021 
L 710.036364 212.10164 
L 710.4 212.11108 
L 710.763636 212.783641 
L 711.127273 214.673892 
L 711.490909 210.647374 
L 711.854545 208.082203 
L 712.218182 208.449161 
L 712.581818 207.559493 
L 712.945455 209.038537 
L 713.309091 209.946495 
L 713.672727 209.725258 
L 714.036364 207.194304 
L 714.4 207.299908 
L 714.763636 209.865079 
L 715.127273 207.863325 
L 715.854545 205.398448 
L 716.218182 204.931195 
L 716.581818 205.18193 
L 716.945455 205.260396 
L 717.309091 205.059217 
L 717.672727 205.653313 
L 718.036364 205.52765 
L 718.4 206.790767 
L 718.763636 206.593719 
L 719.127273 206.709942 
L 719.490909 205.590187 
L 719.854545 205.53237 
L 720.218182 204.764234 
L 720.581818 204.456862 
L 720.945455 204.351848 
L 721.309091 203.932972 
L 721.672727 203.145958 
L 722.036364 202.9377 
L 722.4 201.754228 
L 722.763636 202.894632 
L 723.127273 203.271621 
L 723.490909 202.152455 
L 723.854545 202.24095 
L 724.218182 201.622666 
L 724.581818 201.760128 
L 724.945455 203.358936 
L 725.309091 201.073408 
L 725.672727 199.662799 
L 726.036364 199.804391 
L 726.4 200.379018 
L 726.763636 201.590808 
L 727.127273 201.446266 
L 727.490909 198.240981 
L 727.854545 197.508834 
L 728.218182 196.36194 
L 728.581818 197.694673 
L 728.945455 197.075209 
L 729.309091 196.041589 
L 729.672727 196.171971 
L 730.036364 195.783183 
L 730.4 195.862239 
L 730.763636 196.235687 
L 731.127273 197.353673 
L 731.490909 197.585529 
L 731.854545 194.864607 
L 732.218182 196.574328 
L 732.581818 196.466954 
L 732.945455 195.167259 
L 733.309091 195.33186 
L 733.672727 195.725367 
L 734.036364 195.410325 
L 734.4 192.869932 
L 734.763636 191.770235 
L 735.127273 192.077018 
L 735.490909 190.018627 
L 735.854545 190.614492 
L 736.218182 190.843989 
L 736.581818 187.768497 
L 736.945455 187.074107 
L 737.309091 186.899477 
L 737.672727 188.024542 
L 738.036364 189.519516 
L 738.4 186.311281 
L 738.763636 185.087692 
L 739.127273 184.988577 
L 739.490909 179.462367 
L 739.854545 182.550838 
L 740.218182 181.629902 
L 740.581818 179.693044 
L 740.945455 180.541415 
L 741.309091 180.162066 
L 741.672727 181.011617 
L 742.036364 179.547912 
L 742.4 174.937328 
L 742.763636 175.835847 
L 743.127273 172.686019 
L 743.490909 174.494264 
L 743.854545 175.26004 
L 744.218182 174.470075 
L 744.581818 177.945565 
L 744.945455 177.379197 
L 745.309091 178.89423 
L 745.672727 181.14023 
L 746.036364 180.772681 
L 746.4 184.796249 
L 746.763636 184.287698 
L 747.127273 185.28356 
L 747.490909 185.413943 
L 747.854545 188.139585 
L 748.218182 188.325425 
L 748.945455 184.76498 
L 749.309091 184.367343 
L 749.672727 184.553773 
L 750.036364 185.494178 
L 750.4 185.694767 
L 750.763636 186.369098 
L 751.127273 187.738998 
L 751.490909 188.416279 
L 751.854545 187.598587 
L 752.218182 190.123051 
L 752.581818 189.560223 
L 752.945455 191.492951 
L 753.309091 189.893554 
L 753.672727 195.787903 
L 754.036364 195.553687 
L 754.4 195.50295 
L 754.763636 196.994973 
L 755.127273 196.917688 
L 755.490909 194.901184 
L 755.854545 195.85044 
L 756.218182 195.012688 
L 756.581818 195.84218 
L 756.945455 195.371387 
L 757.309091 195.32065 
L 757.672727 199.890526 
L 758.036364 199.905275 
L 758.4 200.243326 
L 758.763636 202.462187 
L 759.490909 212.181286 
L 759.854545 210.839703 
L 760.218182 211.468017 
L 760.581818 209.223197 
L 760.945455 209.125262 
L 761.309091 209.16597 
L 761.672727 209.547088 
L 762.036364 208.978951 
L 762.4 211.192503 
L 763.127273 209.797233 
L 763.490909 209.974223 
L 763.854545 210.409618 
L 764.218182 209.587206 
L 764.581818 211.596039 
L 764.945455 211.737041 
L 765.309091 213.049715 
L 765.672727 212.573023 
L 766.036364 214.246166 
L 766.4 214.055607 
L 766.763636 214.267995 
L 767.127273 213.469181 
L 767.490909 213.429653 
L 767.854545 212.516386 
L 768.218182 212.562404 
L 768.581818 213.583045 
L 768.945455 218.654391 
L 769.309091 217.583013 
L 769.672727 217.259122 
L 770.036364 220.264408 
L 770.4 218.547608 
L 770.763636 217.567084 
L 771.127273 217.927553 
L 771.490909 217.29098 
L 772.218182 214.883919 
L 772.581818 214.556488 
L 773.309091 216.245561 
L 773.672727 215.520493 
L 774.036364 212.489838 
L 774.4 213.514019 
L 774.763636 213.042046 
L 775.127273 214.785985 
L 775.490909 213.48924 
L 776.218182 213.293371 
L 776.945455 216.072701 
L 777.309091 215.461496 
L 777.672727 215.895711 
L 778.036364 213.437323 
L 778.4 214.226697 
L 778.763636 213.407235 
L 779.127273 210.917579 
L 779.490909 211.366543 
L 779.854545 212.97479 
L 780.218182 212.957091 
L 780.581818 215.021381 
L 780.945455 213.721097 
L 781.309091 210.845603 
L 781.672727 210.20667 
L 782.036364 212.510487 
L 782.4 216.014294 
L 782.763636 214.893949 
L 783.127273 215.246158 
L 783.490909 212.408422 
L 783.854545 212.656798 
L 784.218182 213.539977 
L 784.581818 212.872726 
L 784.945455 213.221985 
L 785.309091 212.654438 
L 785.672727 212.512846 
L 786.036364 211.640877 
L 786.4 211.120527 
L 786.763636 213.301041 
L 787.127273 212.980099 
L 787.490909 214.512241 
L 787.854545 214.456194 
L 788.218182 214.285104 
L 788.581818 214.449704 
L 788.945455 214.36003 
L 789.309091 214.791885 
L 789.672727 216.807798 
L 790.036364 217.083312 
L 790.4 214.890999 
L 790.763636 214.86563 
L 791.127273 210.802535 
L 791.490909 211.316986 
L 791.854545 209.386617 
L 792.218182 210.558879 
L 792.581818 203.859227 
L 792.945455 201.568979 
L 793.309091 203.598462 
L 793.672727 204.360108 
L 794.036364 202.905842 
L 794.4 209.997232 
L 795.127273 215.947038 
L 795.490909 212.669777 
L 795.854545 211.914621 
L 796.218182 211.994266 
L 796.581818 212.333497 
L 796.945455 214.063277 
L 797.309091 218.3246 
L 797.672727 216.813108 
L 798.036364 218.578876 
L 798.4 216.761781 
L 798.763636 219.571198 
L 799.490909 220.511014 
L 799.854545 219.063828 
L 800.581818 215.101027 
L 800.945455 215.793057 
L 801.672727 214.69867 
L 802.036364 214.944686 
L 802.763636 213.301041 
L 803.127273 215.105157 
L 803.490909 214.86976 
L 803.854545 215.992465 
L 804.218182 214.099855 
L 804.581818 213.965342 
L 804.945455 211.028492 
L 805.309091 209.306382 
L 805.672727 209.567737 
L 806.036364 211.829076 
L 806.4 212.132908 
L 806.763636 211.24383 
L 807.127273 208.619072 
L 807.490909 209.638533 
L 807.854545 208.452111 
L 808.218182 213.079804 
L 808.581818 214.770646 
L 808.945455 215.465036 
L 809.309091 222.384156 
L 809.672727 223.035478 
L 810.036364 218.971203 
L 810.4 216.338185 
L 810.763636 216.113998 
L 811.127273 213.708117 
L 811.854545 214.339381 
L 812.218182 213.65974 
L 812.581818 213.270363 
L 813.309091 213.382456 
L 813.672727 214.732888 
L 814.036364 214.774776 
L 814.4 215.624917 
L 814.763636 215.860903 
L 815.127273 215.194831 
L 815.490909 215.059139 
L 816.218182 215.008402 
L 816.581818 215.862673 
L 816.945455 215.701612 
L 817.309091 214.514601 
L 817.672727 214.823153 
L 818.4 214.626694 
L 818.763636 214.149412 
L 819.127273 214.163571 
L 819.490909 213.761214 
L 820.218182 213.816081 
L 820.581818 216.214882 
L 820.945455 216.101019 
L 821.309091 216.334056 
L 821.672727 216.102789 
L 822.036364 217.623131 
L 822.4 216.991868 
L 822.763636 214.896899 
L 823.127273 213.67036 
L 823.490909 213.955313 
L 823.854545 213.064465 
L 824.218182 213.973012 
L 824.581818 214.157081 
L 824.945455 210.948847 
L 825.309091 209.978943 
L 825.672727 210.191331 
L 826.036364 208.199016 
L 826.763636 210.924658 
L 827.127273 211.789548 
L 827.490909 211.24796 
L 827.854545 209.758296 
L 828.218182 214.52286 
L 828.581818 214.885689 
L 828.945455 214.404867 
L 829.309091 196.601466 
L 829.672727 193.386152 
L 830.036364 192.667574 
L 830.4 188.9207 
L 830.763636 189.209193 
L 831.127273 188.124246 
L 831.490909 184.08593 
L 831.854545 183.953187 
L 832.218182 183.454666 
L 832.581818 184.300087 
L 832.945455 188.301826 
L 833.309091 188.272918 
L 833.672727 190.745465 
L 834.036364 190.938973 
L 834.4 190.705937 
L 834.763636 191.582626 
L 835.127273 191.770825 
L 835.490909 193.724202 
L 835.854545 194.400893 
L 836.218182 194.354286 
L 836.581818 194.189686 
L 836.945455 188.393271 
L 837.309091 187.803305 
L 837.672727 188.085308 
L 838.036364 188.952558 
L 838.4 190.683518 
L 838.763636 190.325409 
L 839.127273 190.943693 
L 839.490909 192.588518 
L 839.854545 191.877019 
L 840.218182 192.578489 
L 840.581818 191.100624 
L 840.945455 192.115365 
L 841.309091 192.173182 
L 841.672727 191.974364 
L 842.4 188.125426 
L 842.763636 188.06171 
L 843.127273 188.563181 
L 843.490909 188.651086 
L 843.854545 191.099444 
L 844.218182 183.271187 
L 844.581818 181.613383 
L 844.945455 179.343784 
L 845.309091 181.424003 
L 845.672727 182.52547 
L 846.036364 187.36968 
L 846.4 186.611574 
L 846.763636 189.073501 
L 847.127273 190.749594 
L 847.490909 200.117663 
L 847.854545 194.013286 
L 848.218182 192.03336 
L 848.581818 191.084105 
L 849.309091 185.819249 
L 849.672727 186.374407 
L 850.036364 185.871756 
L 850.4 188.727781 
L 850.763636 188.838695 
L 851.127273 187.092396 
L 851.490909 187.459945 
L 851.854545 187.271745 
L 852.581818 189.195034 
L 853.309091 186.900067 
L 853.672727 185.216304 
L 854.036364 185.80922 
L 854.4 186.644612 
L 854.763636 185.623381 
L 855.127273 185.692997 
L 855.490909 185.29772 
L 855.854545 185.160847 
L 856.218182 187.619235 
L 856.581818 187.966135 
L 856.945455 188.540172 
L 857.672727 189.170256 
L 858.036364 187.993274 
L 858.4 188.884712 
L 858.763636 189.43633 
L 859.127273 191.478202 
L 859.490909 194.726555 
L 859.854545 195.123602 
L 860.218182 195.000889 
L 860.581818 195.234515 
L 860.945455 196.240997 
L 861.309091 196.822703 
L 861.672727 197.823876 
L 862.036364 199.99967 
L 862.4 200.245096 
L 862.763636 201.20792 
L 863.127273 201.610277 
L 863.490909 202.571331 
L 864.218182 201.135944 
L 864.945455 201.962486 
L 865.309091 203.436811 
L 865.672727 203.304659 
L 866.036364 205.250956 
L 866.4 205.625585 
L 866.763636 206.514073 
L 867.127273 207.101679 
L 867.854545 206.589589 
L 868.945455 204.649191 
L 869.309091 205.056267 
L 869.672727 204.373087 
L 870.036364 204.371317 
L 870.4 202.945959 
L 871.127273 202.918231 
L 871.490909 201.685202 
L 871.854545 201.89346 
L 872.218182 202.570151 
L 872.581818 202.355994 
L 873.309091 204.950664 
L 873.672727 197.710012 
L 874.036364 196.961345 
L 874.4 198.044523 
L 874.763636 198.033313 
L 875.127273 198.182575 
L 875.490909 198.063402 
L 875.854545 198.526525 
L 876.218182 197.945998 
L 876.581818 198.105289 
L 876.945455 201.71706 
L 877.309091 199.566635 
L 877.672727 196.564298 
L 878.036364 196.231558 
L 878.4 195.336579 
L 878.763636 196.005601 
L 879.127273 195.83687 
L 879.490909 197.05338 
L 879.854545 200.800843 
L 880.581818 203.909374 
L 880.945455 192.393829 
L 881.309091 191.203868 
L 881.672727 192.787927 
L 882.036364 190.82924 
L 882.4 190.523637 
L 882.763636 189.073501 
L 883.127273 186.736056 
L 883.490909 186.319541 
L 883.854545 186.793873 
L 884.218182 209.893398 
L 884.581818 212.007836 
L 884.945455 210.89575 
L 885.309091 215.521673 
L 886.036364 214.536429 
L 886.4 217.720475 
L 887.127273 209.433814 
L 887.490909 207.721143 
L 888.218182 208.593703 
L 888.581818 207.138847 
L 888.945455 202.406731 
L 889.309091 203.409083 
L 889.672727 199.373716 
L 890.036364 202.544193 
L 890.4 201.865142 
L 890.763636 160.690242 
L 891.490909 160.286115 
L 891.854545 161.905572 
L 892.218182 160.812365 
L 892.581818 160.978735 
L 892.945455 156.466676 
L 893.309091 148.835467 
L 893.672727 148.982369 
L 894.036364 148.361135 
L 894.4 142.458526 
L 894.763636 142.147024 
L 895.127273 143.648487 
L 895.490909 143.290378 
L 896.581818 131.227935 
L 896.945455 131.734126 
L 897.309091 133.061549 
L 897.672727 132.881609 
L 898.4 134.064491 
L 898.763636 141.064436 
L 899.127273 144.616621 
L 899.490909 144.960571 
L 899.854545 148.630749 
L 900.218182 146.454365 
L 900.581818 146.790055 
L 900.945455 142.371211 
L 901.309091 112.410973 
L 901.672727 106.75733 
L 902.036364 104.267673 
L 902.4 104.422245 
L 902.763636 112.401533 
L 903.127273 115.944279 
L 903.490909 117.406214 
L 903.854545 117.748394 
L 904.218182 117.265802 
L 904.581818 114.478803 
L 904.945455 115.033961 
L 905.309091 114.803874 
L 905.672727 115.667584 
L 906.036364 115.356672 
L 906.4 114.084706 
L 907.127273 116.09531 
L 907.490909 116.991468 
L 907.854545 118.728328 
L 908.218182 119.37139 
L 908.581818 119.362541 
L 908.945455 118.16963 
L 909.309091 117.626861 
L 909.672727 112.931323 
L 910.4 113.280582 
L 910.763636 113.071145 
L 911.127273 113.114802 
L 911.854545 113.756685 
L 912.218182 113.84931 
L 912.581818 111.535463 
L 912.945455 113.757865 
L 913.309091 113.216866 
L 913.672727 112.28708 
L 914.036364 111.779709 
L 914.4 111.795638 
L 914.763636 111.008624 
L 915.127273 109.828692 
L 915.490909 109.711879 
L 915.854545 109.724268 
L 916.218182 105.180941 
L 916.581818 105.219878 
L 916.945455 104.188028 
L 917.309091 104.592745 
L 917.672727 102.048812 
L 918.4 103.416943 
L 918.763636 105.166192 
L 919.127273 105.416927 
L 919.854545 103.62756 
L 920.218182 101.668874 
L 920.581818 98.602231 
L 920.945455 96.625845 
L 921.309091 93.178674 
L 921.672727 91.53149 
L 922.036364 87.71795 
L 922.4 86.872529 
L 922.763636 87.300844 
L 923.127273 88.965138 
L 923.490909 91.86718 
L 923.854545 91.51733 
L 924.218182 92.172783 
L 924.581818 89.325017 
L 924.945455 88.463077 
L 925.309091 84.560453 
L 925.672727 88.607619 
L 926.036364 88.044791 
L 926.763636 88.40939 
L 927.127273 89.729734 
L 927.490909 87.527391 
L 927.854545 87.051879 
L 928.218182 91.032379 
L 928.581818 98.375684 
L 928.945455 94.132649 
L 929.309091 94.354476 
L 929.672727 94.335598 
L 930.4 94.929693 
L 930.763636 94.686627 
L 931.127273 91.093145 
L 931.490909 90.822941 
L 931.854545 69.349362 
L 932.218182 72.119252 
L 932.581818 71.10687 
L 932.945455 71.203035 
L 933.309091 70.576491 
L 933.672727 69.138744 
L 934.036364 69.107476 
L 934.763636 76.277921 
L 935.127273 77.152251 
L 935.490909 68.373558 
L 935.854545 76.350487 
L 936.218182 76.523937 
L 936.581818 75.071441 
L 936.945455 79.055481 
L 937.672727 79.07436 
L 938.036364 78.439556 
L 938.763636 82.227137 
L 939.127273 82.565778 
L 939.490909 81.261363 
L 939.854545 84.61001 
L 940.218182 84.847766 
L 940.945455 88.332105 
L 941.309091 69.932838 
L 941.672727 69.626646 
L 942.036364 67.789492 
L 942.4 66.96 
L 942.763636 76.633081 
L 943.127273 75.011265 
L 943.490909 80.518596 
L 943.854545 80.565204 
L 944.218182 80.434821 
L 944.581818 89.914393 
L 944.945455 85.834779 
L 945.309091 86.603505 
L 946.036364 87.622966 
L 946.4 88.993456 
L 946.763636 89.126789 
L 947.127273 90.465421 
L 947.490909 97.595749 
L 947.854545 96.998114 
L 948.218182 108.270592 
L 948.581818 108.450532 
L 948.945455 111.475287 
L 949.672727 112.690027 
L 950.036364 112.433391 
L 950.4 111.930151 
L 950.763636 114.971425 
L 951.127273 121.772552 
L 951.490909 123.857491 
L 951.854545 124.438607 
L 952.218182 125.522375 
L 952.581818 126.176647 
L 952.945455 126.263962 
L 953.309091 130.000216 
L 953.672727 141.365909 
L 954.036364 145.318091 
L 954.763636 145.951124 
L 955.490909 145.760565 
L 955.854545 148.705675 
L 956.218182 150.68914 
L 956.581818 155.039549 
L 956.945455 155.422436 
L 957.309091 156.22184 
L 958.4 159.51385 
L 958.763636 159.85249 
L 959.127273 163.585795 
L 959.490909 165.22649 
L 960.218182 165.39286 
L 960.581818 167.965111 
L 960.945455 171.560364 
L 961.309091 172.395165 
L 961.672727 173.643533 
L 962.036364 173.898399 
L 962.4 173.988073 
L 962.763636 174.665944 
L 963.127273 174.595148 
L 963.490909 174.808716 
L 963.854545 175.43821 
L 964.218182 179.875343 
L 964.581818 181.341408 
L 964.945455 181.380346 
L 966.036364 183.644635 
L 966.4 187.736049 
L 966.763636 187.858762 
L 967.127273 187.731919 
L 967.490909 188.256989 
L 968.218182 190.094732 
L 969.309091 192.087637 
L 970.4 197.963107 
L 970.763636 201.242138 
L 971.127273 202.871034 
L 971.490909 203.560704 
L 972.218182 206.05685 
L 972.581818 209.618474 
L 972.945455 209.575406 
L 973.309091 210.283955 
L 973.672727 210.396049 
L 974.036364 210.696931 
L 974.4 212.086891 
L 974.763636 217.213695 
L 975.127273 218.116343 
L 975.490909 222.675599 
L 975.854545 225.690915 
L 976.218182 230.943971 
L 976.945455 237.210589 
L 977.309091 237.288464 
L 977.672727 238.044211 
L 978.4 243.110838 
L 978.763636 244.028235 
L 979.127273 244.2772 
L 979.490909 249.391025 
L 979.854545 250.427005 
L 980.218182 250.693669 
L 980.581818 251.123165 
L 980.945455 251.88835 
L 981.309091 251.941447 
L 981.672727 256.451737 
L 982.036364 258.137859 
L 982.763636 260.496543 
L 983.490909 268.301792 
L 983.854545 268.487631 
L 984.581818 270.016822 
L 984.945455 271.234512 
L 985.309091 274.930058 
L 985.672727 275.007934 
L 986.036364 276.728275 
L 986.4 282.324691 
L 986.763636 313.055425 
L 987.490909 321.178665 
L 987.854545 321.811698 
L 988.218182 322.117301 
L 988.581818 323.526729 
L 989.309091 323.747377 
L 990.036364 324.258877 
L 990.4 338.841064 
L 991.127273 339.565542 
L 991.854545 340.616272 
L 992.218182 342.559029 
L 992.945455 344.607391 
L 993.309091 344.674057 
L 994.036364 345.528918 
L 994.4 346.114754 
L 994.763636 347.987305 
L 995.127273 348.612669 
L 995.490909 348.735382 
L 995.854545 351.935947 
L 996.218182 369.36 
L 996.218182 369.36 
" clip-path="url(#p4047c3c64f)" style="fill: none; stroke: #1f77b4; stroke-width: 1.5; stroke-linecap: square"/>
   </g>
   <g id="line2d_13">
    <path d="M 184.581818 344.300019 
L 996.218182 344.300019 
L 996.218182 344.300019 
" clip-path="url(#p4047c3c64f)" style="fill: none; stroke-dasharray: 5.55,2.4; stroke-dashoffset: 0; stroke: #ff7f0e; stroke-width: 1.5"/>
   </g>
   <g id="line2d_14">
    <path d="M 184.581818 217.374165 
L 996.218182 217.374165 
L 996.218182 217.374165 
" clip-path="url(#p4047c3c64f)" style="fill: none; stroke-dasharray: 5.55,2.4; stroke-dashoffset: 0; stroke: #2ca02c; stroke-width: 1.5"/>
   </g>
   <g id="line2d_15">
    <path d="M 184.581818 90.448312 
L 996.218182 90.448312 
L 996.218182 90.448312 
" clip-path="url(#p4047c3c64f)" style="fill: none; stroke-dasharray: 5.55,2.4; stroke-dashoffset: 0; stroke: #d62728; stroke-width: 1.5"/>
   </g>
   <g id="patch_3">
    <path d="M 144 384.48 
L 144 51.84 
" style="fill: none; stroke: #000000; stroke-width: 0.8; stroke-linejoin: miter; stroke-linecap: square"/>
   </g>
   <g id="patch_4">
    <path d="M 1036.8 384.48 
L 1036.8 51.84 
" style="fill: none; stroke: #000000; stroke-width: 0.8; stroke-linejoin: miter; stroke-linecap: square"/>
   </g>
   <g id="patch_5">
    <path d="M 144 384.48 
L 1036.8 384.48 
" style="fill: none; stroke: #000000; stroke-width: 0.8; stroke-linejoin: miter; stroke-linecap: square"/>
   </g>
   <g id="patch_6">
    <path d="M 144 51.84 
L 1036.8 51.84 
" style="fill: none; stroke: #000000; stroke-width: 0.8; stroke-linejoin: miter; stroke-linecap: square"/>
   </g>
   <g id="text_14">
    <!-- PA -->
    <g transform="translate(583.060313 45.84)scale(0.12 -0.12)">
     <defs>
      <path id="DejaVuSans-41" d="M 2188 4044 
L 1331 1722 
L 3047 1722 
L 2188 4044 
z
M 1831 4666 
L 2547 4666 
L 4325 0 
L 3669 0 
L 3244 1197 
L 1141 1197 
L 716 0 
L 50 0 
L 1831 4666 
z
" transform="scale(0.015625)"/>
     </defs>
     <use xlink:href="#DejaVuSans-50"/>
     <use xlink:href="#DejaVuSans-41" x="53.927734"/>
    </g>
   </g>
   <g id="legend_1">
    <g id="patch_7">
     <path d="M 146 28.936045 
L 1034.8 28.936045 
Q 1036.8 28.936045 1036.8 26.936045 
L 1036.8 13.25792 
Q 1036.8 11.25792 1034.8 11.25792 
L 146 11.25792 
Q 144 11.25792 144 13.25792 
L 144 26.936045 
Q 144 28.936045 146 28.936045 
z
" style="fill: #ffffff; opacity: 0.8; stroke: #cccccc; stroke-linejoin: miter"/>
    </g>
    <g id="line2d_16">
     <path d="M 148 19.356358 
L 158 19.356358 
L 168 19.356358 
" style="fill: none; stroke-dasharray: 5.55,2.4; stroke-dashoffset: 0; stroke: #ff7f0e; stroke-width: 1.5"/>
    </g>
    <g id="text_15">
     <!-- Average depth * 0.2 -->
     <g transform="translate(176 22.856358)scale(0.1 -0.1)">
      <defs>
       <path id="DejaVuSans-64" d="M 2906 2969 
L 2906 4863 
L 3481 4863 
L 3481 0 
L 2906 0 
L 2906 525 
Q 2725 213 2448 61 
Q 2172 -91 1784 -91 
Q 1150 -91 751 415 
Q 353 922 353 1747 
Q 353 2572 751 3078 
Q 1150 3584 1784 3584 
Q 2172 3584 2448 3432 
Q 2725 3281 2906 2969 
z
M 947 1747 
Q 947 1113 1208 752 
Q 1469 391 1925 391 
Q 2381 391 2643 752 
Q 2906 1113 2906 1747 
Q 2906 2381 2643 2742 
Q 2381 3103 1925 3103 
Q 1469 3103 1208 2742 
Q 947 2381 947 1747 
z
" transform="scale(0.015625)"/>
       <path id="DejaVuSans-2a" d="M 3009 3897 
L 1888 3291 
L 3009 2681 
L 2828 2375 
L 1778 3009 
L 1778 1831 
L 1422 1831 
L 1422 3009 
L 372 2375 
L 191 2681 
L 1313 3291 
L 191 3897 
L 372 4206 
L 1422 3572 
L 1422 4750 
L 1778 4750 
L 1778 3572 
L 2828 4206 
L 3009 3897 
z
" transform="scale(0.015625)"/>
       <path id="DejaVuSans-2e" d="M 684 794 
L 1344 794 
L 1344 0 
L 684 0 
L 684 794 
z
" transform="scale(0.015625)"/>
      </defs>
      <use xlink:href="#DejaVuSans-41"/>
      <use xlink:href="#DejaVuSans-76" x="62.533203"/>
      <use xlink:href="#DejaVuSans-65" x="121.712891"/>
      <use xlink:href="#DejaVuSans-72" x="183.236328"/>
      <use xlink:href="#DejaVuSans-61" x="224.349609"/>
      <use xlink:href="#DejaVuSans-67" x="285.628906"/>
      <use xlink:href="#DejaVuSans-65" x="349.105469"/>
      <use xlink:href="#DejaVuSans-20" x="410.628906"/>
      <use xlink:href="#DejaVuSans-64" x="442.416016"/>
      <use xlink:href="#DejaVuSans-65" x="505.892578"/>
      <use xlink:href="#DejaVuSans-70" x="567.416016"/>
      <use xlink:href="#DejaVuSans-74" x="630.892578"/>
      <use xlink:href="#DejaVuSans-68" x="670.101562"/>
      <use xlink:href="#DejaVuSans-20" x="733.480469"/>
      <use xlink:href="#DejaVuSans-2a" x="765.267578"/>
      <use xlink:href="#DejaVuSans-20" x="815.267578"/>
      <use xlink:href="#DejaVuSans-30" x="847.054688"/>
      <use xlink:href="#DejaVuSans-2e" x="910.677734"/>
      <use xlink:href="#DejaVuSans-32" x="942.464844"/>
     </g>
    </g>
    <g id="line2d_17">
     <path d="M 539.724219 19.356358 
L 549.724219 19.356358 
L 559.724219 19.356358 
" style="fill: none; stroke-dasharray: 5.55,2.4; stroke-dashoffset: 0; stroke: #2ca02c; stroke-width: 1.5"/>
    </g>
    <g id="text_16">
     <!-- Average depth -->
     <g transform="translate(567.724219 22.856358)scale(0.1 -0.1)">
      <use xlink:href="#DejaVuSans-41"/>
      <use xlink:href="#DejaVuSans-76" x="62.533203"/>
      <use xlink:href="#DejaVuSans-65" x="121.712891"/>
      <use xlink:href="#DejaVuSans-72" x="183.236328"/>
      <use xlink:href="#DejaVuSans-61" x="224.349609"/>
      <use xlink:href="#DejaVuSans-67" x="285.628906"/>
      <use xlink:href="#DejaVuSans-65" x="349.105469"/>
      <use xlink:href="#DejaVuSans-20" x="410.628906"/>
      <use xlink:href="#DejaVuSans-64" x="442.416016"/>
      <use xlink:href="#DejaVuSans-65" x="505.892578"/>
      <use xlink:href="#DejaVuSans-70" x="567.416016"/>
      <use xlink:href="#DejaVuSans-74" x="630.892578"/>
      <use xlink:href="#DejaVuSans-68" x="670.101562"/>
     </g>
    </g>
    <g id="line2d_18">
     <path d="M 904.189062 19.356358 
L 914.189062 19.356358 
L 924.189062 19.356358 
" style="fill: none; stroke-dasharray: 5.55,2.4; stroke-dashoffset: 0; stroke: #d62728; stroke-width: 1.5"/>
    </g>
    <g id="text_17">
     <!-- Average depth * 1.8 -->
     <g transform="translate(932.189062 22.856358)scale(0.1 -0.1)">
      <defs>
       <path id="DejaVuSans-38" d="M 2034 2216 
Q 1584 2216 1326 1975 
Q 1069 1734 1069 1313 
Q 1069 891 1326 650 
Q 1584 409 2034 409 
Q 2484 409 2743 651 
Q 3003 894 3003 1313 
Q 3003 1734 2745 1975 
Q 2488 2216 2034 2216 
z
M 1403 2484 
Q 997 2584 770 2862 
Q 544 3141 544 3541 
Q 544 4100 942 4425 
Q 1341 4750 2034 4750 
Q 2731 4750 3128 4425 
Q 3525 4100 3525 3541 
Q 3525 3141 3298 2862 
Q 3072 2584 2669 2484 
Q 3125 2378 3379 2068 
Q 3634 1759 3634 1313 
Q 3634 634 3220 271 
Q 2806 -91 2034 -91 
Q 1263 -91 848 271 
Q 434 634 434 1313 
Q 434 1759 690 2068 
Q 947 2378 1403 2484 
z
M 1172 3481 
Q 1172 3119 1398 2916 
Q 1625 2713 2034 2713 
Q 2441 2713 2670 2916 
Q 2900 3119 2900 3481 
Q 2900 3844 2670 4047 
Q 2441 4250 2034 4250 
Q 1625 4250 1398 4047 
Q 1172 3844 1172 3481 
z
" transform="scale(0.015625)"/>
      </defs>
      <use xlink:href="#DejaVuSans-41"/>
      <use xlink:href="#DejaVuSans-76" x="62.533203"/>
      <use xlink:href="#DejaVuSans-65" x="121.712891"/>
      <use xlink:href="#DejaVuSans-72" x="183.236328"/>
      <use xlink:href="#DejaVuSans-61" x="224.349609"/>
      <use xlink:href="#DejaVuSans-67" x="285.628906"/>
      <use xlink:href="#DejaVuSans-65" x="349.105469"/>
      <use xlink:href="#DejaVuSans-20" x="410.628906"/>
      <use xlink:href="#DejaVuSans-64" x="442.416016"/>
      <use xlink:href="#DejaVuSans-65" x="505.892578"/>
      <use xlink:href="#DejaVuSans-70" x="567.416016"/>
      <use xlink:href="#DejaVuSans-74" x="630.892578"/>
      <use xlink:href="#DejaVuSans-68" x="670.101562"/>
      <use xlink:href="#DejaVuSans-20" x="733.480469"/>
      <use xlink:href="#DejaVuSans-2a" x="765.267578"/>
      <use xlink:href="#DejaVuSans-20" x="815.267578"/>
      <use xlink:href="#DejaVuSans-31" x="847.054688"/>
      <use xlink:href="#DejaVuSans-2e" x="910.677734"/>
      <use xlink:href="#DejaVuSans-38" x="942.464844"/>
     </g>
    </g>
   </g>
  </g>
 </g>
 <defs>
  <clipPath id="p4047c3c64f">
   <rect x="144" y="51.84" width="892.8" height="332.64"/>
  </clipPath>
 </defs>
</svg>
