<?xml version="1.0" encoding="utf-8" standalone="no"?>
<!DOCTYPE svg PUBLIC "-//W3C//DTD SVG 1.1//EN"
  "http://www.w3.org/Graphics/SVG/1.1/DTD/svg11.dtd">
<svg xmlns:xlink="http://www.w3.org/1999/xlink" width="1152pt" height="432pt" viewBox="0 0 1152 432" xmlns="http://www.w3.org/2000/svg" version="1.1">
 <metadata>
  <rdf:RDF xmlns:dc="http://purl.org/dc/elements/1.1/" xmlns:cc="http://creativecommons.org/ns#" xmlns:rdf="http://www.w3.org/1999/02/22-rdf-syntax-ns#">
   <cc:Work>
    <dc:type rdf:resource="http://purl.org/dc/dcmitype/StillImage"/>
    <dc:date>2022-11-25T09:00:17.893580</dc:date>
    <dc:format>image/svg+xml</dc:format>
    <dc:creator>
     <cc:Agent>
      <dc:title>Matplotlib v3.5.2, https://matplotlib.org/</dc:title>
     </cc:Agent>
    </dc:creator>
   </cc:Work>
  </rdf:RDF>
 </metadata>
 <defs>
  <style type="text/css">*{stroke-linejoin: round; stroke-linecap: butt}</style>
 </defs>
 <g id="figure_1">
  <g id="patch_1">
   <path d="M 0 432 
L 1152 432 
L 1152 0 
L 0 0 
z
" style="fill: #ffffff"/>
  </g>
  <g id="axes_1">
   <g id="patch_2">
    <path d="M 144 384.48 
L 1036.8 384.48 
L 1036.8 51.84 
L 144 51.84 
z
" style="fill: #ffffff"/>
   </g>
   <g id="matplotlib.axis_1">
    <g id="xtick_1">
     <g id="line2d_1">
      <defs>
       <path id="mfabdd9f6a2" d="M 0 0 
L 0 3.5 
" style="stroke: #000000; stroke-width: 0.8"/>
      </defs>
      <g>
       <use xlink:href="#mfabdd9f6a2" x="184.581818" y="384.48" style="stroke: #000000; stroke-width: 0.8"/>
      </g>
     </g>
     <g id="text_1">
      <!-- 0 -->
      <g transform="translate(181.400568 399.078438)scale(0.1 -0.1)">
       <defs>
        <path id="DejaVuSans-30" d="M 2034 4250 
Q 1547 4250 1301 3770 
Q 1056 3291 1056 2328 
Q 1056 1369 1301 889 
Q 1547 409 2034 409 
Q 2525 409 2770 889 
Q 3016 1369 3016 2328 
Q 3016 3291 2770 3770 
Q 2525 4250 2034 4250 
z
M 2034 4750 
Q 2819 4750 3233 4129 
Q 3647 3509 3647 2328 
Q 3647 1150 3233 529 
Q 2819 -91 2034 -91 
Q 1250 -91 836 529 
Q 422 1150 422 2328 
Q 422 3509 836 4129 
Q 1250 4750 2034 4750 
z
" transform="scale(0.015625)"/>
       </defs>
       <use xlink:href="#DejaVuSans-30"/>
      </g>
     </g>
    </g>
    <g id="xtick_2">
     <g id="line2d_2">
      <g>
       <use xlink:href="#mfabdd9f6a2" x="358.008392" y="384.48" style="stroke: #000000; stroke-width: 0.8"/>
      </g>
     </g>
     <g id="text_2">
      <!-- 500 -->
      <g transform="translate(348.464642 399.078438)scale(0.1 -0.1)">
       <defs>
        <path id="DejaVuSans-35" d="M 691 4666 
L 3169 4666 
L 3169 4134 
L 1269 4134 
L 1269 2991 
Q 1406 3038 1543 3061 
Q 1681 3084 1819 3084 
Q 2600 3084 3056 2656 
Q 3513 2228 3513 1497 
Q 3513 744 3044 326 
Q 2575 -91 1722 -91 
Q 1428 -91 1123 -41 
Q 819 9 494 109 
L 494 744 
Q 775 591 1075 516 
Q 1375 441 1709 441 
Q 2250 441 2565 725 
Q 2881 1009 2881 1497 
Q 2881 1984 2565 2268 
Q 2250 2553 1709 2553 
Q 1456 2553 1204 2497 
Q 953 2441 691 2322 
L 691 4666 
z
" transform="scale(0.015625)"/>
       </defs>
       <use xlink:href="#DejaVuSans-35"/>
       <use xlink:href="#DejaVuSans-30" x="63.623047"/>
       <use xlink:href="#DejaVuSans-30" x="127.246094"/>
      </g>
     </g>
    </g>
    <g id="xtick_3">
     <g id="line2d_3">
      <g>
       <use xlink:href="#mfabdd9f6a2" x="531.434965" y="384.48" style="stroke: #000000; stroke-width: 0.8"/>
      </g>
     </g>
     <g id="text_3">
      <!-- 1000 -->
      <g transform="translate(518.709965 399.078438)scale(0.1 -0.1)">
       <defs>
        <path id="DejaVuSans-31" d="M 794 531 
L 1825 531 
L 1825 4091 
L 703 3866 
L 703 4441 
L 1819 4666 
L 2450 4666 
L 2450 531 
L 3481 531 
L 3481 0 
L 794 0 
L 794 531 
z
" transform="scale(0.015625)"/>
       </defs>
       <use xlink:href="#DejaVuSans-31"/>
       <use xlink:href="#DejaVuSans-30" x="63.623047"/>
       <use xlink:href="#DejaVuSans-30" x="127.246094"/>
       <use xlink:href="#DejaVuSans-30" x="190.869141"/>
      </g>
     </g>
    </g>
    <g id="xtick_4">
     <g id="line2d_4">
      <g>
       <use xlink:href="#mfabdd9f6a2" x="704.861538" y="384.48" style="stroke: #000000; stroke-width: 0.8"/>
      </g>
     </g>
     <g id="text_4">
      <!-- 1500 -->
      <g transform="translate(692.136538 399.078438)scale(0.1 -0.1)">
       <use xlink:href="#DejaVuSans-31"/>
       <use xlink:href="#DejaVuSans-35" x="63.623047"/>
       <use xlink:href="#DejaVuSans-30" x="127.246094"/>
       <use xlink:href="#DejaVuSans-30" x="190.869141"/>
      </g>
     </g>
    </g>
    <g id="xtick_5">
     <g id="line2d_5">
      <g>
       <use xlink:href="#mfabdd9f6a2" x="878.288112" y="384.48" style="stroke: #000000; stroke-width: 0.8"/>
      </g>
     </g>
     <g id="text_5">
      <!-- 2000 -->
      <g transform="translate(865.563112 399.078438)scale(0.1 -0.1)">
       <defs>
        <path id="DejaVuSans-32" d="M 1228 531 
L 3431 531 
L 3431 0 
L 469 0 
L 469 531 
Q 828 903 1448 1529 
Q 2069 2156 2228 2338 
Q 2531 2678 2651 2914 
Q 2772 3150 2772 3378 
Q 2772 3750 2511 3984 
Q 2250 4219 1831 4219 
Q 1534 4219 1204 4116 
Q 875 4013 500 3803 
L 500 4441 
Q 881 4594 1212 4672 
Q 1544 4750 1819 4750 
Q 2544 4750 2975 4387 
Q 3406 4025 3406 3419 
Q 3406 3131 3298 2873 
Q 3191 2616 2906 2266 
Q 2828 2175 2409 1742 
Q 1991 1309 1228 531 
z
" transform="scale(0.015625)"/>
       </defs>
       <use xlink:href="#DejaVuSans-32"/>
       <use xlink:href="#DejaVuSans-30" x="63.623047"/>
       <use xlink:href="#DejaVuSans-30" x="127.246094"/>
       <use xlink:href="#DejaVuSans-30" x="190.869141"/>
      </g>
     </g>
    </g>
    <g id="text_6">
     <!-- Position -->
     <g transform="translate(570.935938 412.756563)scale(0.1 -0.1)">
      <defs>
       <path id="DejaVuSans-50" d="M 1259 4147 
L 1259 2394 
L 2053 2394 
Q 2494 2394 2734 2622 
Q 2975 2850 2975 3272 
Q 2975 3691 2734 3919 
Q 2494 4147 2053 4147 
L 1259 4147 
z
M 628 4666 
L 2053 4666 
Q 2838 4666 3239 4311 
Q 3641 3956 3641 3272 
Q 3641 2581 3239 2228 
Q 2838 1875 2053 1875 
L 1259 1875 
L 1259 0 
L 628 0 
L 628 4666 
z
" transform="scale(0.015625)"/>
       <path id="DejaVuSans-6f" d="M 1959 3097 
Q 1497 3097 1228 2736 
Q 959 2375 959 1747 
Q 959 1119 1226 758 
Q 1494 397 1959 397 
Q 2419 397 2687 759 
Q 2956 1122 2956 1747 
Q 2956 2369 2687 2733 
Q 2419 3097 1959 3097 
z
M 1959 3584 
Q 2709 3584 3137 3096 
Q 3566 2609 3566 1747 
Q 3566 888 3137 398 
Q 2709 -91 1959 -91 
Q 1206 -91 779 398 
Q 353 888 353 1747 
Q 353 2609 779 3096 
Q 1206 3584 1959 3584 
z
" transform="scale(0.015625)"/>
       <path id="DejaVuSans-73" d="M 2834 3397 
L 2834 2853 
Q 2591 2978 2328 3040 
Q 2066 3103 1784 3103 
Q 1356 3103 1142 2972 
Q 928 2841 928 2578 
Q 928 2378 1081 2264 
Q 1234 2150 1697 2047 
L 1894 2003 
Q 2506 1872 2764 1633 
Q 3022 1394 3022 966 
Q 3022 478 2636 193 
Q 2250 -91 1575 -91 
Q 1294 -91 989 -36 
Q 684 19 347 128 
L 347 722 
Q 666 556 975 473 
Q 1284 391 1588 391 
Q 1994 391 2212 530 
Q 2431 669 2431 922 
Q 2431 1156 2273 1281 
Q 2116 1406 1581 1522 
L 1381 1569 
Q 847 1681 609 1914 
Q 372 2147 372 2553 
Q 372 3047 722 3315 
Q 1072 3584 1716 3584 
Q 2034 3584 2315 3537 
Q 2597 3491 2834 3397 
z
" transform="scale(0.015625)"/>
       <path id="DejaVuSans-69" d="M 603 3500 
L 1178 3500 
L 1178 0 
L 603 0 
L 603 3500 
z
M 603 4863 
L 1178 4863 
L 1178 4134 
L 603 4134 
L 603 4863 
z
" transform="scale(0.015625)"/>
       <path id="DejaVuSans-74" d="M 1172 4494 
L 1172 3500 
L 2356 3500 
L 2356 3053 
L 1172 3053 
L 1172 1153 
Q 1172 725 1289 603 
Q 1406 481 1766 481 
L 2356 481 
L 2356 0 
L 1766 0 
Q 1100 0 847 248 
Q 594 497 594 1153 
L 594 3053 
L 172 3053 
L 172 3500 
L 594 3500 
L 594 4494 
L 1172 4494 
z
" transform="scale(0.015625)"/>
       <path id="DejaVuSans-6e" d="M 3513 2113 
L 3513 0 
L 2938 0 
L 2938 2094 
Q 2938 2591 2744 2837 
Q 2550 3084 2163 3084 
Q 1697 3084 1428 2787 
Q 1159 2491 1159 1978 
L 1159 0 
L 581 0 
L 581 3500 
L 1159 3500 
L 1159 2956 
Q 1366 3272 1645 3428 
Q 1925 3584 2291 3584 
Q 2894 3584 3203 3211 
Q 3513 2838 3513 2113 
z
" transform="scale(0.015625)"/>
      </defs>
      <use xlink:href="#DejaVuSans-50"/>
      <use xlink:href="#DejaVuSans-6f" x="56.677734"/>
      <use xlink:href="#DejaVuSans-73" x="117.859375"/>
      <use xlink:href="#DejaVuSans-69" x="169.958984"/>
      <use xlink:href="#DejaVuSans-74" x="197.742188"/>
      <use xlink:href="#DejaVuSans-69" x="236.951172"/>
      <use xlink:href="#DejaVuSans-6f" x="264.734375"/>
      <use xlink:href="#DejaVuSans-6e" x="325.916016"/>
     </g>
    </g>
   </g>
   <g id="matplotlib.axis_2">
    <g id="ytick_1">
     <g id="line2d_6">
      <defs>
       <path id="m385297a6c5" d="M 0 0 
L -3.5 0 
" style="stroke: #000000; stroke-width: 0.8"/>
      </defs>
      <g>
       <use xlink:href="#m385297a6c5" x="144" y="383.800804" style="stroke: #000000; stroke-width: 0.8"/>
      </g>
     </g>
     <g id="text_7">
      <!-- 0 -->
      <g transform="translate(130.6375 387.600023)scale(0.1 -0.1)">
       <use xlink:href="#DejaVuSans-30"/>
      </g>
     </g>
    </g>
    <g id="ytick_2">
     <g id="line2d_7">
      <g>
       <use xlink:href="#m385297a6c5" x="144" y="310.437647" style="stroke: #000000; stroke-width: 0.8"/>
      </g>
     </g>
     <g id="text_8">
      <!-- 50000 -->
      <g transform="translate(105.1875 314.236865)scale(0.1 -0.1)">
       <use xlink:href="#DejaVuSans-35"/>
       <use xlink:href="#DejaVuSans-30" x="63.623047"/>
       <use xlink:href="#DejaVuSans-30" x="127.246094"/>
       <use xlink:href="#DejaVuSans-30" x="190.869141"/>
       <use xlink:href="#DejaVuSans-30" x="254.492188"/>
      </g>
     </g>
    </g>
    <g id="ytick_3">
     <g id="line2d_8">
      <g>
       <use xlink:href="#m385297a6c5" x="144" y="237.074489" style="stroke: #000000; stroke-width: 0.8"/>
      </g>
     </g>
     <g id="text_9">
      <!-- 100000 -->
      <g transform="translate(98.825 240.873708)scale(0.1 -0.1)">
       <use xlink:href="#DejaVuSans-31"/>
       <use xlink:href="#DejaVuSans-30" x="63.623047"/>
       <use xlink:href="#DejaVuSans-30" x="127.246094"/>
       <use xlink:href="#DejaVuSans-30" x="190.869141"/>
       <use xlink:href="#DejaVuSans-30" x="254.492188"/>
       <use xlink:href="#DejaVuSans-30" x="318.115234"/>
      </g>
     </g>
    </g>
    <g id="ytick_4">
     <g id="line2d_9">
      <g>
       <use xlink:href="#m385297a6c5" x="144" y="163.711332" style="stroke: #000000; stroke-width: 0.8"/>
      </g>
     </g>
     <g id="text_10">
      <!-- 150000 -->
      <g transform="translate(98.825 167.510551)scale(0.1 -0.1)">
       <use xlink:href="#DejaVuSans-31"/>
       <use xlink:href="#DejaVuSans-35" x="63.623047"/>
       <use xlink:href="#DejaVuSans-30" x="127.246094"/>
       <use xlink:href="#DejaVuSans-30" x="190.869141"/>
       <use xlink:href="#DejaVuSans-30" x="254.492188"/>
       <use xlink:href="#DejaVuSans-30" x="318.115234"/>
      </g>
     </g>
    </g>
    <g id="ytick_5">
     <g id="line2d_10">
      <g>
       <use xlink:href="#m385297a6c5" x="144" y="90.348175" style="stroke: #000000; stroke-width: 0.8"/>
      </g>
     </g>
     <g id="text_11">
      <!-- 200000 -->
      <g transform="translate(98.825 94.147393)scale(0.1 -0.1)">
       <use xlink:href="#DejaVuSans-32"/>
       <use xlink:href="#DejaVuSans-30" x="63.623047"/>
       <use xlink:href="#DejaVuSans-30" x="127.246094"/>
       <use xlink:href="#DejaVuSans-30" x="190.869141"/>
       <use xlink:href="#DejaVuSans-30" x="254.492188"/>
       <use xlink:href="#DejaVuSans-30" x="318.115234"/>
      </g>
     </g>
    </g>
    <g id="text_12">
     <!-- Depth of coverage -->
     <g transform="translate(92.745312 264.602187)rotate(-90)scale(0.1 -0.1)">
      <defs>
       <path id="DejaVuSans-44" d="M 1259 4147 
L 1259 519 
L 2022 519 
Q 2988 519 3436 956 
Q 3884 1394 3884 2338 
Q 3884 3275 3436 3711 
Q 2988 4147 2022 4147 
L 1259 4147 
z
M 628 4666 
L 1925 4666 
Q 3281 4666 3915 4102 
Q 4550 3538 4550 2338 
Q 4550 1131 3912 565 
Q 3275 0 1925 0 
L 628 0 
L 628 4666 
z
" transform="scale(0.015625)"/>
       <path id="DejaVuSans-65" d="M 3597 1894 
L 3597 1613 
L 953 1613 
Q 991 1019 1311 708 
Q 1631 397 2203 397 
Q 2534 397 2845 478 
Q 3156 559 3463 722 
L 3463 178 
Q 3153 47 2828 -22 
Q 2503 -91 2169 -91 
Q 1331 -91 842 396 
Q 353 884 353 1716 
Q 353 2575 817 3079 
Q 1281 3584 2069 3584 
Q 2775 3584 3186 3129 
Q 3597 2675 3597 1894 
z
M 3022 2063 
Q 3016 2534 2758 2815 
Q 2500 3097 2075 3097 
Q 1594 3097 1305 2825 
Q 1016 2553 972 2059 
L 3022 2063 
z
" transform="scale(0.015625)"/>
       <path id="DejaVuSans-70" d="M 1159 525 
L 1159 -1331 
L 581 -1331 
L 581 3500 
L 1159 3500 
L 1159 2969 
Q 1341 3281 1617 3432 
Q 1894 3584 2278 3584 
Q 2916 3584 3314 3078 
Q 3713 2572 3713 1747 
Q 3713 922 3314 415 
Q 2916 -91 2278 -91 
Q 1894 -91 1617 61 
Q 1341 213 1159 525 
z
M 3116 1747 
Q 3116 2381 2855 2742 
Q 2594 3103 2138 3103 
Q 1681 3103 1420 2742 
Q 1159 2381 1159 1747 
Q 1159 1113 1420 752 
Q 1681 391 2138 391 
Q 2594 391 2855 752 
Q 3116 1113 3116 1747 
z
" transform="scale(0.015625)"/>
       <path id="DejaVuSans-68" d="M 3513 2113 
L 3513 0 
L 2938 0 
L 2938 2094 
Q 2938 2591 2744 2837 
Q 2550 3084 2163 3084 
Q 1697 3084 1428 2787 
Q 1159 2491 1159 1978 
L 1159 0 
L 581 0 
L 581 4863 
L 1159 4863 
L 1159 2956 
Q 1366 3272 1645 3428 
Q 1925 3584 2291 3584 
Q 2894 3584 3203 3211 
Q 3513 2838 3513 2113 
z
" transform="scale(0.015625)"/>
       <path id="DejaVuSans-20" transform="scale(0.015625)"/>
       <path id="DejaVuSans-66" d="M 2375 4863 
L 2375 4384 
L 1825 4384 
Q 1516 4384 1395 4259 
Q 1275 4134 1275 3809 
L 1275 3500 
L 2222 3500 
L 2222 3053 
L 1275 3053 
L 1275 0 
L 697 0 
L 697 3053 
L 147 3053 
L 147 3500 
L 697 3500 
L 697 3744 
Q 697 4328 969 4595 
Q 1241 4863 1831 4863 
L 2375 4863 
z
" transform="scale(0.015625)"/>
       <path id="DejaVuSans-63" d="M 3122 3366 
L 3122 2828 
Q 2878 2963 2633 3030 
Q 2388 3097 2138 3097 
Q 1578 3097 1268 2742 
Q 959 2388 959 1747 
Q 959 1106 1268 751 
Q 1578 397 2138 397 
Q 2388 397 2633 464 
Q 2878 531 3122 666 
L 3122 134 
Q 2881 22 2623 -34 
Q 2366 -91 2075 -91 
Q 1284 -91 818 406 
Q 353 903 353 1747 
Q 353 2603 823 3093 
Q 1294 3584 2113 3584 
Q 2378 3584 2631 3529 
Q 2884 3475 3122 3366 
z
" transform="scale(0.015625)"/>
       <path id="DejaVuSans-76" d="M 191 3500 
L 800 3500 
L 1894 563 
L 2988 3500 
L 3597 3500 
L 2284 0 
L 1503 0 
L 191 3500 
z
" transform="scale(0.015625)"/>
       <path id="DejaVuSans-72" d="M 2631 2963 
Q 2534 3019 2420 3045 
Q 2306 3072 2169 3072 
Q 1681 3072 1420 2755 
Q 1159 2438 1159 1844 
L 1159 0 
L 581 0 
L 581 3500 
L 1159 3500 
L 1159 2956 
Q 1341 3275 1631 3429 
Q 1922 3584 2338 3584 
Q 2397 3584 2469 3576 
Q 2541 3569 2628 3553 
L 2631 2963 
z
" transform="scale(0.015625)"/>
       <path id="DejaVuSans-61" d="M 2194 1759 
Q 1497 1759 1228 1600 
Q 959 1441 959 1056 
Q 959 750 1161 570 
Q 1363 391 1709 391 
Q 2188 391 2477 730 
Q 2766 1069 2766 1631 
L 2766 1759 
L 2194 1759 
z
M 3341 1997 
L 3341 0 
L 2766 0 
L 2766 531 
Q 2569 213 2275 61 
Q 1981 -91 1556 -91 
Q 1019 -91 701 211 
Q 384 513 384 1019 
Q 384 1609 779 1909 
Q 1175 2209 1959 2209 
L 2766 2209 
L 2766 2266 
Q 2766 2663 2505 2880 
Q 2244 3097 1772 3097 
Q 1472 3097 1187 3025 
Q 903 2953 641 2809 
L 641 3341 
Q 956 3463 1253 3523 
Q 1550 3584 1831 3584 
Q 2591 3584 2966 3190 
Q 3341 2797 3341 1997 
z
" transform="scale(0.015625)"/>
       <path id="DejaVuSans-67" d="M 2906 1791 
Q 2906 2416 2648 2759 
Q 2391 3103 1925 3103 
Q 1463 3103 1205 2759 
Q 947 2416 947 1791 
Q 947 1169 1205 825 
Q 1463 481 1925 481 
Q 2391 481 2648 825 
Q 2906 1169 2906 1791 
z
M 3481 434 
Q 3481 -459 3084 -895 
Q 2688 -1331 1869 -1331 
Q 1566 -1331 1297 -1286 
Q 1028 -1241 775 -1147 
L 775 -588 
Q 1028 -725 1275 -790 
Q 1522 -856 1778 -856 
Q 2344 -856 2625 -561 
Q 2906 -266 2906 331 
L 2906 616 
Q 2728 306 2450 153 
Q 2172 0 1784 0 
Q 1141 0 747 490 
Q 353 981 353 1791 
Q 353 2603 747 3093 
Q 1141 3584 1784 3584 
Q 2172 3584 2450 3431 
Q 2728 3278 2906 2969 
L 2906 3500 
L 3481 3500 
L 3481 434 
z
" transform="scale(0.015625)"/>
      </defs>
      <use xlink:href="#DejaVuSans-44"/>
      <use xlink:href="#DejaVuSans-65" x="77.001953"/>
      <use xlink:href="#DejaVuSans-70" x="138.525391"/>
      <use xlink:href="#DejaVuSans-74" x="202.001953"/>
      <use xlink:href="#DejaVuSans-68" x="241.210938"/>
      <use xlink:href="#DejaVuSans-20" x="304.589844"/>
      <use xlink:href="#DejaVuSans-6f" x="336.376953"/>
      <use xlink:href="#DejaVuSans-66" x="397.558594"/>
      <use xlink:href="#DejaVuSans-20" x="432.763672"/>
      <use xlink:href="#DejaVuSans-63" x="464.550781"/>
      <use xlink:href="#DejaVuSans-6f" x="519.53125"/>
      <use xlink:href="#DejaVuSans-76" x="580.712891"/>
      <use xlink:href="#DejaVuSans-65" x="639.892578"/>
      <use xlink:href="#DejaVuSans-72" x="701.416016"/>
      <use xlink:href="#DejaVuSans-61" x="742.529297"/>
      <use xlink:href="#DejaVuSans-67" x="803.808594"/>
      <use xlink:href="#DejaVuSans-65" x="867.285156"/>
     </g>
    </g>
   </g>
   <g id="line2d_11">
    <path d="M 184.581818 340.333133 
L 184.928671 332.073909 
L 185.275524 316.476902 
L 185.622378 316.143833 
L 185.969231 307.269825 
L 186.316084 306.867795 
L 186.662937 306.726938 
L 187.00979 306.288226 
L 187.356643 305.365318 
L 187.703497 305.10708 
L 188.05035 303.922998 
L 188.744056 301.019284 
L 189.090909 300.95179 
L 189.437762 299.792652 
L 189.784615 299.471322 
L 190.131469 295.173708 
L 190.478322 294.354975 
L 191.172028 290.986139 
L 191.518881 290.20849 
L 191.865734 290.121921 
L 192.212587 288.943709 
L 192.906294 287.678928 
L 193.6 287.212338 
L 193.946853 286.045864 
L 194.293706 283.128945 
L 194.640559 282.38651 
L 194.987413 282.257391 
L 195.334266 281.50175 
L 196.027972 279.248034 
L 196.721678 278.848938 
L 197.068531 278.181334 
L 197.762238 277.218809 
L 198.109091 275.436084 
L 198.455944 274.485298 
L 198.802797 274.322431 
L 199.496503 273.070856 
L 199.843357 272.913859 
L 200.19021 278.454244 
L 200.537063 278.429301 
L 201.230769 277.524 
L 201.577622 272.378308 
L 201.924476 271.126732 
L 202.965035 269.765112 
L 203.658741 269.680011 
L 204.005594 269.807663 
L 204.352448 269.784187 
L 205.393007 267.260494 
L 206.086713 267.228214 
L 206.433566 266.248082 
L 206.78042 264.892331 
L 207.127273 264.72653 
L 207.474126 264.183643 
L 207.820979 264.105878 
L 208.167832 263.832967 
L 208.514685 256.242815 
L 208.861538 255.095415 
L 209.555245 251.814615 
L 210.595804 249.125121 
L 210.942657 248.20368 
L 211.28951 242.931804 
L 211.636364 242.75133 
L 211.983217 238.933512 
L 212.33007 237.232954 
L 212.676923 236.158917 
L 213.023776 234.053394 
L 213.370629 233.597076 
L 213.717483 231.986021 
L 214.064336 231.255324 
L 214.411189 231.31108 
L 214.758042 229.685352 
L 215.104895 229.823275 
L 215.451748 207.309589 
L 215.798601 206.641984 
L 216.145455 205.223141 
L 216.492308 204.405875 
L 216.839161 203.94222 
L 217.186014 195.666856 
L 217.532867 194.981644 
L 217.87972 194.017652 
L 218.226573 194.906814 
L 218.573427 196.261098 
L 218.92028 195.151847 
L 219.267133 194.798236 
L 219.960839 193.84745 
L 220.307692 192.091136 
L 220.654545 191.693507 
L 221.001399 185.09816 
L 221.348252 184.628635 
L 221.695105 183.692521 
L 222.041958 175.716479 
L 222.388811 175.315916 
L 222.735664 174.290299 
L 223.082517 174.259487 
L 223.429371 174.522127 
L 224.123077 176.351804 
L 224.46993 173.456894 
L 224.816783 172.498771 
L 225.163636 173.09448 
L 225.51049 172.686581 
L 225.857343 172.828905 
L 226.204196 172.688048 
L 226.551049 170.07045 
L 226.897902 169.420453 
L 227.244755 169.439527 
L 227.591608 170.589862 
L 227.938462 171.286812 
L 228.285315 170.155552 
L 228.632168 168.09258 
L 228.979021 164.534467 
L 229.325874 164.348124 
L 229.672727 164.867535 
L 230.01958 166.937844 
L 230.366434 158.659545 
L 230.713287 157.584041 
L 231.06014 155.305381 
L 231.406993 155.641385 
L 231.753846 156.595106 
L 232.100699 157.038219 
L 232.447552 154.275363 
L 232.794406 150.246258 
L 233.488112 154.532134 
L 233.834965 154.381006 
L 234.181818 153.939359 
L 234.528671 200.426658 
L 234.875524 201.406789 
L 235.222378 226.896085 
L 235.916084 228.618652 
L 236.262937 228.67294 
L 236.60979 245.279425 
L 236.956643 248.831669 
L 237.303497 248.940246 
L 237.65035 248.855145 
L 237.997203 248.505936 
L 238.690909 248.871285 
L 239.037762 247.470049 
L 239.731469 248.137653 
L 240.078322 248.555823 
L 240.425175 249.216092 
L 240.772028 241.149079 
L 241.118881 241.011156 
L 241.465734 239.533622 
L 242.159441 240.190956 
L 242.506294 239.558566 
L 242.853147 239.737572 
L 243.2 239.153601 
L 243.893706 241.262058 
L 244.240559 241.132939 
L 244.587413 241.413186 
L 244.934266 240.198292 
L 245.281119 237.924035 
L 245.627972 250.567441 
L 245.974825 249.317333 
L 246.321678 250.734709 
L 247.362238 249.54916 
L 247.709091 250.778727 
L 248.055944 251.23798 
L 248.402797 251.22184 
L 248.74965 252.380978 
L 249.096503 250.111122 
L 249.443357 249.713494 
L 249.79021 249.632794 
L 250.137063 249.340809 
L 250.483916 248.244764 
L 250.830769 248.159662 
L 251.177622 247.213278 
L 251.524476 245.812041 
L 251.871329 245.77536 
L 252.565035 244.667576 
L 252.911888 242.823226 
L 253.258741 242.785077 
L 253.605594 244.726267 
L 253.952448 245.282359 
L 254.299301 244.849517 
L 254.646154 245.006514 
L 254.993007 242.201107 
L 255.33986 240.612061 
L 255.686713 240.515221 
L 256.033566 240.961269 
L 256.727273 240.124929 
L 257.420979 239.907774 
L 257.767832 239.618724 
L 258.114685 240.088248 
L 258.461538 236.010723 
L 258.808392 236.226411 
L 259.155245 236.267494 
L 259.502098 235.734878 
L 259.848951 235.50305 
L 260.195804 234.809035 
L 260.542657 235.369529 
L 261.236364 235.563208 
L 261.583217 237.215346 
L 261.93007 235.932958 
L 262.623776 236.072348 
L 262.970629 234.487704 
L 263.317483 234.370323 
L 263.664336 234.384996 
L 264.011189 233.397528 
L 264.358042 234.847184 
L 264.704895 234.932285 
L 265.051748 235.263887 
L 265.745455 234.980705 
L 266.092308 234.144365 
L 266.439161 232.958816 
L 266.786014 232.735792 
L 267.132867 234.299895 
L 267.47972 234.348314 
L 267.826573 238.111844 
L 268.173427 237.681936 
L 268.867133 235.498649 
L 269.560839 237.55135 
L 269.907692 236.954174 
L 270.254545 237.177198 
L 270.601399 236.697403 
L 270.948252 237.385549 
L 271.295105 237.756767 
L 271.641958 237.824261 
L 271.988811 239.307664 
L 272.335664 239.508679 
L 272.682517 240.24231 
L 273.029371 240.094117 
L 273.376224 240.949531 
L 273.723077 243.041848 
L 274.06993 244.133492 
L 275.11049 244.538457 
L 275.457343 244.319835 
L 275.804196 239.601116 
L 276.151049 239.808 
L 276.497902 236.465575 
L 276.844755 238.428773 
L 277.191608 238.88069 
L 277.538462 237.275504 
L 277.885315 234.552264 
L 278.579021 233.322697 
L 278.925874 233.284549 
L 279.272727 232.424732 
L 279.61958 234.446621 
L 279.966434 231.909723 
L 280.313287 233.481162 
L 280.66014 234.364454 
L 281.006993 236.738486 
L 281.353846 235.996051 
L 282.047552 233.007236 
L 282.394406 234.087141 
L 282.741259 239.596715 
L 283.088112 240.547501 
L 283.434965 240.378766 
L 284.128671 238.990735 
L 284.822378 242.909795 
L 285.169231 246.045336 
L 285.516084 246.287435 
L 285.862937 246.02186 
L 286.20979 246.033598 
L 286.556643 246.613167 
L 286.903497 245.860461 
L 287.25035 246.265426 
L 287.597203 246.043869 
L 287.944056 246.172988 
L 288.290909 248.944648 
L 288.637762 249.660672 
L 288.984615 251.882109 
L 289.331469 252.1873 
L 289.678322 252.121273 
L 290.025175 243.85031 
L 290.372028 243.900197 
L 290.718881 243.691846 
L 291.065734 242.496027 
L 291.759441 241.446933 
L 292.106294 238.525612 
L 292.453147 238.89683 
L 292.8 238.866018 
L 293.146853 247.414293 
L 293.493706 244.914076 
L 293.840559 235.855194 
L 294.187413 236.07675 
L 294.534266 235.655646 
L 294.881119 229.650138 
L 295.227972 228.086035 
L 295.574825 227.438972 
L 296.268531 228.546756 
L 296.615385 231.17169 
L 296.962238 230.963338 
L 297.309091 233.062992 
L 297.655944 232.594935 
L 298.002797 231.900919 
L 298.34965 232.920667 
L 298.696503 233.274278 
L 299.043357 233.437144 
L 299.39021 232.888387 
L 299.737063 232.690307 
L 300.083916 233.124617 
L 300.430769 232.985227 
L 300.777622 233.014572 
L 302.165035 234.176645 
L 302.511888 233.570665 
L 302.858741 233.896397 
L 303.205594 231.161419 
L 303.552448 230.747651 
L 304.246154 231.790875 
L 304.593007 231.889181 
L 304.93986 232.546515 
L 305.286713 234.071002 
L 305.633566 233.949219 
L 305.98042 233.466489 
L 306.327273 233.886126 
L 306.674126 235.561741 
L 307.020979 235.221336 
L 307.367832 237.516135 
L 307.714685 237.651124 
L 308.061538 238.103041 
L 308.408392 250.840352 
L 308.755245 250.279858 
L 309.102098 250.643739 
L 309.448951 250.629066 
L 309.795804 250.794867 
L 310.142657 252.21371 
L 310.48951 252.141814 
L 310.836364 255.528258 
L 311.183217 255.594285 
L 311.876923 256.163583 
L 312.223776 255.252412 
L 312.570629 251.895314 
L 312.917483 251.058974 
L 313.264336 250.841819 
L 313.611189 251.99949 
L 313.958042 252.499827 
L 314.304895 252.339895 
L 314.998601 251.666421 
L 315.345455 253.691244 
L 316.039161 253.176235 
L 316.386014 253.386054 
L 316.732867 253.440342 
L 317.426573 254.018444 
L 317.773427 254.691918 
L 318.12028 252.649488 
L 318.813986 255.305234 
L 319.160839 255.584014 
L 319.507692 260.00341 
L 320.201399 264.996507 
L 320.548252 265.135897 
L 320.895105 262.704642 
L 321.241958 262.31435 
L 321.935664 262.09426 
L 322.282517 262.444936 
L 322.629371 260.996748 
L 322.976224 261.375301 
L 323.323077 261.482412 
L 323.66993 262.105999 
L 324.363636 262.107466 
L 324.71049 260.305667 
L 325.057343 256.405681 
L 325.751049 257.544277 
L 326.097902 257.781974 
L 326.444755 257.855337 
L 326.791608 256.644845 
L 327.138462 257.00139 
L 327.485315 255.915615 
L 327.832168 259.444383 
L 328.179021 264.21739 
L 328.872727 264.119084 
L 329.21958 263.378116 
L 329.566434 263.347303 
L 329.913287 264.531384 
L 330.606993 269.019742 
L 330.953846 265.529123 
L 331.300699 264.17484 
L 331.647552 264.66784 
L 331.994406 264.638495 
L 332.341259 267.327988 
L 332.688112 267.040404 
L 333.381818 267.700673 
L 333.728671 268.372679 
L 334.422378 272.381242 
L 334.769231 271.911718 
L 335.116084 272.105397 
L 335.80979 272.931466 
L 336.156643 272.551445 
L 336.503497 272.470745 
L 336.85035 272.093659 
L 337.197203 272.064313 
L 337.544056 271.860364 
L 337.890909 270.385764 
L 338.584615 270.420979 
L 338.931469 270.686553 
L 339.278322 271.9484 
L 339.625175 272.24332 
L 339.972028 272.98282 
L 340.318881 281.490012 
L 340.665734 280.112252 
L 341.012587 278.080092 
L 341.359441 274.96656 
L 341.706294 274.573333 
L 342.053147 272.705507 
L 342.4 272.313748 
L 342.746853 272.658555 
L 343.093706 263.05385 
L 343.440559 261.140539 
L 343.787413 259.947654 
L 344.134266 247.032804 
L 344.481119 250.353221 
L 344.827972 248.48246 
L 345.174825 248.730428 
L 345.868531 251.16315 
L 346.215385 262.122138 
L 346.562238 262.455207 
L 346.909091 262.442002 
L 347.255944 268.520873 
L 347.602797 268.293447 
L 347.94965 268.746832 
L 348.296503 268.264102 
L 348.643357 268.290513 
L 348.99021 268.605974 
L 349.337063 268.142319 
L 349.683916 268.418165 
L 350.030769 268.176066 
L 350.724476 269.795925 
L 351.071329 269.547957 
L 351.418182 269.746038 
L 351.765035 269.549424 
L 352.111888 269.650666 
L 352.458741 264.956891 
L 352.805594 262.676764 
L 353.152448 263.114008 
L 353.499301 262.020897 
L 353.846154 261.701034 
L 354.53986 261.904983 
L 354.886713 262.301145 
L 355.233566 261.680492 
L 355.58042 261.381171 
L 355.927273 260.618194 
L 356.274126 260.591783 
L 356.620979 260.439188 
L 357.314685 259.313797 
L 358.008392 260.280723 
L 358.355245 260.943926 
L 359.048951 261.2902 
L 359.395804 259.969663 
L 360.08951 259.80533 
L 360.436364 260.406908 
L 360.783217 258.260302 
L 361.13007 258.022605 
L 361.476923 255.53266 
L 361.823776 255.519454 
L 362.170629 255.368326 
L 362.517483 251.772064 
L 363.211189 251.902651 
L 363.558042 251.67229 
L 363.904895 252.634815 
L 364.251748 251.204233 
L 364.598601 254.01551 
L 364.945455 253.648694 
L 365.292308 252.021499 
L 365.986014 251.689897 
L 366.332867 251.08245 
L 366.67972 251.345091 
L 367.026573 251.836624 
L 367.373427 251.383239 
L 368.067133 248.618916 
L 368.413986 250.475004 
L 368.760839 249.038553 
L 369.107692 243.665435 
L 369.801399 242.042642 
L 370.148252 242.311151 
L 370.495105 243.75934 
L 370.841958 244.564868 
L 371.188811 243.46442 
L 371.535664 243.498167 
L 371.882517 244.856853 
L 372.229371 243.37345 
L 372.576224 243.933944 
L 372.923077 241.241517 
L 373.616783 241.077183 
L 373.963636 241.247386 
L 374.31049 241.226844 
L 374.657343 240.098519 
L 375.004196 240.786665 
L 375.351049 239.775721 
L 375.697902 239.906307 
L 376.044755 239.328205 
L 376.391608 235.749551 
L 377.432168 238.867485 
L 377.779021 239.190283 
L 378.125874 238.041416 
L 378.472727 238.374484 
L 378.81958 237.579228 
L 379.166434 238.644461 
L 379.513287 236.918959 
L 379.86014 237.670198 
L 380.206993 237.57776 
L 380.553846 235.721673 
L 380.900699 235.965238 
L 381.247552 235.944697 
L 381.941259 236.679795 
L 382.634965 236.277765 
L 382.981818 236.361399 
L 383.328671 239.089042 
L 383.675524 240.340617 
L 384.022378 239.050893 
L 384.716084 239.273917 
L 385.062937 239.808 
L 385.40979 239.998745 
L 385.756643 240.39784 
L 386.103497 239.989941 
L 386.45035 240.610593 
L 386.797203 240.07651 
L 387.144056 240.198292 
L 388.184615 239.03622 
L 388.531469 240.22617 
L 388.878322 240.384635 
L 389.225175 239.876962 
L 389.572028 240.342084 
L 389.918881 238.651797 
L 390.265734 238.453717 
L 390.612587 237.168394 
L 390.959441 237.441305 
L 391.306294 238.284981 
L 392 238.547621 
L 392.693706 236.285102 
L 393.387413 240.855626 
L 393.734266 240.656079 
L 394.081119 239.802131 
L 394.427972 240.066239 
L 394.774825 240.180685 
L 395.121678 241.618603 
L 395.468531 249.813268 
L 395.815385 249.194083 
L 396.162238 260.305667 
L 396.509091 261.345956 
L 396.855944 261.196295 
L 397.202797 262.321686 
L 397.54965 261.929927 
L 397.896503 261.073045 
L 398.243357 261.096521 
L 398.59021 260.901375 
L 398.937063 261.388507 
L 399.630769 261.489748 
L 399.977622 262.374508 
L 400.324476 260.095848 
L 400.671329 260.317405 
L 401.018182 260.050363 
L 401.365035 257.915495 
L 402.058741 257.495858 
L 402.405594 257.858272 
L 402.752448 256.558277 
L 403.099301 257.397551 
L 403.446154 255.151171 
L 403.793007 251.729514 
L 404.13986 252.127142 
L 404.833566 256.407148 
L 405.18042 255.846654 
L 405.527273 255.947895 
L 405.874126 257.372608 
L 406.220979 257.096762 
L 406.567832 259.536821 
L 407.261538 259.66594 
L 407.608392 262.331957 
L 408.302098 260.99528 
L 408.995804 261.318078 
L 409.342657 262.00329 
L 409.68951 262.318752 
L 410.036364 262.414124 
L 410.383217 262.073719 
L 410.73007 262.343695 
L 411.076923 263.926872 
L 411.423776 264.186578 
L 411.770629 261.33862 
L 412.117483 261.127334 
L 412.811189 262.053177 
L 413.158042 274.109678 
L 413.504895 273.211713 
L 413.851748 274.103809 
L 414.545455 273.362841 
L 414.892308 273.31002 
L 415.239161 273.120743 
L 415.586014 273.67977 
L 415.932867 273.820627 
L 416.27972 272.98282 
L 416.626573 272.709909 
L 416.973427 272.740722 
L 417.32028 274.325366 
L 418.013986 274.431009 
L 418.360839 275.141164 
L 418.707692 274.922542 
L 419.054545 273.857309 
L 419.401399 274.59681 
L 419.748252 263.673036 
L 420.095105 262.66796 
L 420.441958 263.300351 
L 421.135664 265.61129 
L 421.482517 270.765786 
L 421.829371 270.856756 
L 422.176224 265.25768 
L 422.523077 265.179915 
L 422.86993 266.468172 
L 423.216783 267.166589 
L 423.563636 266.641309 
L 423.91049 264.595944 
L 424.257343 264.548992 
L 424.604196 264.105878 
L 424.951049 264.821903 
L 425.297902 266.121898 
L 425.644755 260.882301 
L 425.991608 258.866281 
L 426.685315 256.700601 
L 427.032168 258.453981 
L 427.379021 257.701275 
L 427.725874 259.398898 
L 428.072727 258.000596 
L 428.41958 258.555222 
L 428.766434 261.720108 
L 429.113287 260.902843 
L 429.46014 260.811872 
L 429.806993 259.209621 
L 430.153846 259.005671 
L 431.194406 263.788949 
L 431.541259 262.679698 
L 431.888112 263.548318 
L 432.234965 262.114802 
L 432.581818 261.855097 
L 432.928671 261.902049 
L 433.622378 259.395963 
L 434.662937 260.563905 
L 435.00979 261.344489 
L 435.356643 261.156679 
L 436.05035 261.943132 
L 436.397203 261.938731 
L 436.744056 260.745846 
L 437.437762 259.410636 
L 437.784615 259.589642 
L 438.478322 259.114249 
L 438.825175 259.385693 
L 439.518881 262.076653 
L 439.865734 261.951936 
L 440.212587 262.742791 
L 441.6 261.381171 
L 441.946853 262.312883 
L 442.293706 262.365704 
L 442.640559 263.376648 
L 442.987413 261.115596 
L 443.334266 260.649006 
L 443.681119 260.626997 
L 444.374825 262.662091 
L 444.721678 263.028907 
L 445.068531 260.571241 
L 445.415385 260.616726 
L 445.762238 261.180155 
L 446.109091 264.031048 
L 446.455944 269.264775 
L 446.802797 268.498864 
L 447.14965 268.311054 
L 447.496503 266.952369 
L 447.843357 264.460956 
L 448.19021 263.037711 
L 448.537063 263.003964 
L 448.883916 263.357574 
L 449.230769 263.489628 
L 449.577622 259.596979 
L 449.924476 249.735503 
L 450.271329 248.90063 
L 450.618182 248.525011 
L 450.965035 249.45819 
L 451.311888 249.107514 
L 451.658741 249.763381 
L 452.005594 249.594646 
L 452.352448 249.888098 
L 452.699301 251.946668 
L 453.046154 248.056954 
L 453.393007 248.646794 
L 453.73986 252.873979 
L 454.086713 252.21371 
L 454.433566 250.887304 
L 454.78042 250.747914 
L 455.127273 247.025468 
L 455.474126 246.523664 
L 455.820979 248.491264 
L 456.167832 251.940799 
L 456.514685 251.101525 
L 456.861538 252.539443 
L 457.555245 250.034825 
L 457.902098 249.763381 
L 458.595804 249.701756 
L 459.28951 249.133925 
L 459.636364 245.920619 
L 459.983217 246.036533 
L 460.33007 246.8582 
L 460.676923 248.092168 
L 461.023776 250.005479 
L 461.370629 249.747241 
L 461.717483 248.676139 
L 462.064336 248.073094 
L 462.411189 246.051205 
L 462.758042 245.835517 
L 463.104895 245.044663 
L 463.451748 245.327844 
L 463.798601 245.164978 
L 464.145455 248.102439 
L 464.492308 248.143522 
L 464.839161 247.85007 
L 465.186014 247.961582 
L 465.532867 249.758979 
L 465.87972 250.177149 
L 466.226573 250.925453 
L 466.573427 251.246784 
L 466.92028 251.028162 
L 467.267133 251.014956 
L 467.613986 250.843287 
L 467.960839 250.438322 
L 468.307692 250.699495 
L 468.654545 251.161683 
L 469.695105 252.017097 
L 470.041958 252.499827 
L 470.388811 255.375662 
L 470.735664 256.906018 
L 471.082517 253.138086 
L 471.429371 252.463145 
L 471.776224 252.511565 
L 472.123077 253.252533 
L 472.46993 253.251065 
L 472.816783 252.860773 
L 473.163636 252.805017 
L 473.51049 252.561452 
L 473.857343 254.841579 
L 474.204196 259.192014 
L 474.551049 258.512671 
L 474.897902 258.908832 
L 475.244755 257.004325 
L 475.591608 257.177462 
L 475.938462 256.592024 
L 476.285315 258.032876 
L 476.632168 258.98513 
L 476.979021 259.52655 
L 477.325874 259.685014 
L 477.672727 259.208154 
L 478.01958 262.334892 
L 478.366434 263.98703 
L 478.713287 259.77305 
L 479.06014 258.292582 
L 479.406993 257.362337 
L 479.753846 258.060754 
L 480.100699 257.830394 
L 480.447552 259.139192 
L 481.141259 257.705676 
L 481.834965 259.1568 
L 482.181818 260.384899 
L 482.528671 260.279256 
L 482.875524 259.699687 
L 483.222378 260.632866 
L 483.569231 260.676884 
L 483.916084 261.296069 
L 484.262937 260.685688 
L 484.956643 260.776658 
L 485.303497 260.063568 
L 485.65035 261.780266 
L 486.344056 261.626203 
L 486.690909 260.838283 
L 487.037762 260.503747 
L 487.384615 260.697426 
L 487.731469 260.381964 
L 488.078322 260.31447 
L 488.425175 259.94472 
L 488.772028 255.407942 
L 489.118881 256.87814 
L 489.812587 257.927233 
L 490.159441 257.573623 
L 490.506294 258.515606 
L 490.853147 258.286713 
L 491.2 257.517867 
L 491.546853 257.991793 
L 491.893706 257.798114 
L 492.240559 255.359523 
L 492.934266 254.564266 
L 493.627972 255.707264 
L 493.974825 256.602294 
L 494.668531 255.074874 
L 495.015385 257.384346 
L 495.362238 257.842132 
L 496.055944 256.474643 
L 496.402797 257.824525 
L 496.74965 254.703656 
L 497.096503 253.277476 
L 497.443357 253.201178 
L 497.79021 251.943734 
L 498.137063 252.806485 
L 498.483916 254.885597 
L 498.830769 254.077135 
L 499.177622 242.623678 
L 499.524476 243.862049 
L 499.871329 238.532949 
L 500.218182 238.333401 
L 500.565035 240.104388 
L 500.911888 239.278318 
L 501.258741 242.523905 
L 501.605594 244.532588 
L 502.299301 253.997902 
L 502.646154 251.780868 
L 502.993007 252.200505 
L 503.33986 250.652542 
L 503.686713 250.533694 
L 504.033566 251.321614 
L 504.38042 251.161683 
L 504.727273 252.1873 
L 505.074126 251.772064 
L 505.420979 252.950276 
L 505.767832 255.142368 
L 506.114685 255.493044 
L 506.461538 256.322047 
L 506.808392 256.226675 
L 507.155245 255.544398 
L 507.502098 255.228936 
L 507.848951 255.617761 
L 508.195804 255.127695 
L 508.542657 255.446091 
L 508.88951 253.453548 
L 509.236364 253.280411 
L 509.583217 254.234132 
L 509.93007 254.127022 
L 510.276923 254.593611 
L 510.623776 253.833569 
L 510.970629 250.76112 
L 511.317483 250.972406 
L 511.664336 251.858633 
L 512.011189 254.639096 
L 512.358042 254.606817 
L 512.704895 254.435147 
L 513.051748 253.946548 
L 513.745455 255.852523 
L 514.092308 256.302973 
L 514.439161 256.455568 
L 514.786014 256.465839 
L 515.132867 256.753423 
L 515.826573 258.091567 
L 516.173427 257.74676 
L 516.52028 256.944167 
L 516.867133 257.063015 
L 517.213986 258.210415 
L 518.254545 258.401159 
L 518.601399 256.527464 
L 518.948252 256.188526 
L 519.295105 256.807711 
L 519.641958 256.922158 
L 519.988811 257.40342 
L 520.335664 257.155453 
L 520.682517 256.602294 
L 521.376224 256.317645 
L 521.723077 255.252412 
L 522.06993 255.661779 
L 522.416783 254.966296 
L 522.763636 254.9751 
L 523.11049 254.332438 
L 523.457343 257.914028 
L 523.804196 258.47012 
L 524.151049 257.330057 
L 524.497902 256.784235 
L 525.191608 256.640443 
L 525.538462 257.459176 
L 525.885315 257.043941 
L 526.579021 250.822745 
L 526.925874 249.780988 
L 527.272727 249.672411 
L 527.61958 250.678953 
L 527.966434 248.573431 
L 528.313287 248.859547 
L 528.66014 248.136186 
L 529.006993 248.347472 
L 529.353846 253.198244 
L 529.700699 251.488882 
L 530.047552 254.351513 
L 530.394406 253.98323 
L 530.741259 256.163583 
L 531.088112 257.243488 
L 531.434965 256.641911 
L 531.781818 257.271366 
L 532.475524 257.689536 
L 532.822378 258.27204 
L 533.169231 258.627118 
L 533.516084 258.543484 
L 533.862937 258.125314 
L 534.20979 258.490662 
L 534.556643 258.574296 
L 534.903497 258.825198 
L 535.25035 257.063015 
L 535.597203 257.042473 
L 535.944056 257.676331 
L 536.984615 255.849588 
L 537.331469 255.881868 
L 537.678322 256.533333 
L 538.025175 249.964396 
L 538.372028 250.092048 
L 538.718881 249.405369 
L 539.065734 249.258642 
L 539.412587 249.841146 
L 539.759441 249.010675 
L 540.453147 249.057627 
L 540.8 249.789792 
L 541.146853 256.034464 
L 541.493706 251.726579 
L 541.840559 250.432453 
L 542.187413 249.647467 
L 542.534266 249.5653 
L 542.881119 250.357622 
L 543.227972 250.501414 
L 543.574825 250.463265 
L 543.921678 249.283586 
L 544.268531 249.535955 
L 544.615385 252.451407 
L 544.962238 251.948136 
L 545.309091 252.796214 
L 545.655944 250.62173 
L 546.002797 247.267566 
L 546.34965 246.396012 
L 547.043357 239.747843 
L 547.39021 239.831477 
L 547.737063 237.849204 
L 548.083916 238.471324 
L 548.430769 239.624593 
L 548.777622 240.177751 
L 549.124476 245.517121 
L 549.471329 245.974907 
L 550.165035 254.194516 
L 550.511888 262.623942 
L 550.858741 263.39719 
L 551.205594 263.532178 
L 551.552448 265.049328 
L 551.899301 264.325968 
L 552.246154 264.600346 
L 552.93986 263.174166 
L 553.286713 262.114802 
L 553.633566 260.302732 
L 553.98042 249.961461 
L 554.327273 248.874219 
L 554.674126 249.069365 
L 555.020979 250.665748 
L 555.367832 250.042161 
L 555.714685 250.103786 
L 556.408392 250.519021 
L 556.755245 251.265858 
L 557.102098 254.269346 
L 557.448951 254.652302 
L 557.795804 252.988425 
L 558.142657 248.646794 
L 558.48951 247.713614 
L 558.836364 247.203007 
L 559.183217 247.241156 
L 559.876923 248.046683 
L 560.223776 245.007981 
L 560.570629 245.142969 
L 560.917483 241.350094 
L 561.264336 243.223789 
L 561.611189 243.665435 
L 562.304895 243.445346 
L 562.651748 243.291283 
L 562.998601 243.93101 
L 563.345455 245.725473 
L 563.692308 244.658772 
L 564.039161 245.027055 
L 564.386014 245.081344 
L 564.732867 244.941954 
L 565.07972 244.991841 
L 565.426573 245.524458 
L 565.773427 245.842854 
L 566.12028 246.931563 
L 566.467133 247.267566 
L 567.160839 245.703464 
L 567.507692 242.270068 
L 567.854545 240.961269 
L 568.201399 241.066912 
L 568.895105 241.870972 
L 569.241958 242.30675 
L 569.588811 240.309804 
L 569.935664 240.19976 
L 570.282517 239.190283 
L 570.629371 239.180012 
L 570.976224 237.043677 
L 571.323077 236.524266 
L 571.66993 234.778222 
L 572.016783 234.553731 
L 572.363636 233.591207 
L 572.71049 233.790754 
L 573.057343 231.724848 
L 573.404196 231.578121 
L 573.751049 230.568644 
L 574.097902 227.011999 
L 574.444755 226.887281 
L 574.791608 227.384683 
L 575.138462 226.602632 
L 575.485315 226.722948 
L 575.832168 223.62849 
L 576.525874 226.045072 
L 576.872727 224.972503 
L 577.21958 224.664378 
L 577.566434 224.859524 
L 577.913287 224.83458 
L 578.26014 215.923891 
L 578.953846 221.005023 
L 579.300699 222.754001 
L 579.647552 222.745197 
L 579.994406 225.571146 
L 580.341259 226.221144 
L 580.688112 225.277694 
L 581.034965 225.871935 
L 581.381818 225.013586 
L 581.728671 224.984241 
L 582.075524 226.563016 
L 582.422378 227.290779 
L 582.769231 224.883 
L 583.462937 223.775216 
L 583.80979 225.741349 
L 584.503497 223.166302 
L 585.544056 223.048921 
L 585.890909 223.920475 
L 586.237762 223.607948 
L 586.584615 223.854448 
L 586.931469 223.709189 
L 587.278322 224.036389 
L 587.625175 225.59609 
L 587.972028 225.783899 
L 588.318881 226.675995 
L 589.012587 226.307712 
L 589.359441 227.201276 
L 589.706294 226.658388 
L 590.053147 227.569559 
L 590.4 232.947078 
L 590.746853 234.405538 
L 591.093706 233.33737 
L 591.440559 232.966152 
L 591.787413 231.714577 
L 592.134266 231.318416 
L 592.827972 230.938395 
L 593.174825 230.972142 
L 593.521678 232.772474 
L 593.868531 235.212532 
L 594.215385 232.76367 
L 594.562238 232.680036 
L 594.909091 232.853173 
L 595.255944 232.851706 
L 595.602797 231.660288 
L 595.94965 231.435797 
L 596.296503 232.20611 
L 596.643357 232.226652 
L 596.99021 231.007356 
L 597.337063 231.997759 
L 597.683916 231.993357 
L 598.377622 237.366475 
L 598.724476 237.73329 
L 599.418182 240.93926 
L 599.765035 240.975942 
L 600.111888 242.479887 
L 600.805594 242.523905 
L 601.152448 241.94727 
L 601.499301 240.309804 
L 601.846154 240.308337 
L 602.193007 241.216573 
L 602.53986 242.519503 
L 603.233566 242.713181 
L 603.58042 262.644484 
L 603.927273 260.685688 
L 604.274126 261.549906 
L 604.620979 261.747986 
L 604.967832 260.918983 
L 605.314685 260.712099 
L 605.661538 260.235238 
L 606.008392 243.435075 
L 607.048951 242.255395 
L 607.395804 242.105735 
L 607.742657 241.771199 
L 608.436364 243.14309 
L 608.783217 244.758546 
L 609.13007 241.338356 
L 609.476923 241.176957 
L 609.823776 238.38769 
L 610.170629 238.149993 
L 610.517483 235.523592 
L 610.864336 234.578675 
L 611.211189 234.398201 
L 611.904895 234.631496 
L 612.251748 240.622332 
L 612.598601 240.49468 
L 612.945455 239.212292 
L 613.292308 239.787459 
L 613.639161 239.959129 
L 614.332867 239.57764 
L 614.67972 238.640059 
L 615.026573 238.474258 
L 615.373427 238.086901 
L 615.72028 240.747049 
L 616.067133 239.759581 
L 616.413986 238.085434 
L 616.760839 237.720085 
L 617.107692 237.668731 
L 617.454545 238.010603 
L 617.801399 240.051566 
L 618.148252 240.099986 
L 618.495105 239.568837 
L 618.841958 239.425045 
L 619.188811 239.718497 
L 619.882517 239.791861 
L 620.229371 236.213206 
L 620.576224 234.552264 
L 620.923077 231.180493 
L 621.26993 230.20623 
L 621.616783 230.44246 
L 621.963636 230.411647 
L 622.31049 230.631737 
L 622.657343 229.554766 
L 623.351049 230.420451 
L 623.697902 229.092578 
L 624.044755 231.47688 
L 624.391608 229.52542 
L 624.738462 229.890769 
L 625.085315 224.166975 
L 625.432168 222.950614 
L 625.779021 224.199255 
L 626.125874 224.858056 
L 626.472727 228.72136 
L 627.166434 205.363998 
L 627.513287 205.642778 
L 627.86014 205.688263 
L 628.553846 207.011735 
L 628.900699 207.105639 
L 629.247552 207.930241 
L 630.288112 216.758764 
L 630.634965 217.574562 
L 630.981818 216.7661 
L 631.328671 216.406621 
L 631.675524 216.342061 
L 632.022378 214.16611 
L 632.369231 214.160241 
L 632.716084 213.968029 
L 633.062937 213.953357 
L 633.40979 215.113962 
L 633.756643 215.034729 
L 634.103497 214.725137 
L 634.45035 213.45302 
L 634.797203 213.533719 
L 635.144056 216.14398 
L 635.490909 217.272306 
L 635.837762 217.898827 
L 636.184615 217.285511 
L 636.531469 217.94578 
L 636.878322 216.824791 
L 637.225175 216.667793 
L 637.572028 216.92163 
L 637.918881 215.947367 
L 638.265734 215.724343 
L 638.612587 216.121971 
L 638.959441 214.408208 
L 639.306294 214.794098 
L 639.653147 214.663512 
L 640 215.081682 
L 640.346853 214.689923 
L 640.693706 214.538795 
L 641.040559 210.968943 
L 641.734266 209.889038 
L 642.081119 210.751788 
L 642.774825 211.579325 
L 643.121678 209.820076 
L 643.815385 203.799896 
L 644.162238 206.439502 
L 644.509091 204.98251 
L 644.855944 204.423482 
L 645.202797 201.66356 
L 645.54965 200.08772 
L 645.896503 200.48975 
L 646.243357 199.965937 
L 646.59021 204.226869 
L 646.937063 202.896061 
L 647.283916 202.536582 
L 647.630769 203.672244 
L 647.977622 203.673711 
L 648.324476 204.339848 
L 648.671329 203.936351 
L 649.018182 202.840305 
L 649.365035 204.769757 
L 649.711888 204.631834 
L 650.058741 204.831382 
L 650.405594 204.570209 
L 650.752448 203.136693 
L 651.099301 203.500574 
L 651.446154 202.378118 
L 651.793007 202.297418 
L 652.13986 202.381052 
L 652.486713 201.984891 
L 652.833566 202.304754 
L 653.18042 202.959154 
L 653.527273 213.312163 
L 653.874126 214.164642 
L 654.220979 214.028187 
L 654.567832 214.553467 
L 655.261538 213.941618 
L 655.955245 215.206399 
L 656.302098 217.087431 
L 656.648951 216.613505 
L 657.342657 217.642056 
L 657.68951 218.818801 
L 658.036364 218.972864 
L 658.383217 217.322193 
L 658.73007 217.363276 
L 659.076923 212.930674 
L 659.423776 213.530785 
L 659.770629 209.153939 
L 660.464336 207.939045 
L 660.811189 208.025613 
L 661.158042 205.871671 
L 661.504895 207.928774 
L 661.851748 207.782048 
L 662.198601 211.288807 
L 662.545455 211.702575 
L 662.892308 215.382471 
L 663.239161 215.598159 
L 663.586014 215.02886 
L 663.932867 214.870396 
L 664.626573 218.372753 
L 664.973427 218.155598 
L 665.32028 216.730886 
L 665.667133 216.251091 
L 666.013986 215.369265 
L 666.360839 216.378743 
L 666.707692 216.349397 
L 667.054545 217.037544 
L 667.401399 216.987657 
L 667.748252 217.160794 
L 668.095105 216.984722 
L 668.441958 217.401425 
L 668.788811 212.415665 
L 669.135664 211.020298 
L 669.482517 204.725739 
L 670.176224 204.303167 
L 670.523077 205.405081 
L 670.86993 202.203513 
L 671.216783 202.03918 
L 671.563636 202.381052 
L 671.91049 205.337587 
L 672.604196 207.324262 
L 672.951049 206.184198 
L 673.297902 209.300665 
L 673.644755 208.738703 
L 673.991608 209.123126 
L 674.338462 207.680807 
L 674.685315 206.841532 
L 675.032168 208.669742 
L 675.379021 213.033383 
L 675.725874 219.006611 
L 676.072727 216.93777 
L 676.766434 197.668203 
L 677.113287 197.43931 
L 677.46014 193.564268 
L 677.806993 194.104221 
L 678.153846 188.289457 
L 678.500699 187.953454 
L 678.847552 191.677367 
L 679.541259 209.579445 
L 679.888112 210.097389 
L 680.234965 209.522222 
L 680.581818 213.809565 
L 680.928671 214.593083 
L 681.275524 213.904937 
L 681.622378 212.481692 
L 682.316084 212.315891 
L 682.662937 213.291621 
L 683.00979 212.885189 
L 683.356643 214.227735 
L 683.703497 212.907198 
L 684.05035 212.55212 
L 684.397203 213.431011 
L 684.744056 212.486093 
L 685.090909 213.078868 
L 685.437762 211.288807 
L 685.784615 210.465672 
L 686.131469 208.003604 
L 686.478322 207.349205 
L 686.825175 208.272114 
L 687.172028 208.116584 
L 687.518881 206.621443 
L 687.865734 206.583294 
L 688.212587 204.024387 
L 688.559441 207.108574 
L 688.906294 207.409363 
L 689.6 206.914895 
L 689.946853 206.972119 
L 690.293706 201.783876 
L 690.987413 201.255661 
L 691.334266 202.177103 
L 691.681119 202.696514 
L 692.721678 203.682515 
L 693.068531 201.227783 
L 693.762238 201.967284 
L 694.109091 200.090654 
L 694.455944 195.87374 
L 694.802797 194.296432 
L 695.14965 196.668997 
L 695.496503 196.557485 
L 695.843357 198.391564 
L 696.19021 201.258596 
L 696.537063 200.925527 
L 697.230769 204.652375 
L 697.577622 205.570882 
L 697.924476 205.638376 
L 698.271329 205.350793 
L 698.965035 208.528885 
L 699.311888 209.151004 
L 699.658741 209.11579 
L 700.005594 207.691077 
L 700.352448 203.692785 
L 700.699301 201.483087 
L 701.046154 201.402388 
L 701.393007 202.128683 
L 701.73986 201.747194 
L 702.086713 202.206448 
L 702.433566 205.242215 
L 702.78042 205.785103 
L 703.127273 209.269853 
L 703.474126 208.952924 
L 703.820979 205.66332 
L 704.167832 204.615694 
L 704.514685 204.405875 
L 704.861538 204.341316 
L 705.208392 202.941547 
L 705.555245 202.796288 
L 705.902098 202.225522 
L 706.248951 202.3341 
L 706.595804 201.534441 
L 707.636364 201.214578 
L 707.983217 199.828014 
L 708.33007 200.048104 
L 708.676923 199.525758 
L 709.023776 200.281399 
L 709.370629 200.16255 
L 710.411189 196.6778 
L 710.758042 199.597654 
L 711.104895 200.172821 
L 711.451748 199.368761 
L 711.798601 199.879368 
L 712.145455 202.659832 
L 712.492308 202.686243 
L 712.839161 199.5463 
L 713.186014 199.688624 
L 713.532867 203.149898 
L 713.87972 204.763887 
L 714.573427 205.375736 
L 714.92028 205.421221 
L 715.267133 205.353727 
L 715.613986 205.918624 
L 716.307692 205.625171 
L 716.654545 205.211403 
L 717.001399 200.199232 
L 717.348252 200.272595 
L 717.695105 198.594046 
L 718.041958 199.364359 
L 718.388811 199.684222 
L 718.735664 194.245078 
L 719.082517 190.559313 
L 719.429371 190.692834 
L 719.776224 188.615189 
L 720.123077 196.385815 
L 720.46993 195.790106 
L 721.163636 201.221914 
L 721.51049 211.098062 
L 721.857343 216.158653 
L 722.204196 214.933488 
L 722.551049 205.052938 
L 722.897902 203.983303 
L 723.244755 203.796961 
L 723.591608 205.054406 
L 723.938462 198.674745 
L 724.285315 196.69394 
L 724.632168 196.017532 
L 724.979021 195.862002 
L 725.325874 197.304322 
L 725.672727 197.392357 
L 726.01958 198.439983 
L 726.366434 198.944722 
L 726.713287 200.219774 
L 727.06014 204.241542 
L 727.406993 197.453982 
L 727.753846 196.539878 
L 728.100699 208.110715 
L 728.447552 208.035884 
L 728.794406 207.730694 
L 729.141259 207.258235 
L 729.488112 205.636909 
L 729.834965 210.349758 
L 730.181818 210.619735 
L 730.528671 215.677391 
L 730.875524 215.904817 
L 731.222378 215.444096 
L 731.569231 215.489581 
L 731.916084 215.948834 
L 732.262937 216.097028 
L 732.60979 216.971517 
L 732.956643 217.441041 
L 733.303497 217.61858 
L 733.65035 219.115188 
L 734.344056 216.563618 
L 734.690909 216.248156 
L 735.037762 214.123559 
L 735.384615 213.583606 
L 735.731469 214.327509 
L 736.078322 214.01058 
L 736.425175 214.904143 
L 736.772028 214.180782 
L 737.118881 215.353126 
L 737.465734 212.738463 
L 737.812587 214.164642 
L 738.159441 216.13371 
L 738.506294 216.127841 
L 738.853147 216.931901 
L 739.2 216.882014 
L 739.546853 212.79862 
L 739.893706 213.14196 
L 740.240559 213.027514 
L 740.587413 215.985516 
L 740.934266 215.898947 
L 741.281119 216.460909 
L 741.627972 216.50346 
L 741.974825 216.92163 
L 742.321678 214.095681 
L 742.668531 218.258307 
L 743.362238 214.01058 
L 743.709091 214.094214 
L 744.055944 213.828639 
L 744.402797 212.047382 
L 744.74965 213.215323 
L 745.096503 212.120745 
L 745.443357 215.031795 
L 746.137063 214.383265 
L 746.483916 218.029414 
L 746.830769 218.790923 
L 747.177622 217.229755 
L 747.524476 215.10956 
L 747.871329 214.896807 
L 748.218182 215.278295 
L 748.565035 215.360462 
L 748.911888 214.618027 
L 749.258741 214.912947 
L 749.605594 214.064869 
L 749.952448 213.739136 
L 750.299301 213.676044 
L 750.646154 215.844659 
L 750.993007 212.654829 
L 751.33986 214.007645 
L 751.686713 213.869723 
L 752.033566 211.711378 
L 752.38042 212.557989 
L 752.727273 211.106866 
L 753.074126 213.479431 
L 753.420979 213.627624 
L 753.767832 213.187445 
L 754.114685 212.557989 
L 754.461538 210.154612 
L 754.808392 209.908112 
L 755.155245 212.050316 
L 755.502098 213.254939 
L 755.848951 212.870516 
L 756.195804 209.423915 
L 756.542657 209.429784 
L 756.88951 209.878767 
L 757.236364 209.953597 
L 757.583217 212.64896 
L 758.276923 209.073239 
L 758.623776 209.241975 
L 758.970629 208.46726 
L 759.664336 208.567034 
L 760.011189 208.291188 
L 760.358042 209.48554 
L 760.704895 209.811273 
L 761.051748 210.720976 
L 761.398601 208.844346 
L 761.745455 210.6168 
L 762.092308 210.380571 
L 762.439161 211.26533 
L 762.786014 211.228649 
L 763.132867 211.416459 
L 763.47972 211.441402 
L 763.826573 205.173254 
L 764.173427 204.995715 
L 764.52028 207.895027 
L 764.867133 203.813101 
L 765.213986 204.449893 
L 765.560839 204.181384 
L 765.907692 203.757345 
L 766.601399 203.682515 
L 766.948252 204.292896 
L 767.295105 204.198991 
L 767.641958 204.524724 
L 767.988811 204.169646 
L 768.335664 201.701709 
L 768.682517 200.470676 
L 769.029371 205.777766 
L 769.376224 206.945708 
L 769.723077 207.088032 
L 770.06993 218.255372 
L 770.416783 218.353679 
L 770.763636 204.645039 
L 771.804196 195.847329 
L 772.151049 198.762781 
L 772.497902 199.147204 
L 772.844755 200.093589 
L 773.191608 204.650908 
L 773.538462 199.330612 
L 773.885315 200.262324 
L 774.232168 198.404769 
L 774.579021 200.695167 
L 774.925874 200.630607 
L 775.272727 199.320341 
L 775.61958 199.094383 
L 775.966434 199.384901 
L 776.313287 202.150692 
L 777.353846 202.19471 
L 777.700699 202.39279 
L 778.047552 201.490423 
L 778.394406 201.323155 
L 778.741259 197.311658 
L 779.088112 196.81719 
L 779.434965 199.180951 
L 779.781818 204.329578 
L 780.128671 202.835904 
L 780.475524 203.254074 
L 780.822378 202.91807 
L 781.169231 203.798428 
L 781.516084 205.476977 
L 781.862937 205.906885 
L 782.20979 208.806197 
L 782.556643 210.006419 
L 782.903497 209.331478 
L 783.25035 209.136332 
L 783.597203 209.570642 
L 783.944056 205.192328 
L 784.637762 204.138833 
L 785.331469 204.458697 
L 785.678322 206.036005 
L 786.372028 207.45925 
L 786.718881 207.0088 
L 787.065734 205.768963 
L 787.412587 206.473249 
L 787.759441 204.480706 
L 788.106294 204.442557 
L 788.453147 204.218066 
L 788.8 204.226869 
L 789.493706 203.905539 
L 789.840559 205.617835 
L 790.187413 205.545939 
L 790.534266 205.133638 
L 790.881119 205.305308 
L 791.227972 207.75417 
L 791.574825 205.928894 
L 792.268531 203.659038 
L 792.615385 203.984771 
L 792.962238 204.071339 
L 793.309091 212.224921 
L 793.655944 209.45913 
L 794.002797 209.441522 
L 794.34965 206.260496 
L 794.696503 205.562079 
L 795.043357 203.713327 
L 795.39021 200.913789 
L 795.737063 200.866837 
L 796.083916 200.699569 
L 796.430769 198.664475 
L 796.777622 200.659952 
L 797.124476 201.106 
L 797.818182 204.844587 
L 798.511888 202.894594 
L 799.205594 206.17246 
L 799.552448 208.366018 
L 799.899301 207.306655 
L 800.246154 203.24527 
L 800.593007 204.144702 
L 800.93986 204.536462 
L 801.286713 205.896615 
L 801.633566 203.948089 
L 801.98042 202.959154 
L 802.327273 203.905539 
L 802.674126 203.952491 
L 803.020979 205.033864 
L 803.367832 208.905971 
L 803.714685 207.72189 
L 804.061538 207.694012 
L 804.755245 209.356421 
L 805.102098 212.050316 
L 805.448951 210.009353 
L 805.795804 210.142874 
L 806.142657 210.138472 
L 807.183217 212.018036 
L 807.53007 210.990952 
L 807.876923 209.187686 
L 808.223776 209.997615 
L 808.570629 212.371647 
L 808.917483 212.170632 
L 809.264336 209.128995 
L 809.611189 209.290394 
L 809.958042 211.971084 
L 810.304895 213.695118 
L 810.651748 214.679652 
L 810.998601 214.111821 
L 811.345455 214.104485 
L 811.692308 211.573456 
L 812.039161 211.252125 
L 812.386014 211.83903 
L 812.732867 211.00269 
L 813.07972 202.800689 
L 813.426573 199.76052 
L 813.773427 201.126542 
L 814.12028 199.191222 
L 814.467133 201.343697 
L 814.813986 199.314472 
L 815.160839 198.29179 
L 815.507692 199.11199 
L 815.854545 200.530833 
L 816.201399 208.640397 
L 816.548252 209.004278 
L 816.895105 208.587575 
L 817.241958 210.081249 
L 817.588811 209.046829 
L 817.935664 211.447271 
L 818.282517 211.508896 
L 818.976224 211.334292 
L 819.323077 209.178882 
L 819.66993 209.746713 
L 820.016783 210.968943 
L 820.363636 215.513057 
L 820.71049 213.023112 
L 821.057343 209.095248 
L 821.751049 209.404841 
L 822.444755 220.985949 
L 822.791608 213.08327 
L 823.138462 215.970843 
L 823.485315 212.989365 
L 823.832168 212.977627 
L 824.179021 214.028187 
L 824.525874 214.631232 
L 824.872727 213.320966 
L 825.21958 213.80663 
L 825.566434 213.517579 
L 825.913287 212.05912 
L 826.606993 216.028067 
L 826.953846 214.748613 
L 827.300699 217.137318 
L 827.647552 216.259894 
L 828.688112 215.498385 
L 829.381818 214.491842 
L 829.728671 214.125026 
L 830.422378 216.359668 
L 830.769231 216.603234 
L 831.116084 218.446116 
L 831.462937 219.354352 
L 831.80979 215.866668 
L 832.156643 216.744091 
L 832.503497 216.39635 
L 832.85035 215.802108 
L 833.197203 215.901882 
L 833.544056 216.120504 
L 833.890909 216.61057 
L 834.237762 210.343889 
L 834.584615 212.540382 
L 834.931469 212.660698 
L 835.278322 210.698967 
L 835.625175 211.413524 
L 835.972028 210.216237 
L 836.665734 210.627071 
L 837.012587 209.806871 
L 837.359441 209.686555 
L 837.706294 208.747507 
L 838.053147 209.039492 
L 838.4 211.946141 
L 838.746853 210.892646 
L 839.093706 211.488354 
L 839.440559 211.153818 
L 839.787413 211.959346 
L 840.134266 213.100877 
L 841.174825 210.302806 
L 841.521678 210.675491 
L 841.868531 208.01681 
L 842.562238 205.921558 
L 842.909091 206.367606 
L 843.255944 207.761506 
L 843.602797 208.316132 
L 843.94965 210.806077 
L 844.296503 210.138472 
L 844.643357 207.965456 
L 844.99021 210.021091 
L 845.337063 209.407775 
L 845.683916 209.949195 
L 846.030769 209.463531 
L 846.377622 208.298524 
L 846.724476 208.674144 
L 847.071329 210.153145 
L 847.418182 212.688576 
L 847.765035 213.461823 
L 848.111888 213.001103 
L 848.458741 211.940272 
L 848.805594 213.136091 
L 849.152448 213.582139 
L 849.499301 213.514645 
L 849.846154 214.160241 
L 850.193007 215.925358 
L 850.53986 216.727951 
L 850.886713 214.791164 
L 851.233566 214.271753 
L 851.58042 214.370059 
L 851.927273 214.328976 
L 852.274126 214.824911 
L 852.620979 217.724223 
L 852.967832 216.5196 
L 853.314685 216.692737 
L 853.661538 216.186531 
L 854.008392 218.7337 
L 854.355245 220.174552 
L 854.702098 219.763719 
L 855.048951 219.826811 
L 855.395804 219.759317 
L 855.742657 219.831213 
L 856.08951 221.082788 
L 856.436364 220.183356 
L 856.783217 217.94578 
L 857.13007 220.264055 
L 857.476923 220.18629 
L 857.823776 219.822409 
L 858.170629 218.645664 
L 858.517483 216.054477 
L 858.864336 215.834388 
L 859.211189 217.02874 
L 859.558042 216.877612 
L 859.904895 219.951528 
L 860.251748 218.416771 
L 860.598601 215.329649 
L 860.945455 215.532132 
L 861.292308 215.006851 
L 861.639161 216.353799 
L 861.986014 214.578411 
L 862.332867 213.607082 
L 862.67972 211.177295 
L 863.026573 210.794339 
L 863.72028 212.764873 
L 864.067133 213.548392 
L 864.413986 213.095008 
L 864.760839 213.237332 
L 865.107692 219.945659 
L 865.454545 221.665292 
L 865.801399 225.001848 
L 866.148252 224.01438 
L 866.495105 224.542595 
L 866.841958 224.513249 
L 867.535664 226.71121 
L 867.882517 226.295974 
L 868.229371 226.295974 
L 868.576224 225.094286 
L 868.923077 226.552745 
L 869.616783 230.417516 
L 869.963636 229.154203 
L 870.31049 227.133781 
L 870.657343 226.10523 
L 871.004196 225.676789 
L 871.351049 225.877804 
L 871.697902 228.25477 
L 872.044755 227.679603 
L 872.738462 229.259846 
L 873.085315 232.087262 
L 873.432168 233.589739 
L 873.779021 233.500236 
L 874.125874 233.529581 
L 874.472727 229.479935 
L 874.81958 222.117209 
L 875.166434 222.645423 
L 875.513287 223.453885 
L 875.86014 223.37612 
L 876.206993 223.541921 
L 876.553846 213.888797 
L 876.900699 211.527971 
L 877.247552 212.10754 
L 877.594406 219.932454 
L 877.941259 220.702767 
L 878.288112 222.933007 
L 878.634965 221.829625 
L 878.981818 221.795878 
L 879.328671 221.330756 
L 879.675524 221.387979 
L 880.369231 221.098928 
L 880.716084 218.459322 
L 881.062937 219.126926 
L 881.40979 219.53776 
L 881.756643 220.462136 
L 882.103497 220.520826 
L 882.45035 220.742383 
L 882.797203 220.149609 
L 883.144056 220.506154 
L 883.490909 216.383144 
L 883.837762 219.329409 
L 884.531469 219.367558 
L 884.878322 218.911239 
L 885.572028 219.137197 
L 885.918881 221.150282 
L 886.265734 220.569246 
L 886.612587 220.902315 
L 886.959441 220.419585 
L 887.306294 221.053443 
L 887.653147 224.511782 
L 888 222.500164 
L 888.346853 222.460548 
L 888.693706 221.363035 
L 889.040559 220.916987 
L 889.387413 220.848026 
L 890.081119 220.410782 
L 890.427972 217.925238 
L 890.774825 217.351538 
L 891.121678 215.598159 
L 891.468531 214.513851 
L 891.815385 210.060707 
L 892.162238 209.729106 
L 892.509091 212.207313 
L 892.855944 212.845573 
L 893.54965 210.904384 
L 893.896503 207.740964 
L 894.243357 209.077641 
L 894.59021 211.478084 
L 894.937063 211.014428 
L 895.283916 210.763526 
L 895.630769 209.767255 
L 895.977622 209.985877 
L 896.324476 211.750995 
L 896.671329 214.343649 
L 897.018182 219.222299 
L 897.365035 222.302084 
L 897.711888 221.685833 
L 898.058741 221.930866 
L 898.405594 221.844298 
L 898.752448 223.041584 
L 899.099301 222.457614 
L 899.446154 223.021043 
L 899.793007 222.822962 
L 900.486713 223.163367 
L 900.833566 223.92341 
L 901.18042 223.436278 
L 901.527273 222.595536 
L 902.220979 221.974884 
L 902.567832 223.475894 
L 902.914685 224.180181 
L 903.608392 224.246208 
L 903.955245 224.595416 
L 904.648951 224.002642 
L 904.995804 223.951288 
L 905.342657 225.295301 
L 905.68951 225.20433 
L 906.036364 225.662116 
L 906.383217 225.588753 
L 906.73007 225.732545 
L 907.076923 226.45884 
L 907.423776 225.918888 
L 907.770629 220.099722 
L 908.464336 219.973537 
L 909.158042 222.944745 
L 909.504895 222.538313 
L 909.851748 222.621947 
L 910.545455 224.326907 
L 910.892308 225.500718 
L 911.239161 225.594622 
L 911.586014 224.007044 
L 912.27972 135.101168 
L 912.626573 135.371144 
L 912.973427 141.495501 
L 913.32028 140.345166 
L 913.667133 141.055322 
L 914.013986 142.136695 
L 914.360839 142.50351 
L 914.707692 143.354523 
L 915.054545 143.772693 
L 915.748252 129.061913 
L 916.095105 125.038677 
L 916.788811 103.182325 
L 917.135664 102.008515 
L 917.829371 102.087747 
L 918.176224 103.103093 
L 918.523077 102.142036 
L 918.86993 103.004786 
L 919.563636 101.362919 
L 920.257343 97.56124 
L 920.604196 96.240703 
L 920.951049 95.960456 
L 921.297902 95.847477 
L 921.644755 96.598716 
L 921.991608 96.749844 
L 922.338462 97.637538 
L 922.685315 98.143744 
L 923.032168 89.607207 
L 923.379021 86.856088 
L 923.725874 86.451124 
L 924.072727 84.972122 
L 924.41958 80.708256 
L 924.766434 81.59595 
L 925.113287 79.599005 
L 925.46014 78.731852 
L 925.806993 66.96 
L 926.153846 69.128615 
L 926.500699 79.882187 
L 926.847552 82.846058 
L 927.194406 83.000121 
L 927.541259 90.659234 
L 927.888112 90.67244 
L 928.234965 93.367802 
L 928.581818 93.229879 
L 928.928671 93.743421 
L 929.275524 95.402896 
L 929.622378 95.39556 
L 929.969231 95.875355 
L 930.316084 95.248833 
L 930.662937 95.353009 
L 931.00979 96.40357 
L 931.356643 95.458652 
L 931.703497 95.496801 
L 932.05035 97.465868 
L 932.397203 96.330206 
L 932.744056 94.487324 
L 933.090909 95.598042 
L 933.437762 95.686078 
L 933.784615 96.300861 
L 934.131469 95.903233 
L 934.478322 94.999399 
L 934.825175 91.91081 
L 935.172028 92.177852 
L 935.518881 93.749291 
L 935.865734 93.695002 
L 936.212587 92.083947 
L 936.906294 93.301775 
L 937.253147 94.96125 
L 937.6 94.747029 
L 937.946853 94.887887 
L 938.293706 95.301655 
L 938.640559 98.597128 
L 938.987413 106.82554 
L 939.334266 108.65375 
L 940.027972 107.400707 
L 940.374825 109.438735 
L 940.721678 109.155554 
L 941.068531 110.421802 
L 941.415385 113.673257 
L 941.762238 113.707004 
L 942.109091 115.778779 
L 942.455944 116.399432 
L 942.802797 121.349978 
L 943.14965 121.961826 
L 943.496503 124.005724 
L 944.19021 132.600951 
L 944.537063 132.953095 
L 944.883916 144.05294 
L 945.230769 143.74188 
L 945.577622 144.958242 
L 945.924476 152.495572 
L 946.271329 152.476498 
L 946.618182 152.227063 
L 946.965035 152.909341 
L 947.311888 126.837542 
L 947.658741 126.61305 
L 948.005594 126.60278 
L 948.352448 126.023211 
L 948.699301 126.183142 
L 949.046154 126.812598 
L 949.393007 126.024678 
L 950.433566 125.553686 
L 950.78042 126.35041 
L 951.127273 126.425241 
L 951.474126 129.983354 
L 951.820979 130.416197 
L 952.167832 135.49146 
L 952.861538 135.594168 
L 953.208392 136.161999 
L 953.902098 142.540192 
L 954.248951 142.965698 
L 954.942657 142.974502 
L 955.636364 143.46897 
L 955.983217 145.542212 
L 956.33007 145.820992 
L 957.370629 148.409245 
L 957.717483 149.150212 
L 958.064336 150.52944 
L 958.758042 152.44862 
L 959.104895 158.225235 
L 959.451748 167.301725 
L 959.798601 169.843025 
L 960.492308 172.224393 
L 960.839161 177.697284 
L 961.186014 179.854161 
L 961.532867 180.291405 
L 961.87972 183.583944 
L 962.226573 185.158317 
L 962.573427 188.1486 
L 962.92028 189.458866 
L 963.267133 199.318874 
L 963.960839 199.552169 
L 964.307692 202.800689 
L 965.001399 204.433753 
L 965.348252 204.744813 
L 965.695105 204.074274 
L 966.041958 204.507116 
L 966.388811 204.342783 
L 966.735664 258.500933 
L 967.082517 206.087359 
L 967.429371 207.441643 
L 967.776224 210.676958 
L 968.123077 224.971036 
L 968.46993 229.906909 
L 968.816783 238.830803 
L 969.163636 265.171111 
L 969.51049 265.179915 
L 970.204196 265.392668 
L 970.551049 266.193794 
L 970.897902 268.870082 
L 971.244755 269.147394 
L 971.591608 269.756309 
L 971.938462 272.475147 
L 972.285315 273.478755 
L 972.632168 277.300976 
L 972.979021 278.93404 
L 973.672727 279.817332 
L 974.366434 280.671279 
L 974.713287 291.150472 
L 975.06014 291.567175 
L 975.406993 296.72754 
L 975.753846 297.452368 
L 976.100699 297.657785 
L 976.794406 299.91737 
L 977.141259 300.567367 
L 977.488112 302.364765 
L 977.834965 303.478417 
L 978.181818 305.796693 
L 978.528671 306.239807 
L 978.875524 306.327842 
L 979.222378 306.637435 
L 980.262937 307.090819 
L 980.60979 307.410683 
L 980.956643 309.555821 
L 981.303497 309.682006 
L 981.65035 311.929853 
L 981.997203 312.113261 
L 982.344056 312.582785 
L 983.037762 312.984815 
L 983.384615 314.320025 
L 983.731469 314.415397 
L 984.078322 315.072731 
L 984.425175 315.146094 
L 984.772028 316.683786 
L 985.118881 320.629256 
L 985.465734 322.519091 
L 986.159441 323.091324 
L 986.853147 324.834433 
L 987.2 329.475386 
L 987.546853 329.534076 
L 987.893706 331.153935 
L 988.240559 331.21556 
L 988.587413 331.707093 
L 988.934266 332.838353 
L 989.281119 333.372437 
L 989.627972 333.560246 
L 991.709091 336.047258 
L 992.055944 338.230545 
L 992.402797 339.30018 
L 993.096503 340.314059 
L 993.443357 340.658866 
L 993.79021 341.17094 
L 994.137063 341.197351 
L 994.483916 341.484935 
L 994.830769 344.231651 
L 995.177622 344.778941 
L 995.524476 344.95061 
L 995.871329 348.08175 
L 996.218182 369.36 
L 996.218182 369.36 
" clip-path="url(#p33c489c7d2)" style="fill: none; stroke: #1f77b4; stroke-width: 1.5; stroke-linecap: square"/>
   </g>
   <g id="line2d_12">
    <path d="M 184.581818 352.774057 
L 996.218182 352.774057 
L 996.218182 352.774057 
" clip-path="url(#p33c489c7d2)" style="fill: none; stroke-dasharray: 5.55,2.4; stroke-dashoffset: 0; stroke: #ff7f0e; stroke-width: 1.5"/>
   </g>
   <g id="line2d_13">
    <path d="M 184.581818 228.667071 
L 996.218182 228.667071 
L 996.218182 228.667071 
" clip-path="url(#p33c489c7d2)" style="fill: none; stroke-dasharray: 5.55,2.4; stroke-dashoffset: 0; stroke: #2ca02c; stroke-width: 1.5"/>
   </g>
   <g id="line2d_14">
    <path d="M 184.581818 104.560085 
L 996.218182 104.560085 
L 996.218182 104.560085 
" clip-path="url(#p33c489c7d2)" style="fill: none; stroke-dasharray: 5.55,2.4; stroke-dashoffset: 0; stroke: #d62728; stroke-width: 1.5"/>
   </g>
   <g id="patch_3">
    <path d="M 144 384.48 
L 144 51.84 
" style="fill: none; stroke: #000000; stroke-width: 0.8; stroke-linejoin: miter; stroke-linecap: square"/>
   </g>
   <g id="patch_4">
    <path d="M 1036.8 384.48 
L 1036.8 51.84 
" style="fill: none; stroke: #000000; stroke-width: 0.8; stroke-linejoin: miter; stroke-linecap: square"/>
   </g>
   <g id="patch_5">
    <path d="M 144 384.48 
L 1036.8 384.48 
" style="fill: none; stroke: #000000; stroke-width: 0.8; stroke-linejoin: miter; stroke-linecap: square"/>
   </g>
   <g id="patch_6">
    <path d="M 144 51.84 
L 1036.8 51.84 
" style="fill: none; stroke: #000000; stroke-width: 0.8; stroke-linejoin: miter; stroke-linecap: square"/>
   </g>
   <g id="text_13">
    <!-- PB1 -->
    <g transform="translate(578.848125 45.84)scale(0.12 -0.12)">
     <defs>
      <path id="DejaVuSans-42" d="M 1259 2228 
L 1259 519 
L 2272 519 
Q 2781 519 3026 730 
Q 3272 941 3272 1375 
Q 3272 1813 3026 2020 
Q 2781 2228 2272 2228 
L 1259 2228 
z
M 1259 4147 
L 1259 2741 
L 2194 2741 
Q 2656 2741 2882 2914 
Q 3109 3088 3109 3444 
Q 3109 3797 2882 3972 
Q 2656 4147 2194 4147 
L 1259 4147 
z
M 628 4666 
L 2241 4666 
Q 2963 4666 3353 4366 
Q 3744 4066 3744 3513 
Q 3744 3084 3544 2831 
Q 3344 2578 2956 2516 
Q 3422 2416 3680 2098 
Q 3938 1781 3938 1306 
Q 3938 681 3513 340 
Q 3088 0 2303 0 
L 628 0 
L 628 4666 
z
" transform="scale(0.015625)"/>
     </defs>
     <use xlink:href="#DejaVuSans-50"/>
     <use xlink:href="#DejaVuSans-42" x="60.302734"/>
     <use xlink:href="#DejaVuSans-31" x="128.90625"/>
    </g>
   </g>
   <g id="legend_1">
    <g id="patch_7">
     <path d="M 146 28.936045 
L 1034.8 28.936045 
Q 1036.8 28.936045 1036.8 26.936045 
L 1036.8 13.25792 
Q 1036.8 11.25792 1034.8 11.25792 
L 146 11.25792 
Q 144 11.25792 144 13.25792 
L 144 26.936045 
Q 144 28.936045 146 28.936045 
z
" style="fill: #ffffff; opacity: 0.8; stroke: #cccccc; stroke-linejoin: miter"/>
    </g>
    <g id="line2d_15">
     <path d="M 148 19.356358 
L 158 19.356358 
L 168 19.356358 
" style="fill: none; stroke-dasharray: 5.55,2.4; stroke-dashoffset: 0; stroke: #ff7f0e; stroke-width: 1.5"/>
    </g>
    <g id="text_14">
     <!-- Average depth * 0.2 -->
     <g transform="translate(176 22.856358)scale(0.1 -0.1)">
      <defs>
       <path id="DejaVuSans-41" d="M 2188 4044 
L 1331 1722 
L 3047 1722 
L 2188 4044 
z
M 1831 4666 
L 2547 4666 
L 4325 0 
L 3669 0 
L 3244 1197 
L 1141 1197 
L 716 0 
L 50 0 
L 1831 4666 
z
" transform="scale(0.015625)"/>
       <path id="DejaVuSans-64" d="M 2906 2969 
L 2906 4863 
L 3481 4863 
L 3481 0 
L 2906 0 
L 2906 525 
Q 2725 213 2448 61 
Q 2172 -91 1784 -91 
Q 1150 -91 751 415 
Q 353 922 353 1747 
Q 353 2572 751 3078 
Q 1150 3584 1784 3584 
Q 2172 3584 2448 3432 
Q 2725 3281 2906 2969 
z
M 947 1747 
Q 947 1113 1208 752 
Q 1469 391 1925 391 
Q 2381 391 2643 752 
Q 2906 1113 2906 1747 
Q 2906 2381 2643 2742 
Q 2381 3103 1925 3103 
Q 1469 3103 1208 2742 
Q 947 2381 947 1747 
z
" transform="scale(0.015625)"/>
       <path id="DejaVuSans-2a" d="M 3009 3897 
L 1888 3291 
L 3009 2681 
L 2828 2375 
L 1778 3009 
L 1778 1831 
L 1422 1831 
L 1422 3009 
L 372 2375 
L 191 2681 
L 1313 3291 
L 191 3897 
L 372 4206 
L 1422 3572 
L 1422 4750 
L 1778 4750 
L 1778 3572 
L 2828 4206 
L 3009 3897 
z
" transform="scale(0.015625)"/>
       <path id="DejaVuSans-2e" d="M 684 794 
L 1344 794 
L 1344 0 
L 684 0 
L 684 794 
z
" transform="scale(0.015625)"/>
      </defs>
      <use xlink:href="#DejaVuSans-41"/>
      <use xlink:href="#DejaVuSans-76" x="62.533203"/>
      <use xlink:href="#DejaVuSans-65" x="121.712891"/>
      <use xlink:href="#DejaVuSans-72" x="183.236328"/>
      <use xlink:href="#DejaVuSans-61" x="224.349609"/>
      <use xlink:href="#DejaVuSans-67" x="285.628906"/>
      <use xlink:href="#DejaVuSans-65" x="349.105469"/>
      <use xlink:href="#DejaVuSans-20" x="410.628906"/>
      <use xlink:href="#DejaVuSans-64" x="442.416016"/>
      <use xlink:href="#DejaVuSans-65" x="505.892578"/>
      <use xlink:href="#DejaVuSans-70" x="567.416016"/>
      <use xlink:href="#DejaVuSans-74" x="630.892578"/>
      <use xlink:href="#DejaVuSans-68" x="670.101562"/>
      <use xlink:href="#DejaVuSans-20" x="733.480469"/>
      <use xlink:href="#DejaVuSans-2a" x="765.267578"/>
      <use xlink:href="#DejaVuSans-20" x="815.267578"/>
      <use xlink:href="#DejaVuSans-30" x="847.054688"/>
      <use xlink:href="#DejaVuSans-2e" x="910.677734"/>
      <use xlink:href="#DejaVuSans-32" x="942.464844"/>
     </g>
    </g>
    <g id="line2d_16">
     <path d="M 539.724219 19.356358 
L 549.724219 19.356358 
L 559.724219 19.356358 
" style="fill: none; stroke-dasharray: 5.55,2.4; stroke-dashoffset: 0; stroke: #2ca02c; stroke-width: 1.5"/>
    </g>
    <g id="text_15">
     <!-- Average depth -->
     <g transform="translate(567.724219 22.856358)scale(0.1 -0.1)">
      <use xlink:href="#DejaVuSans-41"/>
      <use xlink:href="#DejaVuSans-76" x="62.533203"/>
      <use xlink:href="#DejaVuSans-65" x="121.712891"/>
      <use xlink:href="#DejaVuSans-72" x="183.236328"/>
      <use xlink:href="#DejaVuSans-61" x="224.349609"/>
      <use xlink:href="#DejaVuSans-67" x="285.628906"/>
      <use xlink:href="#DejaVuSans-65" x="349.105469"/>
      <use xlink:href="#DejaVuSans-20" x="410.628906"/>
      <use xlink:href="#DejaVuSans-64" x="442.416016"/>
      <use xlink:href="#DejaVuSans-65" x="505.892578"/>
      <use xlink:href="#DejaVuSans-70" x="567.416016"/>
      <use xlink:href="#DejaVuSans-74" x="630.892578"/>
      <use xlink:href="#DejaVuSans-68" x="670.101562"/>
     </g>
    </g>
    <g id="line2d_17">
     <path d="M 904.189062 19.356358 
L 914.189062 19.356358 
L 924.189062 19.356358 
" style="fill: none; stroke-dasharray: 5.55,2.4; stroke-dashoffset: 0; stroke: #d62728; stroke-width: 1.5"/>
    </g>
    <g id="text_16">
     <!-- Average depth * 1.8 -->
     <g transform="translate(932.189062 22.856358)scale(0.1 -0.1)">
      <defs>
       <path id="DejaVuSans-38" d="M 2034 2216 
Q 1584 2216 1326 1975 
Q 1069 1734 1069 1313 
Q 1069 891 1326 650 
Q 1584 409 2034 409 
Q 2484 409 2743 651 
Q 3003 894 3003 1313 
Q 3003 1734 2745 1975 
Q 2488 2216 2034 2216 
z
M 1403 2484 
Q 997 2584 770 2862 
Q 544 3141 544 3541 
Q 544 4100 942 4425 
Q 1341 4750 2034 4750 
Q 2731 4750 3128 4425 
Q 3525 4100 3525 3541 
Q 3525 3141 3298 2862 
Q 3072 2584 2669 2484 
Q 3125 2378 3379 2068 
Q 3634 1759 3634 1313 
Q 3634 634 3220 271 
Q 2806 -91 2034 -91 
Q 1263 -91 848 271 
Q 434 634 434 1313 
Q 434 1759 690 2068 
Q 947 2378 1403 2484 
z
M 1172 3481 
Q 1172 3119 1398 2916 
Q 1625 2713 2034 2713 
Q 2441 2713 2670 2916 
Q 2900 3119 2900 3481 
Q 2900 3844 2670 4047 
Q 2441 4250 2034 4250 
Q 1625 4250 1398 4047 
Q 1172 3844 1172 3481 
z
" transform="scale(0.015625)"/>
      </defs>
      <use xlink:href="#DejaVuSans-41"/>
      <use xlink:href="#DejaVuSans-76" x="62.533203"/>
      <use xlink:href="#DejaVuSans-65" x="121.712891"/>
      <use xlink:href="#DejaVuSans-72" x="183.236328"/>
      <use xlink:href="#DejaVuSans-61" x="224.349609"/>
      <use xlink:href="#DejaVuSans-67" x="285.628906"/>
      <use xlink:href="#DejaVuSans-65" x="349.105469"/>
      <use xlink:href="#DejaVuSans-20" x="410.628906"/>
      <use xlink:href="#DejaVuSans-64" x="442.416016"/>
      <use xlink:href="#DejaVuSans-65" x="505.892578"/>
      <use xlink:href="#DejaVuSans-70" x="567.416016"/>
      <use xlink:href="#DejaVuSans-74" x="630.892578"/>
      <use xlink:href="#DejaVuSans-68" x="670.101562"/>
      <use xlink:href="#DejaVuSans-20" x="733.480469"/>
      <use xlink:href="#DejaVuSans-2a" x="765.267578"/>
      <use xlink:href="#DejaVuSans-20" x="815.267578"/>
      <use xlink:href="#DejaVuSans-31" x="847.054688"/>
      <use xlink:href="#DejaVuSans-2e" x="910.677734"/>
      <use xlink:href="#DejaVuSans-38" x="942.464844"/>
     </g>
    </g>
   </g>
  </g>
 </g>
 <defs>
  <clipPath id="p33c489c7d2">
   <rect x="144" y="51.84" width="892.8" height="332.64"/>
  </clipPath>
 </defs>
</svg>
