<?xml version="1.0" encoding="utf-8" standalone="no"?>
<!DOCTYPE svg PUBLIC "-//W3C//DTD SVG 1.1//EN"
  "http://www.w3.org/Graphics/SVG/1.1/DTD/svg11.dtd">
<svg xmlns:xlink="http://www.w3.org/1999/xlink" width="1152pt" height="432pt" viewBox="0 0 1152 432" xmlns="http://www.w3.org/2000/svg" version="1.1">
 <metadata>
  <rdf:RDF xmlns:dc="http://purl.org/dc/elements/1.1/" xmlns:cc="http://creativecommons.org/ns#" xmlns:rdf="http://www.w3.org/1999/02/22-rdf-syntax-ns#">
   <cc:Work>
    <dc:type rdf:resource="http://purl.org/dc/dcmitype/StillImage"/>
    <dc:date>2022-11-25T09:00:17.828984</dc:date>
    <dc:format>image/svg+xml</dc:format>
    <dc:creator>
     <cc:Agent>
      <dc:title>Matplotlib v3.5.2, https://matplotlib.org/</dc:title>
     </cc:Agent>
    </dc:creator>
   </cc:Work>
  </rdf:RDF>
 </metadata>
 <defs>
  <style type="text/css">*{stroke-linejoin: round; stroke-linecap: butt}</style>
 </defs>
 <g id="figure_1">
  <g id="patch_1">
   <path d="M 0 432 
L 1152 432 
L 1152 0 
L 0 0 
z
" style="fill: #ffffff"/>
  </g>
  <g id="axes_1">
   <g id="patch_2">
    <path d="M 144 384.48 
L 1036.8 384.48 
L 1036.8 51.84 
L 144 51.84 
z
" style="fill: #ffffff"/>
   </g>
   <g id="matplotlib.axis_1">
    <g id="xtick_1">
     <g id="line2d_1">
      <defs>
       <path id="me62ffcb8ca" d="M 0 0 
L 0 3.5 
" style="stroke: #000000; stroke-width: 0.8"/>
      </defs>
      <g>
       <use xlink:href="#me62ffcb8ca" x="184.581818" y="384.48" style="stroke: #000000; stroke-width: 0.8"/>
      </g>
     </g>
     <g id="text_1">
      <!-- 0 -->
      <g transform="translate(181.400568 399.078438)scale(0.1 -0.1)">
       <defs>
        <path id="DejaVuSans-30" d="M 2034 4250 
Q 1547 4250 1301 3770 
Q 1056 3291 1056 2328 
Q 1056 1369 1301 889 
Q 1547 409 2034 409 
Q 2525 409 2770 889 
Q 3016 1369 3016 2328 
Q 3016 3291 2770 3770 
Q 2525 4250 2034 4250 
z
M 2034 4750 
Q 2819 4750 3233 4129 
Q 3647 3509 3647 2328 
Q 3647 1150 3233 529 
Q 2819 -91 2034 -91 
Q 1250 -91 836 529 
Q 422 1150 422 2328 
Q 422 3509 836 4129 
Q 1250 4750 2034 4750 
z
" transform="scale(0.015625)"/>
       </defs>
       <use xlink:href="#DejaVuSans-30"/>
      </g>
     </g>
    </g>
    <g id="xtick_2">
     <g id="line2d_2">
      <g>
       <use xlink:href="#me62ffcb8ca" x="358.008392" y="384.48" style="stroke: #000000; stroke-width: 0.8"/>
      </g>
     </g>
     <g id="text_2">
      <!-- 500 -->
      <g transform="translate(348.464642 399.078438)scale(0.1 -0.1)">
       <defs>
        <path id="DejaVuSans-35" d="M 691 4666 
L 3169 4666 
L 3169 4134 
L 1269 4134 
L 1269 2991 
Q 1406 3038 1543 3061 
Q 1681 3084 1819 3084 
Q 2600 3084 3056 2656 
Q 3513 2228 3513 1497 
Q 3513 744 3044 326 
Q 2575 -91 1722 -91 
Q 1428 -91 1123 -41 
Q 819 9 494 109 
L 494 744 
Q 775 591 1075 516 
Q 1375 441 1709 441 
Q 2250 441 2565 725 
Q 2881 1009 2881 1497 
Q 2881 1984 2565 2268 
Q 2250 2553 1709 2553 
Q 1456 2553 1204 2497 
Q 953 2441 691 2322 
L 691 4666 
z
" transform="scale(0.015625)"/>
       </defs>
       <use xlink:href="#DejaVuSans-35"/>
       <use xlink:href="#DejaVuSans-30" x="63.623047"/>
       <use xlink:href="#DejaVuSans-30" x="127.246094"/>
      </g>
     </g>
    </g>
    <g id="xtick_3">
     <g id="line2d_3">
      <g>
       <use xlink:href="#me62ffcb8ca" x="531.434965" y="384.48" style="stroke: #000000; stroke-width: 0.8"/>
      </g>
     </g>
     <g id="text_3">
      <!-- 1000 -->
      <g transform="translate(518.709965 399.078438)scale(0.1 -0.1)">
       <defs>
        <path id="DejaVuSans-31" d="M 794 531 
L 1825 531 
L 1825 4091 
L 703 3866 
L 703 4441 
L 1819 4666 
L 2450 4666 
L 2450 531 
L 3481 531 
L 3481 0 
L 794 0 
L 794 531 
z
" transform="scale(0.015625)"/>
       </defs>
       <use xlink:href="#DejaVuSans-31"/>
       <use xlink:href="#DejaVuSans-30" x="63.623047"/>
       <use xlink:href="#DejaVuSans-30" x="127.246094"/>
       <use xlink:href="#DejaVuSans-30" x="190.869141"/>
      </g>
     </g>
    </g>
    <g id="xtick_4">
     <g id="line2d_4">
      <g>
       <use xlink:href="#me62ffcb8ca" x="704.861538" y="384.48" style="stroke: #000000; stroke-width: 0.8"/>
      </g>
     </g>
     <g id="text_4">
      <!-- 1500 -->
      <g transform="translate(692.136538 399.078438)scale(0.1 -0.1)">
       <use xlink:href="#DejaVuSans-31"/>
       <use xlink:href="#DejaVuSans-35" x="63.623047"/>
       <use xlink:href="#DejaVuSans-30" x="127.246094"/>
       <use xlink:href="#DejaVuSans-30" x="190.869141"/>
      </g>
     </g>
    </g>
    <g id="xtick_5">
     <g id="line2d_5">
      <g>
       <use xlink:href="#me62ffcb8ca" x="878.288112" y="384.48" style="stroke: #000000; stroke-width: 0.8"/>
      </g>
     </g>
     <g id="text_5">
      <!-- 2000 -->
      <g transform="translate(865.563112 399.078438)scale(0.1 -0.1)">
       <defs>
        <path id="DejaVuSans-32" d="M 1228 531 
L 3431 531 
L 3431 0 
L 469 0 
L 469 531 
Q 828 903 1448 1529 
Q 2069 2156 2228 2338 
Q 2531 2678 2651 2914 
Q 2772 3150 2772 3378 
Q 2772 3750 2511 3984 
Q 2250 4219 1831 4219 
Q 1534 4219 1204 4116 
Q 875 4013 500 3803 
L 500 4441 
Q 881 4594 1212 4672 
Q 1544 4750 1819 4750 
Q 2544 4750 2975 4387 
Q 3406 4025 3406 3419 
Q 3406 3131 3298 2873 
Q 3191 2616 2906 2266 
Q 2828 2175 2409 1742 
Q 1991 1309 1228 531 
z
" transform="scale(0.015625)"/>
       </defs>
       <use xlink:href="#DejaVuSans-32"/>
       <use xlink:href="#DejaVuSans-30" x="63.623047"/>
       <use xlink:href="#DejaVuSans-30" x="127.246094"/>
       <use xlink:href="#DejaVuSans-30" x="190.869141"/>
      </g>
     </g>
    </g>
    <g id="text_6">
     <!-- Position -->
     <g transform="translate(570.935938 412.756563)scale(0.1 -0.1)">
      <defs>
       <path id="DejaVuSans-50" d="M 1259 4147 
L 1259 2394 
L 2053 2394 
Q 2494 2394 2734 2622 
Q 2975 2850 2975 3272 
Q 2975 3691 2734 3919 
Q 2494 4147 2053 4147 
L 1259 4147 
z
M 628 4666 
L 2053 4666 
Q 2838 4666 3239 4311 
Q 3641 3956 3641 3272 
Q 3641 2581 3239 2228 
Q 2838 1875 2053 1875 
L 1259 1875 
L 1259 0 
L 628 0 
L 628 4666 
z
" transform="scale(0.015625)"/>
       <path id="DejaVuSans-6f" d="M 1959 3097 
Q 1497 3097 1228 2736 
Q 959 2375 959 1747 
Q 959 1119 1226 758 
Q 1494 397 1959 397 
Q 2419 397 2687 759 
Q 2956 1122 2956 1747 
Q 2956 2369 2687 2733 
Q 2419 3097 1959 3097 
z
M 1959 3584 
Q 2709 3584 3137 3096 
Q 3566 2609 3566 1747 
Q 3566 888 3137 398 
Q 2709 -91 1959 -91 
Q 1206 -91 779 398 
Q 353 888 353 1747 
Q 353 2609 779 3096 
Q 1206 3584 1959 3584 
z
" transform="scale(0.015625)"/>
       <path id="DejaVuSans-73" d="M 2834 3397 
L 2834 2853 
Q 2591 2978 2328 3040 
Q 2066 3103 1784 3103 
Q 1356 3103 1142 2972 
Q 928 2841 928 2578 
Q 928 2378 1081 2264 
Q 1234 2150 1697 2047 
L 1894 2003 
Q 2506 1872 2764 1633 
Q 3022 1394 3022 966 
Q 3022 478 2636 193 
Q 2250 -91 1575 -91 
Q 1294 -91 989 -36 
Q 684 19 347 128 
L 347 722 
Q 666 556 975 473 
Q 1284 391 1588 391 
Q 1994 391 2212 530 
Q 2431 669 2431 922 
Q 2431 1156 2273 1281 
Q 2116 1406 1581 1522 
L 1381 1569 
Q 847 1681 609 1914 
Q 372 2147 372 2553 
Q 372 3047 722 3315 
Q 1072 3584 1716 3584 
Q 2034 3584 2315 3537 
Q 2597 3491 2834 3397 
z
" transform="scale(0.015625)"/>
       <path id="DejaVuSans-69" d="M 603 3500 
L 1178 3500 
L 1178 0 
L 603 0 
L 603 3500 
z
M 603 4863 
L 1178 4863 
L 1178 4134 
L 603 4134 
L 603 4863 
z
" transform="scale(0.015625)"/>
       <path id="DejaVuSans-74" d="M 1172 4494 
L 1172 3500 
L 2356 3500 
L 2356 3053 
L 1172 3053 
L 1172 1153 
Q 1172 725 1289 603 
Q 1406 481 1766 481 
L 2356 481 
L 2356 0 
L 1766 0 
Q 1100 0 847 248 
Q 594 497 594 1153 
L 594 3053 
L 172 3053 
L 172 3500 
L 594 3500 
L 594 4494 
L 1172 4494 
z
" transform="scale(0.015625)"/>
       <path id="DejaVuSans-6e" d="M 3513 2113 
L 3513 0 
L 2938 0 
L 2938 2094 
Q 2938 2591 2744 2837 
Q 2550 3084 2163 3084 
Q 1697 3084 1428 2787 
Q 1159 2491 1159 1978 
L 1159 0 
L 581 0 
L 581 3500 
L 1159 3500 
L 1159 2956 
Q 1366 3272 1645 3428 
Q 1925 3584 2291 3584 
Q 2894 3584 3203 3211 
Q 3513 2838 3513 2113 
z
" transform="scale(0.015625)"/>
      </defs>
      <use xlink:href="#DejaVuSans-50"/>
      <use xlink:href="#DejaVuSans-6f" x="56.677734"/>
      <use xlink:href="#DejaVuSans-73" x="117.859375"/>
      <use xlink:href="#DejaVuSans-69" x="169.958984"/>
      <use xlink:href="#DejaVuSans-74" x="197.742188"/>
      <use xlink:href="#DejaVuSans-69" x="236.951172"/>
      <use xlink:href="#DejaVuSans-6f" x="264.734375"/>
      <use xlink:href="#DejaVuSans-6e" x="325.916016"/>
     </g>
    </g>
   </g>
   <g id="matplotlib.axis_2">
    <g id="ytick_1">
     <g id="line2d_6">
      <defs>
       <path id="m421998b663" d="M 0 0 
L -3.5 0 
" style="stroke: #000000; stroke-width: 0.8"/>
      </defs>
      <g>
       <use xlink:href="#m421998b663" x="144" y="376.424701" style="stroke: #000000; stroke-width: 0.8"/>
      </g>
     </g>
     <g id="text_7">
      <!-- 0 -->
      <g transform="translate(130.6375 380.22392)scale(0.1 -0.1)">
       <use xlink:href="#DejaVuSans-30"/>
      </g>
     </g>
    </g>
    <g id="ytick_2">
     <g id="line2d_7">
      <g>
       <use xlink:href="#m421998b663" x="144" y="323.671559" style="stroke: #000000; stroke-width: 0.8"/>
      </g>
     </g>
     <g id="text_8">
      <!-- 50000 -->
      <g transform="translate(105.1875 327.470778)scale(0.1 -0.1)">
       <use xlink:href="#DejaVuSans-35"/>
       <use xlink:href="#DejaVuSans-30" x="63.623047"/>
       <use xlink:href="#DejaVuSans-30" x="127.246094"/>
       <use xlink:href="#DejaVuSans-30" x="190.869141"/>
       <use xlink:href="#DejaVuSans-30" x="254.492188"/>
      </g>
     </g>
    </g>
    <g id="ytick_3">
     <g id="line2d_8">
      <g>
       <use xlink:href="#m421998b663" x="144" y="270.918417" style="stroke: #000000; stroke-width: 0.8"/>
      </g>
     </g>
     <g id="text_9">
      <!-- 100000 -->
      <g transform="translate(98.825 274.717636)scale(0.1 -0.1)">
       <use xlink:href="#DejaVuSans-31"/>
       <use xlink:href="#DejaVuSans-30" x="63.623047"/>
       <use xlink:href="#DejaVuSans-30" x="127.246094"/>
       <use xlink:href="#DejaVuSans-30" x="190.869141"/>
       <use xlink:href="#DejaVuSans-30" x="254.492188"/>
       <use xlink:href="#DejaVuSans-30" x="318.115234"/>
      </g>
     </g>
    </g>
    <g id="ytick_4">
     <g id="line2d_9">
      <g>
       <use xlink:href="#m421998b663" x="144" y="218.165275" style="stroke: #000000; stroke-width: 0.8"/>
      </g>
     </g>
     <g id="text_10">
      <!-- 150000 -->
      <g transform="translate(98.825 221.964494)scale(0.1 -0.1)">
       <use xlink:href="#DejaVuSans-31"/>
       <use xlink:href="#DejaVuSans-35" x="63.623047"/>
       <use xlink:href="#DejaVuSans-30" x="127.246094"/>
       <use xlink:href="#DejaVuSans-30" x="190.869141"/>
       <use xlink:href="#DejaVuSans-30" x="254.492188"/>
       <use xlink:href="#DejaVuSans-30" x="318.115234"/>
      </g>
     </g>
    </g>
    <g id="ytick_5">
     <g id="line2d_10">
      <g>
       <use xlink:href="#m421998b663" x="144" y="165.412134" style="stroke: #000000; stroke-width: 0.8"/>
      </g>
     </g>
     <g id="text_11">
      <!-- 200000 -->
      <g transform="translate(98.825 169.211352)scale(0.1 -0.1)">
       <use xlink:href="#DejaVuSans-32"/>
       <use xlink:href="#DejaVuSans-30" x="63.623047"/>
       <use xlink:href="#DejaVuSans-30" x="127.246094"/>
       <use xlink:href="#DejaVuSans-30" x="190.869141"/>
       <use xlink:href="#DejaVuSans-30" x="254.492188"/>
       <use xlink:href="#DejaVuSans-30" x="318.115234"/>
      </g>
     </g>
    </g>
    <g id="ytick_6">
     <g id="line2d_11">
      <g>
       <use xlink:href="#m421998b663" x="144" y="112.658992" style="stroke: #000000; stroke-width: 0.8"/>
      </g>
     </g>
     <g id="text_12">
      <!-- 250000 -->
      <g transform="translate(98.825 116.45821)scale(0.1 -0.1)">
       <use xlink:href="#DejaVuSans-32"/>
       <use xlink:href="#DejaVuSans-35" x="63.623047"/>
       <use xlink:href="#DejaVuSans-30" x="127.246094"/>
       <use xlink:href="#DejaVuSans-30" x="190.869141"/>
       <use xlink:href="#DejaVuSans-30" x="254.492188"/>
       <use xlink:href="#DejaVuSans-30" x="318.115234"/>
      </g>
     </g>
    </g>
    <g id="ytick_7">
     <g id="line2d_12">
      <g>
       <use xlink:href="#m421998b663" x="144" y="59.90585" style="stroke: #000000; stroke-width: 0.8"/>
      </g>
     </g>
     <g id="text_13">
      <!-- 300000 -->
      <g transform="translate(98.825 63.705069)scale(0.1 -0.1)">
       <defs>
        <path id="DejaVuSans-33" d="M 2597 2516 
Q 3050 2419 3304 2112 
Q 3559 1806 3559 1356 
Q 3559 666 3084 287 
Q 2609 -91 1734 -91 
Q 1441 -91 1130 -33 
Q 819 25 488 141 
L 488 750 
Q 750 597 1062 519 
Q 1375 441 1716 441 
Q 2309 441 2620 675 
Q 2931 909 2931 1356 
Q 2931 1769 2642 2001 
Q 2353 2234 1838 2234 
L 1294 2234 
L 1294 2753 
L 1863 2753 
Q 2328 2753 2575 2939 
Q 2822 3125 2822 3475 
Q 2822 3834 2567 4026 
Q 2313 4219 1838 4219 
Q 1578 4219 1281 4162 
Q 984 4106 628 3988 
L 628 4550 
Q 988 4650 1302 4700 
Q 1616 4750 1894 4750 
Q 2613 4750 3031 4423 
Q 3450 4097 3450 3541 
Q 3450 3153 3228 2886 
Q 3006 2619 2597 2516 
z
" transform="scale(0.015625)"/>
       </defs>
       <use xlink:href="#DejaVuSans-33"/>
       <use xlink:href="#DejaVuSans-30" x="63.623047"/>
       <use xlink:href="#DejaVuSans-30" x="127.246094"/>
       <use xlink:href="#DejaVuSans-30" x="190.869141"/>
       <use xlink:href="#DejaVuSans-30" x="254.492188"/>
       <use xlink:href="#DejaVuSans-30" x="318.115234"/>
      </g>
     </g>
    </g>
    <g id="text_14">
     <!-- Depth of coverage -->
     <g transform="translate(92.745312 264.602187)rotate(-90)scale(0.1 -0.1)">
      <defs>
       <path id="DejaVuSans-44" d="M 1259 4147 
L 1259 519 
L 2022 519 
Q 2988 519 3436 956 
Q 3884 1394 3884 2338 
Q 3884 3275 3436 3711 
Q 2988 4147 2022 4147 
L 1259 4147 
z
M 628 4666 
L 1925 4666 
Q 3281 4666 3915 4102 
Q 4550 3538 4550 2338 
Q 4550 1131 3912 565 
Q 3275 0 1925 0 
L 628 0 
L 628 4666 
z
" transform="scale(0.015625)"/>
       <path id="DejaVuSans-65" d="M 3597 1894 
L 3597 1613 
L 953 1613 
Q 991 1019 1311 708 
Q 1631 397 2203 397 
Q 2534 397 2845 478 
Q 3156 559 3463 722 
L 3463 178 
Q 3153 47 2828 -22 
Q 2503 -91 2169 -91 
Q 1331 -91 842 396 
Q 353 884 353 1716 
Q 353 2575 817 3079 
Q 1281 3584 2069 3584 
Q 2775 3584 3186 3129 
Q 3597 2675 3597 1894 
z
M 3022 2063 
Q 3016 2534 2758 2815 
Q 2500 3097 2075 3097 
Q 1594 3097 1305 2825 
Q 1016 2553 972 2059 
L 3022 2063 
z
" transform="scale(0.015625)"/>
       <path id="DejaVuSans-70" d="M 1159 525 
L 1159 -1331 
L 581 -1331 
L 581 3500 
L 1159 3500 
L 1159 2969 
Q 1341 3281 1617 3432 
Q 1894 3584 2278 3584 
Q 2916 3584 3314 3078 
Q 3713 2572 3713 1747 
Q 3713 922 3314 415 
Q 2916 -91 2278 -91 
Q 1894 -91 1617 61 
Q 1341 213 1159 525 
z
M 3116 1747 
Q 3116 2381 2855 2742 
Q 2594 3103 2138 3103 
Q 1681 3103 1420 2742 
Q 1159 2381 1159 1747 
Q 1159 1113 1420 752 
Q 1681 391 2138 391 
Q 2594 391 2855 752 
Q 3116 1113 3116 1747 
z
" transform="scale(0.015625)"/>
       <path id="DejaVuSans-68" d="M 3513 2113 
L 3513 0 
L 2938 0 
L 2938 2094 
Q 2938 2591 2744 2837 
Q 2550 3084 2163 3084 
Q 1697 3084 1428 2787 
Q 1159 2491 1159 1978 
L 1159 0 
L 581 0 
L 581 4863 
L 1159 4863 
L 1159 2956 
Q 1366 3272 1645 3428 
Q 1925 3584 2291 3584 
Q 2894 3584 3203 3211 
Q 3513 2838 3513 2113 
z
" transform="scale(0.015625)"/>
       <path id="DejaVuSans-20" transform="scale(0.015625)"/>
       <path id="DejaVuSans-66" d="M 2375 4863 
L 2375 4384 
L 1825 4384 
Q 1516 4384 1395 4259 
Q 1275 4134 1275 3809 
L 1275 3500 
L 2222 3500 
L 2222 3053 
L 1275 3053 
L 1275 0 
L 697 0 
L 697 3053 
L 147 3053 
L 147 3500 
L 697 3500 
L 697 3744 
Q 697 4328 969 4595 
Q 1241 4863 1831 4863 
L 2375 4863 
z
" transform="scale(0.015625)"/>
       <path id="DejaVuSans-63" d="M 3122 3366 
L 3122 2828 
Q 2878 2963 2633 3030 
Q 2388 3097 2138 3097 
Q 1578 3097 1268 2742 
Q 959 2388 959 1747 
Q 959 1106 1268 751 
Q 1578 397 2138 397 
Q 2388 397 2633 464 
Q 2878 531 3122 666 
L 3122 134 
Q 2881 22 2623 -34 
Q 2366 -91 2075 -91 
Q 1284 -91 818 406 
Q 353 903 353 1747 
Q 353 2603 823 3093 
Q 1294 3584 2113 3584 
Q 2378 3584 2631 3529 
Q 2884 3475 3122 3366 
z
" transform="scale(0.015625)"/>
       <path id="DejaVuSans-76" d="M 191 3500 
L 800 3500 
L 1894 563 
L 2988 3500 
L 3597 3500 
L 2284 0 
L 1503 0 
L 191 3500 
z
" transform="scale(0.015625)"/>
       <path id="DejaVuSans-72" d="M 2631 2963 
Q 2534 3019 2420 3045 
Q 2306 3072 2169 3072 
Q 1681 3072 1420 2755 
Q 1159 2438 1159 1844 
L 1159 0 
L 581 0 
L 581 3500 
L 1159 3500 
L 1159 2956 
Q 1341 3275 1631 3429 
Q 1922 3584 2338 3584 
Q 2397 3584 2469 3576 
Q 2541 3569 2628 3553 
L 2631 2963 
z
" transform="scale(0.015625)"/>
       <path id="DejaVuSans-61" d="M 2194 1759 
Q 1497 1759 1228 1600 
Q 959 1441 959 1056 
Q 959 750 1161 570 
Q 1363 391 1709 391 
Q 2188 391 2477 730 
Q 2766 1069 2766 1631 
L 2766 1759 
L 2194 1759 
z
M 3341 1997 
L 3341 0 
L 2766 0 
L 2766 531 
Q 2569 213 2275 61 
Q 1981 -91 1556 -91 
Q 1019 -91 701 211 
Q 384 513 384 1019 
Q 384 1609 779 1909 
Q 1175 2209 1959 2209 
L 2766 2209 
L 2766 2266 
Q 2766 2663 2505 2880 
Q 2244 3097 1772 3097 
Q 1472 3097 1187 3025 
Q 903 2953 641 2809 
L 641 3341 
Q 956 3463 1253 3523 
Q 1550 3584 1831 3584 
Q 2591 3584 2966 3190 
Q 3341 2797 3341 1997 
z
" transform="scale(0.015625)"/>
       <path id="DejaVuSans-67" d="M 2906 1791 
Q 2906 2416 2648 2759 
Q 2391 3103 1925 3103 
Q 1463 3103 1205 2759 
Q 947 2416 947 1791 
Q 947 1169 1205 825 
Q 1463 481 1925 481 
Q 2391 481 2648 825 
Q 2906 1169 2906 1791 
z
M 3481 434 
Q 3481 -459 3084 -895 
Q 2688 -1331 1869 -1331 
Q 1566 -1331 1297 -1286 
Q 1028 -1241 775 -1147 
L 775 -588 
Q 1028 -725 1275 -790 
Q 1522 -856 1778 -856 
Q 2344 -856 2625 -561 
Q 2906 -266 2906 331 
L 2906 616 
Q 2728 306 2450 153 
Q 2172 0 1784 0 
Q 1141 0 747 490 
Q 353 981 353 1791 
Q 353 2603 747 3093 
Q 1141 3584 1784 3584 
Q 2172 3584 2450 3431 
Q 2728 3278 2906 2969 
L 2906 3500 
L 3481 3500 
L 3481 434 
z
" transform="scale(0.015625)"/>
      </defs>
      <use xlink:href="#DejaVuSans-44"/>
      <use xlink:href="#DejaVuSans-65" x="77.001953"/>
      <use xlink:href="#DejaVuSans-70" x="138.525391"/>
      <use xlink:href="#DejaVuSans-74" x="202.001953"/>
      <use xlink:href="#DejaVuSans-68" x="241.210938"/>
      <use xlink:href="#DejaVuSans-20" x="304.589844"/>
      <use xlink:href="#DejaVuSans-6f" x="336.376953"/>
      <use xlink:href="#DejaVuSans-66" x="397.558594"/>
      <use xlink:href="#DejaVuSans-20" x="432.763672"/>
      <use xlink:href="#DejaVuSans-63" x="464.550781"/>
      <use xlink:href="#DejaVuSans-6f" x="519.53125"/>
      <use xlink:href="#DejaVuSans-76" x="580.712891"/>
      <use xlink:href="#DejaVuSans-65" x="639.892578"/>
      <use xlink:href="#DejaVuSans-72" x="701.416016"/>
      <use xlink:href="#DejaVuSans-61" x="742.529297"/>
      <use xlink:href="#DejaVuSans-67" x="803.808594"/>
      <use xlink:href="#DejaVuSans-65" x="867.285156"/>
     </g>
    </g>
   </g>
   <g id="line2d_13">
    <path d="M 184.581818 329.944963 
L 184.928671 317.278933 
L 185.275524 308.722374 
L 185.622378 308.519802 
L 185.969231 303.357379 
L 186.316084 302.823517 
L 186.662937 302.741222 
L 187.356643 302.302316 
L 187.703497 302.250618 
L 188.05035 294.833526 
L 188.397203 293.112719 
L 189.090909 291.465766 
L 189.437762 291.023695 
L 189.784615 282.044055 
L 190.131469 280.79486 
L 190.478322 280.302146 
L 190.825175 277.526276 
L 191.172028 277.212922 
L 191.518881 271.238101 
L 191.865734 270.13134 
L 192.212587 269.566882 
L 193.253147 259.55328 
L 193.946853 257.78183 
L 194.293706 257.184664 
L 194.640559 255.948131 
L 194.987413 255.614731 
L 195.334266 255.489178 
L 196.027972 254.238929 
L 196.374825 246.395592 
L 196.721678 244.208446 
L 197.068531 243.77376 
L 197.415385 242.181671 
L 198.109091 241.097066 
L 198.802797 240.90821 
L 199.496503 235.247798 
L 200.19021 233.734838 
L 200.537063 233.458411 
L 200.883916 241.451567 
L 201.230769 235.269954 
L 201.924476 234.570447 
L 202.271329 228.617783 
L 202.618182 225.325987 
L 202.965035 224.911347 
L 203.311888 224.769969 
L 203.658741 224.37221 
L 204.005594 224.218171 
L 204.352448 222.934159 
L 205.046154 222.211441 
L 205.393007 220.43366 
L 205.73986 220.025351 
L 206.78042 219.727823 
L 207.127273 215.031739 
L 207.474126 212.460551 
L 207.820979 211.306312 
L 208.167832 211.106905 
L 208.514685 209.062193 
L 208.861538 208.823749 
L 210.248951 205.517182 
L 210.595804 202.320342 
L 210.942657 202.055521 
L 211.28951 200.793666 
L 211.636364 200.77995 
L 211.983217 200.314667 
L 212.33007 199.397818 
L 212.676923 195.388579 
L 214.064336 193.608688 
L 214.411189 190.647126 
L 215.104895 188.590809 
L 215.798601 188.11181 
L 217.186014 182.732045 
L 217.532867 182.621263 
L 217.87972 177.732102 
L 218.226573 174.941461 
L 218.573427 174.638658 
L 218.92028 171.125299 
L 219.267133 170.47116 
L 219.613986 167.385101 
L 219.960839 166.346919 
L 220.307692 162.738604 
L 220.654545 153.839149 
L 221.001399 152.795692 
L 221.348252 150.887083 
L 221.695105 150.41758 
L 222.041958 150.965158 
L 222.388811 150.74887 
L 222.735664 148.368648 
L 223.776224 144.787765 
L 224.123077 144.588358 
L 224.46993 138.222109 
L 224.816783 137.857057 
L 225.163636 136.929657 
L 225.51049 136.462264 
L 225.857343 142.864386 
L 226.204196 139.773052 
L 226.551049 139.808924 
L 227.244755 134.690814 
L 227.591608 135.63826 
L 227.938462 134.059886 
L 228.632168 134.295165 
L 228.979021 135.87776 
L 229.325874 136.177397 
L 229.672727 133.170468 
L 230.01958 133.172578 
L 230.366434 129.943031 
L 230.713287 128.157865 
L 231.06014 128.234884 
L 231.406993 127.850841 
L 231.753846 126.736695 
L 232.100699 121.362205 
L 232.447552 120.923299 
L 232.794406 120.971832 
L 233.141259 121.53418 
L 233.488112 120.698571 
L 233.834965 121.258809 
L 234.181818 117.849901 
L 234.528671 115.570965 
L 235.569231 105.738835 
L 235.916084 106.924725 
L 236.262937 109.572933 
L 236.60979 141.618356 
L 236.956643 143.743253 
L 237.303497 154.090254 
L 237.65035 156.348089 
L 237.997203 155.935559 
L 238.344056 156.376575 
L 239.037762 152.693351 
L 239.384615 154.184155 
L 239.731469 153.135422 
L 240.078322 153.141753 
L 240.425175 151.925265 
L 240.772028 151.41778 
L 241.118881 148.773793 
L 241.465734 148.496311 
L 241.812587 149.0671 
L 242.159441 153.239874 
L 242.506294 153.696716 
L 242.853147 151.67416 
L 243.2 153.758964 
L 243.546853 155.142152 
L 243.893706 158.149081 
L 244.240559 157.908527 
L 244.587413 156.932593 
L 244.934266 157.62788 
L 245.281119 159.340247 
L 245.627972 162.539197 
L 245.974825 163.823209 
L 246.321678 162.064419 
L 247.015385 163.281962 
L 247.362238 161.978959 
L 247.709091 162.442132 
L 248.402797 162.360892 
L 248.74965 165.516585 
L 249.096503 163.716648 
L 249.443357 163.719813 
L 249.79021 164.314868 
L 250.137063 165.316123 
L 250.483916 166.973626 
L 251.177622 173.976079 
L 251.524476 173.743965 
L 251.871329 172.493715 
L 252.218182 172.282703 
L 252.565035 172.202518 
L 252.911888 172.292198 
L 253.258741 172.676241 
L 253.605594 178.714366 
L 253.952448 193.534833 
L 254.299301 193.502126 
L 254.646154 195.459268 
L 254.993007 196.252675 
L 255.33986 195.624913 
L 255.686713 184.135279 
L 256.033566 180.955319 
L 256.727273 180.984861 
L 257.074126 179.501443 
L 257.420979 180.152416 
L 257.767832 177.230947 
L 258.808392 174.195532 
L 259.155245 175.922669 
L 259.502098 173.384188 
L 260.195804 174.190256 
L 260.542657 173.508686 
L 260.88951 175.899458 
L 261.236364 175.59138 
L 261.583217 175.669454 
L 261.93007 174.901369 
L 262.276923 175.985973 
L 262.623776 177.826003 
L 262.970629 177.919903 
L 263.317483 177.582283 
L 263.664336 180.432008 
L 264.011189 180.498477 
L 264.358042 180.430953 
L 264.704895 180.031084 
L 265.051748 179.189144 
L 265.398601 179.233457 
L 265.745455 179.611169 
L 266.092308 178.509684 
L 266.439161 178.596199 
L 266.786014 179.175428 
L 267.132867 179.12162 
L 267.47972 180.331777 
L 267.826573 179.600619 
L 268.173427 182.343782 
L 268.52028 193.337537 
L 268.867133 195.460323 
L 269.213986 196.810804 
L 269.560839 190.673503 
L 269.907692 188.811317 
L 270.254545 189.633211 
L 270.601399 189.961336 
L 270.948252 192.8923 
L 271.295105 192.906016 
L 271.641958 192.562065 
L 271.988811 193.64878 
L 272.335664 201.434089 
L 272.682517 205.671221 
L 273.029371 198.993729 
L 273.376224 200.026635 
L 274.06993 199.646812 
L 274.416783 199.732273 
L 274.763636 199.282816 
L 275.11049 202.123045 
L 275.457343 202.476491 
L 275.804196 201.990107 
L 276.151049 204.993871 
L 276.497902 202.868974 
L 276.844755 206.946792 
L 277.191608 206.852892 
L 277.538462 207.203172 
L 278.232168 206.813854 
L 278.579021 205.433832 
L 278.925874 205.39374 
L 279.61958 209.369216 
L 279.966434 209.527476 
L 280.313287 210.447491 
L 280.66014 209.585504 
L 281.006993 209.465227 
L 281.353846 205.390574 
L 281.700699 204.72483 
L 282.047552 205.114148 
L 282.394406 205.276628 
L 282.741259 206.760046 
L 283.088112 205.865353 
L 283.434965 204.575011 
L 283.781818 204.748041 
L 284.128671 205.962419 
L 284.475524 210.842084 
L 284.822378 205.806269 
L 285.169231 205.980355 
L 285.516084 202.982921 
L 285.862937 201.53221 
L 286.20979 202.405802 
L 286.556643 206.025722 
L 286.903497 206.677751 
L 287.25035 206.182927 
L 287.597203 206.785368 
L 287.944056 207.775017 
L 288.290909 207.205283 
L 288.637762 208.525166 
L 288.984615 209.027376 
L 289.331469 207.821439 
L 289.678322 206.060539 
L 290.025175 209.209902 
L 290.372028 209.927345 
L 290.718881 210.160514 
L 291.065734 210.863185 
L 291.412587 209.464172 
L 291.759441 209.159259 
L 292.106294 210.255469 
L 292.453147 213.795205 
L 292.8 213.728736 
L 293.146853 212.357154 
L 293.493706 213.365794 
L 293.840559 210.969747 
L 294.187413 210.43272 
L 294.881119 212.268529 
L 295.227972 213.493457 
L 295.921678 208.969348 
L 296.268531 209.080129 
L 296.615385 208.618012 
L 296.962238 208.888108 
L 297.309091 208.706637 
L 297.655944 206.707293 
L 298.002797 207.339276 
L 298.34965 205.685992 
L 298.696503 207.977589 
L 299.043357 208.310988 
L 299.39021 208.260345 
L 299.737063 211.091079 
L 300.083916 211.172319 
L 300.430769 211.037271 
L 300.777622 210.615246 
L 301.124476 210.017025 
L 301.471329 211.77898 
L 301.818182 210.913828 
L 302.165035 211.207136 
L 302.511888 209.888307 
L 302.858741 205.975079 
L 303.205594 205.257637 
L 303.552448 204.204684 
L 303.899301 204.209959 
L 304.246154 205.719754 
L 304.593007 199.879981 
L 304.93986 199.60672 
L 305.286713 198.851295 
L 305.633566 225.489522 
L 305.98042 231.331404 
L 306.327273 228.770767 
L 306.674126 224.04303 
L 307.020979 222.35071 
L 307.367832 222.903563 
L 307.714685 225.496907 
L 308.061538 232.055178 
L 308.408392 232.501469 
L 308.755245 223.854174 
L 309.102098 223.341414 
L 309.448951 220.311273 
L 309.795804 220.208932 
L 310.142657 221.208077 
L 310.48951 221.09202 
L 310.836364 221.86116 
L 311.183217 219.930395 
L 311.53007 219.159145 
L 311.876923 222.672504 
L 312.223776 221.479228 
L 312.917483 218.590466 
L 313.264336 218.814139 
L 313.958042 217.964813 
L 314.304895 219.795347 
L 314.651748 219.968378 
L 315.345455 222.02364 
L 315.692308 222.27158 
L 316.039161 220.884172 
L 316.386014 221.218627 
L 316.732867 221.376887 
L 317.07972 220.965412 
L 317.773427 221.705011 
L 318.12028 221.906528 
L 318.467133 222.838149 
L 318.813986 222.862415 
L 319.160839 224.299411 
L 319.854545 222.429839 
L 320.201399 222.898287 
L 321.241958 222.826543 
L 321.588811 223.207421 
L 321.935664 226.980325 
L 322.282517 223.858394 
L 322.629371 224.757308 
L 322.976224 224.263539 
L 323.323077 224.504093 
L 323.66993 226.152101 
L 324.016783 225.879895 
L 324.363636 225.346033 
L 324.71049 228.969119 
L 325.057343 227.961534 
L 325.404196 227.81488 
L 325.751049 227.843367 
L 326.097902 228.228465 
L 326.444755 228.054379 
L 326.791608 223.70752 
L 327.138462 223.244348 
L 327.832168 219.978928 
L 328.179021 220.127692 
L 328.525874 219.996864 
L 328.872727 220.816648 
L 329.21958 220.811373 
L 329.566434 219.198182 
L 329.913287 219.600161 
L 330.606993 221.567853 
L 330.953846 222.965811 
L 331.300699 221.955061 
L 331.647552 222.002539 
L 331.994406 223.053381 
L 333.034965 224.758363 
L 333.728671 219.059969 
L 334.075524 219.286807 
L 334.422378 220.288062 
L 335.116084 220.212097 
L 335.462937 220.651003 
L 336.85035 224.677123 
L 337.197203 224.484047 
L 337.544056 223.77821 
L 337.890909 224.917677 
L 338.237762 224.625425 
L 338.584615 224.160142 
L 339.625175 224.006103 
L 339.972028 224.851209 
L 340.318881 228.179932 
L 341.012587 228.838291 
L 341.359441 229.976704 
L 341.706294 230.66144 
L 342.053147 230.784882 
L 342.4 231.449571 
L 342.746853 231.608886 
L 343.093706 228.287548 
L 344.134266 226.857938 
L 344.481119 221.243949 
L 344.827972 220.5877 
L 345.174825 215.869459 
L 345.521678 215.981295 
L 345.868531 215.872624 
L 346.215385 218.168441 
L 346.562238 219.385983 
L 346.909091 217.539623 
L 347.255944 213.147396 
L 347.602797 214.286864 
L 347.94965 214.697284 
L 348.296503 219.150704 
L 348.643357 219.282587 
L 348.99021 219.7542 
L 349.337063 219.184466 
L 349.683916 219.227724 
L 350.030769 221.897033 
L 350.377622 218.212753 
L 350.724476 219.250935 
L 351.071329 218.117797 
L 351.418182 218.202203 
L 351.765035 219.048363 
L 352.111888 217.951098 
L 352.458741 215.116144 
L 352.805594 213.87961 
L 353.152448 214.528474 
L 353.499301 217.416181 
L 353.846154 217.341271 
L 354.193007 218.41427 
L 354.53986 212.848814 
L 354.886713 211.149107 
L 355.233566 215.238531 
L 355.58042 214.142321 
L 355.927273 215.402066 
L 356.274126 213.538825 
L 356.620979 213.606349 
L 356.967832 218.352021 
L 357.314685 218.282387 
L 357.661538 223.072373 
L 358.008392 224.760473 
L 358.355245 223.842568 
L 358.702098 220.446321 
L 359.048951 220.185721 
L 359.395804 221.062478 
L 360.08951 219.915625 
L 360.436364 220.692151 
L 361.13007 224.142206 
L 361.476923 223.902707 
L 361.823776 222.001484 
L 362.170629 220.921099 
L 362.864336 220.534946 
L 363.211189 223.919588 
L 363.558042 224.438679 
L 363.904895 225.323877 
L 364.251748 225.427273 
L 364.598601 226.759817 
L 364.945455 229.456558 
L 365.292308 229.898629 
L 365.639161 230.600246 
L 365.986014 230.322764 
L 366.332867 230.75745 
L 366.67972 230.743734 
L 367.026573 230.914655 
L 367.72028 229.785737 
L 368.067133 229.710828 
L 368.413986 230.75534 
L 368.760839 231.00539 
L 369.801399 230.275287 
L 370.148252 230.265791 
L 370.495105 230.546438 
L 370.841958 230.624512 
L 371.188811 229.118938 
L 371.535664 229.731929 
L 371.882517 229.838491 
L 372.576224 230.313269 
L 372.923077 230.337535 
L 373.26993 230.079045 
L 373.616783 229.300408 
L 373.963636 229.299353 
L 374.31049 235.045226 
L 375.004196 235.398672 
L 375.351049 232.384357 
L 375.697902 230.994839 
L 376.044755 228.967009 
L 376.391608 228.674756 
L 376.738462 227.575381 
L 377.085315 227.64818 
L 377.432168 227.935157 
L 378.125874 227.832816 
L 378.472727 228.307594 
L 378.81958 230.820754 
L 379.166434 231.442186 
L 379.86014 235.080043 
L 380.206993 235.852349 
L 380.553846 236.092903 
L 380.900699 235.87345 
L 381.247552 231.002225 
L 381.594406 233.758049 
L 381.941259 233.839289 
L 382.288112 234.292966 
L 382.634965 234.528245 
L 382.981818 235.20032 
L 383.328671 231.480168 
L 383.675524 232.313668 
L 384.022378 231.703842 
L 384.369231 231.567739 
L 384.716084 230.949472 
L 385.062937 231.711227 
L 385.40979 234.298241 
L 385.756643 233.870941 
L 386.103497 235.414498 
L 386.45035 234.738202 
L 386.797203 234.933389 
L 387.144056 235.488352 
L 387.490909 235.603354 
L 387.837762 236.147766 
L 388.184615 236.270154 
L 388.531469 234.266589 
L 389.225175 233.235793 
L 389.572028 235.686704 
L 389.918881 236.366164 
L 390.265734 236.029599 
L 390.612587 236.023269 
L 390.959441 236.764978 
L 391.653147 237.537284 
L 392 238.465739 
L 392.693706 239.102997 
L 393.040559 239.817275 
L 393.387413 241.767031 
L 393.734266 243.044712 
L 394.427972 243.293707 
L 394.774825 230.025237 
L 395.121678 229.981979 
L 395.468531 230.957912 
L 395.815385 231.163649 
L 396.162238 228.708518 
L 396.509091 228.326585 
L 396.855944 234.852149 
L 397.54965 231.75343 
L 397.896503 231.68485 
L 398.243357 231.42847 
L 398.59021 232.143803 
L 398.937063 231.817788 
L 399.283916 232.072059 
L 399.630769 239.06818 
L 399.977622 239.238045 
L 400.324476 241.42097 
L 400.671329 247.253358 
L 401.018182 243.08797 
L 401.711888 243.739998 
L 402.058741 243.589124 
L 402.405594 243.239899 
L 402.752448 245.999943 
L 403.099301 239.298184 
L 403.446154 237.255582 
L 403.793007 236.832502 
L 404.13986 234.144202 
L 404.486713 234.879581 
L 404.833566 233.18726 
L 405.18042 233.655708 
L 405.527273 230.99695 
L 405.874126 230.589695 
L 406.220979 230.450427 
L 406.567832 228.711683 
L 406.914685 233.289601 
L 407.261538 231.818843 
L 407.608392 232.557387 
L 408.302098 237.30939 
L 408.648951 238.769597 
L 408.995804 237.808435 
L 409.68951 232.533121 
L 410.036364 232.188115 
L 410.383217 236.851493 
L 410.73007 236.698509 
L 411.076923 237.357923 
L 411.423776 236.567681 
L 412.117483 236.429468 
L 412.811189 240.346916 
L 413.158042 239.834156 
L 413.504895 239.692777 
L 413.851748 241.422025 
L 414.198601 242.286122 
L 414.545455 243.60073 
L 414.892308 243.593345 
L 415.239161 244.168354 
L 415.932867 243.580684 
L 416.27972 243.632382 
L 416.626573 241.993869 
L 416.973427 241.618267 
L 417.667133 241.801848 
L 418.013986 241.0728 
L 418.707692 236.646811 
L 419.054545 236.789244 
L 420.095105 237.992016 
L 420.441958 237.160627 
L 421.135664 234.168468 
L 421.829371 234.703385 
L 422.176224 233.802362 
L 422.523077 233.85828 
L 422.86993 233.801307 
L 423.216783 234.719211 
L 423.563636 235.11486 
L 423.91049 234.942885 
L 424.257343 234.942885 
L 424.604196 233.452081 
L 424.951049 233.112351 
L 425.297902 232.43922 
L 425.644755 230.043173 
L 425.991608 229.055634 
L 426.338462 222.284241 
L 426.685315 220.472698 
L 427.032168 220.474808 
L 427.379021 220.721693 
L 427.725874 224.169638 
L 428.072727 224.062022 
L 428.41958 222.716816 
L 428.766434 222.468877 
L 429.113287 218.906984 
L 429.46014 218.349911 
L 429.806993 217.464714 
L 430.153846 217.444667 
L 430.500699 216.123729 
L 430.847552 222.290571 
L 431.194406 221.418034 
L 431.541259 220.934815 
L 431.888112 220.863071 
L 432.234965 220.237419 
L 432.581818 219.939891 
L 432.928671 220.33976 
L 433.275524 219.127493 
L 433.969231 219.612822 
L 434.316084 219.658189 
L 434.662937 221.857995 
L 435.356643 217.960593 
L 435.703497 216.685022 
L 436.05035 219.59383 
L 436.397203 219.490434 
L 437.090909 218.549318 
L 437.437762 216.856997 
L 437.784615 216.327356 
L 438.131469 217.053239 
L 438.478322 216.643875 
L 438.825175 217.372923 
L 439.172028 222.664063 
L 439.518881 222.290571 
L 439.865734 216.592177 
L 440.212587 215.433718 
L 440.559441 211.547921 
L 440.906294 210.827313 
L 441.253147 210.455931 
L 441.6 207.223219 
L 442.293706 203.149621 
L 442.640559 202.995582 
L 442.987413 202.456445 
L 443.334266 202.849983 
L 443.681119 201.416153 
L 444.027972 200.907613 
L 444.374825 201.093304 
L 444.721678 198.997949 
L 445.068531 200.44022 
L 445.415385 196.443642 
L 445.762238 196.650434 
L 446.109091 203.29733 
L 446.455944 203.369074 
L 446.802797 204.674187 
L 447.14965 204.871484 
L 447.496503 228.199978 
L 447.843357 230.620292 
L 448.19021 232.09738 
L 448.537063 236.859934 
L 448.883916 233.749608 
L 449.230769 233.597679 
L 449.577622 234.646412 
L 449.924476 234.332003 
L 450.271329 233.133452 
L 450.618182 232.977302 
L 450.965035 231.723888 
L 451.311888 235.310046 
L 451.658741 235.624455 
L 452.005594 234.842654 
L 452.352448 235.677208 
L 452.699301 234.265534 
L 453.393007 198.35225 
L 453.73986 197.834214 
L 454.78042 193.683597 
L 455.127273 194.164706 
L 455.474126 193.257352 
L 455.820979 194.211129 
L 456.167832 194.575125 
L 456.861538 197.042917 
L 457.208392 199.34612 
L 457.555245 196.66415 
L 457.902098 197.16425 
L 458.248951 197.161084 
L 458.595804 195.220824 
L 458.942657 195.928771 
L 459.28951 195.562664 
L 459.636364 198.044172 
L 459.983217 197.815223 
L 460.33007 199.202631 
L 460.676923 199.166759 
L 461.023776 199.478002 
L 461.370629 200.412788 
L 461.717483 200.144802 
L 462.411189 202.498647 
L 462.758042 202.881635 
L 463.104895 205.334656 
L 463.451748 201.035275 
L 463.798601 201.522714 
L 464.145455 200.601644 
L 464.492308 197.155809 
L 464.839161 196.314924 
L 465.186014 192.55046 
L 465.532867 193.033679 
L 465.87972 192.72982 
L 466.226573 193.23414 
L 466.573427 191.701134 
L 466.92028 189.377886 
L 467.613986 188.910493 
L 467.960839 188.329153 
L 468.307692 188.151903 
L 468.654545 187.652858 
L 469.001399 188.929484 
L 470.041958 188.948475 
L 470.735664 188.558102 
L 471.082517 190.355929 
L 471.429371 190.274689 
L 471.776224 190.430839 
L 472.123077 190.135421 
L 472.46993 188.925264 
L 472.816783 190.590153 
L 473.163636 189.978217 
L 473.51049 191.390946 
L 473.857343 191.243237 
L 474.204196 186.952296 
L 474.551049 186.976563 
L 474.897902 186.50917 
L 475.244755 184.709233 
L 475.591608 183.576095 
L 475.938462 173.739744 
L 476.285315 172.641424 
L 476.632168 172.449403 
L 476.979021 172.40931 
L 477.325874 173.606807 
L 477.672727 174.214523 
L 478.366434 177.374436 
L 478.713287 185.00254 
L 479.06014 186.955462 
L 479.406993 187.992588 
L 479.753846 189.519264 
L 480.447552 193.598137 
L 480.794406 207.179961 
L 481.141259 208.381678 
L 481.488112 211.514159 
L 481.834965 212.023755 
L 482.528671 212.023755 
L 482.875524 214.035759 
L 483.222378 214.074797 
L 483.569231 215.297615 
L 484.60979 215.340872 
L 484.956643 215.629959 
L 485.303497 215.397845 
L 485.65035 203.334257 
L 485.997203 203.237191 
L 487.037762 202.387866 
L 487.384615 199.891587 
L 487.731469 199.597224 
L 488.078322 196.545983 
L 488.772028 195.809549 
L 489.118881 195.973084 
L 489.465734 195.99735 
L 489.812587 194.047594 
L 490.159441 194.147825 
L 490.506294 195.228209 
L 490.853147 191.617784 
L 491.2 196.791812 
L 491.893706 196.665205 
L 492.240559 198.023071 
L 492.587413 198.124357 
L 492.934266 199.969662 
L 493.281119 199.717502 
L 493.627972 200.443385 
L 493.974825 206.228294 
L 494.321678 207.548178 
L 494.668531 208.16328 
L 495.015385 208.295162 
L 495.362238 211.171264 
L 495.709091 211.53104 
L 496.74965 204.949558 
L 497.096503 204.462119 
L 497.443357 205.161626 
L 497.79021 208.331035 
L 498.137063 207.702217 
L 498.483916 209.187746 
L 498.830769 207.962818 
L 499.177622 215.350368 
L 499.524476 217.618753 
L 499.871329 217.07223 
L 500.218182 217.152415 
L 500.565035 220.00214 
L 500.911888 220.321824 
L 501.258741 222.53218 
L 501.605594 222.418234 
L 501.952448 223.167328 
L 502.299301 201.45308 
L 502.646154 201.695744 
L 502.993007 201.493172 
L 503.33986 202.009098 
L 503.686713 202.1241 
L 504.033566 201.093304 
L 504.727273 201.326472 
L 505.074126 203.993671 
L 505.420979 221.341014 
L 505.767832 220.186776 
L 506.114685 219.544242 
L 506.461538 213.514558 
L 506.808392 210.861075 
L 507.155245 212.476377 
L 507.502098 209.461007 
L 507.848951 209.766975 
L 508.195804 208.508285 
L 508.542657 208.576864 
L 508.88951 209.889362 
L 509.236364 208.967238 
L 509.583217 209.952666 
L 509.93007 214.937838 
L 510.276923 214.586502 
L 510.623776 217.731644 
L 510.970629 217.697882 
L 511.317483 213.684423 
L 511.664336 213.643276 
L 512.011189 213.2107 
L 512.704895 210.314553 
L 513.051748 210.819928 
L 513.398601 208.970403 
L 513.745455 208.061994 
L 514.092308 206.749495 
L 514.786014 198.239359 
L 515.132867 196.274832 
L 515.826573 200.454991 
L 516.173427 196.938466 
L 516.52028 198.490464 
L 516.867133 198.461977 
L 517.213986 198.253074 
L 517.560839 200.439165 
L 517.907692 199.550802 
L 518.254545 200.216546 
L 518.601399 198.776386 
L 518.948252 200.01925 
L 519.295105 202.079787 
L 519.988811 200.306227 
L 520.335664 200.182784 
L 521.029371 199.18364 
L 521.376224 198.045227 
L 521.723077 197.771966 
L 522.416783 191.141951 
L 522.763636 191.903706 
L 523.11049 192.168527 
L 523.457343 191.62306 
L 523.804196 191.725401 
L 524.151049 190.225101 
L 524.497902 189.564632 
L 524.844755 190.468821 
L 525.191608 195.785282 
L 525.885315 197.039752 
L 526.232168 195.598536 
L 526.579021 194.772422 
L 526.925874 194.695403 
L 527.272727 197.116772 
L 527.61958 197.223333 
L 527.966434 198.279451 
L 528.313287 205.57521 
L 528.66014 205.098322 
L 529.006993 204.963274 
L 529.700699 206.980554 
L 530.047552 207.063904 
L 530.394406 205.307225 
L 530.741259 204.407256 
L 531.088112 204.869373 
L 531.434965 204.360833 
L 531.781818 202.248597 
L 532.128671 202.101944 
L 532.475524 201.499503 
L 532.822378 201.733727 
L 533.169231 199.635207 
L 533.516084 200.877016 
L 533.862937 199.588784 
L 534.20979 199.321853 
L 534.556643 199.52548 
L 534.903497 199.09607 
L 535.25035 198.965242 
L 535.597203 198.105366 
L 535.944056 197.923895 
L 536.290909 198.212982 
L 536.637762 198.033621 
L 536.984615 199.020105 
L 537.331469 197.455447 
L 538.025175 197.090395 
L 538.372028 197.50398 
L 538.718881 199.283871 
L 539.065734 198.509455 
L 539.412587 196.398274 
L 539.759441 195.496195 
L 540.106294 195.773677 
L 540.453147 198.68143 
L 540.8 197.941831 
L 541.146853 197.58733 
L 541.493706 198.42294 
L 541.840559 197.982978 
L 542.187413 199.665804 
L 542.534266 192.031369 
L 542.881119 196.817134 
L 543.227972 196.081755 
L 543.574825 195.868632 
L 543.921678 197.031312 
L 544.268531 197.120992 
L 544.615385 194.883204 
L 544.962238 194.593061 
L 545.309091 194.001171 
L 545.655944 194.012777 
L 546.002797 192.088342 
L 546.34965 191.834072 
L 546.696503 192.712939 
L 547.043357 192.012378 
L 547.39021 193.158176 
L 547.737063 192.851153 
L 548.083916 191.215805 
L 548.430769 193.950528 
L 548.777622 194.431637 
L 549.124476 194.131999 
L 549.471329 197.943941 
L 549.818182 197.717102 
L 550.511888 199.6964 
L 550.858741 199.564518 
L 551.552448 196.692636 
L 551.899301 197.68123 
L 552.246154 196.569194 
L 552.593007 196.116572 
L 552.93986 196.542818 
L 553.286713 196.41621 
L 553.633566 196.726398 
L 553.98042 196.694747 
L 554.327273 198.919874 
L 554.674126 212.477432 
L 555.020979 212.847759 
L 555.367832 212.589268 
L 555.714685 209.972712 
L 556.408392 208.350026 
L 556.755245 208.274061 
L 557.448951 206.984774 
L 557.795804 207.495425 
L 558.142657 207.369872 
L 558.48951 209.198296 
L 559.183217 218.675926 
L 559.53007 220.074939 
L 559.876923 217.711598 
L 560.223776 217.22838 
L 560.570629 214.953664 
L 560.917483 214.930453 
L 561.264336 215.108758 
L 561.611189 215.884229 
L 561.958042 216.086802 
L 562.304895 217.597652 
L 562.651748 217.025807 
L 562.998601 220.615131 
L 563.345455 219.015656 
L 563.692308 221.516155 
L 564.039161 221.025551 
L 564.732867 221.965612 
L 565.07972 223.03228 
L 565.426573 223.433204 
L 565.773427 226.290314 
L 566.12028 227.39813 
L 566.467133 229.99042 
L 566.813986 234.773019 
L 567.160839 236.841998 
L 567.507692 233.766489 
L 567.854545 233.537541 
L 568.201399 234.183239 
L 568.548252 236.011663 
L 568.895105 236.480111 
L 569.241958 236.600388 
L 569.588811 237.407511 
L 569.935664 238.964784 
L 570.282517 238.047934 
L 570.629371 238.243121 
L 570.976224 233.562862 
L 571.66993 231.387323 
L 572.363636 232.884457 
L 572.71049 231.042317 
L 573.057343 231.303973 
L 573.404196 231.375717 
L 573.751049 231.92224 
L 574.444755 237.001312 
L 574.791608 237.05301 
L 575.138462 237.96986 
L 575.485315 239.765577 
L 575.832168 240.108472 
L 576.179021 240.286778 
L 576.525874 242.097266 
L 576.872727 239.694888 
L 577.21958 238.832901 
L 577.913287 238.47418 
L 578.26014 240.189712 
L 578.606993 240.240355 
L 579.300699 239.740255 
L 579.647552 239.98714 
L 579.994406 239.556674 
L 580.341259 240.773162 
L 580.688112 239.112493 
L 581.034965 233.281161 
L 581.381818 232.245089 
L 581.728671 232.135362 
L 582.075524 233.6958 
L 582.422378 234.163193 
L 582.769231 233.570248 
L 583.116084 234.353104 
L 583.80979 234.336223 
L 584.156643 238.085917 
L 584.503497 238.108073 
L 584.85035 238.327526 
L 585.197203 238.054265 
L 585.544056 239.402635 
L 585.890909 239.515527 
L 586.237762 239.906955 
L 586.584615 238.170322 
L 586.931469 238.156606 
L 587.278322 238.614503 
L 587.625175 238.81391 
L 587.972028 240.751005 
L 588.318881 240.872338 
L 588.665734 239.257036 
L 589.012587 239.196898 
L 589.359441 236.498047 
L 589.706294 237.675497 
L 590.053147 237.407511 
L 590.4 233.212581 
L 590.746853 233.190425 
L 591.093706 233.037441 
L 591.440559 232.34954 
L 591.787413 225.899941 
L 592.134266 225.849298 
L 592.481119 224.665517 
L 593.174825 225.356584 
L 593.521678 224.839603 
L 593.868531 224.819557 
L 594.215385 226.013888 
L 594.562238 225.30383 
L 594.909091 233.971172 
L 595.255944 231.769256 
L 595.602797 231.963387 
L 595.94965 230.719468 
L 596.296503 226.307195 
L 596.643357 227.079501 
L 596.99021 226.587842 
L 597.337063 226.501327 
L 597.683916 226.772478 
L 598.030769 226.131 
L 598.377622 228.358237 
L 598.724476 227.278908 
L 599.071329 228.217914 
L 599.418182 229.482934 
L 599.765035 229.360547 
L 600.111888 231.886367 
L 600.458741 232.153298 
L 601.152448 233.10602 
L 601.499301 230.015741 
L 601.846154 230.3407 
L 602.53986 230.478914 
L 602.886713 229.385869 
L 603.233566 230.046338 
L 603.58042 232.495139 
L 604.274126 232.030911 
L 604.620979 233.35607 
L 604.967832 229.600046 
L 605.314685 229.229719 
L 605.661538 228.616728 
L 606.008392 228.47957 
L 606.355245 229.441787 
L 607.048951 227.760017 
L 607.395804 226.041319 
L 607.742657 227.957313 
L 608.08951 227.557445 
L 608.436364 227.676667 
L 608.783217 229.021872 
L 609.13007 228.844621 
L 609.476923 229.775187 
L 609.823776 229.951382 
L 610.170629 229.980924 
L 610.517483 231.198467 
L 610.864336 231.529756 
L 611.211189 231.499159 
L 611.558042 232.469817 
L 611.904895 231.798797 
L 612.251748 232.989963 
L 612.598601 231.75976 
L 612.945455 236.074967 
L 613.292308 235.918818 
L 613.639161 234.44173 
L 614.332867 233.292766 
L 614.67972 231.308193 
L 615.026573 236.084463 
L 615.373427 232.60592 
L 616.067133 231.750264 
L 616.760839 231.290257 
L 617.107692 230.441986 
L 617.454545 230.040008 
L 617.801399 229.931336 
L 618.148252 229.526192 
L 618.841958 231.711227 
L 619.188811 229.419631 
L 619.882517 228.161996 
L 620.229371 224.45978 
L 620.576224 223.62417 
L 620.923077 223.920643 
L 621.26993 224.728821 
L 621.616783 225.105479 
L 621.963636 226.382105 
L 622.31049 227.003537 
L 622.657343 224.574782 
L 623.004196 227.363313 
L 623.351049 232.846475 
L 623.697902 230.348086 
L 624.044755 222.09855 
L 624.391608 221.289316 
L 624.738462 220.775501 
L 625.085315 222.864525 
L 625.432168 223.608344 
L 625.779021 225.497962 
L 626.472727 227.169182 
L 626.81958 226.875874 
L 627.513287 228.540763 
L 627.86014 228.631499 
L 628.553846 229.188572 
L 628.900699 224.806896 
L 629.247552 224.343723 
L 629.594406 225.162452 
L 629.941259 226.937068 
L 630.634965 227.638685 
L 631.328671 227.788503 
L 631.675524 235.343808 
L 632.022378 235.484132 
L 632.369231 236.186804 
L 632.716084 237.46554 
L 633.062937 228.784483 
L 633.40979 226.565686 
L 633.756643 227.888734 
L 634.103497 227.557445 
L 634.45035 221.786251 
L 634.797203 221.962446 
L 635.144056 220.867291 
L 635.490909 220.402009 
L 635.837762 219.512591 
L 636.184615 220.203657 
L 636.531469 222.373921 
L 636.878322 222.401353 
L 637.225175 220.572929 
L 637.572028 220.561323 
L 637.918881 218.423766 
L 638.265734 218.436426 
L 638.612587 218.765606 
L 638.959441 217.844536 
L 639.306294 216.094187 
L 639.653147 211.401267 
L 640 211.402323 
L 640.346853 209.359721 
L 640.693706 208.67815 
L 641.040559 211.94779 
L 641.387413 210.963416 
L 641.734266 210.807267 
L 642.081119 211.429754 
L 642.427972 212.815052 
L 642.774825 215.698538 
L 643.121678 216.108958 
L 643.468531 218.672761 
L 643.815385 219.381763 
L 644.162238 237.522513 
L 644.509091 233.410933 
L 644.855944 234.126266 
L 645.202797 234.518749 
L 645.54965 233.372951 
L 645.896503 233.032166 
L 646.243357 232.936155 
L 646.59021 227.300009 
L 646.937063 227.009867 
L 647.283916 226.866379 
L 647.630769 226.117284 
L 648.324476 229.133709 
L 648.671329 228.734895 
L 649.018182 228.006901 
L 649.365035 228.723289 
L 649.711888 228.649435 
L 650.058741 228.74017 
L 650.405594 227.369643 
L 650.752448 227.526848 
L 651.099301 228.443697 
L 651.446154 229.778352 
L 651.793007 229.574725 
L 652.13986 221.901253 
L 652.833566 219.934616 
L 653.18042 218.398444 
L 653.527273 217.629303 
L 653.874126 217.637744 
L 654.220979 217.789673 
L 654.914685 216.969889 
L 655.261538 214.704669 
L 655.608392 216.873878 
L 655.955245 216.737775 
L 656.302098 216.913971 
L 656.648951 213.386896 
L 656.995804 212.44367 
L 657.68951 212.363485 
L 658.036364 213.378455 
L 658.383217 213.064047 
L 658.73007 210.809377 
L 659.076923 211.547921 
L 659.423776 211.287321 
L 659.770629 213.804701 
L 660.117483 215.066556 
L 660.464336 215.339817 
L 660.811189 215.776613 
L 661.158042 215.775558 
L 661.851748 213.760388 
L 662.198601 214.262598 
L 662.545455 214.420857 
L 662.892308 214.455674 
L 663.239161 214.173973 
L 663.586014 214.502097 
L 663.932867 222.590209 
L 664.27972 222.984802 
L 664.626573 219.727823 
L 664.973427 219.518921 
L 665.32028 216.442358 
L 665.667133 216.191253 
L 666.013986 216.915026 
L 666.707692 217.40774 
L 667.054545 219.125382 
L 667.401399 218.679091 
L 667.748252 219.639198 
L 668.095105 218.565144 
L 668.441958 214.140211 
L 668.788811 212.70216 
L 669.829371 211.2831 
L 670.176224 211.011949 
L 670.523077 210.335654 
L 670.86993 209.177195 
L 671.216783 209.783856 
L 671.563636 212.809776 
L 671.91049 211.644987 
L 672.257343 209.331234 
L 672.604196 211.137502 
L 672.951049 204.146655 
L 673.297902 208.3342 
L 673.644755 207.823549 
L 674.338462 204.742766 
L 674.685315 204.061195 
L 675.032168 204.005277 
L 675.379021 206.747385 
L 675.725874 207.824604 
L 676.072727 213.29405 
L 676.41958 210.408453 
L 676.766434 209.545412 
L 677.113287 209.967437 
L 677.46014 210.198496 
L 677.806993 209.521145 
L 678.153846 207.460608 
L 678.500699 212.330778 
L 679.194406 211.751548 
L 679.541259 211.469847 
L 679.888112 208.888108 
L 680.234965 207.41313 
L 680.581818 209.150818 
L 680.928671 208.810033 
L 681.622378 207.557674 
L 681.969231 207.256981 
L 682.316084 202.004878 
L 682.662937 201.812856 
L 683.00979 201.900427 
L 683.356643 201.78226 
L 683.703497 204.340787 
L 684.05035 203.193934 
L 684.397203 202.847873 
L 684.744056 202.03442 
L 685.090909 199.93379 
L 685.437762 204.072801 
L 685.784615 204.39143 
L 686.825175 199.392542 
L 687.172028 199.984433 
L 687.518881 201.070092 
L 687.865734 201.044771 
L 688.212587 202.029144 
L 688.559441 200.325218 
L 689.253147 201.872995 
L 689.6 193.685707 
L 689.946853 195.23243 
L 690.293706 196.145059 
L 690.640559 195.689272 
L 690.987413 195.774732 
L 691.681119 198.285781 
L 692.027972 202.088228 
L 692.374825 201.96162 
L 692.721678 205.89806 
L 693.068531 205.770397 
L 693.415385 206.574355 
L 694.109091 201.821297 
L 694.455944 202.347773 
L 694.802797 199.568738 
L 695.14965 200.016084 
L 695.496503 196.053268 
L 695.843357 195.955148 
L 696.537063 197.371042 
L 696.883916 201.589183 
L 697.230769 204.194133 
L 697.577622 204.181472 
L 697.924476 204.30175 
L 698.618182 201.749553 
L 698.965035 200.016084 
L 699.658741 194.835726 
L 700.005594 194.690127 
L 700.352448 193.436713 
L 700.699301 193.587587 
L 701.046154 193.316435 
L 701.393007 182.14754 
L 701.73986 183.569765 
L 702.086713 182.431352 
L 702.433566 182.700393 
L 702.78042 184.377943 
L 703.127273 179.95301 
L 703.474126 178.557161 
L 704.167832 174.552143 
L 704.514685 183.601417 
L 704.861538 182.553739 
L 705.208392 182.928287 
L 705.555245 182.532638 
L 705.902098 183.498021 
L 706.248951 185.34016 
L 706.595804 186.521831 
L 706.942657 186.302378 
L 707.28951 184.986714 
L 707.636364 184.526707 
L 707.983217 180.142921 
L 708.33007 179.70296 
L 708.676923 181.401611 
L 709.023776 181.381565 
L 709.370629 180.490036 
L 709.717483 180.379255 
L 710.064336 180.495312 
L 710.411189 179.103684 
L 710.758042 175.292797 
L 711.104895 177.920958 
L 711.451748 177.759534 
L 711.798601 178.717531 
L 712.145455 178.268074 
L 712.492308 171.480855 
L 712.839161 170.822496 
L 713.186014 171.298329 
L 713.532867 172.049534 
L 713.87972 173.545613 
L 714.226573 168.754573 
L 714.573427 166.143292 
L 714.92028 166.049391 
L 715.267133 162.900029 
L 715.613986 162.924295 
L 715.960839 166.295221 
L 716.654545 166.964131 
L 717.001399 172.969549 
L 717.348252 157.686963 
L 717.695105 154.784486 
L 718.041958 155.434404 
L 719.082517 155.057747 
L 719.776224 152.831564 
L 720.123077 152.703902 
L 720.46993 157.948619 
L 720.816783 158.700879 
L 721.163636 156.676213 
L 721.51049 156.742682 
L 721.857343 155.817392 
L 722.204196 155.920788 
L 722.551049 156.361804 
L 722.897902 156.610799 
L 723.591608 154.982837 
L 723.938462 155.259264 
L 724.285315 160.468109 
L 724.632168 159.352908 
L 724.979021 161.191882 
L 725.325874 167.108675 
L 725.672727 165.77613 
L 726.01958 165.810947 
L 726.366434 164.445696 
L 726.713287 165.070293 
L 727.06014 165.253874 
L 727.406993 165.181075 
L 727.753846 166.143292 
L 728.100699 170.39625 
L 728.447552 172.540138 
L 728.794406 173.597311 
L 729.141259 172.521147 
L 729.488112 172.856657 
L 729.834965 169.923582 
L 730.181818 169.758992 
L 730.528671 171.4798 
L 730.875524 171.417551 
L 731.222378 171.055665 
L 731.569231 170.90057 
L 731.916084 170.596712 
L 732.262937 166.684539 
L 732.60979 166.568482 
L 732.956643 168.961365 
L 733.303497 168.324107 
L 733.65035 167.377716 
L 733.997203 167.251108 
L 734.344056 161.936757 
L 734.690909 166.6972 
L 735.037762 160.15581 
L 735.384615 160.674901 
L 735.731469 160.080901 
L 736.425175 162.210018 
L 736.772028 161.931481 
L 737.118881 162.635208 
L 737.465734 156.661442 
L 737.812587 153.787451 
L 738.159441 157.210075 
L 738.506294 157.521319 
L 739.2 159.876219 
L 739.546853 160.193793 
L 739.893706 160.175857 
L 740.240559 156.607634 
L 740.587413 161.821755 
L 740.934266 162.7481 
L 741.281119 167.401982 
L 741.627972 168.110984 
L 741.974825 166.684539 
L 742.668531 166.975737 
L 743.015385 167.318632 
L 743.362238 165.10511 
L 743.709091 163.897063 
L 744.055944 161.499961 
L 744.402797 161.40395 
L 744.74965 157.352508 
L 745.096503 158.695603 
L 745.443357 158.731476 
L 745.79021 159.793924 
L 746.483916 162.881038 
L 746.830769 162.770256 
L 747.177622 162.993929 
L 747.524476 163.069894 
L 747.871329 169.015173 
L 748.218182 167.064362 
L 748.565035 162.108732 
L 748.911888 162.41892 
L 749.258741 162.926405 
L 749.605594 162.438966 
L 749.952448 162.270156 
L 750.299301 162.236394 
L 750.993007 163.910779 
L 751.33986 165.532411 
L 751.686713 169.240957 
L 752.033566 171.165391 
L 752.38042 170.81722 
L 752.727273 167.921073 
L 753.074126 168.509798 
L 753.420979 169.623944 
L 753.767832 178.921158 
L 754.114685 177.491548 
L 754.461538 178.334543 
L 754.808392 178.440049 
L 755.155245 178.96125 
L 755.502098 182.550574 
L 755.848951 182.957828 
L 756.195804 179.545755 
L 756.542657 180.088058 
L 756.88951 181.287664 
L 757.236364 181.571476 
L 757.583217 182.076851 
L 757.93007 181.002797 
L 758.276923 175.552342 
L 758.623776 175.320229 
L 758.970629 175.844595 
L 759.317483 181.633725 
L 759.664336 183.728024 
L 760.358042 175.304403 
L 760.704895 175.291742 
L 761.398601 179.074142 
L 761.745455 172.423026 
L 762.092308 172.22995 
L 762.439161 170.63786 
L 762.786014 171.65283 
L 763.132867 175.631472 
L 763.47972 170.266478 
L 763.826573 169.185038 
L 764.173427 169.096413 
L 764.52028 164.226243 
L 764.867133 172.524312 
L 765.213986 169.918307 
L 765.560839 169.20825 
L 765.907692 169.348573 
L 766.601399 180.809721 
L 766.948252 182.725715 
L 767.295105 181.73079 
L 767.641958 187.551572 
L 767.988811 186.805643 
L 768.335664 188.465256 
L 768.682517 188.678379 
L 769.029371 189.11834 
L 769.376224 188.759619 
L 769.723077 188.730077 
L 770.06993 189.480227 
L 770.416783 189.512934 
L 770.763636 189.430639 
L 771.11049 189.10779 
L 771.457343 187.673959 
L 771.804196 188.583424 
L 772.151049 188.174059 
L 772.497902 187.549462 
L 773.191608 187.717217 
L 773.538462 189.408483 
L 773.885315 189.248113 
L 774.232168 188.468422 
L 774.579021 187.991533 
L 774.925874 186.741284 
L 775.272727 187.548407 
L 775.61958 186.823579 
L 775.966434 186.59041 
L 776.313287 186.787707 
L 776.66014 186.445866 
L 777.006993 187.370101 
L 777.353846 186.312928 
L 777.700699 186.246459 
L 778.394406 189.010724 
L 779.088112 189.742938 
L 779.434965 189.660643 
L 779.781818 178.176284 
L 780.128671 177.472557 
L 780.475524 172.947392 
L 780.822378 170.816165 
L 781.169231 170.14198 
L 781.516084 167.529645 
L 781.862937 167.069637 
L 782.20979 166.94725 
L 782.556643 165.722322 
L 782.903497 165.366766 
L 783.597203 161.092706 
L 783.944056 167.473726 
L 784.290909 162.00006 
L 784.984615 160.410081 
L 785.331469 161.211928 
L 785.678322 163.213383 
L 786.025175 158.566886 
L 786.718881 164.610286 
L 787.065734 163.784172 
L 787.412587 169.754772 
L 787.759441 165.960766 
L 788.453147 164.835014 
L 788.8 164.531156 
L 789.146853 167.882036 
L 789.493706 165.509199 
L 789.840559 169.336967 
L 790.187413 170.741256 
L 790.534266 170.865753 
L 790.881119 173.895894 
L 791.227972 173.594146 
L 791.574825 173.791443 
L 791.921678 175.380367 
L 792.268531 174.952012 
L 792.615385 175.658904 
L 792.962238 174.096356 
L 793.655944 173.402124 
L 794.34965 175.468992 
L 794.696503 175.566058 
L 795.043357 176.051387 
L 795.39021 178.066557 
L 795.737063 181.394225 
L 796.083916 191.189429 
L 796.430769 189.664863 
L 796.777622 189.683854 
L 797.124476 193.176112 
L 797.471329 192.891245 
L 797.818182 187.239273 
L 798.165035 186.783486 
L 798.511888 170.116659 
L 798.858741 168.88329 
L 799.552448 167.805016 
L 799.899301 167.525424 
L 800.246154 167.687904 
L 800.593007 168.663837 
L 800.93986 172.553854 
L 801.286713 173.002256 
L 801.633566 174.430811 
L 801.98042 175.055408 
L 802.674126 175.608261 
L 803.020979 176.061938 
L 803.367832 176.251849 
L 804.061538 180.545955 
L 804.408392 187.270925 
L 806.142657 187.377487 
L 806.48951 190.109044 
L 806.836364 190.28524 
L 807.183217 190.828597 
L 807.53007 191.925863 
L 808.570629 200.092049 
L 809.264336 200.938209 
L 809.611189 243.60073 
L 809.958042 248.656591 
L 810.304895 249.678947 
L 810.651748 252.201602 
L 811.345455 252.202657 
L 811.692308 256.847044 
L 813.07972 256.853374 
L 813.426573 257.52967 
L 813.773427 257.749123 
L 814.813986 257.759673 
L 815.507692 259.664062 
L 815.854545 259.480481 
L 816.895105 259.464655 
L 817.588811 257.243748 
L 817.935664 256.265704 
L 818.282517 189.737662 
L 818.629371 189.638486 
L 819.323077 188.819758 
L 819.66993 188.719527 
L 820.363636 186.667429 
L 820.71049 184.684966 
L 821.057343 184.362117 
L 821.404196 183.519122 
L 822.097902 180.771738 
L 822.444755 180.532239 
L 822.791608 178.701705 
L 823.138462 178.539225 
L 823.485315 176.804702 
L 823.832168 177.714166 
L 824.179021 176.340474 
L 824.525874 176.824748 
L 824.872727 178.659502 
L 825.21958 178.263854 
L 825.566434 178.398902 
L 825.913287 175.044857 
L 826.26014 174.884488 
L 826.606993 176.041892 
L 826.953846 172.373438 
L 827.300699 164.550147 
L 827.647552 163.261915 
L 827.994406 163.497194 
L 828.688112 163.296733 
L 829.034965 162.192082 
L 829.381818 163.403294 
L 829.728671 164.072204 
L 830.075524 166.743623 
L 830.422378 179.309421 
L 830.769231 175.377202 
L 831.116084 175.549177 
L 831.462937 182.98315 
L 831.80979 183.092877 
L 832.156643 182.626539 
L 832.503497 182.672962 
L 833.197203 176.132627 
L 833.544056 177.248883 
L 833.890909 179.605894 
L 834.237762 180.337052 
L 834.584615 180.530129 
L 834.931469 180.267418 
L 835.278322 180.857198 
L 835.625175 182.402865 
L 835.972028 189.937069 
L 836.318881 192.101003 
L 836.665734 206.097467 
L 837.012587 207.198952 
L 837.706294 207.24854 
L 838.053147 206.48573 
L 838.4 206.052099 
L 838.746853 204.625654 
L 839.093706 195.961478 
L 839.440559 194.922241 
L 840.481119 194.251221 
L 840.827972 194.719669 
L 841.174825 195.418121 
L 841.868531 197.618982 
L 842.215385 197.230719 
L 842.562238 194.306084 
L 843.255944 194.214294 
L 843.602797 190.62708 
L 844.296503 190.499418 
L 844.643357 190.794835 
L 844.99021 192.406971 
L 845.337063 191.632555 
L 845.683916 188.341814 
L 846.030769 187.087344 
L 846.377622 187.913459 
L 846.724476 194.462234 
L 847.071329 187.919789 
L 847.418182 188.52223 
L 847.765035 187.002939 
L 848.111888 186.271781 
L 848.458741 192.033479 
L 848.805594 192.408026 
L 849.152448 194.215349 
L 849.499301 190.0373 
L 849.846154 190.02886 
L 850.193007 197.58522 
L 850.53986 198.223533 
L 850.886713 200.066727 
L 851.233566 198.93148 
L 851.927273 195.354817 
L 852.274126 199.447406 
L 852.620979 200.688159 
L 852.967832 198.466197 
L 853.314685 198.573814 
L 853.661538 198.134907 
L 854.008392 199.063363 
L 854.355245 201.483677 
L 854.702098 200.747243 
L 855.048951 202.737091 
L 855.395804 202.060796 
L 855.742657 201.000458 
L 856.08951 201.903592 
L 856.783217 200.94243 
L 857.476923 197.441731 
L 857.823776 197.50398 
L 858.170629 196.175656 
L 858.517483 196.197812 
L 858.864336 195.794778 
L 859.211189 199.478002 
L 859.558042 199.52337 
L 859.904895 200.956145 
L 860.251748 201.150277 
L 860.945455 209.076964 
L 861.639161 203.773163 
L 861.986014 199.619381 
L 862.332867 199.7692 
L 862.67972 200.063562 
L 863.026573 199.174144 
L 863.373427 199.157263 
L 863.72028 196.33075 
L 864.067133 196.82874 
L 864.413986 201.568082 
L 864.760839 201.11757 
L 865.107692 201.61767 
L 865.801399 196.716903 
L 866.148252 190.528959 
L 866.495105 189.813627 
L 866.841958 190.388636 
L 867.188811 190.498363 
L 867.535664 191.448974 
L 867.882517 191.400441 
L 868.229371 191.055436 
L 868.576224 194.636319 
L 868.923077 195.384359 
L 869.26993 197.099891 
L 869.616783 197.230719 
L 870.31049 199.122446 
L 871.004196 198.292112 
L 871.351049 198.816478 
L 871.697902 197.013376 
L 872.044755 196.561809 
L 872.391608 196.970118 
L 872.738462 196.457357 
L 873.085315 196.252675 
L 873.432168 197.741369 
L 873.779021 197.687561 
L 874.125874 198.75845 
L 874.472727 195.606977 
L 874.81958 196.523826 
L 875.166434 195.546838 
L 875.513287 193.56332 
L 876.206993 195.544728 
L 876.553846 195.494085 
L 876.900699 191.667372 
L 877.247552 191.886825 
L 877.594406 193.161341 
L 877.941259 187.606435 
L 878.288112 180.156637 
L 878.634965 177.134937 
L 878.981818 177.037871 
L 879.328671 179.180704 
L 879.675524 185.823379 
L 880.022378 187.558957 
L 880.369231 188.179334 
L 881.062937 187.284641 
L 881.40979 187.525195 
L 881.756643 185.257865 
L 882.103497 184.843226 
L 882.45035 184.90653 
L 882.797203 181.894325 
L 883.144056 185.57966 
L 883.490909 185.321169 
L 883.837762 186.021731 
L 884.184615 185.359151 
L 884.878322 188.919989 
L 885.225175 188.608745 
L 885.572028 187.725657 
L 886.265734 189.315637 
L 886.612587 196.360292 
L 887.306294 192.536744 
L 887.653147 193.202489 
L 888 180.3054 
L 888.693706 179.658647 
L 889.040559 179.663922 
L 889.387413 179.816906 
L 889.734266 179.543645 
L 890.081119 178.929599 
L 890.427972 179.634381 
L 890.774825 177.256269 
L 891.121678 178.632071 
L 891.468531 177.991648 
L 891.815385 177.670909 
L 892.162238 177.737378 
L 892.855944 179.032995 
L 893.202797 178.418948 
L 893.54965 177.419804 
L 893.896503 177.882976 
L 894.243357 178.091879 
L 894.59021 172.700508 
L 894.937063 172.275317 
L 895.283916 170.604098 
L 895.630769 170.349828 
L 895.977622 172.542248 
L 896.324476 172.902025 
L 896.671329 173.587815 
L 897.018182 176.157948 
L 897.365035 176.233913 
L 897.711888 171.388009 
L 898.058741 171.608518 
L 898.405594 172.311189 
L 898.752448 167.806071 
L 899.099301 168.358924 
L 899.446154 175.058573 
L 899.793007 175.355046 
L 900.13986 175.474268 
L 900.486713 174.631273 
L 900.833566 168.432778 
L 901.527273 170.566115 
L 901.874126 178.250138 
L 902.220979 181.602073 
L 902.567832 181.54932 
L 902.914685 181.932307 
L 903.261538 182.795349 
L 903.608392 182.776358 
L 903.955245 185.132313 
L 904.302098 186.008015 
L 904.648951 175.198896 
L 904.995804 173.784057 
L 905.342657 173.684881 
L 906.036364 170.607263 
L 906.383217 166.987342 
L 906.73007 166.773165 
L 907.076923 166.203431 
L 907.423776 166.112695 
L 907.770629 167.02638 
L 908.117483 166.795321 
L 908.464336 169.479401 
L 908.811189 162.106622 
L 909.158042 164.941575 
L 909.504895 166.347974 
L 910.198601 165.594659 
L 910.545455 165.676954 
L 910.892308 160.56201 
L 911.239161 160.231775 
L 911.586014 156.215151 
L 911.932867 156.025239 
L 912.27972 156.855574 
L 912.626573 158.017198 
L 912.973427 155.115775 
L 913.32028 153.698826 
L 914.013986 161.007246 
L 914.360839 162.372497 
L 914.707692 162.223734 
L 915.054545 155.424909 
L 915.401399 145.498878 
L 915.748252 146.3788 
L 916.095105 146.237422 
L 916.788811 145.54741 
L 917.135664 144.076653 
L 917.482517 144.686479 
L 917.829371 144.847904 
L 918.176224 144.354134 
L 918.523077 150.335286 
L 919.216783 149.127239 
L 919.563636 149.013292 
L 919.91049 148.679892 
L 920.257343 149.090311 
L 920.604196 145.513648 
L 920.951049 145.71411 
L 921.297902 145.448235 
L 921.644755 142.245064 
L 921.991608 142.806357 
L 922.338462 142.94035 
L 922.685315 142.778926 
L 923.032168 143.139757 
L 923.379021 142.990993 
L 923.725874 143.046911 
L 924.072727 144.477577 
L 924.41958 145.03043 
L 924.766434 143.934219 
L 925.113287 142.378002 
L 925.46014 139.167445 
L 925.806993 139.066159 
L 926.500699 140.897749 
L 926.847552 140.823894 
L 927.194406 140.061084 
L 927.541259 141.240644 
L 928.234965 148.436172 
L 928.581818 149.274947 
L 928.928671 153.330609 
L 929.275524 166.050447 
L 929.622378 166.487243 
L 929.969231 159.865668 
L 930.316084 159.125014 
L 930.662937 158.80533 
L 931.00979 158.05518 
L 931.356643 156.814426 
L 931.703497 160.620038 
L 932.05035 157.902196 
L 932.397203 156.545385 
L 932.744056 155.887026 
L 933.090909 155.506149 
L 933.437762 155.786795 
L 933.784615 155.844824 
L 934.131469 159.475295 
L 934.478322 159.454194 
L 934.825175 157.585677 
L 935.172028 160.579946 
L 935.518881 159.451028 
L 936.212587 159.331806 
L 936.559441 159.938468 
L 936.906294 160.836326 
L 937.253147 160.73504 
L 937.6 164.257895 
L 937.946853 165.889022 
L 938.293706 166.066272 
L 938.640559 163.887568 
L 938.987413 164.038442 
L 939.334266 165.35305 
L 939.681119 165.314013 
L 940.027972 165.500759 
L 940.374825 167.671023 
L 940.721678 168.067727 
L 941.068531 168.249197 
L 941.415385 168.007588 
L 941.762238 167.485332 
L 942.109091 167.471616 
L 942.455944 164.588129 
L 942.802797 164.636662 
L 943.14965 166.351139 
L 943.496503 166.138017 
L 943.843357 165.604155 
L 944.19021 165.319288 
L 944.537063 144.625286 
L 944.883916 144.905932 
L 945.230769 144.016514 
L 945.577622 141.438996 
L 945.924476 139.842686 
L 946.271329 139.954522 
L 946.965035 148.875079 
L 947.658741 149.607292 
L 948.005594 149.630504 
L 948.352448 150.531527 
L 948.699301 150.651804 
L 949.046154 158.942488 
L 949.393007 160.616873 
L 949.73986 160.828941 
L 950.086713 161.464088 
L 951.127273 167.037985 
L 951.474126 167.136106 
L 951.820979 167.03271 
L 952.167832 167.438909 
L 952.861538 178.648952 
L 953.208392 180.005763 
L 953.555245 180.21783 
L 954.248951 181.343582 
L 954.595804 181.679092 
L 954.942657 184.604782 
L 955.28951 185.151304 
L 955.636364 188.446265 
L 957.023776 191.776044 
L 957.717483 196.369787 
L 958.064336 199.500159 
L 958.758042 202.523969 
L 959.104895 203.909266 
L 959.451748 204.527533 
L 959.798601 205.709203 
L 960.145455 205.870628 
L 960.839161 206.349627 
L 961.186014 206.430866 
L 962.226573 208.07782 
L 962.573427 208.153784 
L 962.92028 208.731958 
L 963.267133 213.556761 
L 963.613986 216.479285 
L 963.960839 217.711598 
L 964.307692 216.81374 
L 964.654545 216.881264 
L 965.001399 217.15769 
L 965.348252 217.220994 
L 965.695105 219.552683 
L 966.041958 219.798513 
L 966.388811 221.140553 
L 967.082517 232.699821 
L 967.429371 247.172118 
L 967.776224 247.329322 
L 968.123077 250.108358 
L 968.816783 252.016966 
L 969.163636 252.192107 
L 969.51049 254.282186 
L 969.857343 255.317203 
L 970.204196 262.590806 
L 970.551049 262.581311 
L 971.591608 263.901194 
L 971.938462 263.957113 
L 972.285315 264.411845 
L 972.632168 265.382502 
L 972.979021 270.888875 
L 973.325874 270.957454 
L 973.672727 275.67253 
L 974.01958 275.737944 
L 974.366434 275.970058 
L 974.713287 276.68328 
L 975.406993 277.216087 
L 976.100699 277.439761 
L 976.447552 277.710912 
L 976.794406 278.160368 
L 977.141259 282.108414 
L 977.488112 282.984116 
L 978.528671 283.870369 
L 978.875524 285.044653 
L 979.222378 286.92583 
L 979.569231 287.011291 
L 979.916084 289.067608 
L 980.262937 289.198436 
L 980.60979 289.767115 
L 980.956643 292.330917 
L 981.65035 292.634775 
L 981.997203 292.7962 
L 982.344056 293.329007 
L 983.037762 293.527359 
L 983.384615 294.801875 
L 983.731469 297.799308 
L 984.078322 303.491372 
L 984.425175 304.958964 
L 984.772028 308.525077 
L 985.118881 308.807834 
L 985.465734 310.127717 
L 985.812587 313.70227 
L 986.506294 313.997688 
L 986.853147 314.574807 
L 987.2 314.709855 
L 987.546853 319.766771 
L 987.893706 320.481049 
L 988.240559 321.456982 
L 988.934266 321.582535 
L 989.281119 322.107956 
L 989.627972 322.334794 
L 990.321678 322.477228 
L 990.668531 322.597505 
L 991.015385 330.824885 
L 991.362238 331.299663 
L 992.055944 331.403059 
L 992.74965 332.1722 
L 993.096503 333.193501 
L 993.443357 333.331714 
L 993.79021 333.92466 
L 994.137063 334.081864 
L 994.483916 334.407878 
L 994.830769 338.80327 
L 995.177622 339.469015 
L 995.524476 339.635715 
L 995.871329 344.135558 
L 996.218182 369.36 
L 996.218182 369.36 
" clip-path="url(#p6c35d5bce7)" style="fill: none; stroke: #1f77b4; stroke-width: 1.5; stroke-linecap: square"/>
   </g>
   <g id="line2d_14">
    <path d="M 184.581818 342.040203 
L 996.218182 342.040203 
L 996.218182 342.040203 
" clip-path="url(#p6c35d5bce7)" style="fill: none; stroke-dasharray: 5.55,2.4; stroke-dashoffset: 0; stroke: #ff7f0e; stroke-width: 1.5"/>
   </g>
   <g id="line2d_15">
    <path d="M 184.581818 204.500101 
L 996.218182 204.500101 
L 996.218182 204.500101 
" clip-path="url(#p6c35d5bce7)" style="fill: none; stroke-dasharray: 5.55,2.4; stroke-dashoffset: 0; stroke: #2ca02c; stroke-width: 1.5"/>
   </g>
   <g id="line2d_16">
    <path d="M 184.581818 66.96 
L 996.218182 66.96 
L 996.218182 66.96 
" clip-path="url(#p6c35d5bce7)" style="fill: none; stroke-dasharray: 5.55,2.4; stroke-dashoffset: 0; stroke: #d62728; stroke-width: 1.5"/>
   </g>
   <g id="patch_3">
    <path d="M 144 384.48 
L 144 51.84 
" style="fill: none; stroke: #000000; stroke-width: 0.8; stroke-linejoin: miter; stroke-linecap: square"/>
   </g>
   <g id="patch_4">
    <path d="M 1036.8 384.48 
L 1036.8 51.84 
" style="fill: none; stroke: #000000; stroke-width: 0.8; stroke-linejoin: miter; stroke-linecap: square"/>
   </g>
   <g id="patch_5">
    <path d="M 144 384.48 
L 1036.8 384.48 
" style="fill: none; stroke: #000000; stroke-width: 0.8; stroke-linejoin: miter; stroke-linecap: square"/>
   </g>
   <g id="patch_6">
    <path d="M 144 51.84 
L 1036.8 51.84 
" style="fill: none; stroke: #000000; stroke-width: 0.8; stroke-linejoin: miter; stroke-linecap: square"/>
   </g>
   <g id="text_15">
    <!-- PB2 -->
    <g transform="translate(578.848125 45.84)scale(0.12 -0.12)">
     <defs>
      <path id="DejaVuSans-42" d="M 1259 2228 
L 1259 519 
L 2272 519 
Q 2781 519 3026 730 
Q 3272 941 3272 1375 
Q 3272 1813 3026 2020 
Q 2781 2228 2272 2228 
L 1259 2228 
z
M 1259 4147 
L 1259 2741 
L 2194 2741 
Q 2656 2741 2882 2914 
Q 3109 3088 3109 3444 
Q 3109 3797 2882 3972 
Q 2656 4147 2194 4147 
L 1259 4147 
z
M 628 4666 
L 2241 4666 
Q 2963 4666 3353 4366 
Q 3744 4066 3744 3513 
Q 3744 3084 3544 2831 
Q 3344 2578 2956 2516 
Q 3422 2416 3680 2098 
Q 3938 1781 3938 1306 
Q 3938 681 3513 340 
Q 3088 0 2303 0 
L 628 0 
L 628 4666 
z
" transform="scale(0.015625)"/>
     </defs>
     <use xlink:href="#DejaVuSans-50"/>
     <use xlink:href="#DejaVuSans-42" x="60.302734"/>
     <use xlink:href="#DejaVuSans-32" x="128.90625"/>
    </g>
   </g>
   <g id="legend_1">
    <g id="patch_7">
     <path d="M 146 28.936045 
L 1034.8 28.936045 
Q 1036.8 28.936045 1036.8 26.936045 
L 1036.8 13.25792 
Q 1036.8 11.25792 1034.8 11.25792 
L 146 11.25792 
Q 144 11.25792 144 13.25792 
L 144 26.936045 
Q 144 28.936045 146 28.936045 
z
" style="fill: #ffffff; opacity: 0.8; stroke: #cccccc; stroke-linejoin: miter"/>
    </g>
    <g id="line2d_17">
     <path d="M 148 19.356358 
L 158 19.356358 
L 168 19.356358 
" style="fill: none; stroke-dasharray: 5.55,2.4; stroke-dashoffset: 0; stroke: #ff7f0e; stroke-width: 1.5"/>
    </g>
    <g id="text_16">
     <!-- Average depth * 0.2 -->
     <g transform="translate(176 22.856358)scale(0.1 -0.1)">
      <defs>
       <path id="DejaVuSans-41" d="M 2188 4044 
L 1331 1722 
L 3047 1722 
L 2188 4044 
z
M 1831 4666 
L 2547 4666 
L 4325 0 
L 3669 0 
L 3244 1197 
L 1141 1197 
L 716 0 
L 50 0 
L 1831 4666 
z
" transform="scale(0.015625)"/>
       <path id="DejaVuSans-64" d="M 2906 2969 
L 2906 4863 
L 3481 4863 
L 3481 0 
L 2906 0 
L 2906 525 
Q 2725 213 2448 61 
Q 2172 -91 1784 -91 
Q 1150 -91 751 415 
Q 353 922 353 1747 
Q 353 2572 751 3078 
Q 1150 3584 1784 3584 
Q 2172 3584 2448 3432 
Q 2725 3281 2906 2969 
z
M 947 1747 
Q 947 1113 1208 752 
Q 1469 391 1925 391 
Q 2381 391 2643 752 
Q 2906 1113 2906 1747 
Q 2906 2381 2643 2742 
Q 2381 3103 1925 3103 
Q 1469 3103 1208 2742 
Q 947 2381 947 1747 
z
" transform="scale(0.015625)"/>
       <path id="DejaVuSans-2a" d="M 3009 3897 
L 1888 3291 
L 3009 2681 
L 2828 2375 
L 1778 3009 
L 1778 1831 
L 1422 1831 
L 1422 3009 
L 372 2375 
L 191 2681 
L 1313 3291 
L 191 3897 
L 372 4206 
L 1422 3572 
L 1422 4750 
L 1778 4750 
L 1778 3572 
L 2828 4206 
L 3009 3897 
z
" transform="scale(0.015625)"/>
       <path id="DejaVuSans-2e" d="M 684 794 
L 1344 794 
L 1344 0 
L 684 0 
L 684 794 
z
" transform="scale(0.015625)"/>
      </defs>
      <use xlink:href="#DejaVuSans-41"/>
      <use xlink:href="#DejaVuSans-76" x="62.533203"/>
      <use xlink:href="#DejaVuSans-65" x="121.712891"/>
      <use xlink:href="#DejaVuSans-72" x="183.236328"/>
      <use xlink:href="#DejaVuSans-61" x="224.349609"/>
      <use xlink:href="#DejaVuSans-67" x="285.628906"/>
      <use xlink:href="#DejaVuSans-65" x="349.105469"/>
      <use xlink:href="#DejaVuSans-20" x="410.628906"/>
      <use xlink:href="#DejaVuSans-64" x="442.416016"/>
      <use xlink:href="#DejaVuSans-65" x="505.892578"/>
      <use xlink:href="#DejaVuSans-70" x="567.416016"/>
      <use xlink:href="#DejaVuSans-74" x="630.892578"/>
      <use xlink:href="#DejaVuSans-68" x="670.101562"/>
      <use xlink:href="#DejaVuSans-20" x="733.480469"/>
      <use xlink:href="#DejaVuSans-2a" x="765.267578"/>
      <use xlink:href="#DejaVuSans-20" x="815.267578"/>
      <use xlink:href="#DejaVuSans-30" x="847.054688"/>
      <use xlink:href="#DejaVuSans-2e" x="910.677734"/>
      <use xlink:href="#DejaVuSans-32" x="942.464844"/>
     </g>
    </g>
    <g id="line2d_18">
     <path d="M 539.724219 19.356358 
L 549.724219 19.356358 
L 559.724219 19.356358 
" style="fill: none; stroke-dasharray: 5.55,2.4; stroke-dashoffset: 0; stroke: #2ca02c; stroke-width: 1.5"/>
    </g>
    <g id="text_17">
     <!-- Average depth -->
     <g transform="translate(567.724219 22.856358)scale(0.1 -0.1)">
      <use xlink:href="#DejaVuSans-41"/>
      <use xlink:href="#DejaVuSans-76" x="62.533203"/>
      <use xlink:href="#DejaVuSans-65" x="121.712891"/>
      <use xlink:href="#DejaVuSans-72" x="183.236328"/>
      <use xlink:href="#DejaVuSans-61" x="224.349609"/>
      <use xlink:href="#DejaVuSans-67" x="285.628906"/>
      <use xlink:href="#DejaVuSans-65" x="349.105469"/>
      <use xlink:href="#DejaVuSans-20" x="410.628906"/>
      <use xlink:href="#DejaVuSans-64" x="442.416016"/>
      <use xlink:href="#DejaVuSans-65" x="505.892578"/>
      <use xlink:href="#DejaVuSans-70" x="567.416016"/>
      <use xlink:href="#DejaVuSans-74" x="630.892578"/>
      <use xlink:href="#DejaVuSans-68" x="670.101562"/>
     </g>
    </g>
    <g id="line2d_19">
     <path d="M 904.189062 19.356358 
L 914.189062 19.356358 
L 924.189062 19.356358 
" style="fill: none; stroke-dasharray: 5.55,2.4; stroke-dashoffset: 0; stroke: #d62728; stroke-width: 1.5"/>
    </g>
    <g id="text_18">
     <!-- Average depth * 1.8 -->
     <g transform="translate(932.189062 22.856358)scale(0.1 -0.1)">
      <defs>
       <path id="DejaVuSans-38" d="M 2034 2216 
Q 1584 2216 1326 1975 
Q 1069 1734 1069 1313 
Q 1069 891 1326 650 
Q 1584 409 2034 409 
Q 2484 409 2743 651 
Q 3003 894 3003 1313 
Q 3003 1734 2745 1975 
Q 2488 2216 2034 2216 
z
M 1403 2484 
Q 997 2584 770 2862 
Q 544 3141 544 3541 
Q 544 4100 942 4425 
Q 1341 4750 2034 4750 
Q 2731 4750 3128 4425 
Q 3525 4100 3525 3541 
Q 3525 3141 3298 2862 
Q 3072 2584 2669 2484 
Q 3125 2378 3379 2068 
Q 3634 1759 3634 1313 
Q 3634 634 3220 271 
Q 2806 -91 2034 -91 
Q 1263 -91 848 271 
Q 434 634 434 1313 
Q 434 1759 690 2068 
Q 947 2378 1403 2484 
z
M 1172 3481 
Q 1172 3119 1398 2916 
Q 1625 2713 2034 2713 
Q 2441 2713 2670 2916 
Q 2900 3119 2900 3481 
Q 2900 3844 2670 4047 
Q 2441 4250 2034 4250 
Q 1625 4250 1398 4047 
Q 1172 3844 1172 3481 
z
" transform="scale(0.015625)"/>
      </defs>
      <use xlink:href="#DejaVuSans-41"/>
      <use xlink:href="#DejaVuSans-76" x="62.533203"/>
      <use xlink:href="#DejaVuSans-65" x="121.712891"/>
      <use xlink:href="#DejaVuSans-72" x="183.236328"/>
      <use xlink:href="#DejaVuSans-61" x="224.349609"/>
      <use xlink:href="#DejaVuSans-67" x="285.628906"/>
      <use xlink:href="#DejaVuSans-65" x="349.105469"/>
      <use xlink:href="#DejaVuSans-20" x="410.628906"/>
      <use xlink:href="#DejaVuSans-64" x="442.416016"/>
      <use xlink:href="#DejaVuSans-65" x="505.892578"/>
      <use xlink:href="#DejaVuSans-70" x="567.416016"/>
      <use xlink:href="#DejaVuSans-74" x="630.892578"/>
      <use xlink:href="#DejaVuSans-68" x="670.101562"/>
      <use xlink:href="#DejaVuSans-20" x="733.480469"/>
      <use xlink:href="#DejaVuSans-2a" x="765.267578"/>
      <use xlink:href="#DejaVuSans-20" x="815.267578"/>
      <use xlink:href="#DejaVuSans-31" x="847.054688"/>
      <use xlink:href="#DejaVuSans-2e" x="910.677734"/>
      <use xlink:href="#DejaVuSans-38" x="942.464844"/>
     </g>
    </g>
   </g>
  </g>
 </g>
 <defs>
  <clipPath id="p6c35d5bce7">
   <rect x="144" y="51.84" width="892.8" height="332.64"/>
  </clipPath>
 </defs>
</svg>
