<?xml version="1.0" encoding="utf-8" standalone="no"?>
<!DOCTYPE svg PUBLIC "-//W3C//DTD SVG 1.1//EN"
  "http://www.w3.org/Graphics/SVG/1.1/DTD/svg11.dtd">
<svg xmlns:xlink="http://www.w3.org/1999/xlink" width="1152pt" height="432pt" viewBox="0 0 1152 432" xmlns="http://www.w3.org/2000/svg" version="1.1">
 <metadata>
  <rdf:RDF xmlns:dc="http://purl.org/dc/elements/1.1/" xmlns:cc="http://creativecommons.org/ns#" xmlns:rdf="http://www.w3.org/1999/02/22-rdf-syntax-ns#">
   <cc:Work>
    <dc:type rdf:resource="http://purl.org/dc/dcmitype/StillImage"/>
    <dc:date>2022-11-25T09:58:50.099206</dc:date>
    <dc:format>image/svg+xml</dc:format>
    <dc:creator>
     <cc:Agent>
      <dc:title>Matplotlib v3.5.2, https://matplotlib.org/</dc:title>
     </cc:Agent>
    </dc:creator>
   </cc:Work>
  </rdf:RDF>
 </metadata>
 <defs>
  <style type="text/css">*{stroke-linejoin: round; stroke-linecap: butt}</style>
 </defs>
 <g id="figure_1">
  <g id="patch_1">
   <path d="M 0 432 
L 1152 432 
L 1152 0 
L 0 0 
z
" style="fill: #ffffff"/>
  </g>
  <g id="axes_1">
   <g id="patch_2">
    <path d="M 144 384.48 
L 1036.8 384.48 
L 1036.8 51.84 
L 144 51.84 
z
" style="fill: #ffffff"/>
   </g>
   <g id="matplotlib.axis_1">
    <g id="xtick_1">
     <g id="line2d_1">
      <defs>
       <path id="mad542d0244" d="M 0 0 
L 0 3.5 
" style="stroke: #000000; stroke-width: 0.8"/>
      </defs>
      <g>
       <use xlink:href="#mad542d0244" x="184.581818" y="384.48" style="stroke: #000000; stroke-width: 0.8"/>
      </g>
     </g>
     <g id="text_1">
      <!-- 0 -->
      <g transform="translate(181.400568 399.078438)scale(0.1 -0.1)">
       <defs>
        <path id="DejaVuSans-30" d="M 2034 4250 
Q 1547 4250 1301 3770 
Q 1056 3291 1056 2328 
Q 1056 1369 1301 889 
Q 1547 409 2034 409 
Q 2525 409 2770 889 
Q 3016 1369 3016 2328 
Q 3016 3291 2770 3770 
Q 2525 4250 2034 4250 
z
M 2034 4750 
Q 2819 4750 3233 4129 
Q 3647 3509 3647 2328 
Q 3647 1150 3233 529 
Q 2819 -91 2034 -91 
Q 1250 -91 836 529 
Q 422 1150 422 2328 
Q 422 3509 836 4129 
Q 1250 4750 2034 4750 
z
" transform="scale(0.015625)"/>
       </defs>
       <use xlink:href="#DejaVuSans-30"/>
      </g>
     </g>
    </g>
    <g id="xtick_2">
     <g id="line2d_2">
      <g>
       <use xlink:href="#mad542d0244" x="298.896799" y="384.48" style="stroke: #000000; stroke-width: 0.8"/>
      </g>
     </g>
     <g id="text_2">
      <!-- 250 -->
      <g transform="translate(289.353049 399.078438)scale(0.1 -0.1)">
       <defs>
        <path id="DejaVuSans-32" d="M 1228 531 
L 3431 531 
L 3431 0 
L 469 0 
L 469 531 
Q 828 903 1448 1529 
Q 2069 2156 2228 2338 
Q 2531 2678 2651 2914 
Q 2772 3150 2772 3378 
Q 2772 3750 2511 3984 
Q 2250 4219 1831 4219 
Q 1534 4219 1204 4116 
Q 875 4013 500 3803 
L 500 4441 
Q 881 4594 1212 4672 
Q 1544 4750 1819 4750 
Q 2544 4750 2975 4387 
Q 3406 4025 3406 3419 
Q 3406 3131 3298 2873 
Q 3191 2616 2906 2266 
Q 2828 2175 2409 1742 
Q 1991 1309 1228 531 
z
" transform="scale(0.015625)"/>
        <path id="DejaVuSans-35" d="M 691 4666 
L 3169 4666 
L 3169 4134 
L 1269 4134 
L 1269 2991 
Q 1406 3038 1543 3061 
Q 1681 3084 1819 3084 
Q 2600 3084 3056 2656 
Q 3513 2228 3513 1497 
Q 3513 744 3044 326 
Q 2575 -91 1722 -91 
Q 1428 -91 1123 -41 
Q 819 9 494 109 
L 494 744 
Q 775 591 1075 516 
Q 1375 441 1709 441 
Q 2250 441 2565 725 
Q 2881 1009 2881 1497 
Q 2881 1984 2565 2268 
Q 2250 2553 1709 2553 
Q 1456 2553 1204 2497 
Q 953 2441 691 2322 
L 691 4666 
z
" transform="scale(0.015625)"/>
       </defs>
       <use xlink:href="#DejaVuSans-32"/>
       <use xlink:href="#DejaVuSans-35" x="63.623047"/>
       <use xlink:href="#DejaVuSans-30" x="127.246094"/>
      </g>
     </g>
    </g>
    <g id="xtick_3">
     <g id="line2d_3">
      <g>
       <use xlink:href="#mad542d0244" x="413.21178" y="384.48" style="stroke: #000000; stroke-width: 0.8"/>
      </g>
     </g>
     <g id="text_3">
      <!-- 500 -->
      <g transform="translate(403.66803 399.078438)scale(0.1 -0.1)">
       <use xlink:href="#DejaVuSans-35"/>
       <use xlink:href="#DejaVuSans-30" x="63.623047"/>
       <use xlink:href="#DejaVuSans-30" x="127.246094"/>
      </g>
     </g>
    </g>
    <g id="xtick_4">
     <g id="line2d_4">
      <g>
       <use xlink:href="#mad542d0244" x="527.526761" y="384.48" style="stroke: #000000; stroke-width: 0.8"/>
      </g>
     </g>
     <g id="text_4">
      <!-- 750 -->
      <g transform="translate(517.983011 399.078438)scale(0.1 -0.1)">
       <defs>
        <path id="DejaVuSans-37" d="M 525 4666 
L 3525 4666 
L 3525 4397 
L 1831 0 
L 1172 0 
L 2766 4134 
L 525 4134 
L 525 4666 
z
" transform="scale(0.015625)"/>
       </defs>
       <use xlink:href="#DejaVuSans-37"/>
       <use xlink:href="#DejaVuSans-35" x="63.623047"/>
       <use xlink:href="#DejaVuSans-30" x="127.246094"/>
      </g>
     </g>
    </g>
    <g id="xtick_5">
     <g id="line2d_5">
      <g>
       <use xlink:href="#mad542d0244" x="641.841741" y="384.48" style="stroke: #000000; stroke-width: 0.8"/>
      </g>
     </g>
     <g id="text_5">
      <!-- 1000 -->
      <g transform="translate(629.116741 399.078438)scale(0.1 -0.1)">
       <defs>
        <path id="DejaVuSans-31" d="M 794 531 
L 1825 531 
L 1825 4091 
L 703 3866 
L 703 4441 
L 1819 4666 
L 2450 4666 
L 2450 531 
L 3481 531 
L 3481 0 
L 794 0 
L 794 531 
z
" transform="scale(0.015625)"/>
       </defs>
       <use xlink:href="#DejaVuSans-31"/>
       <use xlink:href="#DejaVuSans-30" x="63.623047"/>
       <use xlink:href="#DejaVuSans-30" x="127.246094"/>
       <use xlink:href="#DejaVuSans-30" x="190.869141"/>
      </g>
     </g>
    </g>
    <g id="xtick_6">
     <g id="line2d_6">
      <g>
       <use xlink:href="#mad542d0244" x="756.156722" y="384.48" style="stroke: #000000; stroke-width: 0.8"/>
      </g>
     </g>
     <g id="text_6">
      <!-- 1250 -->
      <g transform="translate(743.431722 399.078438)scale(0.1 -0.1)">
       <use xlink:href="#DejaVuSans-31"/>
       <use xlink:href="#DejaVuSans-32" x="63.623047"/>
       <use xlink:href="#DejaVuSans-35" x="127.246094"/>
       <use xlink:href="#DejaVuSans-30" x="190.869141"/>
      </g>
     </g>
    </g>
    <g id="xtick_7">
     <g id="line2d_7">
      <g>
       <use xlink:href="#mad542d0244" x="870.471703" y="384.48" style="stroke: #000000; stroke-width: 0.8"/>
      </g>
     </g>
     <g id="text_7">
      <!-- 1500 -->
      <g transform="translate(857.746703 399.078438)scale(0.1 -0.1)">
       <use xlink:href="#DejaVuSans-31"/>
       <use xlink:href="#DejaVuSans-35" x="63.623047"/>
       <use xlink:href="#DejaVuSans-30" x="127.246094"/>
       <use xlink:href="#DejaVuSans-30" x="190.869141"/>
      </g>
     </g>
    </g>
    <g id="xtick_8">
     <g id="line2d_8">
      <g>
       <use xlink:href="#mad542d0244" x="984.786684" y="384.48" style="stroke: #000000; stroke-width: 0.8"/>
      </g>
     </g>
     <g id="text_8">
      <!-- 1750 -->
      <g transform="translate(972.061684 399.078438)scale(0.1 -0.1)">
       <use xlink:href="#DejaVuSans-31"/>
       <use xlink:href="#DejaVuSans-37" x="63.623047"/>
       <use xlink:href="#DejaVuSans-35" x="127.246094"/>
       <use xlink:href="#DejaVuSans-30" x="190.869141"/>
      </g>
     </g>
    </g>
    <g id="text_9">
     <!-- Position -->
     <g transform="translate(570.935938 412.756563)scale(0.1 -0.1)">
      <defs>
       <path id="DejaVuSans-50" d="M 1259 4147 
L 1259 2394 
L 2053 2394 
Q 2494 2394 2734 2622 
Q 2975 2850 2975 3272 
Q 2975 3691 2734 3919 
Q 2494 4147 2053 4147 
L 1259 4147 
z
M 628 4666 
L 2053 4666 
Q 2838 4666 3239 4311 
Q 3641 3956 3641 3272 
Q 3641 2581 3239 2228 
Q 2838 1875 2053 1875 
L 1259 1875 
L 1259 0 
L 628 0 
L 628 4666 
z
" transform="scale(0.015625)"/>
       <path id="DejaVuSans-6f" d="M 1959 3097 
Q 1497 3097 1228 2736 
Q 959 2375 959 1747 
Q 959 1119 1226 758 
Q 1494 397 1959 397 
Q 2419 397 2687 759 
Q 2956 1122 2956 1747 
Q 2956 2369 2687 2733 
Q 2419 3097 1959 3097 
z
M 1959 3584 
Q 2709 3584 3137 3096 
Q 3566 2609 3566 1747 
Q 3566 888 3137 398 
Q 2709 -91 1959 -91 
Q 1206 -91 779 398 
Q 353 888 353 1747 
Q 353 2609 779 3096 
Q 1206 3584 1959 3584 
z
" transform="scale(0.015625)"/>
       <path id="DejaVuSans-73" d="M 2834 3397 
L 2834 2853 
Q 2591 2978 2328 3040 
Q 2066 3103 1784 3103 
Q 1356 3103 1142 2972 
Q 928 2841 928 2578 
Q 928 2378 1081 2264 
Q 1234 2150 1697 2047 
L 1894 2003 
Q 2506 1872 2764 1633 
Q 3022 1394 3022 966 
Q 3022 478 2636 193 
Q 2250 -91 1575 -91 
Q 1294 -91 989 -36 
Q 684 19 347 128 
L 347 722 
Q 666 556 975 473 
Q 1284 391 1588 391 
Q 1994 391 2212 530 
Q 2431 669 2431 922 
Q 2431 1156 2273 1281 
Q 2116 1406 1581 1522 
L 1381 1569 
Q 847 1681 609 1914 
Q 372 2147 372 2553 
Q 372 3047 722 3315 
Q 1072 3584 1716 3584 
Q 2034 3584 2315 3537 
Q 2597 3491 2834 3397 
z
" transform="scale(0.015625)"/>
       <path id="DejaVuSans-69" d="M 603 3500 
L 1178 3500 
L 1178 0 
L 603 0 
L 603 3500 
z
M 603 4863 
L 1178 4863 
L 1178 4134 
L 603 4134 
L 603 4863 
z
" transform="scale(0.015625)"/>
       <path id="DejaVuSans-74" d="M 1172 4494 
L 1172 3500 
L 2356 3500 
L 2356 3053 
L 1172 3053 
L 1172 1153 
Q 1172 725 1289 603 
Q 1406 481 1766 481 
L 2356 481 
L 2356 0 
L 1766 0 
Q 1100 0 847 248 
Q 594 497 594 1153 
L 594 3053 
L 172 3053 
L 172 3500 
L 594 3500 
L 594 4494 
L 1172 4494 
z
" transform="scale(0.015625)"/>
       <path id="DejaVuSans-6e" d="M 3513 2113 
L 3513 0 
L 2938 0 
L 2938 2094 
Q 2938 2591 2744 2837 
Q 2550 3084 2163 3084 
Q 1697 3084 1428 2787 
Q 1159 2491 1159 1978 
L 1159 0 
L 581 0 
L 581 3500 
L 1159 3500 
L 1159 2956 
Q 1366 3272 1645 3428 
Q 1925 3584 2291 3584 
Q 2894 3584 3203 3211 
Q 3513 2838 3513 2113 
z
" transform="scale(0.015625)"/>
      </defs>
      <use xlink:href="#DejaVuSans-50"/>
      <use xlink:href="#DejaVuSans-6f" x="56.677734"/>
      <use xlink:href="#DejaVuSans-73" x="117.859375"/>
      <use xlink:href="#DejaVuSans-69" x="169.958984"/>
      <use xlink:href="#DejaVuSans-74" x="197.742188"/>
      <use xlink:href="#DejaVuSans-69" x="236.951172"/>
      <use xlink:href="#DejaVuSans-6f" x="264.734375"/>
      <use xlink:href="#DejaVuSans-6e" x="325.916016"/>
     </g>
    </g>
   </g>
   <g id="matplotlib.axis_2">
    <g id="ytick_1">
     <g id="line2d_9">
      <defs>
       <path id="m76adc518ec" d="M 0 0 
L -3.5 0 
" style="stroke: #000000; stroke-width: 0.8"/>
      </defs>
      <g>
       <use xlink:href="#m76adc518ec" x="144" y="374.114084" style="stroke: #000000; stroke-width: 0.8"/>
      </g>
     </g>
     <g id="text_10">
      <!-- 0 -->
      <g transform="translate(130.6375 377.913303)scale(0.1 -0.1)">
       <use xlink:href="#DejaVuSans-30"/>
      </g>
     </g>
    </g>
    <g id="ytick_2">
     <g id="line2d_10">
      <g>
       <use xlink:href="#m76adc518ec" x="144" y="328.379749" style="stroke: #000000; stroke-width: 0.8"/>
      </g>
     </g>
     <g id="text_11">
      <!-- 20000 -->
      <g transform="translate(105.1875 332.178967)scale(0.1 -0.1)">
       <use xlink:href="#DejaVuSans-32"/>
       <use xlink:href="#DejaVuSans-30" x="63.623047"/>
       <use xlink:href="#DejaVuSans-30" x="127.246094"/>
       <use xlink:href="#DejaVuSans-30" x="190.869141"/>
       <use xlink:href="#DejaVuSans-30" x="254.492188"/>
      </g>
     </g>
    </g>
    <g id="ytick_3">
     <g id="line2d_11">
      <g>
       <use xlink:href="#m76adc518ec" x="144" y="282.645413" style="stroke: #000000; stroke-width: 0.8"/>
      </g>
     </g>
     <g id="text_12">
      <!-- 40000 -->
      <g transform="translate(105.1875 286.444632)scale(0.1 -0.1)">
       <defs>
        <path id="DejaVuSans-34" d="M 2419 4116 
L 825 1625 
L 2419 1625 
L 2419 4116 
z
M 2253 4666 
L 3047 4666 
L 3047 1625 
L 3713 1625 
L 3713 1100 
L 3047 1100 
L 3047 0 
L 2419 0 
L 2419 1100 
L 313 1100 
L 313 1709 
L 2253 4666 
z
" transform="scale(0.015625)"/>
       </defs>
       <use xlink:href="#DejaVuSans-34"/>
       <use xlink:href="#DejaVuSans-30" x="63.623047"/>
       <use xlink:href="#DejaVuSans-30" x="127.246094"/>
       <use xlink:href="#DejaVuSans-30" x="190.869141"/>
       <use xlink:href="#DejaVuSans-30" x="254.492188"/>
      </g>
     </g>
    </g>
    <g id="ytick_4">
     <g id="line2d_12">
      <g>
       <use xlink:href="#m76adc518ec" x="144" y="236.911078" style="stroke: #000000; stroke-width: 0.8"/>
      </g>
     </g>
     <g id="text_13">
      <!-- 60000 -->
      <g transform="translate(105.1875 240.710296)scale(0.1 -0.1)">
       <defs>
        <path id="DejaVuSans-36" d="M 2113 2584 
Q 1688 2584 1439 2293 
Q 1191 2003 1191 1497 
Q 1191 994 1439 701 
Q 1688 409 2113 409 
Q 2538 409 2786 701 
Q 3034 994 3034 1497 
Q 3034 2003 2786 2293 
Q 2538 2584 2113 2584 
z
M 3366 4563 
L 3366 3988 
Q 3128 4100 2886 4159 
Q 2644 4219 2406 4219 
Q 1781 4219 1451 3797 
Q 1122 3375 1075 2522 
Q 1259 2794 1537 2939 
Q 1816 3084 2150 3084 
Q 2853 3084 3261 2657 
Q 3669 2231 3669 1497 
Q 3669 778 3244 343 
Q 2819 -91 2113 -91 
Q 1303 -91 875 529 
Q 447 1150 447 2328 
Q 447 3434 972 4092 
Q 1497 4750 2381 4750 
Q 2619 4750 2861 4703 
Q 3103 4656 3366 4563 
z
" transform="scale(0.015625)"/>
       </defs>
       <use xlink:href="#DejaVuSans-36"/>
       <use xlink:href="#DejaVuSans-30" x="63.623047"/>
       <use xlink:href="#DejaVuSans-30" x="127.246094"/>
       <use xlink:href="#DejaVuSans-30" x="190.869141"/>
       <use xlink:href="#DejaVuSans-30" x="254.492188"/>
      </g>
     </g>
    </g>
    <g id="ytick_5">
     <g id="line2d_13">
      <g>
       <use xlink:href="#m76adc518ec" x="144" y="191.176742" style="stroke: #000000; stroke-width: 0.8"/>
      </g>
     </g>
     <g id="text_14">
      <!-- 80000 -->
      <g transform="translate(105.1875 194.975961)scale(0.1 -0.1)">
       <defs>
        <path id="DejaVuSans-38" d="M 2034 2216 
Q 1584 2216 1326 1975 
Q 1069 1734 1069 1313 
Q 1069 891 1326 650 
Q 1584 409 2034 409 
Q 2484 409 2743 651 
Q 3003 894 3003 1313 
Q 3003 1734 2745 1975 
Q 2488 2216 2034 2216 
z
M 1403 2484 
Q 997 2584 770 2862 
Q 544 3141 544 3541 
Q 544 4100 942 4425 
Q 1341 4750 2034 4750 
Q 2731 4750 3128 4425 
Q 3525 4100 3525 3541 
Q 3525 3141 3298 2862 
Q 3072 2584 2669 2484 
Q 3125 2378 3379 2068 
Q 3634 1759 3634 1313 
Q 3634 634 3220 271 
Q 2806 -91 2034 -91 
Q 1263 -91 848 271 
Q 434 634 434 1313 
Q 434 1759 690 2068 
Q 947 2378 1403 2484 
z
M 1172 3481 
Q 1172 3119 1398 2916 
Q 1625 2713 2034 2713 
Q 2441 2713 2670 2916 
Q 2900 3119 2900 3481 
Q 2900 3844 2670 4047 
Q 2441 4250 2034 4250 
Q 1625 4250 1398 4047 
Q 1172 3844 1172 3481 
z
" transform="scale(0.015625)"/>
       </defs>
       <use xlink:href="#DejaVuSans-38"/>
       <use xlink:href="#DejaVuSans-30" x="63.623047"/>
       <use xlink:href="#DejaVuSans-30" x="127.246094"/>
       <use xlink:href="#DejaVuSans-30" x="190.869141"/>
       <use xlink:href="#DejaVuSans-30" x="254.492188"/>
      </g>
     </g>
    </g>
    <g id="ytick_6">
     <g id="line2d_14">
      <g>
       <use xlink:href="#m76adc518ec" x="144" y="145.442406" style="stroke: #000000; stroke-width: 0.8"/>
      </g>
     </g>
     <g id="text_15">
      <!-- 100000 -->
      <g transform="translate(98.825 149.241625)scale(0.1 -0.1)">
       <use xlink:href="#DejaVuSans-31"/>
       <use xlink:href="#DejaVuSans-30" x="63.623047"/>
       <use xlink:href="#DejaVuSans-30" x="127.246094"/>
       <use xlink:href="#DejaVuSans-30" x="190.869141"/>
       <use xlink:href="#DejaVuSans-30" x="254.492188"/>
       <use xlink:href="#DejaVuSans-30" x="318.115234"/>
      </g>
     </g>
    </g>
    <g id="ytick_7">
     <g id="line2d_15">
      <g>
       <use xlink:href="#m76adc518ec" x="144" y="99.708071" style="stroke: #000000; stroke-width: 0.8"/>
      </g>
     </g>
     <g id="text_16">
      <!-- 120000 -->
      <g transform="translate(98.825 103.50729)scale(0.1 -0.1)">
       <use xlink:href="#DejaVuSans-31"/>
       <use xlink:href="#DejaVuSans-32" x="63.623047"/>
       <use xlink:href="#DejaVuSans-30" x="127.246094"/>
       <use xlink:href="#DejaVuSans-30" x="190.869141"/>
       <use xlink:href="#DejaVuSans-30" x="254.492188"/>
       <use xlink:href="#DejaVuSans-30" x="318.115234"/>
      </g>
     </g>
    </g>
    <g id="ytick_8">
     <g id="line2d_16">
      <g>
       <use xlink:href="#m76adc518ec" x="144" y="53.973735" style="stroke: #000000; stroke-width: 0.8"/>
      </g>
     </g>
     <g id="text_17">
      <!-- 140000 -->
      <g transform="translate(98.825 57.772954)scale(0.1 -0.1)">
       <use xlink:href="#DejaVuSans-31"/>
       <use xlink:href="#DejaVuSans-34" x="63.623047"/>
       <use xlink:href="#DejaVuSans-30" x="127.246094"/>
       <use xlink:href="#DejaVuSans-30" x="190.869141"/>
       <use xlink:href="#DejaVuSans-30" x="254.492188"/>
       <use xlink:href="#DejaVuSans-30" x="318.115234"/>
      </g>
     </g>
    </g>
    <g id="text_18">
     <!-- Depth of coverage -->
     <g transform="translate(92.745312 264.602187)rotate(-90)scale(0.1 -0.1)">
      <defs>
       <path id="DejaVuSans-44" d="M 1259 4147 
L 1259 519 
L 2022 519 
Q 2988 519 3436 956 
Q 3884 1394 3884 2338 
Q 3884 3275 3436 3711 
Q 2988 4147 2022 4147 
L 1259 4147 
z
M 628 4666 
L 1925 4666 
Q 3281 4666 3915 4102 
Q 4550 3538 4550 2338 
Q 4550 1131 3912 565 
Q 3275 0 1925 0 
L 628 0 
L 628 4666 
z
" transform="scale(0.015625)"/>
       <path id="DejaVuSans-65" d="M 3597 1894 
L 3597 1613 
L 953 1613 
Q 991 1019 1311 708 
Q 1631 397 2203 397 
Q 2534 397 2845 478 
Q 3156 559 3463 722 
L 3463 178 
Q 3153 47 2828 -22 
Q 2503 -91 2169 -91 
Q 1331 -91 842 396 
Q 353 884 353 1716 
Q 353 2575 817 3079 
Q 1281 3584 2069 3584 
Q 2775 3584 3186 3129 
Q 3597 2675 3597 1894 
z
M 3022 2063 
Q 3016 2534 2758 2815 
Q 2500 3097 2075 3097 
Q 1594 3097 1305 2825 
Q 1016 2553 972 2059 
L 3022 2063 
z
" transform="scale(0.015625)"/>
       <path id="DejaVuSans-70" d="M 1159 525 
L 1159 -1331 
L 581 -1331 
L 581 3500 
L 1159 3500 
L 1159 2969 
Q 1341 3281 1617 3432 
Q 1894 3584 2278 3584 
Q 2916 3584 3314 3078 
Q 3713 2572 3713 1747 
Q 3713 922 3314 415 
Q 2916 -91 2278 -91 
Q 1894 -91 1617 61 
Q 1341 213 1159 525 
z
M 3116 1747 
Q 3116 2381 2855 2742 
Q 2594 3103 2138 3103 
Q 1681 3103 1420 2742 
Q 1159 2381 1159 1747 
Q 1159 1113 1420 752 
Q 1681 391 2138 391 
Q 2594 391 2855 752 
Q 3116 1113 3116 1747 
z
" transform="scale(0.015625)"/>
       <path id="DejaVuSans-68" d="M 3513 2113 
L 3513 0 
L 2938 0 
L 2938 2094 
Q 2938 2591 2744 2837 
Q 2550 3084 2163 3084 
Q 1697 3084 1428 2787 
Q 1159 2491 1159 1978 
L 1159 0 
L 581 0 
L 581 4863 
L 1159 4863 
L 1159 2956 
Q 1366 3272 1645 3428 
Q 1925 3584 2291 3584 
Q 2894 3584 3203 3211 
Q 3513 2838 3513 2113 
z
" transform="scale(0.015625)"/>
       <path id="DejaVuSans-20" transform="scale(0.015625)"/>
       <path id="DejaVuSans-66" d="M 2375 4863 
L 2375 4384 
L 1825 4384 
Q 1516 4384 1395 4259 
Q 1275 4134 1275 3809 
L 1275 3500 
L 2222 3500 
L 2222 3053 
L 1275 3053 
L 1275 0 
L 697 0 
L 697 3053 
L 147 3053 
L 147 3500 
L 697 3500 
L 697 3744 
Q 697 4328 969 4595 
Q 1241 4863 1831 4863 
L 2375 4863 
z
" transform="scale(0.015625)"/>
       <path id="DejaVuSans-63" d="M 3122 3366 
L 3122 2828 
Q 2878 2963 2633 3030 
Q 2388 3097 2138 3097 
Q 1578 3097 1268 2742 
Q 959 2388 959 1747 
Q 959 1106 1268 751 
Q 1578 397 2138 397 
Q 2388 397 2633 464 
Q 2878 531 3122 666 
L 3122 134 
Q 2881 22 2623 -34 
Q 2366 -91 2075 -91 
Q 1284 -91 818 406 
Q 353 903 353 1747 
Q 353 2603 823 3093 
Q 1294 3584 2113 3584 
Q 2378 3584 2631 3529 
Q 2884 3475 3122 3366 
z
" transform="scale(0.015625)"/>
       <path id="DejaVuSans-76" d="M 191 3500 
L 800 3500 
L 1894 563 
L 2988 3500 
L 3597 3500 
L 2284 0 
L 1503 0 
L 191 3500 
z
" transform="scale(0.015625)"/>
       <path id="DejaVuSans-72" d="M 2631 2963 
Q 2534 3019 2420 3045 
Q 2306 3072 2169 3072 
Q 1681 3072 1420 2755 
Q 1159 2438 1159 1844 
L 1159 0 
L 581 0 
L 581 3500 
L 1159 3500 
L 1159 2956 
Q 1341 3275 1631 3429 
Q 1922 3584 2338 3584 
Q 2397 3584 2469 3576 
Q 2541 3569 2628 3553 
L 2631 2963 
z
" transform="scale(0.015625)"/>
       <path id="DejaVuSans-61" d="M 2194 1759 
Q 1497 1759 1228 1600 
Q 959 1441 959 1056 
Q 959 750 1161 570 
Q 1363 391 1709 391 
Q 2188 391 2477 730 
Q 2766 1069 2766 1631 
L 2766 1759 
L 2194 1759 
z
M 3341 1997 
L 3341 0 
L 2766 0 
L 2766 531 
Q 2569 213 2275 61 
Q 1981 -91 1556 -91 
Q 1019 -91 701 211 
Q 384 513 384 1019 
Q 384 1609 779 1909 
Q 1175 2209 1959 2209 
L 2766 2209 
L 2766 2266 
Q 2766 2663 2505 2880 
Q 2244 3097 1772 3097 
Q 1472 3097 1187 3025 
Q 903 2953 641 2809 
L 641 3341 
Q 956 3463 1253 3523 
Q 1550 3584 1831 3584 
Q 2591 3584 2966 3190 
Q 3341 2797 3341 1997 
z
" transform="scale(0.015625)"/>
       <path id="DejaVuSans-67" d="M 2906 1791 
Q 2906 2416 2648 2759 
Q 2391 3103 1925 3103 
Q 1463 3103 1205 2759 
Q 947 2416 947 1791 
Q 947 1169 1205 825 
Q 1463 481 1925 481 
Q 2391 481 2648 825 
Q 2906 1169 2906 1791 
z
M 3481 434 
Q 3481 -459 3084 -895 
Q 2688 -1331 1869 -1331 
Q 1566 -1331 1297 -1286 
Q 1028 -1241 775 -1147 
L 775 -588 
Q 1028 -725 1275 -790 
Q 1522 -856 1778 -856 
Q 2344 -856 2625 -561 
Q 2906 -266 2906 331 
L 2906 616 
Q 2728 306 2450 153 
Q 2172 0 1784 0 
Q 1141 0 747 490 
Q 353 981 353 1791 
Q 353 2603 747 3093 
Q 1141 3584 1784 3584 
Q 2172 3584 2450 3431 
Q 2728 3278 2906 2969 
L 2906 3500 
L 3481 3500 
L 3481 434 
z
" transform="scale(0.015625)"/>
      </defs>
      <use xlink:href="#DejaVuSans-44"/>
      <use xlink:href="#DejaVuSans-65" x="77.001953"/>
      <use xlink:href="#DejaVuSans-70" x="138.525391"/>
      <use xlink:href="#DejaVuSans-74" x="202.001953"/>
      <use xlink:href="#DejaVuSans-68" x="241.210938"/>
      <use xlink:href="#DejaVuSans-20" x="304.589844"/>
      <use xlink:href="#DejaVuSans-6f" x="336.376953"/>
      <use xlink:href="#DejaVuSans-66" x="397.558594"/>
      <use xlink:href="#DejaVuSans-20" x="432.763672"/>
      <use xlink:href="#DejaVuSans-63" x="464.550781"/>
      <use xlink:href="#DejaVuSans-6f" x="519.53125"/>
      <use xlink:href="#DejaVuSans-76" x="580.712891"/>
      <use xlink:href="#DejaVuSans-65" x="639.892578"/>
      <use xlink:href="#DejaVuSans-72" x="701.416016"/>
      <use xlink:href="#DejaVuSans-61" x="742.529297"/>
      <use xlink:href="#DejaVuSans-67" x="803.808594"/>
      <use xlink:href="#DejaVuSans-65" x="867.285156"/>
     </g>
    </g>
   </g>
   <g id="line2d_17">
    <path d="M 184.581818 348.903032 
L 185.039078 336.815447 
L 185.496338 334.686514 
L 185.953598 334.489856 
L 186.410858 329.129792 
L 186.868118 327.042019 
L 187.325378 326.47034 
L 187.782638 326.125046 
L 188.697157 325.274387 
L 189.611677 321.821445 
L 190.068937 315.907995 
L 190.526197 313.82937 
L 190.983457 313.570971 
L 191.440717 313.520663 
L 192.355237 313.093047 
L 192.812497 311.512926 
L 193.269757 311.407737 
L 193.727017 310.561652 
L 194.184277 310.536498 
L 194.641536 306.200883 
L 195.098796 305.915043 
L 196.927836 305.61777 
L 200.585915 305.759546 
L 201.043175 308.174319 
L 201.957695 308.094284 
L 206.987554 308.105718 
L 207.444814 307.824452 
L 212.017414 307.732983 
L 212.474673 286.919287 
L 212.931933 284.776633 
L 213.389193 283.329141 
L 213.846453 282.851218 
L 214.303713 282.569951 
L 214.760973 278.940932 
L 215.218233 277.008656 
L 216.132753 276.709096 
L 217.047273 275.927039 
L 217.961793 275.730382 
L 218.876312 274.980338 
L 219.333572 274.397226 
L 219.790832 272.805671 
L 220.248092 272.61816 
L 221.162612 271.861257 
L 221.619872 265.401282 
L 222.077132 265.115442 
L 222.534392 264.349392 
L 222.991652 259.032776 
L 223.906172 255.904547 
L 224.363431 255.650722 
L 225.277951 255.40833 
L 225.735211 254.726888 
L 226.192471 249.323376 
L 227.106991 246.7714 
L 227.564251 246.531295 
L 228.021511 245.376503 
L 228.478771 245.280461 
L 229.393291 243.044052 
L 229.850551 242.813094 
L 230.30781 242.319163 
L 231.22233 238.799906 
L 231.67959 237.914946 
L 232.59411 238.10017 
L 233.05137 237.830338 
L 233.96589 236.462881 
L 234.42315 233.579331 
L 234.88041 232.584609 
L 235.33767 232.596043 
L 235.79493 232.095252 
L 236.25219 231.910028 
L 236.709449 231.896308 
L 237.166709 229.232283 
L 238.081229 228.514254 
L 238.995749 228.381624 
L 239.453009 224.716017 
L 239.910269 223.93396 
L 240.824789 220.814878 
L 241.282049 220.76457 
L 241.739309 219.028952 
L 242.196569 218.324644 
L 242.653828 218.283483 
L 243.111088 213.73749 
L 243.568348 213.920427 
L 244.025608 212.584984 
L 244.482868 211.79378 
L 244.940128 211.368451 
L 245.397388 206.902493 
L 245.854648 207.039696 
L 246.311908 206.61894 
L 246.769168 205.160015 
L 247.226428 205.237763 
L 247.683688 204.199594 
L 248.598207 204.304783 
L 249.055467 202.50971 
L 249.512727 201.478401 
L 249.969987 199.994322 
L 250.427247 199.532405 
L 250.884507 199.658175 
L 251.341767 198.727481 
L 251.799027 200.280162 
L 252.256287 201.25659 
L 252.713547 227.377755 
L 253.170807 226.042313 
L 253.628067 223.549791 
L 254.085327 222.127454 
L 254.999846 220.979522 
L 255.457106 221.743285 
L 255.914366 221.345396 
L 256.828886 222.893504 
L 257.286146 220.487878 
L 257.743406 213.497384 
L 258.200666 212.011019 
L 258.657926 213.181818 
L 259.572446 211.286129 
L 260.486965 208.766167 
L 260.944225 202.770396 
L 261.401485 202.500564 
L 261.858745 198.750348 
L 262.773265 197.60699 
L 263.230525 205.422988 
L 263.687785 205.713401 
L 264.145045 204.037237 
L 264.602305 203.598188 
L 265.059565 202.674354 
L 265.516825 203.193439 
L 265.974085 202.660634 
L 266.431344 202.946473 
L 266.888604 202.779543 
L 267.345864 202.098101 
L 267.803124 202.02264 
L 268.260384 201.656765 
L 268.717644 202.0295 
L 269.174904 202.05694 
L 269.632164 202.715515 
L 270.089424 202.665207 
L 270.546684 200.323609 
L 271.003944 200.243574 
L 271.461204 199.532405 
L 271.918464 200.412791 
L 272.375723 199.770224 
L 272.832983 199.470664 
L 273.290243 200.591155 
L 273.747503 199.779371 
L 274.204763 201.126247 
L 274.662023 200.865561 
L 275.119283 200.174973 
L 276.033803 200.122378 
L 276.491063 197.657297 
L 276.948323 196.484212 
L 277.405583 193.51834 
L 277.862843 193.397144 
L 278.320102 193.733291 
L 278.777362 193.266801 
L 279.234622 190.383251 
L 279.691882 191.256777 
L 280.149142 194.048858 
L 280.606402 193.781312 
L 281.063662 193.682984 
L 281.520922 191.942792 
L 281.978182 194.494768 
L 282.435442 194.218075 
L 282.892702 194.266096 
L 283.349962 194.984125 
L 283.807222 197.828801 
L 284.264481 199.404349 
L 284.721741 198.581131 
L 285.179001 198.471369 
L 285.636261 198.919565 
L 286.093521 199.187111 
L 286.550781 197.547535 
L 287.008041 197.360024 
L 287.465301 195.798197 
L 287.922561 195.068734 
L 288.379821 193.278235 
L 288.837081 194.57023 
L 289.294341 194.659412 
L 289.751601 195.023 
L 290.20886 194.380432 
L 290.66612 198.757208 
L 291.12338 199.001887 
L 291.58064 198.478229 
L 292.0379 201.320618 
L 292.49516 200.488253 
L 292.95242 199.13223 
L 293.40968 199.001887 
L 294.3242 193.328543 
L 294.78146 195.194503 
L 295.23872 194.115173 
L 296.153239 190.156866 
L 296.610499 188.569885 
L 297.067759 189.518872 
L 297.525019 189.198732 
L 297.982279 190.348951 
L 298.439539 190.938923 
L 298.896799 189.473138 
L 299.354059 191.40084 
L 299.811319 189.996796 
L 300.268579 186.989764 
L 300.725839 187.796975 
L 301.183099 187.062939 
L 301.640359 189.013508 
L 302.554878 189.226173 
L 303.469398 189.592047 
L 303.926658 188.50357 
L 304.383918 188.485276 
L 304.841178 187.920457 
L 305.298438 187.88387 
L 305.755698 187.43796 
L 306.212958 189.54174 
L 306.670218 192.665395 
L 307.127478 190.140859 
L 307.584738 190.069971 
L 308.041997 190.461 
L 308.499257 192.967241 
L 308.956517 192.052555 
L 309.871037 189.258187 
L 310.328297 188.837431 
L 310.785557 190.136286 
L 311.242817 189.978502 
L 311.700077 189.54174 
L 312.157337 193.168472 
L 312.614597 192.349828 
L 313.071857 193.026696 
L 313.529117 194.279817 
L 313.986376 194.533642 
L 314.443636 195.759322 
L 314.900896 196.644282 
L 315.358156 196.86152 
L 315.815416 220.030534 
L 316.272676 220.163164 
L 316.729936 221.162459 
L 317.187196 221.272222 
L 317.644456 220.90406 
L 318.101716 209.191497 
L 318.558976 205.798009 
L 319.473496 204.796427 
L 319.930755 204.784994 
L 320.388015 204.368811 
L 321.302535 202.420528 
L 322.217055 202.091241 
L 322.674315 201.318331 
L 323.131575 191.789582 
L 323.588835 188.903746 
L 324.046095 190.209461 
L 324.503355 190.461 
L 324.960615 189.777271 
L 325.417875 181.092321 
L 325.875134 184.309732 
L 326.332394 184.494956 
L 326.789654 190.056251 
L 327.246914 199.649028 
L 327.704174 199.770224 
L 328.161434 200.732931 
L 328.618694 217.654636 
L 329.075954 218.729392 
L 329.533214 225.381452 
L 329.990474 226.174942 
L 330.447734 227.844246 
L 330.904994 227.844246 
L 331.362254 225.992005 
L 331.819513 225.831935 
L 332.276773 224.459905 
L 332.734033 224.324988 
L 333.191293 194.149474 
L 333.648553 193.227927 
L 334.105813 193.008402 
L 334.563073 191.634085 
L 335.020333 191.54719 
L 335.477593 191.341386 
L 335.934853 190.239188 
L 336.392113 187.26417 
L 336.849373 186.795393 
L 337.306633 185.615447 
L 337.763892 185.400495 
L 338.221152 183.616856 
L 338.678412 184.325739 
L 339.135672 179.128031 
L 340.050192 182.791352 
L 340.507452 183.511667 
L 340.964712 183.623717 
L 341.421972 183.886689 
L 341.879232 183.895836 
L 342.336492 184.037612 
L 342.793752 184.744208 
L 343.251012 185.050628 
L 343.708271 186.294602 
L 344.165531 186.813686 
L 344.622791 187.072085 
L 345.080051 190.033384 
L 345.537311 190.17516 
L 345.994571 191.901631 
L 346.451831 212.303718 
L 346.909091 213.094922 
L 347.366351 215.667479 
L 351.93895 215.662905 
L 352.39621 193.570934 
L 353.31073 192.192044 
L 354.22525 191.428281 
L 355.13977 191.423707 
L 356.054289 188.531011 
L 356.511549 188.928899 
L 356.968809 185.322747 
L 357.426069 184.938579 
L 357.883329 183.77464 
L 358.340589 183.04289 
L 358.797849 183.00859 
L 359.255109 182.235679 
L 360.169629 183.038317 
L 360.626889 181.776049 
L 361.084149 181.931546 
L 361.541408 179.214927 
L 361.998668 180.676139 
L 362.455928 180.945971 
L 362.913188 181.499357 
L 363.370448 185.194691 
L 363.827708 185.45995 
L 364.284968 190.884042 
L 364.742228 194.675419 
L 365.656748 198.940145 
L 366.114008 193.163899 
L 366.571268 193.552641 
L 367.028528 196.298988 
L 367.485787 196.397316 
L 367.943047 197.858528 
L 368.400307 198.185529 
L 368.857567 198.68632 
L 369.314827 203.838293 
L 369.772087 204.229321 
L 370.229347 204.942777 
L 371.143867 205.640226 
L 372.058387 206.573206 
L 372.515647 206.886486 
L 372.972907 208.864496 
L 373.430166 209.411022 
L 373.887426 223.840204 
L 374.344686 223.867645 
L 374.801946 224.741171 
L 375.259206 224.958409 
L 378.460026 224.972129 
L 378.917286 225.095612 
L 379.374545 225.825075 
L 380.289065 226.133781 
L 380.746325 226.904405 
L 381.203585 227.217685 
L 381.660845 228.21698 
L 382.118105 319.301483 
L 382.575365 320.191016 
L 383.032625 320.277911 
L 383.947145 320.202449 
L 388.062484 320.197876 
L 388.519744 316.7335 
L 388.977004 315.994891 
L 393.092343 316.010898 
L 393.549603 315.343176 
L 395.378643 315.240274 
L 395.835903 314.76921 
L 396.293163 212.500376 
L 396.750423 211.379885 
L 397.207682 209.786043 
L 397.664942 209.431602 
L 398.122202 207.332396 
L 399.036722 206.27822 
L 399.493982 205.573911 
L 399.951242 204.195021 
L 400.408502 204.190447 
L 400.865762 202.562305 
L 401.323022 202.399948 
L 401.780282 201.453247 
L 402.694802 201.455534 
L 403.152061 199.585 
L 403.609321 194.993272 
L 404.066581 192.434436 
L 404.523841 192.436723 
L 404.981101 192.173751 
L 405.438361 191.739274 
L 405.895621 187.810695 
L 406.352881 187.680352 
L 409.5537 187.721513 
L 410.01096 202.717802 
L 410.46822 202.681214 
L 410.92548 201.496695 
L 411.38274 173.603324 
L 411.84 173.395232 
L 412.29726 172.899015 
L 413.21178 170.031472 
L 414.58356 169.194534 
L 415.040819 166.336138 
L 415.955339 162.064551 
L 416.412599 161.502018 
L 416.869859 161.465431 
L 417.327119 159.043798 
L 417.784379 158.449252 
L 418.698899 156.173968 
L 419.156159 155.481093 
L 419.613419 154.150224 
L 420.070679 153.884965 
L 420.527939 155.769219 
L 420.985198 155.186107 
L 421.442458 155.167813 
L 421.899718 155.421639 
L 422.356978 152.947411 
L 423.271498 151.877228 
L 424.186018 152.263683 
L 424.643278 152.757613 
L 425.100538 152.979425 
L 425.557798 153.473356 
L 426.015058 153.04574 
L 426.472318 151.579954 
L 426.929577 151.671423 
L 427.386837 152.30713 
L 427.844097 152.46034 
L 428.301357 155.4971 
L 428.758617 155.769219 
L 429.215877 161.106416 
L 429.673137 162.661384 
L 430.130397 163.729281 
L 430.587657 163.912218 
L 431.044917 152.718739 
L 431.502177 150.644687 
L 431.959437 152.115046 
L 432.416697 152.30713 
L 432.873956 153.937559 
L 433.331216 153.766056 
L 433.788476 153.95814 
L 434.245736 157.937027 
L 434.702996 157.9073 
L 435.160256 161.289354 
L 435.617516 162.999818 
L 436.532036 159.448547 
L 436.989296 160.848017 
L 437.446556 160.271765 
L 437.903816 160.82515 
L 438.361076 162.542475 
L 438.818335 162.704831 
L 439.275595 164.207204 
L 439.732855 164.403862 
L 440.190115 166.221802 
L 440.647375 188.096535 
L 441.104635 187.351065 
L 441.561895 187.819842 
L 442.019155 186.077364 
L 442.476415 178.030407 
L 442.933675 177.68054 
L 443.390935 175.976936 
L 443.848195 164.14775 
L 445.219974 163.484602 
L 445.677234 166.60597 
L 446.134494 166.192075 
L 446.591754 167.662433 
L 447.049014 167.543524 
L 447.506274 167.088468 
L 447.963534 174.79699 
L 448.420794 174.879312 
L 448.878054 175.606488 
L 449.335314 175.990656 
L 449.792574 175.71625 
L 450.249834 175.151431 
L 450.707093 175.995229 
L 451.164353 169.78222 
L 451.621613 167.342293 
L 452.078873 167.163929 
L 452.993393 167.911686 
L 453.450653 165.682137 
L 454.365173 155.423925 
L 454.822433 155.487953 
L 455.279693 155.812667 
L 456.194213 155.991031 
L 456.651472 157.536852 
L 458.023252 165.51978 
L 458.480512 174.236744 
L 458.937772 174.520297 
L 459.395032 175.821439 
L 460.309552 176.100418 
L 460.766812 177.575351 
L 461.681332 181.099181 
L 462.138592 184.556697 
L 462.595851 185.711489 
L 463.053111 352.415429 
L 463.967631 353.218066 
L 464.424891 354.409446 
L 465.339411 354.425453 
L 465.796671 354.864502 
L 466.253931 355.946119 
L 471.28379 355.98728 
L 471.74105 355.690007 
L 472.19831 355.65342 
L 472.65557 310.794897 
L 473.57009 300.783651 
L 474.02735 297.214086 
L 474.484609 296.896232 
L 474.941869 295.746014 
L 475.399129 292.862464 
L 475.856389 292.213036 
L 477.685429 292.208463 
L 478.142689 290.502572 
L 478.599949 273.459672 
L 479.057209 273.388784 
L 479.514469 272.245425 
L 479.971729 272.009893 
L 480.428988 265.652821 
L 480.886248 264.909638 
L 481.800768 264.847896 
L 482.258028 262.776131 
L 482.715288 262.536026 
L 483.172548 259.540427 
L 489.116927 259.499266 
L 495.975826 259.508413 
L 496.433086 258.909293 
L 496.890346 256.695751 
L 498.719385 256.677457 
L 499.176645 254.573678 
L 499.633905 192.427576 
L 500.091165 188.741389 
L 500.548425 187.396799 
L 501.005685 183.088625 
L 501.462945 180.948258 
L 502.377465 180.728733 
L 502.834725 180.314837 
L 503.291985 180.241662 
L 503.749245 178.819325 
L 504.206504 176.733839 
L 505.121024 176.19646 
L 505.578284 176.02267 
L 506.492804 172.025489 
L 506.950064 171.129096 
L 507.407324 169.212827 
L 507.864584 168.316434 
L 508.779104 164.785744 
L 510.150883 163.544057 
L 510.608143 162.851181 
L 511.065403 162.604216 
L 511.522663 163.292518 
L 511.979923 165.133325 
L 512.437183 164.648541 
L 512.894443 160.95778 
L 513.808963 160.422688 
L 514.266223 160.413541 
L 514.723483 160.923479 
L 515.180743 149.988399 
L 515.638003 150.095875 
L 516.095262 148.700978 
L 516.552522 149.078286 
L 517.009782 153.336153 
L 517.467042 152.188221 
L 517.924302 153.308712 
L 518.381562 151.744598 
L 518.838822 149.526483 
L 519.296082 149.430441 
L 519.753342 147.200892 
L 520.210602 147.374682 
L 520.667862 145.840295 
L 521.125122 145.428686 
L 522.039641 145.540735 
L 522.496901 145.787701 
L 522.954161 145.88603 
L 523.411421 146.37996 
L 523.868681 188.448689 
L 525.697721 188.478416 
L 526.154981 188.704801 
L 527.526761 188.709375 
L 527.98402 186.786246 
L 528.89854 186.777099 
L 529.3558 184.245703 
L 529.81306 182.70903 
L 530.27032 182.315715 
L 530.72758 154.383469 
L 531.18484 153.654006 
L 531.6421 150.416015 
L 532.09936 149.826043 
L 532.55662 149.590511 
L 533.01388 148.920503 
L 533.47114 148.723845 
L 533.928399 148.312236 
L 534.385659 148.211621 
L 534.842919 144.728951 
L 535.300179 144.447685 
L 535.757439 146.613205 
L 536.671959 136.901519 
L 537.129219 136.709435 
L 537.586479 132.543037 
L 538.043739 132.584198 
L 538.500999 131.953064 
L 538.958259 127.814107 
L 539.415519 128.27831 
L 539.872778 129.391941 
L 540.330038 130.066523 
L 540.787298 134.697124 
L 541.244558 133.027821 
L 541.701818 133.59264 
L 542.159078 138.179794 
L 542.616338 137.86194 
L 543.073598 142.204416 
L 543.530858 139.876538 
L 543.988118 144.513999 
L 544.445378 144.427104 
L 544.902638 141.721918 
L 545.359898 142.691486 
L 545.817157 139.051033 
L 546.274417 137.333709 
L 546.731677 139.572405 
L 547.188937 136.377861 
L 547.646197 138.312424 
L 548.103457 137.850507 
L 549.017977 137.54866 
L 549.475237 141.95745 
L 549.932497 142.865277 
L 550.389757 142.837836 
L 550.847017 142.245576 
L 551.304277 144.358503 
L 551.761536 142.680053 
L 552.218796 142.044345 
L 552.676056 143.887439 
L 553.133316 139.755342 
L 553.590576 140.016028 
L 554.047836 139.677594 
L 554.505096 140.41849 
L 554.962356 140.770644 
L 555.419616 134.141452 
L 555.876876 139.05332 
L 556.791396 143.31576 
L 557.248656 143.763956 
L 557.705915 146.528597 
L 558.163175 147.107136 
L 558.620435 144.269321 
L 559.077695 142.446808 
L 559.534955 137.557807 
L 559.992215 137.038722 
L 560.449475 136.711722 
L 560.906735 134.827467 
L 561.363995 134.868628 
L 561.821255 133.960802 
L 562.278515 131.47514 
L 562.735775 127.288162 
L 563.193035 124.90769 
L 563.650294 132.856317 
L 564.107554 136.419022 
L 564.564814 138.303277 
L 565.022074 139.66616 
L 565.936594 139.544964 
L 566.393854 142.597731 
L 566.851114 144.539153 
L 567.308374 144.763252 
L 568.222894 141.067917 
L 568.680154 141.79738 
L 569.137414 143.793684 
L 569.594673 144.806699 
L 570.051933 147.928068 
L 570.509193 148.870195 
L 571.423713 148.421998 
L 571.880973 147.88462 
L 572.338233 148.264215 
L 572.795493 147.415843 
L 573.252753 146.821297 
L 573.710013 146.789283 
L 574.167273 147.086556 
L 574.624533 147.637655 
L 575.081793 149.359552 
L 575.539052 150.340554 
L 575.996312 150.962541 
L 576.453572 152.028151 
L 576.910832 149.901504 
L 577.368092 151.742311 
L 577.825352 149.597371 
L 578.739872 146.750408 
L 579.197132 146.716108 
L 579.654392 147.324374 
L 580.111652 142.327898 
L 580.568912 142.446808 
L 581.026172 147.642228 
L 581.483431 147.788578 
L 581.940691 150.084442 
L 582.397951 149.992973 
L 582.855211 150.226218 
L 583.312471 149.768875 
L 583.769731 148.440292 
L 584.226991 159.638344 
L 584.684251 157.950747 
L 585.141511 158.8197 
L 585.598771 157.989621 
L 586.056031 158.465259 
L 586.513291 159.567456 
L 586.970551 158.05365 
L 587.42781 157.166403 
L 587.88507 155.01689 
L 588.79959 148.751286 
L 589.25685 148.129299 
L 589.71411 147.907487 
L 590.17137 148.316809 
L 590.62863 149.133167 
L 591.08589 151.845213 
L 591.54315 152.053305 
L 592.00041 159.373085 
L 592.45767 163.839043 
L 593.37219 154.758491 
L 593.829449 152.27283 
L 594.286709 152.030438 
L 594.743969 151.332989 
L 595.201229 152.112759 
L 595.658489 152.419179 
L 596.115749 154.671595 
L 596.573009 154.86368 
L 597.030269 155.817241 
L 597.487529 162.18346 
L 597.944789 162.95637 
L 598.402049 200.655183 
L 598.859309 200.879281 
L 599.316569 198.487376 
L 599.773828 197.824228 
L 600.231088 197.636717 
L 600.688348 197.636717 
L 601.145608 198.290718 
L 601.602868 198.318159 
L 602.060128 195.446042 
L 602.517388 189.71553 
L 602.974648 189.692663 
L 603.431908 185.448517 
L 603.889168 183.552828 
L 604.346428 183.170947 
L 605.260948 183.020023 
L 605.718207 183.031457 
L 606.175467 182.926268 
L 606.632727 182.560393 
L 607.089987 181.631986 
L 608.004507 164.78803 
L 608.461767 164.385568 
L 608.919027 163.111867 
L 609.376287 163.07528 
L 609.833547 160.95092 
L 610.290807 160.200877 
L 610.748067 158.286895 
L 611.205327 157.875286 
L 611.662586 156.800529 
L 612.119846 151.236947 
L 612.577106 150.676701 
L 613.034366 151.198073 
L 613.491626 151.024282 
L 613.948886 153.619706 
L 614.406146 153.404754 
L 615.320666 158.961476 
L 615.777926 143.809691 
L 616.235186 146.347946 
L 616.692446 145.911183 
L 617.149706 146.485149 
L 617.606965 146.325079 
L 618.064225 143.048214 
L 618.521485 143.526138 
L 618.978745 142.851556 
L 619.436005 142.616025 
L 619.893265 143.864572 
L 620.350525 133.844179 
L 620.807785 135.021838 
L 621.265045 134.356404 
L 621.722305 134.1849 
L 622.179565 137.811633 
L 622.636825 137.967129 
L 623.094085 138.932124 
L 623.551344 134.841188 
L 624.008604 135.476895 
L 624.465864 141.767653 
L 624.923124 143.837131 
L 625.837644 142.718927 
L 626.294904 141.20512 
L 627.209424 136.094308 
L 627.666684 139.0739 
L 628.123944 140.734057 
L 628.581204 146.37996 
L 629.038464 157.214424 
L 629.495723 157.77467 
L 630.410243 160.139135 
L 630.867503 154.625861 
L 631.324763 153.409328 
L 631.782023 151.874941 
L 632.239283 153.141782 
L 632.696543 150.230791 
L 633.153803 148.668964 
L 633.611063 145.801421 
L 634.068323 145.524728 
L 634.525583 144.40195 
L 634.982843 143.786824 
L 635.440102 143.811977 
L 635.897362 141.303449 
L 636.354622 140.722623 
L 636.811882 143.018487 
L 637.269142 146.338799 
L 638.640922 146.126135 
L 639.098182 144.690077 
L 639.555442 143.805117 
L 640.012702 144.193859 
L 640.927222 145.556742 
L 641.384481 145.019364 
L 641.841741 140.667742 
L 642.299001 141.109078 
L 642.756261 140.775218 
L 643.213521 139.105914 
L 643.670781 139.535817 
L 644.128041 143.123676 
L 644.585301 143.222005 
L 645.042561 142.728074 
L 645.499821 144.321915 
L 645.957081 136.537931 
L 646.414341 134.715418 
L 646.871601 134.900642 
L 647.32886 136.595099 
L 647.78612 136.137756 
L 648.24338 135.88393 
L 648.70064 136.281819 
L 649.1579 137.530366 
L 649.61516 137.665283 
L 650.07242 139.256838 
L 650.52968 139.668447 
L 650.98694 141.113652 
L 651.4442 140.528252 
L 651.90146 141.573282 
L 652.35872 141.369764 
L 652.81598 141.79052 
L 653.273239 143.112242 
L 653.730499 140.992456 
L 654.187759 141.134232 
L 654.645019 139.803363 
L 655.102279 137.887094 
L 655.559539 138.60741 
L 656.016799 140.468798 
L 656.474059 143.62218 
L 656.931319 149.169755 
L 657.845839 153.557964 
L 658.760359 158.920315 
L 659.217618 159.508001 
L 659.674878 159.558309 
L 660.132138 160.992081 
L 660.589398 161.145291 
L 661.503918 161.819872 
L 661.961178 165.028136 
L 662.418438 167.234817 
L 662.875698 176.141579 
L 663.332958 180.811055 
L 663.790218 182.343155 
L 664.247478 177.602791 
L 664.704738 174.34422 
L 665.161997 160.81143 
L 665.619257 159.025504 
L 666.076517 157.932454 
L 666.533777 157.731222 
L 667.448297 156.747934 
L 667.905557 157.326474 
L 668.362817 155.712052 
L 668.820077 155.577135 
L 669.734597 157.980475 
L 670.191857 160.523304 
L 671.106376 160.889178 
L 671.563636 162.366397 
L 672.020896 161.57748 
L 672.478156 162.464726 
L 672.935416 154.943715 
L 673.392676 153.953566 
L 674.307196 153.974147 
L 674.764456 154.671595 
L 675.221716 154.829379 
L 675.678976 156.807389 
L 676.136236 156.791382 
L 676.593496 156.187689 
L 677.050755 162.947223 
L 677.508015 157.763236 
L 677.965275 157.388215 
L 678.422535 157.735796 
L 678.879795 158.828847 
L 679.337055 162.576775 
L 679.794315 164.0014 
L 680.251575 160.937199 
L 680.708835 151.842927 
L 681.166095 155.128939 
L 681.623355 155.613723 
L 682.080615 155.364471 
L 682.537875 154.815659 
L 682.995134 153.79807 
L 683.909654 154.808798 
L 684.366914 154.376609 
L 684.824174 170.440794 
L 685.281434 169.864542 
L 685.738694 170.292158 
L 686.195954 169.585562 
L 686.653214 169.434639 
L 687.110474 171.46753 
L 687.567734 171.609307 
L 688.482254 171.181691 
L 688.939513 171.364628 
L 689.396773 180.575523 
L 689.854033 182.990296 
L 690.311293 184.131368 
L 691.225813 183.310436 
L 691.683073 175.073682 
L 692.140333 174.989074 
L 692.597593 178.158463 
L 693.054853 177.545623 
L 693.512113 176.557762 
L 694.426633 172.926455 
L 694.883892 174.666647 
L 695.341152 175.553893 
L 695.798412 172.848707 
L 696.255672 171.762517 
L 696.712932 171.801391 
L 697.170192 171.46067 
L 698.084712 175.789425 
L 698.541972 174.339646 
L 698.999232 171.735076 
L 699.913752 165.524353 
L 700.371012 165.000695 
L 700.828271 162.192607 
L 701.285531 162.041684 
L 701.742791 165.707291 
L 702.200051 164.961821 
L 702.657311 167.340006 
L 703.571831 164.323827 
L 704.029091 164.527345 
L 704.486351 166.267536 
L 705.400871 171.245719 
L 705.858131 171.568146 
L 706.77265 161.799292 
L 707.22991 160.404394 
L 707.68717 161.335088 
L 708.14443 160.699381 
L 708.60169 162.540188 
L 709.05895 158.428671 
L 709.51621 155.549695 
L 709.97347 156.510116 
L 710.43073 156.825683 
L 710.88799 162.899202 
L 711.34525 160.36552 
L 711.80251 160.390674 
L 712.25977 161.488298 
L 712.717029 163.605798 
L 713.174289 167.891105 
L 713.631549 166.820922 
L 714.088809 164.337547 
L 714.546069 163.283371 
L 715.003329 163.123301 
L 715.460589 164.424442 
L 715.917849 166.162347 
L 716.375109 166.041151 
L 716.832369 167.593832 
L 717.289629 167.486356 
L 717.746889 166.525935 
L 718.204149 169.130506 
L 718.661408 168.126637 
L 719.118668 168.522239 
L 719.575928 168.599987 
L 720.033188 167.442909 
L 720.490448 165.554081 
L 720.947708 164.589086 
L 721.404968 165.023562 
L 721.862228 165.755312 
L 722.319488 166.230949 
L 722.776748 167.150209 
L 723.234008 167.63728 
L 723.691268 169.128219 
L 724.605787 170.445368 
L 725.063047 173.873156 
L 725.520307 169.553548 
L 725.977567 170.770082 
L 726.434827 170.278437 
L 726.892087 167.0313 
L 727.349347 167.029013 
L 727.806607 167.580112 
L 728.263867 167.952846 
L 728.721127 168.792072 
L 729.635647 166.928397 
L 730.092907 164.024267 
L 730.550166 164.024267 
L 731.007426 163.068419 
L 731.464686 159.059805 
L 732.379206 159.229022 
L 732.836466 155.346177 
L 733.293726 155.965877 
L 733.750986 158.149692 
L 734.208246 157.413369 
L 734.665506 158.794546 
L 735.122766 157.497977 
L 736.037286 156.247143 
L 736.494545 155.910996 
L 736.951805 152.803348 
L 737.409065 152.343718 
L 737.866325 151.305548 
L 738.323585 152.060165 
L 738.780845 151.426744 
L 739.238105 153.329293 
L 739.695365 153.827797 
L 740.152625 153.916979 
L 740.609885 153.878105 
L 741.067145 158.334916 
L 741.524405 165.652409 
L 741.981665 165.554081 
L 742.438924 165.661556 
L 742.896184 166.903243 
L 743.353444 166.686005 
L 743.810704 167.394888 
L 744.267964 168.439917 
L 744.725224 164.177477 
L 745.182484 164.111162 
L 746.097004 163.770441 
L 746.554264 163.578357 
L 747.011524 163.198762 
L 747.468784 162.537901 
L 747.926044 161.225326 
L 748.383303 161.106416 
L 748.840563 161.687242 
L 749.297823 166.164634 
L 749.755083 173.463834 
L 750.212343 172.164979 
L 751.126863 172.768672 
L 751.584123 168.851526 
L 752.041383 169.31573 
L 752.498643 167.948273 
L 752.955903 168.346162 
L 753.413163 168.357595 
L 753.870423 170.138948 
L 754.327682 168.833232 
L 754.784942 169.862255 
L 755.242202 164.225498 
L 755.699462 163.239923 
L 756.156722 163.468595 
L 756.613982 164.298673 
L 757.071242 164.458743 
L 757.528502 165.759885 
L 757.985762 165.410017 
L 758.443022 166.500781 
L 758.900282 171.135956 
L 759.357542 179.413871 
L 759.814802 174.014933 
L 760.272061 173.210008 
L 760.729321 173.141407 
L 761.186581 169.951437 
L 761.643841 169.587849 
L 762.101101 169.841675 
L 762.558361 174.984501 
L 763.015621 176.619503 
L 763.472881 176.148439 
L 763.930141 173.374652 
L 764.387401 182.10305 
L 764.844661 179.141752 
L 765.301921 179.464179 
L 765.759181 178.576933 
L 766.21644 177.426714 
L 767.13096 176.775 
L 767.58822 178.396282 
L 768.04548 181.250105 
L 768.50274 178.954241 
L 768.96 184.058193 
L 769.41726 184.68704 
L 769.87452 184.755641 
L 770.33178 186.948603 
L 770.78904 187.179561 
L 771.2463 188.144556 
L 771.70356 188.059947 
L 772.160819 192.914647 
L 772.618079 194.364425 
L 773.075339 192.720276 
L 773.532599 195.576385 
L 774.447119 191.608932 
L 775.361639 191.746135 
L 775.818899 196.779198 
L 776.276159 196.8478 
L 776.733419 189.493718 
L 777.190679 185.857839 
L 777.647939 185.695482 
L 778.105198 191.510603 
L 778.562458 191.695827 
L 779.019718 192.914647 
L 779.476978 190.76056 
L 779.934238 190.904623 
L 780.391498 192.413856 
L 780.848758 192.697409 
L 781.306018 192.201191 
L 781.763278 189.054669 
L 782.677798 189.601194 
L 783.135058 190.230041 
L 783.592318 191.167595 
L 784.049577 190.916056 
L 784.506837 189.537166 
L 784.964097 189.290201 
L 785.421357 189.841299 
L 785.878617 189.637782 
L 786.335877 188.325206 
L 786.793137 190.234615 
L 787.250397 190.207174 
L 788.164917 190.829161 
L 788.622177 192.272079 
L 789.079437 191.608932 
L 789.536697 191.261351 
L 789.993956 192.171464 
L 790.451216 188.142269 
L 790.908476 188.702514 
L 791.365736 187.026351 
L 792.280256 187.275603 
L 792.737516 187.355638 
L 793.194776 187.282463 
L 793.652036 185.663468 
L 794.109296 185.869272 
L 794.566556 190.172873 
L 795.481076 191.810163 
L 795.938335 191.423707 
L 796.395595 189.319928 
L 797.310115 186.35863 
L 797.767375 188.835144 
L 798.224635 187.929604 
L 798.681895 188.238311 
L 799.139155 188.048513 
L 799.596415 188.112542 
L 800.053675 186.543854 
L 800.510935 191.430568 
L 800.968195 191.780435 
L 801.425455 188.469269 
L 801.882714 191.52661 
L 802.339974 191.046399 
L 802.797234 186.04535 
L 803.254494 186.132245 
L 803.711754 186.694777 
L 804.169014 186.710784 
L 804.626274 185.901286 
L 805.083534 191.579204 
L 805.540794 191.677533 
L 805.998054 191.586064 
L 806.455314 191.284218 
L 806.912574 190.214034 
L 807.369834 187.73066 
L 807.827093 187.012631 
L 808.741613 184.053619 
L 809.656133 183.516241 
L 810.113393 183.742626 
L 810.570653 183.143506 
L 811.027913 184.366899 
L 811.485173 187.078946 
L 811.942433 181.716595 
L 812.399693 180.301117 
L 812.856953 179.919235 
L 813.314213 177.611938 
L 813.771472 177.273504 
L 814.228732 177.184322 
L 814.685992 179.407011 
L 815.143252 179.022842 
L 815.600512 180.033571 
L 816.057772 177.632519 
L 816.515032 176.095845 
L 816.972292 177.467875 
L 817.429552 175.503585 
L 817.886812 175.624781 
L 818.344072 175.58362 
L 818.801332 176.969371 
L 819.258592 172.883008 
L 819.715851 172.777819 
L 820.173111 175.174298 
L 821.087631 176.063831 
L 821.544891 176.651517 
L 822.002151 176.624076 
L 822.459411 177.671393 
L 823.373931 178.416862 
L 823.831191 183.472793 
L 824.288451 183.692318 
L 824.745711 182.462064 
L 825.202971 182.631281 
L 825.66023 182.301994 
L 826.11749 176.658377 
L 826.57475 176.900769 
L 827.03201 176.059257 
L 827.48927 174.282478 
L 827.94653 175.181158 
L 828.40379 175.091976 
L 828.86105 180.673852 
L 829.31831 180.671565 
L 829.77557 179.946676 
L 830.23283 180.159341 
L 830.69009 178.940521 
L 831.14735 180.077019 
L 831.604609 181.515364 
L 832.061869 181.284405 
L 832.519129 181.78977 
L 833.433649 185.222132 
L 834.348169 186.264874 
L 834.805429 194.986412 
L 835.262689 197.510948 
L 835.719949 197.7602 
L 836.177209 198.276998 
L 836.634469 197.190807 
L 837.091729 196.630562 
L 837.548988 201.258876 
L 838.006248 201.59045 
L 838.463508 194.158621 
L 838.920768 192.921507 
L 839.378028 192.567066 
L 839.835288 191.634085 
L 840.292548 193.470319 
L 840.749808 194.250089 
L 841.207068 196.074889 
L 842.121588 190.431272 
L 842.578848 192.706556 
L 843.493367 193.056423 
L 843.950627 193.543494 
L 844.407887 191.958799 
L 844.865147 191.990813 
L 845.322407 191.023532 
L 845.779667 199.912 
L 846.236927 203.650782 
L 846.694187 201.661338 
L 847.608707 201.281743 
L 848.065967 200.303029 
L 848.523227 202.905312 
L 848.980487 203.003641 
L 849.437746 202.967054 
L 849.895006 203.385523 
L 850.352266 203.300914 
L 850.809526 207.398711 
L 851.266786 207.563354 
L 851.724046 205.388687 
L 852.181306 205.82545 
L 852.638566 205.500736 
L 853.095826 205.322372 
L 853.553086 205.843743 
L 854.010346 205.589918 
L 854.467606 206.221052 
L 855.382125 206.831605 
L 855.839385 206.90478 
L 856.296645 206.477164 
L 856.753905 207.570215 
L 857.211165 201.629324 
L 857.668425 200.874708 
L 858.125685 202.162129 
L 858.582945 202.086668 
L 859.040205 203.250607 
L 859.497465 209.959834 
L 859.954725 210.869947 
L 860.411985 212.770209 
L 860.869245 212.253411 
L 861.326504 206.614367 
L 861.783764 206.381122 
L 862.241024 208.315684 
L 862.698284 208.128174 
L 863.155544 206.186751 
L 863.612804 205.358959 
L 864.070064 205.68596 
L 864.527324 203.376376 
L 864.984584 205.960366 
L 865.441844 204.563182 
L 865.899104 204.817008 
L 866.356364 207.787453 
L 867.270883 210.636702 
L 867.728143 215.518842 
L 868.185403 215.710926 
L 868.642663 207.565641 
L 869.099923 202.283325 
L 869.557183 201.540142 
L 870.014443 199.971455 
L 870.471703 204.798714 
L 870.928963 204.679805 
L 871.386223 209.726589 
L 871.843483 209.278392 
L 872.300743 205.779715 
L 872.758003 206.502318 
L 873.215262 206.429143 
L 873.672522 204.544888 
L 874.129782 204.421406 
L 875.044302 204.92677 
L 875.501562 206.218765 
L 875.958822 206.154737 
L 876.416082 211.318143 
L 876.873342 209.829491 
L 877.330602 212.001872 
L 877.787862 212.221397 
L 878.245122 212.088767 
L 878.702382 212.164229 
L 879.159641 212.500376 
L 879.616901 213.133797 
L 880.074161 213.074342 
L 880.531421 213.29158 
L 880.988681 220.524465 
L 881.903201 222.705993 
L 882.360461 222.43616 
L 882.817721 222.504762 
L 883.274981 220.288933 
L 883.732241 220.869759 
L 884.189501 221.022969 
L 884.646761 216.095095 
L 885.10402 216.77425 
L 885.56128 216.083661 
L 886.01854 216.191137 
L 886.4758 213.892986 
L 886.93306 213.922714 
L 887.39032 217.670643 
L 887.84758 214.428078 
L 888.30484 214.773372 
L 888.7621 212.879971 
L 889.21936 213.174957 
L 889.67662 213.762644 
L 890.13388 213.808378 
L 890.59114 214.233707 
L 891.048399 212.621572 
L 891.962919 207.773732 
L 892.420179 208.082439 
L 892.877439 209.360714 
L 893.334699 209.639693 
L 893.791959 211.434766 
L 894.249219 211.080325 
L 894.706479 207.615949 
L 895.163739 214.123945 
L 895.620999 214.462379 
L 896.078259 219.113561 
L 896.992778 219.273631 
L 897.450038 219.237044 
L 897.907298 219.349093 
L 898.364558 220.563339 
L 898.821818 220.27064 
L 899.279078 211.222101 
L 900.193598 212.493516 
L 900.650858 210.417177 
L 901.565378 210.165638 
L 902.022638 210.444618 
L 902.479898 212.360886 
L 902.937157 212.559831 
L 903.394417 217.750678 
L 903.851677 217.608901 
L 904.308937 213.319021 
L 904.766197 213.234412 
L 905.223457 213.335028 
L 905.680717 212.646726 
L 906.137977 212.491229 
L 906.595237 212.589558 
L 907.052497 213.181818 
L 907.967017 215.566863 
L 908.424277 215.864136 
L 908.881536 217.833 
L 909.338796 220.439857 
L 909.796056 220.149444 
L 910.253316 221.393418 
L 910.710576 224.736597 
L 911.167836 226.046886 
L 911.625096 232.891029 
L 912.082356 233.003079 
L 912.539616 233.707387 
L 912.996876 234.157871 
L 913.454136 235.936936 
L 913.911396 235.751712 
L 914.368656 235.840894 
L 914.825915 230.652334 
L 915.283175 229.40836 
L 915.740435 228.939583 
L 916.197695 228.82296 
L 916.654955 228.912142 
L 917.112215 228.562275 
L 917.569475 227.924281 
L 918.026735 227.981449 
L 918.483995 228.475379 
L 918.941255 228.466233 
L 919.398515 229.502115 
L 919.855775 230.162976 
L 920.313035 230.47397 
L 920.770294 243.041765 
L 921.227554 241.605707 
L 921.684814 237.976688 
L 922.142074 235.836321 
L 923.056594 234.30422 
L 923.513854 235.264641 
L 923.971114 235.134299 
L 924.428374 234.633508 
L 924.885634 234.42999 
L 925.342894 229.232283 
L 925.800154 229.970892 
L 926.257414 237.47361 
L 926.714673 237.34784 
L 927.171933 226.723754 
L 927.629193 221.441439 
L 928.086453 219.728688 
L 928.543713 219.342233 
L 929.000973 219.307932 
L 929.458233 216.96176 
L 930.372753 220.094562 
L 930.830013 223.446889 
L 931.744533 225.193941 
L 932.201793 223.389721 
L 932.659052 223.769316 
L 933.116312 224.395877 
L 933.573572 227.864826 
L 934.030832 228.125512 
L 934.488092 232.863589 
L 934.945352 232.827001 
L 935.402612 234.267633 
L 935.859872 237.471323 
L 936.317132 237.482757 
L 936.774392 237.073434 
L 937.688912 237.196917 
L 938.146172 238.438604 
L 938.603431 238.438604 
L 939.060691 240.686447 
L 939.517951 241.066042 
L 939.975211 241.260413 
L 940.889731 241.996736 
L 941.346991 251.761016 
L 941.804251 252.300681 
L 942.261511 252.035422 
L 943.176031 251.957674 
L 943.633291 251.889072 
L 944.090551 252.051429 
L 944.54781 252.357849 
L 945.00507 253.947118 
L 945.46233 254.443335 
L 945.91959 256.254415 
L 946.37685 256.316156 
L 947.29137 257.294871 
L 947.74863 257.722487 
L 948.20589 258.630314 
L 949.57767 260.162414 
L 950.03493 262.556606 
L 950.49219 262.556606 
L 950.949449 262.426263 
L 951.406709 262.906474 
L 951.863969 264.500315 
L 952.321229 265.328107 
L 952.778489 265.053701 
L 953.235749 265.488177 
L 954.150269 267.420453 
L 955.064789 273.999337 
L 955.522049 274.163981 
L 956.436569 274.747093 
L 956.893828 279.142163 
L 957.351088 280.971536 
L 957.808348 284.191234 
L 958.265608 284.300996 
L 958.722868 287.673903 
L 959.180128 287.703631 
L 959.637388 287.946023 
L 961.009168 291.677944 
L 961.466428 291.927197 
L 961.923688 291.995798 
L 962.838207 293.90292 
L 963.295467 296.148476 
L 963.752727 296.662987 
L 964.209987 296.713295 
L 964.667247 297.26668 
L 965.124507 297.415317 
L 966.039027 297.365009 
L 966.496287 297.433611 
L 966.953547 298.197374 
L 967.410807 305.979071 
L 967.868067 306.264911 
L 968.325327 308.750572 
L 968.782586 308.798593 
L 969.239846 309.100439 
L 969.697106 311.922248 
L 970.154366 311.961122 
L 970.611626 312.253822 
L 971.068886 312.352151 
L 971.526146 312.651711 
L 971.983406 318.206146 
L 972.440666 318.407377 
L 972.897926 318.894447 
L 973.355186 319.175714 
L 973.812446 319.262609 
L 974.269706 321.14915 
L 975.184225 321.805438 
L 976.556005 322.024963 
L 977.013265 324.432875 
L 977.927785 324.92452 
L 978.385045 324.981688 
L 978.842305 325.347562 
L 979.299565 325.393297 
L 979.756825 325.85064 
L 980.214085 327.23639 
L 980.671344 327.586258 
L 982.500384 327.583971 
L 983.414904 328.146504 
L 984.786684 329.80666 
L 985.243944 329.923282 
L 985.701204 330.387486 
L 986.615723 332.287748 
L 987.072983 332.340342 
L 987.530243 332.585021 
L 987.987503 332.671916 
L 988.444763 334.181149 
L 988.902023 334.370947 
L 989.359283 334.839724 
L 989.816543 338.354407 
L 990.273803 339.335409 
L 991.188323 340.231802 
L 991.645583 341.343146 
L 992.102843 341.912539 
L 992.560102 341.951413 
L 993.017362 342.655721 
L 993.474622 342.818078 
L 993.931882 343.115352 
L 994.389142 349.643928 
L 994.846402 350.316223 
L 995.303662 350.501447 
L 995.760922 352.006106 
L 996.218182 369.36 
L 996.218182 369.36 
" clip-path="url(#p816e5445b0)" style="fill: none; stroke: #1f77b4; stroke-width: 1.5; stroke-linecap: square"/>
   </g>
   <g id="line2d_18">
    <path d="M 184.581818 339.987123 
L 996.218182 339.987123 
L 996.218182 339.987123 
" clip-path="url(#p816e5445b0)" style="fill: none; stroke-dasharray: 5.55,2.4; stroke-dashoffset: 0; stroke: #ff7f0e; stroke-width: 1.5"/>
   </g>
   <g id="line2d_19">
    <path d="M 184.581818 203.474705 
L 996.218182 203.474705 
L 996.218182 203.474705 
" clip-path="url(#p816e5445b0)" style="fill: none; stroke-dasharray: 5.55,2.4; stroke-dashoffset: 0; stroke: #2ca02c; stroke-width: 1.5"/>
   </g>
   <g id="line2d_20">
    <path d="M 184.581818 66.96 
L 996.218182 66.96 
L 996.218182 66.96 
" clip-path="url(#p816e5445b0)" style="fill: none; stroke-dasharray: 5.55,2.4; stroke-dashoffset: 0; stroke: #d62728; stroke-width: 1.5"/>
   </g>
   <g id="patch_3">
    <path d="M 144 384.48 
L 144 51.84 
" style="fill: none; stroke: #000000; stroke-width: 0.8; stroke-linejoin: miter; stroke-linecap: square"/>
   </g>
   <g id="patch_4">
    <path d="M 1036.8 384.48 
L 1036.8 51.84 
" style="fill: none; stroke: #000000; stroke-width: 0.8; stroke-linejoin: miter; stroke-linecap: square"/>
   </g>
   <g id="patch_5">
    <path d="M 144 384.48 
L 1036.8 384.48 
" style="fill: none; stroke: #000000; stroke-width: 0.8; stroke-linejoin: miter; stroke-linecap: square"/>
   </g>
   <g id="patch_6">
    <path d="M 144 51.84 
L 1036.8 51.84 
" style="fill: none; stroke: #000000; stroke-width: 0.8; stroke-linejoin: miter; stroke-linecap: square"/>
   </g>
   <g id="text_19">
    <!-- HA -->
    <g transform="translate(581.783437 45.84)scale(0.12 -0.12)">
     <defs>
      <path id="DejaVuSans-48" d="M 628 4666 
L 1259 4666 
L 1259 2753 
L 3553 2753 
L 3553 4666 
L 4184 4666 
L 4184 0 
L 3553 0 
L 3553 2222 
L 1259 2222 
L 1259 0 
L 628 0 
L 628 4666 
z
" transform="scale(0.015625)"/>
      <path id="DejaVuSans-41" d="M 2188 4044 
L 1331 1722 
L 3047 1722 
L 2188 4044 
z
M 1831 4666 
L 2547 4666 
L 4325 0 
L 3669 0 
L 3244 1197 
L 1141 1197 
L 716 0 
L 50 0 
L 1831 4666 
z
" transform="scale(0.015625)"/>
     </defs>
     <use xlink:href="#DejaVuSans-48"/>
     <use xlink:href="#DejaVuSans-41" x="75.195312"/>
    </g>
   </g>
   <g id="legend_1">
    <g id="patch_7">
     <path d="M 146 28.936045 
L 1034.8 28.936045 
Q 1036.8 28.936045 1036.8 26.936045 
L 1036.8 13.25792 
Q 1036.8 11.25792 1034.8 11.25792 
L 146 11.25792 
Q 144 11.25792 144 13.25792 
L 144 26.936045 
Q 144 28.936045 146 28.936045 
z
" style="fill: #ffffff; opacity: 0.8; stroke: #cccccc; stroke-linejoin: miter"/>
    </g>
    <g id="line2d_21">
     <path d="M 148 19.356358 
L 158 19.356358 
L 168 19.356358 
" style="fill: none; stroke-dasharray: 5.55,2.4; stroke-dashoffset: 0; stroke: #ff7f0e; stroke-width: 1.5"/>
    </g>
    <g id="text_20">
     <!-- Average depth * 0.2 -->
     <g transform="translate(176 22.856358)scale(0.1 -0.1)">
      <defs>
       <path id="DejaVuSans-64" d="M 2906 2969 
L 2906 4863 
L 3481 4863 
L 3481 0 
L 2906 0 
L 2906 525 
Q 2725 213 2448 61 
Q 2172 -91 1784 -91 
Q 1150 -91 751 415 
Q 353 922 353 1747 
Q 353 2572 751 3078 
Q 1150 3584 1784 3584 
Q 2172 3584 2448 3432 
Q 2725 3281 2906 2969 
z
M 947 1747 
Q 947 1113 1208 752 
Q 1469 391 1925 391 
Q 2381 391 2643 752 
Q 2906 1113 2906 1747 
Q 2906 2381 2643 2742 
Q 2381 3103 1925 3103 
Q 1469 3103 1208 2742 
Q 947 2381 947 1747 
z
" transform="scale(0.015625)"/>
       <path id="DejaVuSans-2a" d="M 3009 3897 
L 1888 3291 
L 3009 2681 
L 2828 2375 
L 1778 3009 
L 1778 1831 
L 1422 1831 
L 1422 3009 
L 372 2375 
L 191 2681 
L 1313 3291 
L 191 3897 
L 372 4206 
L 1422 3572 
L 1422 4750 
L 1778 4750 
L 1778 3572 
L 2828 4206 
L 3009 3897 
z
" transform="scale(0.015625)"/>
       <path id="DejaVuSans-2e" d="M 684 794 
L 1344 794 
L 1344 0 
L 684 0 
L 684 794 
z
" transform="scale(0.015625)"/>
      </defs>
      <use xlink:href="#DejaVuSans-41"/>
      <use xlink:href="#DejaVuSans-76" x="62.533203"/>
      <use xlink:href="#DejaVuSans-65" x="121.712891"/>
      <use xlink:href="#DejaVuSans-72" x="183.236328"/>
      <use xlink:href="#DejaVuSans-61" x="224.349609"/>
      <use xlink:href="#DejaVuSans-67" x="285.628906"/>
      <use xlink:href="#DejaVuSans-65" x="349.105469"/>
      <use xlink:href="#DejaVuSans-20" x="410.628906"/>
      <use xlink:href="#DejaVuSans-64" x="442.416016"/>
      <use xlink:href="#DejaVuSans-65" x="505.892578"/>
      <use xlink:href="#DejaVuSans-70" x="567.416016"/>
      <use xlink:href="#DejaVuSans-74" x="630.892578"/>
      <use xlink:href="#DejaVuSans-68" x="670.101562"/>
      <use xlink:href="#DejaVuSans-20" x="733.480469"/>
      <use xlink:href="#DejaVuSans-2a" x="765.267578"/>
      <use xlink:href="#DejaVuSans-20" x="815.267578"/>
      <use xlink:href="#DejaVuSans-30" x="847.054688"/>
      <use xlink:href="#DejaVuSans-2e" x="910.677734"/>
      <use xlink:href="#DejaVuSans-32" x="942.464844"/>
     </g>
    </g>
    <g id="line2d_22">
     <path d="M 539.724219 19.356358 
L 549.724219 19.356358 
L 559.724219 19.356358 
" style="fill: none; stroke-dasharray: 5.55,2.4; stroke-dashoffset: 0; stroke: #2ca02c; stroke-width: 1.5"/>
    </g>
    <g id="text_21">
     <!-- Average depth -->
     <g transform="translate(567.724219 22.856358)scale(0.1 -0.1)">
      <use xlink:href="#DejaVuSans-41"/>
      <use xlink:href="#DejaVuSans-76" x="62.533203"/>
      <use xlink:href="#DejaVuSans-65" x="121.712891"/>
      <use xlink:href="#DejaVuSans-72" x="183.236328"/>
      <use xlink:href="#DejaVuSans-61" x="224.349609"/>
      <use xlink:href="#DejaVuSans-67" x="285.628906"/>
      <use xlink:href="#DejaVuSans-65" x="349.105469"/>
      <use xlink:href="#DejaVuSans-20" x="410.628906"/>
      <use xlink:href="#DejaVuSans-64" x="442.416016"/>
      <use xlink:href="#DejaVuSans-65" x="505.892578"/>
      <use xlink:href="#DejaVuSans-70" x="567.416016"/>
      <use xlink:href="#DejaVuSans-74" x="630.892578"/>
      <use xlink:href="#DejaVuSans-68" x="670.101562"/>
     </g>
    </g>
    <g id="line2d_23">
     <path d="M 904.189062 19.356358 
L 914.189062 19.356358 
L 924.189062 19.356358 
" style="fill: none; stroke-dasharray: 5.55,2.4; stroke-dashoffset: 0; stroke: #d62728; stroke-width: 1.5"/>
    </g>
    <g id="text_22">
     <!-- Average depth * 1.8 -->
     <g transform="translate(932.189062 22.856358)scale(0.1 -0.1)">
      <use xlink:href="#DejaVuSans-41"/>
      <use xlink:href="#DejaVuSans-76" x="62.533203"/>
      <use xlink:href="#DejaVuSans-65" x="121.712891"/>
      <use xlink:href="#DejaVuSans-72" x="183.236328"/>
      <use xlink:href="#DejaVuSans-61" x="224.349609"/>
      <use xlink:href="#DejaVuSans-67" x="285.628906"/>
      <use xlink:href="#DejaVuSans-65" x="349.105469"/>
      <use xlink:href="#DejaVuSans-20" x="410.628906"/>
      <use xlink:href="#DejaVuSans-64" x="442.416016"/>
      <use xlink:href="#DejaVuSans-65" x="505.892578"/>
      <use xlink:href="#DejaVuSans-70" x="567.416016"/>
      <use xlink:href="#DejaVuSans-74" x="630.892578"/>
      <use xlink:href="#DejaVuSans-68" x="670.101562"/>
      <use xlink:href="#DejaVuSans-20" x="733.480469"/>
      <use xlink:href="#DejaVuSans-2a" x="765.267578"/>
      <use xlink:href="#DejaVuSans-20" x="815.267578"/>
      <use xlink:href="#DejaVuSans-31" x="847.054688"/>
      <use xlink:href="#DejaVuSans-2e" x="910.677734"/>
      <use xlink:href="#DejaVuSans-38" x="942.464844"/>
     </g>
    </g>
   </g>
  </g>
 </g>
 <defs>
  <clipPath id="p816e5445b0">
   <rect x="144" y="51.84" width="892.8" height="332.64"/>
  </clipPath>
 </defs>
</svg>
