<?xml version="1.0" encoding="utf-8" standalone="no"?>
<!DOCTYPE svg PUBLIC "-//W3C//DTD SVG 1.1//EN"
  "http://www.w3.org/Graphics/SVG/1.1/DTD/svg11.dtd">
<svg xmlns:xlink="http://www.w3.org/1999/xlink" width="1152pt" height="432pt" viewBox="0 0 1152 432" xmlns="http://www.w3.org/2000/svg" version="1.1">
 <metadata>
  <rdf:RDF xmlns:dc="http://purl.org/dc/elements/1.1/" xmlns:cc="http://creativecommons.org/ns#" xmlns:rdf="http://www.w3.org/1999/02/22-rdf-syntax-ns#">
   <cc:Work>
    <dc:type rdf:resource="http://purl.org/dc/dcmitype/StillImage"/>
    <dc:date>2022-11-25T09:58:50.363884</dc:date>
    <dc:format>image/svg+xml</dc:format>
    <dc:creator>
     <cc:Agent>
      <dc:title>Matplotlib v3.5.2, https://matplotlib.org/</dc:title>
     </cc:Agent>
    </dc:creator>
   </cc:Work>
  </rdf:RDF>
 </metadata>
 <defs>
  <style type="text/css">*{stroke-linejoin: round; stroke-linecap: butt}</style>
 </defs>
 <g id="figure_1">
  <g id="patch_1">
   <path d="M 0 432 
L 1152 432 
L 1152 0 
L 0 0 
z
" style="fill: #ffffff"/>
  </g>
  <g id="axes_1">
   <g id="patch_2">
    <path d="M 144 384.48 
L 1036.8 384.48 
L 1036.8 51.84 
L 144 51.84 
z
" style="fill: #ffffff"/>
   </g>
   <g id="matplotlib.axis_1">
    <g id="xtick_1">
     <g id="line2d_1">
      <defs>
       <path id="mf8208d6758" d="M 0 0 
L 0 3.5 
" style="stroke: #000000; stroke-width: 0.8"/>
      </defs>
      <g>
       <use xlink:href="#mf8208d6758" x="184.581818" y="384.48" style="stroke: #000000; stroke-width: 0.8"/>
      </g>
     </g>
     <g id="text_1">
      <!-- 0 -->
      <g transform="translate(181.400568 399.078438)scale(0.1 -0.1)">
       <defs>
        <path id="DejaVuSans-30" d="M 2034 4250 
Q 1547 4250 1301 3770 
Q 1056 3291 1056 2328 
Q 1056 1369 1301 889 
Q 1547 409 2034 409 
Q 2525 409 2770 889 
Q 3016 1369 3016 2328 
Q 3016 3291 2770 3770 
Q 2525 4250 2034 4250 
z
M 2034 4750 
Q 2819 4750 3233 4129 
Q 3647 3509 3647 2328 
Q 3647 1150 3233 529 
Q 2819 -91 2034 -91 
Q 1250 -91 836 529 
Q 422 1150 422 2328 
Q 422 3509 836 4129 
Q 1250 4750 2034 4750 
z
" transform="scale(0.015625)"/>
       </defs>
       <use xlink:href="#DejaVuSans-30"/>
      </g>
     </g>
    </g>
    <g id="xtick_2">
     <g id="line2d_2">
      <g>
       <use xlink:href="#mf8208d6758" x="342.795534" y="384.48" style="stroke: #000000; stroke-width: 0.8"/>
      </g>
     </g>
     <g id="text_2">
      <!-- 200 -->
      <g transform="translate(333.251784 399.078438)scale(0.1 -0.1)">
       <defs>
        <path id="DejaVuSans-32" d="M 1228 531 
L 3431 531 
L 3431 0 
L 469 0 
L 469 531 
Q 828 903 1448 1529 
Q 2069 2156 2228 2338 
Q 2531 2678 2651 2914 
Q 2772 3150 2772 3378 
Q 2772 3750 2511 3984 
Q 2250 4219 1831 4219 
Q 1534 4219 1204 4116 
Q 875 4013 500 3803 
L 500 4441 
Q 881 4594 1212 4672 
Q 1544 4750 1819 4750 
Q 2544 4750 2975 4387 
Q 3406 4025 3406 3419 
Q 3406 3131 3298 2873 
Q 3191 2616 2906 2266 
Q 2828 2175 2409 1742 
Q 1991 1309 1228 531 
z
" transform="scale(0.015625)"/>
       </defs>
       <use xlink:href="#DejaVuSans-32"/>
       <use xlink:href="#DejaVuSans-30" x="63.623047"/>
       <use xlink:href="#DejaVuSans-30" x="127.246094"/>
      </g>
     </g>
    </g>
    <g id="xtick_3">
     <g id="line2d_3">
      <g>
       <use xlink:href="#mf8208d6758" x="501.00925" y="384.48" style="stroke: #000000; stroke-width: 0.8"/>
      </g>
     </g>
     <g id="text_3">
      <!-- 400 -->
      <g transform="translate(491.4655 399.078438)scale(0.1 -0.1)">
       <defs>
        <path id="DejaVuSans-34" d="M 2419 4116 
L 825 1625 
L 2419 1625 
L 2419 4116 
z
M 2253 4666 
L 3047 4666 
L 3047 1625 
L 3713 1625 
L 3713 1100 
L 3047 1100 
L 3047 0 
L 2419 0 
L 2419 1100 
L 313 1100 
L 313 1709 
L 2253 4666 
z
" transform="scale(0.015625)"/>
       </defs>
       <use xlink:href="#DejaVuSans-34"/>
       <use xlink:href="#DejaVuSans-30" x="63.623047"/>
       <use xlink:href="#DejaVuSans-30" x="127.246094"/>
      </g>
     </g>
    </g>
    <g id="xtick_4">
     <g id="line2d_4">
      <g>
       <use xlink:href="#mf8208d6758" x="659.222967" y="384.48" style="stroke: #000000; stroke-width: 0.8"/>
      </g>
     </g>
     <g id="text_4">
      <!-- 600 -->
      <g transform="translate(649.679217 399.078438)scale(0.1 -0.1)">
       <defs>
        <path id="DejaVuSans-36" d="M 2113 2584 
Q 1688 2584 1439 2293 
Q 1191 2003 1191 1497 
Q 1191 994 1439 701 
Q 1688 409 2113 409 
Q 2538 409 2786 701 
Q 3034 994 3034 1497 
Q 3034 2003 2786 2293 
Q 2538 2584 2113 2584 
z
M 3366 4563 
L 3366 3988 
Q 3128 4100 2886 4159 
Q 2644 4219 2406 4219 
Q 1781 4219 1451 3797 
Q 1122 3375 1075 2522 
Q 1259 2794 1537 2939 
Q 1816 3084 2150 3084 
Q 2853 3084 3261 2657 
Q 3669 2231 3669 1497 
Q 3669 778 3244 343 
Q 2819 -91 2113 -91 
Q 1303 -91 875 529 
Q 447 1150 447 2328 
Q 447 3434 972 4092 
Q 1497 4750 2381 4750 
Q 2619 4750 2861 4703 
Q 3103 4656 3366 4563 
z
" transform="scale(0.015625)"/>
       </defs>
       <use xlink:href="#DejaVuSans-36"/>
       <use xlink:href="#DejaVuSans-30" x="63.623047"/>
       <use xlink:href="#DejaVuSans-30" x="127.246094"/>
      </g>
     </g>
    </g>
    <g id="xtick_5">
     <g id="line2d_5">
      <g>
       <use xlink:href="#mf8208d6758" x="817.436683" y="384.48" style="stroke: #000000; stroke-width: 0.8"/>
      </g>
     </g>
     <g id="text_5">
      <!-- 800 -->
      <g transform="translate(807.892933 399.078438)scale(0.1 -0.1)">
       <defs>
        <path id="DejaVuSans-38" d="M 2034 2216 
Q 1584 2216 1326 1975 
Q 1069 1734 1069 1313 
Q 1069 891 1326 650 
Q 1584 409 2034 409 
Q 2484 409 2743 651 
Q 3003 894 3003 1313 
Q 3003 1734 2745 1975 
Q 2488 2216 2034 2216 
z
M 1403 2484 
Q 997 2584 770 2862 
Q 544 3141 544 3541 
Q 544 4100 942 4425 
Q 1341 4750 2034 4750 
Q 2731 4750 3128 4425 
Q 3525 4100 3525 3541 
Q 3525 3141 3298 2862 
Q 3072 2584 2669 2484 
Q 3125 2378 3379 2068 
Q 3634 1759 3634 1313 
Q 3634 634 3220 271 
Q 2806 -91 2034 -91 
Q 1263 -91 848 271 
Q 434 634 434 1313 
Q 434 1759 690 2068 
Q 947 2378 1403 2484 
z
M 1172 3481 
Q 1172 3119 1398 2916 
Q 1625 2713 2034 2713 
Q 2441 2713 2670 2916 
Q 2900 3119 2900 3481 
Q 2900 3844 2670 4047 
Q 2441 4250 2034 4250 
Q 1625 4250 1398 4047 
Q 1172 3844 1172 3481 
z
" transform="scale(0.015625)"/>
       </defs>
       <use xlink:href="#DejaVuSans-38"/>
       <use xlink:href="#DejaVuSans-30" x="63.623047"/>
       <use xlink:href="#DejaVuSans-30" x="127.246094"/>
      </g>
     </g>
    </g>
    <g id="xtick_6">
     <g id="line2d_6">
      <g>
       <use xlink:href="#mf8208d6758" x="975.650399" y="384.48" style="stroke: #000000; stroke-width: 0.8"/>
      </g>
     </g>
     <g id="text_6">
      <!-- 1000 -->
      <g transform="translate(962.925399 399.078438)scale(0.1 -0.1)">
       <defs>
        <path id="DejaVuSans-31" d="M 794 531 
L 1825 531 
L 1825 4091 
L 703 3866 
L 703 4441 
L 1819 4666 
L 2450 4666 
L 2450 531 
L 3481 531 
L 3481 0 
L 794 0 
L 794 531 
z
" transform="scale(0.015625)"/>
       </defs>
       <use xlink:href="#DejaVuSans-31"/>
       <use xlink:href="#DejaVuSans-30" x="63.623047"/>
       <use xlink:href="#DejaVuSans-30" x="127.246094"/>
       <use xlink:href="#DejaVuSans-30" x="190.869141"/>
      </g>
     </g>
    </g>
    <g id="text_7">
     <!-- Position -->
     <g transform="translate(570.935938 412.756563)scale(0.1 -0.1)">
      <defs>
       <path id="DejaVuSans-50" d="M 1259 4147 
L 1259 2394 
L 2053 2394 
Q 2494 2394 2734 2622 
Q 2975 2850 2975 3272 
Q 2975 3691 2734 3919 
Q 2494 4147 2053 4147 
L 1259 4147 
z
M 628 4666 
L 2053 4666 
Q 2838 4666 3239 4311 
Q 3641 3956 3641 3272 
Q 3641 2581 3239 2228 
Q 2838 1875 2053 1875 
L 1259 1875 
L 1259 0 
L 628 0 
L 628 4666 
z
" transform="scale(0.015625)"/>
       <path id="DejaVuSans-6f" d="M 1959 3097 
Q 1497 3097 1228 2736 
Q 959 2375 959 1747 
Q 959 1119 1226 758 
Q 1494 397 1959 397 
Q 2419 397 2687 759 
Q 2956 1122 2956 1747 
Q 2956 2369 2687 2733 
Q 2419 3097 1959 3097 
z
M 1959 3584 
Q 2709 3584 3137 3096 
Q 3566 2609 3566 1747 
Q 3566 888 3137 398 
Q 2709 -91 1959 -91 
Q 1206 -91 779 398 
Q 353 888 353 1747 
Q 353 2609 779 3096 
Q 1206 3584 1959 3584 
z
" transform="scale(0.015625)"/>
       <path id="DejaVuSans-73" d="M 2834 3397 
L 2834 2853 
Q 2591 2978 2328 3040 
Q 2066 3103 1784 3103 
Q 1356 3103 1142 2972 
Q 928 2841 928 2578 
Q 928 2378 1081 2264 
Q 1234 2150 1697 2047 
L 1894 2003 
Q 2506 1872 2764 1633 
Q 3022 1394 3022 966 
Q 3022 478 2636 193 
Q 2250 -91 1575 -91 
Q 1294 -91 989 -36 
Q 684 19 347 128 
L 347 722 
Q 666 556 975 473 
Q 1284 391 1588 391 
Q 1994 391 2212 530 
Q 2431 669 2431 922 
Q 2431 1156 2273 1281 
Q 2116 1406 1581 1522 
L 1381 1569 
Q 847 1681 609 1914 
Q 372 2147 372 2553 
Q 372 3047 722 3315 
Q 1072 3584 1716 3584 
Q 2034 3584 2315 3537 
Q 2597 3491 2834 3397 
z
" transform="scale(0.015625)"/>
       <path id="DejaVuSans-69" d="M 603 3500 
L 1178 3500 
L 1178 0 
L 603 0 
L 603 3500 
z
M 603 4863 
L 1178 4863 
L 1178 4134 
L 603 4134 
L 603 4863 
z
" transform="scale(0.015625)"/>
       <path id="DejaVuSans-74" d="M 1172 4494 
L 1172 3500 
L 2356 3500 
L 2356 3053 
L 1172 3053 
L 1172 1153 
Q 1172 725 1289 603 
Q 1406 481 1766 481 
L 2356 481 
L 2356 0 
L 1766 0 
Q 1100 0 847 248 
Q 594 497 594 1153 
L 594 3053 
L 172 3053 
L 172 3500 
L 594 3500 
L 594 4494 
L 1172 4494 
z
" transform="scale(0.015625)"/>
       <path id="DejaVuSans-6e" d="M 3513 2113 
L 3513 0 
L 2938 0 
L 2938 2094 
Q 2938 2591 2744 2837 
Q 2550 3084 2163 3084 
Q 1697 3084 1428 2787 
Q 1159 2491 1159 1978 
L 1159 0 
L 581 0 
L 581 3500 
L 1159 3500 
L 1159 2956 
Q 1366 3272 1645 3428 
Q 1925 3584 2291 3584 
Q 2894 3584 3203 3211 
Q 3513 2838 3513 2113 
z
" transform="scale(0.015625)"/>
      </defs>
      <use xlink:href="#DejaVuSans-50"/>
      <use xlink:href="#DejaVuSans-6f" x="56.677734"/>
      <use xlink:href="#DejaVuSans-73" x="117.859375"/>
      <use xlink:href="#DejaVuSans-69" x="169.958984"/>
      <use xlink:href="#DejaVuSans-74" x="197.742188"/>
      <use xlink:href="#DejaVuSans-69" x="236.951172"/>
      <use xlink:href="#DejaVuSans-6f" x="264.734375"/>
      <use xlink:href="#DejaVuSans-6e" x="325.916016"/>
     </g>
    </g>
   </g>
   <g id="matplotlib.axis_2">
    <g id="ytick_1">
     <g id="line2d_7">
      <defs>
       <path id="mad8dadcb26" d="M 0 0 
L -3.5 0 
" style="stroke: #000000; stroke-width: 0.8"/>
      </defs>
      <g>
       <use xlink:href="#mad8dadcb26" x="144" y="374.511004" style="stroke: #000000; stroke-width: 0.8"/>
      </g>
     </g>
     <g id="text_8">
      <!-- 0 -->
      <g transform="translate(130.6375 378.310223)scale(0.1 -0.1)">
       <use xlink:href="#DejaVuSans-30"/>
      </g>
     </g>
    </g>
    <g id="ytick_2">
     <g id="line2d_8">
      <g>
       <use xlink:href="#mad8dadcb26" x="144" y="336.156543" style="stroke: #000000; stroke-width: 0.8"/>
      </g>
     </g>
     <g id="text_9">
      <!-- 100000 -->
      <g transform="translate(98.825 339.955761)scale(0.1 -0.1)">
       <use xlink:href="#DejaVuSans-31"/>
       <use xlink:href="#DejaVuSans-30" x="63.623047"/>
       <use xlink:href="#DejaVuSans-30" x="127.246094"/>
       <use xlink:href="#DejaVuSans-30" x="190.869141"/>
       <use xlink:href="#DejaVuSans-30" x="254.492188"/>
       <use xlink:href="#DejaVuSans-30" x="318.115234"/>
      </g>
     </g>
    </g>
    <g id="ytick_3">
     <g id="line2d_9">
      <g>
       <use xlink:href="#mad8dadcb26" x="144" y="297.802081" style="stroke: #000000; stroke-width: 0.8"/>
      </g>
     </g>
     <g id="text_10">
      <!-- 200000 -->
      <g transform="translate(98.825 301.6013)scale(0.1 -0.1)">
       <use xlink:href="#DejaVuSans-32"/>
       <use xlink:href="#DejaVuSans-30" x="63.623047"/>
       <use xlink:href="#DejaVuSans-30" x="127.246094"/>
       <use xlink:href="#DejaVuSans-30" x="190.869141"/>
       <use xlink:href="#DejaVuSans-30" x="254.492188"/>
       <use xlink:href="#DejaVuSans-30" x="318.115234"/>
      </g>
     </g>
    </g>
    <g id="ytick_4">
     <g id="line2d_10">
      <g>
       <use xlink:href="#mad8dadcb26" x="144" y="259.447619" style="stroke: #000000; stroke-width: 0.8"/>
      </g>
     </g>
     <g id="text_11">
      <!-- 300000 -->
      <g transform="translate(98.825 263.246838)scale(0.1 -0.1)">
       <defs>
        <path id="DejaVuSans-33" d="M 2597 2516 
Q 3050 2419 3304 2112 
Q 3559 1806 3559 1356 
Q 3559 666 3084 287 
Q 2609 -91 1734 -91 
Q 1441 -91 1130 -33 
Q 819 25 488 141 
L 488 750 
Q 750 597 1062 519 
Q 1375 441 1716 441 
Q 2309 441 2620 675 
Q 2931 909 2931 1356 
Q 2931 1769 2642 2001 
Q 2353 2234 1838 2234 
L 1294 2234 
L 1294 2753 
L 1863 2753 
Q 2328 2753 2575 2939 
Q 2822 3125 2822 3475 
Q 2822 3834 2567 4026 
Q 2313 4219 1838 4219 
Q 1578 4219 1281 4162 
Q 984 4106 628 3988 
L 628 4550 
Q 988 4650 1302 4700 
Q 1616 4750 1894 4750 
Q 2613 4750 3031 4423 
Q 3450 4097 3450 3541 
Q 3450 3153 3228 2886 
Q 3006 2619 2597 2516 
z
" transform="scale(0.015625)"/>
       </defs>
       <use xlink:href="#DejaVuSans-33"/>
       <use xlink:href="#DejaVuSans-30" x="63.623047"/>
       <use xlink:href="#DejaVuSans-30" x="127.246094"/>
       <use xlink:href="#DejaVuSans-30" x="190.869141"/>
       <use xlink:href="#DejaVuSans-30" x="254.492188"/>
       <use xlink:href="#DejaVuSans-30" x="318.115234"/>
      </g>
     </g>
    </g>
    <g id="ytick_5">
     <g id="line2d_11">
      <g>
       <use xlink:href="#mad8dadcb26" x="144" y="221.093157" style="stroke: #000000; stroke-width: 0.8"/>
      </g>
     </g>
     <g id="text_12">
      <!-- 400000 -->
      <g transform="translate(98.825 224.892376)scale(0.1 -0.1)">
       <use xlink:href="#DejaVuSans-34"/>
       <use xlink:href="#DejaVuSans-30" x="63.623047"/>
       <use xlink:href="#DejaVuSans-30" x="127.246094"/>
       <use xlink:href="#DejaVuSans-30" x="190.869141"/>
       <use xlink:href="#DejaVuSans-30" x="254.492188"/>
       <use xlink:href="#DejaVuSans-30" x="318.115234"/>
      </g>
     </g>
    </g>
    <g id="ytick_6">
     <g id="line2d_12">
      <g>
       <use xlink:href="#mad8dadcb26" x="144" y="182.738696" style="stroke: #000000; stroke-width: 0.8"/>
      </g>
     </g>
     <g id="text_13">
      <!-- 500000 -->
      <g transform="translate(98.825 186.537915)scale(0.1 -0.1)">
       <defs>
        <path id="DejaVuSans-35" d="M 691 4666 
L 3169 4666 
L 3169 4134 
L 1269 4134 
L 1269 2991 
Q 1406 3038 1543 3061 
Q 1681 3084 1819 3084 
Q 2600 3084 3056 2656 
Q 3513 2228 3513 1497 
Q 3513 744 3044 326 
Q 2575 -91 1722 -91 
Q 1428 -91 1123 -41 
Q 819 9 494 109 
L 494 744 
Q 775 591 1075 516 
Q 1375 441 1709 441 
Q 2250 441 2565 725 
Q 2881 1009 2881 1497 
Q 2881 1984 2565 2268 
Q 2250 2553 1709 2553 
Q 1456 2553 1204 2497 
Q 953 2441 691 2322 
L 691 4666 
z
" transform="scale(0.015625)"/>
       </defs>
       <use xlink:href="#DejaVuSans-35"/>
       <use xlink:href="#DejaVuSans-30" x="63.623047"/>
       <use xlink:href="#DejaVuSans-30" x="127.246094"/>
       <use xlink:href="#DejaVuSans-30" x="190.869141"/>
       <use xlink:href="#DejaVuSans-30" x="254.492188"/>
       <use xlink:href="#DejaVuSans-30" x="318.115234"/>
      </g>
     </g>
    </g>
    <g id="ytick_7">
     <g id="line2d_13">
      <g>
       <use xlink:href="#mad8dadcb26" x="144" y="144.384234" style="stroke: #000000; stroke-width: 0.8"/>
      </g>
     </g>
     <g id="text_14">
      <!-- 600000 -->
      <g transform="translate(98.825 148.183453)scale(0.1 -0.1)">
       <use xlink:href="#DejaVuSans-36"/>
       <use xlink:href="#DejaVuSans-30" x="63.623047"/>
       <use xlink:href="#DejaVuSans-30" x="127.246094"/>
       <use xlink:href="#DejaVuSans-30" x="190.869141"/>
       <use xlink:href="#DejaVuSans-30" x="254.492188"/>
       <use xlink:href="#DejaVuSans-30" x="318.115234"/>
      </g>
     </g>
    </g>
    <g id="ytick_8">
     <g id="line2d_14">
      <g>
       <use xlink:href="#mad8dadcb26" x="144" y="106.029772" style="stroke: #000000; stroke-width: 0.8"/>
      </g>
     </g>
     <g id="text_15">
      <!-- 700000 -->
      <g transform="translate(98.825 109.828991)scale(0.1 -0.1)">
       <defs>
        <path id="DejaVuSans-37" d="M 525 4666 
L 3525 4666 
L 3525 4397 
L 1831 0 
L 1172 0 
L 2766 4134 
L 525 4134 
L 525 4666 
z
" transform="scale(0.015625)"/>
       </defs>
       <use xlink:href="#DejaVuSans-37"/>
       <use xlink:href="#DejaVuSans-30" x="63.623047"/>
       <use xlink:href="#DejaVuSans-30" x="127.246094"/>
       <use xlink:href="#DejaVuSans-30" x="190.869141"/>
       <use xlink:href="#DejaVuSans-30" x="254.492188"/>
       <use xlink:href="#DejaVuSans-30" x="318.115234"/>
      </g>
     </g>
    </g>
    <g id="ytick_9">
     <g id="line2d_15">
      <g>
       <use xlink:href="#mad8dadcb26" x="144" y="67.675311" style="stroke: #000000; stroke-width: 0.8"/>
      </g>
     </g>
     <g id="text_16">
      <!-- 800000 -->
      <g transform="translate(98.825 71.474529)scale(0.1 -0.1)">
       <use xlink:href="#DejaVuSans-38"/>
       <use xlink:href="#DejaVuSans-30" x="63.623047"/>
       <use xlink:href="#DejaVuSans-30" x="127.246094"/>
       <use xlink:href="#DejaVuSans-30" x="190.869141"/>
       <use xlink:href="#DejaVuSans-30" x="254.492188"/>
       <use xlink:href="#DejaVuSans-30" x="318.115234"/>
      </g>
     </g>
    </g>
    <g id="text_17">
     <!-- Depth of coverage -->
     <g transform="translate(92.745312 264.602187)rotate(-90)scale(0.1 -0.1)">
      <defs>
       <path id="DejaVuSans-44" d="M 1259 4147 
L 1259 519 
L 2022 519 
Q 2988 519 3436 956 
Q 3884 1394 3884 2338 
Q 3884 3275 3436 3711 
Q 2988 4147 2022 4147 
L 1259 4147 
z
M 628 4666 
L 1925 4666 
Q 3281 4666 3915 4102 
Q 4550 3538 4550 2338 
Q 4550 1131 3912 565 
Q 3275 0 1925 0 
L 628 0 
L 628 4666 
z
" transform="scale(0.015625)"/>
       <path id="DejaVuSans-65" d="M 3597 1894 
L 3597 1613 
L 953 1613 
Q 991 1019 1311 708 
Q 1631 397 2203 397 
Q 2534 397 2845 478 
Q 3156 559 3463 722 
L 3463 178 
Q 3153 47 2828 -22 
Q 2503 -91 2169 -91 
Q 1331 -91 842 396 
Q 353 884 353 1716 
Q 353 2575 817 3079 
Q 1281 3584 2069 3584 
Q 2775 3584 3186 3129 
Q 3597 2675 3597 1894 
z
M 3022 2063 
Q 3016 2534 2758 2815 
Q 2500 3097 2075 3097 
Q 1594 3097 1305 2825 
Q 1016 2553 972 2059 
L 3022 2063 
z
" transform="scale(0.015625)"/>
       <path id="DejaVuSans-70" d="M 1159 525 
L 1159 -1331 
L 581 -1331 
L 581 3500 
L 1159 3500 
L 1159 2969 
Q 1341 3281 1617 3432 
Q 1894 3584 2278 3584 
Q 2916 3584 3314 3078 
Q 3713 2572 3713 1747 
Q 3713 922 3314 415 
Q 2916 -91 2278 -91 
Q 1894 -91 1617 61 
Q 1341 213 1159 525 
z
M 3116 1747 
Q 3116 2381 2855 2742 
Q 2594 3103 2138 3103 
Q 1681 3103 1420 2742 
Q 1159 2381 1159 1747 
Q 1159 1113 1420 752 
Q 1681 391 2138 391 
Q 2594 391 2855 752 
Q 3116 1113 3116 1747 
z
" transform="scale(0.015625)"/>
       <path id="DejaVuSans-68" d="M 3513 2113 
L 3513 0 
L 2938 0 
L 2938 2094 
Q 2938 2591 2744 2837 
Q 2550 3084 2163 3084 
Q 1697 3084 1428 2787 
Q 1159 2491 1159 1978 
L 1159 0 
L 581 0 
L 581 4863 
L 1159 4863 
L 1159 2956 
Q 1366 3272 1645 3428 
Q 1925 3584 2291 3584 
Q 2894 3584 3203 3211 
Q 3513 2838 3513 2113 
z
" transform="scale(0.015625)"/>
       <path id="DejaVuSans-20" transform="scale(0.015625)"/>
       <path id="DejaVuSans-66" d="M 2375 4863 
L 2375 4384 
L 1825 4384 
Q 1516 4384 1395 4259 
Q 1275 4134 1275 3809 
L 1275 3500 
L 2222 3500 
L 2222 3053 
L 1275 3053 
L 1275 0 
L 697 0 
L 697 3053 
L 147 3053 
L 147 3500 
L 697 3500 
L 697 3744 
Q 697 4328 969 4595 
Q 1241 4863 1831 4863 
L 2375 4863 
z
" transform="scale(0.015625)"/>
       <path id="DejaVuSans-63" d="M 3122 3366 
L 3122 2828 
Q 2878 2963 2633 3030 
Q 2388 3097 2138 3097 
Q 1578 3097 1268 2742 
Q 959 2388 959 1747 
Q 959 1106 1268 751 
Q 1578 397 2138 397 
Q 2388 397 2633 464 
Q 2878 531 3122 666 
L 3122 134 
Q 2881 22 2623 -34 
Q 2366 -91 2075 -91 
Q 1284 -91 818 406 
Q 353 903 353 1747 
Q 353 2603 823 3093 
Q 1294 3584 2113 3584 
Q 2378 3584 2631 3529 
Q 2884 3475 3122 3366 
z
" transform="scale(0.015625)"/>
       <path id="DejaVuSans-76" d="M 191 3500 
L 800 3500 
L 1894 563 
L 2988 3500 
L 3597 3500 
L 2284 0 
L 1503 0 
L 191 3500 
z
" transform="scale(0.015625)"/>
       <path id="DejaVuSans-72" d="M 2631 2963 
Q 2534 3019 2420 3045 
Q 2306 3072 2169 3072 
Q 1681 3072 1420 2755 
Q 1159 2438 1159 1844 
L 1159 0 
L 581 0 
L 581 3500 
L 1159 3500 
L 1159 2956 
Q 1341 3275 1631 3429 
Q 1922 3584 2338 3584 
Q 2397 3584 2469 3576 
Q 2541 3569 2628 3553 
L 2631 2963 
z
" transform="scale(0.015625)"/>
       <path id="DejaVuSans-61" d="M 2194 1759 
Q 1497 1759 1228 1600 
Q 959 1441 959 1056 
Q 959 750 1161 570 
Q 1363 391 1709 391 
Q 2188 391 2477 730 
Q 2766 1069 2766 1631 
L 2766 1759 
L 2194 1759 
z
M 3341 1997 
L 3341 0 
L 2766 0 
L 2766 531 
Q 2569 213 2275 61 
Q 1981 -91 1556 -91 
Q 1019 -91 701 211 
Q 384 513 384 1019 
Q 384 1609 779 1909 
Q 1175 2209 1959 2209 
L 2766 2209 
L 2766 2266 
Q 2766 2663 2505 2880 
Q 2244 3097 1772 3097 
Q 1472 3097 1187 3025 
Q 903 2953 641 2809 
L 641 3341 
Q 956 3463 1253 3523 
Q 1550 3584 1831 3584 
Q 2591 3584 2966 3190 
Q 3341 2797 3341 1997 
z
" transform="scale(0.015625)"/>
       <path id="DejaVuSans-67" d="M 2906 1791 
Q 2906 2416 2648 2759 
Q 2391 3103 1925 3103 
Q 1463 3103 1205 2759 
Q 947 2416 947 1791 
Q 947 1169 1205 825 
Q 1463 481 1925 481 
Q 2391 481 2648 825 
Q 2906 1169 2906 1791 
z
M 3481 434 
Q 3481 -459 3084 -895 
Q 2688 -1331 1869 -1331 
Q 1566 -1331 1297 -1286 
Q 1028 -1241 775 -1147 
L 775 -588 
Q 1028 -725 1275 -790 
Q 1522 -856 1778 -856 
Q 2344 -856 2625 -561 
Q 2906 -266 2906 331 
L 2906 616 
Q 2728 306 2450 153 
Q 2172 0 1784 0 
Q 1141 0 747 490 
Q 353 981 353 1791 
Q 353 2603 747 3093 
Q 1141 3584 1784 3584 
Q 2172 3584 2450 3431 
Q 2728 3278 2906 2969 
L 2906 3500 
L 3481 3500 
L 3481 434 
z
" transform="scale(0.015625)"/>
      </defs>
      <use xlink:href="#DejaVuSans-44"/>
      <use xlink:href="#DejaVuSans-65" x="77.001953"/>
      <use xlink:href="#DejaVuSans-70" x="138.525391"/>
      <use xlink:href="#DejaVuSans-74" x="202.001953"/>
      <use xlink:href="#DejaVuSans-68" x="241.210938"/>
      <use xlink:href="#DejaVuSans-20" x="304.589844"/>
      <use xlink:href="#DejaVuSans-6f" x="336.376953"/>
      <use xlink:href="#DejaVuSans-66" x="397.558594"/>
      <use xlink:href="#DejaVuSans-20" x="432.763672"/>
      <use xlink:href="#DejaVuSans-63" x="464.550781"/>
      <use xlink:href="#DejaVuSans-6f" x="519.53125"/>
      <use xlink:href="#DejaVuSans-76" x="580.712891"/>
      <use xlink:href="#DejaVuSans-65" x="639.892578"/>
      <use xlink:href="#DejaVuSans-72" x="701.416016"/>
      <use xlink:href="#DejaVuSans-61" x="742.529297"/>
      <use xlink:href="#DejaVuSans-67" x="803.808594"/>
      <use xlink:href="#DejaVuSans-65" x="867.285156"/>
     </g>
    </g>
   </g>
   <g id="line2d_16">
    <path d="M 184.581818 339.60039 
L 185.372887 327.088014 
L 186.163955 325.267711 
L 186.955024 325.03068 
L 187.746093 316.74113 
L 188.537161 316.366791 
L 189.32823 314.765876 
L 190.119298 314.407261 
L 190.910367 312.730404 
L 191.701435 312.652161 
L 192.492504 309.115113 
L 193.283573 308.049242 
L 194.074641 307.816047 
L 194.86571 307.732435 
L 195.656778 306.459066 
L 196.447847 304.300094 
L 197.238915 303.840224 
L 198.029984 300.07535 
L 200.40319 298.448737 
L 201.985327 297.018883 
L 202.776396 296.573204 
L 203.567464 295.714831 
L 204.358533 295.233483 
L 205.149601 294.525076 
L 206.731738 294.271169 
L 207.522807 288.957158 
L 208.313876 287.747842 
L 209.104944 282.52128 
L 209.896013 278.57614 
L 210.687081 278.207553 
L 212.269219 277.768011 
L 213.060287 276.898516 
L 213.851356 276.498095 
L 216.224561 276.449768 
L 217.01563 276.107647 
L 217.806699 275.404226 
L 218.597767 274.274303 
L 219.388836 273.377193 
L 220.970973 273.117149 
L 221.762041 271.0905 
L 222.55311 270.828539 
L 223.344179 270.40242 
L 224.135247 268.587871 
L 224.926316 267.815796 
L 225.717384 267.303764 
L 226.508453 266.957806 
L 228.881659 264.71292 
L 230.463796 255.136194 
L 231.254864 254.867329 
L 232.045933 250.986241 
L 232.837002 250.95364 
L 233.62807 246.586985 
L 234.419139 246.484962 
L 235.210207 245.327041 
L 236.001276 245.215429 
L 237.583413 243.978498 
L 238.374482 243.837353 
L 239.16555 243.431179 
L 239.956619 242.787975 
L 240.747687 240.908607 
L 241.538756 240.167215 
L 242.329825 239.978127 
L 243.911962 239.924431 
L 244.70303 239.22101 
L 245.494099 239.137781 
L 246.285167 238.138647 
L 247.076236 237.994818 
L 247.867305 237.287945 
L 248.658373 233.970668 
L 249.449442 233.398036 
L 250.24051 233.037887 
L 251.031579 232.80009 
L 251.822648 232.275784 
L 252.613716 231.962045 
L 254.195853 230.03435 
L 254.986922 229.435636 
L 256.569059 229.342435 
L 257.360128 228.909413 
L 258.151196 228.780926 
L 258.942265 226.728962 
L 259.733333 226.607762 
L 260.524402 226.641897 
L 261.31547 226.339664 
L 262.106539 225.43565 
L 263.688676 225.331709 
L 264.479745 225.345517 
L 266.061882 224.078669 
L 266.852951 218.204683 
L 267.644019 216.392818 
L 268.435088 214.942636 
L 269.226156 214.55679 
L 270.808293 211.794885 
L 271.599362 211.142476 
L 272.390431 211.176228 
L 273.181499 211.092232 
L 273.972568 211.433203 
L 274.763636 210.416426 
L 276.345774 207.277497 
L 277.136842 207.015919 
L 277.927911 207.123312 
L 278.718979 205.889832 
L 279.510048 204.259768 
L 280.301116 203.727791 
L 281.092185 203.703245 
L 281.883254 203.79798 
L 282.674322 202.197448 
L 283.465391 201.88601 
L 284.256459 197.089018 
L 285.047528 196.843933 
L 285.838596 196.979324 
L 286.629665 196.181168 
L 287.420734 194.307936 
L 288.211802 193.746043 
L 289.002871 192.703568 
L 289.793939 192.782195 
L 290.585008 191.080408 
L 291.376077 191.318205 
L 292.167145 190.605579 
L 292.958214 188.499152 
L 293.749282 187.796115 
L 294.540351 186.112738 
L 295.331419 185.958553 
L 296.122488 186.285716 
L 297.704625 186.131915 
L 298.495694 185.970443 
L 299.286762 184.962104 
L 300.077831 218.906953 
L 300.8689 218.361553 
L 301.659968 215.867746 
L 302.451037 214.504628 
L 303.242105 214.032101 
L 304.033174 213.787783 
L 304.824242 224.036095 
L 305.615311 223.968975 
L 306.40638 223.558966 
L 307.197448 224.103216 
L 307.988517 218.175534 
L 308.779585 220.692737 
L 309.570654 216.597247 
L 310.361722 213.484399 
L 311.152791 216.275837 
L 311.94386 213.973419 
L 312.734928 213.62516 
L 313.525997 213.75825 
L 314.317065 211.025495 
L 315.108134 210.129151 
L 315.899203 210.552201 
L 316.690271 213.500125 
L 317.48134 214.803026 
L 318.272408 214.679141 
L 319.854545 209.655473 
L 320.645614 210.56294 
L 321.436683 211.129819 
L 322.227751 209.986472 
L 323.01882 208.322272 
L 323.809888 208.071051 
L 324.600957 219.379864 
L 325.392026 219.481887 
L 326.183094 215.234513 
L 326.974163 215.067288 
L 327.765231 212.808594 
L 328.5563 212.703119 
L 329.347368 212.380558 
L 330.138437 209.688842 
L 330.929506 209.701499 
L 331.720574 209.35324 
L 332.511643 209.163002 
L 333.302711 208.120528 
L 334.09378 203.614646 
L 334.884848 202.322867 
L 335.675917 203.175487 
L 336.466986 203.163981 
L 337.258054 203.870086 
L 338.049123 204.839304 
L 338.840191 204.319601 
L 339.63126 204.229851 
L 341.213397 203.115271 
L 342.004466 195.866277 
L 342.795534 195.427502 
L 343.586603 195.700586 
L 344.377671 195.822937 
L 345.16874 196.321545 
L 345.959809 200.647545 
L 346.750877 200.572753 
L 347.541946 200.856576 
L 348.333014 204.906808 
L 349.124083 203.853594 
L 349.915152 201.867984 
L 350.70622 202.126109 
L 351.497289 202.624334 
L 352.288357 202.273774 
L 353.079426 205.29879 
L 353.870494 204.124377 
L 354.661563 199.402175 
L 355.452632 198.68418 
L 356.2437 198.281074 
L 357.034769 196.447731 
L 357.825837 196.437375 
L 358.616906 198.961099 
L 359.407974 199.167829 
L 360.199043 196.335736 
L 361.78118 193.96543 
L 363.363317 193.301898 
L 364.154386 193.148097 
L 364.945455 192.698582 
L 365.736523 192.043488 
L 366.527592 194.307552 
L 367.31866 193.983457 
L 368.109729 194.648907 
L 368.900797 193.594926 
L 369.691866 191.852483 
L 370.482935 191.037451 
L 371.274003 189.802437 
L 372.065072 189.859969 
L 372.85614 189.168821 
L 373.647209 188.932558 
L 374.438278 189.265091 
L 375.229346 187.702914 
L 376.020415 186.79468 
L 376.811483 187.247263 
L 377.602552 185.08177 
L 378.39362 186.041782 
L 379.184689 185.574241 
L 379.975758 185.577693 
L 380.766826 185.744535 
L 381.557895 183.350449 
L 383.140032 181.15504 
L 383.9311 180.283243 
L 384.722169 182.145352 
L 385.513238 182.279593 
L 386.304306 185.540106 
L 387.095375 186.242759 
L 387.886443 185.902555 
L 388.677512 187.475855 
L 389.468581 186.27958 
L 390.259649 184.740415 
L 391.050718 184.774551 
L 391.841786 181.146219 
L 392.632855 179.256494 
L 393.423923 181.835065 
L 395.006061 182.31718 
L 395.797129 181.319964 
L 396.588198 178.002303 
L 397.379266 177.827407 
L 398.170335 173.543597 
L 398.961404 174.050643 
L 399.752472 171.717541 
L 400.543541 165.144737 
L 401.334609 164.536819 
L 402.125678 163.236986 
L 402.916746 160.208134 
L 403.707815 164.169767 
L 404.498884 161.667522 
L 405.289952 160.214271 
L 406.081021 161.667522 
L 406.872089 161.417834 
L 408.454226 161.647961 
L 409.245295 156.295596 
L 410.036364 158.514018 
L 410.827432 158.589576 
L 411.618501 159.303353 
L 412.409569 160.220024 
L 413.200638 160.085784 
L 413.991707 160.313226 
L 414.782775 157.927195 
L 415.573844 157.991246 
L 416.364912 157.771092 
L 417.155981 156.76237 
L 418.738118 156.324362 
L 419.529187 150.671681 
L 420.320255 147.260819 
L 421.111324 152.651538 
L 421.902392 154.778677 
L 422.693461 155.009187 
L 423.48453 154.970449 
L 424.275598 152.953388 
L 425.066667 152.867474 
L 425.857735 153.433969 
L 426.648804 154.161937 
L 427.439872 161.113683 
L 428.230941 159.983761 
L 429.813078 166.994573 
L 430.604147 165.847391 
L 431.395215 168.589351 
L 432.186284 166.756775 
L 432.977352 165.909909 
L 434.55949 162.817772 
L 435.350558 164.179355 
L 436.141627 164.771165 
L 436.932695 166.240908 
L 437.723764 166.851511 
L 438.514833 158.347176 
L 439.305901 157.572416 
L 440.09697 157.5145 
L 440.888038 158.208333 
L 442.470175 161.13286 
L 443.261244 161.690534 
L 444.052313 159.668871 
L 444.843381 160.032471 
L 445.63445 164.540654 
L 446.425518 164.75122 
L 447.216587 163.931969 
L 448.007656 163.759374 
L 448.798724 163.959968 
L 449.589793 167.010682 
L 450.380861 167.222782 
L 451.17193 167.821495 
L 451.962998 166.489061 
L 452.754067 169.33036 
L 453.545136 170.892153 
L 454.336204 169.848528 
L 455.127273 168.381087 
L 455.918341 166.344848 
L 456.70941 165.924483 
L 457.500478 165.961687 
L 458.291547 164.512272 
L 459.082616 164.58131 
L 459.873684 165.464997 
L 460.664753 166.558866 
L 461.455821 171.548782 
L 462.24689 168.531053 
L 463.037959 170.261606 
L 463.829027 170.496335 
L 464.620096 170.385107 
L 465.411164 171.739787 
L 466.202233 168.251065 
L 467.78437 166.647848 
L 468.575439 166.497499 
L 469.366507 167.712568 
L 470.157576 167.202838 
L 470.948644 169.568541 
L 471.739713 169.588869 
L 472.530781 169.87576 
L 473.32185 169.2525 
L 474.112919 173.259007 
L 474.903987 173.689344 
L 475.695056 172.960993 
L 476.486124 174.785131 
L 477.277193 173.921772 
L 478.068262 172.649171 
L 478.85933 172.623474 
L 479.650399 175.526906 
L 480.441467 174.859539 
L 481.232536 172.083826 
L 482.023604 172.762317 
L 482.814673 171.57678 
L 483.605742 169.270527 
L 484.39681 170.01537 
L 485.187879 167.297573 
L 485.978947 168.241476 
L 487.561085 167.487428 
L 488.352153 168.363827 
L 489.143222 167.356639 
L 489.93429 167.949982 
L 490.725359 169.766833 
L 491.516427 170.411188 
L 492.307496 169.590019 
L 493.098565 169.978933 
L 493.889633 169.550898 
L 495.47177 167.205906 
L 496.262839 166.997641 
L 497.053907 168.504204 
L 497.844976 163.562616 
L 498.636045 164.030924 
L 499.427113 166.036862 
L 500.218182 165.851993 
L 501.00925 166.543908 
L 501.800319 162.63367 
L 502.591388 161.582758 
L 503.382456 161.595032 
L 504.173525 158.728419 
L 504.964593 159.941187 
L 505.755662 160.055867 
L 506.54673 160.391469 
L 507.337799 161.417451 
L 508.128868 159.534246 
L 508.919936 158.919808 
L 509.711005 157.458503 
L 510.502073 153.242964 
L 511.293142 154.996147 
L 512.084211 151.157632 
L 512.875279 141.501513 
L 513.666348 141.2058 
L 514.457416 138.146264 
L 515.248485 139.854189 
L 516.039553 143.823875 
L 516.830622 133.175143 
L 517.621691 139.103592 
L 518.412759 140.844117 
L 519.203828 142.994268 
L 519.994896 152.106138 
L 520.785965 149.346534 
L 521.577033 148.267623 
L 522.368102 145.858196 
L 523.159171 144.006826 
L 523.950239 146.709282 
L 524.741308 147.449523 
L 525.532376 147.966541 
L 526.323445 151.748674 
L 527.114514 151.961925 
L 527.905582 152.730165 
L 528.696651 157.662549 
L 530.278788 150.545495 
L 531.069856 149.371848 
L 531.860925 149.512226 
L 532.651994 150.733048 
L 534.234131 151.360911 
L 535.025199 150.854248 
L 535.816268 151.345569 
L 536.607337 149.753859 
L 537.398405 141.3573 
L 538.189474 144.324018 
L 538.980542 148.548762 
L 539.771611 151.598708 
L 540.562679 152.11074 
L 541.353748 151.66161 
L 542.144817 155.065568 
L 543.726954 156.12837 
L 544.518022 155.849533 
L 545.309091 155.753264 
L 546.100159 145.841704 
L 546.891228 144.684933 
L 547.682297 142.973941 
L 548.473365 143.715716 
L 549.264434 144.282978 
L 550.055502 140.736725 
L 550.846571 137.774993 
L 551.63764 137.812197 
L 552.428708 135.792451 
L 553.219777 142.438896 
L 554.010845 141.97519 
L 554.801914 139.916323 
L 555.592982 140.199379 
L 556.384051 148.548762 
L 557.966188 150.667462 
L 558.757257 148.985619 
L 559.548325 149.598907 
L 560.339394 151.301461 
L 561.130463 150.939779 
L 561.921531 152.142958 
L 562.7126 151.905928 
L 563.503668 152.562939 
L 564.294737 152.2492 
L 565.085805 152.575596 
L 565.876874 154.089064 
L 567.459011 154.462252 
L 568.25008 153.266744 
L 569.832217 152.366948 
L 571.414354 153.406354 
L 572.205423 152.342785 
L 572.996491 151.625173 
L 573.78756 151.744839 
L 574.578628 152.103837 
L 575.369697 153.726614 
L 576.160766 153.953672 
L 576.951834 154.957025 
L 577.742903 155.633214 
L 578.533971 155.112361 
L 579.32504 154.746459 
L 580.116108 154.805525 
L 580.907177 154.126651 
L 581.698246 156.998633 
L 582.489314 156.91502 
L 584.071451 151.515096 
L 584.86252 157.67022 
L 585.653589 159.51737 
L 586.444657 159.288011 
L 588.026794 159.330201 
L 589.608931 160.421769 
L 590.4 162.861496 
L 591.191069 161.694753 
L 591.982137 163.467113 
L 592.773206 164.299405 
L 593.564274 165.382151 
L 594.355343 165.90032 
L 595.146411 177.415864 
L 595.93748 176.530643 
L 596.728549 179.949176 
L 597.519617 177.688564 
L 598.310686 176.921475 
L 599.101754 174.948138 
L 599.892823 176.469275 
L 600.683892 154.648655 
L 601.47496 152.028662 
L 602.266029 151.527753 
L 603.057097 151.446825 
L 604.639234 154.020025 
L 605.430303 153.789899 
L 606.221372 153.30855 
L 607.01244 151.818479 
L 607.803509 151.517397 
L 608.594577 147.792412 
L 609.385646 147.812356 
L 610.176715 144.693371 
L 610.967783 144.98103 
L 611.758852 143.036842 
L 612.54992 142.363337 
L 613.340989 144.217009 
L 614.132057 152.271062 
L 614.923126 153.619605 
L 615.714195 154.614136 
L 616.505263 154.558139 
L 617.296332 151.530437 
L 618.0874 147.602557 
L 618.878469 147.578394 
L 620.460606 146.922916 
L 621.251675 147.34098 
L 622.042743 148.500818 
L 622.833812 150.9183 
L 623.62488 152.10422 
L 624.415949 153.718559 
L 625.207018 151.60216 
L 625.998086 152.409905 
L 626.789155 147.813507 
L 627.580223 149.258319 
L 628.371292 155.574532 
L 629.16236 146.727308 
L 629.953429 152.848297 
L 630.744498 153.391396 
L 631.535566 180.149386 
L 632.326635 180.576271 
L 633.117703 177.230612 
L 633.908772 177.156204 
L 634.699841 175.331299 
L 635.490909 175.180949 
L 636.281978 183.85903 
L 637.073046 181.693537 
L 637.864115 182.344412 
L 638.655183 181.764876 
L 639.446252 180.961734 
L 640.237321 184.629954 
L 641.028389 184.269422 
L 641.819458 186.482858 
L 642.610526 186.807337 
L 643.401595 186.162599 
L 644.192663 187.104968 
L 644.983732 187.386489 
L 645.774801 178.640138 
L 646.565869 176.014392 
L 648.148006 172.489617 
L 648.939075 171.818797 
L 649.730144 174.821184 
L 650.521212 173.937881 
L 651.312281 173.553186 
L 652.103349 175.234645 
L 652.894418 173.525571 
L 653.685486 177.769492 
L 654.476555 178.066355 
L 655.267624 181.748384 
L 656.058692 184.510288 
L 656.849761 184.221479 
L 657.640829 182.265785 
L 658.431898 179.653463 
L 659.222967 179.789621 
L 660.014035 181.093673 
L 660.805104 178.814651 
L 661.596172 179.863645 
L 662.387241 179.699872 
L 663.178309 179.12839 
L 663.969378 179.084666 
L 664.760447 178.037206 
L 665.551515 187.160582 
L 666.342584 187.137185 
L 667.133652 186.093177 
L 667.924721 185.921733 
L 668.715789 182.520075 
L 669.506858 185.800149 
L 670.297927 189.561955 
L 671.088995 189.865338 
L 671.880064 191.997079 
L 672.671132 192.316572 
L 673.462201 193.366717 
L 674.25327 193.705771 
L 675.044338 191.015205 
L 675.835407 191.68449 
L 676.626475 190.78201 
L 677.417544 189.595706 
L 678.208612 189.690058 
L 678.999681 189.665895 
L 679.79075 189.44574 
L 680.581818 190.534624 
L 681.372887 189.796684 
L 682.955024 187.461664 
L 683.746093 187.558701 
L 684.537161 185.055689 
L 685.32823 185.00276 
L 686.119298 184.417854 
L 686.910367 183.02482 
L 687.701435 184.400595 
L 688.492504 184.959419 
L 689.283573 184.9249 
L 690.86571 185.009663 
L 691.656778 185.436932 
L 692.447847 185.331457 
L 693.238915 184.99739 
L 694.029984 186.084739 
L 694.821053 182.132312 
L 695.612121 182.705711 
L 696.40319 183.974477 
L 697.194258 180.440496 
L 697.985327 181.406262 
L 698.776396 178.522006 
L 700.358533 178.764023 
L 701.149601 177.779464 
L 701.94067 178.01496 
L 702.731738 180.567066 
L 703.522807 183.549509 
L 704.313876 186.039481 
L 705.104944 186.226267 
L 706.687081 185.763329 
L 707.47815 182.36589 
L 708.269219 179.713679 
L 709.060287 182.49246 
L 709.851356 182.098176 
L 710.642424 182.796227 
L 711.433493 181.97199 
L 712.224561 183.827195 
L 713.01563 177.919074 
L 713.806699 177.797874 
L 714.597767 182.017248 
L 715.388836 183.180923 
L 716.179904 183.063175 
L 716.970973 185.113604 
L 717.762041 184.654501 
L 718.55311 186.331358 
L 719.344179 183.359271 
L 720.135247 183.692571 
L 720.926316 179.393803 
L 721.717384 178.447982 
L 722.508453 175.354695 
L 723.299522 175.58137 
L 724.09059 175.638901 
L 724.881659 176.045842 
L 725.672727 174.657794 
L 726.463796 172.588187 
L 727.254864 179.088118 
L 728.045933 181.911774 
L 728.837002 180.800645 
L 729.62807 181.034607 
L 730.419139 176.796439 
L 732.001276 176.757701 
L 732.792344 176.618474 
L 733.583413 176.603516 
L 734.374482 176.328515 
L 735.16555 172.068101 
L 735.956619 172.56249 
L 736.747687 172.788398 
L 737.538756 176.922625 
L 738.329825 178.334453 
L 739.120893 178.31029 
L 739.911962 178.408861 
L 740.70303 181.562364 
L 741.494099 181.710796 
L 742.285167 186.632441 
L 743.076236 186.355522 
L 743.867305 185.207572 
L 744.658373 186.26769 
L 745.449442 186.384671 
L 746.24051 187.372682 
L 747.031579 186.902073 
L 747.822648 184.249094 
L 748.613716 192.579684 
L 749.404785 192.441991 
L 750.195853 193.319541 
L 750.986922 193.072538 
L 751.77799 193.548134 
L 752.569059 197.23208 
L 753.360128 191.321274 
L 754.151196 191.318589 
L 754.942265 191.727831 
L 755.733333 192.514481 
L 756.524402 191.92037 
L 757.31547 193.175328 
L 758.106539 193.255489 
L 758.897608 193.067552 
L 759.688676 193.026897 
L 761.270813 193.616021 
L 762.061882 195.418297 
L 762.852951 193.637116 
L 763.644019 190.223185 
L 764.435088 184.336159 
L 765.226156 184.090307 
L 766.017225 186.598689 
L 766.808293 190.259622 
L 767.599362 190.474407 
L 768.390431 191.559838 
L 769.181499 190.150695 
L 769.972568 192.063816 
L 770.763636 192.466538 
L 771.554705 191.204293 
L 772.345774 188.092595 
L 773.136842 183.493512 
L 773.927911 183.539537 
L 774.718979 184.071513 
L 775.510048 184.784906 
L 776.301116 183.979079 
L 777.092185 183.980613 
L 777.883254 185.948581 
L 778.674322 186.259635 
L 779.465391 188.446607 
L 780.256459 188.68172 
L 781.047528 188.625722 
L 781.838596 189.226737 
L 782.629665 190.454846 
L 783.420734 191.092681 
L 784.211802 187.855181 
L 785.002871 188.517563 
L 785.793939 186.978014 
L 786.585008 188.408636 
L 787.376077 188.654871 
L 788.958214 183.954916 
L 789.749282 184.096444 
L 790.540351 185.268173 
L 792.122488 187.06086 
L 792.913557 188.594271 
L 793.704625 190.662344 
L 794.495694 190.735985 
L 795.286762 188.641447 
L 796.077831 188.521782 
L 796.8689 184.165865 
L 797.659968 184.008228 
L 798.451037 184.016666 
L 799.242105 183.798046 
L 800.033174 182.391971 
L 800.824242 183.281795 
L 801.615311 184.542506 
L 802.40638 176.455084 
L 803.197448 177.651744 
L 803.988517 177.876501 
L 804.779585 177.972387 
L 805.570654 177.203763 
L 806.361722 180.074978 
L 807.152791 179.29715 
L 807.94386 177.513284 
L 808.734928 177.667085 
L 809.525997 175.961079 
L 810.317065 176.035103 
L 811.108134 177.086399 
L 811.899203 176.651459 
L 812.690271 178.12312 
L 813.48134 178.115449 
L 814.272408 179.631984 
L 815.063477 180.781468 
L 815.854545 184.675213 
L 816.645614 186.770133 
L 817.436683 186.775503 
L 818.227751 185.568871 
L 819.01882 185.361757 
L 819.809888 186.638961 
L 820.600957 186.821145 
L 821.392026 181.764492 
L 822.183094 181.722686 
L 822.974163 182.042179 
L 823.765231 180.649528 
L 824.5563 180.550957 
L 825.347368 178.97037 
L 826.138437 180.110648 
L 827.720574 188.921819 
L 828.511643 188.920668 
L 829.302711 185.770616 
L 830.09378 186.299524 
L 830.884848 190.064014 
L 831.675917 189.106303 
L 832.466986 188.412855 
L 834.049123 188.458497 
L 834.840191 187.810306 
L 835.63126 187.593987 
L 836.422329 190.21283 
L 837.213397 189.110906 
L 838.004466 189.429632 
L 838.795534 188.521014 
L 839.586603 191.089229 
L 840.377671 197.135427 
L 841.16874 197.731071 
L 841.959809 201.148837 
L 842.750877 201.015364 
L 843.541946 202.166765 
L 844.333014 204.329189 
L 845.124083 204.593835 
L 845.915152 207.894237 
L 846.70622 207.702464 
L 847.497289 208.599959 
L 848.288357 213.565711 
L 849.079426 213.868328 
L 849.870494 215.244102 
L 850.661563 215.282073 
L 851.452632 213.960378 
L 852.2437 213.846082 
L 853.034769 215.804077 
L 853.825837 216.429255 
L 854.616906 219.033139 
L 855.407974 213.716444 
L 856.199043 212.859605 
L 857.78118 212.700051 
L 858.572249 213.442593 
L 859.363317 210.148328 
L 860.154386 210.434836 
L 860.945455 210.533407 
L 861.736523 211.216884 
L 862.527592 212.194539 
L 864.109729 212.423131 
L 864.900797 212.952807 
L 865.691866 213.149181 
L 866.482935 219.96707 
L 867.274003 219.554376 
L 868.065072 214.183601 
L 868.85614 213.730635 
L 869.647209 212.364066 
L 870.438278 211.671767 
L 871.229346 211.509528 
L 872.020415 213.325612 
L 872.811483 218.380346 
L 873.602552 218.368456 
L 874.39362 218.611624 
L 875.184689 218.575187 
L 875.975758 218.09077 
L 876.766826 206.069715 
L 877.557895 205.403498 
L 878.348963 203.270606 
L 879.140032 202.681098 
L 879.9311 202.457875 
L 880.722169 200.447718 
L 881.513238 200.504099 
L 882.304306 203.105298 
L 883.886443 214.665333 
L 884.677512 214.359265 
L 885.468581 215.432806 
L 886.259649 216.044943 
L 887.050718 216.198745 
L 887.841786 216.680477 
L 890.214992 217.083582 
L 891.797129 221.554945 
L 892.588198 228.207527 
L 894.170335 228.405052 
L 894.961404 229.361229 
L 895.752472 230.708621 
L 896.543541 231.436589 
L 897.334609 231.665181 
L 898.125678 231.687043 
L 898.916746 232.171844 
L 899.707815 232.461803 
L 900.498884 232.522403 
L 901.289952 232.871046 
L 902.081021 236.415381 
L 902.872089 236.900949 
L 903.663158 238.635721 
L 904.454226 239.400893 
L 905.245295 240.676179 
L 906.036364 242.871588 
L 906.827432 245.412571 
L 907.618501 245.73705 
L 908.409569 248.183297 
L 909.200638 248.227405 
L 909.991707 248.861788 
L 910.782775 249.008685 
L 911.573844 249.740105 
L 912.364912 249.916919 
L 913.155981 251.234778 
L 913.947049 251.07369 
L 914.738118 253.387998 
L 915.529187 254.829358 
L 916.320255 258.30504 
L 917.902392 258.471498 
L 918.693461 258.915643 
L 919.48453 261.027823 
L 920.275598 261.635741 
L 921.066667 271.263862 
L 921.857735 271.67157 
L 923.439872 274.151186 
L 924.230941 274.200279 
L 925.02201 276.16863 
L 925.813078 276.336623 
L 926.604147 278.402778 
L 927.395215 279.872904 
L 928.186284 280.182808 
L 928.977352 281.795997 
L 929.768421 281.827831 
L 930.55949 282.104367 
L 931.350558 283.089309 
L 932.932695 286.010769 
L 935.305901 286.281935 
L 936.09697 286.414258 
L 936.888038 288.230341 
L 937.679107 288.317406 
L 939.261244 288.804891 
L 940.052313 289.62491 
L 940.843381 295.531113 
L 941.63445 295.641574 
L 942.425518 296.244506 
L 943.216587 298.198666 
L 944.007656 298.589881 
L 944.798724 301.1044 
L 945.589793 301.1044 
L 947.962998 301.986553 
L 948.754067 306.537693 
L 949.545136 306.729465 
L 950.336204 309.464522 
L 951.127273 311.541416 
L 951.918341 312.064954 
L 952.70941 312.898397 
L 953.500478 313.223643 
L 955.082616 315.927632 
L 958.24689 318.685702 
L 959.037959 318.898952 
L 959.829027 319.388739 
L 962.202233 319.990137 
L 962.993301 320.240208 
L 963.78437 320.673997 
L 964.575439 320.911795 
L 965.366507 322.322855 
L 966.157576 322.483944 
L 966.948644 323.105286 
L 970.112919 323.615401 
L 970.903987 326.791917 
L 971.695056 326.878982 
L 972.486124 328.034985 
L 973.277193 328.135857 
L 974.068262 328.70964 
L 974.85933 335.926032 
L 975.650399 336.586496 
L 978.023604 336.789008 
L 978.814673 340.794364 
L 980.39681 341.062845 
L 981.978947 341.155663 
L 983.561085 343.78793 
L 984.352153 344.48368 
L 985.143222 347.53938 
L 985.93429 347.926376 
L 986.725359 347.868844 
L 987.516427 348.491721 
L 988.307496 348.732587 
L 989.098565 350.083431 
L 989.889633 350.130224 
L 990.680702 350.814084 
L 992.262839 351.121303 
L 993.053907 354.024736 
L 993.844976 354.546356 
L 994.636045 354.647228 
L 995.427113 355.746084 
L 996.218182 369.36 
L 996.218182 369.36 
" clip-path="url(#p39b76b4697)" style="fill: none; stroke: #1f77b4; stroke-width: 1.5; stroke-linecap: square"/>
   </g>
   <g id="line2d_17">
    <path d="M 184.581818 340.338713 
L 996.218182 340.338713 
L 996.218182 340.338713 
" clip-path="url(#p39b76b4697)" style="fill: none; stroke-dasharray: 5.55,2.4; stroke-dashoffset: 0; stroke: #ff7f0e; stroke-width: 1.5"/>
   </g>
   <g id="line2d_18">
    <path d="M 184.581818 203.649165 
L 996.218182 203.649165 
L 996.218182 203.649165 
" clip-path="url(#p39b76b4697)" style="fill: none; stroke-dasharray: 5.55,2.4; stroke-dashoffset: 0; stroke: #2ca02c; stroke-width: 1.5"/>
   </g>
   <g id="line2d_19">
    <path d="M 184.581818 66.96 
L 996.218182 66.96 
L 996.218182 66.96 
" clip-path="url(#p39b76b4697)" style="fill: none; stroke-dasharray: 5.55,2.4; stroke-dashoffset: 0; stroke: #d62728; stroke-width: 1.5"/>
   </g>
   <g id="patch_3">
    <path d="M 144 384.48 
L 144 51.84 
" style="fill: none; stroke: #000000; stroke-width: 0.8; stroke-linejoin: miter; stroke-linecap: square"/>
   </g>
   <g id="patch_4">
    <path d="M 1036.8 384.48 
L 1036.8 51.84 
" style="fill: none; stroke: #000000; stroke-width: 0.8; stroke-linejoin: miter; stroke-linecap: square"/>
   </g>
   <g id="patch_5">
    <path d="M 144 384.48 
L 1036.8 384.48 
" style="fill: none; stroke: #000000; stroke-width: 0.8; stroke-linejoin: miter; stroke-linecap: square"/>
   </g>
   <g id="patch_6">
    <path d="M 144 51.84 
L 1036.8 51.84 
" style="fill: none; stroke: #000000; stroke-width: 0.8; stroke-linejoin: miter; stroke-linecap: square"/>
   </g>
   <g id="text_18">
    <!-- MP -->
    <g transform="translate(581.605312 45.84)scale(0.12 -0.12)">
     <defs>
      <path id="DejaVuSans-4d" d="M 628 4666 
L 1569 4666 
L 2759 1491 
L 3956 4666 
L 4897 4666 
L 4897 0 
L 4281 0 
L 4281 4097 
L 3078 897 
L 2444 897 
L 1241 4097 
L 1241 0 
L 628 0 
L 628 4666 
z
" transform="scale(0.015625)"/>
     </defs>
     <use xlink:href="#DejaVuSans-4d"/>
     <use xlink:href="#DejaVuSans-50" x="86.279297"/>
    </g>
   </g>
   <g id="legend_1">
    <g id="patch_7">
     <path d="M 146 28.936045 
L 1034.8 28.936045 
Q 1036.8 28.936045 1036.8 26.936045 
L 1036.8 13.25792 
Q 1036.8 11.25792 1034.8 11.25792 
L 146 11.25792 
Q 144 11.25792 144 13.25792 
L 144 26.936045 
Q 144 28.936045 146 28.936045 
z
" style="fill: #ffffff; opacity: 0.8; stroke: #cccccc; stroke-linejoin: miter"/>
    </g>
    <g id="line2d_20">
     <path d="M 148 19.356358 
L 158 19.356358 
L 168 19.356358 
" style="fill: none; stroke-dasharray: 5.55,2.4; stroke-dashoffset: 0; stroke: #ff7f0e; stroke-width: 1.5"/>
    </g>
    <g id="text_19">
     <!-- Average depth * 0.2 -->
     <g transform="translate(176 22.856358)scale(0.1 -0.1)">
      <defs>
       <path id="DejaVuSans-41" d="M 2188 4044 
L 1331 1722 
L 3047 1722 
L 2188 4044 
z
M 1831 4666 
L 2547 4666 
L 4325 0 
L 3669 0 
L 3244 1197 
L 1141 1197 
L 716 0 
L 50 0 
L 1831 4666 
z
" transform="scale(0.015625)"/>
       <path id="DejaVuSans-64" d="M 2906 2969 
L 2906 4863 
L 3481 4863 
L 3481 0 
L 2906 0 
L 2906 525 
Q 2725 213 2448 61 
Q 2172 -91 1784 -91 
Q 1150 -91 751 415 
Q 353 922 353 1747 
Q 353 2572 751 3078 
Q 1150 3584 1784 3584 
Q 2172 3584 2448 3432 
Q 2725 3281 2906 2969 
z
M 947 1747 
Q 947 1113 1208 752 
Q 1469 391 1925 391 
Q 2381 391 2643 752 
Q 2906 1113 2906 1747 
Q 2906 2381 2643 2742 
Q 2381 3103 1925 3103 
Q 1469 3103 1208 2742 
Q 947 2381 947 1747 
z
" transform="scale(0.015625)"/>
       <path id="DejaVuSans-2a" d="M 3009 3897 
L 1888 3291 
L 3009 2681 
L 2828 2375 
L 1778 3009 
L 1778 1831 
L 1422 1831 
L 1422 3009 
L 372 2375 
L 191 2681 
L 1313 3291 
L 191 3897 
L 372 4206 
L 1422 3572 
L 1422 4750 
L 1778 4750 
L 1778 3572 
L 2828 4206 
L 3009 3897 
z
" transform="scale(0.015625)"/>
       <path id="DejaVuSans-2e" d="M 684 794 
L 1344 794 
L 1344 0 
L 684 0 
L 684 794 
z
" transform="scale(0.015625)"/>
      </defs>
      <use xlink:href="#DejaVuSans-41"/>
      <use xlink:href="#DejaVuSans-76" x="62.533203"/>
      <use xlink:href="#DejaVuSans-65" x="121.712891"/>
      <use xlink:href="#DejaVuSans-72" x="183.236328"/>
      <use xlink:href="#DejaVuSans-61" x="224.349609"/>
      <use xlink:href="#DejaVuSans-67" x="285.628906"/>
      <use xlink:href="#DejaVuSans-65" x="349.105469"/>
      <use xlink:href="#DejaVuSans-20" x="410.628906"/>
      <use xlink:href="#DejaVuSans-64" x="442.416016"/>
      <use xlink:href="#DejaVuSans-65" x="505.892578"/>
      <use xlink:href="#DejaVuSans-70" x="567.416016"/>
      <use xlink:href="#DejaVuSans-74" x="630.892578"/>
      <use xlink:href="#DejaVuSans-68" x="670.101562"/>
      <use xlink:href="#DejaVuSans-20" x="733.480469"/>
      <use xlink:href="#DejaVuSans-2a" x="765.267578"/>
      <use xlink:href="#DejaVuSans-20" x="815.267578"/>
      <use xlink:href="#DejaVuSans-30" x="847.054688"/>
      <use xlink:href="#DejaVuSans-2e" x="910.677734"/>
      <use xlink:href="#DejaVuSans-32" x="942.464844"/>
     </g>
    </g>
    <g id="line2d_21">
     <path d="M 539.724219 19.356358 
L 549.724219 19.356358 
L 559.724219 19.356358 
" style="fill: none; stroke-dasharray: 5.55,2.4; stroke-dashoffset: 0; stroke: #2ca02c; stroke-width: 1.5"/>
    </g>
    <g id="text_20">
     <!-- Average depth -->
     <g transform="translate(567.724219 22.856358)scale(0.1 -0.1)">
      <use xlink:href="#DejaVuSans-41"/>
      <use xlink:href="#DejaVuSans-76" x="62.533203"/>
      <use xlink:href="#DejaVuSans-65" x="121.712891"/>
      <use xlink:href="#DejaVuSans-72" x="183.236328"/>
      <use xlink:href="#DejaVuSans-61" x="224.349609"/>
      <use xlink:href="#DejaVuSans-67" x="285.628906"/>
      <use xlink:href="#DejaVuSans-65" x="349.105469"/>
      <use xlink:href="#DejaVuSans-20" x="410.628906"/>
      <use xlink:href="#DejaVuSans-64" x="442.416016"/>
      <use xlink:href="#DejaVuSans-65" x="505.892578"/>
      <use xlink:href="#DejaVuSans-70" x="567.416016"/>
      <use xlink:href="#DejaVuSans-74" x="630.892578"/>
      <use xlink:href="#DejaVuSans-68" x="670.101562"/>
     </g>
    </g>
    <g id="line2d_22">
     <path d="M 904.189062 19.356358 
L 914.189062 19.356358 
L 924.189062 19.356358 
" style="fill: none; stroke-dasharray: 5.55,2.4; stroke-dashoffset: 0; stroke: #d62728; stroke-width: 1.5"/>
    </g>
    <g id="text_21">
     <!-- Average depth * 1.8 -->
     <g transform="translate(932.189062 22.856358)scale(0.1 -0.1)">
      <use xlink:href="#DejaVuSans-41"/>
      <use xlink:href="#DejaVuSans-76" x="62.533203"/>
      <use xlink:href="#DejaVuSans-65" x="121.712891"/>
      <use xlink:href="#DejaVuSans-72" x="183.236328"/>
      <use xlink:href="#DejaVuSans-61" x="224.349609"/>
      <use xlink:href="#DejaVuSans-67" x="285.628906"/>
      <use xlink:href="#DejaVuSans-65" x="349.105469"/>
      <use xlink:href="#DejaVuSans-20" x="410.628906"/>
      <use xlink:href="#DejaVuSans-64" x="442.416016"/>
      <use xlink:href="#DejaVuSans-65" x="505.892578"/>
      <use xlink:href="#DejaVuSans-70" x="567.416016"/>
      <use xlink:href="#DejaVuSans-74" x="630.892578"/>
      <use xlink:href="#DejaVuSans-68" x="670.101562"/>
      <use xlink:href="#DejaVuSans-20" x="733.480469"/>
      <use xlink:href="#DejaVuSans-2a" x="765.267578"/>
      <use xlink:href="#DejaVuSans-20" x="815.267578"/>
      <use xlink:href="#DejaVuSans-31" x="847.054688"/>
      <use xlink:href="#DejaVuSans-2e" x="910.677734"/>
      <use xlink:href="#DejaVuSans-38" x="942.464844"/>
     </g>
    </g>
   </g>
  </g>
 </g>
 <defs>
  <clipPath id="p39b76b4697">
   <rect x="144" y="51.84" width="892.8" height="332.64"/>
  </clipPath>
 </defs>
</svg>
