<?xml version="1.0" encoding="utf-8" standalone="no"?>
<!DOCTYPE svg PUBLIC "-//W3C//DTD SVG 1.1//EN"
  "http://www.w3.org/Graphics/SVG/1.1/DTD/svg11.dtd">
<svg xmlns:xlink="http://www.w3.org/1999/xlink" width="1152pt" height="432pt" viewBox="0 0 1152 432" xmlns="http://www.w3.org/2000/svg" version="1.1">
 <metadata>
  <rdf:RDF xmlns:dc="http://purl.org/dc/elements/1.1/" xmlns:cc="http://creativecommons.org/ns#" xmlns:rdf="http://www.w3.org/1999/02/22-rdf-syntax-ns#">
   <cc:Work>
    <dc:type rdf:resource="http://purl.org/dc/dcmitype/StillImage"/>
    <dc:date>2022-11-25T09:58:50.159876</dc:date>
    <dc:format>image/svg+xml</dc:format>
    <dc:creator>
     <cc:Agent>
      <dc:title>Matplotlib v3.5.2, https://matplotlib.org/</dc:title>
     </cc:Agent>
    </dc:creator>
   </cc:Work>
  </rdf:RDF>
 </metadata>
 <defs>
  <style type="text/css">*{stroke-linejoin: round; stroke-linecap: butt}</style>
 </defs>
 <g id="figure_1">
  <g id="patch_1">
   <path d="M 0 432 
L 1152 432 
L 1152 0 
L 0 0 
z
" style="fill: #ffffff"/>
  </g>
  <g id="axes_1">
   <g id="patch_2">
    <path d="M 144 384.48 
L 1036.8 384.48 
L 1036.8 51.84 
L 144 51.84 
z
" style="fill: #ffffff"/>
   </g>
   <g id="matplotlib.axis_1">
    <g id="xtick_1">
     <g id="line2d_1">
      <defs>
       <path id="mabc7f997c5" d="M 0 0 
L 0 3.5 
" style="stroke: #000000; stroke-width: 0.8"/>
      </defs>
      <g>
       <use xlink:href="#mabc7f997c5" x="184.581818" y="384.48" style="stroke: #000000; stroke-width: 0.8"/>
      </g>
     </g>
     <g id="text_1">
      <!-- 0 -->
      <g transform="translate(181.400568 399.078438)scale(0.1 -0.1)">
       <defs>
        <path id="DejaVuSans-30" d="M 2034 4250 
Q 1547 4250 1301 3770 
Q 1056 3291 1056 2328 
Q 1056 1369 1301 889 
Q 1547 409 2034 409 
Q 2525 409 2770 889 
Q 3016 1369 3016 2328 
Q 3016 3291 2770 3770 
Q 2525 4250 2034 4250 
z
M 2034 4750 
Q 2819 4750 3233 4129 
Q 3647 3509 3647 2328 
Q 3647 1150 3233 529 
Q 2819 -91 2034 -91 
Q 1250 -91 836 529 
Q 422 1150 422 2328 
Q 422 3509 836 4129 
Q 1250 4750 2034 4750 
z
" transform="scale(0.015625)"/>
       </defs>
       <use xlink:href="#DejaVuSans-30"/>
      </g>
     </g>
    </g>
    <g id="xtick_2">
     <g id="line2d_2">
      <g>
       <use xlink:href="#mabc7f997c5" x="288.371635" y="384.48" style="stroke: #000000; stroke-width: 0.8"/>
      </g>
     </g>
     <g id="text_2">
      <!-- 200 -->
      <g transform="translate(278.827885 399.078438)scale(0.1 -0.1)">
       <defs>
        <path id="DejaVuSans-32" d="M 1228 531 
L 3431 531 
L 3431 0 
L 469 0 
L 469 531 
Q 828 903 1448 1529 
Q 2069 2156 2228 2338 
Q 2531 2678 2651 2914 
Q 2772 3150 2772 3378 
Q 2772 3750 2511 3984 
Q 2250 4219 1831 4219 
Q 1534 4219 1204 4116 
Q 875 4013 500 3803 
L 500 4441 
Q 881 4594 1212 4672 
Q 1544 4750 1819 4750 
Q 2544 4750 2975 4387 
Q 3406 4025 3406 3419 
Q 3406 3131 3298 2873 
Q 3191 2616 2906 2266 
Q 2828 2175 2409 1742 
Q 1991 1309 1228 531 
z
" transform="scale(0.015625)"/>
       </defs>
       <use xlink:href="#DejaVuSans-32"/>
       <use xlink:href="#DejaVuSans-30" x="63.623047"/>
       <use xlink:href="#DejaVuSans-30" x="127.246094"/>
      </g>
     </g>
    </g>
    <g id="xtick_3">
     <g id="line2d_3">
      <g>
       <use xlink:href="#mabc7f997c5" x="392.161451" y="384.48" style="stroke: #000000; stroke-width: 0.8"/>
      </g>
     </g>
     <g id="text_3">
      <!-- 400 -->
      <g transform="translate(382.617701 399.078438)scale(0.1 -0.1)">
       <defs>
        <path id="DejaVuSans-34" d="M 2419 4116 
L 825 1625 
L 2419 1625 
L 2419 4116 
z
M 2253 4666 
L 3047 4666 
L 3047 1625 
L 3713 1625 
L 3713 1100 
L 3047 1100 
L 3047 0 
L 2419 0 
L 2419 1100 
L 313 1100 
L 313 1709 
L 2253 4666 
z
" transform="scale(0.015625)"/>
       </defs>
       <use xlink:href="#DejaVuSans-34"/>
       <use xlink:href="#DejaVuSans-30" x="63.623047"/>
       <use xlink:href="#DejaVuSans-30" x="127.246094"/>
      </g>
     </g>
    </g>
    <g id="xtick_4">
     <g id="line2d_4">
      <g>
       <use xlink:href="#mabc7f997c5" x="495.951267" y="384.48" style="stroke: #000000; stroke-width: 0.8"/>
      </g>
     </g>
     <g id="text_4">
      <!-- 600 -->
      <g transform="translate(486.407517 399.078438)scale(0.1 -0.1)">
       <defs>
        <path id="DejaVuSans-36" d="M 2113 2584 
Q 1688 2584 1439 2293 
Q 1191 2003 1191 1497 
Q 1191 994 1439 701 
Q 1688 409 2113 409 
Q 2538 409 2786 701 
Q 3034 994 3034 1497 
Q 3034 2003 2786 2293 
Q 2538 2584 2113 2584 
z
M 3366 4563 
L 3366 3988 
Q 3128 4100 2886 4159 
Q 2644 4219 2406 4219 
Q 1781 4219 1451 3797 
Q 1122 3375 1075 2522 
Q 1259 2794 1537 2939 
Q 1816 3084 2150 3084 
Q 2853 3084 3261 2657 
Q 3669 2231 3669 1497 
Q 3669 778 3244 343 
Q 2819 -91 2113 -91 
Q 1303 -91 875 529 
Q 447 1150 447 2328 
Q 447 3434 972 4092 
Q 1497 4750 2381 4750 
Q 2619 4750 2861 4703 
Q 3103 4656 3366 4563 
z
" transform="scale(0.015625)"/>
       </defs>
       <use xlink:href="#DejaVuSans-36"/>
       <use xlink:href="#DejaVuSans-30" x="63.623047"/>
       <use xlink:href="#DejaVuSans-30" x="127.246094"/>
      </g>
     </g>
    </g>
    <g id="xtick_5">
     <g id="line2d_5">
      <g>
       <use xlink:href="#mabc7f997c5" x="599.741083" y="384.48" style="stroke: #000000; stroke-width: 0.8"/>
      </g>
     </g>
     <g id="text_5">
      <!-- 800 -->
      <g transform="translate(590.197333 399.078438)scale(0.1 -0.1)">
       <defs>
        <path id="DejaVuSans-38" d="M 2034 2216 
Q 1584 2216 1326 1975 
Q 1069 1734 1069 1313 
Q 1069 891 1326 650 
Q 1584 409 2034 409 
Q 2484 409 2743 651 
Q 3003 894 3003 1313 
Q 3003 1734 2745 1975 
Q 2488 2216 2034 2216 
z
M 1403 2484 
Q 997 2584 770 2862 
Q 544 3141 544 3541 
Q 544 4100 942 4425 
Q 1341 4750 2034 4750 
Q 2731 4750 3128 4425 
Q 3525 4100 3525 3541 
Q 3525 3141 3298 2862 
Q 3072 2584 2669 2484 
Q 3125 2378 3379 2068 
Q 3634 1759 3634 1313 
Q 3634 634 3220 271 
Q 2806 -91 2034 -91 
Q 1263 -91 848 271 
Q 434 634 434 1313 
Q 434 1759 690 2068 
Q 947 2378 1403 2484 
z
M 1172 3481 
Q 1172 3119 1398 2916 
Q 1625 2713 2034 2713 
Q 2441 2713 2670 2916 
Q 2900 3119 2900 3481 
Q 2900 3844 2670 4047 
Q 2441 4250 2034 4250 
Q 1625 4250 1398 4047 
Q 1172 3844 1172 3481 
z
" transform="scale(0.015625)"/>
       </defs>
       <use xlink:href="#DejaVuSans-38"/>
       <use xlink:href="#DejaVuSans-30" x="63.623047"/>
       <use xlink:href="#DejaVuSans-30" x="127.246094"/>
      </g>
     </g>
    </g>
    <g id="xtick_6">
     <g id="line2d_6">
      <g>
       <use xlink:href="#mabc7f997c5" x="703.5309" y="384.48" style="stroke: #000000; stroke-width: 0.8"/>
      </g>
     </g>
     <g id="text_6">
      <!-- 1000 -->
      <g transform="translate(690.8059 399.078438)scale(0.1 -0.1)">
       <defs>
        <path id="DejaVuSans-31" d="M 794 531 
L 1825 531 
L 1825 4091 
L 703 3866 
L 703 4441 
L 1819 4666 
L 2450 4666 
L 2450 531 
L 3481 531 
L 3481 0 
L 794 0 
L 794 531 
z
" transform="scale(0.015625)"/>
       </defs>
       <use xlink:href="#DejaVuSans-31"/>
       <use xlink:href="#DejaVuSans-30" x="63.623047"/>
       <use xlink:href="#DejaVuSans-30" x="127.246094"/>
       <use xlink:href="#DejaVuSans-30" x="190.869141"/>
      </g>
     </g>
    </g>
    <g id="xtick_7">
     <g id="line2d_7">
      <g>
       <use xlink:href="#mabc7f997c5" x="807.320716" y="384.48" style="stroke: #000000; stroke-width: 0.8"/>
      </g>
     </g>
     <g id="text_7">
      <!-- 1200 -->
      <g transform="translate(794.595716 399.078438)scale(0.1 -0.1)">
       <use xlink:href="#DejaVuSans-31"/>
       <use xlink:href="#DejaVuSans-32" x="63.623047"/>
       <use xlink:href="#DejaVuSans-30" x="127.246094"/>
       <use xlink:href="#DejaVuSans-30" x="190.869141"/>
      </g>
     </g>
    </g>
    <g id="xtick_8">
     <g id="line2d_8">
      <g>
       <use xlink:href="#mabc7f997c5" x="911.110532" y="384.48" style="stroke: #000000; stroke-width: 0.8"/>
      </g>
     </g>
     <g id="text_8">
      <!-- 1400 -->
      <g transform="translate(898.385532 399.078438)scale(0.1 -0.1)">
       <use xlink:href="#DejaVuSans-31"/>
       <use xlink:href="#DejaVuSans-34" x="63.623047"/>
       <use xlink:href="#DejaVuSans-30" x="127.246094"/>
       <use xlink:href="#DejaVuSans-30" x="190.869141"/>
      </g>
     </g>
    </g>
    <g id="xtick_9">
     <g id="line2d_9">
      <g>
       <use xlink:href="#mabc7f997c5" x="1014.900349" y="384.48" style="stroke: #000000; stroke-width: 0.8"/>
      </g>
     </g>
     <g id="text_9">
      <!-- 1600 -->
      <g transform="translate(1002.175349 399.078438)scale(0.1 -0.1)">
       <use xlink:href="#DejaVuSans-31"/>
       <use xlink:href="#DejaVuSans-36" x="63.623047"/>
       <use xlink:href="#DejaVuSans-30" x="127.246094"/>
       <use xlink:href="#DejaVuSans-30" x="190.869141"/>
      </g>
     </g>
    </g>
    <g id="text_10">
     <!-- Position -->
     <g transform="translate(570.935938 412.756563)scale(0.1 -0.1)">
      <defs>
       <path id="DejaVuSans-50" d="M 1259 4147 
L 1259 2394 
L 2053 2394 
Q 2494 2394 2734 2622 
Q 2975 2850 2975 3272 
Q 2975 3691 2734 3919 
Q 2494 4147 2053 4147 
L 1259 4147 
z
M 628 4666 
L 2053 4666 
Q 2838 4666 3239 4311 
Q 3641 3956 3641 3272 
Q 3641 2581 3239 2228 
Q 2838 1875 2053 1875 
L 1259 1875 
L 1259 0 
L 628 0 
L 628 4666 
z
" transform="scale(0.015625)"/>
       <path id="DejaVuSans-6f" d="M 1959 3097 
Q 1497 3097 1228 2736 
Q 959 2375 959 1747 
Q 959 1119 1226 758 
Q 1494 397 1959 397 
Q 2419 397 2687 759 
Q 2956 1122 2956 1747 
Q 2956 2369 2687 2733 
Q 2419 3097 1959 3097 
z
M 1959 3584 
Q 2709 3584 3137 3096 
Q 3566 2609 3566 1747 
Q 3566 888 3137 398 
Q 2709 -91 1959 -91 
Q 1206 -91 779 398 
Q 353 888 353 1747 
Q 353 2609 779 3096 
Q 1206 3584 1959 3584 
z
" transform="scale(0.015625)"/>
       <path id="DejaVuSans-73" d="M 2834 3397 
L 2834 2853 
Q 2591 2978 2328 3040 
Q 2066 3103 1784 3103 
Q 1356 3103 1142 2972 
Q 928 2841 928 2578 
Q 928 2378 1081 2264 
Q 1234 2150 1697 2047 
L 1894 2003 
Q 2506 1872 2764 1633 
Q 3022 1394 3022 966 
Q 3022 478 2636 193 
Q 2250 -91 1575 -91 
Q 1294 -91 989 -36 
Q 684 19 347 128 
L 347 722 
Q 666 556 975 473 
Q 1284 391 1588 391 
Q 1994 391 2212 530 
Q 2431 669 2431 922 
Q 2431 1156 2273 1281 
Q 2116 1406 1581 1522 
L 1381 1569 
Q 847 1681 609 1914 
Q 372 2147 372 2553 
Q 372 3047 722 3315 
Q 1072 3584 1716 3584 
Q 2034 3584 2315 3537 
Q 2597 3491 2834 3397 
z
" transform="scale(0.015625)"/>
       <path id="DejaVuSans-69" d="M 603 3500 
L 1178 3500 
L 1178 0 
L 603 0 
L 603 3500 
z
M 603 4863 
L 1178 4863 
L 1178 4134 
L 603 4134 
L 603 4863 
z
" transform="scale(0.015625)"/>
       <path id="DejaVuSans-74" d="M 1172 4494 
L 1172 3500 
L 2356 3500 
L 2356 3053 
L 1172 3053 
L 1172 1153 
Q 1172 725 1289 603 
Q 1406 481 1766 481 
L 2356 481 
L 2356 0 
L 1766 0 
Q 1100 0 847 248 
Q 594 497 594 1153 
L 594 3053 
L 172 3053 
L 172 3500 
L 594 3500 
L 594 4494 
L 1172 4494 
z
" transform="scale(0.015625)"/>
       <path id="DejaVuSans-6e" d="M 3513 2113 
L 3513 0 
L 2938 0 
L 2938 2094 
Q 2938 2591 2744 2837 
Q 2550 3084 2163 3084 
Q 1697 3084 1428 2787 
Q 1159 2491 1159 1978 
L 1159 0 
L 581 0 
L 581 3500 
L 1159 3500 
L 1159 2956 
Q 1366 3272 1645 3428 
Q 1925 3584 2291 3584 
Q 2894 3584 3203 3211 
Q 3513 2838 3513 2113 
z
" transform="scale(0.015625)"/>
      </defs>
      <use xlink:href="#DejaVuSans-50"/>
      <use xlink:href="#DejaVuSans-6f" x="56.677734"/>
      <use xlink:href="#DejaVuSans-73" x="117.859375"/>
      <use xlink:href="#DejaVuSans-69" x="169.958984"/>
      <use xlink:href="#DejaVuSans-74" x="197.742188"/>
      <use xlink:href="#DejaVuSans-69" x="236.951172"/>
      <use xlink:href="#DejaVuSans-6f" x="264.734375"/>
      <use xlink:href="#DejaVuSans-6e" x="325.916016"/>
     </g>
    </g>
   </g>
   <g id="matplotlib.axis_2">
    <g id="ytick_1">
     <g id="line2d_10">
      <defs>
       <path id="m34e7705f3b" d="M 0 0 
L -3.5 0 
" style="stroke: #000000; stroke-width: 0.8"/>
      </defs>
      <g>
       <use xlink:href="#m34e7705f3b" x="144" y="373.620471" style="stroke: #000000; stroke-width: 0.8"/>
      </g>
     </g>
     <g id="text_11">
      <!-- 0 -->
      <g transform="translate(130.6375 377.419689)scale(0.1 -0.1)">
       <use xlink:href="#DejaVuSans-30"/>
      </g>
     </g>
    </g>
    <g id="ytick_2">
     <g id="line2d_11">
      <g>
       <use xlink:href="#m34e7705f3b" x="144" y="314.871566" style="stroke: #000000; stroke-width: 0.8"/>
      </g>
     </g>
     <g id="text_12">
      <!-- 100000 -->
      <g transform="translate(98.825 318.670785)scale(0.1 -0.1)">
       <use xlink:href="#DejaVuSans-31"/>
       <use xlink:href="#DejaVuSans-30" x="63.623047"/>
       <use xlink:href="#DejaVuSans-30" x="127.246094"/>
       <use xlink:href="#DejaVuSans-30" x="190.869141"/>
       <use xlink:href="#DejaVuSans-30" x="254.492188"/>
       <use xlink:href="#DejaVuSans-30" x="318.115234"/>
      </g>
     </g>
    </g>
    <g id="ytick_3">
     <g id="line2d_12">
      <g>
       <use xlink:href="#m34e7705f3b" x="144" y="256.122661" style="stroke: #000000; stroke-width: 0.8"/>
      </g>
     </g>
     <g id="text_13">
      <!-- 200000 -->
      <g transform="translate(98.825 259.92188)scale(0.1 -0.1)">
       <use xlink:href="#DejaVuSans-32"/>
       <use xlink:href="#DejaVuSans-30" x="63.623047"/>
       <use xlink:href="#DejaVuSans-30" x="127.246094"/>
       <use xlink:href="#DejaVuSans-30" x="190.869141"/>
       <use xlink:href="#DejaVuSans-30" x="254.492188"/>
       <use xlink:href="#DejaVuSans-30" x="318.115234"/>
      </g>
     </g>
    </g>
    <g id="ytick_4">
     <g id="line2d_13">
      <g>
       <use xlink:href="#m34e7705f3b" x="144" y="197.373756" style="stroke: #000000; stroke-width: 0.8"/>
      </g>
     </g>
     <g id="text_14">
      <!-- 300000 -->
      <g transform="translate(98.825 201.172975)scale(0.1 -0.1)">
       <defs>
        <path id="DejaVuSans-33" d="M 2597 2516 
Q 3050 2419 3304 2112 
Q 3559 1806 3559 1356 
Q 3559 666 3084 287 
Q 2609 -91 1734 -91 
Q 1441 -91 1130 -33 
Q 819 25 488 141 
L 488 750 
Q 750 597 1062 519 
Q 1375 441 1716 441 
Q 2309 441 2620 675 
Q 2931 909 2931 1356 
Q 2931 1769 2642 2001 
Q 2353 2234 1838 2234 
L 1294 2234 
L 1294 2753 
L 1863 2753 
Q 2328 2753 2575 2939 
Q 2822 3125 2822 3475 
Q 2822 3834 2567 4026 
Q 2313 4219 1838 4219 
Q 1578 4219 1281 4162 
Q 984 4106 628 3988 
L 628 4550 
Q 988 4650 1302 4700 
Q 1616 4750 1894 4750 
Q 2613 4750 3031 4423 
Q 3450 4097 3450 3541 
Q 3450 3153 3228 2886 
Q 3006 2619 2597 2516 
z
" transform="scale(0.015625)"/>
       </defs>
       <use xlink:href="#DejaVuSans-33"/>
       <use xlink:href="#DejaVuSans-30" x="63.623047"/>
       <use xlink:href="#DejaVuSans-30" x="127.246094"/>
       <use xlink:href="#DejaVuSans-30" x="190.869141"/>
       <use xlink:href="#DejaVuSans-30" x="254.492188"/>
       <use xlink:href="#DejaVuSans-30" x="318.115234"/>
      </g>
     </g>
    </g>
    <g id="ytick_5">
     <g id="line2d_14">
      <g>
       <use xlink:href="#m34e7705f3b" x="144" y="138.624851" style="stroke: #000000; stroke-width: 0.8"/>
      </g>
     </g>
     <g id="text_15">
      <!-- 400000 -->
      <g transform="translate(98.825 142.42407)scale(0.1 -0.1)">
       <use xlink:href="#DejaVuSans-34"/>
       <use xlink:href="#DejaVuSans-30" x="63.623047"/>
       <use xlink:href="#DejaVuSans-30" x="127.246094"/>
       <use xlink:href="#DejaVuSans-30" x="190.869141"/>
       <use xlink:href="#DejaVuSans-30" x="254.492188"/>
       <use xlink:href="#DejaVuSans-30" x="318.115234"/>
      </g>
     </g>
    </g>
    <g id="ytick_6">
     <g id="line2d_15">
      <g>
       <use xlink:href="#m34e7705f3b" x="144" y="79.875947" style="stroke: #000000; stroke-width: 0.8"/>
      </g>
     </g>
     <g id="text_16">
      <!-- 500000 -->
      <g transform="translate(98.825 83.675165)scale(0.1 -0.1)">
       <defs>
        <path id="DejaVuSans-35" d="M 691 4666 
L 3169 4666 
L 3169 4134 
L 1269 4134 
L 1269 2991 
Q 1406 3038 1543 3061 
Q 1681 3084 1819 3084 
Q 2600 3084 3056 2656 
Q 3513 2228 3513 1497 
Q 3513 744 3044 326 
Q 2575 -91 1722 -91 
Q 1428 -91 1123 -41 
Q 819 9 494 109 
L 494 744 
Q 775 591 1075 516 
Q 1375 441 1709 441 
Q 2250 441 2565 725 
Q 2881 1009 2881 1497 
Q 2881 1984 2565 2268 
Q 2250 2553 1709 2553 
Q 1456 2553 1204 2497 
Q 953 2441 691 2322 
L 691 4666 
z
" transform="scale(0.015625)"/>
       </defs>
       <use xlink:href="#DejaVuSans-35"/>
       <use xlink:href="#DejaVuSans-30" x="63.623047"/>
       <use xlink:href="#DejaVuSans-30" x="127.246094"/>
       <use xlink:href="#DejaVuSans-30" x="190.869141"/>
       <use xlink:href="#DejaVuSans-30" x="254.492188"/>
       <use xlink:href="#DejaVuSans-30" x="318.115234"/>
      </g>
     </g>
    </g>
    <g id="text_17">
     <!-- Depth of coverage -->
     <g transform="translate(92.745312 264.602187)rotate(-90)scale(0.1 -0.1)">
      <defs>
       <path id="DejaVuSans-44" d="M 1259 4147 
L 1259 519 
L 2022 519 
Q 2988 519 3436 956 
Q 3884 1394 3884 2338 
Q 3884 3275 3436 3711 
Q 2988 4147 2022 4147 
L 1259 4147 
z
M 628 4666 
L 1925 4666 
Q 3281 4666 3915 4102 
Q 4550 3538 4550 2338 
Q 4550 1131 3912 565 
Q 3275 0 1925 0 
L 628 0 
L 628 4666 
z
" transform="scale(0.015625)"/>
       <path id="DejaVuSans-65" d="M 3597 1894 
L 3597 1613 
L 953 1613 
Q 991 1019 1311 708 
Q 1631 397 2203 397 
Q 2534 397 2845 478 
Q 3156 559 3463 722 
L 3463 178 
Q 3153 47 2828 -22 
Q 2503 -91 2169 -91 
Q 1331 -91 842 396 
Q 353 884 353 1716 
Q 353 2575 817 3079 
Q 1281 3584 2069 3584 
Q 2775 3584 3186 3129 
Q 3597 2675 3597 1894 
z
M 3022 2063 
Q 3016 2534 2758 2815 
Q 2500 3097 2075 3097 
Q 1594 3097 1305 2825 
Q 1016 2553 972 2059 
L 3022 2063 
z
" transform="scale(0.015625)"/>
       <path id="DejaVuSans-70" d="M 1159 525 
L 1159 -1331 
L 581 -1331 
L 581 3500 
L 1159 3500 
L 1159 2969 
Q 1341 3281 1617 3432 
Q 1894 3584 2278 3584 
Q 2916 3584 3314 3078 
Q 3713 2572 3713 1747 
Q 3713 922 3314 415 
Q 2916 -91 2278 -91 
Q 1894 -91 1617 61 
Q 1341 213 1159 525 
z
M 3116 1747 
Q 3116 2381 2855 2742 
Q 2594 3103 2138 3103 
Q 1681 3103 1420 2742 
Q 1159 2381 1159 1747 
Q 1159 1113 1420 752 
Q 1681 391 2138 391 
Q 2594 391 2855 752 
Q 3116 1113 3116 1747 
z
" transform="scale(0.015625)"/>
       <path id="DejaVuSans-68" d="M 3513 2113 
L 3513 0 
L 2938 0 
L 2938 2094 
Q 2938 2591 2744 2837 
Q 2550 3084 2163 3084 
Q 1697 3084 1428 2787 
Q 1159 2491 1159 1978 
L 1159 0 
L 581 0 
L 581 4863 
L 1159 4863 
L 1159 2956 
Q 1366 3272 1645 3428 
Q 1925 3584 2291 3584 
Q 2894 3584 3203 3211 
Q 3513 2838 3513 2113 
z
" transform="scale(0.015625)"/>
       <path id="DejaVuSans-20" transform="scale(0.015625)"/>
       <path id="DejaVuSans-66" d="M 2375 4863 
L 2375 4384 
L 1825 4384 
Q 1516 4384 1395 4259 
Q 1275 4134 1275 3809 
L 1275 3500 
L 2222 3500 
L 2222 3053 
L 1275 3053 
L 1275 0 
L 697 0 
L 697 3053 
L 147 3053 
L 147 3500 
L 697 3500 
L 697 3744 
Q 697 4328 969 4595 
Q 1241 4863 1831 4863 
L 2375 4863 
z
" transform="scale(0.015625)"/>
       <path id="DejaVuSans-63" d="M 3122 3366 
L 3122 2828 
Q 2878 2963 2633 3030 
Q 2388 3097 2138 3097 
Q 1578 3097 1268 2742 
Q 959 2388 959 1747 
Q 959 1106 1268 751 
Q 1578 397 2138 397 
Q 2388 397 2633 464 
Q 2878 531 3122 666 
L 3122 134 
Q 2881 22 2623 -34 
Q 2366 -91 2075 -91 
Q 1284 -91 818 406 
Q 353 903 353 1747 
Q 353 2603 823 3093 
Q 1294 3584 2113 3584 
Q 2378 3584 2631 3529 
Q 2884 3475 3122 3366 
z
" transform="scale(0.015625)"/>
       <path id="DejaVuSans-76" d="M 191 3500 
L 800 3500 
L 1894 563 
L 2988 3500 
L 3597 3500 
L 2284 0 
L 1503 0 
L 191 3500 
z
" transform="scale(0.015625)"/>
       <path id="DejaVuSans-72" d="M 2631 2963 
Q 2534 3019 2420 3045 
Q 2306 3072 2169 3072 
Q 1681 3072 1420 2755 
Q 1159 2438 1159 1844 
L 1159 0 
L 581 0 
L 581 3500 
L 1159 3500 
L 1159 2956 
Q 1341 3275 1631 3429 
Q 1922 3584 2338 3584 
Q 2397 3584 2469 3576 
Q 2541 3569 2628 3553 
L 2631 2963 
z
" transform="scale(0.015625)"/>
       <path id="DejaVuSans-61" d="M 2194 1759 
Q 1497 1759 1228 1600 
Q 959 1441 959 1056 
Q 959 750 1161 570 
Q 1363 391 1709 391 
Q 2188 391 2477 730 
Q 2766 1069 2766 1631 
L 2766 1759 
L 2194 1759 
z
M 3341 1997 
L 3341 0 
L 2766 0 
L 2766 531 
Q 2569 213 2275 61 
Q 1981 -91 1556 -91 
Q 1019 -91 701 211 
Q 384 513 384 1019 
Q 384 1609 779 1909 
Q 1175 2209 1959 2209 
L 2766 2209 
L 2766 2266 
Q 2766 2663 2505 2880 
Q 2244 3097 1772 3097 
Q 1472 3097 1187 3025 
Q 903 2953 641 2809 
L 641 3341 
Q 956 3463 1253 3523 
Q 1550 3584 1831 3584 
Q 2591 3584 2966 3190 
Q 3341 2797 3341 1997 
z
" transform="scale(0.015625)"/>
       <path id="DejaVuSans-67" d="M 2906 1791 
Q 2906 2416 2648 2759 
Q 2391 3103 1925 3103 
Q 1463 3103 1205 2759 
Q 947 2416 947 1791 
Q 947 1169 1205 825 
Q 1463 481 1925 481 
Q 2391 481 2648 825 
Q 2906 1169 2906 1791 
z
M 3481 434 
Q 3481 -459 3084 -895 
Q 2688 -1331 1869 -1331 
Q 1566 -1331 1297 -1286 
Q 1028 -1241 775 -1147 
L 775 -588 
Q 1028 -725 1275 -790 
Q 1522 -856 1778 -856 
Q 2344 -856 2625 -561 
Q 2906 -266 2906 331 
L 2906 616 
Q 2728 306 2450 153 
Q 2172 0 1784 0 
Q 1141 0 747 490 
Q 353 981 353 1791 
Q 353 2603 747 3093 
Q 1141 3584 1784 3584 
Q 2172 3584 2450 3431 
Q 2728 3278 2906 2969 
L 2906 3500 
L 3481 3500 
L 3481 434 
z
" transform="scale(0.015625)"/>
      </defs>
      <use xlink:href="#DejaVuSans-44"/>
      <use xlink:href="#DejaVuSans-65" x="77.001953"/>
      <use xlink:href="#DejaVuSans-70" x="138.525391"/>
      <use xlink:href="#DejaVuSans-74" x="202.001953"/>
      <use xlink:href="#DejaVuSans-68" x="241.210938"/>
      <use xlink:href="#DejaVuSans-20" x="304.589844"/>
      <use xlink:href="#DejaVuSans-6f" x="336.376953"/>
      <use xlink:href="#DejaVuSans-66" x="397.558594"/>
      <use xlink:href="#DejaVuSans-20" x="432.763672"/>
      <use xlink:href="#DejaVuSans-63" x="464.550781"/>
      <use xlink:href="#DejaVuSans-6f" x="519.53125"/>
      <use xlink:href="#DejaVuSans-76" x="580.712891"/>
      <use xlink:href="#DejaVuSans-65" x="639.892578"/>
      <use xlink:href="#DejaVuSans-72" x="701.416016"/>
      <use xlink:href="#DejaVuSans-61" x="742.529297"/>
      <use xlink:href="#DejaVuSans-67" x="803.808594"/>
      <use xlink:href="#DejaVuSans-65" x="867.285156"/>
     </g>
    </g>
   </g>
   <g id="line2d_16">
    <path d="M 184.581818 347.758028 
L 185.100767 334.063071 
L 185.619716 332.170181 
L 186.138665 331.999809 
L 186.657615 327.744038 
L 187.176564 326.209517 
L 187.695513 326.069107 
L 188.214462 325.686064 
L 189.25236 325.411119 
L 189.771309 322.619371 
L 190.290258 321.848586 
L 190.809207 318.129193 
L 191.847105 317.503517 
L 192.366054 314.161292 
L 192.885003 313.486267 
L 193.403953 312.180866 
L 193.922902 311.677975 
L 194.441851 305.865359 
L 194.9608 305.565739 
L 195.479749 302.862702 
L 195.998698 302.776929 
L 196.517647 300.324162 
L 197.036596 300.2801 
L 197.555545 298.70093 
L 198.074494 298.260313 
L 198.593443 296.309262 
L 199.112392 295.256481 
L 199.631342 293.540426 
L 200.150291 293.053985 
L 200.66924 291.511826 
L 201.188189 291.150521 
L 201.707138 290.257537 
L 202.226087 289.734084 
L 202.745036 287.498689 
L 203.263985 285.97533 
L 203.782934 285.763833 
L 204.301883 284.296286 
L 204.820832 283.768133 
L 205.339781 282.398696 
L 205.858731 279.208043 
L 206.37768 278.994785 
L 206.896629 278.635241 
L 207.415578 278.533606 
L 208.453476 278.081239 
L 208.972425 278.037177 
L 209.491374 277.873268 
L 210.010323 276.918598 
L 210.529272 276.258261 
L 211.048221 274.39122 
L 211.56717 273.224467 
L 213.124018 272.39787 
L 214.161916 272.15935 
L 214.680865 271.255791 
L 215.199814 269.145531 
L 215.718763 268.884686 
L 216.237712 267.976428 
L 216.756661 267.871267 
L 217.27561 267.567535 
L 217.794559 267.532286 
L 218.313508 267.335477 
L 218.832458 266.574091 
L 219.351407 266.300321 
L 219.870356 264.678852 
L 220.389305 264.568404 
L 221.427203 261.881816 
L 221.946152 260.985308 
L 223.502999 260.933021 
L 224.021948 260.708013 
L 224.540897 260.695676 
L 225.059847 260.266809 
L 225.578796 260.240372 
L 226.097745 257.157817 
L 226.616694 255.270214 
L 227.135643 254.882472 
L 228.173541 254.525278 
L 228.69249 253.353825 
L 229.211439 248.64275 
L 229.730388 248.132222 
L 230.249337 246.177059 
L 230.768286 246.029012 
L 231.287236 245.482647 
L 232.325134 244.75416 
L 233.363032 244.676024 
L 233.881981 244.872246 
L 234.40093 244.650762 
L 234.919879 243.397648 
L 235.957777 239.820427 
L 236.476726 239.739354 
L 236.995675 237.037492 
L 238.033574 237.027505 
L 238.552523 236.250844 
L 239.071472 235.749128 
L 239.590421 232.644836 
L 240.10937 232.653649 
L 240.628319 232.523226 
L 241.147268 231.196088 
L 241.666217 231.143214 
L 242.185166 228.734509 
L 242.704115 228.944243 
L 243.223064 228.920743 
L 243.742013 228.559437 
L 244.260963 228.660485 
L 244.779912 226.221818 
L 245.298861 225.334123 
L 246.855708 225.527406 
L 247.374657 224.27018 
L 248.412555 224.095696 
L 248.931504 223.123989 
L 249.450453 223.121051 
L 249.969402 220.666522 
L 250.488352 219.300022 
L 251.007301 219.010978 
L 251.52625 216.520612 
L 252.045199 216.061195 
L 253.083097 215.741601 
L 253.602046 215.26926 
L 254.120995 215.010765 
L 255.158893 214.868005 
L 255.677842 214.184168 
L 256.196791 214.435026 
L 256.715741 214.491425 
L 257.23469 214.137756 
L 257.753639 213.971497 
L 258.272588 213.587279 
L 258.791537 212.680196 
L 259.310486 212.624972 
L 259.829435 211.077526 
L 260.348384 210.679796 
L 260.867333 210.436575 
L 261.386282 209.271584 
L 261.905231 208.639446 
L 262.42418 231.485133 
L 262.94313 236.283743 
L 263.462079 248.905946 
L 263.981028 248.582239 
L 264.499977 248.800785 
L 265.018926 246.976632 
L 265.537875 247.966551 
L 266.056824 248.076999 
L 266.575773 244.661925 
L 267.094722 242.847171 
L 267.613671 239.547245 
L 268.13262 244.466291 
L 268.651569 244.37523 
L 269.170518 234.85497 
L 269.689468 234.518926 
L 270.208417 230.927606 
L 270.727366 233.577769 
L 271.246315 234.352079 
L 271.765264 233.874451 
L 272.284213 234.46194 
L 272.803162 230.486401 
L 273.322111 229.818426 
L 273.84106 231.421684 
L 274.360009 231.265999 
L 274.878958 233.478483 
L 275.397907 232.326417 
L 275.916857 233.915575 
L 276.435806 233.936725 
L 276.954755 237.317724 
L 277.473704 238.989718 
L 277.992653 237.098591 
L 278.511602 236.858895 
L 279.030551 235.829027 
L 279.5495 237.022805 
L 280.068449 237.176727 
L 280.587398 236.19797 
L 281.625296 236.186808 
L 282.144246 236.952306 
L 282.663195 238.009786 
L 283.182144 237.345336 
L 283.701093 237.083316 
L 284.220042 237.571519 
L 284.738991 237.016342 
L 285.25794 235.589919 
L 285.776889 234.977168 
L 286.295838 233.981961 
L 286.814787 227.781014 
L 287.333736 227.451433 
L 287.852685 226.220056 
L 288.371635 226.617786 
L 288.890584 226.599574 
L 289.928482 227.462008 
L 290.447431 227.500782 
L 290.96638 227.669979 
L 291.485329 227.179426 
L 292.004278 229.010041 
L 292.523227 227.403259 
L 293.042176 227.382697 
L 293.561125 228.078284 
L 294.599023 225.990348 
L 295.117973 219.559693 
L 296.67482 219.816425 
L 297.193769 220.35809 
L 297.712718 220.279954 
L 298.231667 221.487244 
L 298.750616 221.84385 
L 299.269565 221.631179 
L 299.788514 223.415971 
L 300.307463 220.675334 
L 300.826412 215.411432 
L 301.345362 215.174087 
L 301.864311 210.772031 
L 302.38326 210.183955 
L 302.902209 194.969751 
L 303.421158 192.650932 
L 303.940107 191.547627 
L 304.459056 193.238421 
L 305.496954 191.594039 
L 306.015903 191.129335 
L 306.534852 191.477129 
L 307.053801 190.528334 
L 307.572751 195.95497 
L 308.610649 190.73278 
L 309.129598 186.475247 
L 309.648547 183.798059 
L 310.167496 178.976537 
L 310.686445 177.912594 
L 311.205394 177.194095 
L 311.724343 177.484902 
L 312.243292 178.254513 
L 312.762241 177.684061 
L 313.28119 176.737028 
L 313.80014 178.322074 
L 314.319089 178.790303 
L 314.838038 182.391611 
L 315.356987 181.418141 
L 315.875936 180.847689 
L 316.394885 180.844752 
L 316.913834 179.31728 
L 317.432783 178.888413 
L 317.951732 180.630318 
L 318.470681 178.79559 
L 318.98963 178.626393 
L 319.508579 179.643337 
L 320.027528 179.693861 
L 320.546478 181.260694 
L 321.584376 180.857089 
L 322.103325 180.825952 
L 322.622274 180.056342 
L 323.141223 182.721779 
L 323.660172 182.559632 
L 324.179121 180.307199 
L 324.69807 179.72676 
L 325.217019 178.551195 
L 325.735968 178.277425 
L 326.254917 178.289762 
L 326.773867 177.278106 
L 327.292816 177.722835 
L 327.811765 176.947937 
L 328.330714 176.966149 
L 328.849663 178.098828 
L 329.368612 179.868345 
L 329.887561 179.86012 
L 330.40651 179.589875 
L 330.925459 178.313262 
L 331.444408 177.542476 
L 331.963357 178.306799 
L 332.482306 176.50027 
L 333.001256 176.26645 
L 334.039154 175.245981 
L 334.558103 175.240106 
L 335.077052 172.009504 
L 335.596001 171.076572 
L 336.11495 170.737003 
L 336.633899 170.849213 
L 337.152848 172.09469 
L 337.671797 169.297655 
L 338.190746 169.628411 
L 338.709695 168.485745 
L 339.228645 168.884062 
L 339.747594 170.086065 
L 340.266543 169.475076 
L 340.785492 169.564962 
L 341.304441 168.364135 
L 341.82339 166.262099 
L 342.342339 169.633111 
L 342.861288 176.812227 
L 343.380237 175.861082 
L 343.899186 172.490658 
L 344.418135 172.826701 
L 344.937084 172.569969 
L 345.456033 172.576431 
L 345.974983 171.657011 
L 346.493932 172.393134 
L 347.012881 174.388835 
L 347.53183 180.187352 
L 348.050779 180.664393 
L 348.569728 182.680068 
L 349.088677 182.430972 
L 349.607626 183.221145 
L 350.126575 192.250264 
L 350.645524 192.779004 
L 351.164473 192.810729 
L 351.683422 193.013413 
L 352.202372 192.612745 
L 352.721321 192.062855 
L 353.24027 190.666394 
L 353.759219 189.784573 
L 355.316066 190.659931 
L 355.835015 191.064711 
L 356.353964 193.043374 
L 356.872913 218.07452 
L 357.391862 218.663184 
L 357.910811 219.666616 
L 358.429761 220.157169 
L 358.94871 220.137782 
L 359.467659 206.133218 
L 359.986608 203.847298 
L 361.024506 203.135849 
L 361.543455 202.499011 
L 362.062404 199.541003 
L 362.581353 199.86001 
L 363.100302 201.459743 
L 363.619251 201.502629 
L 364.1382 203.751537 
L 364.65715 208.830968 
L 365.176099 209.077713 
L 366.213997 210.59226 
L 366.732946 207.298796 
L 367.251895 207.310546 
L 367.770844 207.62074 
L 368.289793 206.649621 
L 368.808742 205.262559 
L 369.84664 204.376626 
L 370.365589 186.116291 
L 370.884538 185.921832 
L 371.922437 185.132834 
L 372.960335 182.737642 
L 373.479284 182.579607 
L 373.998233 181.382304 
L 374.517182 173.282593 
L 375.036131 173.468239 
L 375.55508 183.370955 
L 376.074029 174.578006 
L 376.592978 173.383641 
L 377.111927 173.565763 
L 377.630877 168.223725 
L 378.149826 168.120914 
L 379.187724 161.632685 
L 379.706673 160.69329 
L 380.225622 163.92683 
L 380.744571 165.457826 
L 381.26352 172.514157 
L 381.782469 174.622655 
L 382.301418 168.818851 
L 382.820367 165.157032 
L 383.339316 168.327123 
L 383.858266 166.678628 
L 384.377215 167.293142 
L 384.896164 167.673247 
L 385.415113 165.23693 
L 385.934062 168.144414 
L 386.453011 168.629092 
L 386.97196 169.562025 
L 387.490909 171.694022 
L 388.009858 178.94305 
L 388.528807 180.190877 
L 390.604604 179.884795 
L 391.123553 180.814202 
L 391.642502 177.943143 
L 392.6804 177.019611 
L 393.199349 176.160114 
L 393.718298 177.275756 
L 395.275145 177.508402 
L 395.794094 176.492633 
L 396.831993 176.25235 
L 397.350942 176.512608 
L 397.869891 176.181264 
L 398.38884 176.566069 
L 399.426738 175.72126 
L 399.945687 176.325786 
L 400.464636 178.39316 
L 400.983585 178.380823 
L 401.502534 175.527389 
L 402.021483 177.612975 
L 402.540432 173.561063 
L 403.059382 172.783227 
L 403.578331 174.120352 
L 404.09728 174.51162 
L 404.616229 173.988755 
L 405.135178 174.486358 
L 405.654127 174.720179 
L 406.173076 173.735547 
L 406.692025 175.223069 
L 407.210974 175.616099 
L 408.248872 175.530326 
L 408.767821 176.947937 
L 409.286771 179.152196 
L 409.80572 179.724998 
L 410.324669 179.541701 
L 410.843618 178.756816 
L 411.362567 179.368979 
L 411.881516 177.688761 
L 412.919414 177.272818 
L 413.438363 180.602706 
L 413.957312 181.569126 
L 414.476261 179.978793 
L 414.99521 179.99348 
L 415.514159 182.97675 
L 416.033109 181.424604 
L 416.552058 178.458371 
L 417.071007 174.161476 
L 417.589956 173.006473 
L 418.108905 172.326161 
L 418.627854 172.828464 
L 419.146803 173.612174 
L 419.665752 173.434753 
L 420.184701 175.006286 
L 420.70365 174.553332 
L 421.222599 176.156589 
L 421.741548 174.277212 
L 422.260498 174.262525 
L 422.779447 174.462858 
L 423.298396 174.135627 
L 423.817345 174.019304 
L 424.336294 171.031335 
L 424.855243 169.031522 
L 425.374192 169.329967 
L 425.893141 170.60658 
L 426.41209 170.964361 
L 426.931039 170.322236 
L 427.449988 168.131489 
L 427.968937 168.76774 
L 428.487887 170.311073 
L 429.006836 169.784096 
L 429.525785 171.789196 
L 430.044734 169.810533 
L 430.563683 166.153413 
L 431.082632 165.917243 
L 431.601581 165.54125 
L 432.12053 168.07979 
L 432.639479 167.729059 
L 433.158428 168.915199 
L 433.677377 169.640748 
L 434.196326 172.004217 
L 434.715276 172.993548 
L 435.234225 169.950355 
L 435.753174 170.719966 
L 436.272123 169.882794 
L 436.791072 167.665023 
L 437.310021 168.861738 
L 437.82897 166.99411 
L 438.347919 167.612149 
L 438.866868 170.909137 
L 439.385817 169.601974 
L 439.904766 174.49282 
L 440.423715 171.691673 
L 440.942664 170.819251 
L 441.461614 172.685117 
L 441.980563 172.396072 
L 442.499512 173.948218 
L 443.018461 174.125052 
L 443.53741 173.84012 
L 444.056359 176.153064 
L 444.575308 175.537963 
L 445.094257 179.665074 
L 445.613206 179.427728 
L 446.132155 175.506826 
L 446.651104 176.029692 
L 447.170053 173.364841 
L 447.689003 173.19212 
L 448.207952 172.324986 
L 448.726901 173.025273 
L 449.24585 174.086865 
L 449.764799 168.75129 
L 450.283748 166.674516 
L 450.802697 171.093021 
L 451.321646 177.374454 
L 451.840595 192.086355 
L 452.359544 188.827553 
L 452.878493 188.212452 
L 453.397442 188.083204 
L 453.916392 182.01503 
L 454.435341 181.783559 
L 454.95429 182.44566 
L 455.473239 181.462203 
L 455.992188 179.786097 
L 456.511137 176.889188 
L 457.030086 179.311993 
L 457.549035 180.059279 
L 458.067984 188.906277 
L 458.586933 186.907639 
L 459.105882 187.006925 
L 459.624831 190.409074 
L 460.143781 186.108066 
L 460.66273 185.940632 
L 461.181679 188.977363 
L 462.219577 193.512778 
L 462.738526 193.555665 
L 463.257475 194.420449 
L 463.776424 192.894152 
L 464.295373 194.166654 
L 464.814322 192.991675 
L 465.333271 192.690294 
L 465.85222 192.643882 
L 466.371169 184.038342 
L 466.890119 182.652456 
L 467.409068 182.970287 
L 467.928017 182.607219 
L 468.446966 184.9701 
L 468.965915 184.779166 
L 469.484864 186.314275 
L 470.522762 181.573238 
L 471.041711 181.519777 
L 471.56066 181.970381 
L 472.079609 170.389797 
L 472.598558 169.262405 
L 473.117508 167.107495 
L 473.636457 168.046303 
L 474.155406 165.739821 
L 474.674355 166.569943 
L 475.193304 162.251899 
L 475.712253 162.02219 
L 476.231202 161.549849 
L 476.750151 160.909486 
L 477.2691 161.878255 
L 477.788049 162.01749 
L 478.825947 167.474089 
L 479.344897 165.448426 
L 479.863846 162.263061 
L 480.382795 156.133788 
L 480.901744 154.816637 
L 481.420693 154.795488 
L 481.939642 154.283785 
L 482.458591 154.012952 
L 483.496489 154.896536 
L 484.015438 156.416957 
L 485.572286 154.228561 
L 486.610184 154.173337 
L 487.129133 153.379051 
L 487.648082 154.723226 
L 488.167031 154.93061 
L 488.68598 155.521036 
L 489.204929 156.705414 
L 489.723878 156.15905 
L 490.761776 162.231924 
L 491.280725 159.435476 
L 492.318624 159.726871 
L 492.837573 151.195942 
L 493.356522 150.703039 
L 493.875471 150.647227 
L 494.39442 152.603566 
L 494.913369 153.691008 
L 495.432318 157.305828 
L 496.470216 158.984872 
L 496.989165 158.201162 
L 497.508114 158.127725 
L 498.027063 158.422645 
L 498.546013 160.068789 
L 499.064962 160.623966 
L 499.583911 161.933479 
L 500.10286 165.205206 
L 500.621809 155.330103 
L 501.140758 154.028814 
L 501.659707 153.60171 
L 502.178656 152.960759 
L 502.697605 157.100795 
L 503.216554 158.423232 
L 504.773402 159.290366 
L 505.292351 160.636304 
L 505.8113 163.194818 
L 506.330249 164.493169 
L 506.849198 168.805339 
L 507.368147 169.615486 
L 507.887096 169.81817 
L 508.406045 168.985698 
L 509.443943 168.982761 
L 509.962892 171.427302 
L 510.481841 171.628811 
L 511.000791 172.849613 
L 511.51974 173.068747 
L 512.038689 173.662111 
L 512.557638 176.277025 
L 513.076587 177.234044 
L 513.595536 179.576363 
L 514.114485 180.270775 
L 514.633434 181.389354 
L 515.152383 185.507652 
L 515.671332 185.727373 
L 516.190281 189.291082 
L 516.70923 191.023587 
L 517.228179 248.474729 
L 517.747129 250.731862 
L 518.266078 251.089642 
L 518.785027 254.064099 
L 519.822925 254.063512 
L 525.012416 254.037075 
L 525.531365 250.905758 
L 526.050314 250.651963 
L 526.569263 246.065436 
L 527.088212 207.999083 
L 527.607161 207.88981 
L 528.12611 207.539667 
L 529.682957 207.258259 
L 530.201907 207.072025 
L 530.720856 207.022089 
L 531.239805 205.244935 
L 531.758754 204.262065 
L 532.277703 202.104218 
L 532.796652 199.19321 
L 533.315601 199.145036 
L 533.83455 197.977695 
L 534.353499 197.522978 
L 534.872448 195.353969 
L 535.391397 195.249396 
L 536.948245 194.516797 
L 537.467194 193.662588 
L 537.986143 193.597377 
L 538.505092 194.337025 
L 539.024041 192.509347 
L 539.54299 193.901696 
L 540.061939 188.618994 
L 540.580888 176.759353 
L 541.099837 176.558432 
L 541.618786 178.719804 
L 542.137735 177.828583 
L 542.656684 177.863245 
L 543.175634 177.144746 
L 543.694583 177.326867 
L 544.213532 178.502433 
L 544.732481 179.162183 
L 545.25143 177.818596 
L 545.770379 167.177994 
L 546.289328 165.661685 
L 546.808277 163.374003 
L 547.327226 164.255236 
L 547.846175 165.938392 
L 548.365124 168.253099 
L 548.884073 167.085758 
L 549.403023 168.08214 
L 549.921972 167.5346 
L 550.440921 179.046448 
L 550.95987 178.996511 
L 551.478819 179.289668 
L 551.997768 175.429865 
L 552.516717 177.361529 
L 553.035666 178.466009 
L 553.554615 182.873352 
L 554.073564 183.158284 
L 554.592513 192.893565 
L 555.111462 192.124542 
L 555.630412 192.858315 
L 556.149361 194.028594 
L 556.66831 193.841185 
L 557.187259 193.072161 
L 557.706208 197.511229 
L 558.225157 182.178352 
L 558.744106 181.106185 
L 559.263055 180.683192 
L 559.782004 180.634431 
L 560.300953 179.307293 
L 560.819902 179.256182 
L 561.338851 178.377298 
L 561.857801 178.266262 
L 562.37675 177.866182 
L 562.895699 179.315518 
L 563.414648 179.548751 
L 563.933597 177.20702 
L 564.452546 176.425072 
L 564.971495 176.573119 
L 565.490444 174.996298 
L 566.009393 173.045247 
L 566.528342 172.853726 
L 567.047291 172.008917 
L 567.56624 173.361316 
L 568.085189 173.055235 
L 569.123088 177.964881 
L 569.642037 180.332461 
L 570.160986 180.985749 
L 570.679935 180.343624 
L 571.198884 167.971692 
L 571.717833 167.681472 
L 572.236782 165.512463 
L 572.755731 167.212656 
L 573.793629 172.581718 
L 574.312578 171.054247 
L 574.831528 170.430921 
L 575.350477 171.127683 
L 575.869426 169.376378 
L 576.388375 169.436302 
L 576.907324 163.292929 
L 577.426273 160.831937 
L 577.945222 160.744989 
L 578.464171 161.064583 
L 578.98312 165.755683 
L 579.502069 166.982948 
L 580.021018 166.548206 
L 580.539967 167.722009 
L 581.577866 177.589475 
L 582.096815 178.79794 
L 582.615764 178.487158 
L 583.134713 171.197007 
L 583.653662 170.459121 
L 584.172611 170.672379 
L 584.69156 169.985604 
L 585.729458 169.965042 
L 586.248407 169.824045 
L 586.767356 166.260336 
L 587.286306 166.335535 
L 587.805255 167.768421 
L 588.324204 166.890125 
L 588.843153 168.404671 
L 589.362102 168.75364 
L 589.881051 168.752465 
L 590.4 167.450589 
L 590.918949 167.374803 
L 591.437898 165.611161 
L 591.956847 164.716415 
L 592.475796 164.219399 
L 592.994745 164.484944 
L 593.513694 165.271005 
L 594.032644 165.152919 
L 594.551593 165.25338 
L 595.589491 164.716415 
L 596.10844 165.948967 
L 596.627389 166.887187 
L 597.146338 166.911862 
L 597.665287 166.116989 
L 598.184236 166.074102 
L 598.703185 165.780358 
L 599.741083 166.2151 
L 600.778982 166.924199 
L 601.297931 168.214912 
L 601.81688 168.783014 
L 602.335829 169.992067 
L 602.854778 209.219885 
L 603.892676 211.512268 
L 604.411625 214.664146 
L 605.968472 214.695871 
L 606.487422 214.31459 
L 607.52532 214.309303 
L 608.044269 213.543217 
L 608.563218 209.0971 
L 609.082167 208.815693 
L 609.601116 193.800648 
L 610.120065 193.450504 
L 610.639014 192.734355 
L 611.157963 192.541071 
L 611.676912 188.879252 
L 612.195861 188.83284 
L 612.714811 187.64435 
L 613.752709 176.846889 
L 614.271658 175.778834 
L 614.790607 175.315305 
L 615.309556 174.669655 
L 616.347454 170.933224 
L 616.866403 170.35396 
L 617.385352 169.345241 
L 617.904301 169.243018 
L 618.42325 163.008584 
L 618.942199 162.760077 
L 619.461149 159.813231 
L 619.980098 162.216062 
L 620.499047 161.780732 
L 621.017996 161.640322 
L 621.536945 160.464757 
L 622.055894 161.187368 
L 622.574843 159.880793 
L 623.093792 164.796901 
L 623.612741 167.312529 
L 624.13169 175.587312 
L 624.650639 170.794577 
L 625.688538 172.701566 
L 626.207487 173.838358 
L 626.726436 174.204363 
L 627.245385 175.052697 
L 627.764334 175.153158 
L 628.283283 173.633911 
L 628.802232 173.825433 
L 629.321181 175.87107 
L 629.84013 174.36416 
L 630.359079 173.967605 
L 630.878028 174.66143 
L 631.396977 179.280856 
L 631.915927 179.085222 
L 632.434876 178.386698 
L 632.953825 181.067998 
L 633.472774 183.151821 
L 633.991723 185.743823 
L 634.510672 187.417579 
L 635.029621 186.897652 
L 635.54857 184.599394 
L 636.067519 184.211652 
L 636.586468 182.063204 
L 637.105417 182.719429 
L 637.624366 181.555026 
L 638.143316 181.243069 
L 638.662265 182.358124 
L 639.181214 180.752516 
L 639.700163 177.960181 
L 640.219112 177.738697 
L 640.738061 176.620118 
L 641.25701 171.462552 
L 641.775959 170.954374 
L 642.294908 173.409491 
L 642.813857 174.347123 
L 643.332806 174.80419 
L 644.370704 180.148577 
L 644.889654 208.075457 
L 645.408603 209.25866 
L 646.446501 215.67639 
L 646.96545 214.945554 
L 647.484399 214.960828 
L 648.003348 215.889061 
L 648.522297 210.871905 
L 649.560195 209.093575 
L 650.079144 209.0924 
L 650.598093 211.757838 
L 651.117043 211.774875 
L 651.635992 211.496405 
L 652.154941 209.367345 
L 652.67389 179.22622 
L 653.192839 179.131046 
L 654.230737 175.024498 
L 654.749686 170.042003 
L 655.268635 169.520901 
L 655.787584 171.334479 
L 656.306533 171.846182 
L 656.825482 172.124652 
L 657.344432 171.900231 
L 657.863381 169.254768 
L 658.38233 169.920981 
L 658.901279 165.215193 
L 659.420228 169.183682 
L 659.939177 168.488095 
L 660.458126 169.105546 
L 660.977075 168.935761 
L 661.496024 169.351704 
L 662.014973 169.084984 
L 662.533922 171.146483 
L 663.052871 170.74699 
L 663.571821 173.755522 
L 664.09077 171.235194 
L 664.609719 172.135814 
L 665.128668 170.625967 
L 665.647617 166.61988 
L 666.166566 165.870831 
L 666.685515 163.775258 
L 667.723413 161.837719 
L 668.242362 162.970398 
L 668.761311 164.752839 
L 669.28026 164.178863 
L 669.799209 165.157032 
L 670.318159 165.78212 
L 670.837108 167.11337 
L 671.356057 173.286118 
L 671.875006 172.995898 
L 672.393955 172.238625 
L 672.912904 173.346042 
L 673.431853 173.322542 
L 673.950802 170.276411 
L 674.469751 169.92803 
L 674.9887 170.2253 
L 675.507649 170.877413 
L 676.026598 173.372479 
L 676.545548 172.214538 
L 677.064497 164.636517 
L 677.583446 164.047265 
L 678.102395 156.155525 
L 678.621344 155.219655 
L 679.140293 154.555205 
L 679.659242 153.478337 
L 680.178191 153.413713 
L 681.216089 155.186755 
L 681.735038 154.750251 
L 682.253987 152.50428 
L 682.772937 155.891742 
L 683.291886 156.209574 
L 683.810835 155.476975 
L 684.329784 151.017345 
L 685.367682 150.940972 
L 685.886631 151.685321 
L 686.40558 152.155312 
L 686.924529 155.570386 
L 687.443478 152.107138 
L 687.962427 151.811043 
L 688.481376 152.847961 
L 689.000326 155.896442 
L 689.519275 153.964191 
L 690.038224 151.543736 
L 690.557173 152.011377 
L 691.076122 152.27516 
L 692.11402 162.076827 
L 692.632969 162.663728 
L 693.151918 168.170263 
L 693.670867 167.744334 
L 694.189816 170.926762 
L 694.708765 171.712235 
L 695.227714 171.496626 
L 695.746664 170.154214 
L 696.265613 178.468359 
L 696.784562 164.175925 
L 697.303511 160.00299 
L 697.82246 152.000802 
L 698.341409 149.481649 
L 698.860358 148.951734 
L 699.379307 148.918247 
L 699.898256 150.912772 
L 700.417205 150.786462 
L 700.936154 151.874492 
L 701.974053 154.460619 
L 702.493002 157.915054 
L 703.011951 154.687977 
L 703.5309 155.039295 
L 704.049849 154.484706 
L 704.568798 154.525243 
L 705.087747 156.298285 
L 705.606696 156.040964 
L 706.125645 156.208399 
L 706.644594 156.670753 
L 707.163543 158.265785 
L 707.682492 161.579224 
L 708.201442 160.652753 
L 708.720391 161.401802 
L 709.23934 160.339622 
L 710.277238 155.024608 
L 710.796187 153.357902 
L 711.315136 153.591135 
L 711.834085 153.947741 
L 712.353034 153.234529 
L 713.390932 152.62589 
L 713.909881 155.223767 
L 714.428831 155.141519 
L 714.94778 158.843875 
L 715.466729 161.454676 
L 715.985678 162.465745 
L 716.504627 181.134971 
L 717.023576 182.811078 
L 717.542525 180.144465 
L 718.061474 174.368273 
L 718.580423 172.137577 
L 719.099372 170.638892 
L 719.618321 175.050935 
L 720.13727 170.317536 
L 720.656219 169.564962 
L 721.175169 169.194844 
L 721.694118 164.245249 
L 722.213067 162.362346 
L 722.732016 168.512182 
L 723.250965 168.591493 
L 723.769914 171.277493 
L 724.288863 170.121314 
L 724.807812 170.041416 
L 725.326761 170.774602 
L 725.84571 173.665636 
L 726.364659 173.68326 
L 726.883608 170.684129 
L 727.402558 170.620093 
L 727.921507 171.055422 
L 728.440456 172.632243 
L 728.959405 169.086159 
L 729.478354 169.003323 
L 729.997303 168.718978 
L 730.516252 171.033097 
L 731.55415 168.703703 
L 732.592048 169.052672 
L 733.110997 174.429959 
L 733.629947 182.879814 
L 734.148896 183.425591 
L 735.186794 183.608888 
L 735.705743 182.501471 
L 736.224692 178.055941 
L 736.743641 178.882538 
L 737.26259 169.053847 
L 737.781539 168.678441 
L 738.300488 167.911181 
L 738.819437 167.670897 
L 739.338386 167.952305 
L 739.857336 168.512182 
L 740.376285 167.276692 
L 740.895234 165.286867 
L 741.414183 167.237918 
L 741.933132 164.742852 
L 742.452081 167.493476 
L 742.97103 167.796033 
L 743.489979 169.378141 
L 744.008928 170.550769 
L 744.527877 170.008516 
L 745.046826 171.903756 
L 745.565775 170.149514 
L 746.084724 170.148339 
L 746.603674 170.030841 
L 747.122623 170.408009 
L 747.641572 171.455502 
L 748.160521 174.285437 
L 748.67947 173.664461 
L 749.198419 174.38766 
L 749.717368 175.455127 
L 750.236317 170.012041 
L 750.755266 166.356097 
L 751.274215 166.246237 
L 751.793164 166.512957 
L 752.312113 166.047078 
L 752.831063 166.057653 
L 753.350012 165.663447 
L 753.868961 166.497682 
L 754.38791 166.407796 
L 754.906859 174.078641 
L 755.425808 173.984055 
L 755.944757 172.682767 
L 756.463706 171.968967 
L 756.982655 172.474208 
L 757.501604 172.11819 
L 758.020553 172.60698 
L 759.058452 172.723891 
L 759.577401 171.00901 
L 760.09635 172.967699 
L 760.615299 174.471671 
L 761.134248 170.315773 
L 761.653197 168.06334 
L 762.172146 171.278668 
L 762.691095 171.343292 
L 763.210044 170.8968 
L 764.247942 172.322048 
L 764.766891 170.703516 
L 765.285841 166.652191 
L 765.80479 166.114052 
L 766.323739 164.748139 
L 766.842688 162.910474 
L 767.361637 162.503931 
L 767.880586 163.24123 
L 768.399535 165.009572 
L 768.918484 164.717003 
L 769.437433 167.199144 
L 769.956382 167.391253 
L 770.475331 168.378822 
L 770.99428 173.967018 
L 771.513229 172.535307 
L 772.032179 169.25653 
L 772.551128 169.089096 
L 773.070077 168.75599 
L 773.589026 168.710166 
L 774.107975 169.890431 
L 774.626924 167.721422 
L 775.145873 168.029853 
L 776.183771 178.757403 
L 776.70272 179.602213 
L 777.221669 174.831214 
L 777.740618 173.445327 
L 778.259568 174.630293 
L 778.778517 174.422322 
L 779.297466 173.248519 
L 779.816415 172.9019 
L 780.335364 173.069334 
L 780.854313 173.715572 
L 781.373262 177.132409 
L 781.892211 176.986711 
L 782.41116 176.148952 
L 782.930109 176.045554 
L 783.449058 174.260175 
L 783.968007 175.926294 
L 784.486957 175.783534 
L 785.005906 176.389822 
L 785.524855 175.664861 
L 786.043804 171.983067 
L 786.562753 173.364254 
L 787.081702 173.5452 
L 787.600651 172.910125 
L 788.1196 176.917388 
L 789.157498 182.007393 
L 789.676447 182.160727 
L 790.195396 182.161902 
L 790.714346 183.745185 
L 791.233295 183.448503 
L 791.752244 183.757523 
L 792.271193 183.432641 
L 792.790142 182.211251 
L 793.309091 182.017968 
L 793.82804 178.518883 
L 794.346989 179.521727 
L 794.865938 179.882445 
L 795.384887 181.999755 
L 795.903836 184.9842 
L 796.422785 183.794534 
L 796.941734 184.772704 
L 797.460684 184.506571 
L 797.979633 184.555333 
L 798.498582 184.04128 
L 799.017531 184.45076 
L 799.53648 183.126559 
L 800.055429 189.66355 
L 800.574378 188.434523 
L 801.093327 189.25642 
L 801.612276 189.442067 
L 802.131225 187.538602 
L 802.650174 187.426979 
L 803.169123 185.982931 
L 803.688073 187.345318 
L 804.207022 188.134903 
L 804.725971 187.752448 
L 805.24492 182.708855 
L 805.763869 181.744198 
L 806.282818 182.168952 
L 806.801767 180.052229 
L 807.320716 185.109335 
L 807.839665 183.103647 
L 808.358614 182.920938 
L 808.877563 181.439291 
L 809.396512 181.524477 
L 809.915462 184.97245 
L 810.434411 183.267557 
L 811.472309 184.713367 
L 811.991258 184.883739 
L 812.510207 191.426605 
L 813.029156 190.557121 
L 813.548105 190.981875 
L 814.067054 194.171941 
L 814.586003 194.269464 
L 815.104952 195.803398 
L 815.623901 194.026244 
L 816.14285 191.558202 
L 816.6618 191.96827 
L 817.180749 191.568189 
L 817.699698 193.798885 
L 818.218647 193.740724 
L 818.737596 195.721737 
L 819.775494 195.919721 
L 820.294443 197.837285 
L 820.813392 195.248808 
L 821.332341 194.950364 
L 821.85129 197.688063 
L 822.370239 196.937252 
L 822.889189 197.193985 
L 823.408138 197.049462 
L 823.927087 198.479998 
L 824.964985 193.69255 
L 825.483934 192.367762 
L 826.002883 192.176241 
L 827.040781 193.311857 
L 828.078679 195.976707 
L 828.597628 199.080412 
L 829.116578 202.954315 
L 830.154476 201.952058 
L 830.673425 202.29104 
L 831.192374 201.761124 
L 832.230272 202.425575 
L 832.749221 202.506061 
L 833.26817 202.981927 
L 833.787119 202.957252 
L 834.306068 203.521829 
L 834.825017 204.860717 
L 835.862916 202.701107 
L 836.900814 198.239128 
L 837.419763 201.88156 
L 838.457661 199.814773 
L 838.97661 197.275058 
L 839.495559 197.567628 
L 840.014508 200.851104 
L 840.533457 198.947052 
L 841.052406 197.529441 
L 841.571355 197.409006 
L 842.090305 198.004132 
L 842.609254 200.905153 
L 843.128203 202.517223 
L 843.647152 207.309959 
L 844.166101 205.940522 
L 844.68505 205.89176 
L 845.203999 208.063119 
L 845.722948 206.238378 
L 846.241897 206.337664 
L 847.279795 206.859354 
L 847.798744 206.995652 
L 848.317694 205.807162 
L 848.836643 212.204917 
L 849.355592 212.19023 
L 849.874541 212.293041 
L 850.39349 212.556236 
L 850.912439 209.597053 
L 851.431388 209.398482 
L 851.950337 209.78505 
L 852.469286 209.873173 
L 852.988235 212.562698 
L 853.507184 212.022796 
L 854.026133 212.291866 
L 854.545083 212.238992 
L 855.064032 210.005946 
L 855.582981 217.210911 
L 856.10193 217.212674 
L 856.620879 217.656816 
L 857.139828 218.508675 
L 857.658777 218.716646 
L 858.177726 219.065614 
L 858.696675 219.04564 
L 859.215624 219.284748 
L 860.253522 219.045052 
L 860.772472 219.123188 
L 861.291421 220.741133 
L 862.329319 220.897993 
L 862.848268 221.164713 
L 863.367217 223.440058 
L 863.886166 223.56578 
L 864.405115 224.566274 
L 864.924064 224.565687 
L 865.443013 225.774739 
L 865.961962 225.814101 
L 866.480911 223.905349 
L 866.99986 223.665654 
L 867.51881 222.030084 
L 868.037759 221.924336 
L 868.556708 220.654185 
L 869.075657 220.718221 
L 869.594606 221.885562 
L 870.113555 222.156982 
L 870.632504 223.33196 
L 871.151453 224.78717 
L 872.189351 234.224007 
L 872.7083 233.913225 
L 873.227249 234.013686 
L 873.746199 232.620749 
L 874.265148 232.151345 
L 874.784097 232.851632 
L 875.303046 232.785246 
L 875.821995 233.436771 
L 876.340944 233.365098 
L 876.859893 234.145871 
L 877.378842 234.189932 
L 877.897791 236.407704 
L 878.41674 230.284305 
L 878.935689 231.556219 
L 879.454638 231.473383 
L 879.973588 230.305455 
L 880.492537 230.981655 
L 881.530435 234.399079 
L 882.049384 234.343267 
L 882.568333 231.565031 
L 883.087282 236.425916 
L 884.12518 238.985606 
L 884.644129 236.892382 
L 885.163078 240.225795 
L 885.682027 240.357392 
L 886.200977 244.92277 
L 886.719926 244.679549 
L 887.238875 245.657131 
L 887.757824 246.259895 
L 888.276773 244.140234 
L 888.795722 242.902982 
L 889.314671 240.490752 
L 889.83362 240.351518 
L 890.352569 241.906014 
L 891.390467 243.087454 
L 891.909416 244.785885 
L 892.428365 245.022643 
L 892.947315 246.49724 
L 893.466264 246.325694 
L 893.985213 248.136922 
L 894.504162 246.271057 
L 895.023111 246.962532 
L 895.54206 248.338431 
L 896.061009 248.158659 
L 896.579958 245.349287 
L 897.098907 245.705305 
L 897.617856 245.169515 
L 898.136805 245.560195 
L 898.655754 245.063767 
L 899.174704 233.886788 
L 899.693653 233.9097 
L 900.212602 230.768984 
L 900.731551 232.272368 
L 901.2505 231.941024 
L 902.288398 231.535657 
L 902.807347 233.056079 
L 903.326296 235.732091 
L 903.845245 225.482757 
L 904.364194 220.809869 
L 904.883143 220.828082 
L 905.402093 221.428495 
L 905.921042 223.018241 
L 906.439991 223.032928 
L 906.95894 225.029803 
L 907.477889 224.81537 
L 907.996838 224.147982 
L 909.553685 224.82242 
L 910.072634 225.73244 
L 910.591583 225.627867 
L 911.110532 226.926218 
L 911.629482 225.590855 
L 912.66738 229.327873 
L 913.186329 229.279699 
L 913.705278 228.525951 
L 914.224227 228.552975 
L 914.743176 229.145751 
L 915.262125 231.50217 
L 915.781074 230.300167 
L 916.300023 232.416303 
L 916.818972 232.922131 
L 917.337921 235.598144 
L 917.85687 224.877644 
L 918.37582 225.423421 
L 918.894769 225.121451 
L 919.413718 223.98701 
L 919.932667 224.533962 
L 920.451616 223.075815 
L 920.970565 223.654491 
L 921.489514 224.970467 
L 922.008463 225.517419 
L 922.527412 227.471408 
L 923.046361 227.876775 
L 923.56531 228.095909 
L 924.084259 231.622605 
L 926.160056 232.006236 
L 926.679005 233.77164 
L 927.197954 233.720529 
L 927.716903 235.517658 
L 928.235852 238.639574 
L 929.27375 238.811121 
L 929.792699 239.202389 
L 930.311648 239.242926 
L 930.830598 239.632431 
L 931.349547 239.737591 
L 931.868496 242.733198 
L 932.906394 244.11556 
L 933.425343 244.312956 
L 934.98219 244.469816 
L 935.501139 244.513877 
L 936.539037 245.204765 
L 937.576936 246.547177 
L 938.095885 247.05418 
L 939.133783 247.303275 
L 939.652732 247.922489 
L 940.171681 248.198609 
L 940.69063 248.81136 
L 941.209579 248.851309 
L 941.728528 249.290163 
L 943.285375 249.606233 
L 944.323274 251.692406 
L 944.842223 252.570115 
L 945.361172 252.617114 
L 945.880121 253.923102 
L 946.39907 254.242109 
L 946.918019 256.626139 
L 947.436968 256.844098 
L 947.955917 257.226553 
L 948.474866 257.332888 
L 948.993815 257.683032 
L 950.031714 258.727587 
L 950.550663 258.900897 
L 951.069612 259.823255 
L 951.588561 259.997151 
L 952.10751 261.353664 
L 952.626459 261.56281 
L 953.664357 262.211398 
L 954.183306 262.49398 
L 955.221204 263.415163 
L 955.740153 269.660759 
L 956.259103 269.816443 
L 956.778052 270.550805 
L 957.297001 270.55198 
L 957.81595 271.105394 
L 958.334899 272.94541 
L 958.853848 273.391902 
L 959.372797 278.414933 
L 959.891746 278.471332 
L 960.410695 279.413077 
L 960.929644 282.988535 
L 961.967542 282.979723 
L 962.486492 283.314592 
L 963.005441 283.453827 
L 963.52439 283.788108 
L 964.043339 284.471945 
L 965.081237 284.736315 
L 965.600186 285.302067 
L 967.157033 289.894469 
L 967.675982 292.609843 
L 968.194931 292.659192 
L 969.23283 293.356542 
L 969.751779 293.369467 
L 970.270728 293.536901 
L 970.789677 293.559813 
L 971.308626 293.989268 
L 971.827575 294.826439 
L 972.346524 297.458978 
L 973.903371 297.60585 
L 974.42232 297.987131 
L 974.941269 301.162509 
L 975.460219 301.268844 
L 975.979168 302.097204 
L 976.498117 304.612245 
L 977.017066 305.25202 
L 977.536015 317.831336 
L 978.054964 317.857185 
L 978.573913 321.782199 
L 979.611811 322.297427 
L 980.13076 323.921835 
L 980.649709 324.14273 
L 981.168658 326.224204 
L 981.687608 337.95871 
L 982.206557 338.053296 
L 982.725506 343.310736 
L 983.244455 343.730203 
L 983.763404 343.919374 
L 985.320251 344.020422 
L 985.8392 346.356279 
L 987.396047 346.85682 
L 988.433946 346.946118 
L 989.471844 347.390847 
L 989.990793 348.827845 
L 990.509742 349.337786 
L 991.028691 350.330055 
L 991.54764 350.747172 
L 992.066589 350.758334 
L 992.585538 351.509733 
L 993.104487 351.381073 
L 993.623436 351.615481 
L 994.142385 354.553514 
L 994.661335 354.919519 
L 995.180284 355.02703 
L 995.699233 355.518758 
L 996.218182 369.36 
L 996.218182 369.36 
" clip-path="url(#p34129ddc75)" style="fill: none; stroke: #1f77b4; stroke-width: 1.5; stroke-linecap: square"/>
   </g>
   <g id="line2d_17">
    <path d="M 184.581818 339.547281 
L 996.218182 339.547281 
L 996.218182 339.547281 
" clip-path="url(#p34129ddc75)" style="fill: none; stroke-dasharray: 5.55,2.4; stroke-dashoffset: 0; stroke: #ff7f0e; stroke-width: 1.5"/>
   </g>
   <g id="line2d_18">
    <path d="M 184.581818 203.253934 
L 996.218182 203.253934 
L 996.218182 203.253934 
" clip-path="url(#p34129ddc75)" style="fill: none; stroke-dasharray: 5.55,2.4; stroke-dashoffset: 0; stroke: #2ca02c; stroke-width: 1.5"/>
   </g>
   <g id="line2d_19">
    <path d="M 184.581818 66.96 
L 996.218182 66.96 
L 996.218182 66.96 
" clip-path="url(#p34129ddc75)" style="fill: none; stroke-dasharray: 5.55,2.4; stroke-dashoffset: 0; stroke: #d62728; stroke-width: 1.5"/>
   </g>
   <g id="patch_3">
    <path d="M 144 384.48 
L 144 51.84 
" style="fill: none; stroke: #000000; stroke-width: 0.8; stroke-linejoin: miter; stroke-linecap: square"/>
   </g>
   <g id="patch_4">
    <path d="M 1036.8 384.48 
L 1036.8 51.84 
" style="fill: none; stroke: #000000; stroke-width: 0.8; stroke-linejoin: miter; stroke-linecap: square"/>
   </g>
   <g id="patch_5">
    <path d="M 144 384.48 
L 1036.8 384.48 
" style="fill: none; stroke: #000000; stroke-width: 0.8; stroke-linejoin: miter; stroke-linecap: square"/>
   </g>
   <g id="patch_6">
    <path d="M 144 51.84 
L 1036.8 51.84 
" style="fill: none; stroke: #000000; stroke-width: 0.8; stroke-linejoin: miter; stroke-linecap: square"/>
   </g>
   <g id="text_18">
    <!-- NP -->
    <g transform="translate(582.293437 45.84)scale(0.12 -0.12)">
     <defs>
      <path id="DejaVuSans-4e" d="M 628 4666 
L 1478 4666 
L 3547 763 
L 3547 4666 
L 4159 4666 
L 4159 0 
L 3309 0 
L 1241 3903 
L 1241 0 
L 628 0 
L 628 4666 
z
" transform="scale(0.015625)"/>
     </defs>
     <use xlink:href="#DejaVuSans-4e"/>
     <use xlink:href="#DejaVuSans-50" x="74.804688"/>
    </g>
   </g>
   <g id="legend_1">
    <g id="patch_7">
     <path d="M 146 28.936045 
L 1034.8 28.936045 
Q 1036.8 28.936045 1036.8 26.936045 
L 1036.8 13.25792 
Q 1036.8 11.25792 1034.8 11.25792 
L 146 11.25792 
Q 144 11.25792 144 13.25792 
L 144 26.936045 
Q 144 28.936045 146 28.936045 
z
" style="fill: #ffffff; opacity: 0.8; stroke: #cccccc; stroke-linejoin: miter"/>
    </g>
    <g id="line2d_20">
     <path d="M 148 19.356358 
L 158 19.356358 
L 168 19.356358 
" style="fill: none; stroke-dasharray: 5.55,2.4; stroke-dashoffset: 0; stroke: #ff7f0e; stroke-width: 1.5"/>
    </g>
    <g id="text_19">
     <!-- Average depth * 0.2 -->
     <g transform="translate(176 22.856358)scale(0.1 -0.1)">
      <defs>
       <path id="DejaVuSans-41" d="M 2188 4044 
L 1331 1722 
L 3047 1722 
L 2188 4044 
z
M 1831 4666 
L 2547 4666 
L 4325 0 
L 3669 0 
L 3244 1197 
L 1141 1197 
L 716 0 
L 50 0 
L 1831 4666 
z
" transform="scale(0.015625)"/>
       <path id="DejaVuSans-64" d="M 2906 2969 
L 2906 4863 
L 3481 4863 
L 3481 0 
L 2906 0 
L 2906 525 
Q 2725 213 2448 61 
Q 2172 -91 1784 -91 
Q 1150 -91 751 415 
Q 353 922 353 1747 
Q 353 2572 751 3078 
Q 1150 3584 1784 3584 
Q 2172 3584 2448 3432 
Q 2725 3281 2906 2969 
z
M 947 1747 
Q 947 1113 1208 752 
Q 1469 391 1925 391 
Q 2381 391 2643 752 
Q 2906 1113 2906 1747 
Q 2906 2381 2643 2742 
Q 2381 3103 1925 3103 
Q 1469 3103 1208 2742 
Q 947 2381 947 1747 
z
" transform="scale(0.015625)"/>
       <path id="DejaVuSans-2a" d="M 3009 3897 
L 1888 3291 
L 3009 2681 
L 2828 2375 
L 1778 3009 
L 1778 1831 
L 1422 1831 
L 1422 3009 
L 372 2375 
L 191 2681 
L 1313 3291 
L 191 3897 
L 372 4206 
L 1422 3572 
L 1422 4750 
L 1778 4750 
L 1778 3572 
L 2828 4206 
L 3009 3897 
z
" transform="scale(0.015625)"/>
       <path id="DejaVuSans-2e" d="M 684 794 
L 1344 794 
L 1344 0 
L 684 0 
L 684 794 
z
" transform="scale(0.015625)"/>
      </defs>
      <use xlink:href="#DejaVuSans-41"/>
      <use xlink:href="#DejaVuSans-76" x="62.533203"/>
      <use xlink:href="#DejaVuSans-65" x="121.712891"/>
      <use xlink:href="#DejaVuSans-72" x="183.236328"/>
      <use xlink:href="#DejaVuSans-61" x="224.349609"/>
      <use xlink:href="#DejaVuSans-67" x="285.628906"/>
      <use xlink:href="#DejaVuSans-65" x="349.105469"/>
      <use xlink:href="#DejaVuSans-20" x="410.628906"/>
      <use xlink:href="#DejaVuSans-64" x="442.416016"/>
      <use xlink:href="#DejaVuSans-65" x="505.892578"/>
      <use xlink:href="#DejaVuSans-70" x="567.416016"/>
      <use xlink:href="#DejaVuSans-74" x="630.892578"/>
      <use xlink:href="#DejaVuSans-68" x="670.101562"/>
      <use xlink:href="#DejaVuSans-20" x="733.480469"/>
      <use xlink:href="#DejaVuSans-2a" x="765.267578"/>
      <use xlink:href="#DejaVuSans-20" x="815.267578"/>
      <use xlink:href="#DejaVuSans-30" x="847.054688"/>
      <use xlink:href="#DejaVuSans-2e" x="910.677734"/>
      <use xlink:href="#DejaVuSans-32" x="942.464844"/>
     </g>
    </g>
    <g id="line2d_21">
     <path d="M 539.724219 19.356358 
L 549.724219 19.356358 
L 559.724219 19.356358 
" style="fill: none; stroke-dasharray: 5.55,2.4; stroke-dashoffset: 0; stroke: #2ca02c; stroke-width: 1.5"/>
    </g>
    <g id="text_20">
     <!-- Average depth -->
     <g transform="translate(567.724219 22.856358)scale(0.1 -0.1)">
      <use xlink:href="#DejaVuSans-41"/>
      <use xlink:href="#DejaVuSans-76" x="62.533203"/>
      <use xlink:href="#DejaVuSans-65" x="121.712891"/>
      <use xlink:href="#DejaVuSans-72" x="183.236328"/>
      <use xlink:href="#DejaVuSans-61" x="224.349609"/>
      <use xlink:href="#DejaVuSans-67" x="285.628906"/>
      <use xlink:href="#DejaVuSans-65" x="349.105469"/>
      <use xlink:href="#DejaVuSans-20" x="410.628906"/>
      <use xlink:href="#DejaVuSans-64" x="442.416016"/>
      <use xlink:href="#DejaVuSans-65" x="505.892578"/>
      <use xlink:href="#DejaVuSans-70" x="567.416016"/>
      <use xlink:href="#DejaVuSans-74" x="630.892578"/>
      <use xlink:href="#DejaVuSans-68" x="670.101562"/>
     </g>
    </g>
    <g id="line2d_22">
     <path d="M 904.189062 19.356358 
L 914.189062 19.356358 
L 924.189062 19.356358 
" style="fill: none; stroke-dasharray: 5.55,2.4; stroke-dashoffset: 0; stroke: #d62728; stroke-width: 1.5"/>
    </g>
    <g id="text_21">
     <!-- Average depth * 1.8 -->
     <g transform="translate(932.189062 22.856358)scale(0.1 -0.1)">
      <use xlink:href="#DejaVuSans-41"/>
      <use xlink:href="#DejaVuSans-76" x="62.533203"/>
      <use xlink:href="#DejaVuSans-65" x="121.712891"/>
      <use xlink:href="#DejaVuSans-72" x="183.236328"/>
      <use xlink:href="#DejaVuSans-61" x="224.349609"/>
      <use xlink:href="#DejaVuSans-67" x="285.628906"/>
      <use xlink:href="#DejaVuSans-65" x="349.105469"/>
      <use xlink:href="#DejaVuSans-20" x="410.628906"/>
      <use xlink:href="#DejaVuSans-64" x="442.416016"/>
      <use xlink:href="#DejaVuSans-65" x="505.892578"/>
      <use xlink:href="#DejaVuSans-70" x="567.416016"/>
      <use xlink:href="#DejaVuSans-74" x="630.892578"/>
      <use xlink:href="#DejaVuSans-68" x="670.101562"/>
      <use xlink:href="#DejaVuSans-20" x="733.480469"/>
      <use xlink:href="#DejaVuSans-2a" x="765.267578"/>
      <use xlink:href="#DejaVuSans-20" x="815.267578"/>
      <use xlink:href="#DejaVuSans-31" x="847.054688"/>
      <use xlink:href="#DejaVuSans-2e" x="910.677734"/>
      <use xlink:href="#DejaVuSans-38" x="942.464844"/>
     </g>
    </g>
   </g>
  </g>
 </g>
 <defs>
  <clipPath id="p34129ddc75">
   <rect x="144" y="51.84" width="892.8" height="332.64"/>
  </clipPath>
 </defs>
</svg>
