<?xml version="1.0" encoding="utf-8" standalone="no"?>
<!DOCTYPE svg PUBLIC "-//W3C//DTD SVG 1.1//EN"
  "http://www.w3.org/Graphics/SVG/1.1/DTD/svg11.dtd">
<svg xmlns:xlink="http://www.w3.org/1999/xlink" width="1152pt" height="432pt" viewBox="0 0 1152 432" xmlns="http://www.w3.org/2000/svg" version="1.1">
 <metadata>
  <rdf:RDF xmlns:dc="http://purl.org/dc/elements/1.1/" xmlns:cc="http://creativecommons.org/ns#" xmlns:rdf="http://www.w3.org/1999/02/22-rdf-syntax-ns#">
   <cc:Work>
    <dc:type rdf:resource="http://purl.org/dc/dcmitype/StillImage"/>
    <dc:date>2022-11-25T09:58:50.419175</dc:date>
    <dc:format>image/svg+xml</dc:format>
    <dc:creator>
     <cc:Agent>
      <dc:title>Matplotlib v3.5.2, https://matplotlib.org/</dc:title>
     </cc:Agent>
    </dc:creator>
   </cc:Work>
  </rdf:RDF>
 </metadata>
 <defs>
  <style type="text/css">*{stroke-linejoin: round; stroke-linecap: butt}</style>
 </defs>
 <g id="figure_1">
  <g id="patch_1">
   <path d="M 0 432 
L 1152 432 
L 1152 0 
L 0 0 
z
" style="fill: #ffffff"/>
  </g>
  <g id="axes_1">
   <g id="patch_2">
    <path d="M 144 384.48 
L 1036.8 384.48 
L 1036.8 51.84 
L 144 51.84 
z
" style="fill: #ffffff"/>
   </g>
   <g id="matplotlib.axis_1">
    <g id="xtick_1">
     <g id="line2d_1">
      <defs>
       <path id="madbc6faf8f" d="M 0 0 
L 0 3.5 
" style="stroke: #000000; stroke-width: 0.8"/>
      </defs>
      <g>
       <use xlink:href="#madbc6faf8f" x="184.581818" y="384.48" style="stroke: #000000; stroke-width: 0.8"/>
      </g>
     </g>
     <g id="text_1">
      <!-- 0 -->
      <g transform="translate(181.400568 399.078438)scale(0.1 -0.1)">
       <defs>
        <path id="DejaVuSans-30" d="M 2034 4250 
Q 1547 4250 1301 3770 
Q 1056 3291 1056 2328 
Q 1056 1369 1301 889 
Q 1547 409 2034 409 
Q 2525 409 2770 889 
Q 3016 1369 3016 2328 
Q 3016 3291 2770 3770 
Q 2525 4250 2034 4250 
z
M 2034 4750 
Q 2819 4750 3233 4129 
Q 3647 3509 3647 2328 
Q 3647 1150 3233 529 
Q 2819 -91 2034 -91 
Q 1250 -91 836 529 
Q 422 1150 422 2328 
Q 422 3509 836 4129 
Q 1250 4750 2034 4750 
z
" transform="scale(0.015625)"/>
       </defs>
       <use xlink:href="#DejaVuSans-30"/>
      </g>
     </g>
    </g>
    <g id="xtick_2">
     <g id="line2d_2">
      <g>
       <use xlink:href="#madbc6faf8f" x="367.177176" y="384.48" style="stroke: #000000; stroke-width: 0.8"/>
      </g>
     </g>
     <g id="text_2">
      <!-- 200 -->
      <g transform="translate(357.633426 399.078438)scale(0.1 -0.1)">
       <defs>
        <path id="DejaVuSans-32" d="M 1228 531 
L 3431 531 
L 3431 0 
L 469 0 
L 469 531 
Q 828 903 1448 1529 
Q 2069 2156 2228 2338 
Q 2531 2678 2651 2914 
Q 2772 3150 2772 3378 
Q 2772 3750 2511 3984 
Q 2250 4219 1831 4219 
Q 1534 4219 1204 4116 
Q 875 4013 500 3803 
L 500 4441 
Q 881 4594 1212 4672 
Q 1544 4750 1819 4750 
Q 2544 4750 2975 4387 
Q 3406 4025 3406 3419 
Q 3406 3131 3298 2873 
Q 3191 2616 2906 2266 
Q 2828 2175 2409 1742 
Q 1991 1309 1228 531 
z
" transform="scale(0.015625)"/>
       </defs>
       <use xlink:href="#DejaVuSans-32"/>
       <use xlink:href="#DejaVuSans-30" x="63.623047"/>
       <use xlink:href="#DejaVuSans-30" x="127.246094"/>
      </g>
     </g>
    </g>
    <g id="xtick_3">
     <g id="line2d_3">
      <g>
       <use xlink:href="#madbc6faf8f" x="549.772533" y="384.48" style="stroke: #000000; stroke-width: 0.8"/>
      </g>
     </g>
     <g id="text_3">
      <!-- 400 -->
      <g transform="translate(540.228783 399.078438)scale(0.1 -0.1)">
       <defs>
        <path id="DejaVuSans-34" d="M 2419 4116 
L 825 1625 
L 2419 1625 
L 2419 4116 
z
M 2253 4666 
L 3047 4666 
L 3047 1625 
L 3713 1625 
L 3713 1100 
L 3047 1100 
L 3047 0 
L 2419 0 
L 2419 1100 
L 313 1100 
L 313 1709 
L 2253 4666 
z
" transform="scale(0.015625)"/>
       </defs>
       <use xlink:href="#DejaVuSans-34"/>
       <use xlink:href="#DejaVuSans-30" x="63.623047"/>
       <use xlink:href="#DejaVuSans-30" x="127.246094"/>
      </g>
     </g>
    </g>
    <g id="xtick_4">
     <g id="line2d_4">
      <g>
       <use xlink:href="#madbc6faf8f" x="732.36789" y="384.48" style="stroke: #000000; stroke-width: 0.8"/>
      </g>
     </g>
     <g id="text_4">
      <!-- 600 -->
      <g transform="translate(722.82414 399.078438)scale(0.1 -0.1)">
       <defs>
        <path id="DejaVuSans-36" d="M 2113 2584 
Q 1688 2584 1439 2293 
Q 1191 2003 1191 1497 
Q 1191 994 1439 701 
Q 1688 409 2113 409 
Q 2538 409 2786 701 
Q 3034 994 3034 1497 
Q 3034 2003 2786 2293 
Q 2538 2584 2113 2584 
z
M 3366 4563 
L 3366 3988 
Q 3128 4100 2886 4159 
Q 2644 4219 2406 4219 
Q 1781 4219 1451 3797 
Q 1122 3375 1075 2522 
Q 1259 2794 1537 2939 
Q 1816 3084 2150 3084 
Q 2853 3084 3261 2657 
Q 3669 2231 3669 1497 
Q 3669 778 3244 343 
Q 2819 -91 2113 -91 
Q 1303 -91 875 529 
Q 447 1150 447 2328 
Q 447 3434 972 4092 
Q 1497 4750 2381 4750 
Q 2619 4750 2861 4703 
Q 3103 4656 3366 4563 
z
" transform="scale(0.015625)"/>
       </defs>
       <use xlink:href="#DejaVuSans-36"/>
       <use xlink:href="#DejaVuSans-30" x="63.623047"/>
       <use xlink:href="#DejaVuSans-30" x="127.246094"/>
      </g>
     </g>
    </g>
    <g id="xtick_5">
     <g id="line2d_5">
      <g>
       <use xlink:href="#madbc6faf8f" x="914.963248" y="384.48" style="stroke: #000000; stroke-width: 0.8"/>
      </g>
     </g>
     <g id="text_5">
      <!-- 800 -->
      <g transform="translate(905.419498 399.078438)scale(0.1 -0.1)">
       <defs>
        <path id="DejaVuSans-38" d="M 2034 2216 
Q 1584 2216 1326 1975 
Q 1069 1734 1069 1313 
Q 1069 891 1326 650 
Q 1584 409 2034 409 
Q 2484 409 2743 651 
Q 3003 894 3003 1313 
Q 3003 1734 2745 1975 
Q 2488 2216 2034 2216 
z
M 1403 2484 
Q 997 2584 770 2862 
Q 544 3141 544 3541 
Q 544 4100 942 4425 
Q 1341 4750 2034 4750 
Q 2731 4750 3128 4425 
Q 3525 4100 3525 3541 
Q 3525 3141 3298 2862 
Q 3072 2584 2669 2484 
Q 3125 2378 3379 2068 
Q 3634 1759 3634 1313 
Q 3634 634 3220 271 
Q 2806 -91 2034 -91 
Q 1263 -91 848 271 
Q 434 634 434 1313 
Q 434 1759 690 2068 
Q 947 2378 1403 2484 
z
M 1172 3481 
Q 1172 3119 1398 2916 
Q 1625 2713 2034 2713 
Q 2441 2713 2670 2916 
Q 2900 3119 2900 3481 
Q 2900 3844 2670 4047 
Q 2441 4250 2034 4250 
Q 1625 4250 1398 4047 
Q 1172 3844 1172 3481 
z
" transform="scale(0.015625)"/>
       </defs>
       <use xlink:href="#DejaVuSans-38"/>
       <use xlink:href="#DejaVuSans-30" x="63.623047"/>
       <use xlink:href="#DejaVuSans-30" x="127.246094"/>
      </g>
     </g>
    </g>
    <g id="text_6">
     <!-- Position -->
     <g transform="translate(570.935938 412.756563)scale(0.1 -0.1)">
      <defs>
       <path id="DejaVuSans-50" d="M 1259 4147 
L 1259 2394 
L 2053 2394 
Q 2494 2394 2734 2622 
Q 2975 2850 2975 3272 
Q 2975 3691 2734 3919 
Q 2494 4147 2053 4147 
L 1259 4147 
z
M 628 4666 
L 2053 4666 
Q 2838 4666 3239 4311 
Q 3641 3956 3641 3272 
Q 3641 2581 3239 2228 
Q 2838 1875 2053 1875 
L 1259 1875 
L 1259 0 
L 628 0 
L 628 4666 
z
" transform="scale(0.015625)"/>
       <path id="DejaVuSans-6f" d="M 1959 3097 
Q 1497 3097 1228 2736 
Q 959 2375 959 1747 
Q 959 1119 1226 758 
Q 1494 397 1959 397 
Q 2419 397 2687 759 
Q 2956 1122 2956 1747 
Q 2956 2369 2687 2733 
Q 2419 3097 1959 3097 
z
M 1959 3584 
Q 2709 3584 3137 3096 
Q 3566 2609 3566 1747 
Q 3566 888 3137 398 
Q 2709 -91 1959 -91 
Q 1206 -91 779 398 
Q 353 888 353 1747 
Q 353 2609 779 3096 
Q 1206 3584 1959 3584 
z
" transform="scale(0.015625)"/>
       <path id="DejaVuSans-73" d="M 2834 3397 
L 2834 2853 
Q 2591 2978 2328 3040 
Q 2066 3103 1784 3103 
Q 1356 3103 1142 2972 
Q 928 2841 928 2578 
Q 928 2378 1081 2264 
Q 1234 2150 1697 2047 
L 1894 2003 
Q 2506 1872 2764 1633 
Q 3022 1394 3022 966 
Q 3022 478 2636 193 
Q 2250 -91 1575 -91 
Q 1294 -91 989 -36 
Q 684 19 347 128 
L 347 722 
Q 666 556 975 473 
Q 1284 391 1588 391 
Q 1994 391 2212 530 
Q 2431 669 2431 922 
Q 2431 1156 2273 1281 
Q 2116 1406 1581 1522 
L 1381 1569 
Q 847 1681 609 1914 
Q 372 2147 372 2553 
Q 372 3047 722 3315 
Q 1072 3584 1716 3584 
Q 2034 3584 2315 3537 
Q 2597 3491 2834 3397 
z
" transform="scale(0.015625)"/>
       <path id="DejaVuSans-69" d="M 603 3500 
L 1178 3500 
L 1178 0 
L 603 0 
L 603 3500 
z
M 603 4863 
L 1178 4863 
L 1178 4134 
L 603 4134 
L 603 4863 
z
" transform="scale(0.015625)"/>
       <path id="DejaVuSans-74" d="M 1172 4494 
L 1172 3500 
L 2356 3500 
L 2356 3053 
L 1172 3053 
L 1172 1153 
Q 1172 725 1289 603 
Q 1406 481 1766 481 
L 2356 481 
L 2356 0 
L 1766 0 
Q 1100 0 847 248 
Q 594 497 594 1153 
L 594 3053 
L 172 3053 
L 172 3500 
L 594 3500 
L 594 4494 
L 1172 4494 
z
" transform="scale(0.015625)"/>
       <path id="DejaVuSans-6e" d="M 3513 2113 
L 3513 0 
L 2938 0 
L 2938 2094 
Q 2938 2591 2744 2837 
Q 2550 3084 2163 3084 
Q 1697 3084 1428 2787 
Q 1159 2491 1159 1978 
L 1159 0 
L 581 0 
L 581 3500 
L 1159 3500 
L 1159 2956 
Q 1366 3272 1645 3428 
Q 1925 3584 2291 3584 
Q 2894 3584 3203 3211 
Q 3513 2838 3513 2113 
z
" transform="scale(0.015625)"/>
      </defs>
      <use xlink:href="#DejaVuSans-50"/>
      <use xlink:href="#DejaVuSans-6f" x="56.677734"/>
      <use xlink:href="#DejaVuSans-73" x="117.859375"/>
      <use xlink:href="#DejaVuSans-69" x="169.958984"/>
      <use xlink:href="#DejaVuSans-74" x="197.742188"/>
      <use xlink:href="#DejaVuSans-69" x="236.951172"/>
      <use xlink:href="#DejaVuSans-6f" x="264.734375"/>
      <use xlink:href="#DejaVuSans-6e" x="325.916016"/>
     </g>
    </g>
   </g>
   <g id="matplotlib.axis_2">
    <g id="ytick_1">
     <g id="line2d_6">
      <defs>
       <path id="m7154c85d6d" d="M 0 0 
L -3.5 0 
" style="stroke: #000000; stroke-width: 0.8"/>
      </defs>
      <g>
       <use xlink:href="#m7154c85d6d" x="144" y="374.708045" style="stroke: #000000; stroke-width: 0.8"/>
      </g>
     </g>
     <g id="text_7">
      <!-- 0.0 -->
      <g transform="translate(121.096875 378.507264)scale(0.1 -0.1)">
       <defs>
        <path id="DejaVuSans-2e" d="M 684 794 
L 1344 794 
L 1344 0 
L 684 0 
L 684 794 
z
" transform="scale(0.015625)"/>
       </defs>
       <use xlink:href="#DejaVuSans-30"/>
       <use xlink:href="#DejaVuSans-2e" x="63.623047"/>
       <use xlink:href="#DejaVuSans-30" x="95.410156"/>
      </g>
     </g>
    </g>
    <g id="ytick_2">
     <g id="line2d_7">
      <g>
       <use xlink:href="#m7154c85d6d" x="144" y="314.377003" style="stroke: #000000; stroke-width: 0.8"/>
      </g>
     </g>
     <g id="text_8">
      <!-- 0.2 -->
      <g transform="translate(121.096875 318.176221)scale(0.1 -0.1)">
       <use xlink:href="#DejaVuSans-30"/>
       <use xlink:href="#DejaVuSans-2e" x="63.623047"/>
       <use xlink:href="#DejaVuSans-32" x="95.410156"/>
      </g>
     </g>
    </g>
    <g id="ytick_3">
     <g id="line2d_8">
      <g>
       <use xlink:href="#m7154c85d6d" x="144" y="254.04596" style="stroke: #000000; stroke-width: 0.8"/>
      </g>
     </g>
     <g id="text_9">
      <!-- 0.4 -->
      <g transform="translate(121.096875 257.845179)scale(0.1 -0.1)">
       <use xlink:href="#DejaVuSans-30"/>
       <use xlink:href="#DejaVuSans-2e" x="63.623047"/>
       <use xlink:href="#DejaVuSans-34" x="95.410156"/>
      </g>
     </g>
    </g>
    <g id="ytick_4">
     <g id="line2d_9">
      <g>
       <use xlink:href="#m7154c85d6d" x="144" y="193.714917" style="stroke: #000000; stroke-width: 0.8"/>
      </g>
     </g>
     <g id="text_10">
      <!-- 0.6 -->
      <g transform="translate(121.096875 197.514136)scale(0.1 -0.1)">
       <use xlink:href="#DejaVuSans-30"/>
       <use xlink:href="#DejaVuSans-2e" x="63.623047"/>
       <use xlink:href="#DejaVuSans-36" x="95.410156"/>
      </g>
     </g>
    </g>
    <g id="ytick_5">
     <g id="line2d_10">
      <g>
       <use xlink:href="#m7154c85d6d" x="144" y="133.383875" style="stroke: #000000; stroke-width: 0.8"/>
      </g>
     </g>
     <g id="text_11">
      <!-- 0.8 -->
      <g transform="translate(121.096875 137.183093)scale(0.1 -0.1)">
       <use xlink:href="#DejaVuSans-30"/>
       <use xlink:href="#DejaVuSans-2e" x="63.623047"/>
       <use xlink:href="#DejaVuSans-38" x="95.410156"/>
      </g>
     </g>
    </g>
    <g id="ytick_6">
     <g id="line2d_11">
      <g>
       <use xlink:href="#m7154c85d6d" x="144" y="73.052832" style="stroke: #000000; stroke-width: 0.8"/>
      </g>
     </g>
     <g id="text_12">
      <!-- 1.0 -->
      <g transform="translate(121.096875 76.852051)scale(0.1 -0.1)">
       <defs>
        <path id="DejaVuSans-31" d="M 794 531 
L 1825 531 
L 1825 4091 
L 703 3866 
L 703 4441 
L 1819 4666 
L 2450 4666 
L 2450 531 
L 3481 531 
L 3481 0 
L 794 0 
L 794 531 
z
" transform="scale(0.015625)"/>
       </defs>
       <use xlink:href="#DejaVuSans-31"/>
       <use xlink:href="#DejaVuSans-2e" x="63.623047"/>
       <use xlink:href="#DejaVuSans-30" x="95.410156"/>
      </g>
     </g>
    </g>
    <g id="text_13">
     <!-- Depth of coverage -->
     <g transform="translate(115.017187 264.602187)rotate(-90)scale(0.1 -0.1)">
      <defs>
       <path id="DejaVuSans-44" d="M 1259 4147 
L 1259 519 
L 2022 519 
Q 2988 519 3436 956 
Q 3884 1394 3884 2338 
Q 3884 3275 3436 3711 
Q 2988 4147 2022 4147 
L 1259 4147 
z
M 628 4666 
L 1925 4666 
Q 3281 4666 3915 4102 
Q 4550 3538 4550 2338 
Q 4550 1131 3912 565 
Q 3275 0 1925 0 
L 628 0 
L 628 4666 
z
" transform="scale(0.015625)"/>
       <path id="DejaVuSans-65" d="M 3597 1894 
L 3597 1613 
L 953 1613 
Q 991 1019 1311 708 
Q 1631 397 2203 397 
Q 2534 397 2845 478 
Q 3156 559 3463 722 
L 3463 178 
Q 3153 47 2828 -22 
Q 2503 -91 2169 -91 
Q 1331 -91 842 396 
Q 353 884 353 1716 
Q 353 2575 817 3079 
Q 1281 3584 2069 3584 
Q 2775 3584 3186 3129 
Q 3597 2675 3597 1894 
z
M 3022 2063 
Q 3016 2534 2758 2815 
Q 2500 3097 2075 3097 
Q 1594 3097 1305 2825 
Q 1016 2553 972 2059 
L 3022 2063 
z
" transform="scale(0.015625)"/>
       <path id="DejaVuSans-70" d="M 1159 525 
L 1159 -1331 
L 581 -1331 
L 581 3500 
L 1159 3500 
L 1159 2969 
Q 1341 3281 1617 3432 
Q 1894 3584 2278 3584 
Q 2916 3584 3314 3078 
Q 3713 2572 3713 1747 
Q 3713 922 3314 415 
Q 2916 -91 2278 -91 
Q 1894 -91 1617 61 
Q 1341 213 1159 525 
z
M 3116 1747 
Q 3116 2381 2855 2742 
Q 2594 3103 2138 3103 
Q 1681 3103 1420 2742 
Q 1159 2381 1159 1747 
Q 1159 1113 1420 752 
Q 1681 391 2138 391 
Q 2594 391 2855 752 
Q 3116 1113 3116 1747 
z
" transform="scale(0.015625)"/>
       <path id="DejaVuSans-68" d="M 3513 2113 
L 3513 0 
L 2938 0 
L 2938 2094 
Q 2938 2591 2744 2837 
Q 2550 3084 2163 3084 
Q 1697 3084 1428 2787 
Q 1159 2491 1159 1978 
L 1159 0 
L 581 0 
L 581 4863 
L 1159 4863 
L 1159 2956 
Q 1366 3272 1645 3428 
Q 1925 3584 2291 3584 
Q 2894 3584 3203 3211 
Q 3513 2838 3513 2113 
z
" transform="scale(0.015625)"/>
       <path id="DejaVuSans-20" transform="scale(0.015625)"/>
       <path id="DejaVuSans-66" d="M 2375 4863 
L 2375 4384 
L 1825 4384 
Q 1516 4384 1395 4259 
Q 1275 4134 1275 3809 
L 1275 3500 
L 2222 3500 
L 2222 3053 
L 1275 3053 
L 1275 0 
L 697 0 
L 697 3053 
L 147 3053 
L 147 3500 
L 697 3500 
L 697 3744 
Q 697 4328 969 4595 
Q 1241 4863 1831 4863 
L 2375 4863 
z
" transform="scale(0.015625)"/>
       <path id="DejaVuSans-63" d="M 3122 3366 
L 3122 2828 
Q 2878 2963 2633 3030 
Q 2388 3097 2138 3097 
Q 1578 3097 1268 2742 
Q 959 2388 959 1747 
Q 959 1106 1268 751 
Q 1578 397 2138 397 
Q 2388 397 2633 464 
Q 2878 531 3122 666 
L 3122 134 
Q 2881 22 2623 -34 
Q 2366 -91 2075 -91 
Q 1284 -91 818 406 
Q 353 903 353 1747 
Q 353 2603 823 3093 
Q 1294 3584 2113 3584 
Q 2378 3584 2631 3529 
Q 2884 3475 3122 3366 
z
" transform="scale(0.015625)"/>
       <path id="DejaVuSans-76" d="M 191 3500 
L 800 3500 
L 1894 563 
L 2988 3500 
L 3597 3500 
L 2284 0 
L 1503 0 
L 191 3500 
z
" transform="scale(0.015625)"/>
       <path id="DejaVuSans-72" d="M 2631 2963 
Q 2534 3019 2420 3045 
Q 2306 3072 2169 3072 
Q 1681 3072 1420 2755 
Q 1159 2438 1159 1844 
L 1159 0 
L 581 0 
L 581 3500 
L 1159 3500 
L 1159 2956 
Q 1341 3275 1631 3429 
Q 1922 3584 2338 3584 
Q 2397 3584 2469 3576 
Q 2541 3569 2628 3553 
L 2631 2963 
z
" transform="scale(0.015625)"/>
       <path id="DejaVuSans-61" d="M 2194 1759 
Q 1497 1759 1228 1600 
Q 959 1441 959 1056 
Q 959 750 1161 570 
Q 1363 391 1709 391 
Q 2188 391 2477 730 
Q 2766 1069 2766 1631 
L 2766 1759 
L 2194 1759 
z
M 3341 1997 
L 3341 0 
L 2766 0 
L 2766 531 
Q 2569 213 2275 61 
Q 1981 -91 1556 -91 
Q 1019 -91 701 211 
Q 384 513 384 1019 
Q 384 1609 779 1909 
Q 1175 2209 1959 2209 
L 2766 2209 
L 2766 2266 
Q 2766 2663 2505 2880 
Q 2244 3097 1772 3097 
Q 1472 3097 1187 3025 
Q 903 2953 641 2809 
L 641 3341 
Q 956 3463 1253 3523 
Q 1550 3584 1831 3584 
Q 2591 3584 2966 3190 
Q 3341 2797 3341 1997 
z
" transform="scale(0.015625)"/>
       <path id="DejaVuSans-67" d="M 2906 1791 
Q 2906 2416 2648 2759 
Q 2391 3103 1925 3103 
Q 1463 3103 1205 2759 
Q 947 2416 947 1791 
Q 947 1169 1205 825 
Q 1463 481 1925 481 
Q 2391 481 2648 825 
Q 2906 1169 2906 1791 
z
M 3481 434 
Q 3481 -459 3084 -895 
Q 2688 -1331 1869 -1331 
Q 1566 -1331 1297 -1286 
Q 1028 -1241 775 -1147 
L 775 -588 
Q 1028 -725 1275 -790 
Q 1522 -856 1778 -856 
Q 2344 -856 2625 -561 
Q 2906 -266 2906 331 
L 2906 616 
Q 2728 306 2450 153 
Q 2172 0 1784 0 
Q 1141 0 747 490 
Q 353 981 353 1791 
Q 353 2603 747 3093 
Q 1141 3584 1784 3584 
Q 2172 3584 2450 3431 
Q 2728 3278 2906 2969 
L 2906 3500 
L 3481 3500 
L 3481 434 
z
" transform="scale(0.015625)"/>
      </defs>
      <use xlink:href="#DejaVuSans-44"/>
      <use xlink:href="#DejaVuSans-65" x="77.001953"/>
      <use xlink:href="#DejaVuSans-70" x="138.525391"/>
      <use xlink:href="#DejaVuSans-74" x="202.001953"/>
      <use xlink:href="#DejaVuSans-68" x="241.210938"/>
      <use xlink:href="#DejaVuSans-20" x="304.589844"/>
      <use xlink:href="#DejaVuSans-6f" x="336.376953"/>
      <use xlink:href="#DejaVuSans-66" x="397.558594"/>
      <use xlink:href="#DejaVuSans-20" x="432.763672"/>
      <use xlink:href="#DejaVuSans-63" x="464.550781"/>
      <use xlink:href="#DejaVuSans-6f" x="519.53125"/>
      <use xlink:href="#DejaVuSans-76" x="580.712891"/>
      <use xlink:href="#DejaVuSans-65" x="639.892578"/>
      <use xlink:href="#DejaVuSans-72" x="701.416016"/>
      <use xlink:href="#DejaVuSans-61" x="742.529297"/>
      <use xlink:href="#DejaVuSans-67" x="803.808594"/>
      <use xlink:href="#DejaVuSans-65" x="867.285156"/>
     </g>
    </g>
    <g id="text_14">
     <!-- 1e6 -->
     <g transform="translate(144 48.84)scale(0.1 -0.1)">
      <use xlink:href="#DejaVuSans-31"/>
      <use xlink:href="#DejaVuSans-65" x="63.623047"/>
      <use xlink:href="#DejaVuSans-36" x="125.146484"/>
     </g>
    </g>
   </g>
   <g id="line2d_12">
    <path d="M 184.581818 337.122711 
L 185.494795 317.519345 
L 186.407772 315.608661 
L 187.320749 315.326312 
L 188.233725 308.020222 
L 189.146702 307.353564 
L 191.885632 306.925214 
L 192.798609 306.836226 
L 193.711586 305.696271 
L 195.53754 304.855859 
L 196.450516 304.707445 
L 197.363493 303.101131 
L 198.27647 302.735525 
L 199.189447 301.424229 
L 201.0154 301.242331 
L 201.928377 300.037219 
L 202.841354 299.248692 
L 203.754331 294.355543 
L 204.667307 293.076223 
L 205.580284 292.881655 
L 206.493261 292.528116 
L 207.406238 292.37216 
L 208.319215 291.730539 
L 209.232191 291.618625 
L 211.058145 287.127281 
L 211.971122 283.068208 
L 212.884099 253.47191 
L 213.797075 253.313843 
L 214.710052 250.538916 
L 215.623029 249.598356 
L 216.536006 249.481917 
L 217.448983 247.669874 
L 219.274936 247.24454 
L 220.187913 246.67954 
L 222.013866 246.627353 
L 222.926843 245.939579 
L 223.83982 244.82074 
L 225.665774 244.545932 
L 226.57875 236.066103 
L 227.491727 235.902907 
L 228.404704 234.076083 
L 229.317681 231.260132 
L 230.230658 230.972956 
L 231.143634 229.052016 
L 232.056611 229.026677 
L 232.969588 225.758846 
L 233.882565 225.670159 
L 234.795541 224.853578 
L 235.708518 224.355244 
L 237.534472 223.731421 
L 238.447449 222.903679 
L 239.360425 222.537771 
L 240.273402 221.667194 
L 241.186379 221.486201 
L 242.099356 218.551398 
L 243.012333 217.563477 
L 243.925309 217.366798 
L 245.751263 213.585248 
L 246.66424 211.7358 
L 247.577216 210.448335 
L 248.490193 210.325863 
L 249.40317 209.157553 
L 250.316147 208.624528 
L 251.229124 208.492403 
L 252.1421 208.097838 
L 253.055077 208.040222 
L 253.968054 207.512928 
L 254.881031 205.595005 
L 255.794008 205.11115 
L 256.706984 204.398037 
L 257.619961 204.157617 
L 258.532938 204.13258 
L 260.358892 203.768784 
L 261.271868 202.362467 
L 262.184845 202.063225 
L 263.097822 200.524482 
L 264.010799 200.156764 
L 266.749729 198.551054 
L 268.575683 198.237936 
L 270.401636 198.211692 
L 271.314613 196.019261 
L 272.22759 191.501673 
L 273.140567 188.792206 
L 274.053543 187.784376 
L 274.96652 187.484832 
L 275.879497 187.006105 
L 276.792474 181.868917 
L 277.70545 180.861087 
L 278.618427 180.366071 
L 279.531404 180.041188 
L 280.444381 180.222181 
L 281.357358 178.40682 
L 282.270334 177.805621 
L 283.183311 176.015599 
L 284.096288 175.617414 
L 285.009265 175.837321 
L 285.922242 174.577609 
L 286.835218 172.590003 
L 287.748195 170.015375 
L 288.661172 166.958703 
L 289.574149 165.749669 
L 290.487125 165.330067 
L 291.400102 165.172603 
L 292.313079 164.432944 
L 293.226056 158.465601 
L 294.139033 154.995661 
L 295.052009 154.216485 
L 295.964986 153.970938 
L 296.877963 153.025249 
L 297.79094 152.56613 
L 298.703917 152.36945 
L 299.616893 151.692536 
L 300.52987 151.674437 
L 301.442847 150.558916 
L 302.355824 150.467816 
L 303.2688 149.441887 
L 305.094754 149.259989 
L 306.007731 148.552004 
L 306.920708 148.454569 
L 307.833684 148.102236 
L 310.572615 147.795151 
L 311.485592 147.99726 
L 312.398568 144.488406 
L 313.311545 142.567466 
L 314.224522 141.89568 
L 315.137499 141.538822 
L 317.876429 141.688744 
L 318.789406 142.093566 
L 319.702383 142.669124 
L 320.615359 150.050024 
L 321.528336 204.476769 
L 322.441313 209.636581 
L 323.35429 209.821496 
L 324.267267 209.538543 
L 325.180243 208.592251 
L 326.09322 194.974931 
L 327.006197 192.041636 
L 327.919174 191.549033 
L 328.832151 189.617535 
L 329.745127 188.173813 
L 330.658104 186.335827 
L 332.484058 186.132512 
L 333.397034 185.227245 
L 334.310011 184.787733 
L 335.222988 186.235376 
L 336.135965 181.439058 
L 337.048942 181.804363 
L 337.961918 180.871343 
L 338.874895 177.068979 
L 339.787872 176.824639 
L 340.700849 175.180618 
L 341.613826 175.307615 
L 342.526802 174.741709 
L 343.439779 172.460291 
L 344.352756 172.163462 
L 345.265733 168.88628 
L 346.178709 169.379185 
L 347.091686 165.627499 
L 348.004663 200.621917 
L 348.91764 202.095502 
L 349.830617 202.140449 
L 350.743593 215.098049 
L 351.65657 213.737584 
L 352.569547 209.260417 
L 353.482524 209.129499 
L 354.395501 207.96149 
L 355.308477 207.623334 
L 356.221454 207.501164 
L 357.134431 200.914824 
L 358.047408 200.435795 
L 358.960384 201.137747 
L 359.873361 199.740179 
L 360.786338 199.831882 
L 361.699315 200.124789 
L 362.612292 198.90218 
L 364.438245 197.605063 
L 365.351222 201.298529 
L 366.264199 201.32598 
L 367.177176 201.509386 
L 368.090152 201.835777 
L 369.003129 204.773296 
L 369.916106 204.869825 
L 370.829083 206.444767 
L 372.655036 201.753124 
L 373.568013 201.217082 
L 374.48099 199.010475 
L 376.306943 199.322084 
L 377.21992 197.126638 
L 378.132897 198.084091 
L 379.045874 196.719705 
L 379.958851 198.048496 
L 380.871827 196.560733 
L 381.784804 195.378847 
L 382.697781 197.501897 
L 383.610758 197.093456 
L 384.523735 198.049401 
L 385.436711 199.322084 
L 386.349688 199.649984 
L 387.262665 200.243943 
L 388.175642 200.639714 
L 389.088618 198.934457 
L 390.914572 198.902784 
L 391.827549 197.572786 
L 392.740526 198.386048 
L 393.653502 198.725712 
L 394.566479 197.940202 
L 395.479456 198.093443 
L 396.392433 198.021045 
L 397.30541 201.166706 
L 398.218386 201.141065 
L 399.131363 202.591424 
L 400.04434 198.333259 
L 400.957317 190.547839 
L 401.870293 190.44226 
L 402.78327 189.857652 
L 403.696247 187.622085 
L 404.609224 186.139148 
L 405.522201 185.520755 
L 406.435177 184.169641 
L 407.348154 184.259836 
L 408.261131 183.487599 
L 409.174108 174.063588 
L 410.087085 175.876536 
L 411.000061 178.340758 
L 411.913038 179.21224 
L 412.826015 179.149797 
L 413.738992 178.821898 
L 414.651969 181.923517 
L 415.564945 181.606779 
L 416.477922 177.75977 
L 417.390899 177.593558 
L 418.303876 171.635867 
L 419.216852 172.447018 
L 420.129829 172.447923 
L 421.042806 173.904616 
L 421.955783 173.958009 
L 422.86876 173.395422 
L 423.781736 172.522734 
L 424.694713 171.814749 
L 425.60769 173.678676 
L 426.520667 173.753487 
L 427.433644 173.301306 
L 428.34662 172.54023 
L 429.259597 172.516097 
L 430.172574 173.0998 
L 431.085551 178.437287 
L 431.998527 179.007717 
L 432.911504 179.196554 
L 433.824481 180.122333 
L 434.737458 181.65444 
L 435.650435 181.733172 
L 436.563411 191.742092 
L 437.476388 191.805138 
L 438.389365 190.141208 
L 439.302342 189.871227 
L 440.215319 188.95329 
L 441.128295 188.423583 
L 442.041272 182.311445 
L 442.954249 182.016125 
L 443.867226 181.337702 
L 444.780202 179.959741 
L 446.606156 178.146492 
L 447.519133 178.173037 
L 448.43211 176.880143 
L 449.345086 176.643344 
L 450.258063 171.754418 
L 451.17104 170.002103 
L 452.084017 169.450979 
L 452.996994 169.978272 
L 453.90997 169.977065 
L 454.822947 170.340861 
L 455.735924 173.199045 
L 456.648901 174.540807 
L 457.561877 172.892563 
L 459.387831 176.797791 
L 460.300808 176.833387 
L 461.213785 176.189353 
L 462.126761 176.563104 
L 463.039738 176.178493 
L 463.952715 175.388458 
L 464.865692 175.797804 
L 465.778669 173.156813 
L 466.691645 173.368575 
L 467.604622 173.434336 
L 468.517599 173.082304 
L 469.430576 161.24294 
L 470.343553 161.867668 
L 471.256529 162.777762 
L 472.169506 169.744791 
L 473.082483 167.22597 
L 475.821413 161.645952 
L 476.73439 160.956669 
L 477.647367 162.541264 
L 478.560344 162.265551 
L 479.47332 162.591339 
L 480.386297 162.669166 
L 481.299274 164.943043 
L 482.212251 164.106553 
L 483.125228 168.366528 
L 484.038204 169.053397 
L 484.951181 171.177653 
L 486.777135 161.987124 
L 487.690111 162.277618 
L 488.603088 162.023926 
L 489.516065 164.077896 
L 490.429042 164.31741 
L 491.342019 163.17112 
L 492.254995 163.348795 
L 493.167972 161.180196 
L 494.993926 167.22778 
L 495.906903 168.067286 
L 496.819879 166.421455 
L 497.732856 167.380719 
L 498.645833 165.843484 
L 499.55881 165.942427 
L 501.384763 167.40636 
L 502.29774 166.25102 
L 504.123694 166.03413 
L 505.03667 167.948434 
L 505.949647 166.887814 
L 506.862624 166.2839 
L 507.775601 165.864901 
L 508.688578 166.302905 
L 509.601554 165.944237 
L 510.514531 167.807863 
L 511.427508 168.039534 
L 512.340485 168.701365 
L 514.166438 170.932407 
L 515.079415 172.391815 
L 515.992392 172.960435 
L 516.905369 173.383959 
L 517.818345 176.072009 
L 518.731322 175.406859 
L 519.644299 177.255704 
L 520.557276 170.55383 
L 521.470253 170.070277 
L 522.383229 168.635303 
L 523.296206 169.164708 
L 524.209183 170.029252 
L 525.12216 168.404838 
L 526.035137 167.670911 
L 526.948113 167.491125 
L 527.86109 169.488987 
L 528.774067 167.918872 
L 529.687044 163.6595 
L 530.60002 160.452 
L 531.512997 155.612244 
L 532.425974 157.074065 
L 533.338951 158.826079 
L 534.251928 157.770587 
L 535.164904 156.225207 
L 536.077881 155.368507 
L 536.990858 159.720185 
L 537.903835 162.841411 
L 538.816812 157.454754 
L 539.729788 156.956721 
L 540.642765 151.657544 
L 541.555742 152.395694 
L 542.468719 149.326051 
L 544.294672 148.313093 
L 545.207649 147.916416 
L 546.120626 151.845174 
L 547.033603 157.244199 
L 547.946579 156.2786 
L 548.859556 156.407709 
L 549.772533 155.078918 
L 550.68551 157.525643 
L 551.598487 157.176326 
L 552.511463 156.600165 
L 553.42444 156.820675 
L 554.337417 158.171788 
L 555.250394 159.28188 
L 556.16337 162.573843 
L 557.076347 163.041107 
L 557.989324 163.653165 
L 558.902301 162.581988 
L 559.815278 162.369622 
L 560.728254 162.946991 
L 561.641231 165.638358 
L 562.554208 169.104075 
L 563.467185 168.826552 
L 564.380162 169.462441 
L 565.293138 169.101059 
L 566.206115 170.261828 
L 567.119092 169.743886 
L 568.032069 171.949589 
L 568.945046 171.409626 
L 569.858022 171.404799 
L 571.683976 167.723399 
L 572.596953 167.861859 
L 573.509929 168.509513 
L 574.422906 168.718861 
L 575.335883 170.573438 
L 576.24886 170.617479 
L 577.161837 171.022301 
L 578.074813 171.932394 
L 578.98779 173.775809 
L 579.900767 194.128788 
L 580.813744 194.394547 
L 581.726721 194.897406 
L 582.639697 196.830111 
L 584.465651 196.835842 
L 585.378628 197.060575 
L 586.291604 196.976413 
L 587.204581 180.596837 
L 589.030535 180.091263 
L 589.943512 179.97965 
L 590.856488 178.099735 
L 591.769465 173.930257 
L 592.682442 165.689036 
L 593.595419 165.429311 
L 594.508396 163.973222 
L 595.421372 165.577122 
L 596.334349 165.956605 
L 597.247326 166.209392 
L 598.160303 154.834275 
L 599.073279 161.604022 
L 599.986256 157.410109 
L 600.899233 155.591731 
L 601.81221 152.942595 
L 602.725187 149.259989 
L 603.638163 152.366434 
L 604.55114 152.103391 
L 605.464117 152.711527 
L 606.377094 164.830526 
L 607.290071 155.4949 
L 608.203047 156.55371 
L 609.116024 157.407394 
L 610.029001 156.121438 
L 610.941978 162.698427 
L 611.854954 162.121059 
L 613.680908 166.051928 
L 614.593885 166.194912 
L 615.506862 168.171357 
L 616.419838 167.118279 
L 617.332815 166.305921 
L 618.245792 163.445928 
L 619.158769 163.32044 
L 620.071746 163.524057 
L 620.984722 164.792819 
L 621.897699 162.894503 
L 622.810676 161.970533 
L 623.723653 166.572886 
L 624.63663 169.707084 
L 627.37556 169.887172 
L 628.288537 169.188539 
L 629.201513 170.376457 
L 630.11449 172.677784 
L 631.027467 171.984581 
L 631.940444 172.421679 
L 632.853421 171.907055 
L 633.766397 170.713104 
L 634.679374 172.125755 
L 635.592351 171.999362 
L 636.505328 174.469013 
L 637.418305 174.341111 
L 638.331281 173.775809 
L 639.244258 173.948356 
L 640.157235 171.933903 
L 641.070212 172.98125 
L 641.983188 167.931843 
L 642.896165 165.916183 
L 643.809142 166.759912 
L 644.722119 166.779822 
L 645.635096 166.42236 
L 646.548072 167.414504 
L 647.461049 163.439593 
L 648.374026 162.756043 
L 649.287003 161.228461 
L 650.19998 160.99136 
L 651.112956 161.783506 
L 652.025933 161.351536 
L 652.93891 161.403421 
L 653.851887 161.896929 
L 654.764863 161.893007 
L 655.67784 162.667959 
L 656.590817 160.723188 
L 657.503794 160.976579 
L 658.416771 161.347615 
L 659.329747 162.17596 
L 660.242724 157.945245 
L 661.155701 156.080715 
L 662.068678 156.284935 
L 662.981655 157.667723 
L 663.894631 158.573292 
L 664.807608 158.463791 
L 665.720585 156.801671 
L 666.633562 160.092729 
L 667.546539 157.727149 
L 668.459515 161.370842 
L 669.372492 162.458309 
L 670.285469 161.984107 
L 671.198446 162.051376 
L 672.111422 160.721982 
L 673.024399 162.408536 
L 673.937376 162.75182 
L 674.850353 163.342461 
L 675.76333 167.92038 
L 676.676306 171.380064 
L 677.589283 175.823747 
L 678.50226 175.929326 
L 679.415237 176.422532 
L 680.328214 181.304822 
L 681.24119 181.106634 
L 682.154167 182.401339 
L 683.067144 182.613704 
L 683.980121 184.301766 
L 684.893097 184.402519 
L 685.806074 185.542474 
L 686.719051 185.891188 
L 687.632028 187.341546 
L 688.545005 186.393745 
L 689.457981 186.917117 
L 690.370958 187.708359 
L 691.283935 186.504151 
L 692.196912 186.574135 
L 693.109889 185.467965 
L 694.935842 185.713513 
L 695.848819 185.666455 
L 696.761796 186.896906 
L 697.674772 187.148185 
L 698.587749 187.004899 
L 699.500726 186.382584 
L 700.413703 185.909589 
L 701.32668 186.295104 
L 702.239656 186.40008 
L 703.152633 184.842634 
L 704.06561 185.106281 
L 704.978587 184.223034 
L 705.891564 183.734655 
L 706.80454 185.05138 
L 707.717517 184.855304 
L 708.630494 187.825099 
L 709.543471 189.804561 
L 710.456447 189.360524 
L 711.369424 190.708018 
L 712.282401 187.608209 
L 713.195378 186.101743 
L 714.108355 185.673694 
L 715.021331 184.882151 
L 715.934308 183.661051 
L 716.847285 183.427268 
L 717.760262 183.864065 
L 718.673239 188.954496 
L 719.586215 187.864616 
L 720.499192 189.16113 
L 721.412169 187.649536 
L 722.325146 182.604956 
L 723.238123 182.266499 
L 724.151099 181.148564 
L 725.064076 178.932002 
L 725.977053 177.075616 
L 726.89003 174.959504 
L 727.803006 178.252976 
L 728.715983 180.965158 
L 729.62896 181.195623 
L 730.541937 191.981606 
L 731.454914 190.388565 
L 732.36789 190.190679 
L 733.280867 189.782238 
L 734.193844 187.800062 
L 735.106821 188.626296 
L 736.019798 197.679572 
L 736.932774 197.747444 
L 737.845751 197.314569 
L 738.758728 199.333246 
L 739.671705 201.68133 
L 740.584681 200.910601 
L 742.410635 200.786922 
L 743.323612 196.159833 
L 744.236589 196.48924 
L 745.149565 202.704243 
L 746.062542 203.029125 
L 746.975519 204.068629 
L 747.888496 200.550123 
L 748.801473 197.832209 
L 749.714449 197.273544 
L 750.627426 197.754081 
L 751.540403 198.545021 
L 752.45338 198.483483 
L 753.366356 201.501242 
L 754.279333 202.024915 
L 755.19231 196.292259 
L 756.105287 199.917853 
L 757.018264 200.086479 
L 757.93124 199.488296 
L 758.844217 199.384225 
L 759.757194 201.551618 
L 760.670171 201.793546 
L 761.583148 201.776351 
L 762.496124 202.55432 
L 763.409101 202.188412 
L 764.322078 198.523 
L 765.235055 198.794791 
L 766.148031 200.441527 
L 767.061008 201.334728 
L 767.973985 200.815881 
L 768.886962 200.836394 
L 769.799939 201.033676 
L 770.712915 199.329927 
L 771.625892 193.814464 
L 772.538869 192.938457 
L 773.451846 192.897733 
L 774.364823 193.579172 
L 775.277799 193.135739 
L 776.190776 197.501595 
L 777.103753 197.307329 
L 778.929707 195.377339 
L 779.842683 195.126362 
L 780.75566 197.032823 
L 781.668637 197.258461 
L 782.581614 195.998749 
L 783.49459 197.565244 
L 784.407567 197.356801 
L 785.320544 201.308182 
L 786.233521 202.619779 
L 787.146498 190.198522 
L 788.059474 190.127332 
L 788.972451 189.188882 
L 789.885428 189.159019 
L 790.798405 189.328851 
L 791.711382 188.55239 
L 792.624358 189.360524 
L 793.537335 188.784665 
L 794.450312 193.29803 
L 795.363289 196.675965 
L 796.276265 196.643688 
L 797.189242 198.2132 
L 798.102219 198.126021 
L 800.841149 198.99147 
L 801.754126 206.971457 
L 802.667103 209.050767 
L 803.58008 203.30152 
L 804.493057 203.20318 
L 805.406033 198.471718 
L 806.31901 197.521504 
L 807.231987 200.859621 
L 808.144964 198.227981 
L 809.05794 198.207167 
L 809.970917 200.708793 
L 810.883894 199.990552 
L 811.796871 201.242723 
L 813.622824 200.357063 
L 814.535801 200.026751 
L 815.448778 200.111818 
L 816.361755 200.538057 
L 817.274732 195.83133 
L 818.187708 195.830727 
L 819.100685 196.445199 
L 820.013662 196.447914 
L 820.926639 195.079605 
L 821.839616 195.08413 
L 822.752592 194.530895 
L 823.665569 195.542043 
L 824.578546 195.657577 
L 825.491523 196.949265 
L 826.404499 197.921499 
L 827.317476 198.019236 
L 828.230453 200.781492 
L 829.14343 200.180595 
L 830.056407 198.048798 
L 830.969383 200.559172 
L 831.88236 201.097627 
L 832.795337 201.142272 
L 833.708314 199.887085 
L 835.534267 199.946511 
L 836.447244 202.269256 
L 838.273198 200.72448 
L 840.099151 200.946196 
L 841.012128 202.425513 
L 841.925105 202.262619 
L 842.838082 203.544956 
L 843.751058 204.554294 
L 844.664035 204.390194 
L 845.577012 202.144069 
L 846.489989 201.59747 
L 847.402966 202.365182 
L 848.315942 203.289152 
L 849.228919 201.722958 
L 850.141896 205.204059 
L 851.054873 207.532536 
L 851.967849 207.746108 
L 853.793803 209.563581 
L 854.70678 209.407022 
L 855.619757 204.033637 
L 856.532733 203.468335 
L 857.44571 205.213411 
L 858.358687 205.590178 
L 859.271664 191.044967 
L 860.184641 196.095279 
L 861.097617 197.6847 
L 862.010594 195.012035 
L 862.923571 199.62374 
L 863.836548 199.655413 
L 864.749524 199.256927 
L 865.662501 199.369143 
L 866.575478 200.510606 
L 867.488455 200.639714 
L 868.401432 200.558267 
L 869.314408 202.576341 
L 871.140362 202.87317 
L 872.053339 206.524103 
L 872.966316 206.418825 
L 873.879292 207.402824 
L 874.792269 207.550032 
L 876.618223 211.67939 
L 877.5312 211.803672 
L 878.444176 212.30985 
L 879.357153 212.319804 
L 880.27013 215.452192 
L 881.183107 217.565588 
L 882.096083 218.516707 
L 883.922037 219.910656 
L 885.747991 224.621605 
L 887.573944 234.036566 
L 888.486921 234.544855 
L 889.399898 237.046784 
L 890.312875 237.398514 
L 891.225851 237.080871 
L 892.138828 236.983134 
L 893.051805 237.114053 
L 893.964782 237.732748 
L 894.877758 237.734859 
L 895.790735 240.011753 
L 897.616689 240.108282 
L 898.529666 240.247949 
L 899.442642 240.535125 
L 900.355619 244.74412 
L 901.268596 245.020134 
L 903.09455 245.151354 
L 904.007526 245.470807 
L 904.920503 246.008357 
L 905.83348 247.016187 
L 906.746457 247.051179 
L 907.659433 249.084637 
L 908.57241 252.06861 
L 909.485387 256.305358 
L 910.398364 256.67217 
L 912.224317 256.862515 
L 913.137294 258.405481 
L 914.050271 264.609624 
L 914.963248 266.110359 
L 915.876225 266.234942 
L 917.702178 266.920001 
L 918.615155 268.434009 
L 920.441108 268.482575 
L 922.267062 268.773672 
L 923.180039 269.407752 
L 924.093016 271.455387 
L 925.005992 284.792168 
L 925.918969 285.47602 
L 926.831946 286.815067 
L 927.744923 287.731194 
L 928.6579 287.771013 
L 929.570876 290.758606 
L 930.483853 290.894351 
L 931.39683 291.583331 
L 933.222784 293.302163 
L 934.13576 293.602611 
L 935.048737 293.68255 
L 935.961714 294.008338 
L 936.874691 304.689044 
L 937.787667 304.704428 
L 938.700644 304.952087 
L 942.352551 305.057968 
L 943.265528 305.31347 
L 944.178505 306.105315 
L 945.091482 306.123113 
L 946.004459 309.929097 
L 946.917435 310.26514 
L 947.830412 310.847637 
L 948.743389 311.040998 
L 949.656366 311.047332 
L 950.569342 312.075072 
L 951.482319 312.640977 
L 952.395296 313.503711 
L 953.308273 319.611022 
L 954.22125 319.836962 
L 955.134226 319.925347 
L 956.047203 320.252341 
L 956.96018 320.299098 
L 957.873157 321.645687 
L 958.786134 321.841461 
L 959.69911 322.164534 
L 960.612087 322.60676 
L 962.438041 322.869803 
L 963.351017 323.18081 
L 964.263994 323.185637 
L 965.176971 323.453205 
L 966.089948 324.779583 
L 967.002925 325.177466 
L 967.915901 325.711396 
L 969.741855 325.769917 
L 970.654832 326.06584 
L 971.567809 327.644402 
L 973.393762 329.330052 
L 974.306739 329.493549 
L 975.219716 330.141504 
L 976.132693 332.28024 
L 977.045669 332.600899 
L 978.871623 332.584308 
L 979.7846 332.729404 
L 980.697576 333.064845 
L 981.610553 333.258809 
L 982.52353 333.651262 
L 983.436507 337.219542 
L 984.349484 337.334774 
L 986.175437 338.93234 
L 987.088414 340.334735 
L 988.001391 340.940459 
L 988.914368 340.982087 
L 989.827344 341.74075 
L 990.740321 341.691581 
L 991.653298 341.972422 
L 992.566275 348.863433 
L 993.479251 349.565988 
L 994.392228 349.793436 
L 995.305205 350.762051 
L 996.218182 369.36 
L 996.218182 369.36 
" clip-path="url(#p540045d91f)" style="fill: none; stroke: #1f77b4; stroke-width: 1.5; stroke-linecap: square"/>
   </g>
   <g id="line2d_13">
    <path d="M 184.581818 340.513919 
L 996.218182 340.513919 
L 996.218182 340.513919 
" clip-path="url(#p540045d91f)" style="fill: none; stroke-dasharray: 5.55,2.4; stroke-dashoffset: 0; stroke: #ff7f0e; stroke-width: 1.5"/>
   </g>
   <g id="line2d_14">
    <path d="M 184.581818 203.73711 
L 996.218182 203.73711 
L 996.218182 203.73711 
" clip-path="url(#p540045d91f)" style="fill: none; stroke-dasharray: 5.55,2.4; stroke-dashoffset: 0; stroke: #2ca02c; stroke-width: 1.5"/>
   </g>
   <g id="line2d_15">
    <path d="M 184.581818 66.96 
L 996.218182 66.96 
L 996.218182 66.96 
" clip-path="url(#p540045d91f)" style="fill: none; stroke-dasharray: 5.55,2.4; stroke-dashoffset: 0; stroke: #d62728; stroke-width: 1.5"/>
   </g>
   <g id="patch_3">
    <path d="M 144 384.48 
L 144 51.84 
" style="fill: none; stroke: #000000; stroke-width: 0.8; stroke-linejoin: miter; stroke-linecap: square"/>
   </g>
   <g id="patch_4">
    <path d="M 1036.8 384.48 
L 1036.8 51.84 
" style="fill: none; stroke: #000000; stroke-width: 0.8; stroke-linejoin: miter; stroke-linecap: square"/>
   </g>
   <g id="patch_5">
    <path d="M 144 384.48 
L 1036.8 384.48 
" style="fill: none; stroke: #000000; stroke-width: 0.8; stroke-linejoin: miter; stroke-linecap: square"/>
   </g>
   <g id="patch_6">
    <path d="M 144 51.84 
L 1036.8 51.84 
" style="fill: none; stroke: #000000; stroke-width: 0.8; stroke-linejoin: miter; stroke-linecap: square"/>
   </g>
   <g id="text_15">
    <!-- NS -->
    <g transform="translate(582.102188 45.84)scale(0.12 -0.12)">
     <defs>
      <path id="DejaVuSans-4e" d="M 628 4666 
L 1478 4666 
L 3547 763 
L 3547 4666 
L 4159 4666 
L 4159 0 
L 3309 0 
L 1241 3903 
L 1241 0 
L 628 0 
L 628 4666 
z
" transform="scale(0.015625)"/>
      <path id="DejaVuSans-53" d="M 3425 4513 
L 3425 3897 
Q 3066 4069 2747 4153 
Q 2428 4238 2131 4238 
Q 1616 4238 1336 4038 
Q 1056 3838 1056 3469 
Q 1056 3159 1242 3001 
Q 1428 2844 1947 2747 
L 2328 2669 
Q 3034 2534 3370 2195 
Q 3706 1856 3706 1288 
Q 3706 609 3251 259 
Q 2797 -91 1919 -91 
Q 1588 -91 1214 -16 
Q 841 59 441 206 
L 441 856 
Q 825 641 1194 531 
Q 1563 422 1919 422 
Q 2459 422 2753 634 
Q 3047 847 3047 1241 
Q 3047 1584 2836 1778 
Q 2625 1972 2144 2069 
L 1759 2144 
Q 1053 2284 737 2584 
Q 422 2884 422 3419 
Q 422 4038 858 4394 
Q 1294 4750 2059 4750 
Q 2388 4750 2728 4690 
Q 3069 4631 3425 4513 
z
" transform="scale(0.015625)"/>
     </defs>
     <use xlink:href="#DejaVuSans-4e"/>
     <use xlink:href="#DejaVuSans-53" x="74.804688"/>
    </g>
   </g>
   <g id="legend_1">
    <g id="patch_7">
     <path d="M 146 28.936045 
L 1034.8 28.936045 
Q 1036.8 28.936045 1036.8 26.936045 
L 1036.8 13.25792 
Q 1036.8 11.25792 1034.8 11.25792 
L 146 11.25792 
Q 144 11.25792 144 13.25792 
L 144 26.936045 
Q 144 28.936045 146 28.936045 
z
" style="fill: #ffffff; opacity: 0.8; stroke: #cccccc; stroke-linejoin: miter"/>
    </g>
    <g id="line2d_16">
     <path d="M 148 19.356358 
L 158 19.356358 
L 168 19.356358 
" style="fill: none; stroke-dasharray: 5.55,2.4; stroke-dashoffset: 0; stroke: #ff7f0e; stroke-width: 1.5"/>
    </g>
    <g id="text_16">
     <!-- Average depth * 0.2 -->
     <g transform="translate(176 22.856358)scale(0.1 -0.1)">
      <defs>
       <path id="DejaVuSans-41" d="M 2188 4044 
L 1331 1722 
L 3047 1722 
L 2188 4044 
z
M 1831 4666 
L 2547 4666 
L 4325 0 
L 3669 0 
L 3244 1197 
L 1141 1197 
L 716 0 
L 50 0 
L 1831 4666 
z
" transform="scale(0.015625)"/>
       <path id="DejaVuSans-64" d="M 2906 2969 
L 2906 4863 
L 3481 4863 
L 3481 0 
L 2906 0 
L 2906 525 
Q 2725 213 2448 61 
Q 2172 -91 1784 -91 
Q 1150 -91 751 415 
Q 353 922 353 1747 
Q 353 2572 751 3078 
Q 1150 3584 1784 3584 
Q 2172 3584 2448 3432 
Q 2725 3281 2906 2969 
z
M 947 1747 
Q 947 1113 1208 752 
Q 1469 391 1925 391 
Q 2381 391 2643 752 
Q 2906 1113 2906 1747 
Q 2906 2381 2643 2742 
Q 2381 3103 1925 3103 
Q 1469 3103 1208 2742 
Q 947 2381 947 1747 
z
" transform="scale(0.015625)"/>
       <path id="DejaVuSans-2a" d="M 3009 3897 
L 1888 3291 
L 3009 2681 
L 2828 2375 
L 1778 3009 
L 1778 1831 
L 1422 1831 
L 1422 3009 
L 372 2375 
L 191 2681 
L 1313 3291 
L 191 3897 
L 372 4206 
L 1422 3572 
L 1422 4750 
L 1778 4750 
L 1778 3572 
L 2828 4206 
L 3009 3897 
z
" transform="scale(0.015625)"/>
      </defs>
      <use xlink:href="#DejaVuSans-41"/>
      <use xlink:href="#DejaVuSans-76" x="62.533203"/>
      <use xlink:href="#DejaVuSans-65" x="121.712891"/>
      <use xlink:href="#DejaVuSans-72" x="183.236328"/>
      <use xlink:href="#DejaVuSans-61" x="224.349609"/>
      <use xlink:href="#DejaVuSans-67" x="285.628906"/>
      <use xlink:href="#DejaVuSans-65" x="349.105469"/>
      <use xlink:href="#DejaVuSans-20" x="410.628906"/>
      <use xlink:href="#DejaVuSans-64" x="442.416016"/>
      <use xlink:href="#DejaVuSans-65" x="505.892578"/>
      <use xlink:href="#DejaVuSans-70" x="567.416016"/>
      <use xlink:href="#DejaVuSans-74" x="630.892578"/>
      <use xlink:href="#DejaVuSans-68" x="670.101562"/>
      <use xlink:href="#DejaVuSans-20" x="733.480469"/>
      <use xlink:href="#DejaVuSans-2a" x="765.267578"/>
      <use xlink:href="#DejaVuSans-20" x="815.267578"/>
      <use xlink:href="#DejaVuSans-30" x="847.054688"/>
      <use xlink:href="#DejaVuSans-2e" x="910.677734"/>
      <use xlink:href="#DejaVuSans-32" x="942.464844"/>
     </g>
    </g>
    <g id="line2d_17">
     <path d="M 539.724219 19.356358 
L 549.724219 19.356358 
L 559.724219 19.356358 
" style="fill: none; stroke-dasharray: 5.55,2.4; stroke-dashoffset: 0; stroke: #2ca02c; stroke-width: 1.5"/>
    </g>
    <g id="text_17">
     <!-- Average depth -->
     <g transform="translate(567.724219 22.856358)scale(0.1 -0.1)">
      <use xlink:href="#DejaVuSans-41"/>
      <use xlink:href="#DejaVuSans-76" x="62.533203"/>
      <use xlink:href="#DejaVuSans-65" x="121.712891"/>
      <use xlink:href="#DejaVuSans-72" x="183.236328"/>
      <use xlink:href="#DejaVuSans-61" x="224.349609"/>
      <use xlink:href="#DejaVuSans-67" x="285.628906"/>
      <use xlink:href="#DejaVuSans-65" x="349.105469"/>
      <use xlink:href="#DejaVuSans-20" x="410.628906"/>
      <use xlink:href="#DejaVuSans-64" x="442.416016"/>
      <use xlink:href="#DejaVuSans-65" x="505.892578"/>
      <use xlink:href="#DejaVuSans-70" x="567.416016"/>
      <use xlink:href="#DejaVuSans-74" x="630.892578"/>
      <use xlink:href="#DejaVuSans-68" x="670.101562"/>
     </g>
    </g>
    <g id="line2d_18">
     <path d="M 904.189062 19.356358 
L 914.189062 19.356358 
L 924.189062 19.356358 
" style="fill: none; stroke-dasharray: 5.55,2.4; stroke-dashoffset: 0; stroke: #d62728; stroke-width: 1.5"/>
    </g>
    <g id="text_18">
     <!-- Average depth * 1.8 -->
     <g transform="translate(932.189062 22.856358)scale(0.1 -0.1)">
      <use xlink:href="#DejaVuSans-41"/>
      <use xlink:href="#DejaVuSans-76" x="62.533203"/>
      <use xlink:href="#DejaVuSans-65" x="121.712891"/>
      <use xlink:href="#DejaVuSans-72" x="183.236328"/>
      <use xlink:href="#DejaVuSans-61" x="224.349609"/>
      <use xlink:href="#DejaVuSans-67" x="285.628906"/>
      <use xlink:href="#DejaVuSans-65" x="349.105469"/>
      <use xlink:href="#DejaVuSans-20" x="410.628906"/>
      <use xlink:href="#DejaVuSans-64" x="442.416016"/>
      <use xlink:href="#DejaVuSans-65" x="505.892578"/>
      <use xlink:href="#DejaVuSans-70" x="567.416016"/>
      <use xlink:href="#DejaVuSans-74" x="630.892578"/>
      <use xlink:href="#DejaVuSans-68" x="670.101562"/>
      <use xlink:href="#DejaVuSans-20" x="733.480469"/>
      <use xlink:href="#DejaVuSans-2a" x="765.267578"/>
      <use xlink:href="#DejaVuSans-20" x="815.267578"/>
      <use xlink:href="#DejaVuSans-31" x="847.054688"/>
      <use xlink:href="#DejaVuSans-2e" x="910.677734"/>
      <use xlink:href="#DejaVuSans-38" x="942.464844"/>
     </g>
    </g>
   </g>
  </g>
 </g>
 <defs>
  <clipPath id="p540045d91f">
   <rect x="144" y="51.84" width="892.8" height="332.64"/>
  </clipPath>
 </defs>
</svg>
