<?xml version="1.0" encoding="utf-8" standalone="no"?>
<!DOCTYPE svg PUBLIC "-//W3C//DTD SVG 1.1//EN"
  "http://www.w3.org/Graphics/SVG/1.1/DTD/svg11.dtd">
<svg xmlns:xlink="http://www.w3.org/1999/xlink" width="1152pt" height="432pt" viewBox="0 0 1152 432" xmlns="http://www.w3.org/2000/svg" version="1.1">
 <metadata>
  <rdf:RDF xmlns:dc="http://purl.org/dc/elements/1.1/" xmlns:cc="http://creativecommons.org/ns#" xmlns:rdf="http://www.w3.org/1999/02/22-rdf-syntax-ns#">
   <cc:Work>
    <dc:type rdf:resource="http://purl.org/dc/dcmitype/StillImage"/>
    <dc:date>2022-11-25T09:58:50.043993</dc:date>
    <dc:format>image/svg+xml</dc:format>
    <dc:creator>
     <cc:Agent>
      <dc:title>Matplotlib v3.5.2, https://matplotlib.org/</dc:title>
     </cc:Agent>
    </dc:creator>
   </cc:Work>
  </rdf:RDF>
 </metadata>
 <defs>
  <style type="text/css">*{stroke-linejoin: round; stroke-linecap: butt}</style>
 </defs>
 <g id="figure_1">
  <g id="patch_1">
   <path d="M 0 432 
L 1152 432 
L 1152 0 
L 0 0 
z
" style="fill: #ffffff"/>
  </g>
  <g id="axes_1">
   <g id="patch_2">
    <path d="M 144 384.48 
L 1036.8 384.48 
L 1036.8 51.84 
L 144 51.84 
z
" style="fill: #ffffff"/>
   </g>
   <g id="matplotlib.axis_1">
    <g id="xtick_1">
     <g id="line2d_1">
      <defs>
       <path id="me34c2880e9" d="M 0 0 
L 0 3.5 
" style="stroke: #000000; stroke-width: 0.8"/>
      </defs>
      <g>
       <use xlink:href="#me34c2880e9" x="184.581818" y="384.48" style="stroke: #000000; stroke-width: 0.8"/>
      </g>
     </g>
     <g id="text_1">
      <!-- 0 -->
      <g transform="translate(181.400568 399.078438)scale(0.1 -0.1)">
       <defs>
        <path id="DejaVuSans-30" d="M 2034 4250 
Q 1547 4250 1301 3770 
Q 1056 3291 1056 2328 
Q 1056 1369 1301 889 
Q 1547 409 2034 409 
Q 2525 409 2770 889 
Q 3016 1369 3016 2328 
Q 3016 3291 2770 3770 
Q 2525 4250 2034 4250 
z
M 2034 4750 
Q 2819 4750 3233 4129 
Q 3647 3509 3647 2328 
Q 3647 1150 3233 529 
Q 2819 -91 2034 -91 
Q 1250 -91 836 529 
Q 422 1150 422 2328 
Q 422 3509 836 4129 
Q 1250 4750 2034 4750 
z
" transform="scale(0.015625)"/>
       </defs>
       <use xlink:href="#DejaVuSans-30"/>
      </g>
     </g>
    </g>
    <g id="xtick_2">
     <g id="line2d_2">
      <g>
       <use xlink:href="#me34c2880e9" x="366.4" y="384.48" style="stroke: #000000; stroke-width: 0.8"/>
      </g>
     </g>
     <g id="text_2">
      <!-- 500 -->
      <g transform="translate(356.85625 399.078438)scale(0.1 -0.1)">
       <defs>
        <path id="DejaVuSans-35" d="M 691 4666 
L 3169 4666 
L 3169 4134 
L 1269 4134 
L 1269 2991 
Q 1406 3038 1543 3061 
Q 1681 3084 1819 3084 
Q 2600 3084 3056 2656 
Q 3513 2228 3513 1497 
Q 3513 744 3044 326 
Q 2575 -91 1722 -91 
Q 1428 -91 1123 -41 
Q 819 9 494 109 
L 494 744 
Q 775 591 1075 516 
Q 1375 441 1709 441 
Q 2250 441 2565 725 
Q 2881 1009 2881 1497 
Q 2881 1984 2565 2268 
Q 2250 2553 1709 2553 
Q 1456 2553 1204 2497 
Q 953 2441 691 2322 
L 691 4666 
z
" transform="scale(0.015625)"/>
       </defs>
       <use xlink:href="#DejaVuSans-35"/>
       <use xlink:href="#DejaVuSans-30" x="63.623047"/>
       <use xlink:href="#DejaVuSans-30" x="127.246094"/>
      </g>
     </g>
    </g>
    <g id="xtick_3">
     <g id="line2d_3">
      <g>
       <use xlink:href="#me34c2880e9" x="548.218182" y="384.48" style="stroke: #000000; stroke-width: 0.8"/>
      </g>
     </g>
     <g id="text_3">
      <!-- 1000 -->
      <g transform="translate(535.493182 399.078438)scale(0.1 -0.1)">
       <defs>
        <path id="DejaVuSans-31" d="M 794 531 
L 1825 531 
L 1825 4091 
L 703 3866 
L 703 4441 
L 1819 4666 
L 2450 4666 
L 2450 531 
L 3481 531 
L 3481 0 
L 794 0 
L 794 531 
z
" transform="scale(0.015625)"/>
       </defs>
       <use xlink:href="#DejaVuSans-31"/>
       <use xlink:href="#DejaVuSans-30" x="63.623047"/>
       <use xlink:href="#DejaVuSans-30" x="127.246094"/>
       <use xlink:href="#DejaVuSans-30" x="190.869141"/>
      </g>
     </g>
    </g>
    <g id="xtick_4">
     <g id="line2d_4">
      <g>
       <use xlink:href="#me34c2880e9" x="730.036364" y="384.48" style="stroke: #000000; stroke-width: 0.8"/>
      </g>
     </g>
     <g id="text_4">
      <!-- 1500 -->
      <g transform="translate(717.311364 399.078438)scale(0.1 -0.1)">
       <use xlink:href="#DejaVuSans-31"/>
       <use xlink:href="#DejaVuSans-35" x="63.623047"/>
       <use xlink:href="#DejaVuSans-30" x="127.246094"/>
       <use xlink:href="#DejaVuSans-30" x="190.869141"/>
      </g>
     </g>
    </g>
    <g id="xtick_5">
     <g id="line2d_5">
      <g>
       <use xlink:href="#me34c2880e9" x="911.854545" y="384.48" style="stroke: #000000; stroke-width: 0.8"/>
      </g>
     </g>
     <g id="text_5">
      <!-- 2000 -->
      <g transform="translate(899.129545 399.078438)scale(0.1 -0.1)">
       <defs>
        <path id="DejaVuSans-32" d="M 1228 531 
L 3431 531 
L 3431 0 
L 469 0 
L 469 531 
Q 828 903 1448 1529 
Q 2069 2156 2228 2338 
Q 2531 2678 2651 2914 
Q 2772 3150 2772 3378 
Q 2772 3750 2511 3984 
Q 2250 4219 1831 4219 
Q 1534 4219 1204 4116 
Q 875 4013 500 3803 
L 500 4441 
Q 881 4594 1212 4672 
Q 1544 4750 1819 4750 
Q 2544 4750 2975 4387 
Q 3406 4025 3406 3419 
Q 3406 3131 3298 2873 
Q 3191 2616 2906 2266 
Q 2828 2175 2409 1742 
Q 1991 1309 1228 531 
z
" transform="scale(0.015625)"/>
       </defs>
       <use xlink:href="#DejaVuSans-32"/>
       <use xlink:href="#DejaVuSans-30" x="63.623047"/>
       <use xlink:href="#DejaVuSans-30" x="127.246094"/>
       <use xlink:href="#DejaVuSans-30" x="190.869141"/>
      </g>
     </g>
    </g>
    <g id="text_6">
     <!-- Position -->
     <g transform="translate(570.935938 412.756563)scale(0.1 -0.1)">
      <defs>
       <path id="DejaVuSans-50" d="M 1259 4147 
L 1259 2394 
L 2053 2394 
Q 2494 2394 2734 2622 
Q 2975 2850 2975 3272 
Q 2975 3691 2734 3919 
Q 2494 4147 2053 4147 
L 1259 4147 
z
M 628 4666 
L 2053 4666 
Q 2838 4666 3239 4311 
Q 3641 3956 3641 3272 
Q 3641 2581 3239 2228 
Q 2838 1875 2053 1875 
L 1259 1875 
L 1259 0 
L 628 0 
L 628 4666 
z
" transform="scale(0.015625)"/>
       <path id="DejaVuSans-6f" d="M 1959 3097 
Q 1497 3097 1228 2736 
Q 959 2375 959 1747 
Q 959 1119 1226 758 
Q 1494 397 1959 397 
Q 2419 397 2687 759 
Q 2956 1122 2956 1747 
Q 2956 2369 2687 2733 
Q 2419 3097 1959 3097 
z
M 1959 3584 
Q 2709 3584 3137 3096 
Q 3566 2609 3566 1747 
Q 3566 888 3137 398 
Q 2709 -91 1959 -91 
Q 1206 -91 779 398 
Q 353 888 353 1747 
Q 353 2609 779 3096 
Q 1206 3584 1959 3584 
z
" transform="scale(0.015625)"/>
       <path id="DejaVuSans-73" d="M 2834 3397 
L 2834 2853 
Q 2591 2978 2328 3040 
Q 2066 3103 1784 3103 
Q 1356 3103 1142 2972 
Q 928 2841 928 2578 
Q 928 2378 1081 2264 
Q 1234 2150 1697 2047 
L 1894 2003 
Q 2506 1872 2764 1633 
Q 3022 1394 3022 966 
Q 3022 478 2636 193 
Q 2250 -91 1575 -91 
Q 1294 -91 989 -36 
Q 684 19 347 128 
L 347 722 
Q 666 556 975 473 
Q 1284 391 1588 391 
Q 1994 391 2212 530 
Q 2431 669 2431 922 
Q 2431 1156 2273 1281 
Q 2116 1406 1581 1522 
L 1381 1569 
Q 847 1681 609 1914 
Q 372 2147 372 2553 
Q 372 3047 722 3315 
Q 1072 3584 1716 3584 
Q 2034 3584 2315 3537 
Q 2597 3491 2834 3397 
z
" transform="scale(0.015625)"/>
       <path id="DejaVuSans-69" d="M 603 3500 
L 1178 3500 
L 1178 0 
L 603 0 
L 603 3500 
z
M 603 4863 
L 1178 4863 
L 1178 4134 
L 603 4134 
L 603 4863 
z
" transform="scale(0.015625)"/>
       <path id="DejaVuSans-74" d="M 1172 4494 
L 1172 3500 
L 2356 3500 
L 2356 3053 
L 1172 3053 
L 1172 1153 
Q 1172 725 1289 603 
Q 1406 481 1766 481 
L 2356 481 
L 2356 0 
L 1766 0 
Q 1100 0 847 248 
Q 594 497 594 1153 
L 594 3053 
L 172 3053 
L 172 3500 
L 594 3500 
L 594 4494 
L 1172 4494 
z
" transform="scale(0.015625)"/>
       <path id="DejaVuSans-6e" d="M 3513 2113 
L 3513 0 
L 2938 0 
L 2938 2094 
Q 2938 2591 2744 2837 
Q 2550 3084 2163 3084 
Q 1697 3084 1428 2787 
Q 1159 2491 1159 1978 
L 1159 0 
L 581 0 
L 581 3500 
L 1159 3500 
L 1159 2956 
Q 1366 3272 1645 3428 
Q 1925 3584 2291 3584 
Q 2894 3584 3203 3211 
Q 3513 2838 3513 2113 
z
" transform="scale(0.015625)"/>
      </defs>
      <use xlink:href="#DejaVuSans-50"/>
      <use xlink:href="#DejaVuSans-6f" x="56.677734"/>
      <use xlink:href="#DejaVuSans-73" x="117.859375"/>
      <use xlink:href="#DejaVuSans-69" x="169.958984"/>
      <use xlink:href="#DejaVuSans-74" x="197.742188"/>
      <use xlink:href="#DejaVuSans-69" x="236.951172"/>
      <use xlink:href="#DejaVuSans-6f" x="264.734375"/>
      <use xlink:href="#DejaVuSans-6e" x="325.916016"/>
     </g>
    </g>
   </g>
   <g id="matplotlib.axis_2">
    <g id="ytick_1">
     <g id="line2d_6">
      <defs>
       <path id="m4cad2ee1ca" d="M 0 0 
L -3.5 0 
" style="stroke: #000000; stroke-width: 0.8"/>
      </defs>
      <g>
       <use xlink:href="#m4cad2ee1ca" x="144" y="374.188213" style="stroke: #000000; stroke-width: 0.8"/>
      </g>
     </g>
     <g id="text_7">
      <!-- 0 -->
      <g transform="translate(130.6375 377.987432)scale(0.1 -0.1)">
       <use xlink:href="#DejaVuSans-30"/>
      </g>
     </g>
    </g>
    <g id="ytick_2">
     <g id="line2d_7">
      <g>
       <use xlink:href="#m4cad2ee1ca" x="144" y="317.797026" style="stroke: #000000; stroke-width: 0.8"/>
      </g>
     </g>
     <g id="text_8">
      <!-- 50000 -->
      <g transform="translate(105.1875 321.596244)scale(0.1 -0.1)">
       <use xlink:href="#DejaVuSans-35"/>
       <use xlink:href="#DejaVuSans-30" x="63.623047"/>
       <use xlink:href="#DejaVuSans-30" x="127.246094"/>
       <use xlink:href="#DejaVuSans-30" x="190.869141"/>
       <use xlink:href="#DejaVuSans-30" x="254.492188"/>
      </g>
     </g>
    </g>
    <g id="ytick_3">
     <g id="line2d_8">
      <g>
       <use xlink:href="#m4cad2ee1ca" x="144" y="261.405838" style="stroke: #000000; stroke-width: 0.8"/>
      </g>
     </g>
     <g id="text_9">
      <!-- 100000 -->
      <g transform="translate(98.825 265.205057)scale(0.1 -0.1)">
       <use xlink:href="#DejaVuSans-31"/>
       <use xlink:href="#DejaVuSans-30" x="63.623047"/>
       <use xlink:href="#DejaVuSans-30" x="127.246094"/>
       <use xlink:href="#DejaVuSans-30" x="190.869141"/>
       <use xlink:href="#DejaVuSans-30" x="254.492188"/>
       <use xlink:href="#DejaVuSans-30" x="318.115234"/>
      </g>
     </g>
    </g>
    <g id="ytick_4">
     <g id="line2d_9">
      <g>
       <use xlink:href="#m4cad2ee1ca" x="144" y="205.01465" style="stroke: #000000; stroke-width: 0.8"/>
      </g>
     </g>
     <g id="text_10">
      <!-- 150000 -->
      <g transform="translate(98.825 208.813869)scale(0.1 -0.1)">
       <use xlink:href="#DejaVuSans-31"/>
       <use xlink:href="#DejaVuSans-35" x="63.623047"/>
       <use xlink:href="#DejaVuSans-30" x="127.246094"/>
       <use xlink:href="#DejaVuSans-30" x="190.869141"/>
       <use xlink:href="#DejaVuSans-30" x="254.492188"/>
       <use xlink:href="#DejaVuSans-30" x="318.115234"/>
      </g>
     </g>
    </g>
    <g id="ytick_5">
     <g id="line2d_10">
      <g>
       <use xlink:href="#m4cad2ee1ca" x="144" y="148.623462" style="stroke: #000000; stroke-width: 0.8"/>
      </g>
     </g>
     <g id="text_11">
      <!-- 200000 -->
      <g transform="translate(98.825 152.422681)scale(0.1 -0.1)">
       <use xlink:href="#DejaVuSans-32"/>
       <use xlink:href="#DejaVuSans-30" x="63.623047"/>
       <use xlink:href="#DejaVuSans-30" x="127.246094"/>
       <use xlink:href="#DejaVuSans-30" x="190.869141"/>
       <use xlink:href="#DejaVuSans-30" x="254.492188"/>
       <use xlink:href="#DejaVuSans-30" x="318.115234"/>
      </g>
     </g>
    </g>
    <g id="ytick_6">
     <g id="line2d_11">
      <g>
       <use xlink:href="#m4cad2ee1ca" x="144" y="92.232275" style="stroke: #000000; stroke-width: 0.8"/>
      </g>
     </g>
     <g id="text_12">
      <!-- 250000 -->
      <g transform="translate(98.825 96.031493)scale(0.1 -0.1)">
       <use xlink:href="#DejaVuSans-32"/>
       <use xlink:href="#DejaVuSans-35" x="63.623047"/>
       <use xlink:href="#DejaVuSans-30" x="127.246094"/>
       <use xlink:href="#DejaVuSans-30" x="190.869141"/>
       <use xlink:href="#DejaVuSans-30" x="254.492188"/>
       <use xlink:href="#DejaVuSans-30" x="318.115234"/>
      </g>
     </g>
    </g>
    <g id="text_13">
     <!-- Depth of coverage -->
     <g transform="translate(92.745312 264.602187)rotate(-90)scale(0.1 -0.1)">
      <defs>
       <path id="DejaVuSans-44" d="M 1259 4147 
L 1259 519 
L 2022 519 
Q 2988 519 3436 956 
Q 3884 1394 3884 2338 
Q 3884 3275 3436 3711 
Q 2988 4147 2022 4147 
L 1259 4147 
z
M 628 4666 
L 1925 4666 
Q 3281 4666 3915 4102 
Q 4550 3538 4550 2338 
Q 4550 1131 3912 565 
Q 3275 0 1925 0 
L 628 0 
L 628 4666 
z
" transform="scale(0.015625)"/>
       <path id="DejaVuSans-65" d="M 3597 1894 
L 3597 1613 
L 953 1613 
Q 991 1019 1311 708 
Q 1631 397 2203 397 
Q 2534 397 2845 478 
Q 3156 559 3463 722 
L 3463 178 
Q 3153 47 2828 -22 
Q 2503 -91 2169 -91 
Q 1331 -91 842 396 
Q 353 884 353 1716 
Q 353 2575 817 3079 
Q 1281 3584 2069 3584 
Q 2775 3584 3186 3129 
Q 3597 2675 3597 1894 
z
M 3022 2063 
Q 3016 2534 2758 2815 
Q 2500 3097 2075 3097 
Q 1594 3097 1305 2825 
Q 1016 2553 972 2059 
L 3022 2063 
z
" transform="scale(0.015625)"/>
       <path id="DejaVuSans-70" d="M 1159 525 
L 1159 -1331 
L 581 -1331 
L 581 3500 
L 1159 3500 
L 1159 2969 
Q 1341 3281 1617 3432 
Q 1894 3584 2278 3584 
Q 2916 3584 3314 3078 
Q 3713 2572 3713 1747 
Q 3713 922 3314 415 
Q 2916 -91 2278 -91 
Q 1894 -91 1617 61 
Q 1341 213 1159 525 
z
M 3116 1747 
Q 3116 2381 2855 2742 
Q 2594 3103 2138 3103 
Q 1681 3103 1420 2742 
Q 1159 2381 1159 1747 
Q 1159 1113 1420 752 
Q 1681 391 2138 391 
Q 2594 391 2855 752 
Q 3116 1113 3116 1747 
z
" transform="scale(0.015625)"/>
       <path id="DejaVuSans-68" d="M 3513 2113 
L 3513 0 
L 2938 0 
L 2938 2094 
Q 2938 2591 2744 2837 
Q 2550 3084 2163 3084 
Q 1697 3084 1428 2787 
Q 1159 2491 1159 1978 
L 1159 0 
L 581 0 
L 581 4863 
L 1159 4863 
L 1159 2956 
Q 1366 3272 1645 3428 
Q 1925 3584 2291 3584 
Q 2894 3584 3203 3211 
Q 3513 2838 3513 2113 
z
" transform="scale(0.015625)"/>
       <path id="DejaVuSans-20" transform="scale(0.015625)"/>
       <path id="DejaVuSans-66" d="M 2375 4863 
L 2375 4384 
L 1825 4384 
Q 1516 4384 1395 4259 
Q 1275 4134 1275 3809 
L 1275 3500 
L 2222 3500 
L 2222 3053 
L 1275 3053 
L 1275 0 
L 697 0 
L 697 3053 
L 147 3053 
L 147 3500 
L 697 3500 
L 697 3744 
Q 697 4328 969 4595 
Q 1241 4863 1831 4863 
L 2375 4863 
z
" transform="scale(0.015625)"/>
       <path id="DejaVuSans-63" d="M 3122 3366 
L 3122 2828 
Q 2878 2963 2633 3030 
Q 2388 3097 2138 3097 
Q 1578 3097 1268 2742 
Q 959 2388 959 1747 
Q 959 1106 1268 751 
Q 1578 397 2138 397 
Q 2388 397 2633 464 
Q 2878 531 3122 666 
L 3122 134 
Q 2881 22 2623 -34 
Q 2366 -91 2075 -91 
Q 1284 -91 818 406 
Q 353 903 353 1747 
Q 353 2603 823 3093 
Q 1294 3584 2113 3584 
Q 2378 3584 2631 3529 
Q 2884 3475 3122 3366 
z
" transform="scale(0.015625)"/>
       <path id="DejaVuSans-76" d="M 191 3500 
L 800 3500 
L 1894 563 
L 2988 3500 
L 3597 3500 
L 2284 0 
L 1503 0 
L 191 3500 
z
" transform="scale(0.015625)"/>
       <path id="DejaVuSans-72" d="M 2631 2963 
Q 2534 3019 2420 3045 
Q 2306 3072 2169 3072 
Q 1681 3072 1420 2755 
Q 1159 2438 1159 1844 
L 1159 0 
L 581 0 
L 581 3500 
L 1159 3500 
L 1159 2956 
Q 1341 3275 1631 3429 
Q 1922 3584 2338 3584 
Q 2397 3584 2469 3576 
Q 2541 3569 2628 3553 
L 2631 2963 
z
" transform="scale(0.015625)"/>
       <path id="DejaVuSans-61" d="M 2194 1759 
Q 1497 1759 1228 1600 
Q 959 1441 959 1056 
Q 959 750 1161 570 
Q 1363 391 1709 391 
Q 2188 391 2477 730 
Q 2766 1069 2766 1631 
L 2766 1759 
L 2194 1759 
z
M 3341 1997 
L 3341 0 
L 2766 0 
L 2766 531 
Q 2569 213 2275 61 
Q 1981 -91 1556 -91 
Q 1019 -91 701 211 
Q 384 513 384 1019 
Q 384 1609 779 1909 
Q 1175 2209 1959 2209 
L 2766 2209 
L 2766 2266 
Q 2766 2663 2505 2880 
Q 2244 3097 1772 3097 
Q 1472 3097 1187 3025 
Q 903 2953 641 2809 
L 641 3341 
Q 956 3463 1253 3523 
Q 1550 3584 1831 3584 
Q 2591 3584 2966 3190 
Q 3341 2797 3341 1997 
z
" transform="scale(0.015625)"/>
       <path id="DejaVuSans-67" d="M 2906 1791 
Q 2906 2416 2648 2759 
Q 2391 3103 1925 3103 
Q 1463 3103 1205 2759 
Q 947 2416 947 1791 
Q 947 1169 1205 825 
Q 1463 481 1925 481 
Q 2391 481 2648 825 
Q 2906 1169 2906 1791 
z
M 3481 434 
Q 3481 -459 3084 -895 
Q 2688 -1331 1869 -1331 
Q 1566 -1331 1297 -1286 
Q 1028 -1241 775 -1147 
L 775 -588 
Q 1028 -725 1275 -790 
Q 1522 -856 1778 -856 
Q 2344 -856 2625 -561 
Q 2906 -266 2906 331 
L 2906 616 
Q 2728 306 2450 153 
Q 2172 0 1784 0 
Q 1141 0 747 490 
Q 353 981 353 1791 
Q 353 2603 747 3093 
Q 1141 3584 1784 3584 
Q 2172 3584 2450 3431 
Q 2728 3278 2906 2969 
L 2906 3500 
L 3481 3500 
L 3481 434 
z
" transform="scale(0.015625)"/>
      </defs>
      <use xlink:href="#DejaVuSans-44"/>
      <use xlink:href="#DejaVuSans-65" x="77.001953"/>
      <use xlink:href="#DejaVuSans-70" x="138.525391"/>
      <use xlink:href="#DejaVuSans-74" x="202.001953"/>
      <use xlink:href="#DejaVuSans-68" x="241.210938"/>
      <use xlink:href="#DejaVuSans-20" x="304.589844"/>
      <use xlink:href="#DejaVuSans-6f" x="336.376953"/>
      <use xlink:href="#DejaVuSans-66" x="397.558594"/>
      <use xlink:href="#DejaVuSans-20" x="432.763672"/>
      <use xlink:href="#DejaVuSans-63" x="464.550781"/>
      <use xlink:href="#DejaVuSans-6f" x="519.53125"/>
      <use xlink:href="#DejaVuSans-76" x="580.712891"/>
      <use xlink:href="#DejaVuSans-65" x="639.892578"/>
      <use xlink:href="#DejaVuSans-72" x="701.416016"/>
      <use xlink:href="#DejaVuSans-61" x="742.529297"/>
      <use xlink:href="#DejaVuSans-67" x="803.808594"/>
      <use xlink:href="#DejaVuSans-65" x="867.285156"/>
     </g>
    </g>
   </g>
   <g id="line2d_12">
    <path d="M 184.581818 342.470426 
L 184.945455 329.395565 
L 185.309091 327.169241 
L 185.672727 326.298561 
L 186.036364 318.5256 
L 186.4 317.393265 
L 186.763636 302.4496 
L 187.127273 301.865387 
L 187.490909 300.398089 
L 188.218182 298.943196 
L 188.581818 296.881534 
L 188.945455 296.287171 
L 189.309091 296.225141 
L 189.672727 295.908222 
L 190.036364 295.125513 
L 190.763636 291.858207 
L 191.127273 291.53565 
L 192.218182 291.244671 
L 192.581818 290.057073 
L 192.945455 289.935268 
L 193.309091 285.341642 
L 193.672727 285.263822 
L 194.036364 284.377352 
L 194.763636 284.120208 
L 195.127273 284.08299 
L 195.490909 283.680357 
L 195.854545 281.914185 
L 196.218182 281.381852 
L 196.581818 281.370574 
L 196.945455 279.480341 
L 197.309091 279.458913 
L 197.672727 278.440488 
L 198.036364 278.006276 
L 198.4 277.938606 
L 198.763636 277.046498 
L 199.127273 277.010407 
L 199.490909 274.997242 
L 199.854545 274.109645 
L 200.218182 274.020547 
L 200.945455 273.026934 
L 201.672727 268.780678 
L 202.763636 268.537068 
L 203.127273 267.939321 
L 203.490909 263.713365 
L 203.854545 263.349078 
L 204.218182 263.203589 
L 204.945455 262.365616 
L 205.309091 261.974261 
L 205.672727 260.89155 
L 206.036364 260.588166 
L 206.763636 258.608835 
L 207.490909 258.122743 
L 207.854545 257.951314 
L 208.218182 257.631012 
L 208.581818 257.621989 
L 208.945455 257.176499 
L 209.309091 257.096423 
L 209.672727 256.041908 
L 210.036364 255.897547 
L 210.4 255.547921 
L 211.127273 254.602805 
L 211.490909 254.414459 
L 211.854545 253.965585 
L 212.218182 253.870847 
L 212.581818 253.643027 
L 212.945455 253.586636 
L 213.309091 253.209943 
L 213.672727 251.372718 
L 214.036364 260.758467 
L 214.4 260.139292 
L 214.763636 260.045683 
L 215.127273 258.268232 
L 215.490909 253.796411 
L 215.854545 242.413286 
L 216.218182 240.68546 
L 216.945455 240.322301 
L 217.309091 237.588456 
L 217.672727 235.999352 
L 218.036364 231.374147 
L 218.763636 230.088428 
L 219.127273 228.366241 
L 219.490909 228.339173 
L 219.854545 227.406463 
L 220.218182 227.327515 
L 220.581818 227.371501 
L 220.945455 227.262102 
L 221.309091 227.712103 
L 222.4 226.574129 
L 222.763636 225.87939 
L 223.854545 225.918864 
L 224.218182 225.797059 
L 224.581818 225.48014 
L 224.945455 224.319609 
L 226.036364 223.986901 
L 226.763636 221.97148 
L 227.127273 221.627494 
L 227.490909 220.724107 
L 227.854545 220.399294 
L 228.218182 219.759818 
L 228.581818 219.7226 
L 228.945455 218.802296 
L 229.309091 218.694025 
L 230.036364 218.218083 
L 230.4 218.240639 
L 230.763636 217.496276 
L 231.490909 217.295523 
L 231.854545 216.895146 
L 232.218182 216.992139 
L 232.581818 216.69101 
L 233.309091 213.307538 
L 233.672727 211.887608 
L 234.036364 211.541366 
L 234.4 208.719551 
L 234.763636 211.825578 
L 235.127273 211.932721 
L 235.490909 208.526693 
L 235.854545 208.021428 
L 236.218182 208.517671 
L 236.581818 208.691356 
L 236.945455 193.083403 
L 237.309091 191.880015 
L 237.672727 188.184136 
L 238.036364 188.492032 
L 238.4 188.376994 
L 238.763636 196.963116 
L 239.127273 227.898194 
L 239.490909 225.343673 
L 239.854545 235.007995 
L 240.218182 235.045213 
L 240.581818 236.389579 
L 240.945455 249.165567 
L 241.309091 249.267071 
L 241.672727 249.126093 
L 242.036364 251.606177 
L 242.763636 249.90993 
L 243.127273 250.305797 
L 243.490909 242.023059 
L 243.854545 240.870423 
L 244.218182 239.321921 
L 244.581818 239.250868 
L 244.945455 239.955758 
L 245.309091 241.227943 
L 245.672727 241.844863 
L 246.036364 240.788092 
L 246.4 240.736212 
L 247.127273 238.377933 
L 247.490909 239.196733 
L 247.854545 239.17756 
L 248.218182 242.626445 
L 248.945455 241.795239 
L 249.309091 241.826818 
L 249.672727 243.410282 
L 250.036364 243.66517 
L 250.4 239.563275 
L 250.763636 241.067792 
L 251.127273 237.521914 
L 251.490909 236.750483 
L 251.854545 238.222293 
L 252.218182 237.650486 
L 252.581818 237.336951 
L 252.945455 236.008375 
L 253.309091 235.336192 
L 254.036364 236.566648 
L 254.4 238.008006 
L 254.763636 238.397106 
L 255.127273 237.441839 
L 255.490909 237.329056 
L 255.854545 237.580561 
L 256.218182 240.205007 
L 256.581818 240.225308 
L 256.945455 238.800866 
L 257.309091 237.843344 
L 257.672727 237.791464 
L 258.036364 240.021172 
L 258.4 239.185454 
L 258.763636 237.977555 
L 259.127273 237.783569 
L 259.490909 237.991089 
L 259.854545 237.455373 
L 260.218182 235.971157 
L 260.581818 236.688453 
L 260.945455 236.540708 
L 261.672727 237.763269 
L 262.036364 237.21853 
L 262.4 233.106484 
L 262.763636 231.973021 
L 263.127273 232.094826 
L 263.490909 232.765882 
L 263.854545 231.032416 
L 264.945455 230.350083 
L 265.309091 230.535046 
L 265.672727 230.462865 
L 266.036364 229.712863 
L 266.763636 229.338425 
L 267.854545 228.365113 
L 268.218182 228.779025 
L 268.581818 228.565866 
L 268.945455 228.941431 
L 269.309091 229.021507 
L 269.672727 228.489174 
L 270.036364 228.84895 
L 270.4 222.242158 
L 270.763636 222.076368 
L 271.127273 223.204192 
L 271.490909 223.254944 
L 271.854545 224.338782 
L 272.218182 226.261722 
L 272.581818 227.381651 
L 272.945455 229.907976 
L 273.672727 230.793318 
L 274.036364 232.866258 
L 274.763636 231.493696 
L 275.127273 229.266244 
L 276.218182 228.847822 
L 276.945455 228.750829 
L 277.309091 227.618494 
L 278.036364 226.622626 
L 278.4 225.400065 
L 278.763636 222.768852 
L 279.127273 221.401929 
L 279.490909 221.469599 
L 279.854545 221.07486 
L 280.218182 220.949672 
L 280.581818 219.944781 
L 280.945455 219.641397 
L 281.309091 204.367279 
L 281.672727 205.694728 
L 282.036364 205.860518 
L 282.763636 205.815405 
L 283.127273 203.872165 
L 283.490909 203.810134 
L 283.854545 195.40672 
L 284.218182 194.369122 
L 284.581818 193.969872 
L 284.945455 192.813853 
L 285.309091 192.670619 
L 285.672727 193.439795 
L 286.036364 193.474758 
L 286.4 193.840172 
L 286.763636 189.214967 
L 287.127273 188.666845 
L 287.490909 192.684153 
L 287.854545 192.93453 
L 288.218182 193.508592 
L 288.581818 191.47287 
L 288.945455 191.254073 
L 289.309091 194.189798 
L 289.672727 195.341306 
L 290.036364 199.720646 
L 290.4 193.563856 
L 290.763636 191.731142 
L 291.127273 189.073989 
L 291.490909 189.300682 
L 291.854545 203.798856 
L 292.218182 203.409757 
L 292.581818 207.112402 
L 292.945455 206.353377 
L 293.309091 206.001496 
L 293.672727 212.262046 
L 294.036364 211.142117 
L 294.4 214.319196 
L 294.763636 213.534231 
L 295.127273 214.103782 
L 295.490909 220.838018 
L 295.854545 220.711701 
L 296.218182 220.879747 
L 296.581818 220.146662 
L 296.945455 220.547039 
L 297.309091 221.400802 
L 297.672727 219.169966 
L 298.036364 219.482373 
L 298.4 216.49928 
L 298.763636 217.417328 
L 299.127273 217.315824 
L 299.854545 217.860563 
L 300.218182 217.111688 
L 300.581818 217.141011 
L 300.945455 215.324087 
L 301.309091 215.088372 
L 301.672727 216.253414 
L 302.036364 214.330474 
L 302.4 214.305662 
L 302.763636 214.512054 
L 303.490909 216.951537 
L 303.854545 216.95492 
L 304.218182 214.948522 
L 304.581818 218.921845 
L 304.945455 219.032372 
L 305.309091 222.98201 
L 305.672727 222.136143 
L 306.036364 223.418478 
L 306.4 224.015097 
L 306.763636 223.200808 
L 307.127273 222.892912 
L 307.854545 225.836532 
L 309.672727 226.124127 
L 310.036364 216.780108 
L 310.4 216.038 
L 310.763636 215.891383 
L 311.127273 214.92371 
L 311.490909 215.272207 
L 311.854545 215.357922 
L 312.581818 215.891383 
L 312.945455 216.643641 
L 313.309091 218.229361 
L 313.672727 217.192891 
L 314.036364 213.813931 
L 314.4 214.365437 
L 314.763636 214.455663 
L 315.127273 216.785747 
L 315.490909 217.060936 
L 315.854545 221.133507 
L 316.218182 221.487644 
L 316.581818 221.558697 
L 317.309091 227.730148 
L 317.672727 227.188793 
L 318.036364 218.363572 
L 318.4 218.061315 
L 318.763636 215.608299 
L 319.127273 215.142508 
L 319.490909 213.919947 
L 319.854545 214.209797 
L 320.218182 214.344008 
L 320.581818 213.811676 
L 320.945455 213.769946 
L 321.309091 213.298516 
L 322.036364 213.71581 
L 322.4 212.003774 
L 323.127273 211.759036 
L 323.490909 212.934229 
L 323.854545 213.478968 
L 324.218182 213.519569 
L 324.581818 216.075218 
L 324.945455 214.976717 
L 325.309091 220.053052 
L 326.036364 222.714716 
L 326.4 222.269226 
L 326.763636 218.757183 
L 327.490909 216.437249 
L 327.854545 215.686119 
L 328.218182 215.458298 
L 328.581818 215.63875 
L 328.945455 215.176342 
L 329.309091 216.137248 
L 329.672727 215.686119 
L 330.036364 218.386129 
L 330.4 216.826348 
L 330.763636 214.605663 
L 331.127273 214.433106 
L 331.490909 212.715431 
L 331.854545 199.015756 
L 332.581818 193.94506 
L 332.945455 193.249193 
L 333.309091 193.845812 
L 333.672727 193.781526 
L 334.036364 192.394302 
L 334.4 192.82062 
L 334.763636 194.070249 
L 335.127273 208.231204 
L 335.490909 196.602213 
L 335.854545 199.574028 
L 336.218182 199.129666 
L 336.581818 198.979665 
L 336.945455 200.658995 
L 337.309091 200.697341 
L 337.672727 200.854108 
L 338.036364 200.099594 
L 338.4 200.315009 
L 338.763636 211.165801 
L 339.127273 211.313546 
L 339.490909 211.603397 
L 339.854545 210.889484 
L 340.218182 210.79813 
L 340.581818 211.04174 
L 340.945455 211.60678 
L 341.309091 214.101526 
L 341.672727 211.472569 
L 342.036364 211.312418 
L 342.4 209.864292 
L 342.763636 209.495494 
L 343.127273 209.298125 
L 343.490909 209.794367 
L 343.854545 207.06165 
L 344.581818 205.596607 
L 344.945455 206.584581 
L 345.309091 211.880841 
L 346.036364 214.601152 
L 346.4 214.640626 
L 346.763636 214.086865 
L 347.127273 214.30679 
L 347.490909 214.892131 
L 347.854545 214.831228 
L 348.218182 212.815807 
L 348.581818 214.401527 
L 348.945455 214.478219 
L 349.309091 213.580472 
L 349.672727 213.918819 
L 350.036364 210.520686 
L 350.4 210.527453 
L 350.763636 208.84474 
L 351.127273 209.417674 
L 351.490909 204.588333 
L 351.854545 202.012383 
L 352.218182 201.865766 
L 352.581818 202.937199 
L 352.945455 202.721785 
L 353.309091 207.182327 
L 353.672727 202.921409 
L 354.036364 203.921789 
L 354.4 203.25299 
L 354.763636 206.016158 
L 355.127273 205.385704 
L 355.490909 204.376302 
L 355.854545 204.339084 
L 356.218182 203.514645 
L 356.581818 203.987203 
L 356.945455 205.867285 
L 357.309091 204.234196 
L 357.672727 204.924424 
L 358.036364 202.421783 
L 358.4 202.091331 
L 359.490909 205.525554 
L 359.854545 204.394347 
L 360.218182 202.877424 
L 360.581818 202.268399 
L 360.945455 201.952609 
L 361.672727 204.416904 
L 362.036364 204.493596 
L 362.4 204.878184 
L 362.763636 205.9733 
L 363.127273 205.98909 
L 363.490909 205.554878 
L 363.854545 204.30976 
L 364.581818 204.225174 
L 365.309091 208.102632 
L 365.672727 207.593983 
L 366.036364 208.233459 
L 366.4 207.448494 
L 367.127273 200.572152 
L 367.490909 199.560495 
L 367.854545 199.136433 
L 368.218182 199.572901 
L 368.581818 203.790961 
L 368.945455 204.106752 
L 369.309091 202.08682 
L 369.672727 203.818029 
L 370.4 200.590198 
L 370.763636 200.196587 
L 371.127273 198.644702 
L 371.490909 198.061617 
L 371.854545 198.295076 
L 372.218182 196.607852 
L 372.581818 198.661619 
L 372.945455 197.171764 
L 373.309091 197.133418 
L 373.672727 199.74433 
L 374.036364 197.816879 
L 374.4 198.602972 
L 374.763636 198.249963 
L 375.127273 198.495829 
L 375.490909 200.25749 
L 375.854545 198.240941 
L 376.218182 198.986432 
L 376.945455 198.860116 
L 377.309091 200.315009 
L 377.672727 200.380422 
L 378.763636 192.590544 
L 379.127273 194.656717 
L 379.490909 195.083034 
L 379.854545 195.00747 
L 380.581818 193.021372 
L 380.945455 193.834533 
L 381.672727 197.673645 
L 382.036364 198.430415 
L 382.4 194.801078 
L 383.127273 193.365359 
L 383.490909 193.566111 
L 383.854545 188.707447 
L 384.218182 188.540529 
L 384.581818 185.550668 
L 384.945455 187.299922 
L 385.309091 187.957444 
L 385.672727 184.320212 
L 386.036364 187.171351 
L 386.4 185.603676 
L 386.763636 195.812736 
L 387.490909 200.952229 
L 387.854545 201.767646 
L 388.218182 201.331178 
L 388.945455 206.691724 
L 389.309091 206.847364 
L 389.672727 204.10788 
L 390.036364 205.251493 
L 390.4 210.033466 
L 390.763636 210.358279 
L 391.127273 210.968432 
L 391.490909 207.741728 
L 391.854545 207.875939 
L 392.218182 206.918417 
L 392.581818 205.632698 
L 392.945455 207.142854 
L 393.672727 194.197693 
L 394.036364 194.731153 
L 394.4 194.506716 
L 394.763636 195.202584 
L 395.490909 185.301419 
L 395.854545 185.123223 
L 396.218182 184.261565 
L 396.581818 187.154433 
L 396.945455 184.38337 
L 397.309091 183.036749 
L 397.672727 183.140508 
L 398.036364 182.530356 
L 398.4 184.250287 
L 398.763636 187.208569 
L 399.127273 187.166839 
L 399.490909 188.012707 
L 399.854545 185.196531 
L 400.218182 185.59127 
L 400.581818 185.692774 
L 400.945455 185.317208 
L 401.309091 185.508938 
L 401.672727 186.01082 
L 402.036364 185.99503 
L 402.4 185.161569 
L 402.763636 186.185633 
L 403.127273 188.602559 
L 403.854545 178.012294 
L 404.218182 182.902538 
L 404.581818 181.687871 
L 404.945455 181.604413 
L 405.309091 181.907797 
L 405.672727 183.604044 
L 406.763636 192.655958 
L 407.127273 191.93415 
L 407.490909 190.117226 
L 407.854545 191.097305 
L 408.218182 191.018357 
L 408.581818 193.021372 
L 408.945455 193.216486 
L 409.309091 194.189798 
L 409.672727 194.013857 
L 410.036364 194.075888 
L 410.4 194.839424 
L 410.763636 194.221377 
L 411.127273 194.476265 
L 411.490909 193.076636 
L 411.854545 192.995432 
L 412.218182 194.687168 
L 412.581818 194.541679 
L 412.945455 194.540551 
L 413.309091 195.060478 
L 413.672727 195.102207 
L 414.036364 194.961229 
L 414.4 193.98679 
L 414.763636 196.699206 
L 415.127273 196.032662 
L 415.490909 195.114613 
L 416.218182 195.171004 
L 416.581818 194.326264 
L 416.945455 194.578897 
L 417.309091 194.031902 
L 418.036364 194.334159 
L 418.4 190.47813 
L 418.763636 184.753296 
L 419.127273 184.831116 
L 419.490909 184.432995 
L 419.854545 184.483747 
L 420.218182 183.83412 
L 420.581818 183.883744 
L 420.945455 182.319453 
L 421.309091 182.917199 
L 421.672727 184.673221 
L 422.036364 188.817973 
L 422.4 187.143155 
L 422.763636 186.773229 
L 423.127273 186.145031 
L 423.490909 186.708943 
L 423.854545 186.997666 
L 424.218182 190.696928 
L 424.581818 191.715353 
L 424.945455 192.393175 
L 425.309091 194.261979 
L 425.672727 190.487152 
L 426.036364 190.403693 
L 426.4 190.99129 
L 426.763636 191.1052 
L 427.127273 191.026252 
L 427.490909 191.091666 
L 428.218182 189.502562 
L 428.581818 190.604446 
L 428.945455 188.95444 
L 429.309091 188.454814 
L 429.672727 188.294663 
L 430.036364 188.381505 
L 430.4 187.001049 
L 430.763636 188.593536 
L 431.127273 189.052561 
L 431.490909 189.117974 
L 432.218182 181.648398 
L 432.945455 181.254787 
L 433.309091 184.066452 
L 433.672727 182.714191 
L 434.036364 182.432235 
L 434.4 179.09726 
L 434.763636 178.586356 
L 435.127273 178.894252 
L 435.490909 179.520194 
L 435.854545 178.912297 
L 436.218182 180.917568 
L 436.581818 180.745011 
L 436.945455 181.354036 
L 437.309091 181.641631 
L 437.672727 182.561935 
L 438.036364 182.117572 
L 438.4 186.097662 
L 438.763636 185.207809 
L 439.127273 184.925853 
L 439.490909 188.010451 
L 439.854545 188.180753 
L 440.218182 184.907808 
L 440.581818 191.24505 
L 440.945455 190.885274 
L 441.309091 192.169865 
L 441.672727 187.936015 
L 442.036364 186.519468 
L 442.4 186.30631 
L 442.763636 186.556687 
L 443.127273 187.734135 
L 443.490909 187.475863 
L 443.854545 187.849173 
L 444.218182 185.167208 
L 444.581818 188.763838 
L 444.945455 190.640536 
L 445.309091 190.907831 
L 445.672727 186.502551 
L 446.036364 186.504807 
L 446.4 189.271358 
L 446.763636 190.174745 
L 447.127273 190.193918 
L 447.490909 194.35446 
L 447.854545 193.964233 
L 448.218182 201.141703 
L 448.581818 203.203365 
L 448.945455 202.181557 
L 449.309091 202.355242 
L 449.672727 203.651111 
L 450.4 211.641743 
L 450.763636 211.460163 
L 451.127273 212.439114 
L 451.490909 213.857916 
L 451.854545 214.375587 
L 452.218182 217.554923 
L 452.581818 217.168079 
L 452.945455 217.946277 
L 453.309091 218.016202 
L 453.672727 217.489509 
L 454.036364 218.144774 
L 454.4 216.910935 
L 454.763636 205.832322 
L 455.127273 206.169542 
L 455.854545 201.043583 
L 456.581818 199.336058 
L 456.945455 200.860875 
L 457.309091 200.445836 
L 457.672727 205.618036 
L 458.036364 204.675175 
L 458.4 209.573314 
L 458.763636 210.918808 
L 459.127273 210.971815 
L 459.490909 210.210534 
L 459.854545 209.997376 
L 460.218182 209.277824 
L 460.581818 209.227072 
L 460.945455 209.472938 
L 461.309091 209.479704 
L 461.672727 209.213538 
L 462.036364 209.425569 
L 462.4 209.366922 
L 462.763636 209.007146 
L 463.127273 209.500005 
L 463.490909 208.716168 
L 463.854545 207.378569 
L 464.581818 206.630822 
L 464.945455 206.278941 
L 465.309091 206.813529 
L 466.036364 206.3624 
L 466.4 205.778187 
L 466.763636 205.922548 
L 467.127273 205.478186 
L 467.490909 204.172166 
L 467.854545 205.791721 
L 468.218182 205.287584 
L 468.581818 203.178553 
L 468.945455 202.994718 
L 469.309091 194.402957 
L 470.036364 191.516856 
L 470.4 192.218362 
L 470.763636 192.080767 
L 471.127273 192.155204 
L 471.490909 193.057463 
L 471.854545 192.651446 
L 472.218182 174.155137 
L 472.581818 172.906636 
L 472.945455 168.866771 
L 473.309091 180.276964 
L 474.036364 179.975835 
L 474.4 180.486739 
L 474.763636 180.027715 
L 475.127273 180.432604 
L 475.490909 180.446138 
L 475.854545 177.616428 
L 476.218182 178.42395 
L 476.581818 174.971681 
L 476.945455 177.198005 
L 477.309091 177.901767 
L 477.672727 177.442743 
L 478.036364 177.298381 
L 478.4 175.458901 
L 478.763636 175.075441 
L 479.127273 177.585976 
L 479.490909 176.896876 
L 479.854545 179.861925 
L 480.581818 177.730338 
L 480.945455 178.049512 
L 481.309091 178.072069 
L 481.672727 181.14426 
L 482.036364 181.311178 
L 482.4 181.691255 
L 482.763636 182.713063 
L 483.127273 181.696894 
L 483.490909 182.158174 
L 483.854545 181.62133 
L 484.218182 182.026219 
L 484.581818 181.546894 
L 484.945455 181.640503 
L 485.309091 181.879602 
L 485.672727 182.670206 
L 486.036364 196.513115 
L 486.4 196.661987 
L 486.763636 190.177001 
L 487.127273 189.390908 
L 487.490909 188.086016 
L 487.854545 186.177738 
L 488.218182 186.319844 
L 488.581818 187.346163 
L 488.945455 187.395788 
L 489.309091 187.321351 
L 489.672727 187.473607 
L 490.036364 188.096166 
L 490.4 188.153685 
L 490.763636 188.925117 
L 491.127273 189.976248 
L 491.490909 190.024745 
L 492.218182 181.853662 
L 492.581818 181.888624 
L 492.945455 182.247272 
L 493.309091 182.993891 
L 493.672727 183.252163 
L 494.036364 185.248411 
L 494.4 185.427735 
L 494.763636 185.283374 
L 495.127273 188.656694 
L 495.490909 183.99991 
L 495.854545 183.990888 
L 496.218182 184.417205 
L 496.945455 189.566848 
L 497.672727 188.201054 
L 498.036364 188.48301 
L 498.763636 188.422107 
L 499.127273 190.955199 
L 499.490909 190.627003 
L 499.854545 189.906323 
L 500.218182 190.427378 
L 500.581818 194.980402 
L 500.945455 194.334159 
L 501.309091 194.744687 
L 501.672727 194.53604 
L 502.4 194.41649 
L 502.763636 194.104083 
L 503.127273 192.616484 
L 503.490909 191.752571 
L 503.854545 194.123256 
L 504.218182 194.454836 
L 504.581818 193.601074 
L 504.945455 194.181903 
L 505.309091 194.237166 
L 505.672727 184.568333 
L 506.4 183.670586 
L 506.763636 183.968331 
L 507.127273 183.765323 
L 507.490909 182.162685 
L 507.854545 181.617946 
L 508.218182 179.874331 
L 508.581818 179.692751 
L 508.945455 194.558596 
L 509.309091 196.078903 
L 509.672727 197.027402 
L 510.036364 196.408227 
L 510.763636 200.695085 
L 511.127273 198.776657 
L 511.490909 199.901097 
L 511.854545 199.733052 
L 512.218182 199.165756 
L 512.581818 199.6823 
L 512.945455 199.735307 
L 513.309091 199.426284 
L 513.672727 198.674025 
L 514.036364 198.764251 
L 514.4 200.493205 
L 514.763636 200.294708 
L 515.127273 199.446584 
L 515.490909 197.939812 
L 515.854545 197.566502 
L 516.218182 197.860864 
L 516.581818 196.857101 
L 516.945455 193.38002 
L 517.309091 193.186035 
L 517.672727 193.301073 
L 518.036364 191.733398 
L 518.763636 193.121749 
L 519.127273 192.988666 
L 519.490909 193.851451 
L 519.854545 191.283396 
L 520.218182 191.660089 
L 520.581818 188.940906 
L 520.945455 178.889741 
L 521.309091 179.117561 
L 521.672727 180.667191 
L 522.036364 181.067568 
L 522.4 182.371333 
L 522.763636 171.061516 
L 523.127273 173.254005 
L 523.490909 172.554755 
L 523.854545 172.525431 
L 524.218182 182.239377 
L 524.581818 199.278539 
L 524.945455 201.29396 
L 525.309091 201.090951 
L 525.672727 201.249975 
L 526.036364 191.415351 
L 526.4 189.385269 
L 526.763636 192.387535 
L 527.127273 193.32814 
L 527.490909 192.812725 
L 527.854545 196.470257 
L 528.218182 194.54619 
L 528.581818 194.878898 
L 529.309091 193.788293 
L 529.672727 194.731153 
L 530.036364 194.012729 
L 530.4 193.685661 
L 531.127273 198.465378 
L 531.490909 199.297712 
L 531.854545 198.92553 
L 532.218182 199.298839 
L 532.581818 197.975902 
L 533.309091 199.541322 
L 533.672727 199.52666 
L 534.036364 197.556352 
L 534.4 198.321016 
L 534.763636 198.124775 
L 535.490909 200.025158 
L 535.854545 199.082297 
L 536.218182 199.333802 
L 536.581818 203.903744 
L 536.945455 204.005248 
L 537.309091 202.703739 
L 537.672727 202.934943 
L 538.4 201.093207 
L 538.763636 203.91615 
L 539.127273 200.797717 
L 539.490909 200.053354 
L 539.854545 200.533806 
L 540.218182 198.720266 
L 540.581818 201.14847 
L 541.309091 198.739439 
L 541.672727 199.726285 
L 543.127273 200.185309 
L 543.490909 200.388317 
L 543.854545 192.658213 
L 544.218182 192.635657 
L 544.581818 192.292798 
L 544.945455 192.357084 
L 545.309091 188.955568 
L 545.672727 188.417596 
L 546.4 190.638281 
L 547.127273 196.612363 
L 547.490909 197.320637 
L 547.854545 196.048451 
L 548.218182 195.301832 
L 548.581818 197.957857 
L 549.309091 197.216877 
L 549.672727 194.931906 
L 550.036364 195.423637 
L 550.763636 196.073263 
L 551.490909 193.34393 
L 551.854545 192.292798 
L 552.218182 192.169865 
L 552.581818 192.337911 
L 552.945455 191.308208 
L 553.309091 189.368351 
L 553.672727 189.323238 
L 554.036364 186.935635 
L 554.763636 188.907071 
L 555.127273 191.338659 
L 555.490909 187.826616 
L 556.218182 185.87097 
L 556.945455 182.708552 
L 557.309091 183.78224 
L 558.036364 183.026598 
L 558.4 183.1969 
L 558.763636 183.786752 
L 559.127273 181.596518 
L 559.490909 180.416814 
L 559.854545 178.577334 
L 560.218182 183.888256 
L 560.581818 184.268332 
L 560.945455 185.067959 
L 561.309091 185.171719 
L 561.672727 184.933748 
L 562.036364 182.920583 
L 562.4 184.637131 
L 562.763636 185.317208 
L 563.127273 186.856688 
L 563.490909 187.810827 
L 564.218182 185.584503 
L 564.581818 185.49766 
L 564.945455 186.38413 
L 565.309091 189.385269 
L 565.672727 189.642412 
L 566.036364 192.857838 
L 566.4 192.611972 
L 566.763636 173.117539 
L 567.127273 173.067915 
L 567.490909 172.585206 
L 567.854545 171.093095 
L 568.218182 164.689312 
L 568.581818 161.670128 
L 568.945455 156.547552 
L 569.309091 156.635522 
L 569.672727 156.985148 
L 570.036364 156.266724 
L 570.4 157.775752 
L 570.763636 157.500563 
L 571.127273 157.065223 
L 571.490909 157.959588 
L 571.854545 161.125389 
L 572.218182 160.174633 
L 572.581818 161.186291 
L 573.309091 164.419762 
L 574.036364 165.016381 
L 574.4 167.420901 
L 575.127273 168.917523 
L 575.490909 172.942726 
L 575.854545 181.409299 
L 576.218182 180.946891 
L 576.581818 181.121704 
L 576.945455 180.971703 
L 577.309091 180.475461 
L 577.672727 188.526995 
L 578.036364 189.474367 
L 578.763636 192.374002 
L 579.127273 199.699217 
L 579.490909 200.141324 
L 579.854545 200.281174 
L 580.218182 199.601096 
L 580.581818 199.561622 
L 580.945455 199.310118 
L 581.309091 200.396212 
L 581.672727 200.057865 
L 582.036364 199.921398 
L 582.4 200.39734 
L 582.763636 199.154478 
L 583.127273 200.977041 
L 583.490909 199.553728 
L 583.854545 199.727412 
L 584.218182 198.395453 
L 584.581818 197.886804 
L 585.309091 199.152222 
L 585.672727 196.908981 
L 586.036364 197.45372 
L 586.4 197.714247 
L 586.763636 198.239813 
L 587.127273 199.928165 
L 587.490909 200.455987 
L 587.854545 206.171797 
L 588.218182 206.677062 
L 588.581818 207.427065 
L 588.945455 209.875571 
L 589.309091 209.166169 
L 589.672727 209.050004 
L 590.4 209.719931 
L 590.763636 211.104898 
L 591.127273 211.108282 
L 591.490909 210.714671 
L 591.854545 195.284915 
L 592.945455 192.703326 
L 593.309091 192.480017 
L 593.672727 196.245821 
L 594.036364 195.995444 
L 594.4 196.86274 
L 594.763636 195.483412 
L 595.490909 196.558228 
L 595.854545 196.316873 
L 596.218182 197.409735 
L 596.581818 197.068004 
L 596.945455 193.306712 
L 597.309091 193.149944 
L 597.672727 194.133407 
L 598.036364 194.563107 
L 598.763636 201.701104 
L 599.127273 204.235324 
L 599.490909 202.807499 
L 599.854545 202.563889 
L 600.218182 207.670675 
L 600.581818 207.795864 
L 600.945455 208.135339 
L 601.309091 207.022177 
L 601.672727 204.641341 
L 602.036364 206.246234 
L 603.127273 207.683081 
L 603.490909 207.042477 
L 603.854545 207.675186 
L 604.218182 207.414659 
L 604.581818 207.696615 
L 604.945455 205.60563 
L 605.672727 205.733074 
L 606.036364 208.155639 
L 606.4 209.756021 
L 606.763636 209.820307 
L 607.127273 205.178185 
L 607.854545 206.629694 
L 608.218182 206.421046 
L 608.581818 205.292095 
L 608.945455 207.917669 
L 609.309091 208.304512 
L 609.672727 208.369926 
L 610.036364 208.959778 
L 610.4 212.51355 
L 610.763636 213.772202 
L 611.127273 213.657164 
L 611.490909 210.324444 
L 611.854545 209.760533 
L 612.218182 209.669179 
L 612.945455 211.296629 
L 613.309091 209.059026 
L 613.672727 206.010519 
L 614.036364 209.664668 
L 614.4 210.818431 
L 614.763636 214.007917 
L 615.127273 211.517682 
L 615.490909 211.676705 
L 615.854545 211.712796 
L 616.581818 213.850022 
L 616.945455 198.719138 
L 617.309091 198.952598 
L 617.672727 198.192444 
L 618.036364 195.6086 
L 618.4 194.995064 
L 618.763636 196.279655 
L 619.127273 196.839056 
L 619.490909 197.102967 
L 619.854545 194.382656 
L 620.218182 212.568814 
L 620.581818 204.960515 
L 620.945455 202.621408 
L 621.309091 201.484562 
L 622.036364 201.300727 
L 622.4 201.759751 
L 622.763636 203.885699 
L 623.127273 209.746999 
L 623.490909 211.163545 
L 623.854545 215.025214 
L 624.218182 215.772961 
L 624.581818 215.159425 
L 624.945455 215.140252 
L 625.309091 215.321832 
L 625.672727 213.219568 
L 627.127273 216.518453 
L 627.490909 216.5974 
L 627.854545 217.057552 
L 628.218182 220.086887 
L 628.945455 212.397385 
L 629.309091 211.406027 
L 629.672727 211.310162 
L 630.036364 211.033846 
L 630.4 209.843992 
L 630.763636 209.697374 
L 631.127273 212.351144 
L 631.490909 213.81957 
L 631.854545 211.827834 
L 632.218182 210.540987 
L 632.581818 209.99512 
L 632.945455 210.004143 
L 633.309091 206.819168 
L 633.672727 206.778567 
L 634.036364 207.476689 
L 634.4 206.578942 
L 634.763636 203.759382 
L 635.127273 204.394347 
L 635.490909 204.028932 
L 635.854545 203.180809 
L 636.218182 199.633803 
L 636.581818 199.807488 
L 636.945455 199.738691 
L 637.309091 200.008241 
L 637.672727 202.029301 
L 638.036364 201.525164 
L 638.4 202.798477 
L 638.763636 202.948477 
L 639.127273 194.670251 
L 639.490909 192.477761 
L 639.854545 189.041282 
L 640.218182 187.770225 
L 640.581818 188.122106 
L 640.945455 188.110828 
L 641.309091 184.943899 
L 641.672727 184.897658 
L 642.036364 180.093129 
L 642.4 180.856665 
L 642.763636 183.408931 
L 643.127273 183.261186 
L 643.490909 183.410058 
L 643.854545 182.955545 
L 644.218182 183.080734 
L 644.581818 183.846526 
L 644.945455 182.714191 
L 645.309091 183.741639 
L 645.672727 179.834857 
L 646.036364 179.675834 
L 646.4 177.193494 
L 646.763636 167.953234 
L 647.127273 168.641206 
L 647.490909 158.944178 
L 648.218182 159.478766 
L 648.581818 160.121626 
L 648.945455 161.593436 
L 649.309091 161.035163 
L 649.672727 158.914854 
L 650.036364 159.265607 
L 650.4 159.076133 
L 650.763636 161.118622 
L 651.127273 160.869373 
L 651.490909 162.583665 
L 651.854545 164.955478 
L 652.218182 160.826515 
L 652.581818 161.31148 
L 652.945455 158.930644 
L 653.309091 158.463725 
L 653.672727 157.778008 
L 654.036364 157.47124 
L 654.4 158.976885 
L 654.763636 158.804328 
L 655.127273 158.243799 
L 655.490909 158.110716 
L 655.854545 159.275758 
L 656.218182 162.069377 
L 656.581818 160.879523 
L 656.945455 160.714861 
L 657.309091 160.376514 
L 657.672727 160.423882 
L 658.036364 161.620503 
L 658.4 160.593056 
L 658.763636 160.605462 
L 659.127273 160.858095 
L 659.490909 161.283284 
L 659.854545 163.728406 
L 660.218182 162.035543 
L 660.581818 162.096445 
L 660.945455 158.114099 
L 661.309091 158.308085 
L 661.672727 162.003963 
L 662.036364 163.665248 
L 662.4 164.486304 
L 662.763636 164.000212 
L 663.127273 164.112994 
L 663.490909 166.454356 
L 664.218182 164.319386 
L 664.581818 163.975399 
L 664.945455 165.3536 
L 665.309091 165.29157 
L 665.672727 168.264513 
L 666.036364 169.103614 
L 666.4 169.290833 
L 666.763636 167.169396 
L 667.127273 167.1209 
L 667.854545 167.749098 
L 668.218182 172.87844 
L 668.581818 173.007012 
L 668.945455 172.526559 
L 669.309091 173.457014 
L 669.672727 171.010764 
L 670.036364 172.497236 
L 670.4 171.760767 
L 670.763636 171.443848 
L 671.127273 171.434826 
L 671.490909 185.905932 
L 671.854545 185.833752 
L 672.218182 186.17661 
L 672.581818 186.729244 
L 672.945455 188.097294 
L 673.309091 188.365716 
L 673.672727 188.267595 
L 674.036364 188.393912 
L 674.4 189.891661 
L 674.763636 192.415731 
L 675.127273 195.85221 
L 675.490909 202.099226 
L 675.854545 202.321407 
L 676.218182 201.925541 
L 676.581818 200.048842 
L 676.945455 199.684555 
L 677.309091 198.808236 
L 678.036364 200.141324 
L 678.4 200.658995 
L 679.127273 200.97253 
L 679.490909 201.240952 
L 679.854545 202.249226 
L 680.218182 201.133809 
L 680.581818 202.918026 
L 680.945455 202.022534 
L 681.309091 202.990207 
L 681.672727 203.488705 
L 682.4 201.312005 
L 683.127273 203.487577 
L 683.490909 205.612397 
L 683.854545 203.68269 
L 684.581818 204.171038 
L 684.945455 201.079673 
L 685.309091 201.834187 
L 685.672727 201.437193 
L 686.036364 198.765379 
L 686.763636 200.206738 
L 687.490909 204.716905 
L 687.854545 203.199982 
L 688.218182 202.495092 
L 688.945455 200.458242 
L 689.309091 203.287952 
L 689.672727 198.958237 
L 690.4 199.43305 
L 690.763636 197.714247 
L 691.127273 199.487186 
L 691.490909 195.518374 
L 691.854545 195.910857 
L 692.218182 197.072515 
L 692.581818 195.713488 
L 692.945455 200.613882 
L 694.036364 193.90897 
L 694.763636 199.51087 
L 695.127273 200.222527 
L 695.490909 202.504115 
L 695.854545 203.131185 
L 696.218182 206.316159 
L 696.581818 204.577055 
L 696.945455 209.883465 
L 697.309091 191.821368 
L 698.036364 198.102218 
L 698.4 196.72289 
L 698.763636 202.084564 
L 699.127273 195.678525 
L 699.490909 181.404788 
L 699.854545 180.910801 
L 700.218182 180.867944 
L 700.581818 185.256306 
L 700.945455 183.516074 
L 701.309091 186.022098 
L 701.672727 197.16838 
L 702.036364 197.972519 
L 702.4 207.942481 
L 702.763636 208.218798 
L 703.127273 208.340602 
L 703.490909 218.656806 
L 703.854545 219.014326 
L 704.218182 218.971469 
L 704.581818 214.565062 
L 704.945455 199.690194 
L 705.309091 197.433419 
L 706.036364 195.734916 
L 706.4 195.507096 
L 706.763636 194.806717 
L 707.490909 193.052951 
L 707.854545 193.615736 
L 708.218182 193.720623 
L 708.945455 194.321753 
L 709.309091 194.349949 
L 709.672727 194.728898 
L 710.036364 194.924011 
L 710.4 192.865733 
L 710.763636 192.39543 
L 711.127273 192.963853 
L 711.490909 187.589773 
L 711.854545 184.887507 
L 712.218182 184.403671 
L 712.581818 182.857425 
L 712.945455 183.353667 
L 713.309091 184.416077 
L 713.672727 183.932241 
L 714.036364 182.443513 
L 714.4 182.406295 
L 714.763636 186.225106 
L 715.127273 186.924357 
L 715.490909 184.542393 
L 716.218182 184.108181 
L 716.945455 184.325851 
L 717.309091 184.138633 
L 717.672727 184.421716 
L 718.036364 183.666074 
L 718.763636 184.771342 
L 719.127273 185.652172 
L 719.490909 185.34766 
L 719.854545 185.993903 
L 720.218182 185.463825 
L 720.945455 185.164952 
L 721.309091 184.557055 
L 721.672727 184.255926 
L 722.036364 183.567954 
L 722.4 182.309302 
L 722.763636 182.998403 
L 723.127273 182.951034 
L 723.490909 181.60554 
L 723.854545 181.408171 
L 724.218182 182.468326 
L 724.581818 183.02547 
L 724.945455 185.152546 
L 725.672727 180.593882 
L 726.4 181.330351 
L 726.763636 182.512311 
L 727.127273 181.616819 
L 727.490909 178.25252 
L 727.854545 177.766428 
L 728.218182 176.688229 
L 728.581818 178.24237 
L 728.945455 177.657029 
L 729.309091 175.731834 
L 729.672727 176.19537 
L 730.036364 175.427322 
L 730.763636 176.025068 
L 731.127273 176.781838 
L 731.490909 177.248757 
L 731.854545 171.513773 
L 732.218182 172.880696 
L 732.581818 172.587462 
L 732.945455 169.108125 
L 733.309091 169.192712 
L 733.672727 169.782564 
L 734.036364 169.073163 
L 734.4 166.356235 
L 734.763636 165.703225 
L 735.127273 167.166013 
L 735.490909 165.115629 
L 735.854545 166.118265 
L 736.218182 166.59759 
L 736.581818 162.615244 
L 737.309091 161.963362 
L 738.036364 165.753977 
L 738.4 160.575011 
L 738.763636 158.729891 
L 739.127273 158.653199 
L 739.490909 152.337386 
L 739.854545 155.968979 
L 740.218182 154.985516 
L 740.581818 153.506939 
L 740.945455 156.059204 
L 741.309091 156.108829 
L 741.672727 157.424999 
L 742.036364 157.463345 
L 742.4 153.087389 
L 742.763636 153.969347 
L 743.127273 150.418958 
L 743.490909 151.632496 
L 744.218182 148.263687 
L 744.581818 152.182874 
L 744.945455 153.687391 
L 745.309091 153.04002 
L 745.672727 155.044163 
L 746.036364 154.584011 
L 746.4 158.975757 
L 746.763636 159.100945 
L 747.127273 161.317119 
L 747.490909 161.141178 
L 747.854545 167.466014 
L 748.218182 168.510379 
L 748.581818 168.24534 
L 748.945455 166.767891 
L 749.309091 166.828794 
L 749.672727 167.133306 
L 750.036364 167.728797 
L 750.4 167.950978 
L 751.127273 169.313389 
L 751.490909 173.821301 
L 751.854545 173.664533 
L 752.218182 177.963797 
L 752.581818 189.129253 
L 753.309091 181.320201 
L 753.672727 194.267618 
L 754.036364 193.146561 
L 754.4 192.799191 
L 754.763636 191.187531 
L 755.127273 190.740913 
L 755.490909 189.04241 
L 755.854545 190.595424 
L 756.218182 188.639777 
L 756.581818 188.40519 
L 756.945455 186.177738 
L 757.309091 185.898038 
L 757.672727 189.730383 
L 758.4 190.133016 
L 758.763636 191.004824 
L 759.490909 193.49957 
L 759.854545 191.173997 
L 760.218182 193.624758 
L 760.581818 194.331904 
L 760.945455 194.664612 
L 761.309091 194.723258 
L 761.672727 195.600705 
L 762.036364 195.936797 
L 762.4 199.162373 
L 762.763636 198.611995 
L 763.127273 198.372896 
L 763.490909 198.270264 
L 763.854545 197.866503 
L 764.218182 196.923643 
L 764.945455 197.101839 
L 765.309091 198.646957 
L 766.036364 202.331558 
L 766.763636 202.6981 
L 767.127273 202.121782 
L 767.490909 202.71389 
L 767.854545 201.90524 
L 768.218182 201.888323 
L 768.581818 200.453731 
L 768.945455 201.674036 
L 769.309091 201.528547 
L 769.672727 200.840575 
L 770.036364 203.925172 
L 770.4 203.521412 
L 770.763636 202.759003 
L 771.127273 202.950733 
L 771.490909 202.537949 
L 771.854545 201.808247 
L 772.218182 200.566513 
L 772.581818 198.869139 
L 772.945455 199.824405 
L 773.309091 200.133429 
L 773.672727 199.506359 
L 774.036364 196.405971 
L 774.4 197.0962 
L 774.763636 196.492814 
L 775.127273 197.630788 
L 775.490909 196.725146 
L 775.854545 196.927026 
L 776.218182 196.765747 
L 776.945455 199.673277 
L 777.309091 199.055229 
L 777.672727 199.517637 
L 778.036364 194.736792 
L 778.4 195.525141 
L 778.763636 195.208223 
L 779.854545 191.513472 
L 780.218182 193.342802 
L 780.581818 194.508972 
L 780.945455 191.815729 
L 781.309091 191.831518 
L 781.672727 192.430393 
L 782.036364 194.998447 
L 782.4 196.548077 
L 782.763636 194.2507 
L 783.127273 193.742052 
L 783.490909 189.236396 
L 783.854545 189.583766 
L 784.218182 190.216475 
L 784.581818 189.517224 
L 784.945455 189.639029 
L 785.309091 188.610454 
L 785.672727 188.176242 
L 786.036364 188.423235 
L 786.4 187.839022 
L 786.763636 190.929259 
L 787.127273 190.884146 
L 787.490909 193.819872 
L 788.218182 193.651826 
L 788.581818 192.840921 
L 788.945455 190.129632 
L 789.309091 189.429254 
L 789.672727 191.361216 
L 790.036364 192.163099 
L 790.4 188.5191 
L 790.763636 188.362332 
L 791.127273 186.11458 
L 791.490909 186.657063 
L 791.854545 185.427735 
L 792.218182 186.851049 
L 792.581818 186.667213 
L 792.945455 186.14052 
L 793.309091 190.177001 
L 793.672727 191.627382 
L 794.036364 190.328129 
L 794.4 197.248456 
L 794.763636 196.816499 
L 795.127273 198.608611 
L 795.490909 192.777762 
L 795.854545 191.259712 
L 796.218182 191.33302 
L 796.581818 191.857458 
L 796.945455 192.66498 
L 797.309091 197.162741 
L 797.672727 195.433787 
L 798.036364 198.662747 
L 798.4 195.669503 
L 798.763636 199.251471 
L 799.127273 200.366889 
L 799.490909 200.585686 
L 800.581818 194.764988 
L 800.945455 195.434915 
L 801.309091 193.902203 
L 801.672727 193.020245 
L 802.036364 193.340547 
L 802.4 192.684153 
L 802.763636 191.623999 
L 803.127273 192.010842 
L 803.490909 191.080388 
L 803.854545 192.017609 
L 804.218182 189.459705 
L 804.581818 189.298426 
L 804.945455 187.40481 
L 805.672727 184.67886 
L 806.036364 185.476231 
L 806.4 185.248411 
L 806.763636 186.326611 
L 807.127273 182.879981 
L 807.490909 184.095775 
L 807.854545 183.626601 
L 808.218182 185.163824 
L 808.581818 184.736379 
L 809.309091 187.199546 
L 809.672727 189.618728 
L 810.036364 189.65933 
L 810.4 191.860842 
L 810.763636 191.793172 
L 811.127273 193.368742 
L 811.490909 193.418366 
L 811.854545 193.184907 
L 812.218182 192.22964 
L 812.581818 191.709713 
L 812.945455 191.700691 
L 813.672727 193.493931 
L 814.763636 197.790939 
L 815.127273 195.798074 
L 815.490909 195.979654 
L 815.854545 197.406351 
L 816.218182 197.345449 
L 816.581818 196.896575 
L 816.945455 197.43793 
L 817.309091 195.167621 
L 817.672727 195.067245 
L 818.036364 193.956338 
L 818.4 194.092805 
L 818.763636 194.830402 
L 819.127273 194.378144 
L 819.490909 193.345058 
L 819.854545 193.21423 
L 820.218182 191.062343 
L 820.581818 192.552198 
L 820.945455 192.445054 
L 821.309091 192.558965 
L 821.672727 192.302949 
L 822.036364 193.44769 
L 822.4 192.85671 
L 822.763636 190.162339 
L 823.127273 188.810079 
L 823.490909 189.761962 
L 823.854545 189.35369 
L 824.218182 189.668352 
L 824.581818 190.510837 
L 824.945455 186.260069 
L 825.309091 184.429611 
L 825.672727 184.657431 
L 826.036364 182.669078 
L 826.4 184.275099 
L 827.127273 185.878865 
L 827.490909 185.158185 
L 827.854545 183.693142 
L 828.218182 188.061204 
L 828.581818 188.395039 
L 828.945455 188.144662 
L 829.309091 187.385637 
L 829.672727 183.203667 
L 830.036364 183.890511 
L 830.4 179.590119 
L 830.763636 179.971324 
L 831.127273 178.686732 
L 831.490909 175.405893 
L 831.854545 175.297622 
L 832.218182 174.823936 
L 832.581818 175.700255 
L 832.945455 181.462307 
L 833.309091 181.723962 
L 833.672727 183.572465 
L 834.036364 181.86494 
L 834.4 182.002534 
L 834.763636 183.421337 
L 835.127273 182.073587 
L 835.490909 181.60554 
L 835.854545 182.607048 
L 836.218182 182.216821 
L 836.581818 182.1187 
L 836.945455 179.516811 
L 837.309091 180.757417 
L 837.672727 181.333735 
L 838.036364 182.623965 
L 838.4 185.810067 
L 838.763636 185.489765 
L 839.490909 189.097674 
L 839.854545 186.507062 
L 840.218182 188.096166 
L 840.581818 184.748785 
L 840.945455 185.878865 
L 841.672727 186.723605 
L 842.036364 182.795394 
L 842.4 182.213437 
L 842.763636 182.524717 
L 843.127273 186.076234 
L 843.490909 186.653679 
L 843.854545 190.543544 
L 844.945455 189.996549 
L 845.309091 192.384152 
L 845.672727 192.646935 
L 846.036364 198.063872 
L 846.4 196.958605 
L 846.763636 198.148459 
L 847.127273 198.076278 
L 847.490909 197.796578 
L 847.854545 188.469476 
L 848.218182 184.735251 
L 848.581818 183.357051 
L 849.309091 175.543488 
L 849.672727 176.493115 
L 850.036364 175.907775 
L 850.4 181.736368 
L 850.763636 182.273212 
L 851.127273 179.925083 
L 851.854545 181.939376 
L 852.218182 185.492021 
L 852.581818 186.658191 
L 853.309091 183.184494 
L 853.672727 182.265317 
L 854.036364 182.672462 
L 854.4 184.703672 
L 854.763636 185.163824 
L 855.127273 184.641642 
L 855.490909 183.396524 
L 855.854545 182.865319 
L 856.218182 185.545029 
L 857.309091 186.873605 
L 857.672727 187.760075 
L 858.036364 187.045034 
L 858.4 188.314964 
L 858.763636 189.063839 
L 859.490909 193.729646 
L 859.854545 194.16273 
L 860.218182 193.53566 
L 860.945455 197.481915 
L 861.309091 198.575904 
L 861.672727 197.898082 
L 862.036364 200.166136 
L 862.4 200.27779 
L 862.763636 201.219523 
L 863.490909 201.299599 
L 863.854545 198.905229 
L 864.218182 198.048083 
L 864.945455 198.980793 
L 865.309091 199.208614 
L 865.672727 198.864627 
L 866.036364 200.600348 
L 866.4 201.229674 
L 866.763636 201.589449 
L 867.127273 202.839078 
L 867.490909 203.202237 
L 867.854545 203.276674 
L 868.218182 202.728551 
L 868.581818 200.759371 
L 868.945455 200.119895 
L 869.309091 200.525912 
L 869.672727 199.170268 
L 870.036364 200.125534 
L 870.4 198.826281 
L 871.127273 198.746206 
L 871.490909 197.45372 
L 871.854545 197.136801 
L 872.218182 198.051466 
L 872.581818 197.710864 
L 872.945455 198.50034 
L 873.309091 198.990944 
L 873.672727 190.127377 
L 874.036364 189.481134 
L 874.4 192.070617 
L 874.763636 192.184527 
L 875.127273 192.420242 
L 875.490909 192.401069 
L 875.854545 192.821748 
L 876.218182 191.806706 
L 876.581818 192.138286 
L 876.945455 196.040557 
L 877.309091 196.575145 
L 877.672727 192.4631 
L 878.036364 192.53528 
L 878.4 191.68039 
L 878.763636 192.573626 
L 879.127273 192.419115 
L 879.490909 196.599957 
L 880.218182 200.574408 
L 880.581818 202.232309 
L 880.945455 201.878172 
L 881.309091 202.497348 
L 881.672727 203.999609 
L 882.036364 202.465769 
L 882.4 202.571784 
L 882.763636 201.169899 
L 883.127273 199.280794 
L 883.490909 199.765758 
L 883.854545 199.93606 
L 884.218182 200.895838 
L 884.581818 204.986455 
L 884.945455 202.822161 
L 885.309091 208.009022 
L 885.672727 207.096613 
L 886.036364 207.658269 
L 886.4 211.397005 
L 886.763636 210.02106 
L 887.127273 210.301888 
L 887.490909 210.080835 
L 888.218182 210.469934 
L 888.581818 209.405268 
L 888.945455 205.584201 
L 889.309091 203.199982 
L 889.672727 198.17891 
L 890.036364 199.631547 
L 890.4 199.34508 
L 890.763636 200.594709 
L 891.127273 201.106741 
L 891.490909 200.962379 
L 891.854545 203.162764 
L 892.218182 202.913515 
L 892.581818 204.324422 
L 893.309091 193.694683 
L 893.672727 194.260851 
L 894.036364 194.287918 
L 894.4 194.104083 
L 894.763636 195.755217 
L 895.127273 199.84245 
L 895.490909 201.914263 
L 895.854545 200.470648 
L 896.218182 198.099963 
L 896.581818 197.242817 
L 896.945455 200.190948 
L 897.309091 200.903733 
L 897.672727 200.321776 
L 898.4 200.534934 
L 898.763636 201.233057 
L 899.127273 203.150358 
L 899.854545 190.834522 
L 900.218182 190.048429 
L 900.581818 181.536743 
L 900.945455 178.388987 
L 901.309091 178.185979 
L 901.672727 175.163411 
L 902.036364 175.41266 
L 902.4 175.912286 
L 902.763636 187.842406 
L 903.127273 193.876263 
L 903.490909 195.525141 
L 903.854545 198.499212 
L 904.218182 200.047714 
L 904.581818 199.632675 
L 904.945455 200.453731 
L 905.309091 200.568769 
L 905.672727 201.58381 
L 906.036364 199.570645 
L 906.4 198.889439 
L 907.490909 199.567261 
L 907.854545 201.229674 
L 908.218182 201.900729 
L 908.945455 201.872533 
L 909.309091 201.60975 
L 909.672727 201.569149 
L 910.036364 201.873661 
L 910.4 202.493964 
L 910.763636 202.735318 
L 911.127273 202.777048 
L 911.490909 203.26314 
L 912.218182 203.611637 
L 912.581818 201.384186 
L 912.945455 202.977801 
L 913.309091 202.730807 
L 913.672727 201.757495 
L 914.036364 201.498096 
L 914.4 201.610878 
L 915.127273 200.326287 
L 915.854545 200.530423 
L 916.218182 197.995075 
L 916.945455 199.491697 
L 917.309091 199.740946 
L 917.672727 196.958605 
L 918.036364 197.208982 
L 918.4 197.949962 
L 918.763636 199.115004 
L 919.127273 199.209741 
L 919.490909 198.33455 
L 919.854545 194.863109 
L 920.218182 194.294685 
L 920.581818 191.802195 
L 920.945455 190.096925 
L 921.672727 184.716078 
L 922.036364 183.758556 
L 922.4 183.791263 
L 922.763636 184.08788 
L 923.127273 185.317208 
L 923.490909 187.977745 
L 924.218182 188.28564 
L 924.581818 184.453295 
L 924.945455 183.872466 
L 925.309091 183.724721 
L 925.672727 186.548792 
L 926.036364 185.177358 
L 926.4 185.301419 
L 926.763636 185.720969 
L 927.127273 186.899545 
L 927.490909 183.548781 
L 927.854545 183.935624 
L 928.218182 186.82962 
L 928.581818 193.127388 
L 928.945455 193.105959 
L 929.309091 193.288667 
L 929.672727 192.932274 
L 930.036364 192.404453 
L 930.4 192.736033 
L 930.763636 192.341295 
L 931.127273 190.165723 
L 931.490909 190.352941 
L 931.854545 177.538608 
L 932.218182 179.33072 
L 932.945455 179.60027 
L 933.309091 179.180719 
L 933.672727 177.798007 
L 934.036364 178.213047 
L 934.4 178.988989 
L 934.763636 180.261174 
L 935.127273 180.915312 
L 935.490909 170.096099 
L 935.854545 168.759628 
L 936.218182 169.136321 
L 936.581818 167.683684 
L 936.945455 169.108125 
L 937.672727 169.933692 
L 938.036364 169.582939 
L 938.4 170.217904 
L 938.763636 170.529183 
L 939.127273 169.970911 
L 939.490909 169.776925 
L 939.854545 172.343852 
L 940.218182 172.48483 
L 940.581818 173.088215 
L 940.945455 174.123558 
L 941.309091 161.378021 
L 941.672727 160.144182 
L 942.036364 158.177257 
L 942.4 157.715978 
L 942.763636 164.43104 
L 943.127273 163.311111 
L 943.490909 166.537815 
L 943.854545 166.642703 
L 944.218182 166.905486 
L 944.581818 174.149498 
L 944.945455 173.039719 
L 945.309091 173.506638 
L 946.036364 173.639721 
L 946.4 174.646868 
L 946.763636 174.693109 
L 947.127273 175.739729 
L 947.490909 182.307047 
L 947.854545 182.366821 
L 948.218182 189.992038 
L 948.581818 190.086775 
L 948.945455 190.895425 
L 949.672727 191.839413 
L 950.4 191.78415 
L 950.763636 193.073252 
L 951.127273 196.519882 
L 951.490909 197.839435 
L 951.854545 198.293948 
L 952.218182 198.990944 
L 952.581818 199.447712 
L 952.945455 199.69245 
L 953.309091 202.527799 
L 953.672727 210.123692 
L 954.036364 213.784608 
L 954.4 213.954909 
L 954.763636 214.325963 
L 955.490909 214.300023 
L 955.854545 217.085748 
L 956.218182 218.532746 
L 956.581818 221.713209 
L 956.945455 221.92524 
L 957.309091 222.446294 
L 957.672727 222.569227 
L 958.036364 222.901935 
L 958.4 223.781638 
L 958.763636 224.143669 
L 959.127273 226.662099 
L 959.490909 226.884281 
L 960.218182 226.955334 
L 960.581818 228.595189 
L 960.945455 231.317756 
L 961.672727 232.548212 
L 962.4 232.869641 
L 962.763636 233.333177 
L 963.127273 233.286936 
L 963.490909 233.514757 
L 963.854545 233.910623 
L 964.218182 236.065894 
L 964.581818 237.035822 
L 964.945455 237.034694 
L 965.309091 237.286199 
L 966.036364 238.064398 
L 966.4 240.989972 
L 966.763636 241.190725 
L 967.127273 241.164785 
L 967.490909 241.513283 
L 968.581818 243.228703 
L 968.945455 243.564794 
L 969.309091 244.207654 
L 969.672727 245.540741 
L 970.4 247.512177 
L 970.763636 248.985115 
L 971.127273 249.684366 
L 971.490909 250.08136 
L 971.854545 251.742644 
L 972.218182 252.16445 
L 972.581818 255.014461 
L 972.945455 255.07198 
L 973.309091 255.721606 
L 974.036364 256.341909 
L 974.4 257.541914 
L 974.763636 263.023137 
L 975.127273 263.340056 
L 976.581818 276.494992 
L 976.945455 277.308153 
L 977.309091 277.338604 
L 977.672727 277.666801 
L 978.4 283.448025 
L 978.763636 284.071712 
L 979.127273 284.15066 
L 979.490909 285.920215 
L 979.854545 286.717587 
L 980.218182 287.049167 
L 980.581818 287.538642 
L 980.945455 289.056693 
L 981.309091 289.106317 
L 981.672727 293.354829 
L 982.036364 293.723628 
L 982.763636 295.011602 
L 983.127273 295.880027 
L 983.490909 297.667627 
L 983.854545 297.746575 
L 984.218182 298.0759 
L 984.581818 298.947707 
L 985.309091 303.454491 
L 985.672727 303.469153 
L 986.4 306.047358 
L 986.763636 324.519983 
L 987.490909 329.340302 
L 987.854545 329.72489 
L 988.218182 329.870379 
L 988.581818 331.209106 
L 988.945455 331.176399 
L 989.309091 331.257602 
L 989.672727 331.557603 
L 990.036364 331.671514 
L 990.4 346.015176 
L 991.127273 346.830593 
L 991.490909 347.112549 
L 991.854545 347.247887 
L 992.218182 348.900149 
L 992.945455 350.600907 
L 993.309091 350.664066 
L 994.036364 351.5167 
L 994.4 351.816701 
L 994.763636 353.338136 
L 995.127273 354.001296 
L 995.490909 354.111823 
L 995.854545 355.184383 
L 996.218182 369.36 
L 996.218182 369.36 
" clip-path="url(#pb41fd4dc0b)" style="fill: none; stroke: #1f77b4; stroke-width: 1.5; stroke-linecap: square"/>
   </g>
   <g id="line2d_13">
    <path d="M 184.581818 340.052372 
L 996.218182 340.052372 
L 996.218182 340.052372 
" clip-path="url(#pb41fd4dc0b)" style="fill: none; stroke-dasharray: 5.55,2.4; stroke-dashoffset: 0; stroke: #ff7f0e; stroke-width: 1.5"/>
   </g>
   <g id="line2d_14">
    <path d="M 184.581818 203.50675 
L 996.218182 203.50675 
L 996.218182 203.50675 
" clip-path="url(#pb41fd4dc0b)" style="fill: none; stroke-dasharray: 5.55,2.4; stroke-dashoffset: 0; stroke: #2ca02c; stroke-width: 1.5"/>
   </g>
   <g id="line2d_15">
    <path d="M 184.581818 66.96 
L 996.218182 66.96 
L 996.218182 66.96 
" clip-path="url(#pb41fd4dc0b)" style="fill: none; stroke-dasharray: 5.55,2.4; stroke-dashoffset: 0; stroke: #d62728; stroke-width: 1.5"/>
   </g>
   <g id="patch_3">
    <path d="M 144 384.48 
L 144 51.84 
" style="fill: none; stroke: #000000; stroke-width: 0.8; stroke-linejoin: miter; stroke-linecap: square"/>
   </g>
   <g id="patch_4">
    <path d="M 1036.8 384.48 
L 1036.8 51.84 
" style="fill: none; stroke: #000000; stroke-width: 0.8; stroke-linejoin: miter; stroke-linecap: square"/>
   </g>
   <g id="patch_5">
    <path d="M 144 384.48 
L 1036.8 384.48 
" style="fill: none; stroke: #000000; stroke-width: 0.8; stroke-linejoin: miter; stroke-linecap: square"/>
   </g>
   <g id="patch_6">
    <path d="M 144 51.84 
L 1036.8 51.84 
" style="fill: none; stroke: #000000; stroke-width: 0.8; stroke-linejoin: miter; stroke-linecap: square"/>
   </g>
   <g id="text_14">
    <!-- PA -->
    <g transform="translate(583.060313 45.84)scale(0.12 -0.12)">
     <defs>
      <path id="DejaVuSans-41" d="M 2188 4044 
L 1331 1722 
L 3047 1722 
L 2188 4044 
z
M 1831 4666 
L 2547 4666 
L 4325 0 
L 3669 0 
L 3244 1197 
L 1141 1197 
L 716 0 
L 50 0 
L 1831 4666 
z
" transform="scale(0.015625)"/>
     </defs>
     <use xlink:href="#DejaVuSans-50"/>
     <use xlink:href="#DejaVuSans-41" x="53.927734"/>
    </g>
   </g>
   <g id="legend_1">
    <g id="patch_7">
     <path d="M 146 28.936045 
L 1034.8 28.936045 
Q 1036.8 28.936045 1036.8 26.936045 
L 1036.8 13.25792 
Q 1036.8 11.25792 1034.8 11.25792 
L 146 11.25792 
Q 144 11.25792 144 13.25792 
L 144 26.936045 
Q 144 28.936045 146 28.936045 
z
" style="fill: #ffffff; opacity: 0.8; stroke: #cccccc; stroke-linejoin: miter"/>
    </g>
    <g id="line2d_16">
     <path d="M 148 19.356358 
L 158 19.356358 
L 168 19.356358 
" style="fill: none; stroke-dasharray: 5.55,2.4; stroke-dashoffset: 0; stroke: #ff7f0e; stroke-width: 1.5"/>
    </g>
    <g id="text_15">
     <!-- Average depth * 0.2 -->
     <g transform="translate(176 22.856358)scale(0.1 -0.1)">
      <defs>
       <path id="DejaVuSans-64" d="M 2906 2969 
L 2906 4863 
L 3481 4863 
L 3481 0 
L 2906 0 
L 2906 525 
Q 2725 213 2448 61 
Q 2172 -91 1784 -91 
Q 1150 -91 751 415 
Q 353 922 353 1747 
Q 353 2572 751 3078 
Q 1150 3584 1784 3584 
Q 2172 3584 2448 3432 
Q 2725 3281 2906 2969 
z
M 947 1747 
Q 947 1113 1208 752 
Q 1469 391 1925 391 
Q 2381 391 2643 752 
Q 2906 1113 2906 1747 
Q 2906 2381 2643 2742 
Q 2381 3103 1925 3103 
Q 1469 3103 1208 2742 
Q 947 2381 947 1747 
z
" transform="scale(0.015625)"/>
       <path id="DejaVuSans-2a" d="M 3009 3897 
L 1888 3291 
L 3009 2681 
L 2828 2375 
L 1778 3009 
L 1778 1831 
L 1422 1831 
L 1422 3009 
L 372 2375 
L 191 2681 
L 1313 3291 
L 191 3897 
L 372 4206 
L 1422 3572 
L 1422 4750 
L 1778 4750 
L 1778 3572 
L 2828 4206 
L 3009 3897 
z
" transform="scale(0.015625)"/>
       <path id="DejaVuSans-2e" d="M 684 794 
L 1344 794 
L 1344 0 
L 684 0 
L 684 794 
z
" transform="scale(0.015625)"/>
      </defs>
      <use xlink:href="#DejaVuSans-41"/>
      <use xlink:href="#DejaVuSans-76" x="62.533203"/>
      <use xlink:href="#DejaVuSans-65" x="121.712891"/>
      <use xlink:href="#DejaVuSans-72" x="183.236328"/>
      <use xlink:href="#DejaVuSans-61" x="224.349609"/>
      <use xlink:href="#DejaVuSans-67" x="285.628906"/>
      <use xlink:href="#DejaVuSans-65" x="349.105469"/>
      <use xlink:href="#DejaVuSans-20" x="410.628906"/>
      <use xlink:href="#DejaVuSans-64" x="442.416016"/>
      <use xlink:href="#DejaVuSans-65" x="505.892578"/>
      <use xlink:href="#DejaVuSans-70" x="567.416016"/>
      <use xlink:href="#DejaVuSans-74" x="630.892578"/>
      <use xlink:href="#DejaVuSans-68" x="670.101562"/>
      <use xlink:href="#DejaVuSans-20" x="733.480469"/>
      <use xlink:href="#DejaVuSans-2a" x="765.267578"/>
      <use xlink:href="#DejaVuSans-20" x="815.267578"/>
      <use xlink:href="#DejaVuSans-30" x="847.054688"/>
      <use xlink:href="#DejaVuSans-2e" x="910.677734"/>
      <use xlink:href="#DejaVuSans-32" x="942.464844"/>
     </g>
    </g>
    <g id="line2d_17">
     <path d="M 539.724219 19.356358 
L 549.724219 19.356358 
L 559.724219 19.356358 
" style="fill: none; stroke-dasharray: 5.55,2.4; stroke-dashoffset: 0; stroke: #2ca02c; stroke-width: 1.5"/>
    </g>
    <g id="text_16">
     <!-- Average depth -->
     <g transform="translate(567.724219 22.856358)scale(0.1 -0.1)">
      <use xlink:href="#DejaVuSans-41"/>
      <use xlink:href="#DejaVuSans-76" x="62.533203"/>
      <use xlink:href="#DejaVuSans-65" x="121.712891"/>
      <use xlink:href="#DejaVuSans-72" x="183.236328"/>
      <use xlink:href="#DejaVuSans-61" x="224.349609"/>
      <use xlink:href="#DejaVuSans-67" x="285.628906"/>
      <use xlink:href="#DejaVuSans-65" x="349.105469"/>
      <use xlink:href="#DejaVuSans-20" x="410.628906"/>
      <use xlink:href="#DejaVuSans-64" x="442.416016"/>
      <use xlink:href="#DejaVuSans-65" x="505.892578"/>
      <use xlink:href="#DejaVuSans-70" x="567.416016"/>
      <use xlink:href="#DejaVuSans-74" x="630.892578"/>
      <use xlink:href="#DejaVuSans-68" x="670.101562"/>
     </g>
    </g>
    <g id="line2d_18">
     <path d="M 904.189062 19.356358 
L 914.189062 19.356358 
L 924.189062 19.356358 
" style="fill: none; stroke-dasharray: 5.55,2.4; stroke-dashoffset: 0; stroke: #d62728; stroke-width: 1.5"/>
    </g>
    <g id="text_17">
     <!-- Average depth * 1.8 -->
     <g transform="translate(932.189062 22.856358)scale(0.1 -0.1)">
      <defs>
       <path id="DejaVuSans-38" d="M 2034 2216 
Q 1584 2216 1326 1975 
Q 1069 1734 1069 1313 
Q 1069 891 1326 650 
Q 1584 409 2034 409 
Q 2484 409 2743 651 
Q 3003 894 3003 1313 
Q 3003 1734 2745 1975 
Q 2488 2216 2034 2216 
z
M 1403 2484 
Q 997 2584 770 2862 
Q 544 3141 544 3541 
Q 544 4100 942 4425 
Q 1341 4750 2034 4750 
Q 2731 4750 3128 4425 
Q 3525 4100 3525 3541 
Q 3525 3141 3298 2862 
Q 3072 2584 2669 2484 
Q 3125 2378 3379 2068 
Q 3634 1759 3634 1313 
Q 3634 634 3220 271 
Q 2806 -91 2034 -91 
Q 1263 -91 848 271 
Q 434 634 434 1313 
Q 434 1759 690 2068 
Q 947 2378 1403 2484 
z
M 1172 3481 
Q 1172 3119 1398 2916 
Q 1625 2713 2034 2713 
Q 2441 2713 2670 2916 
Q 2900 3119 2900 3481 
Q 2900 3844 2670 4047 
Q 2441 4250 2034 4250 
Q 1625 4250 1398 4047 
Q 1172 3844 1172 3481 
z
" transform="scale(0.015625)"/>
      </defs>
      <use xlink:href="#DejaVuSans-41"/>
      <use xlink:href="#DejaVuSans-76" x="62.533203"/>
      <use xlink:href="#DejaVuSans-65" x="121.712891"/>
      <use xlink:href="#DejaVuSans-72" x="183.236328"/>
      <use xlink:href="#DejaVuSans-61" x="224.349609"/>
      <use xlink:href="#DejaVuSans-67" x="285.628906"/>
      <use xlink:href="#DejaVuSans-65" x="349.105469"/>
      <use xlink:href="#DejaVuSans-20" x="410.628906"/>
      <use xlink:href="#DejaVuSans-64" x="442.416016"/>
      <use xlink:href="#DejaVuSans-65" x="505.892578"/>
      <use xlink:href="#DejaVuSans-70" x="567.416016"/>
      <use xlink:href="#DejaVuSans-74" x="630.892578"/>
      <use xlink:href="#DejaVuSans-68" x="670.101562"/>
      <use xlink:href="#DejaVuSans-20" x="733.480469"/>
      <use xlink:href="#DejaVuSans-2a" x="765.267578"/>
      <use xlink:href="#DejaVuSans-20" x="815.267578"/>
      <use xlink:href="#DejaVuSans-31" x="847.054688"/>
      <use xlink:href="#DejaVuSans-2e" x="910.677734"/>
      <use xlink:href="#DejaVuSans-38" x="942.464844"/>
     </g>
    </g>
   </g>
  </g>
 </g>
 <defs>
  <clipPath id="pb41fd4dc0b">
   <rect x="144" y="51.84" width="892.8" height="332.64"/>
  </clipPath>
 </defs>
</svg>
