<?xml version="1.0" encoding="utf-8" standalone="no"?>
<!DOCTYPE svg PUBLIC "-//W3C//DTD SVG 1.1//EN"
  "http://www.w3.org/Graphics/SVG/1.1/DTD/svg11.dtd">
<svg xmlns:xlink="http://www.w3.org/1999/xlink" width="1152pt" height="432pt" viewBox="0 0 1152 432" xmlns="http://www.w3.org/2000/svg" version="1.1">
 <metadata>
  <rdf:RDF xmlns:dc="http://purl.org/dc/elements/1.1/" xmlns:cc="http://creativecommons.org/ns#" xmlns:rdf="http://www.w3.org/1999/02/22-rdf-syntax-ns#">
   <cc:Work>
    <dc:type rdf:resource="http://purl.org/dc/dcmitype/StillImage"/>
    <dc:date>2022-11-25T09:58:49.985241</dc:date>
    <dc:format>image/svg+xml</dc:format>
    <dc:creator>
     <cc:Agent>
      <dc:title>Matplotlib v3.5.2, https://matplotlib.org/</dc:title>
     </cc:Agent>
    </dc:creator>
   </cc:Work>
  </rdf:RDF>
 </metadata>
 <defs>
  <style type="text/css">*{stroke-linejoin: round; stroke-linecap: butt}</style>
 </defs>
 <g id="figure_1">
  <g id="patch_1">
   <path d="M 0 432 
L 1152 432 
L 1152 0 
L 0 0 
z
" style="fill: #ffffff"/>
  </g>
  <g id="axes_1">
   <g id="patch_2">
    <path d="M 144 384.48 
L 1036.8 384.48 
L 1036.8 51.84 
L 144 51.84 
z
" style="fill: #ffffff"/>
   </g>
   <g id="matplotlib.axis_1">
    <g id="xtick_1">
     <g id="line2d_1">
      <defs>
       <path id="m1d54f34671" d="M 0 0 
L 0 3.5 
" style="stroke: #000000; stroke-width: 0.8"/>
      </defs>
      <g>
       <use xlink:href="#m1d54f34671" x="184.581818" y="384.48" style="stroke: #000000; stroke-width: 0.8"/>
      </g>
     </g>
     <g id="text_1">
      <!-- 0 -->
      <g transform="translate(181.400568 399.078438)scale(0.1 -0.1)">
       <defs>
        <path id="DejaVuSans-30" d="M 2034 4250 
Q 1547 4250 1301 3770 
Q 1056 3291 1056 2328 
Q 1056 1369 1301 889 
Q 1547 409 2034 409 
Q 2525 409 2770 889 
Q 3016 1369 3016 2328 
Q 3016 3291 2770 3770 
Q 2525 4250 2034 4250 
z
M 2034 4750 
Q 2819 4750 3233 4129 
Q 3647 3509 3647 2328 
Q 3647 1150 3233 529 
Q 2819 -91 2034 -91 
Q 1250 -91 836 529 
Q 422 1150 422 2328 
Q 422 3509 836 4129 
Q 1250 4750 2034 4750 
z
" transform="scale(0.015625)"/>
       </defs>
       <use xlink:href="#DejaVuSans-30"/>
      </g>
     </g>
    </g>
    <g id="xtick_2">
     <g id="line2d_2">
      <g>
       <use xlink:href="#m1d54f34671" x="358.008392" y="384.48" style="stroke: #000000; stroke-width: 0.8"/>
      </g>
     </g>
     <g id="text_2">
      <!-- 500 -->
      <g transform="translate(348.464642 399.078438)scale(0.1 -0.1)">
       <defs>
        <path id="DejaVuSans-35" d="M 691 4666 
L 3169 4666 
L 3169 4134 
L 1269 4134 
L 1269 2991 
Q 1406 3038 1543 3061 
Q 1681 3084 1819 3084 
Q 2600 3084 3056 2656 
Q 3513 2228 3513 1497 
Q 3513 744 3044 326 
Q 2575 -91 1722 -91 
Q 1428 -91 1123 -41 
Q 819 9 494 109 
L 494 744 
Q 775 591 1075 516 
Q 1375 441 1709 441 
Q 2250 441 2565 725 
Q 2881 1009 2881 1497 
Q 2881 1984 2565 2268 
Q 2250 2553 1709 2553 
Q 1456 2553 1204 2497 
Q 953 2441 691 2322 
L 691 4666 
z
" transform="scale(0.015625)"/>
       </defs>
       <use xlink:href="#DejaVuSans-35"/>
       <use xlink:href="#DejaVuSans-30" x="63.623047"/>
       <use xlink:href="#DejaVuSans-30" x="127.246094"/>
      </g>
     </g>
    </g>
    <g id="xtick_3">
     <g id="line2d_3">
      <g>
       <use xlink:href="#m1d54f34671" x="531.434965" y="384.48" style="stroke: #000000; stroke-width: 0.8"/>
      </g>
     </g>
     <g id="text_3">
      <!-- 1000 -->
      <g transform="translate(518.709965 399.078438)scale(0.1 -0.1)">
       <defs>
        <path id="DejaVuSans-31" d="M 794 531 
L 1825 531 
L 1825 4091 
L 703 3866 
L 703 4441 
L 1819 4666 
L 2450 4666 
L 2450 531 
L 3481 531 
L 3481 0 
L 794 0 
L 794 531 
z
" transform="scale(0.015625)"/>
       </defs>
       <use xlink:href="#DejaVuSans-31"/>
       <use xlink:href="#DejaVuSans-30" x="63.623047"/>
       <use xlink:href="#DejaVuSans-30" x="127.246094"/>
       <use xlink:href="#DejaVuSans-30" x="190.869141"/>
      </g>
     </g>
    </g>
    <g id="xtick_4">
     <g id="line2d_4">
      <g>
       <use xlink:href="#m1d54f34671" x="704.861538" y="384.48" style="stroke: #000000; stroke-width: 0.8"/>
      </g>
     </g>
     <g id="text_4">
      <!-- 1500 -->
      <g transform="translate(692.136538 399.078438)scale(0.1 -0.1)">
       <use xlink:href="#DejaVuSans-31"/>
       <use xlink:href="#DejaVuSans-35" x="63.623047"/>
       <use xlink:href="#DejaVuSans-30" x="127.246094"/>
       <use xlink:href="#DejaVuSans-30" x="190.869141"/>
      </g>
     </g>
    </g>
    <g id="xtick_5">
     <g id="line2d_5">
      <g>
       <use xlink:href="#m1d54f34671" x="878.288112" y="384.48" style="stroke: #000000; stroke-width: 0.8"/>
      </g>
     </g>
     <g id="text_5">
      <!-- 2000 -->
      <g transform="translate(865.563112 399.078438)scale(0.1 -0.1)">
       <defs>
        <path id="DejaVuSans-32" d="M 1228 531 
L 3431 531 
L 3431 0 
L 469 0 
L 469 531 
Q 828 903 1448 1529 
Q 2069 2156 2228 2338 
Q 2531 2678 2651 2914 
Q 2772 3150 2772 3378 
Q 2772 3750 2511 3984 
Q 2250 4219 1831 4219 
Q 1534 4219 1204 4116 
Q 875 4013 500 3803 
L 500 4441 
Q 881 4594 1212 4672 
Q 1544 4750 1819 4750 
Q 2544 4750 2975 4387 
Q 3406 4025 3406 3419 
Q 3406 3131 3298 2873 
Q 3191 2616 2906 2266 
Q 2828 2175 2409 1742 
Q 1991 1309 1228 531 
z
" transform="scale(0.015625)"/>
       </defs>
       <use xlink:href="#DejaVuSans-32"/>
       <use xlink:href="#DejaVuSans-30" x="63.623047"/>
       <use xlink:href="#DejaVuSans-30" x="127.246094"/>
       <use xlink:href="#DejaVuSans-30" x="190.869141"/>
      </g>
     </g>
    </g>
    <g id="text_6">
     <!-- Position -->
     <g transform="translate(570.935938 412.756563)scale(0.1 -0.1)">
      <defs>
       <path id="DejaVuSans-50" d="M 1259 4147 
L 1259 2394 
L 2053 2394 
Q 2494 2394 2734 2622 
Q 2975 2850 2975 3272 
Q 2975 3691 2734 3919 
Q 2494 4147 2053 4147 
L 1259 4147 
z
M 628 4666 
L 2053 4666 
Q 2838 4666 3239 4311 
Q 3641 3956 3641 3272 
Q 3641 2581 3239 2228 
Q 2838 1875 2053 1875 
L 1259 1875 
L 1259 0 
L 628 0 
L 628 4666 
z
" transform="scale(0.015625)"/>
       <path id="DejaVuSans-6f" d="M 1959 3097 
Q 1497 3097 1228 2736 
Q 959 2375 959 1747 
Q 959 1119 1226 758 
Q 1494 397 1959 397 
Q 2419 397 2687 759 
Q 2956 1122 2956 1747 
Q 2956 2369 2687 2733 
Q 2419 3097 1959 3097 
z
M 1959 3584 
Q 2709 3584 3137 3096 
Q 3566 2609 3566 1747 
Q 3566 888 3137 398 
Q 2709 -91 1959 -91 
Q 1206 -91 779 398 
Q 353 888 353 1747 
Q 353 2609 779 3096 
Q 1206 3584 1959 3584 
z
" transform="scale(0.015625)"/>
       <path id="DejaVuSans-73" d="M 2834 3397 
L 2834 2853 
Q 2591 2978 2328 3040 
Q 2066 3103 1784 3103 
Q 1356 3103 1142 2972 
Q 928 2841 928 2578 
Q 928 2378 1081 2264 
Q 1234 2150 1697 2047 
L 1894 2003 
Q 2506 1872 2764 1633 
Q 3022 1394 3022 966 
Q 3022 478 2636 193 
Q 2250 -91 1575 -91 
Q 1294 -91 989 -36 
Q 684 19 347 128 
L 347 722 
Q 666 556 975 473 
Q 1284 391 1588 391 
Q 1994 391 2212 530 
Q 2431 669 2431 922 
Q 2431 1156 2273 1281 
Q 2116 1406 1581 1522 
L 1381 1569 
Q 847 1681 609 1914 
Q 372 2147 372 2553 
Q 372 3047 722 3315 
Q 1072 3584 1716 3584 
Q 2034 3584 2315 3537 
Q 2597 3491 2834 3397 
z
" transform="scale(0.015625)"/>
       <path id="DejaVuSans-69" d="M 603 3500 
L 1178 3500 
L 1178 0 
L 603 0 
L 603 3500 
z
M 603 4863 
L 1178 4863 
L 1178 4134 
L 603 4134 
L 603 4863 
z
" transform="scale(0.015625)"/>
       <path id="DejaVuSans-74" d="M 1172 4494 
L 1172 3500 
L 2356 3500 
L 2356 3053 
L 1172 3053 
L 1172 1153 
Q 1172 725 1289 603 
Q 1406 481 1766 481 
L 2356 481 
L 2356 0 
L 1766 0 
Q 1100 0 847 248 
Q 594 497 594 1153 
L 594 3053 
L 172 3053 
L 172 3500 
L 594 3500 
L 594 4494 
L 1172 4494 
z
" transform="scale(0.015625)"/>
       <path id="DejaVuSans-6e" d="M 3513 2113 
L 3513 0 
L 2938 0 
L 2938 2094 
Q 2938 2591 2744 2837 
Q 2550 3084 2163 3084 
Q 1697 3084 1428 2787 
Q 1159 2491 1159 1978 
L 1159 0 
L 581 0 
L 581 3500 
L 1159 3500 
L 1159 2956 
Q 1366 3272 1645 3428 
Q 1925 3584 2291 3584 
Q 2894 3584 3203 3211 
Q 3513 2838 3513 2113 
z
" transform="scale(0.015625)"/>
      </defs>
      <use xlink:href="#DejaVuSans-50"/>
      <use xlink:href="#DejaVuSans-6f" x="56.677734"/>
      <use xlink:href="#DejaVuSans-73" x="117.859375"/>
      <use xlink:href="#DejaVuSans-69" x="169.958984"/>
      <use xlink:href="#DejaVuSans-74" x="197.742188"/>
      <use xlink:href="#DejaVuSans-69" x="236.951172"/>
      <use xlink:href="#DejaVuSans-6f" x="264.734375"/>
      <use xlink:href="#DejaVuSans-6e" x="325.916016"/>
     </g>
    </g>
   </g>
   <g id="matplotlib.axis_2">
    <g id="ytick_1">
     <g id="line2d_6">
      <defs>
       <path id="mb95d855e37" d="M 0 0 
L -3.5 0 
" style="stroke: #000000; stroke-width: 0.8"/>
      </defs>
      <g>
       <use xlink:href="#mb95d855e37" x="144" y="339.236877" style="stroke: #000000; stroke-width: 0.8"/>
      </g>
     </g>
     <g id="text_7">
      <!-- 5000 -->
      <g transform="translate(111.55 343.036095)scale(0.1 -0.1)">
       <use xlink:href="#DejaVuSans-35"/>
       <use xlink:href="#DejaVuSans-30" x="63.623047"/>
       <use xlink:href="#DejaVuSans-30" x="127.246094"/>
       <use xlink:href="#DejaVuSans-30" x="190.869141"/>
      </g>
     </g>
    </g>
    <g id="ytick_2">
     <g id="line2d_7">
      <g>
       <use xlink:href="#mb95d855e37" x="144" y="293.581946" style="stroke: #000000; stroke-width: 0.8"/>
      </g>
     </g>
     <g id="text_8">
      <!-- 10000 -->
      <g transform="translate(105.1875 297.381165)scale(0.1 -0.1)">
       <use xlink:href="#DejaVuSans-31"/>
       <use xlink:href="#DejaVuSans-30" x="63.623047"/>
       <use xlink:href="#DejaVuSans-30" x="127.246094"/>
       <use xlink:href="#DejaVuSans-30" x="190.869141"/>
       <use xlink:href="#DejaVuSans-30" x="254.492188"/>
      </g>
     </g>
    </g>
    <g id="ytick_3">
     <g id="line2d_8">
      <g>
       <use xlink:href="#mb95d855e37" x="144" y="247.927015" style="stroke: #000000; stroke-width: 0.8"/>
      </g>
     </g>
     <g id="text_9">
      <!-- 15000 -->
      <g transform="translate(105.1875 251.726234)scale(0.1 -0.1)">
       <use xlink:href="#DejaVuSans-31"/>
       <use xlink:href="#DejaVuSans-35" x="63.623047"/>
       <use xlink:href="#DejaVuSans-30" x="127.246094"/>
       <use xlink:href="#DejaVuSans-30" x="190.869141"/>
       <use xlink:href="#DejaVuSans-30" x="254.492188"/>
      </g>
     </g>
    </g>
    <g id="ytick_4">
     <g id="line2d_9">
      <g>
       <use xlink:href="#mb95d855e37" x="144" y="202.272084" style="stroke: #000000; stroke-width: 0.8"/>
      </g>
     </g>
     <g id="text_10">
      <!-- 20000 -->
      <g transform="translate(105.1875 206.071303)scale(0.1 -0.1)">
       <use xlink:href="#DejaVuSans-32"/>
       <use xlink:href="#DejaVuSans-30" x="63.623047"/>
       <use xlink:href="#DejaVuSans-30" x="127.246094"/>
       <use xlink:href="#DejaVuSans-30" x="190.869141"/>
       <use xlink:href="#DejaVuSans-30" x="254.492188"/>
      </g>
     </g>
    </g>
    <g id="ytick_5">
     <g id="line2d_10">
      <g>
       <use xlink:href="#mb95d855e37" x="144" y="156.617153" style="stroke: #000000; stroke-width: 0.8"/>
      </g>
     </g>
     <g id="text_11">
      <!-- 25000 -->
      <g transform="translate(105.1875 160.416372)scale(0.1 -0.1)">
       <use xlink:href="#DejaVuSans-32"/>
       <use xlink:href="#DejaVuSans-35" x="63.623047"/>
       <use xlink:href="#DejaVuSans-30" x="127.246094"/>
       <use xlink:href="#DejaVuSans-30" x="190.869141"/>
       <use xlink:href="#DejaVuSans-30" x="254.492188"/>
      </g>
     </g>
    </g>
    <g id="ytick_6">
     <g id="line2d_11">
      <g>
       <use xlink:href="#mb95d855e37" x="144" y="110.962222" style="stroke: #000000; stroke-width: 0.8"/>
      </g>
     </g>
     <g id="text_12">
      <!-- 30000 -->
      <g transform="translate(105.1875 114.761441)scale(0.1 -0.1)">
       <defs>
        <path id="DejaVuSans-33" d="M 2597 2516 
Q 3050 2419 3304 2112 
Q 3559 1806 3559 1356 
Q 3559 666 3084 287 
Q 2609 -91 1734 -91 
Q 1441 -91 1130 -33 
Q 819 25 488 141 
L 488 750 
Q 750 597 1062 519 
Q 1375 441 1716 441 
Q 2309 441 2620 675 
Q 2931 909 2931 1356 
Q 2931 1769 2642 2001 
Q 2353 2234 1838 2234 
L 1294 2234 
L 1294 2753 
L 1863 2753 
Q 2328 2753 2575 2939 
Q 2822 3125 2822 3475 
Q 2822 3834 2567 4026 
Q 2313 4219 1838 4219 
Q 1578 4219 1281 4162 
Q 984 4106 628 3988 
L 628 4550 
Q 988 4650 1302 4700 
Q 1616 4750 1894 4750 
Q 2613 4750 3031 4423 
Q 3450 4097 3450 3541 
Q 3450 3153 3228 2886 
Q 3006 2619 2597 2516 
z
" transform="scale(0.015625)"/>
       </defs>
       <use xlink:href="#DejaVuSans-33"/>
       <use xlink:href="#DejaVuSans-30" x="63.623047"/>
       <use xlink:href="#DejaVuSans-30" x="127.246094"/>
       <use xlink:href="#DejaVuSans-30" x="190.869141"/>
       <use xlink:href="#DejaVuSans-30" x="254.492188"/>
      </g>
     </g>
    </g>
    <g id="ytick_7">
     <g id="line2d_12">
      <g>
       <use xlink:href="#mb95d855e37" x="144" y="65.307292" style="stroke: #000000; stroke-width: 0.8"/>
      </g>
     </g>
     <g id="text_13">
      <!-- 35000 -->
      <g transform="translate(105.1875 69.10651)scale(0.1 -0.1)">
       <use xlink:href="#DejaVuSans-33"/>
       <use xlink:href="#DejaVuSans-35" x="63.623047"/>
       <use xlink:href="#DejaVuSans-30" x="127.246094"/>
       <use xlink:href="#DejaVuSans-30" x="190.869141"/>
       <use xlink:href="#DejaVuSans-30" x="254.492188"/>
      </g>
     </g>
    </g>
    <g id="text_14">
     <!-- Depth of coverage -->
     <g transform="translate(99.107812 264.602187)rotate(-90)scale(0.1 -0.1)">
      <defs>
       <path id="DejaVuSans-44" d="M 1259 4147 
L 1259 519 
L 2022 519 
Q 2988 519 3436 956 
Q 3884 1394 3884 2338 
Q 3884 3275 3436 3711 
Q 2988 4147 2022 4147 
L 1259 4147 
z
M 628 4666 
L 1925 4666 
Q 3281 4666 3915 4102 
Q 4550 3538 4550 2338 
Q 4550 1131 3912 565 
Q 3275 0 1925 0 
L 628 0 
L 628 4666 
z
" transform="scale(0.015625)"/>
       <path id="DejaVuSans-65" d="M 3597 1894 
L 3597 1613 
L 953 1613 
Q 991 1019 1311 708 
Q 1631 397 2203 397 
Q 2534 397 2845 478 
Q 3156 559 3463 722 
L 3463 178 
Q 3153 47 2828 -22 
Q 2503 -91 2169 -91 
Q 1331 -91 842 396 
Q 353 884 353 1716 
Q 353 2575 817 3079 
Q 1281 3584 2069 3584 
Q 2775 3584 3186 3129 
Q 3597 2675 3597 1894 
z
M 3022 2063 
Q 3016 2534 2758 2815 
Q 2500 3097 2075 3097 
Q 1594 3097 1305 2825 
Q 1016 2553 972 2059 
L 3022 2063 
z
" transform="scale(0.015625)"/>
       <path id="DejaVuSans-70" d="M 1159 525 
L 1159 -1331 
L 581 -1331 
L 581 3500 
L 1159 3500 
L 1159 2969 
Q 1341 3281 1617 3432 
Q 1894 3584 2278 3584 
Q 2916 3584 3314 3078 
Q 3713 2572 3713 1747 
Q 3713 922 3314 415 
Q 2916 -91 2278 -91 
Q 1894 -91 1617 61 
Q 1341 213 1159 525 
z
M 3116 1747 
Q 3116 2381 2855 2742 
Q 2594 3103 2138 3103 
Q 1681 3103 1420 2742 
Q 1159 2381 1159 1747 
Q 1159 1113 1420 752 
Q 1681 391 2138 391 
Q 2594 391 2855 752 
Q 3116 1113 3116 1747 
z
" transform="scale(0.015625)"/>
       <path id="DejaVuSans-68" d="M 3513 2113 
L 3513 0 
L 2938 0 
L 2938 2094 
Q 2938 2591 2744 2837 
Q 2550 3084 2163 3084 
Q 1697 3084 1428 2787 
Q 1159 2491 1159 1978 
L 1159 0 
L 581 0 
L 581 4863 
L 1159 4863 
L 1159 2956 
Q 1366 3272 1645 3428 
Q 1925 3584 2291 3584 
Q 2894 3584 3203 3211 
Q 3513 2838 3513 2113 
z
" transform="scale(0.015625)"/>
       <path id="DejaVuSans-20" transform="scale(0.015625)"/>
       <path id="DejaVuSans-66" d="M 2375 4863 
L 2375 4384 
L 1825 4384 
Q 1516 4384 1395 4259 
Q 1275 4134 1275 3809 
L 1275 3500 
L 2222 3500 
L 2222 3053 
L 1275 3053 
L 1275 0 
L 697 0 
L 697 3053 
L 147 3053 
L 147 3500 
L 697 3500 
L 697 3744 
Q 697 4328 969 4595 
Q 1241 4863 1831 4863 
L 2375 4863 
z
" transform="scale(0.015625)"/>
       <path id="DejaVuSans-63" d="M 3122 3366 
L 3122 2828 
Q 2878 2963 2633 3030 
Q 2388 3097 2138 3097 
Q 1578 3097 1268 2742 
Q 959 2388 959 1747 
Q 959 1106 1268 751 
Q 1578 397 2138 397 
Q 2388 397 2633 464 
Q 2878 531 3122 666 
L 3122 134 
Q 2881 22 2623 -34 
Q 2366 -91 2075 -91 
Q 1284 -91 818 406 
Q 353 903 353 1747 
Q 353 2603 823 3093 
Q 1294 3584 2113 3584 
Q 2378 3584 2631 3529 
Q 2884 3475 3122 3366 
z
" transform="scale(0.015625)"/>
       <path id="DejaVuSans-76" d="M 191 3500 
L 800 3500 
L 1894 563 
L 2988 3500 
L 3597 3500 
L 2284 0 
L 1503 0 
L 191 3500 
z
" transform="scale(0.015625)"/>
       <path id="DejaVuSans-72" d="M 2631 2963 
Q 2534 3019 2420 3045 
Q 2306 3072 2169 3072 
Q 1681 3072 1420 2755 
Q 1159 2438 1159 1844 
L 1159 0 
L 581 0 
L 581 3500 
L 1159 3500 
L 1159 2956 
Q 1341 3275 1631 3429 
Q 1922 3584 2338 3584 
Q 2397 3584 2469 3576 
Q 2541 3569 2628 3553 
L 2631 2963 
z
" transform="scale(0.015625)"/>
       <path id="DejaVuSans-61" d="M 2194 1759 
Q 1497 1759 1228 1600 
Q 959 1441 959 1056 
Q 959 750 1161 570 
Q 1363 391 1709 391 
Q 2188 391 2477 730 
Q 2766 1069 2766 1631 
L 2766 1759 
L 2194 1759 
z
M 3341 1997 
L 3341 0 
L 2766 0 
L 2766 531 
Q 2569 213 2275 61 
Q 1981 -91 1556 -91 
Q 1019 -91 701 211 
Q 384 513 384 1019 
Q 384 1609 779 1909 
Q 1175 2209 1959 2209 
L 2766 2209 
L 2766 2266 
Q 2766 2663 2505 2880 
Q 2244 3097 1772 3097 
Q 1472 3097 1187 3025 
Q 903 2953 641 2809 
L 641 3341 
Q 956 3463 1253 3523 
Q 1550 3584 1831 3584 
Q 2591 3584 2966 3190 
Q 3341 2797 3341 1997 
z
" transform="scale(0.015625)"/>
       <path id="DejaVuSans-67" d="M 2906 1791 
Q 2906 2416 2648 2759 
Q 2391 3103 1925 3103 
Q 1463 3103 1205 2759 
Q 947 2416 947 1791 
Q 947 1169 1205 825 
Q 1463 481 1925 481 
Q 2391 481 2648 825 
Q 2906 1169 2906 1791 
z
M 3481 434 
Q 3481 -459 3084 -895 
Q 2688 -1331 1869 -1331 
Q 1566 -1331 1297 -1286 
Q 1028 -1241 775 -1147 
L 775 -588 
Q 1028 -725 1275 -790 
Q 1522 -856 1778 -856 
Q 2344 -856 2625 -561 
Q 2906 -266 2906 331 
L 2906 616 
Q 2728 306 2450 153 
Q 2172 0 1784 0 
Q 1141 0 747 490 
Q 353 981 353 1791 
Q 353 2603 747 3093 
Q 1141 3584 1784 3584 
Q 2172 3584 2450 3431 
Q 2728 3278 2906 2969 
L 2906 3500 
L 3481 3500 
L 3481 434 
z
" transform="scale(0.015625)"/>
      </defs>
      <use xlink:href="#DejaVuSans-44"/>
      <use xlink:href="#DejaVuSans-65" x="77.001953"/>
      <use xlink:href="#DejaVuSans-70" x="138.525391"/>
      <use xlink:href="#DejaVuSans-74" x="202.001953"/>
      <use xlink:href="#DejaVuSans-68" x="241.210938"/>
      <use xlink:href="#DejaVuSans-20" x="304.589844"/>
      <use xlink:href="#DejaVuSans-6f" x="336.376953"/>
      <use xlink:href="#DejaVuSans-66" x="397.558594"/>
      <use xlink:href="#DejaVuSans-20" x="432.763672"/>
      <use xlink:href="#DejaVuSans-63" x="464.550781"/>
      <use xlink:href="#DejaVuSans-6f" x="519.53125"/>
      <use xlink:href="#DejaVuSans-76" x="580.712891"/>
      <use xlink:href="#DejaVuSans-65" x="639.892578"/>
      <use xlink:href="#DejaVuSans-72" x="701.416016"/>
      <use xlink:href="#DejaVuSans-61" x="742.529297"/>
      <use xlink:href="#DejaVuSans-67" x="803.808594"/>
      <use xlink:href="#DejaVuSans-65" x="867.285156"/>
     </g>
    </g>
   </g>
   <g id="line2d_13">
    <path d="M 184.581818 355.371329 
L 184.928671 345.738139 
L 185.275524 341.327872 
L 185.622378 341.053943 
L 185.969231 332.68996 
L 186.316084 332.352113 
L 186.662937 332.242541 
L 187.00979 331.895564 
L 187.356643 331.055513 
L 187.703497 329.877616 
L 188.05035 328.133597 
L 188.744056 327.311809 
L 189.090909 327.211368 
L 189.437762 326.3074 
L 189.784615 326.143042 
L 190.131469 322.801102 
L 190.478322 322.216718 
L 191.172028 319.322196 
L 191.518881 318.61911 
L 191.865734 318.427359 
L 192.212587 317.130759 
L 192.906294 315.961993 
L 193.253147 315.852421 
L 193.6 315.615015 
L 193.946853 314.692786 
L 194.293706 312.711362 
L 194.640559 312.0448 
L 194.987413 311.935228 
L 195.334266 311.67956 
L 195.681119 310.355567 
L 196.374825 309.82597 
L 197.068531 309.73466 
L 197.415385 309.524648 
L 197.762238 309.022443 
L 198.109091 308.173262 
L 198.455944 307.899332 
L 198.802797 307.853677 
L 199.496503 307.132329 
L 199.843357 307.041019 
L 200.19021 306.748828 
L 200.537063 306.620994 
L 200.883916 304.17389 
L 201.230769 304.064318 
L 201.577622 301.991584 
L 202.271329 301.39807 
L 202.618182 302.502919 
L 202.965035 303.041647 
L 203.311888 302.813373 
L 203.658741 302.42074 
L 204.005594 302.548574 
L 204.352448 302.347692 
L 204.699301 300.731508 
L 205.046154 300.777163 
L 205.393007 300.494102 
L 206.086713 300.38453 
L 206.433566 298.98749 
L 207.127273 297.23434 
L 207.474126 296.723005 
L 207.820979 297.225209 
L 208.167832 296.138622 
L 208.514685 296.412551 
L 208.861538 292.723633 
L 209.208392 290.495672 
L 209.555245 286.322812 
L 209.902098 285.1997 
L 210.248951 285.1997 
L 210.595804 284.396174 
L 210.942657 285.172308 
L 211.28951 278.99063 
L 211.636364 278.917582 
L 211.983217 272.708511 
L 212.33007 272.443713 
L 212.676923 271.941509 
L 213.023776 269.384832 
L 213.370629 269.056117 
L 213.717483 266.86468 
L 214.064336 266.873811 
L 214.411189 266.718584 
L 214.758042 265.860272 
L 215.104895 266.042891 
L 215.451748 246.593891 
L 215.798601 246.456926 
L 216.492308 245.461649 
L 216.839161 245.324684 
L 217.186014 238.686457 
L 217.532867 238.586016 
L 217.87972 237.408119 
L 218.226573 237.307678 
L 218.573427 237.819013 
L 218.92028 236.622854 
L 219.267133 236.358055 
L 219.613986 236.394579 
L 219.960839 236.257615 
L 220.307692 235.399302 
L 220.654545 234.988408 
L 221.001399 229.601126 
L 221.348252 229.372851 
L 221.695105 228.861516 
L 222.041958 222.405909 
L 222.388811 222.113717 
L 222.735664 221.255404 
L 223.429371 221.145832 
L 223.776224 221.145832 
L 224.123077 221.511072 
L 224.46993 219.091361 
L 224.816783 217.986511 
L 225.163636 217.758237 
L 225.51049 217.32908 
L 225.857343 217.319949 
L 226.204196 217.055151 
L 227.244755 213.99627 
L 227.591608 216.087266 
L 227.938462 216.342934 
L 228.285315 216.105528 
L 228.632168 213.293184 
L 228.979021 211.530904 
L 229.672727 210.736508 
L 230.01958 210.791294 
L 230.366434 199.934552 
L 230.713287 199.961945 
L 231.06014 204.445259 
L 231.753846 203.705649 
L 232.100699 200.19935 
L 232.447552 192.520191 
L 232.794406 188.657784 
L 233.141259 189.159988 
L 233.488112 189.370001 
L 233.834965 189.004761 
L 234.181818 187.890781 
L 234.528671 187.580327 
L 234.875524 187.096385 
L 235.222378 189.853943 
L 235.569231 190.483981 
L 235.916084 224.478642 
L 236.262937 230.331605 
L 236.956643 228.414097 
L 237.303497 228.587586 
L 237.65035 228.277133 
L 237.997203 227.491868 
L 238.690909 227.555785 
L 239.037762 219.748792 
L 239.731469 218.817431 
L 240.078322 219.474862 
L 240.425175 219.4566 
L 240.772028 208.572465 
L 241.118881 208.325928 
L 241.465734 205.778383 
L 241.812587 205.769252 
L 242.159441 205.56837 
L 242.506294 205.869693 
L 242.853147 206.006657 
L 243.2 204.728319 
L 243.546853 206.527124 
L 243.893706 207.440222 
L 244.240559 206.746267 
L 244.587413 207.148031 
L 244.934266 203.71478 
L 245.281119 201.532474 
L 245.627972 201.559867 
L 245.974825 199.998469 
L 246.321678 201.158104 
L 246.668531 200.865912 
L 247.015385 201.085056 
L 247.362238 200.19935 
L 247.709091 199.697146 
L 248.055944 200.080647 
L 248.402797 200.272398 
L 248.74965 199.295383 
L 249.443357 198.227057 
L 249.79021 199.36843 
L 250.137063 198.710999 
L 250.483916 197.724853 
L 250.830769 197.69746 
L 251.524476 194.227685 
L 251.871329 194.282471 
L 252.218182 193.698088 
L 252.565035 193.743743 
L 252.911888 191.689271 
L 253.258741 191.999725 
L 253.605594 193.150229 
L 253.952448 193.469813 
L 254.299301 193.150229 
L 254.646154 193.908101 
L 254.993007 194.939902 
L 255.33986 192.638894 
L 255.686713 192.447143 
L 256.033566 192.739335 
L 256.38042 186.76767 
L 257.074126 185.452808 
L 257.420979 185.324974 
L 257.767832 183.416598 
L 258.114685 183.407467 
L 258.461538 177.88322 
L 258.808392 178.038447 
L 259.155245 178.047578 
L 259.502098 176.951859 
L 259.848951 176.522703 
L 260.195804 175.737438 
L 260.542657 178.723271 
L 260.88951 178.896759 
L 261.236364 178.367162 
L 261.583217 180.074657 
L 261.93007 180.156836 
L 262.276923 182.266093 
L 262.623776 182.676988 
L 262.970629 181.316471 
L 263.317483 181.426043 
L 263.664336 183.964457 
L 264.011189 183.115275 
L 264.704895 192.565846 
L 265.051748 196.181716 
L 265.398601 197.359614 
L 265.745455 197.441792 
L 266.092308 198.236188 
L 266.439161 196.574349 
L 266.786014 193.278063 
L 267.132867 193.661564 
L 267.47972 193.278063 
L 267.826573 207.558925 
L 268.173427 207.686759 
L 268.52028 208.079391 
L 268.867133 212.261383 
L 269.213986 212.69967 
L 269.560839 213.850175 
L 269.907692 214.08758 
L 270.601399 213.000993 
L 270.948252 212.644884 
L 271.295105 213.685817 
L 271.641958 223.574675 
L 271.988811 223.866866 
L 272.335664 224.003831 
L 272.682517 225.117811 
L 273.029371 222.113717 
L 273.376224 221.31019 
L 273.723077 221.465417 
L 274.06993 224.232106 
L 274.416783 224.314285 
L 274.763636 223.912521 
L 275.11049 224.387333 
L 275.457343 224.478642 
L 275.804196 216.918186 
L 276.151049 216.625994 
L 276.497902 214.041925 
L 276.844755 215.256346 
L 277.191608 217.182984 
L 277.538462 216.315541 
L 277.885315 214.653701 
L 278.232168 214.08758 
L 278.579021 214.398034 
L 278.925874 215.155906 
L 279.272727 214.717618 
L 279.61958 215.256346 
L 279.966434 212.170073 
L 280.313287 212.644884 
L 280.66014 214.069318 
L 281.006993 216.616863 
L 281.353846 215.886384 
L 281.700699 214.407165 
L 282.047552 213.503197 
L 282.394406 213.968877 
L 282.741259 226.021779 
L 283.088112 231.692122 
L 283.434965 228.06712 
L 283.781818 227.720143 
L 284.128671 228.459752 
L 284.475524 225.492182 
L 284.822378 225.355217 
L 285.169231 231.199048 
L 285.862937 231.454716 
L 286.20979 231.098607 
L 286.556643 231.445585 
L 286.903497 230.468569 
L 287.25035 230.550748 
L 287.597203 229.08979 
L 287.944056 228.961957 
L 288.290909 231.30862 
L 288.637762 230.952512 
L 289.331469 232.988722 
L 289.678322 233.0709 
L 290.025175 224.369071 
L 290.718881 224.031224 
L 291.412587 224.442118 
L 291.759441 223.875997 
L 292.106294 221.328452 
L 292.453147 221.775871 
L 292.8 221.757609 
L 293.146853 231.619074 
L 293.493706 229.418506 
L 293.840559 219.894887 
L 294.187413 219.931411 
L 294.534266 219.474862 
L 294.881119 211.750048 
L 295.227972 210.416924 
L 295.574825 210.444317 
L 295.921678 211.238712 
L 296.268531 211.384808 
L 296.615385 213.311446 
L 296.962238 213.083172 
L 297.309091 215.94117 
L 297.655944 215.347656 
L 298.002797 214.489344 
L 298.34965 215.448097 
L 298.696503 217.456914 
L 299.043357 217.338211 
L 299.39021 216.726435 
L 299.737063 216.552946 
L 300.083916 217.210377 
L 300.430769 216.972972 
L 300.777622 217.119068 
L 301.124476 217.913463 
L 301.471329 217.831284 
L 301.818182 218.242179 
L 302.165035 219.027444 
L 302.511888 218.132607 
L 302.858741 218.452192 
L 303.205594 208.563334 
L 303.552448 209.056407 
L 303.899301 207.988081 
L 304.593007 208.307666 
L 304.93986 208.80987 
L 305.286713 211.138272 
L 305.633566 211.375677 
L 306.327273 212.663146 
L 306.674126 214.251938 
L 307.020979 214.589784 
L 307.367832 218.105214 
L 307.714685 218.296965 
L 308.408392 219.100492 
L 308.755245 220.734938 
L 309.102098 233.847034 
L 309.448951 234.020523 
L 309.795804 232.258243 
L 310.142657 232.194326 
L 310.48951 221.693692 
L 310.836364 221.364976 
L 311.183217 221.31019 
L 311.53007 220.890165 
L 311.876923 220.853641 
L 312.223776 219.429207 
L 312.570629 209.184241 
L 312.917483 208.170701 
L 313.264336 207.622842 
L 313.611189 209.832541 
L 313.958042 210.800425 
L 314.304895 210.261697 
L 314.651748 210.01516 
L 314.998601 209.969505 
L 315.345455 212.307038 
L 316.039161 210.453448 
L 316.732867 209.576873 
L 317.07972 209.741231 
L 317.773427 211.49438 
L 318.12028 210.435186 
L 318.467133 210.836949 
L 318.813986 212.407479 
L 319.507692 218.844824 
L 319.854545 217.23777 
L 320.201399 218.306096 
L 320.548252 218.278703 
L 320.895105 216.461637 
L 321.241958 215.648979 
L 321.588811 215.731158 
L 321.935664 215.676372 
L 322.282517 216.242493 
L 322.629371 217.274294 
L 322.976224 216.443375 
L 323.323077 216.598601 
L 323.66993 217.009496 
L 324.016783 217.018627 
L 324.363636 217.164723 
L 324.71049 216.050742 
L 325.057343 207.997212 
L 325.404196 207.650235 
L 325.751049 208.335059 
L 326.097902 209.266419 
L 326.444755 208.882918 
L 326.791608 207.622842 
L 327.138462 207.960688 
L 327.485315 207.312388 
L 327.832168 210.435186 
L 328.179021 218.516108 
L 328.525874 218.817431 
L 328.872727 218.790038 
L 329.566434 216.753828 
L 329.913287 218.178262 
L 330.26014 220.607104 
L 330.606993 221.684561 
L 331.300699 216.991234 
L 331.647552 216.689911 
L 331.994406 216.762959 
L 332.341259 220.232734 
L 332.688112 220.141424 
L 333.034965 220.680152 
L 333.381818 220.369699 
L 333.728671 221.127571 
L 334.422378 224.679524 
L 334.769231 225.318693 
L 335.116084 226.560507 
L 335.462937 226.067434 
L 336.156643 226.423542 
L 336.503497 226.076565 
L 336.85035 225.126942 
L 337.197203 224.898668 
L 337.544056 224.82562 
L 337.890909 224.323416 
L 338.237762 224.442118 
L 338.584615 225.976124 
L 338.931469 228.295395 
L 339.278322 231.527764 
L 339.625175 230.486831 
L 339.972028 228.569324 
L 340.318881 228.149299 
L 340.665734 225.318693 
L 341.012587 224.989978 
L 341.359441 222.497218 
L 341.706294 222.561135 
L 342.053147 229.537209 
L 342.4 229.299803 
L 342.746853 230.212902 
L 343.093706 220.451878 
L 343.440559 219.018313 
L 343.787413 218.872217 
L 344.134266 208.079391 
L 344.481119 211.220451 
L 344.827972 208.846394 
L 345.174825 209.239027 
L 345.521678 210.343876 
L 345.868531 211.823096 
L 346.215385 223.720771 
L 346.562238 224.058617 
L 346.909091 224.222975 
L 347.255944 231.281227 
L 347.94965 231.646467 
L 348.296503 230.84294 
L 348.643357 230.93425 
L 348.99021 231.345144 
L 349.337063 230.979905 
L 349.683916 231.536895 
L 350.030769 231.171655 
L 351.418182 234.394893 
L 351.765035 235.097979 
L 352.111888 234.961015 
L 352.458741 221.49281 
L 352.805594 221.830656 
L 353.152448 222.433302 
L 353.499301 222.433302 
L 353.846154 227.117497 
L 354.193007 228.076251 
L 354.53986 228.277133 
L 354.886713 229.281541 
L 355.233566 229.327196 
L 355.58042 242.092315 
L 355.927273 241.763599 
L 356.274126 223.866866 
L 356.620979 223.392055 
L 356.967832 223.172911 
L 357.314685 221.76674 
L 357.661538 223.985569 
L 358.008392 223.885128 
L 358.355245 223.930783 
L 358.702098 226.49659 
L 359.048951 226.688341 
L 359.395804 227.455344 
L 360.08951 227.290986 
L 360.436364 226.332233 
L 360.783217 220.689283 
L 361.13007 220.789724 
L 361.476923 217.429521 
L 361.823776 217.438652 
L 362.170629 217.758237 
L 362.517483 216.39772 
L 363.211189 216.854269 
L 363.558042 216.151183 
L 363.904895 220.734938 
L 364.251748 220.19621 
L 364.598601 225.2913 
L 364.945455 225.592623 
L 365.292308 230.121592 
L 365.639161 229.226755 
L 365.986014 229.135445 
L 366.332867 229.36372 
L 366.67972 229.948103 
L 367.026573 230.788154 
L 367.373427 230.422914 
L 367.72028 228.204085 
L 368.067133 229.491554 
L 368.413986 234.011392 
L 368.760839 233.299175 
L 369.107692 225.437396 
L 369.454545 224.414726 
L 369.801399 211.613083 
L 370.495105 210.243435 
L 370.841958 210.508234 
L 371.188811 210.517365 
L 371.535664 210.234304 
L 371.882517 210.343876 
L 372.229371 211.375677 
L 372.576224 211.348284 
L 372.923077 210.590412 
L 373.26993 210.654329 
L 373.616783 208.99249 
L 373.963636 209.065538 
L 374.31049 208.618119 
L 374.657343 206.371897 
L 375.004196 206.709743 
L 375.351049 205.047904 
L 375.697902 205.111821 
L 376.044755 204.034364 
L 376.391608 203.486505 
L 376.738462 206.572779 
L 377.085315 207.677628 
L 377.432168 211.841358 
L 377.779021 212.535313 
L 378.125874 210.809556 
L 378.472727 210.93739 
L 378.81958 209.120324 
L 379.166434 210.234304 
L 379.513287 208.207225 
L 379.86014 208.207225 
L 380.206993 208.572465 
L 380.553846 204.983987 
L 380.900699 205.01138 
L 381.247552 204.710057 
L 381.594406 205.413143 
L 381.941259 206.408421 
L 382.634965 204.390473 
L 382.981818 204.463521 
L 383.675524 209.321205 
L 384.022378 207.1389 
L 384.369231 207.120638 
L 384.716084 207.248472 
L 385.062937 207.723283 
L 385.40979 207.869379 
L 385.756643 208.481155 
L 386.103497 207.87851 
L 386.45035 208.736822 
L 386.797203 208.271142 
L 387.144056 208.216356 
L 387.490909 207.531532 
L 387.837762 207.129769 
L 388.531469 208.389845 
L 388.878322 208.362452 
L 389.225175 207.412829 
L 389.572028 206.947149 
L 389.918881 207.157162 
L 390.265734 208.143308 
L 390.612587 210.124732 
L 391.306294 211.202189 
L 391.653147 202.308608 
L 392 201.632915 
L 392.693706 199.55105 
L 393.040559 202.646454 
L 393.387413 202.920384 
L 394.081119 201.048532 
L 394.774825 201.249414 
L 395.121678 202.071202 
L 395.468531 210.599543 
L 395.815385 209.951243 
L 396.162238 218.196524 
L 396.509091 219.821839 
L 396.855944 217.904332 
L 397.202797 219.237456 
L 397.896503 217.100806 
L 398.243357 217.292556 
L 398.59021 216.096397 
L 398.937063 216.507292 
L 399.283916 216.251624 
L 399.630769 216.607732 
L 399.977622 217.593879 
L 400.324476 214.416296 
L 400.671329 215.046334 
L 401.018182 214.745011 
L 401.365035 210.791294 
L 401.711888 210.435186 
L 402.058741 209.887327 
L 402.405594 210.608674 
L 402.752448 208.371583 
L 403.099301 209.312074 
L 403.793007 201.295069 
L 404.13986 203.011694 
L 404.486713 212.3253 
L 404.833566 216.105528 
L 405.18042 215.502883 
L 405.527273 215.585062 
L 405.874126 217.730844 
L 406.220979 217.995642 
L 406.567832 221.392369 
L 406.914685 222.707231 
L 407.261538 223.081602 
L 407.608392 226.880092 
L 407.955245 226.323102 
L 408.302098 225.528706 
L 408.648951 225.501313 
L 408.995804 226.231792 
L 409.342657 225.601754 
L 409.68951 226.377888 
L 410.036364 226.131351 
L 410.383217 226.551376 
L 410.73007 227.318379 
L 411.076923 227.455344 
L 411.423776 224.378202 
L 412.117483 224.286892 
L 412.464336 226.670079 
L 412.811189 227.2362 
L 413.158042 223.43771 
L 413.504895 222.561135 
L 413.851748 225.355217 
L 414.198601 224.168189 
L 414.545455 224.478642 
L 414.892308 224.487773 
L 415.239161 224.305154 
L 415.586014 224.926061 
L 415.932867 225.318693 
L 416.27972 225.893945 
L 416.626573 226.040041 
L 416.973427 226.040041 
L 417.32028 227.41882 
L 417.667133 227.391427 
L 418.360839 217.301687 
L 418.707692 216.552946 
L 419.054545 214.708487 
L 420.095105 215.65811 
L 420.788811 219.200932 
L 421.135664 219.776185 
L 421.482517 227.60144 
L 421.829371 227.026188 
L 422.176224 219.301373 
L 422.523077 217.13733 
L 422.86993 218.296965 
L 423.216783 219.063968 
L 423.563636 218.397406 
L 423.91049 214.945893 
L 424.257343 215.676372 
L 424.604196 214.434558 
L 424.951049 214.078449 
L 425.991608 211.850489 
L 426.338462 212.133549 
L 426.685315 210.10647 
L 427.032168 212.580967 
L 427.379021 210.864342 
L 427.725874 212.800111 
L 428.072727 211.795703 
L 428.41958 212.224859 
L 429.113287 210.75477 
L 429.46014 210.444317 
L 429.806993 208.563334 
L 430.153846 208.115915 
L 430.500699 209.348598 
L 430.847552 209.686445 
L 431.194406 211.275236 
L 431.541259 209.558611 
L 431.888112 210.955652 
L 432.234965 211.293498 
L 432.581818 214.516737 
L 432.928671 214.73588 
L 433.275524 213.859306 
L 433.622378 212.097025 
L 433.969231 212.380086 
L 435.00979 215.585062 
L 435.356643 215.165037 
L 436.05035 217.173853 
L 436.397203 217.210377 
L 436.744056 215.795075 
L 437.090909 215.648979 
L 437.437762 213.055779 
L 437.784615 213.466673 
L 438.131469 213.25666 
L 438.478322 214.160628 
L 439.172028 214.745011 
L 439.518881 216.452506 
L 440.212587 216.388589 
L 440.559441 218.680466 
L 441.253147 217.78563 
L 441.6 217.940856 
L 441.946853 221.136701 
L 442.293706 221.136701 
L 442.640559 221.894573 
L 442.987413 220.19621 
L 443.334266 219.657482 
L 443.681119 219.483993 
L 444.027972 220.607104 
L 444.374825 221.237142 
L 444.721678 222.214158 
L 445.068531 220.086638 
L 445.415385 219.739661 
L 445.762238 219.904018 
L 446.109091 221.931097 
L 446.455944 225.419134 
L 446.802797 224.843882 
L 447.14965 224.569952 
L 448.19021 215.959432 
L 448.537063 216.105528 
L 448.883916 216.525553 
L 449.230769 218.689597 
L 449.577622 215.521145 
L 449.924476 207.960688 
L 450.271329 207.558925 
L 450.618182 207.869379 
L 450.965035 209.859934 
L 451.311888 209.284681 
L 451.658741 210.19778 
L 452.005594 209.695576 
L 452.352448 209.64079 
L 452.699301 211.576559 
L 453.393007 204.874415 
L 453.73986 208.71856 
L 454.086713 208.745953 
L 454.433566 209.576873 
L 454.78042 215.037203 
L 455.474126 219.474862 
L 455.820979 222.688969 
L 456.167832 222.314599 
L 456.514685 221.684561 
L 456.861538 225.245645 
L 457.208392 213.201875 
L 457.555245 211.58569 
L 457.902098 208.106784 
L 458.248951 208.033736 
L 458.595804 207.522401 
L 458.942657 207.211948 
L 459.28951 206.280587 
L 459.636364 201.094187 
L 459.983217 200.783733 
L 460.33007 200.254136 
L 460.676923 200.518935 
L 461.023776 196.756968 
L 461.370629 196.702182 
L 461.717483 194.529008 
L 462.064336 194.36465 
L 462.411189 195.305142 
L 462.758042 196.966981 
L 463.104895 195.095129 
L 463.451748 196.017359 
L 463.798601 196.172585 
L 464.145455 198.61969 
L 464.492308 198.637952 
L 464.839161 197.113077 
L 465.186014 201.897714 
L 465.532867 202.025547 
L 465.87972 200.363708 
L 466.226573 200.208481 
L 466.573427 200.217612 
L 466.92028 198.61969 
L 467.267133 199.322776 
L 467.960839 198.309236 
L 468.307692 198.409677 
L 468.654545 199.17668 
L 469.001399 199.633229 
L 469.348252 200.902436 
L 469.695105 201.258545 
L 470.041958 202.262953 
L 470.735664 211.339153 
L 471.082517 210.033422 
L 471.429371 202.628193 
L 471.776224 198.765785 
L 472.123077 200.208481 
L 472.46993 200.181088 
L 472.816783 199.751932 
L 473.51049 199.341038 
L 473.857343 200.254136 
L 474.204196 204.792236 
L 474.551049 207.778069 
L 474.897902 213.895829 
L 475.244755 211.302629 
L 475.591608 211.521773 
L 475.938462 210.024291 
L 476.285315 210.069946 
L 476.632168 209.841672 
L 476.979021 210.919128 
L 477.325874 211.366546 
L 477.672727 207.823724 
L 478.01958 208.791608 
L 478.713287 205.915348 
L 479.06014 205.330964 
L 479.406993 203.723911 
L 479.753846 205.239655 
L 480.100699 204.746581 
L 480.447552 205.878824 
L 480.794406 205.38575 
L 481.141259 204.408735 
L 481.488112 205.075297 
L 481.834965 205.997526 
L 482.181818 206.536255 
L 482.528671 206.700612 
L 482.875524 206.21667 
L 483.222378 206.335373 
L 483.569231 206.819315 
L 483.916084 207.622842 
L 484.262937 206.609302 
L 484.60979 206.764529 
L 484.956643 206.709743 
L 485.303497 205.130083 
L 485.65035 206.901494 
L 486.344056 206.673219 
L 487.037762 205.623156 
L 487.384615 206.673219 
L 487.731469 206.95628 
L 488.078322 206.86497 
L 488.425175 206.189277 
L 488.772028 207.184555 
L 489.118881 210.069946 
L 489.465734 210.024291 
L 489.812587 211.850489 
L 490.159441 211.731786 
L 490.506294 205.65968 
L 491.2 203.276493 
L 491.546853 204.070888 
L 491.893706 203.796959 
L 492.240559 200.637638 
L 492.934266 199.560181 
L 493.281119 199.943683 
L 493.627972 200.500673 
L 493.974825 202.080333 
L 494.668531 200.336315 
L 495.015385 202.043809 
L 495.362238 202.628193 
L 495.709091 202.591669 
L 496.055944 201.614653 
L 496.402797 201.979893 
L 496.74965 200.546328 
L 497.79021 189.625668 
L 498.137063 189.954384 
L 498.483916 189.46131 
L 498.830769 188.703439 
L 499.177622 182.2387 
L 499.524476 183.453122 
L 499.871329 183.590086 
L 500.218182 185.461939 
L 500.565035 188.895189 
L 500.911888 188.365592 
L 501.258741 191.734926 
L 501.605594 191.689271 
L 502.299301 200.582852 
L 502.646154 196.035621 
L 502.993007 196.30955 
L 503.33986 191.360556 
L 503.686713 191.12315 
L 504.38042 192.556715 
L 504.727273 193.588516 
L 505.074126 193.780267 
L 505.420979 196.327812 
L 505.767832 200.865912 
L 506.114685 202.189905 
L 506.461538 205.705335 
L 506.808392 205.002249 
L 507.155245 199.450609 
L 507.502098 199.204073 
L 507.848951 199.605836 
L 508.195804 199.313645 
L 508.542657 199.751932 
L 508.88951 197.670067 
L 509.236364 197.122208 
L 509.583217 197.889211 
L 509.93007 196.455646 
L 510.276923 199.17668 
L 510.623776 195.652119 
L 511.317483 191.378818 
L 512.011189 196.857409 
L 512.358042 197.030898 
L 512.704895 197.78877 
L 513.051748 197.176994 
L 513.745455 203.029956 
L 514.092308 202.308608 
L 514.786014 202.390787 
L 515.132867 202.719502 
L 515.47972 202.619062 
L 515.826573 203.093873 
L 516.173427 201.642046 
L 516.52028 197.341352 
L 516.867133 196.391729 
L 517.213986 197.980521 
L 517.907692 198.774916 
L 518.254545 203.386064 
L 518.601399 201.505081 
L 518.948252 201.066794 
L 519.295105 202.966039 
L 519.641958 199.751932 
L 519.988811 198.564904 
L 520.335664 198.455332 
L 520.682517 197.542233 
L 521.029371 196.994374 
L 521.376224 197.268304 
L 521.723077 196.875671 
L 522.06993 197.268304 
L 522.416783 195.807346 
L 522.763636 198.555773 
L 523.11049 199.158418 
L 523.457343 202.372525 
L 523.804196 209.796017 
L 524.497902 207.659366 
L 524.844755 207.586318 
L 525.191608 207.851117 
L 525.538462 209.092931 
L 525.885315 208.262011 
L 526.579021 199.523657 
L 526.925874 198.400546 
L 527.272727 198.455332 
L 527.61958 200.573721 
L 527.966434 198.52838 
L 528.313287 200.509804 
L 528.66014 205.513584 
L 529.006993 205.705335 
L 529.353846 211.229581 
L 530.047552 205.139214 
L 530.394406 203.733042 
L 531.088112 206.280587 
L 531.434965 204.18046 
L 531.781818 205.230524 
L 532.475524 205.769252 
L 532.822378 206.673219 
L 533.169231 205.586632 
L 533.516084 206.024919 
L 533.862937 206.107098 
L 534.20979 206.426683 
L 534.556643 207.129769 
L 534.903497 205.467929 
L 535.25035 204.710057 
L 535.597203 204.554831 
L 535.944056 205.513584 
L 536.290909 204.892677 
L 536.637762 203.230838 
L 536.984615 202.500359 
L 537.331469 202.573407 
L 537.678322 204.618748 
L 538.025175 204.874415 
L 538.372028 206.86497 
L 539.065734 207.1389 
L 539.412587 199.879766 
L 539.759441 198.427939 
L 540.106294 198.327498 
L 540.453147 198.473594 
L 540.8 199.048846 
L 541.146853 204.993118 
L 541.493706 201.386378 
L 541.840559 201.477688 
L 542.187413 201.961631 
L 542.534266 201.998154 
L 542.881119 203.742173 
L 543.227972 204.764843 
L 543.574825 201.733356 
L 543.921678 200.929829 
L 544.268531 201.075925 
L 544.615385 204.500045 
L 544.962238 203.422588 
L 545.309091 204.061757 
L 545.655944 203.340409 
L 546.002797 204.892677 
L 546.34965 205.148345 
L 547.043357 207.248472 
L 547.39021 207.750676 
L 547.737063 197.377875 
L 548.083916 197.642674 
L 548.777622 199.395823 
L 549.124476 201.632915 
L 549.471329 204.783105 
L 550.165035 216.479899 
L 550.511888 225.720457 
L 551.205594 226.578769 
L 551.552448 228.213216 
L 551.899301 228.423228 
L 552.593007 229.482423 
L 552.93986 220.050114 
L 553.286713 218.516108 
L 553.633566 215.858991 
L 553.98042 202.372525 
L 554.327273 199.669753 
L 554.674126 200.308922 
L 555.020979 204.253508 
L 555.367832 206.919756 
L 556.061538 206.910625 
L 556.408392 205.732728 
L 556.755245 203.468243 
L 557.102098 203.422588 
L 557.448951 203.614339 
L 557.795804 205.029642 
L 558.142657 205.184869 
L 558.48951 205.540977 
L 558.836364 207.540663 
L 559.183217 204.216984 
L 559.53007 209.312074 
L 559.876923 210.307352 
L 560.223776 206.499731 
L 560.570629 206.801053 
L 560.917483 203.386064 
L 561.264336 205.531846 
L 561.958042 207.705021 
L 562.304895 208.335059 
L 562.651748 209.257288 
L 564.039161 221.438024 
L 564.386014 221.474548 
L 565.07972 222.451564 
L 565.426573 209.695576 
L 565.773427 208.590726 
L 566.12028 207.04759 
L 566.467133 208.262011 
L 567.160839 208.590726 
L 567.507692 209.229896 
L 567.854545 209.613397 
L 568.201399 215.082858 
L 568.548252 215.393311 
L 569.241958 217.575617 
L 569.588811 218.461323 
L 569.935664 218.799169 
L 570.282517 220.260127 
L 570.629371 223.574675 
L 570.976224 225.592623 
L 571.323077 237.59987 
L 571.66993 237.736834 
L 572.363636 237.727703 
L 572.71049 236.86026 
L 573.057343 235.19842 
L 573.404196 235.052324 
L 573.751049 222.159372 
L 574.097902 220.406223 
L 574.791608 219.995328 
L 575.138462 218.214786 
L 575.485315 217.456914 
L 575.832168 216.224231 
L 576.179021 216.03248 
L 576.525874 216.014218 
L 576.872727 215.65811 
L 577.566434 216.205969 
L 577.913287 216.48903 
L 578.606993 223.282483 
L 578.953846 227.290986 
L 579.300699 229.820269 
L 579.647552 230.267688 
L 579.994406 233.856165 
L 580.688112 234.422286 
L 581.034965 331.219871 
L 581.381818 331.840778 
L 581.728671 331.85904 
L 582.075524 335.045754 
L 582.422378 335.547958 
L 582.769231 335.547958 
L 583.116084 334.433978 
L 583.462937 333.831333 
L 584.503497 333.794809 
L 584.85035 334.050476 
L 585.197203 332.808662 
L 586.931469 332.781269 
L 587.278322 332.078183 
L 587.972028 332.078183 
L 588.318881 331.795123 
L 589.012587 329.768044 
L 591.440559 329.749782 
L 591.787413 327.750096 
L 592.134266 327.366595 
L 592.481119 326.782211 
L 593.174825 326.782211 
L 593.868531 326.380448 
L 594.215385 325.485611 
L 594.562238 279.812419 
L 595.255944 279.383262 
L 595.602797 277.803602 
L 595.94965 276.744407 
L 596.643357 276.041321 
L 596.99021 274.114683 
L 597.337063 274.123814 
L 597.683916 273.959456 
L 598.030769 273.922933 
L 598.377622 273.639872 
L 598.724476 272.480237 
L 599.418182 272.461975 
L 599.765035 271.393649 
L 600.111888 271.338863 
L 600.458741 271.055803 
L 601.499301 271.055803 
L 601.846154 268.535651 
L 602.193007 268.051708 
L 603.58042 268.079101 
L 603.927273 266.590751 
L 604.620979 266.572489 
L 604.967832 265.65939 
L 605.314685 265.421984 
L 605.661538 263.431429 
L 606.008392 222.332861 
L 606.702098 221.428893 
L 607.395804 219.73053 
L 607.742657 219.155277 
L 608.08951 219.164408 
L 608.436364 218.707859 
L 608.783217 218.71699 
L 609.13007 213.557983 
L 609.476923 210.891735 
L 609.823776 205.449667 
L 610.170629 204.125674 
L 610.517483 199.898028 
L 610.864336 199.286252 
L 611.211189 210.745639 
L 611.904895 210.161256 
L 612.251748 210.10647 
L 612.945455 203.002563 
L 613.639161 201.240283 
L 614.67972 196.839147 
L 615.026573 203.075611 
L 615.373427 202.116857 
L 615.72028 201.596391 
L 616.067133 199.888897 
L 616.760839 194.775544 
L 617.107692 194.812068 
L 617.801399 199.450609 
L 618.148252 199.980207 
L 618.495105 199.277121 
L 618.841958 199.17668 
L 619.188811 198.729261 
L 619.882517 196.610873 
L 620.923077 190.94053 
L 621.616783 189.46131 
L 621.963636 189.187381 
L 622.31049 189.625668 
L 622.657343 189.169119 
L 623.351049 190.20092 
L 623.697902 188.201234 
L 624.044755 188.511688 
L 624.391608 188.648653 
L 624.738462 189.479572 
L 625.085315 189.64393 
L 625.432168 207.202817 
L 626.125874 208.371583 
L 626.472727 210.097339 
L 626.81958 195.524285 
L 627.166434 188.310806 
L 627.513287 189.598275 
L 627.86014 179.727679 
L 628.206993 176.623144 
L 628.900699 176.486179 
L 629.247552 177.855827 
L 629.594406 183.526169 
L 629.941259 182.914393 
L 630.288112 181.161244 
L 630.634965 180.823398 
L 631.328671 178.796319 
L 631.675524 178.768926 
L 632.022378 176.221381 
L 632.369231 176.422262 
L 632.716084 178.011054 
L 633.062937 178.421948 
L 633.40979 179.070248 
L 633.756643 179.061117 
L 634.45035 173.354251 
L 634.797203 174.239957 
L 635.144056 175.883534 
L 635.490909 176.878812 
L 635.837762 177.381016 
L 636.184615 175.609604 
L 636.531469 177.207527 
L 636.878322 173.262941 
L 637.225175 173.865586 
L 637.572028 175.052614 
L 637.918881 173.098583 
L 638.265734 172.057651 
L 638.612587 172.085044 
L 638.959441 170.167537 
L 639.306294 170.75192 
L 639.653147 170.779313 
L 640 171.40022 
L 640.346853 170.496252 
L 640.693706 170.487121 
L 641.040559 168.478304 
L 641.387413 168.943985 
L 641.734266 167.848266 
L 642.427972 170.414073 
L 642.774825 170.28624 
L 643.121678 170.514514 
L 643.815385 161.255694 
L 644.162238 162.944927 
L 644.509091 161.821815 
L 644.855944 162.187055 
L 645.202797 160.716966 
L 645.54965 158.571184 
L 645.896503 159.146436 
L 646.243357 158.032456 
L 646.59021 164.396753 
L 646.937063 163.547572 
L 647.977622 162.433591 
L 648.324476 163.100153 
L 648.671329 163.328428 
L 649.018182 161.566148 
L 649.365035 164.031514 
L 649.711888 163.757584 
L 650.058741 162.990582 
L 650.405594 162.908403 
L 650.752448 160.945241 
L 651.099301 161.200908 
L 651.446154 159.694296 
L 651.793007 163.739322 
L 652.13986 163.99499 
L 652.486713 163.200594 
L 652.833566 163.538441 
L 653.18042 164.469801 
L 653.527273 180.631647 
L 653.874126 181.343864 
L 654.220979 180.969493 
L 654.567832 181.015148 
L 654.914685 180.366848 
L 655.261538 179.983347 
L 655.955245 187.105516 
L 656.302098 188.466033 
L 656.648951 187.297267 
L 656.995804 187.461624 
L 657.342657 187.781209 
L 657.68951 189.105202 
L 658.036364 189.233036 
L 658.383217 188.657784 
L 658.73007 188.301675 
L 659.076923 179.82812 
L 659.423776 180.147705 
L 659.770629 177.23492 
L 660.117483 176.951859 
L 660.464336 176.413131 
L 660.811189 177.006645 
L 661.158042 173.655573 
L 661.504895 175.837879 
L 661.851748 175.180448 
L 662.198601 179.435488 
L 662.545455 180.522075 
L 662.892308 184.8319 
L 663.239161 183.672265 
L 663.586014 183.078751 
L 663.932867 182.987441 
L 664.27972 187.196826 
L 664.626573 189.744371 
L 664.973427 189.744371 
L 665.32028 188.447771 
L 665.667133 188.155579 
L 666.013986 188.210365 
L 666.360839 190.127872 
L 666.707692 189.881336 
L 667.054545 190.365278 
L 667.401399 189.899598 
L 667.748252 188.90432 
L 668.095105 188.81301 
L 668.441958 190.063956 
L 668.788811 186.457216 
L 669.135664 186.95942 
L 669.482517 181.809544 
L 669.829371 181.453436 
L 670.176224 181.581269 
L 670.523077 182.530892 
L 670.86993 180.421634 
L 671.216783 180.622516 
L 671.563636 181.060803 
L 671.91049 185.142354 
L 672.257343 186.968551 
L 672.604196 186.886372 
L 672.951049 185.872833 
L 673.297902 186.082846 
L 673.644755 184.713198 
L 673.991608 186.274596 
L 674.338462 185.361498 
L 674.685315 184.914079 
L 675.032168 179.809858 
L 675.379021 179.873775 
L 675.725874 183.745313 
L 676.072727 182.028688 
L 676.41958 177.225789 
L 676.766434 178.604568 
L 677.113287 178.988069 
L 677.46014 176.075285 
L 678.153846 176.221381 
L 678.500699 181.279947 
L 678.847552 182.567416 
L 679.194406 192.921954 
L 679.541259 197.478316 
L 679.888112 192.04538 
L 680.234965 190.894875 
L 680.581818 193.615909 
L 680.928671 194.45596 
L 681.275524 193.999411 
L 681.622378 193.771136 
L 681.969231 193.80766 
L 682.316084 193.597647 
L 682.662937 194.930771 
L 683.00979 194.748151 
L 683.356643 196.711313 
L 683.703497 195.085998 
L 684.05035 194.757282 
L 684.397203 197.021767 
L 684.744056 196.629135 
L 685.090909 197.578757 
L 685.437762 194.784675 
L 685.784615 191.086626 
L 686.478322 187.680768 
L 686.825175 188.676046 
L 687.172028 188.62126 
L 687.518881 187.552934 
L 687.865734 187.41597 
L 688.212587 183.672265 
L 688.559441 189.452179 
L 688.906294 188.876927 
L 689.253147 188.895189 
L 689.6 188.392985 
L 689.946853 190.922268 
L 690.293706 182.540023 
L 690.640559 181.754758 
L 690.987413 181.444305 
L 691.681119 183.5353 
L 692.027972 183.845754 
L 692.374825 182.740905 
L 692.721678 183.663134 
L 693.068531 181.179506 
L 693.415385 180.312062 
L 693.762238 180.284669 
L 694.109091 177.14361 
L 694.802797 173.956896 
L 695.14965 175.326544 
L 695.496503 175.399592 
L 696.19021 185.160616 
L 696.537063 185.443677 
L 696.883916 186.968551 
L 697.230769 192.04538 
L 697.577622 194.976426 
L 697.924476 195.853001 
L 698.271329 196.300419 
L 698.618182 184.722329 
L 698.965035 184.722329 
L 699.311888 186.210679 
L 699.658741 186.046322 
L 700.005594 184.804508 
L 700.352448 185.434546 
L 700.699301 174.340397 
L 701.046154 173.363382 
L 701.393007 174.568672 
L 701.73986 173.883848 
L 702.086713 174.08473 
L 702.433566 175.043483 
L 702.78042 175.518295 
L 703.127273 180.321193 
L 703.474126 179.928561 
L 703.820979 178.074971 
L 704.514685 177.499719 
L 705.208392 177.855827 
L 705.555245 177.837565 
L 705.902098 177.23492 
L 706.248951 177.426671 
L 706.595804 177.335361 
L 707.28951 176.49531 
L 707.636364 176.559227 
L 707.983217 175.025221 
L 708.33007 175.134793 
L 708.676923 174.64172 
L 709.023776 176.111809 
L 709.717483 176.367476 
L 710.064336 176.851419 
L 710.411189 175.527426 
L 710.758042 181.654317 
L 711.104895 182.375665 
L 711.451748 181.334733 
L 711.798601 181.325602 
L 712.145455 183.407467 
L 712.492308 183.170061 
L 712.839161 182.028688 
L 713.186014 182.914393 
L 713.532867 187.97296 
L 713.87972 191.278377 
L 714.573427 193.040657 
L 714.92028 199.331907 
L 715.267133 199.194942 
L 715.613986 201.715094 
L 715.960839 201.86119 
L 716.654545 200.098909 
L 717.348252 190.00917 
L 718.041958 188.694308 
L 718.388811 188.548212 
L 719.082517 180.75035 
L 719.429371 180.905576 
L 719.776224 180.677302 
L 720.123077 185.516724 
L 720.46993 185.224533 
L 720.816783 187.205957 
L 721.163636 190.264837 
L 721.51049 200.646769 
L 721.857343 202.97517 
L 722.204196 201.550736 
L 722.551049 189.598275 
L 722.897902 189.123464 
L 723.244755 188.949975 
L 723.591608 190.557029 
L 723.938462 184.658412 
L 724.285315 181.873461 
L 724.632168 181.343864 
L 724.979021 181.225161 
L 725.672727 183.754444 
L 726.366434 184.621888 
L 726.713287 185.735868 
L 727.06014 192.821513 
L 727.406993 193.259801 
L 727.753846 193.031526 
L 728.100699 201.505081 
L 729.141259 202.546014 
L 729.488112 209.869065 
L 730.181818 210.544758 
L 730.528671 213.914091 
L 730.875524 213.466673 
L 731.569231 213.220136 
L 731.916084 197.268304 
L 732.262937 196.556087 
L 732.956643 196.373467 
L 733.303497 194.930771 
L 733.65035 194.930771 
L 733.997203 193.44242 
L 734.344056 192.903692 
L 734.690909 191.734926 
L 735.037762 187.717292 
L 735.384615 186.621574 
L 735.731469 186.968551 
L 736.078322 186.128501 
L 736.425175 187.059861 
L 736.772028 186.21981 
L 737.118881 187.598589 
L 737.465734 184.539709 
L 737.812587 186.639836 
L 738.159441 190.045694 
L 738.506294 190.812696 
L 738.853147 192.821513 
L 739.2 193.287194 
L 739.546853 187.543803 
L 739.893706 187.279005 
L 740.240559 187.187695 
L 740.587413 191.12315 
L 740.934266 190.374409 
L 741.281119 191.488389 
L 741.627972 190.137003 
L 741.974825 190.401802 
L 742.321678 186.58505 
L 742.668531 193.013264 
L 743.015385 189.534358 
L 743.362238 187.251612 
L 744.055944 187.489017 
L 744.402797 186.913765 
L 744.74965 190.054825 
L 745.096503 200.29066 
L 745.443357 198.464463 
L 745.79021 197.724853 
L 746.137063 195.305142 
L 746.483916 195.268618 
L 746.830769 192.054511 
L 747.177622 191.177936 
L 747.524476 183.80923 
L 747.871329 183.708789 
L 748.218182 184.968865 
L 748.911888 185.690213 
L 749.258741 187.379446 
L 749.605594 185.818047 
L 749.952448 185.324974 
L 750.299301 184.567102 
L 750.646154 188.329068 
L 750.993007 185.93675 
L 751.33986 187.589458 
L 751.686713 187.470755 
L 752.033566 184.795377 
L 752.38042 185.772392 
L 752.727273 186.192417 
L 753.074126 188.301675 
L 753.420979 188.721701 
L 754.114685 187.991222 
L 754.461538 184.128815 
L 754.808392 183.964457 
L 755.502098 188.676046 
L 755.848951 188.429509 
L 756.195804 186.046322 
L 756.542657 186.146762 
L 756.88951 186.804193 
L 757.236364 186.95942 
L 757.583217 188.392985 
L 757.93007 185.900226 
L 758.276923 186.018929 
L 758.623776 185.75413 
L 758.970629 185.306712 
L 759.317483 185.553248 
L 759.664336 185.598903 
L 760.011189 184.859293 
L 760.358042 185.690213 
L 760.704895 186.073715 
L 761.398601 187.982091 
L 761.745455 188.055139 
L 762.092308 184.813639 
L 762.786014 184.795377 
L 763.132867 187.315529 
L 763.47972 187.717292 
L 763.826573 186.31112 
L 764.173427 180.047264 
L 764.52028 176.869681 
L 764.867133 172.614641 
L 765.213986 173.272072 
L 765.560839 171.436744 
L 765.907692 171.263255 
L 766.254545 168.551352 
L 766.601399 168.496566 
L 766.948252 171.162814 
L 767.295105 171.171945 
L 767.641958 171.555447 
L 767.988811 170.806706 
L 768.335664 167.756956 
L 768.682517 167.044739 
L 769.029371 167.464765 
L 769.376224 168.551352 
L 769.723077 167.501289 
L 770.06993 163.282773 
L 770.416783 163.492786 
L 770.763636 161.018289 
L 771.11049 163.200594 
L 771.457343 163.565834 
L 771.804196 161.246563 
L 772.151049 162.497508 
L 772.497902 162.862748 
L 772.844755 160.607394 
L 773.191608 166.524273 
L 773.538462 159.721689 
L 773.885315 162.944927 
L 774.232168 167.939576 
L 774.579021 169.884476 
L 774.925874 170.852361 
L 775.272727 168.259161 
L 775.61958 163.310166 
L 775.966434 163.081891 
L 776.313287 164.159348 
L 776.66014 164.287182 
L 777.353846 164.122824 
L 777.700699 164.415015 
L 778.047552 163.173201 
L 778.394406 164.296313 
L 778.741259 158.361172 
L 779.088112 156.982393 
L 779.781818 164.278051 
L 780.128671 162.342282 
L 780.475524 162.51577 
L 780.822378 160.963503 
L 781.169231 162.853617 
L 781.516084 162.753176 
L 781.862937 162.771438 
L 782.20979 166.615583 
L 782.556643 163.456262 
L 783.25035 162.524901 
L 783.597203 162.871879 
L 783.944056 162.32402 
L 784.637762 160.543477 
L 784.984615 160.671311 
L 785.331469 159.959094 
L 785.678322 161.903994 
L 786.372028 162.935796 
L 787.065734 162.013566 
L 787.412587 163.90368 
L 787.759441 161.164384 
L 788.106294 161.301349 
L 788.453147 160.835669 
L 788.8 160.835669 
L 789.146853 156.407141 
L 789.493706 155.576221 
L 789.840559 158.680756 
L 790.187413 157.338501 
L 790.534266 157.722003 
L 790.881119 157.731134 
L 791.227972 162.871879 
L 791.574825 161.557017 
L 791.921678 159.648641 
L 792.268531 159.09165 
L 792.615385 159.173829 
L 792.962238 158.99121 
L 793.309091 152.763877 
L 793.655944 153.266081 
L 794.002797 155.320553 
L 794.34965 163.438 
L 794.696503 164.022383 
L 795.043357 163.921942 
L 795.39021 161.301349 
L 796.083916 161.073074 
L 796.430769 159.146436 
L 797.124476 160.470429 
L 797.471329 163.511048 
L 797.818182 164.661552 
L 798.165035 165.264197 
L 798.511888 167.437372 
L 798.858741 170.943671 
L 799.205594 177.116217 
L 799.552448 180.576861 
L 799.899301 180.668171 
L 800.246154 180.932969 
L 800.593007 182.60394 
L 800.93986 182.941786 
L 801.286713 183.544431 
L 801.633566 183.854885 
L 802.327273 189.561751 
L 802.674126 190.666601 
L 803.020979 192.401488 
L 803.367832 195.058605 
L 803.714685 195.067736 
L 804.061538 195.770822 
L 804.408392 233.819641 
L 804.755245 235.691493 
L 805.102098 236.924177 
L 805.795804 237.015486 
L 806.142657 237.024617 
L 806.48951 237.819013 
L 806.836364 241.909695 
L 807.876923 241.927957 
L 808.223776 241.188347 
L 809.264336 241.142692 
L 810.304895 241.115299 
L 810.651748 241.087906 
L 810.998601 239.937402 
L 811.345455 237.006355 
L 811.692308 231.299489 
L 812.039161 190.38354 
L 812.386014 190.191789 
L 812.732867 188.100794 
L 813.07972 177.682338 
L 813.426573 174.048206 
L 813.773427 169.217914 
L 814.12028 166.469487 
L 814.467133 166.332522 
L 814.813986 164.305444 
L 815.160839 163.538441 
L 815.854545 163.154939 
L 816.201399 163.127546 
L 816.548252 162.552294 
L 816.895105 167.05387 
L 817.241958 167.492158 
L 817.588811 166.21382 
L 817.935664 170.29537 
L 818.282517 170.231454 
L 818.629371 170.29537 
L 818.976224 169.930131 
L 819.323077 165.410293 
L 819.66993 165.638568 
L 820.016783 167.035608 
L 820.363636 173.564264 
L 821.057343 167.610861 
L 821.404196 168.012624 
L 821.751049 167.766087 
L 822.097902 171.044111 
L 822.444755 171.555447 
L 822.791608 160.780883 
L 823.138462 164.305444 
L 823.485315 164.378491 
L 823.832168 164.999399 
L 824.525874 166.49688 
L 824.872727 165.812056 
L 825.21958 168.962247 
L 825.566434 168.925723 
L 825.913287 169.062687 
L 826.26014 171.710673 
L 826.606993 171.847638 
L 826.953846 170.697134 
L 827.300699 173.536871 
L 827.647552 173.080321 
L 827.994406 173.007273 
L 828.341259 173.07119 
L 828.688112 172.486807 
L 829.381818 171.829376 
L 829.728671 168.560483 
L 830.422378 170.496252 
L 830.769231 168.368732 
L 831.116084 171.464137 
L 831.462937 176.303559 
L 831.80979 174.742161 
L 832.156643 175.56395 
L 832.503497 175.171317 
L 832.85035 165.985545 
L 833.544056 164.898958 
L 833.890909 166.314261 
L 834.237762 159.447759 
L 834.584615 158.132897 
L 834.931469 160.972634 
L 835.278322 159.109912 
L 835.625175 159.721689 
L 835.972028 158.479874 
L 836.665734 161.67572 
L 837.012587 160.552608 
L 837.706294 155.411863 
L 838.053147 155.585352 
L 838.746853 160.552608 
L 839.093706 161.12786 
L 839.440559 159.256008 
L 839.787413 160.863062 
L 840.134266 150.143284 
L 840.481119 149.887616 
L 840.827972 150.517654 
L 841.174825 150.654619 
L 841.521678 156.425403 
L 841.868531 151.522063 
L 842.562238 147.467905 
L 843.602797 148.983649 
L 843.94965 150.115891 
L 844.296503 150.261987 
L 844.643357 146.408711 
L 844.99021 150.946811 
L 845.337063 150.115891 
L 845.683916 151.284657 
L 846.030769 151.019859 
L 846.377622 149.860223 
L 846.724476 150.946811 
L 847.071329 155.29316 
L 847.765035 158.461612 
L 848.111888 158.306386 
L 848.458741 155.950591 
L 848.805594 154.672253 
L 849.152448 154.818349 
L 849.499301 154.818349 
L 849.846154 154.955314 
L 850.53986 156.023639 
L 850.886713 153.667845 
L 851.233566 154.535288 
L 851.58042 154.307014 
L 851.927273 154.352669 
L 852.274126 155.676662 
L 852.967832 157.037179 
L 853.314685 158.361172 
L 853.661538 157.311108 
L 854.008392 159.310794 
L 854.355245 159.867784 
L 854.702098 155.347946 
L 855.048951 154.453109 
L 855.395804 154.937052 
L 855.742657 155.019231 
L 856.08951 159.301663 
L 856.783217 156.699332 
L 857.13007 158.050718 
L 857.476923 156.982393 
L 858.170629 156.197128 
L 858.517483 154.507895 
L 858.864336 154.55355 
L 859.211189 155.29316 
L 859.558042 151.704683 
L 859.904895 155.019231 
L 860.251748 152.645174 
L 860.598601 153.101724 
L 860.945455 152.928235 
L 861.292308 154.078739 
L 861.639161 156.261045 
L 861.986014 151.366836 
L 862.332867 149.568032 
L 862.67972 148.855815 
L 863.026573 148.53623 
L 863.373427 152.079053 
L 863.72028 153.686107 
L 864.067133 154.763563 
L 864.413986 156.562367 
L 864.760839 156.781511 
L 865.107692 167.072132 
L 866.148252 176.321821 
L 866.495105 176.951859 
L 866.841958 177.088824 
L 867.535664 178.485865 
L 867.882517 186.247203 
L 868.576224 186.31112 
L 868.923077 187.005075 
L 869.26993 186.566788 
L 869.616783 186.566788 
L 869.963636 185.945881 
L 870.31049 179.234606 
L 870.657343 177.298837 
L 871.004196 176.075285 
L 871.351049 175.956582 
L 871.697902 180.248145 
L 872.044755 179.535928 
L 872.391608 180.257276 
L 872.738462 179.745941 
L 873.085315 177.390147 
L 873.432168 178.759795 
L 873.779021 178.631961 
L 874.125874 178.887628 
L 874.472727 175.627866 
L 874.81958 170.907147 
L 875.166434 178.641092 
L 875.513287 179.55419 
L 876.206993 180.056395 
L 876.553846 180.768612 
L 876.900699 179.435488 
L 877.247552 179.755072 
L 877.594406 187.717292 
L 877.941259 189.26956 
L 878.288112 192.036249 
L 878.634965 191.287508 
L 878.981818 191.360556 
L 879.328671 189.82655 
L 879.675524 189.653061 
L 880.022378 190.885744 
L 880.369231 193.058919 
L 880.716084 190.575291 
L 881.062937 190.958792 
L 881.40979 195.743429 
L 881.756643 190.255706 
L 882.103497 189.64393 
L 882.45035 191.378818 
L 882.797203 191.616223 
L 883.144056 193.031526 
L 883.490909 189.169119 
L 883.837762 190.502243 
L 884.184615 190.027432 
L 884.531469 190.228313 
L 884.878322 187.461624 
L 885.225175 187.589458 
L 885.572028 187.589458 
L 885.918881 187.762947 
L 886.265734 186.31112 
L 886.959441 188.520819 
L 887.306294 188.867796 
L 888 178.367162 
L 888.346853 179.499405 
L 888.693706 179.27113 
L 889.040559 181.416912 
L 889.387413 182.740905 
L 889.734266 182.339141 
L 890.081119 182.613071 
L 890.427972 179.344178 
L 890.774825 183.425729 
L 891.121678 183.909671 
L 891.468531 182.065212 
L 891.815385 177.855827 
L 892.162238 177.50885 
L 892.855944 180.138574 
L 893.202797 179.097641 
L 893.54965 177.490588 
L 893.896503 175.171317 
L 894.59021 182.275224 
L 894.937063 181.782151 
L 895.630769 178.969807 
L 895.977622 179.070248 
L 896.324476 180.622516 
L 896.671329 183.334419 
L 897.018182 188.484295 
L 897.365035 191.059233 
L 898.058741 189.936122 
L 898.405594 189.607406 
L 898.752448 190.949661 
L 899.099301 189.680454 
L 899.446154 189.963515 
L 899.793007 189.214774 
L 900.13986 189.26956 
L 900.486713 188.959106 
L 900.833566 189.936122 
L 901.18042 189.653061 
L 901.874126 188.319937 
L 902.220979 188.146448 
L 902.567832 190.219182 
L 902.914685 191.597961 
L 903.261538 191.150543 
L 903.608392 191.369687 
L 903.955245 192.081903 
L 904.302098 191.871891 
L 904.995804 188.502557 
L 905.68951 191.49752 
L 906.383217 194.501615 
L 906.73007 192.638894 
L 907.076923 184.128815 
L 907.423776 184.393613 
L 907.770629 181.499091 
L 908.117483 181.079065 
L 908.464336 180.175098 
L 908.811189 180.184229 
L 909.158042 179.462881 
L 909.504895 178.011054 
L 909.851748 178.896759 
L 910.198601 178.851105 
L 910.545455 177.097955 
L 910.892308 176.193988 
L 911.239161 176.614013 
L 911.586014 176.477048 
L 911.932867 179.015462 
L 912.27972 179.581583 
L 912.626573 183.453122 
L 912.973427 184.165338 
L 913.32028 184.238386 
L 913.667133 190.830958 
L 914.013986 190.922268 
L 914.360839 195.19557 
L 914.707692 191.278377 
L 915.054545 190.127872 
L 915.748252 178.275852 
L 916.095105 177.043169 
L 916.441958 176.915335 
L 916.788811 171.327172 
L 917.135664 171.473268 
L 917.829371 171.555447 
L 918.176224 173.682966 
L 918.523077 171.838507 
L 918.86993 173.290334 
L 919.216783 173.399906 
L 919.563636 171.710673 
L 920.604196 168.076541 
L 920.951049 168.779627 
L 921.644755 171.007587 
L 921.991608 174.404314 
L 922.338462 174.842602 
L 922.685315 175.965713 
L 923.379021 159.812998 
L 923.725874 159.557331 
L 924.072727 163.666275 
L 924.41958 163.310166 
L 924.766434 167.747825 
L 925.113287 162.908403 
L 925.46014 160.28781 
L 926.153846 162.150531 
L 926.847552 169.601416 
L 927.194406 170.277109 
L 927.541259 172.158092 
L 927.888112 172.04852 
L 928.234965 175.326544 
L 928.581818 173.546002 
L 928.928671 173.600787 
L 929.275524 174.468231 
L 929.622378 174.36779 
L 929.969231 173.600787 
L 930.316084 172.002865 
L 930.662937 172.5142 
L 931.00979 173.354251 
L 931.356643 171.902424 
L 931.703497 172.715082 
L 932.05035 173.847324 
L 932.397203 174.404314 
L 932.744056 170.523645 
L 933.090909 171.436744 
L 933.437762 171.564578 
L 933.784615 172.760737 
L 934.131469 172.559855 
L 934.478322 172.075913 
L 934.825175 165.629437 
L 935.172028 166.350784 
L 935.865734 174.27648 
L 936.212587 175.545688 
L 936.559441 177.298837 
L 936.906294 177.454064 
L 937.253147 181.5904 
L 937.6 181.462567 
L 937.946853 182.905262 
L 938.987413 190.429195 
L 939.334266 191.488389 
L 939.681119 191.342294 
L 940.027972 191.040971 
L 940.374825 194.492484 
L 940.721678 195.369059 
L 941.415385 198.829702 
L 941.762238 198.519249 
L 942.109091 200.75634 
L 942.455944 200.893305 
L 942.802797 204.947463 
L 943.14965 203.422588 
L 943.496503 205.705335 
L 943.843357 186.86811 
L 944.19021 183.937064 
L 944.537063 183.964457 
L 944.883916 178.248459 
L 945.230769 177.572766 
L 945.577622 175.235234 
L 945.924476 177.381016 
L 946.271329 180.549468 
L 946.618182 181.946509 
L 947.311888 182.896131 
L 947.658741 186.457216 
L 948.005594 186.630705 
L 948.699301 187.936436 
L 949.046154 192.784989 
L 949.393007 193.168491 
L 949.73986 193.862446 
L 950.086713 195.131653 
L 950.78042 193.707219 
L 951.127273 194.501615 
L 951.474126 196.327812 
L 951.820979 196.428253 
L 952.167832 199.468871 
L 952.861538 199.624098 
L 953.208392 200.245005 
L 954.248951 204.399604 
L 954.942657 204.372211 
L 955.28951 204.463521 
L 955.636364 203.230838 
L 955.983217 207.568056 
L 956.33007 209.111193 
L 957.023776 209.932981 
L 958.064336 212.425741 
L 958.411189 212.434872 
L 958.758042 212.654015 
L 959.104895 215.018941 
L 959.451748 226.423542 
L 960.492308 227.656226 
L 960.839161 228.761075 
L 961.186014 232.596089 
L 961.532867 232.742185 
L 961.87972 236.549806 
L 962.573427 236.924177 
L 962.92028 237.380726 
L 963.267133 238.239039 
L 963.960839 238.631671 
L 964.307692 241.617503 
L 964.654545 241.781861 
L 965.695105 243.288474 
L 966.041958 243.964167 
L 966.388811 244.165049 
L 966.735664 245.699054 
L 967.082517 244.411585 
L 967.429371 245.315553 
L 968.123077 253.597357 
L 968.816783 256.984953 
L 969.163636 264.527148 
L 970.204196 264.609327 
L 970.551049 265.202841 
L 970.897902 267.567766 
L 971.591608 268.179542 
L 971.938462 271.092327 
L 972.285315 272.270224 
L 972.632168 275.064306 
L 973.325874 277.69403 
L 973.672727 278.205365 
L 974.01958 279.027154 
L 974.366434 279.091071 
L 974.713287 289.783456 
L 975.06014 289.847372 
L 975.406993 293.034087 
L 975.753846 293.645863 
L 976.100699 293.700649 
L 976.447552 294.695926 
L 976.794406 294.942463 
L 977.141259 295.052035 
L 977.488112 296.522123 
L 977.834965 297.480877 
L 978.181818 299.297943 
L 980.262937 300.092339 
L 980.60979 300.466709 
L 980.956643 303.269922 
L 981.303497 303.406887 
L 981.65035 306.456636 
L 981.997203 306.529684 
L 982.690909 307.406259 
L 983.037762 307.625403 
L 983.384615 309.625088 
L 983.731469 309.670743 
L 984.078322 310.519925 
L 984.425175 310.574711 
L 984.772028 312.145241 
L 985.118881 317.642094 
L 985.465734 320.335735 
L 986.159441 320.792285 
L 986.506294 321.659728 
L 986.853147 322.225849 
L 987.2 326.444365 
L 987.546853 326.508282 
L 987.893706 327.13832 
L 988.240559 327.165713 
L 988.587413 327.348333 
L 988.934266 328.626671 
L 989.281119 329.119744 
L 989.627972 329.284102 
L 989.974825 329.749782 
L 990.321678 330.023712 
L 991.709091 332.215148 
L 992.402797 334.507026 
L 992.74965 335.00923 
L 993.096503 335.785364 
L 993.443357 335.904067 
L 993.79021 336.661939 
L 994.137063 336.707593 
L 994.483916 337.200667 
L 994.830769 341.181777 
L 995.177622 342.186185 
L 995.524476 342.341412 
L 995.871329 343.80237 
L 996.218182 369.36 
L 996.218182 369.36 
" clip-path="url(#pe02477274d)" style="fill: none; stroke: #1f77b4; stroke-width: 1.5; stroke-linecap: square"/>
   </g>
   <g id="line2d_14">
    <path d="M 184.581818 349.573153 
L 996.218182 349.573153 
L 996.218182 349.573153 
" clip-path="url(#pe02477274d)" style="fill: none; stroke-dasharray: 5.55,2.4; stroke-dashoffset: 0; stroke: #ff7f0e; stroke-width: 1.5"/>
   </g>
   <g id="line2d_15">
    <path d="M 184.581818 208.262011 
L 996.218182 208.262011 
L 996.218182 208.262011 
" clip-path="url(#pe02477274d)" style="fill: none; stroke-dasharray: 5.55,2.4; stroke-dashoffset: 0; stroke: #2ca02c; stroke-width: 1.5"/>
   </g>
   <g id="line2d_16">
    <path d="M 184.581818 66.96 
L 996.218182 66.96 
L 996.218182 66.96 
" clip-path="url(#pe02477274d)" style="fill: none; stroke-dasharray: 5.55,2.4; stroke-dashoffset: 0; stroke: #d62728; stroke-width: 1.5"/>
   </g>
   <g id="patch_3">
    <path d="M 144 384.48 
L 144 51.84 
" style="fill: none; stroke: #000000; stroke-width: 0.8; stroke-linejoin: miter; stroke-linecap: square"/>
   </g>
   <g id="patch_4">
    <path d="M 1036.8 384.48 
L 1036.8 51.84 
" style="fill: none; stroke: #000000; stroke-width: 0.8; stroke-linejoin: miter; stroke-linecap: square"/>
   </g>
   <g id="patch_5">
    <path d="M 144 384.48 
L 1036.8 384.48 
" style="fill: none; stroke: #000000; stroke-width: 0.8; stroke-linejoin: miter; stroke-linecap: square"/>
   </g>
   <g id="patch_6">
    <path d="M 144 51.84 
L 1036.8 51.84 
" style="fill: none; stroke: #000000; stroke-width: 0.8; stroke-linejoin: miter; stroke-linecap: square"/>
   </g>
   <g id="text_15">
    <!-- PB1 -->
    <g transform="translate(578.848125 45.84)scale(0.12 -0.12)">
     <defs>
      <path id="DejaVuSans-42" d="M 1259 2228 
L 1259 519 
L 2272 519 
Q 2781 519 3026 730 
Q 3272 941 3272 1375 
Q 3272 1813 3026 2020 
Q 2781 2228 2272 2228 
L 1259 2228 
z
M 1259 4147 
L 1259 2741 
L 2194 2741 
Q 2656 2741 2882 2914 
Q 3109 3088 3109 3444 
Q 3109 3797 2882 3972 
Q 2656 4147 2194 4147 
L 1259 4147 
z
M 628 4666 
L 2241 4666 
Q 2963 4666 3353 4366 
Q 3744 4066 3744 3513 
Q 3744 3084 3544 2831 
Q 3344 2578 2956 2516 
Q 3422 2416 3680 2098 
Q 3938 1781 3938 1306 
Q 3938 681 3513 340 
Q 3088 0 2303 0 
L 628 0 
L 628 4666 
z
" transform="scale(0.015625)"/>
     </defs>
     <use xlink:href="#DejaVuSans-50"/>
     <use xlink:href="#DejaVuSans-42" x="60.302734"/>
     <use xlink:href="#DejaVuSans-31" x="128.90625"/>
    </g>
   </g>
   <g id="legend_1">
    <g id="patch_7">
     <path d="M 146 28.936045 
L 1034.8 28.936045 
Q 1036.8 28.936045 1036.8 26.936045 
L 1036.8 13.25792 
Q 1036.8 11.25792 1034.8 11.25792 
L 146 11.25792 
Q 144 11.25792 144 13.25792 
L 144 26.936045 
Q 144 28.936045 146 28.936045 
z
" style="fill: #ffffff; opacity: 0.8; stroke: #cccccc; stroke-linejoin: miter"/>
    </g>
    <g id="line2d_17">
     <path d="M 148 19.356358 
L 158 19.356358 
L 168 19.356358 
" style="fill: none; stroke-dasharray: 5.55,2.4; stroke-dashoffset: 0; stroke: #ff7f0e; stroke-width: 1.5"/>
    </g>
    <g id="text_16">
     <!-- Average depth * 0.2 -->
     <g transform="translate(176 22.856358)scale(0.1 -0.1)">
      <defs>
       <path id="DejaVuSans-41" d="M 2188 4044 
L 1331 1722 
L 3047 1722 
L 2188 4044 
z
M 1831 4666 
L 2547 4666 
L 4325 0 
L 3669 0 
L 3244 1197 
L 1141 1197 
L 716 0 
L 50 0 
L 1831 4666 
z
" transform="scale(0.015625)"/>
       <path id="DejaVuSans-64" d="M 2906 2969 
L 2906 4863 
L 3481 4863 
L 3481 0 
L 2906 0 
L 2906 525 
Q 2725 213 2448 61 
Q 2172 -91 1784 -91 
Q 1150 -91 751 415 
Q 353 922 353 1747 
Q 353 2572 751 3078 
Q 1150 3584 1784 3584 
Q 2172 3584 2448 3432 
Q 2725 3281 2906 2969 
z
M 947 1747 
Q 947 1113 1208 752 
Q 1469 391 1925 391 
Q 2381 391 2643 752 
Q 2906 1113 2906 1747 
Q 2906 2381 2643 2742 
Q 2381 3103 1925 3103 
Q 1469 3103 1208 2742 
Q 947 2381 947 1747 
z
" transform="scale(0.015625)"/>
       <path id="DejaVuSans-2a" d="M 3009 3897 
L 1888 3291 
L 3009 2681 
L 2828 2375 
L 1778 3009 
L 1778 1831 
L 1422 1831 
L 1422 3009 
L 372 2375 
L 191 2681 
L 1313 3291 
L 191 3897 
L 372 4206 
L 1422 3572 
L 1422 4750 
L 1778 4750 
L 1778 3572 
L 2828 4206 
L 3009 3897 
z
" transform="scale(0.015625)"/>
       <path id="DejaVuSans-2e" d="M 684 794 
L 1344 794 
L 1344 0 
L 684 0 
L 684 794 
z
" transform="scale(0.015625)"/>
      </defs>
      <use xlink:href="#DejaVuSans-41"/>
      <use xlink:href="#DejaVuSans-76" x="62.533203"/>
      <use xlink:href="#DejaVuSans-65" x="121.712891"/>
      <use xlink:href="#DejaVuSans-72" x="183.236328"/>
      <use xlink:href="#DejaVuSans-61" x="224.349609"/>
      <use xlink:href="#DejaVuSans-67" x="285.628906"/>
      <use xlink:href="#DejaVuSans-65" x="349.105469"/>
      <use xlink:href="#DejaVuSans-20" x="410.628906"/>
      <use xlink:href="#DejaVuSans-64" x="442.416016"/>
      <use xlink:href="#DejaVuSans-65" x="505.892578"/>
      <use xlink:href="#DejaVuSans-70" x="567.416016"/>
      <use xlink:href="#DejaVuSans-74" x="630.892578"/>
      <use xlink:href="#DejaVuSans-68" x="670.101562"/>
      <use xlink:href="#DejaVuSans-20" x="733.480469"/>
      <use xlink:href="#DejaVuSans-2a" x="765.267578"/>
      <use xlink:href="#DejaVuSans-20" x="815.267578"/>
      <use xlink:href="#DejaVuSans-30" x="847.054688"/>
      <use xlink:href="#DejaVuSans-2e" x="910.677734"/>
      <use xlink:href="#DejaVuSans-32" x="942.464844"/>
     </g>
    </g>
    <g id="line2d_18">
     <path d="M 539.724219 19.356358 
L 549.724219 19.356358 
L 559.724219 19.356358 
" style="fill: none; stroke-dasharray: 5.55,2.4; stroke-dashoffset: 0; stroke: #2ca02c; stroke-width: 1.5"/>
    </g>
    <g id="text_17">
     <!-- Average depth -->
     <g transform="translate(567.724219 22.856358)scale(0.1 -0.1)">
      <use xlink:href="#DejaVuSans-41"/>
      <use xlink:href="#DejaVuSans-76" x="62.533203"/>
      <use xlink:href="#DejaVuSans-65" x="121.712891"/>
      <use xlink:href="#DejaVuSans-72" x="183.236328"/>
      <use xlink:href="#DejaVuSans-61" x="224.349609"/>
      <use xlink:href="#DejaVuSans-67" x="285.628906"/>
      <use xlink:href="#DejaVuSans-65" x="349.105469"/>
      <use xlink:href="#DejaVuSans-20" x="410.628906"/>
      <use xlink:href="#DejaVuSans-64" x="442.416016"/>
      <use xlink:href="#DejaVuSans-65" x="505.892578"/>
      <use xlink:href="#DejaVuSans-70" x="567.416016"/>
      <use xlink:href="#DejaVuSans-74" x="630.892578"/>
      <use xlink:href="#DejaVuSans-68" x="670.101562"/>
     </g>
    </g>
    <g id="line2d_19">
     <path d="M 904.189062 19.356358 
L 914.189062 19.356358 
L 924.189062 19.356358 
" style="fill: none; stroke-dasharray: 5.55,2.4; stroke-dashoffset: 0; stroke: #d62728; stroke-width: 1.5"/>
    </g>
    <g id="text_18">
     <!-- Average depth * 1.8 -->
     <g transform="translate(932.189062 22.856358)scale(0.1 -0.1)">
      <defs>
       <path id="DejaVuSans-38" d="M 2034 2216 
Q 1584 2216 1326 1975 
Q 1069 1734 1069 1313 
Q 1069 891 1326 650 
Q 1584 409 2034 409 
Q 2484 409 2743 651 
Q 3003 894 3003 1313 
Q 3003 1734 2745 1975 
Q 2488 2216 2034 2216 
z
M 1403 2484 
Q 997 2584 770 2862 
Q 544 3141 544 3541 
Q 544 4100 942 4425 
Q 1341 4750 2034 4750 
Q 2731 4750 3128 4425 
Q 3525 4100 3525 3541 
Q 3525 3141 3298 2862 
Q 3072 2584 2669 2484 
Q 3125 2378 3379 2068 
Q 3634 1759 3634 1313 
Q 3634 634 3220 271 
Q 2806 -91 2034 -91 
Q 1263 -91 848 271 
Q 434 634 434 1313 
Q 434 1759 690 2068 
Q 947 2378 1403 2484 
z
M 1172 3481 
Q 1172 3119 1398 2916 
Q 1625 2713 2034 2713 
Q 2441 2713 2670 2916 
Q 2900 3119 2900 3481 
Q 2900 3844 2670 4047 
Q 2441 4250 2034 4250 
Q 1625 4250 1398 4047 
Q 1172 3844 1172 3481 
z
" transform="scale(0.015625)"/>
      </defs>
      <use xlink:href="#DejaVuSans-41"/>
      <use xlink:href="#DejaVuSans-76" x="62.533203"/>
      <use xlink:href="#DejaVuSans-65" x="121.712891"/>
      <use xlink:href="#DejaVuSans-72" x="183.236328"/>
      <use xlink:href="#DejaVuSans-61" x="224.349609"/>
      <use xlink:href="#DejaVuSans-67" x="285.628906"/>
      <use xlink:href="#DejaVuSans-65" x="349.105469"/>
      <use xlink:href="#DejaVuSans-20" x="410.628906"/>
      <use xlink:href="#DejaVuSans-64" x="442.416016"/>
      <use xlink:href="#DejaVuSans-65" x="505.892578"/>
      <use xlink:href="#DejaVuSans-70" x="567.416016"/>
      <use xlink:href="#DejaVuSans-74" x="630.892578"/>
      <use xlink:href="#DejaVuSans-68" x="670.101562"/>
      <use xlink:href="#DejaVuSans-20" x="733.480469"/>
      <use xlink:href="#DejaVuSans-2a" x="765.267578"/>
      <use xlink:href="#DejaVuSans-20" x="815.267578"/>
      <use xlink:href="#DejaVuSans-31" x="847.054688"/>
      <use xlink:href="#DejaVuSans-2e" x="910.677734"/>
      <use xlink:href="#DejaVuSans-38" x="942.464844"/>
     </g>
    </g>
   </g>
  </g>
 </g>
 <defs>
  <clipPath id="pe02477274d">
   <rect x="144" y="51.84" width="892.8" height="332.64"/>
  </clipPath>
 </defs>
</svg>
