<?xml version="1.0" encoding="utf-8" standalone="no"?>
<!DOCTYPE svg PUBLIC "-//W3C//DTD SVG 1.1//EN"
  "http://www.w3.org/Graphics/SVG/1.1/DTD/svg11.dtd">
<svg xmlns:xlink="http://www.w3.org/1999/xlink" width="1152pt" height="432pt" viewBox="0 0 1152 432" xmlns="http://www.w3.org/2000/svg" version="1.1">
 <metadata>
  <rdf:RDF xmlns:dc="http://purl.org/dc/elements/1.1/" xmlns:cc="http://creativecommons.org/ns#" xmlns:rdf="http://www.w3.org/1999/02/22-rdf-syntax-ns#">
   <cc:Work>
    <dc:type rdf:resource="http://purl.org/dc/dcmitype/StillImage"/>
    <dc:date>2022-11-25T09:58:49.921067</dc:date>
    <dc:format>image/svg+xml</dc:format>
    <dc:creator>
     <cc:Agent>
      <dc:title>Matplotlib v3.5.2, https://matplotlib.org/</dc:title>
     </cc:Agent>
    </dc:creator>
   </cc:Work>
  </rdf:RDF>
 </metadata>
 <defs>
  <style type="text/css">*{stroke-linejoin: round; stroke-linecap: butt}</style>
 </defs>
 <g id="figure_1">
  <g id="patch_1">
   <path d="M 0 432 
L 1152 432 
L 1152 0 
L 0 0 
z
" style="fill: #ffffff"/>
  </g>
  <g id="axes_1">
   <g id="patch_2">
    <path d="M 144 384.48 
L 1036.8 384.48 
L 1036.8 51.84 
L 144 51.84 
z
" style="fill: #ffffff"/>
   </g>
   <g id="matplotlib.axis_1">
    <g id="xtick_1">
     <g id="line2d_1">
      <defs>
       <path id="mbfb2d858d1" d="M 0 0 
L 0 3.5 
" style="stroke: #000000; stroke-width: 0.8"/>
      </defs>
      <g>
       <use xlink:href="#mbfb2d858d1" x="184.581818" y="384.48" style="stroke: #000000; stroke-width: 0.8"/>
      </g>
     </g>
     <g id="text_1">
      <!-- 0 -->
      <g transform="translate(181.400568 399.078438)scale(0.1 -0.1)">
       <defs>
        <path id="DejaVuSans-30" d="M 2034 4250 
Q 1547 4250 1301 3770 
Q 1056 3291 1056 2328 
Q 1056 1369 1301 889 
Q 1547 409 2034 409 
Q 2525 409 2770 889 
Q 3016 1369 3016 2328 
Q 3016 3291 2770 3770 
Q 2525 4250 2034 4250 
z
M 2034 4750 
Q 2819 4750 3233 4129 
Q 3647 3509 3647 2328 
Q 3647 1150 3233 529 
Q 2819 -91 2034 -91 
Q 1250 -91 836 529 
Q 422 1150 422 2328 
Q 422 3509 836 4129 
Q 1250 4750 2034 4750 
z
" transform="scale(0.015625)"/>
       </defs>
       <use xlink:href="#DejaVuSans-30"/>
      </g>
     </g>
    </g>
    <g id="xtick_2">
     <g id="line2d_2">
      <g>
       <use xlink:href="#mbfb2d858d1" x="358.008392" y="384.48" style="stroke: #000000; stroke-width: 0.8"/>
      </g>
     </g>
     <g id="text_2">
      <!-- 500 -->
      <g transform="translate(348.464642 399.078438)scale(0.1 -0.1)">
       <defs>
        <path id="DejaVuSans-35" d="M 691 4666 
L 3169 4666 
L 3169 4134 
L 1269 4134 
L 1269 2991 
Q 1406 3038 1543 3061 
Q 1681 3084 1819 3084 
Q 2600 3084 3056 2656 
Q 3513 2228 3513 1497 
Q 3513 744 3044 326 
Q 2575 -91 1722 -91 
Q 1428 -91 1123 -41 
Q 819 9 494 109 
L 494 744 
Q 775 591 1075 516 
Q 1375 441 1709 441 
Q 2250 441 2565 725 
Q 2881 1009 2881 1497 
Q 2881 1984 2565 2268 
Q 2250 2553 1709 2553 
Q 1456 2553 1204 2497 
Q 953 2441 691 2322 
L 691 4666 
z
" transform="scale(0.015625)"/>
       </defs>
       <use xlink:href="#DejaVuSans-35"/>
       <use xlink:href="#DejaVuSans-30" x="63.623047"/>
       <use xlink:href="#DejaVuSans-30" x="127.246094"/>
      </g>
     </g>
    </g>
    <g id="xtick_3">
     <g id="line2d_3">
      <g>
       <use xlink:href="#mbfb2d858d1" x="531.434965" y="384.48" style="stroke: #000000; stroke-width: 0.8"/>
      </g>
     </g>
     <g id="text_3">
      <!-- 1000 -->
      <g transform="translate(518.709965 399.078438)scale(0.1 -0.1)">
       <defs>
        <path id="DejaVuSans-31" d="M 794 531 
L 1825 531 
L 1825 4091 
L 703 3866 
L 703 4441 
L 1819 4666 
L 2450 4666 
L 2450 531 
L 3481 531 
L 3481 0 
L 794 0 
L 794 531 
z
" transform="scale(0.015625)"/>
       </defs>
       <use xlink:href="#DejaVuSans-31"/>
       <use xlink:href="#DejaVuSans-30" x="63.623047"/>
       <use xlink:href="#DejaVuSans-30" x="127.246094"/>
       <use xlink:href="#DejaVuSans-30" x="190.869141"/>
      </g>
     </g>
    </g>
    <g id="xtick_4">
     <g id="line2d_4">
      <g>
       <use xlink:href="#mbfb2d858d1" x="704.861538" y="384.48" style="stroke: #000000; stroke-width: 0.8"/>
      </g>
     </g>
     <g id="text_4">
      <!-- 1500 -->
      <g transform="translate(692.136538 399.078438)scale(0.1 -0.1)">
       <use xlink:href="#DejaVuSans-31"/>
       <use xlink:href="#DejaVuSans-35" x="63.623047"/>
       <use xlink:href="#DejaVuSans-30" x="127.246094"/>
       <use xlink:href="#DejaVuSans-30" x="190.869141"/>
      </g>
     </g>
    </g>
    <g id="xtick_5">
     <g id="line2d_5">
      <g>
       <use xlink:href="#mbfb2d858d1" x="878.288112" y="384.48" style="stroke: #000000; stroke-width: 0.8"/>
      </g>
     </g>
     <g id="text_5">
      <!-- 2000 -->
      <g transform="translate(865.563112 399.078438)scale(0.1 -0.1)">
       <defs>
        <path id="DejaVuSans-32" d="M 1228 531 
L 3431 531 
L 3431 0 
L 469 0 
L 469 531 
Q 828 903 1448 1529 
Q 2069 2156 2228 2338 
Q 2531 2678 2651 2914 
Q 2772 3150 2772 3378 
Q 2772 3750 2511 3984 
Q 2250 4219 1831 4219 
Q 1534 4219 1204 4116 
Q 875 4013 500 3803 
L 500 4441 
Q 881 4594 1212 4672 
Q 1544 4750 1819 4750 
Q 2544 4750 2975 4387 
Q 3406 4025 3406 3419 
Q 3406 3131 3298 2873 
Q 3191 2616 2906 2266 
Q 2828 2175 2409 1742 
Q 1991 1309 1228 531 
z
" transform="scale(0.015625)"/>
       </defs>
       <use xlink:href="#DejaVuSans-32"/>
       <use xlink:href="#DejaVuSans-30" x="63.623047"/>
       <use xlink:href="#DejaVuSans-30" x="127.246094"/>
       <use xlink:href="#DejaVuSans-30" x="190.869141"/>
      </g>
     </g>
    </g>
    <g id="text_6">
     <!-- Position -->
     <g transform="translate(570.935938 412.756563)scale(0.1 -0.1)">
      <defs>
       <path id="DejaVuSans-50" d="M 1259 4147 
L 1259 2394 
L 2053 2394 
Q 2494 2394 2734 2622 
Q 2975 2850 2975 3272 
Q 2975 3691 2734 3919 
Q 2494 4147 2053 4147 
L 1259 4147 
z
M 628 4666 
L 2053 4666 
Q 2838 4666 3239 4311 
Q 3641 3956 3641 3272 
Q 3641 2581 3239 2228 
Q 2838 1875 2053 1875 
L 1259 1875 
L 1259 0 
L 628 0 
L 628 4666 
z
" transform="scale(0.015625)"/>
       <path id="DejaVuSans-6f" d="M 1959 3097 
Q 1497 3097 1228 2736 
Q 959 2375 959 1747 
Q 959 1119 1226 758 
Q 1494 397 1959 397 
Q 2419 397 2687 759 
Q 2956 1122 2956 1747 
Q 2956 2369 2687 2733 
Q 2419 3097 1959 3097 
z
M 1959 3584 
Q 2709 3584 3137 3096 
Q 3566 2609 3566 1747 
Q 3566 888 3137 398 
Q 2709 -91 1959 -91 
Q 1206 -91 779 398 
Q 353 888 353 1747 
Q 353 2609 779 3096 
Q 1206 3584 1959 3584 
z
" transform="scale(0.015625)"/>
       <path id="DejaVuSans-73" d="M 2834 3397 
L 2834 2853 
Q 2591 2978 2328 3040 
Q 2066 3103 1784 3103 
Q 1356 3103 1142 2972 
Q 928 2841 928 2578 
Q 928 2378 1081 2264 
Q 1234 2150 1697 2047 
L 1894 2003 
Q 2506 1872 2764 1633 
Q 3022 1394 3022 966 
Q 3022 478 2636 193 
Q 2250 -91 1575 -91 
Q 1294 -91 989 -36 
Q 684 19 347 128 
L 347 722 
Q 666 556 975 473 
Q 1284 391 1588 391 
Q 1994 391 2212 530 
Q 2431 669 2431 922 
Q 2431 1156 2273 1281 
Q 2116 1406 1581 1522 
L 1381 1569 
Q 847 1681 609 1914 
Q 372 2147 372 2553 
Q 372 3047 722 3315 
Q 1072 3584 1716 3584 
Q 2034 3584 2315 3537 
Q 2597 3491 2834 3397 
z
" transform="scale(0.015625)"/>
       <path id="DejaVuSans-69" d="M 603 3500 
L 1178 3500 
L 1178 0 
L 603 0 
L 603 3500 
z
M 603 4863 
L 1178 4863 
L 1178 4134 
L 603 4134 
L 603 4863 
z
" transform="scale(0.015625)"/>
       <path id="DejaVuSans-74" d="M 1172 4494 
L 1172 3500 
L 2356 3500 
L 2356 3053 
L 1172 3053 
L 1172 1153 
Q 1172 725 1289 603 
Q 1406 481 1766 481 
L 2356 481 
L 2356 0 
L 1766 0 
Q 1100 0 847 248 
Q 594 497 594 1153 
L 594 3053 
L 172 3053 
L 172 3500 
L 594 3500 
L 594 4494 
L 1172 4494 
z
" transform="scale(0.015625)"/>
       <path id="DejaVuSans-6e" d="M 3513 2113 
L 3513 0 
L 2938 0 
L 2938 2094 
Q 2938 2591 2744 2837 
Q 2550 3084 2163 3084 
Q 1697 3084 1428 2787 
Q 1159 2491 1159 1978 
L 1159 0 
L 581 0 
L 581 3500 
L 1159 3500 
L 1159 2956 
Q 1366 3272 1645 3428 
Q 1925 3584 2291 3584 
Q 2894 3584 3203 3211 
Q 3513 2838 3513 2113 
z
" transform="scale(0.015625)"/>
      </defs>
      <use xlink:href="#DejaVuSans-50"/>
      <use xlink:href="#DejaVuSans-6f" x="56.677734"/>
      <use xlink:href="#DejaVuSans-73" x="117.859375"/>
      <use xlink:href="#DejaVuSans-69" x="169.958984"/>
      <use xlink:href="#DejaVuSans-74" x="197.742188"/>
      <use xlink:href="#DejaVuSans-69" x="236.951172"/>
      <use xlink:href="#DejaVuSans-6f" x="264.734375"/>
      <use xlink:href="#DejaVuSans-6e" x="325.916016"/>
     </g>
    </g>
   </g>
   <g id="matplotlib.axis_2">
    <g id="ytick_1">
     <g id="line2d_6">
      <defs>
       <path id="mba1a285111" d="M 0 0 
L -3.5 0 
" style="stroke: #000000; stroke-width: 0.8"/>
      </defs>
      <g>
       <use xlink:href="#mba1a285111" x="144" y="375.208193" style="stroke: #000000; stroke-width: 0.8"/>
      </g>
     </g>
     <g id="text_7">
      <!-- 0 -->
      <g transform="translate(130.6375 379.007412)scale(0.1 -0.1)">
       <use xlink:href="#DejaVuSans-30"/>
      </g>
     </g>
    </g>
    <g id="ytick_2">
     <g id="line2d_7">
      <g>
       <use xlink:href="#mba1a285111" x="144" y="324.792733" style="stroke: #000000; stroke-width: 0.8"/>
      </g>
     </g>
     <g id="text_8">
      <!-- 50000 -->
      <g transform="translate(105.1875 328.591951)scale(0.1 -0.1)">
       <use xlink:href="#DejaVuSans-35"/>
       <use xlink:href="#DejaVuSans-30" x="63.623047"/>
       <use xlink:href="#DejaVuSans-30" x="127.246094"/>
       <use xlink:href="#DejaVuSans-30" x="190.869141"/>
       <use xlink:href="#DejaVuSans-30" x="254.492188"/>
      </g>
     </g>
    </g>
    <g id="ytick_3">
     <g id="line2d_8">
      <g>
       <use xlink:href="#mba1a285111" x="144" y="274.377272" style="stroke: #000000; stroke-width: 0.8"/>
      </g>
     </g>
     <g id="text_9">
      <!-- 100000 -->
      <g transform="translate(98.825 278.176491)scale(0.1 -0.1)">
       <use xlink:href="#DejaVuSans-31"/>
       <use xlink:href="#DejaVuSans-30" x="63.623047"/>
       <use xlink:href="#DejaVuSans-30" x="127.246094"/>
       <use xlink:href="#DejaVuSans-30" x="190.869141"/>
       <use xlink:href="#DejaVuSans-30" x="254.492188"/>
       <use xlink:href="#DejaVuSans-30" x="318.115234"/>
      </g>
     </g>
    </g>
    <g id="ytick_4">
     <g id="line2d_9">
      <g>
       <use xlink:href="#mba1a285111" x="144" y="223.961811" style="stroke: #000000; stroke-width: 0.8"/>
      </g>
     </g>
     <g id="text_10">
      <!-- 150000 -->
      <g transform="translate(98.825 227.76103)scale(0.1 -0.1)">
       <use xlink:href="#DejaVuSans-31"/>
       <use xlink:href="#DejaVuSans-35" x="63.623047"/>
       <use xlink:href="#DejaVuSans-30" x="127.246094"/>
       <use xlink:href="#DejaVuSans-30" x="190.869141"/>
       <use xlink:href="#DejaVuSans-30" x="254.492188"/>
       <use xlink:href="#DejaVuSans-30" x="318.115234"/>
      </g>
     </g>
    </g>
    <g id="ytick_5">
     <g id="line2d_10">
      <g>
       <use xlink:href="#mba1a285111" x="144" y="173.54635" style="stroke: #000000; stroke-width: 0.8"/>
      </g>
     </g>
     <g id="text_11">
      <!-- 200000 -->
      <g transform="translate(98.825 177.345569)scale(0.1 -0.1)">
       <use xlink:href="#DejaVuSans-32"/>
       <use xlink:href="#DejaVuSans-30" x="63.623047"/>
       <use xlink:href="#DejaVuSans-30" x="127.246094"/>
       <use xlink:href="#DejaVuSans-30" x="190.869141"/>
       <use xlink:href="#DejaVuSans-30" x="254.492188"/>
       <use xlink:href="#DejaVuSans-30" x="318.115234"/>
      </g>
     </g>
    </g>
    <g id="ytick_6">
     <g id="line2d_11">
      <g>
       <use xlink:href="#mba1a285111" x="144" y="123.13089" style="stroke: #000000; stroke-width: 0.8"/>
      </g>
     </g>
     <g id="text_12">
      <!-- 250000 -->
      <g transform="translate(98.825 126.930108)scale(0.1 -0.1)">
       <use xlink:href="#DejaVuSans-32"/>
       <use xlink:href="#DejaVuSans-35" x="63.623047"/>
       <use xlink:href="#DejaVuSans-30" x="127.246094"/>
       <use xlink:href="#DejaVuSans-30" x="190.869141"/>
       <use xlink:href="#DejaVuSans-30" x="254.492188"/>
       <use xlink:href="#DejaVuSans-30" x="318.115234"/>
      </g>
     </g>
    </g>
    <g id="ytick_7">
     <g id="line2d_12">
      <g>
       <use xlink:href="#mba1a285111" x="144" y="72.715429" style="stroke: #000000; stroke-width: 0.8"/>
      </g>
     </g>
     <g id="text_13">
      <!-- 300000 -->
      <g transform="translate(98.825 76.514648)scale(0.1 -0.1)">
       <defs>
        <path id="DejaVuSans-33" d="M 2597 2516 
Q 3050 2419 3304 2112 
Q 3559 1806 3559 1356 
Q 3559 666 3084 287 
Q 2609 -91 1734 -91 
Q 1441 -91 1130 -33 
Q 819 25 488 141 
L 488 750 
Q 750 597 1062 519 
Q 1375 441 1716 441 
Q 2309 441 2620 675 
Q 2931 909 2931 1356 
Q 2931 1769 2642 2001 
Q 2353 2234 1838 2234 
L 1294 2234 
L 1294 2753 
L 1863 2753 
Q 2328 2753 2575 2939 
Q 2822 3125 2822 3475 
Q 2822 3834 2567 4026 
Q 2313 4219 1838 4219 
Q 1578 4219 1281 4162 
Q 984 4106 628 3988 
L 628 4550 
Q 988 4650 1302 4700 
Q 1616 4750 1894 4750 
Q 2613 4750 3031 4423 
Q 3450 4097 3450 3541 
Q 3450 3153 3228 2886 
Q 3006 2619 2597 2516 
z
" transform="scale(0.015625)"/>
       </defs>
       <use xlink:href="#DejaVuSans-33"/>
       <use xlink:href="#DejaVuSans-30" x="63.623047"/>
       <use xlink:href="#DejaVuSans-30" x="127.246094"/>
       <use xlink:href="#DejaVuSans-30" x="190.869141"/>
       <use xlink:href="#DejaVuSans-30" x="254.492188"/>
       <use xlink:href="#DejaVuSans-30" x="318.115234"/>
      </g>
     </g>
    </g>
    <g id="text_14">
     <!-- Depth of coverage -->
     <g transform="translate(92.745312 264.602187)rotate(-90)scale(0.1 -0.1)">
      <defs>
       <path id="DejaVuSans-44" d="M 1259 4147 
L 1259 519 
L 2022 519 
Q 2988 519 3436 956 
Q 3884 1394 3884 2338 
Q 3884 3275 3436 3711 
Q 2988 4147 2022 4147 
L 1259 4147 
z
M 628 4666 
L 1925 4666 
Q 3281 4666 3915 4102 
Q 4550 3538 4550 2338 
Q 4550 1131 3912 565 
Q 3275 0 1925 0 
L 628 0 
L 628 4666 
z
" transform="scale(0.015625)"/>
       <path id="DejaVuSans-65" d="M 3597 1894 
L 3597 1613 
L 953 1613 
Q 991 1019 1311 708 
Q 1631 397 2203 397 
Q 2534 397 2845 478 
Q 3156 559 3463 722 
L 3463 178 
Q 3153 47 2828 -22 
Q 2503 -91 2169 -91 
Q 1331 -91 842 396 
Q 353 884 353 1716 
Q 353 2575 817 3079 
Q 1281 3584 2069 3584 
Q 2775 3584 3186 3129 
Q 3597 2675 3597 1894 
z
M 3022 2063 
Q 3016 2534 2758 2815 
Q 2500 3097 2075 3097 
Q 1594 3097 1305 2825 
Q 1016 2553 972 2059 
L 3022 2063 
z
" transform="scale(0.015625)"/>
       <path id="DejaVuSans-70" d="M 1159 525 
L 1159 -1331 
L 581 -1331 
L 581 3500 
L 1159 3500 
L 1159 2969 
Q 1341 3281 1617 3432 
Q 1894 3584 2278 3584 
Q 2916 3584 3314 3078 
Q 3713 2572 3713 1747 
Q 3713 922 3314 415 
Q 2916 -91 2278 -91 
Q 1894 -91 1617 61 
Q 1341 213 1159 525 
z
M 3116 1747 
Q 3116 2381 2855 2742 
Q 2594 3103 2138 3103 
Q 1681 3103 1420 2742 
Q 1159 2381 1159 1747 
Q 1159 1113 1420 752 
Q 1681 391 2138 391 
Q 2594 391 2855 752 
Q 3116 1113 3116 1747 
z
" transform="scale(0.015625)"/>
       <path id="DejaVuSans-68" d="M 3513 2113 
L 3513 0 
L 2938 0 
L 2938 2094 
Q 2938 2591 2744 2837 
Q 2550 3084 2163 3084 
Q 1697 3084 1428 2787 
Q 1159 2491 1159 1978 
L 1159 0 
L 581 0 
L 581 4863 
L 1159 4863 
L 1159 2956 
Q 1366 3272 1645 3428 
Q 1925 3584 2291 3584 
Q 2894 3584 3203 3211 
Q 3513 2838 3513 2113 
z
" transform="scale(0.015625)"/>
       <path id="DejaVuSans-20" transform="scale(0.015625)"/>
       <path id="DejaVuSans-66" d="M 2375 4863 
L 2375 4384 
L 1825 4384 
Q 1516 4384 1395 4259 
Q 1275 4134 1275 3809 
L 1275 3500 
L 2222 3500 
L 2222 3053 
L 1275 3053 
L 1275 0 
L 697 0 
L 697 3053 
L 147 3053 
L 147 3500 
L 697 3500 
L 697 3744 
Q 697 4328 969 4595 
Q 1241 4863 1831 4863 
L 2375 4863 
z
" transform="scale(0.015625)"/>
       <path id="DejaVuSans-63" d="M 3122 3366 
L 3122 2828 
Q 2878 2963 2633 3030 
Q 2388 3097 2138 3097 
Q 1578 3097 1268 2742 
Q 959 2388 959 1747 
Q 959 1106 1268 751 
Q 1578 397 2138 397 
Q 2388 397 2633 464 
Q 2878 531 3122 666 
L 3122 134 
Q 2881 22 2623 -34 
Q 2366 -91 2075 -91 
Q 1284 -91 818 406 
Q 353 903 353 1747 
Q 353 2603 823 3093 
Q 1294 3584 2113 3584 
Q 2378 3584 2631 3529 
Q 2884 3475 3122 3366 
z
" transform="scale(0.015625)"/>
       <path id="DejaVuSans-76" d="M 191 3500 
L 800 3500 
L 1894 563 
L 2988 3500 
L 3597 3500 
L 2284 0 
L 1503 0 
L 191 3500 
z
" transform="scale(0.015625)"/>
       <path id="DejaVuSans-72" d="M 2631 2963 
Q 2534 3019 2420 3045 
Q 2306 3072 2169 3072 
Q 1681 3072 1420 2755 
Q 1159 2438 1159 1844 
L 1159 0 
L 581 0 
L 581 3500 
L 1159 3500 
L 1159 2956 
Q 1341 3275 1631 3429 
Q 1922 3584 2338 3584 
Q 2397 3584 2469 3576 
Q 2541 3569 2628 3553 
L 2631 2963 
z
" transform="scale(0.015625)"/>
       <path id="DejaVuSans-61" d="M 2194 1759 
Q 1497 1759 1228 1600 
Q 959 1441 959 1056 
Q 959 750 1161 570 
Q 1363 391 1709 391 
Q 2188 391 2477 730 
Q 2766 1069 2766 1631 
L 2766 1759 
L 2194 1759 
z
M 3341 1997 
L 3341 0 
L 2766 0 
L 2766 531 
Q 2569 213 2275 61 
Q 1981 -91 1556 -91 
Q 1019 -91 701 211 
Q 384 513 384 1019 
Q 384 1609 779 1909 
Q 1175 2209 1959 2209 
L 2766 2209 
L 2766 2266 
Q 2766 2663 2505 2880 
Q 2244 3097 1772 3097 
Q 1472 3097 1187 3025 
Q 903 2953 641 2809 
L 641 3341 
Q 956 3463 1253 3523 
Q 1550 3584 1831 3584 
Q 2591 3584 2966 3190 
Q 3341 2797 3341 1997 
z
" transform="scale(0.015625)"/>
       <path id="DejaVuSans-67" d="M 2906 1791 
Q 2906 2416 2648 2759 
Q 2391 3103 1925 3103 
Q 1463 3103 1205 2759 
Q 947 2416 947 1791 
Q 947 1169 1205 825 
Q 1463 481 1925 481 
Q 2391 481 2648 825 
Q 2906 1169 2906 1791 
z
M 3481 434 
Q 3481 -459 3084 -895 
Q 2688 -1331 1869 -1331 
Q 1566 -1331 1297 -1286 
Q 1028 -1241 775 -1147 
L 775 -588 
Q 1028 -725 1275 -790 
Q 1522 -856 1778 -856 
Q 2344 -856 2625 -561 
Q 2906 -266 2906 331 
L 2906 616 
Q 2728 306 2450 153 
Q 2172 0 1784 0 
Q 1141 0 747 490 
Q 353 981 353 1791 
Q 353 2603 747 3093 
Q 1141 3584 1784 3584 
Q 2172 3584 2450 3431 
Q 2728 3278 2906 2969 
L 2906 3500 
L 3481 3500 
L 3481 434 
z
" transform="scale(0.015625)"/>
      </defs>
      <use xlink:href="#DejaVuSans-44"/>
      <use xlink:href="#DejaVuSans-65" x="77.001953"/>
      <use xlink:href="#DejaVuSans-70" x="138.525391"/>
      <use xlink:href="#DejaVuSans-74" x="202.001953"/>
      <use xlink:href="#DejaVuSans-68" x="241.210938"/>
      <use xlink:href="#DejaVuSans-20" x="304.589844"/>
      <use xlink:href="#DejaVuSans-6f" x="336.376953"/>
      <use xlink:href="#DejaVuSans-66" x="397.558594"/>
      <use xlink:href="#DejaVuSans-20" x="432.763672"/>
      <use xlink:href="#DejaVuSans-63" x="464.550781"/>
      <use xlink:href="#DejaVuSans-6f" x="519.53125"/>
      <use xlink:href="#DejaVuSans-76" x="580.712891"/>
      <use xlink:href="#DejaVuSans-65" x="639.892578"/>
      <use xlink:href="#DejaVuSans-72" x="701.416016"/>
      <use xlink:href="#DejaVuSans-61" x="742.529297"/>
      <use xlink:href="#DejaVuSans-67" x="803.808594"/>
      <use xlink:href="#DejaVuSans-65" x="867.285156"/>
     </g>
    </g>
   </g>
   <g id="line2d_13">
    <path d="M 184.581818 336.006139 
L 184.928671 316.646603 
L 185.275524 313.751747 
L 185.622378 313.581343 
L 185.969231 307.144297 
L 186.316084 306.609893 
L 187.00979 306.337649 
L 187.356643 306.239843 
L 187.703497 305.588475 
L 188.05035 299.581977 
L 188.397203 298.285292 
L 188.744056 298.026156 
L 189.090909 297.218501 
L 189.437762 296.990623 
L 189.784615 286.838966 
L 190.478322 286.421526 
L 190.825175 282.908576 
L 191.172028 282.564743 
L 191.518881 275.898811 
L 192.212587 273.635156 
L 192.906294 266.312815 
L 193.253147 262.662736 
L 193.946853 261.623169 
L 194.293706 261.496122 
L 194.640559 259.70839 
L 194.987413 259.446229 
L 195.334266 259.364556 
L 195.681119 258.755537 
L 196.027972 258.525643 
L 196.374825 248.746052 
L 196.721678 247.795216 
L 197.068531 247.335427 
L 197.415385 245.191762 
L 198.455944 244.390156 
L 198.802797 244.23286 
L 199.496503 239.584554 
L 200.19021 238.105365 
L 200.537063 237.857321 
L 200.883916 237.306784 
L 201.230769 237.23116 
L 201.924476 236.471904 
L 202.618182 231.942579 
L 203.311888 231.623953 
L 203.658741 231.26197 
L 204.005594 231.108707 
L 204.352448 229.927977 
L 204.699301 229.754548 
L 205.046154 229.429872 
L 205.393007 227.621974 
L 206.78042 227.657264 
L 207.474126 221.292817 
L 207.820979 220.045538 
L 208.167832 219.850935 
L 208.514685 217.58728 
L 208.861538 217.421918 
L 209.555245 216.229088 
L 209.902098 215.227837 
L 210.248951 214.73074 
L 210.595804 212.208959 
L 210.942657 211.96999 
L 211.28951 211.213758 
L 211.636364 211.199641 
L 212.33007 210.559365 
L 212.676923 207.416465 
L 213.023776 207.328742 
L 214.064336 206.647125 
L 214.411189 203.709921 
L 214.758042 202.808492 
L 215.104895 201.375685 
L 215.798601 200.902788 
L 216.492308 198.743998 
L 216.839161 198.292275 
L 217.186014 197.146836 
L 217.532867 197.131711 
L 218.226573 192.167805 
L 218.573427 191.840105 
L 218.92028 189.270933 
L 219.267133 188.909958 
L 219.613986 186.774359 
L 219.960839 186.027202 
L 220.307692 184.93117 
L 220.654545 178.21583 
L 221.001399 177.006868 
L 221.348252 174.311657 
L 221.695105 174.086804 
L 222.041958 174.442737 
L 222.388811 174.290483 
L 222.735664 172.94439 
L 223.082517 170.279429 
L 223.429371 169.781324 
L 223.776224 168.845613 
L 224.123077 168.795197 
L 224.46993 168.458422 
L 224.816783 167.899819 
L 225.163636 168.192229 
L 225.51049 168.152904 
L 226.204196 168.675209 
L 226.551049 168.314234 
L 227.244755 163.432001 
L 227.591608 163.06296 
L 227.938462 159.475395 
L 228.285315 159.634708 
L 228.632168 160.095506 
L 228.979021 171.027594 
L 229.325874 170.805766 
L 229.672727 169.933579 
L 230.01958 169.484881 
L 230.366434 166.492219 
L 230.713287 165.190492 
L 231.06014 165.413328 
L 231.406993 165.20965 
L 231.753846 164.510892 
L 232.100699 160.753931 
L 232.447552 160.367749 
L 232.794406 160.269943 
L 233.141259 160.426231 
L 233.488112 160.217511 
L 233.834965 160.423206 
L 234.528671 157.948815 
L 234.875524 155.529881 
L 235.222378 154.228154 
L 235.916084 155.312087 
L 236.262937 163.412843 
L 236.60979 193.914197 
L 236.956643 199.546612 
L 237.303497 215.950795 
L 237.65035 215.527305 
L 237.997203 213.438088 
L 238.344056 212.981324 
L 238.690909 211.451719 
L 239.037762 216.367226 
L 239.384615 216.383359 
L 240.425175 212.384405 
L 240.772028 205.271792 
L 241.118881 203.683705 
L 241.465734 203.154342 
L 241.812587 203.515317 
L 242.159441 210.012862 
L 242.506294 208.577029 
L 242.853147 206.033065 
L 243.2 208.462082 
L 243.546853 208.535689 
L 243.893706 213.212227 
L 244.240559 213.436071 
L 244.587413 214.268935 
L 245.627972 222.826455 
L 245.974825 222.934344 
L 246.321678 221.991575 
L 246.668531 221.593293 
L 247.015385 222.426156 
L 247.362238 220.575909 
L 247.709091 220.467011 
L 248.055944 220.693881 
L 248.402797 220.656574 
L 248.74965 225.677954 
L 249.096503 218.916232 
L 249.443357 217.681053 
L 249.79021 218.85775 
L 250.137063 218.980764 
L 250.483916 219.981006 
L 250.830769 220.622291 
L 251.177622 224.223972 
L 251.524476 224.038443 
L 252.218182 224.320769 
L 252.565035 224.357068 
L 252.911888 224.185656 
L 253.258741 224.279429 
L 253.605594 223.674443 
L 253.952448 224.118099 
L 254.299301 223.887196 
L 254.646154 226.458385 
L 254.993007 227.191426 
L 255.33986 225.800967 
L 255.686713 216.321852 
L 256.033566 213.659916 
L 256.38042 213.668991 
L 256.727273 214.661167 
L 257.074126 217.942205 
L 257.420979 218.549207 
L 257.767832 213.607484 
L 258.114685 211.393237 
L 258.461538 203.873267 
L 258.808392 201.812283 
L 259.155245 203.276348 
L 259.502098 200.345193 
L 259.848951 200.273603 
L 260.195804 200.498456 
L 260.542657 199.693825 
L 260.88951 202.323495 
L 261.236364 202.008903 
L 261.583217 201.916139 
L 261.93007 200.050767 
L 262.623776 201.657003 
L 262.970629 201.4503 
L 263.317483 200.618445 
L 263.664336 202.863949 
L 264.358042 202.659262 
L 264.704895 202.277113 
L 265.051748 201.394843 
L 265.398601 201.302078 
L 265.745455 201.478532 
L 266.092308 200.821115 
L 266.439161 201.332328 
L 266.786014 199.689792 
L 267.132867 199.790623 
L 267.47972 200.771708 
L 267.826573 199.901537 
L 268.173427 199.817847 
L 268.867133 201.153857 
L 269.213986 201.570288 
L 269.560839 200.959253 
L 269.907692 199.802722 
L 270.254545 200.267553 
L 270.601399 200.429891 
L 271.295105 205.819304 
L 271.641958 205.650916 
L 271.988811 206.971801 
L 272.335664 215.253045 
L 272.682517 215.690651 
L 273.029371 209.88884 
L 273.376224 210.808418 
L 273.723077 216.554772 
L 274.416783 216.699968 
L 274.763636 216.547714 
L 275.457343 220.32484 
L 275.804196 218.427202 
L 276.151049 219.876142 
L 276.497902 219.033196 
L 277.191608 219.995123 
L 277.538462 220.960075 
L 277.885315 221.111321 
L 278.232168 220.836053 
L 278.579021 219.052354 
L 278.925874 219.357871 
L 279.272727 221.689082 
L 279.61958 220.847144 
L 279.966434 221.056872 
L 280.313287 225.151616 
L 280.66014 225.195982 
L 281.006993 225.623505 
L 281.353846 221.340207 
L 282.047552 220.403488 
L 282.394406 220.95705 
L 282.741259 223.582687 
L 283.088112 223.221712 
L 283.434965 222.083331 
L 283.781818 222.20937 
L 284.128671 222.979718 
L 284.475524 226.679205 
L 284.822378 222.665126 
L 285.169231 223.172305 
L 285.516084 221.394656 
L 285.862937 218.974714 
L 286.20979 219.768253 
L 286.556643 221.829237 
L 286.903497 221.735464 
L 287.25035 220.281483 
L 287.597203 219.593816 
L 287.944056 219.759178 
L 288.290909 219.362913 
L 288.637762 220.650524 
L 288.984615 221.419864 
L 289.678322 215.710817 
L 290.025175 216.073808 
L 290.372028 218.019845 
L 291.065734 219.719854 
L 291.759441 219.407278 
L 292.106294 220.37828 
L 292.453147 222.621768 
L 292.8 222.797214 
L 293.146853 223.166255 
L 293.493706 222.755873 
L 294.187413 220.054613 
L 294.534266 220.398446 
L 294.881119 220.947975 
L 295.227972 222.524971 
L 295.574825 221.366423 
L 295.921678 217.989596 
L 296.268531 218.049086 
L 296.615385 217.622571 
L 297.309091 217.459225 
L 298.002797 217.989596 
L 298.34965 205.479503 
L 298.696503 204.968291 
L 299.39021 205.343382 
L 299.737063 209.336286 
L 300.083916 209.516773 
L 300.430769 209.321161 
L 300.777622 210.406102 
L 301.124476 210.092518 
L 301.471329 215.949786 
L 301.818182 215.547471 
L 302.165035 215.7088 
L 302.511888 214.481688 
L 302.858741 210.607764 
L 303.205594 209.892873 
L 303.552448 208.675844 
L 303.899301 208.681893 
L 304.246154 210.06731 
L 304.593007 205.810229 
L 304.93986 205.698306 
L 305.286713 205.811237 
L 305.633566 207.446715 
L 305.98042 213.128537 
L 306.327273 213.170886 
L 306.674126 214.525045 
L 307.020979 238.792023 
L 307.367832 238.79404 
L 307.714685 241.674779 
L 308.061538 241.79376 
L 308.408392 241.30473 
L 308.755245 234.409911 
L 309.102098 233.526632 
L 309.448951 216.789708 
L 309.795804 216.658628 
L 310.142657 215.91147 
L 310.48951 215.684601 
L 310.836364 216.690893 
L 311.183217 213.966442 
L 311.53007 212.85831 
L 312.223776 207.310593 
L 312.570629 204.719238 
L 312.917483 203.429611 
L 313.264336 202.961755 
L 313.611189 202.800426 
L 313.958042 202.115784 
L 314.304895 204.668823 
L 314.651748 204.842252 
L 315.345455 207.128089 
L 315.692308 207.500155 
L 316.039161 203.671605 
L 316.732867 204.082995 
L 317.07972 203.74017 
L 317.426573 204.415737 
L 317.773427 204.395571 
L 318.12028 205.132645 
L 318.467133 206.464621 
L 318.813986 206.515037 
L 319.160839 210.190324 
L 319.507692 209.012619 
L 319.854545 209.153782 
L 320.548252 210.898157 
L 320.895105 210.992938 
L 321.241958 210.127809 
L 321.588811 210.193349 
L 322.282517 212.974266 
L 322.629371 223.446565 
L 322.976224 224.151373 
L 323.66993 224.574863 
L 324.016783 223.159197 
L 324.363636 223.008959 
L 324.71049 221.220218 
L 325.057343 208.268487 
L 325.404196 208.052708 
L 325.751049 207.175479 
L 326.097902 207.004067 
L 326.444755 206.274051 
L 326.791608 199.352008 
L 327.138462 199.063632 
L 327.485315 197.148853 
L 327.832168 196.795944 
L 328.179021 197.017772 
L 328.525874 196.888709 
L 328.872727 197.888952 
L 329.21958 197.931301 
L 329.566434 197.429163 
L 329.913287 196.296831 
L 330.606993 197.019789 
L 330.953846 200.993536 
L 331.647552 200.083032 
L 331.994406 202.484825 
L 332.341259 198.759122 
L 332.688112 197.882902 
L 333.034965 197.477561 
L 333.381818 196.614449 
L 333.728671 190.663408 
L 334.075524 190.803563 
L 334.422378 191.732215 
L 334.769231 191.793722 
L 335.116084 192.25452 
L 335.462937 191.327883 
L 335.80979 192.174863 
L 336.503497 194.868057 
L 336.85035 196.313973 
L 337.197203 196.689064 
L 337.544056 195.941906 
L 337.890909 197.837528 
L 338.237762 202.159141 
L 338.584615 202.017978 
L 338.931469 201.314178 
L 339.278322 201.890931 
L 339.625175 199.183621 
L 339.972028 198.738956 
L 340.318881 201.027818 
L 340.665734 199.531487 
L 341.012587 199.962035 
L 341.359441 198.948685 
L 341.706294 203.395328 
L 342.053147 203.684713 
L 342.4 203.784536 
L 342.746853 204.036613 
L 343.093706 201.716493 
L 343.440559 201.264771 
L 343.787413 200.445015 
L 344.134266 200.852372 
L 344.481119 193.373743 
L 344.827972 192.637677 
L 345.174825 188.955332 
L 345.521678 188.26464 
L 345.868531 188.298923 
L 346.562238 190.054389 
L 346.909091 189.54116 
L 347.255944 183.703049 
L 347.602797 184.365508 
L 347.94965 184.201154 
L 348.296503 188.149693 
L 349.683916 190.593834 
L 350.030769 194.045277 
L 350.377622 194.19854 
L 350.724476 204.203992 
L 351.071329 200.368384 
L 351.418182 200.344184 
L 351.765035 200.93707 
L 352.111888 199.431665 
L 352.458741 195.416577 
L 352.805594 194.123925 
L 353.152448 194.218706 
L 353.499301 196.270615 
L 353.846154 196.216167 
L 354.193007 197.095412 
L 354.53986 193.329377 
L 354.886713 193.667161 
L 355.233566 198.414281 
L 355.58042 197.626791 
L 355.927273 197.960541 
L 356.274126 196.803003 
L 356.620979 196.71528 
L 356.967832 200.642644 
L 357.314685 200.410733 
L 357.661538 204.573033 
L 358.008392 206.676366 
L 358.355245 205.791071 
L 358.702098 205.364556 
L 359.048951 205.331282 
L 359.395804 208.724242 
L 359.742657 208.877505 
L 360.436364 208.237229 
L 360.783217 211.26014 
L 361.13007 212.473136 
L 361.476923 212.341048 
L 361.823776 209.629704 
L 362.170629 208.466115 
L 362.517483 208.608287 
L 362.864336 208.35621 
L 363.211189 212.685889 
L 363.558042 213.41893 
L 363.904895 214.604702 
L 364.251748 214.73074 
L 364.598601 216.516456 
L 364.945455 219.84186 
L 365.639161 221.071997 
L 365.986014 220.625316 
L 366.332867 221.62455 
L 366.67972 221.594301 
L 367.026573 221.807054 
L 367.373427 220.712031 
L 367.72028 220.237117 
L 368.067133 220.413571 
L 368.413986 223.971894 
L 368.760839 223.639152 
L 369.107692 222.419098 
L 369.454545 222.479597 
L 369.801399 222.192229 
L 370.148252 221.232318 
L 370.495105 220.935875 
L 370.841958 221.133504 
L 371.188811 217.680045 
L 371.535664 218.244698 
L 371.882517 217.980521 
L 372.576224 218.750869 
L 372.923077 218.70852 
L 373.963636 217.776842 
L 374.31049 223.694609 
L 374.657343 223.805523 
L 375.004196 224.476049 
L 375.351049 221.054856 
L 376.044755 217.645762 
L 376.391608 218.180166 
L 376.738462 218.327379 
L 377.085315 218.912199 
L 377.432168 219.107811 
L 377.779021 218.974714 
L 378.125874 218.515933 
L 378.472727 218.654072 
L 378.81958 223.547396 
L 379.166434 223.95677 
L 379.513287 225.18489 
L 379.86014 227.120844 
L 380.206993 226.282939 
L 380.553846 226.416036 
L 380.900699 226.31823 
L 381.247552 216.058684 
L 381.594406 217.544931 
L 381.941259 217.433009 
L 382.288112 214.709566 
L 382.634965 215.204646 
L 382.981818 212.422721 
L 383.328671 213.978542 
L 383.675524 214.096514 
L 384.022378 212.904692 
L 384.369231 212.366255 
L 384.716084 211.446677 
L 385.062937 212.14846 
L 385.40979 215.355892 
L 385.756643 216.853231 
L 386.103497 222.803264 
L 386.797203 223.198521 
L 387.144056 223.987019 
L 387.490909 224.454874 
L 387.837762 266.470111 
L 388.184615 266.491286 
L 388.531469 266.170643 
L 388.878322 264.20444 
L 389.572028 264.196374 
L 389.918881 265.465835 
L 390.265734 265.509192 
L 390.612587 265.982089 
L 390.959441 266.156527 
L 391.306294 266.996449 
L 391.653147 267.153745 
L 392.346853 268.133821 
L 393.040559 268.168104 
L 393.387413 268.581511 
L 393.734266 257.872258 
L 395.121678 257.821843 
L 395.815385 255.817324 
L 396.509091 255.804216 
L 396.855944 255.239563 
L 397.54965 251.385805 
L 397.896503 222.573369 
L 398.59021 221.309958 
L 398.937063 215.751149 
L 399.977622 212.728238 
L 400.324476 210.525083 
L 400.671329 210.349637 
L 401.018182 204.872501 
L 401.365035 204.310873 
L 401.711888 202.315429 
L 402.058741 202.156116 
L 402.405594 201.678178 
L 402.752448 202.615905 
L 403.099301 202.628005 
L 403.446154 201.064117 
L 403.793007 201.221414 
L 404.13986 202.174266 
L 404.486713 203.602032 
L 404.833566 203.30458 
L 405.18042 203.892425 
L 405.527273 202.339628 
L 406.220979 201.991762 
L 406.567832 200.825148 
L 406.914685 204.196934 
L 407.261538 204.530684 
L 407.608392 204.624457 
L 408.302098 205.154828 
L 408.648951 205.093321 
L 408.995804 205.412955 
L 409.342657 205.372623 
L 409.68951 203.873267 
L 410.036364 203.443727 
L 410.383217 204.973332 
L 410.73007 204.874518 
L 411.076923 207.181529 
L 411.423776 206.300267 
L 411.770629 203.971073 
L 412.117483 203.031329 
L 412.464336 202.711695 
L 412.811189 203.26324 
L 413.158042 203.461877 
L 413.504895 203.421544 
L 413.851748 205.837453 
L 414.545455 208.408642 
L 414.892308 208.410658 
L 415.239161 209.148741 
L 415.586014 209.276796 
L 415.932867 209.114458 
L 416.27972 209.456275 
L 416.626573 206.999025 
L 417.32028 207.285385 
L 417.667133 207.639302 
L 418.013986 206.940543 
L 418.360839 207.267236 
L 418.707692 207.427557 
L 419.054545 207.811723 
L 419.401399 210.050169 
L 419.748252 211.267198 
L 420.095105 204.278607 
L 420.441958 201.908072 
L 420.788811 201.218389 
L 421.135664 201.007652 
L 421.482517 202.302321 
L 421.829371 201.912105 
L 422.176224 200.336118 
L 422.523077 201.631795 
L 422.86993 202.016969 
L 423.216783 205.234484 
L 423.91049 205.398839 
L 424.257343 205.47547 
L 424.604196 204.060812 
L 424.951049 204.236258 
L 425.297902 203.789577 
L 425.644755 202.364836 
L 425.991608 201.950421 
L 426.338462 197.260775 
L 426.685315 196.156676 
L 427.032168 196.102228 
L 427.379021 196.558992 
L 427.725874 201.190156 
L 428.072727 201.93933 
L 428.41958 201.173015 
L 428.766434 202.26098 
L 429.113287 196.85846 
L 429.46014 197.41303 
L 429.806993 199.411498 
L 430.153846 199.785581 
L 430.500699 198.715765 
L 430.847552 199.340917 
L 431.194406 194.743027 
L 431.541259 194.426418 
L 431.888112 198.959776 
L 432.234965 201.864715 
L 432.581818 205.753763 
L 432.928671 206.825596 
L 433.275524 204.972324 
L 433.622378 206.320433 
L 433.969231 206.251868 
L 434.316084 206.527137 
L 434.662937 208.950104 
L 435.00979 208.348143 
L 435.356643 208.924896 
L 435.703497 207.793573 
L 436.05035 208.046659 
L 436.397203 209.916064 
L 436.744056 209.485516 
L 437.090909 210.120751 
L 437.437762 207.208754 
L 438.131469 207.591911 
L 438.478322 207.877263 
L 438.825175 205.100379 
L 439.172028 205.223393 
L 439.865734 204.865443 
L 440.212587 204.07997 
L 440.559441 203.742187 
L 440.906294 205.780988 
L 441.253147 206.885086 
L 441.6 203.621189 
L 441.946853 202.099651 
L 442.293706 199.823897 
L 442.640559 199.927753 
L 442.987413 199.635343 
L 443.334266 200.288727 
L 443.681119 198.645183 
L 444.027972 198.44453 
L 444.374825 198.58166 
L 444.721678 196.82216 
L 445.068531 198.840795 
L 445.415385 196.592266 
L 445.762238 198.543344 
L 446.109091 205.382706 
L 446.455944 203.371129 
L 446.802797 200.211088 
L 447.14965 198.766181 
L 447.496503 199.594002 
L 447.843357 202.012936 
L 448.19021 196.814094 
L 448.883916 201.383751 
L 449.230769 202.078476 
L 449.577622 203.705887 
L 450.618182 201.93328 
L 450.965035 202.114775 
L 451.311888 207.543512 
L 451.658741 204.996523 
L 452.005594 205.648899 
L 452.352448 208.114215 
L 452.699301 206.959701 
L 453.046154 206.854837 
L 453.393007 206.168179 
L 453.73986 206.111713 
L 454.086713 207.525363 
L 454.433566 206.294217 
L 454.78042 206.296234 
L 455.127273 206.615868 
L 455.474126 205.840478 
L 455.820979 207.049441 
L 456.167832 207.261186 
L 456.514685 207.768365 
L 456.861538 208.556863 
L 457.208392 210.356695 
L 457.555245 209.660962 
L 457.902098 210.111676 
L 458.248951 209.230414 
L 458.595804 209.163865 
L 458.942657 210.376861 
L 459.28951 209.483499 
L 459.636364 209.906989 
L 459.983217 209.695244 
L 460.676923 213.47237 
L 461.023776 209.511732 
L 461.370629 210.553315 
L 461.717483 207.610061 
L 462.064336 206.876012 
L 462.411189 207.829872 
L 462.758042 207.892387 
L 463.104895 213.883761 
L 463.451748 210.577515 
L 463.798601 211.001005 
L 464.145455 213.467329 
L 464.492308 208.644586 
L 464.839161 208.091024 
L 465.186014 202.863949 
L 465.87972 202.942597 
L 466.226573 203.773444 
L 466.92028 198.787355 
L 467.267133 198.50402 
L 467.613986 198.487887 
L 467.960839 198.196486 
L 468.307692 198.613926 
L 468.654545 198.78433 
L 469.001399 201.147807 
L 469.348252 208.377384 
L 469.695105 209.421992 
L 470.041958 209.731543 
L 470.388811 210.941514 
L 471.082517 209.175965 
L 471.429371 209.832374 
L 471.776224 203.401378 
L 472.123077 202.591706 
L 472.46993 202.078476 
L 473.857343 198.995067 
L 474.204196 191.157479 
L 474.551049 190.961867 
L 474.897902 190.518211 
L 475.244755 188.594357 
L 475.591608 187.671754 
L 475.938462 182.110929 
L 476.285315 181.25185 
L 476.632168 180.815252 
L 476.979021 179.747452 
L 477.672727 180.40487 
L 478.366434 182.040347 
L 478.713287 187.464043 
L 479.06014 188.053903 
L 479.753846 186.286337 
L 480.447552 189.536118 
L 481.141259 189.932384 
L 481.488112 192.380558 
L 481.834965 193.062175 
L 482.181818 194.61598 
L 482.528671 197.574359 
L 482.875524 198.856928 
L 483.222378 198.786347 
L 483.569231 199.562745 
L 483.916084 199.329825 
L 484.262937 200.697093 
L 484.60979 200.654744 
L 484.956643 198.785338 
L 485.303497 199.139255 
L 485.997203 198.990025 
L 486.344056 199.254202 
L 486.690909 198.664341 
L 487.037762 199.248152 
L 487.384615 200.415774 
L 487.731469 201.178056 
L 488.078322 199.3268 
L 488.425175 200.073958 
L 488.772028 200.050767 
L 489.118881 201.997812 
L 489.465734 201.994787 
L 489.812587 199.767432 
L 490.159441 200.149581 
L 490.506294 200.715242 
L 490.853147 195.114085 
L 491.2 197.432187 
L 491.546853 196.40472 
L 491.893706 196.08912 
L 492.240559 197.011723 
L 492.587413 196.621507 
L 492.934266 198.44453 
L 493.281119 197.996841 
L 493.627972 198.703665 
L 493.974825 204.809986 
L 494.321678 206.640067 
L 494.668531 207.385208 
L 495.015385 207.512255 
L 495.362238 215.567637 
L 495.709091 216.050617 
L 496.055944 217.590305 
L 496.74965 218.4877 
L 497.096503 218.342504 
L 497.443357 218.633905 
L 497.79021 208.472165 
L 498.137063 205.719481 
L 498.483916 205.14172 
L 498.830769 201.257713 
L 499.177622 207.3479 
L 499.524476 207.354958 
L 499.871329 204.162651 
L 500.218182 204.697055 
L 500.565035 210.323421 
L 500.911888 210.408119 
L 501.258741 214.346575 
L 501.605594 214.501854 
L 502.646154 217.650804 
L 502.993007 219.576674 
L 503.33986 220.531543 
L 503.686713 220.618258 
L 504.38042 221.240385 
L 504.727273 225.232281 
L 505.074126 226.529975 
L 505.420979 232.598988 
L 505.767832 232.869215 
L 506.114685 232.480007 
L 506.461538 224.640403 
L 506.808392 225.236314 
L 507.155245 208.894647 
L 507.502098 208.20093 
L 507.848951 208.112199 
L 508.195804 207.442681 
L 508.542657 207.269252 
L 508.88951 207.839955 
L 509.236364 206.911302 
L 509.583217 207.09179 
L 509.93007 207.985152 
L 510.276923 207.227911 
L 510.623776 208.083966 
L 510.970629 208.023467 
L 511.317483 201.133691 
L 511.664336 201.084283 
L 512.011189 200.59122 
L 512.358042 199.510313 
L 512.704895 203.833943 
L 513.051748 204.243316 
L 513.398601 202.206532 
L 513.745455 202.370886 
L 514.092308 200.193946 
L 514.439161 194.06141 
L 514.786014 191.334942 
L 515.132867 191.743307 
L 515.47972 195.177608 
L 515.826573 197.258758 
L 516.173427 193.228546 
L 516.52028 194.190473 
L 516.867133 194.165266 
L 517.213986 192.826231 
L 517.560839 194.094684 
L 517.907692 193.34551 
L 518.254545 194.121908 
L 518.601399 192.623561 
L 519.295105 197.223467 
L 519.988811 194.236856 
L 520.682517 193.741776 
L 521.029371 192.988569 
L 521.376224 191.640459 
L 521.723077 189.447387 
L 522.06993 185.263912 
L 522.416783 184.055957 
L 522.763636 185.724709 
L 523.11049 186.340786 
L 523.457343 185.737817 
L 523.804196 186.04636 
L 524.151049 185.318361 
L 524.497902 185.876964 
L 524.844755 187.707045 
L 525.191608 194.082584 
L 525.538462 194.523215 
L 525.885315 195.194749 
L 526.232168 192.23637 
L 526.579021 191.521479 
L 526.925874 191.405523 
L 527.272727 194.053343 
L 527.61958 194.463725 
L 527.966434 194.176357 
L 528.313287 198.630059 
L 528.66014 198.08658 
L 529.006993 197.869794 
L 529.700699 201.49164 
L 530.047552 201.561214 
L 530.741259 198.120863 
L 531.088112 199.07069 
L 531.434965 198.929527 
L 531.781818 193.692369 
L 532.128671 194.980988 
L 532.475524 194.74706 
L 532.822378 194.714794 
L 533.169231 194.382052 
L 533.516084 195.481109 
L 533.862937 195.264323 
L 534.20979 195.721087 
L 534.556643 195.791668 
L 534.903497 195.094927 
L 535.25035 195.007204 
L 535.597203 194.662362 
L 536.290909 193.487682 
L 536.637762 194.780334 
L 536.984615 195.485142 
L 537.331469 193.018818 
L 538.025175 192.811106 
L 538.372028 193.006718 
L 539.065734 191.965135 
L 539.412587 190.716848 
L 539.759441 190.117912 
L 540.106294 191.20487 
L 540.453147 193.489698 
L 540.8 192.454165 
L 541.146853 190.696682 
L 541.493706 191.392415 
L 541.840559 190.611984 
L 542.187413 192.745566 
L 542.534266 188.241449 
L 542.881119 194.791426 
L 543.574825 193.348535 
L 543.921678 194.876124 
L 544.268531 195.034428 
L 544.615385 191.393424 
L 544.962238 191.334942 
L 545.309091 190.621059 
L 545.655944 190.598876 
L 546.002797 188.394712 
L 546.34965 188.156751 
L 546.696503 188.98054 
L 547.043357 187.813926 
L 547.39021 189.456462 
L 547.737063 188.721404 
L 548.083916 186.871157 
L 548.430769 190.103796 
L 548.777622 189.207409 
L 549.124476 188.770811 
L 549.471329 189.132794 
L 549.818182 189.088429 
L 550.511888 193.814374 
L 550.858741 201.318211 
L 551.205594 203.547583 
L 551.552448 202.680437 
L 551.899301 200.518622 
L 552.593007 198.708707 
L 552.93986 199.094889 
L 553.286713 198.650225 
L 553.633566 198.875078 
L 553.98042 197.748797 
L 554.327273 197.649982 
L 554.674126 205.424046 
L 555.020979 205.596467 
L 555.367832 205.267758 
L 555.714685 201.367618 
L 556.061538 200.520639 
L 556.408392 200.071941 
L 556.755245 200.203021 
L 557.448951 201.370643 
L 557.795804 204.486319 
L 558.142657 201.123608 
L 558.48951 203.16745 
L 558.836364 209.965471 
L 559.183217 210.733803 
L 559.53007 210.544241 
L 559.876923 206.884078 
L 560.223776 206.988942 
L 560.917483 207.983135 
L 561.264336 208.198913 
L 561.611189 209.503665 
L 561.958042 209.855565 
L 562.304895 210.906224 
L 562.651748 211.279298 
L 562.998601 217.087159 
L 563.345455 231.938545 
L 563.692308 235.9133 
L 564.039161 236.061522 
L 564.386014 232.989204 
L 565.07972 231.832673 
L 565.426573 209.57828 
L 565.773427 204.416745 
L 566.12028 204.293732 
L 566.467133 198.155145 
L 566.813986 194.116867 
L 567.160839 192.375517 
L 567.507692 192.782874 
L 567.854545 191.892537 
L 568.201399 192.3977 
L 568.548252 194.27013 
L 568.895105 195.507325 
L 569.241958 195.08686 
L 569.588811 196.517651 
L 569.935664 200.12639 
L 570.282517 198.103721 
L 570.629371 198.198502 
L 570.976224 190.237901 
L 571.323077 188.872651 
L 571.66993 188.961382 
L 572.363636 190.529303 
L 572.71049 189.965658 
L 573.057343 190.271175 
L 573.404196 190.85902 
L 573.751049 192.250486 
L 574.444755 200.945137 
L 574.791608 200.96732 
L 575.138462 199.82188 
L 575.485315 199.545604 
L 575.832168 199.928761 
L 576.179021 199.91162 
L 576.525874 200.637602 
L 576.872727 202.307363 
L 577.21958 200.819098 
L 577.566434 200.998577 
L 577.913287 200.735408 
L 578.26014 203.130143 
L 578.606993 203.535483 
L 578.953846 203.44776 
L 579.300699 203.002088 
L 579.647552 203.314663 
L 579.994406 203.160392 
L 580.341259 205.572268 
L 580.688112 204.339106 
L 581.034965 198.075489 
L 581.728671 198.449571 
L 582.075524 201.690277 
L 582.422378 202.417268 
L 582.769231 201.572305 
L 583.116084 199.910612 
L 583.462937 199.669626 
L 583.80979 198.964817 
L 584.156643 201.893956 
L 584.85035 202.031086 
L 585.197203 201.752792 
L 585.544056 201.759851 
L 585.890909 201.916139 
L 586.237762 201.368627 
L 586.584615 198.783322 
L 586.931469 198.93961 
L 587.278322 199.688783 
L 587.625175 199.896495 
L 587.972028 207.129097 
L 588.318881 207.839955 
L 588.665734 207.405374 
L 589.012587 207.590903 
L 589.359441 202.56549 
L 589.706294 202.345678 
L 590.053147 201.565247 
L 590.4 197.582426 
L 590.746853 197.304132 
L 591.093706 198.058347 
L 591.787413 193.481632 
L 592.481119 192.004459 
L 593.174825 192.618519 
L 593.521678 191.433756 
L 593.868531 191.430731 
L 594.215385 192.315018 
L 594.562238 191.770531 
L 594.909091 196.492443 
L 595.255944 194.026119 
L 595.602797 194.870074 
L 596.296503 191.075806 
L 596.99021 193.039993 
L 597.337063 193.0773 
L 597.683916 194.275171 
L 598.030769 193.708502 
L 598.377622 196.394637 
L 598.724476 195.588998 
L 599.071329 196.228266 
L 599.418182 193.90613 
L 599.765035 193.7932 
L 600.111888 196.593274 
L 601.152448 199.103964 
L 601.499301 196.518659 
L 601.846154 195.845109 
L 602.53986 195.502284 
L 602.886713 192.538863 
L 603.233566 192.891771 
L 603.58042 194.718827 
L 603.927273 194.780334 
L 604.274126 194.130983 
L 604.620979 195.247181 
L 604.967832 195.259281 
L 605.314685 194.473808 
L 605.661538 194.207615 
L 606.008392 193.642961 
L 606.355245 192.456181 
L 606.702098 192.599361 
L 607.048951 189.904151 
L 607.395804 189.560317 
L 607.742657 190.314533 
L 608.08951 190.002965 
L 608.436364 190.168328 
L 608.783217 191.542653 
L 609.13007 189.734755 
L 609.476923 191.11513 
L 609.823776 190.078588 
L 610.517483 190.78138 
L 610.864336 191.775573 
L 611.211189 190.843895 
L 611.558042 191.925811 
L 611.904895 191.263352 
L 612.251748 194.176357 
L 612.598601 195.076777 
L 612.945455 197.229517 
L 613.292308 196.401695 
L 613.639161 193.884956 
L 613.986014 194.084601 
L 614.332867 194.510107 
L 615.026573 185.901163 
L 615.373427 184.664976 
L 615.72028 184.648843 
L 616.067133 186.120975 
L 616.413986 186.4396 
L 616.760839 188.70023 
L 617.107692 187.646547 
L 617.454545 187.456984 
L 617.801399 189.406046 
L 618.148252 189.824494 
L 618.495105 191.353091 
L 618.841958 196.604366 
L 619.188811 194.68152 
L 619.535664 193.546164 
L 619.882517 191.819938 
L 620.229371 183.602218 
L 620.576224 180.805169 
L 621.26993 180.770886 
L 621.616783 181.007839 
L 621.963636 180.937257 
L 622.31049 181.228658 
L 623.004196 185.221563 
L 623.351049 194.385077 
L 623.697902 193.188214 
L 624.044755 190.832804 
L 624.391608 191.303684 
L 624.738462 186.880232 
L 625.085315 187.277505 
L 625.432168 187.279522 
L 625.779021 188.507643 
L 626.125874 186.132066 
L 626.472727 184.951336 
L 626.81958 185.308277 
L 627.166434 184.510705 
L 627.513287 185.398017 
L 628.206993 185.487757 
L 628.553846 185.28912 
L 628.900699 183.979326 
L 629.247552 183.612301 
L 629.594406 184.55507 
L 630.288112 185.27097 
L 630.634965 184.193087 
L 630.981818 184.08419 
L 631.328671 181.414187 
L 631.675524 181.328481 
L 632.022378 180.902975 
L 632.369231 181.635007 
L 633.062937 184.782948 
L 633.40979 187.023411 
L 633.756643 188.048862 
L 634.103497 187.872408 
L 634.45035 188.185992 
L 634.797203 192.217212 
L 635.144056 191.772548 
L 635.490909 190.692649 
L 635.837762 190.44158 
L 636.184615 180.933224 
L 636.878322 180.933224 
L 637.225175 176.643876 
L 637.572028 176.282902 
L 637.918881 173.232766 
L 638.265734 172.779027 
L 638.612587 172.785077 
L 638.959441 172.5209 
L 639.306294 171.634596 
L 639.653147 169.406233 
L 640 169.382033 
L 640.346853 167.221227 
L 640.693706 167.547919 
L 641.040559 171.177832 
L 641.387413 171.022553 
L 641.734266 170.154398 
L 642.081119 169.823673 
L 642.427972 170.49319 
L 642.774825 170.520415 
L 643.121678 170.827949 
L 643.468531 173.055304 
L 643.815385 173.057321 
L 644.162238 177.163156 
L 644.509091 175.605318 
L 644.855944 175.362315 
L 645.202797 175.385506 
L 645.54965 175.730348 
L 645.896503 176.554137 
L 646.243357 176.411965 
L 646.59021 176.485572 
L 646.937063 176.301051 
L 647.283916 176.536996 
L 647.630769 180.290931 
L 647.977622 180.242532 
L 648.324476 181.909267 
L 648.671329 174.531469 
L 649.018182 173.508035 
L 649.365035 174.105962 
L 649.711888 174.359048 
L 650.058741 175.386515 
L 650.405594 175.506504 
L 650.752448 172.80121 
L 651.099301 173.605841 
L 651.446154 173.280157 
L 651.793007 175.708165 
L 652.13986 164.338471 
L 652.486713 163.936155 
L 652.833566 163.918006 
L 653.18042 162.772567 
L 653.874126 161.648302 
L 654.220979 162.388401 
L 654.567832 162.710051 
L 654.914685 162.257321 
L 655.261538 160.833588 
L 655.608392 161.044325 
L 655.955245 160.807372 
L 656.302098 160.941477 
L 656.648951 156.868916 
L 656.995804 155.414934 
L 657.342657 155.317128 
L 657.68951 155.763809 
L 658.036364 157.850001 
L 658.383217 157.531375 
L 658.73007 155.802125 
L 659.076923 156.357703 
L 659.423776 157.453735 
L 659.770629 159.671007 
L 660.117483 164.005729 
L 660.464336 164.062194 
L 660.811189 163.518715 
L 661.158042 163.634671 
L 661.504895 165.511134 
L 661.851748 173.408212 
L 662.198601 172.847592 
L 662.545455 169.757124 
L 662.892308 169.11584 
L 663.239161 168.987785 
L 663.932867 168.300118 
L 664.27972 167.488429 
L 664.626573 168.486655 
L 664.973427 168.396915 
L 665.32028 167.311975 
L 665.667133 166.859244 
L 666.013986 168.754865 
L 666.360839 168.752848 
L 666.707692 169.772249 
L 667.054545 172.8728 
L 667.401399 177.969803 
L 667.748252 178.408418 
L 668.095105 178.141216 
L 668.441958 172.713487 
L 668.788811 171.910873 
L 669.135664 173.551392 
L 669.482517 174.154361 
L 670.176224 174.316699 
L 670.523077 174.11302 
L 670.86993 174.445762 
L 671.216783 175.542803 
L 671.563636 180.69123 
L 671.91049 179.920881 
L 672.257343 181.038088 
L 672.604196 187.8351 
L 672.951049 188.27069 
L 673.644755 190.156228 
L 673.991608 190.427463 
L 674.338462 203.268281 
L 674.685315 201.938321 
L 675.032168 202.288205 
L 675.379021 204.582108 
L 675.725874 205.290949 
L 676.41958 202.47575 
L 676.766434 191.931861 
L 677.113287 191.033457 
L 677.46014 190.939684 
L 677.806993 189.480661 
L 678.153846 187.514458 
L 678.500699 187.494292 
L 678.847552 184.717408 
L 679.194406 186.867124 
L 679.541259 187.244231 
L 679.888112 184.57927 
L 680.234965 183.635492 
L 680.581818 180.926166 
L 681.622378 182.887327 
L 681.969231 183.015382 
L 682.662937 176.035866 
L 683.00979 176.330292 
L 683.356643 176.376674 
L 683.703497 179.681912 
L 684.05035 178.838966 
L 684.397203 179.092051 
L 684.744056 177.53018 
L 685.090909 173.735913 
L 685.437762 180.574266 
L 685.784615 182.000015 
L 686.131469 177.560429 
L 686.825175 173.798428 
L 687.172028 174.050505 
L 687.518881 174.950925 
L 687.865734 181.947583 
L 688.212587 182.520302 
L 688.559441 181.134886 
L 688.906294 181.172193 
L 689.253147 175.260476 
L 689.6 172.66408 
L 690.293706 176.613627 
L 690.640559 176.861671 
L 690.987413 176.853605 
L 691.334266 177.231721 
L 691.681119 178.044418 
L 692.027972 180.036837 
L 692.374825 180.080194 
L 692.721678 181.980857 
L 693.068531 181.98489 
L 693.415385 182.651383 
L 693.762238 181.833644 
L 694.109091 179.849291 
L 694.455944 179.84425 
L 694.802797 178.742168 
L 695.14965 179.42076 
L 695.496503 174.182594 
L 695.843357 174.04143 
L 696.537063 174.551635 
L 696.883916 176.61161 
L 697.230769 177.948629 
L 697.924476 179.018445 
L 698.965035 174.919668 
L 699.658741 169.556471 
L 700.005594 169.398166 
L 700.352448 168.373724 
L 700.699301 169.518155 
L 701.046154 175.231235 
L 701.393007 165.931599 
L 701.73986 167.613459 
L 702.086713 166.713039 
L 702.433566 166.959066 
L 702.78042 169.316493 
L 703.127273 165.934624 
L 703.820979 164.035978 
L 704.167832 165.644231 
L 704.514685 175.011424 
L 704.861538 174.096887 
L 705.208392 174.698848 
L 705.555245 174.418538 
L 705.902098 175.215102 
L 706.595804 178.698811 
L 706.942657 178.701835 
L 707.28951 181.650132 
L 707.636364 181.334531 
L 707.983217 179.067852 
L 708.33007 179.162633 
L 708.676923 180.495618 
L 709.023776 180.498643 
L 709.370629 180.723495 
L 709.717483 180.722487 
L 710.064336 180.94129 
L 710.411189 179.90374 
L 710.758042 175.632542 
L 711.104895 177.926446 
L 711.451748 177.808474 
L 711.798601 178.780484 
L 712.145455 178.125083 
L 712.492308 173.678439 
L 712.839161 173.130927 
L 713.186014 173.314439 
L 713.532867 174.111004 
L 713.87972 170.978187 
L 714.226573 165.467777 
L 714.573427 165.741029 
L 714.92028 165.417362 
L 715.613986 161.14818 
L 715.960839 161.29136 
L 716.307692 161.863072 
L 716.654545 164.23159 
L 717.001399 164.338471 
L 717.695105 162.343027 
L 718.041958 163.837341 
L 719.082517 163.58728 
L 719.429371 162.837098 
L 719.776224 161.793498 
L 720.123077 160.30725 
L 720.46993 167.739498 
L 720.816783 168.865779 
L 721.163636 166.972174 
L 721.51049 167.062922 
L 721.857343 165.825727 
L 722.204196 165.970923 
L 722.551049 166.502302 
L 722.897902 166.535577 
L 723.244755 165.192509 
L 723.591608 164.643988 
L 723.938462 164.42216 
L 724.285315 167.974434 
L 724.632168 168.008716 
L 724.979021 170.02836 
L 725.325874 171.089101 
L 725.672727 177.855864 
L 726.01958 178.708894 
L 726.366434 183.848246 
L 726.713287 183.702041 
L 727.06014 178.807708 
L 727.753846 177.998036 
L 728.100699 174.04748 
L 728.794406 174.457862 
L 729.141259 173.953707 
L 729.488112 174.654482 
L 729.834965 174.100921 
L 730.181818 174.41753 
L 730.528671 179.924915 
L 730.875524 180.04087 
L 731.222378 183.867404 
L 731.569231 181.198409 
L 731.916084 179.447984 
L 732.262937 173.532234 
L 732.60979 173.873043 
L 732.956643 176.263744 
L 733.303497 174.093862 
L 733.65035 172.653997 
L 733.997203 172.57434 
L 734.344056 168.887962 
L 734.690909 176.703367 
L 735.037762 170.039451 
L 735.384615 170.850132 
L 735.731469 170.989278 
L 736.078322 172.1811 
L 736.425175 175.819079 
L 736.772028 175.525661 
L 737.118881 177.620928 
L 737.465734 162.972212 
L 737.812587 158.748404 
L 738.506294 165.731954 
L 739.546853 168.685292 
L 739.893706 174.340898 
L 740.240559 173.51711 
L 740.587413 178.348927 
L 740.934266 179.527641 
L 741.281119 170.820891 
L 741.974825 168.858721 
L 742.321678 168.800239 
L 742.668531 168.34045 
L 743.015385 168.279951 
L 743.362238 165.95479 
L 743.709091 165.533317 
L 744.055944 163.708277 
L 744.402797 163.352344 
L 744.74965 159.087196 
L 745.096503 160.438331 
L 745.443357 160.117688 
L 745.79021 161.793498 
L 746.137063 161.862063 
L 746.483916 163.466283 
L 746.830769 163.442084 
L 747.177622 163.548965 
L 747.524476 163.481408 
L 747.871329 169.738975 
L 748.218182 168.370699 
L 748.565035 164.44031 
L 748.911888 164.580465 
L 749.258741 165.193517 
L 749.605594 163.778859 
L 749.952448 163.393685 
L 750.299301 163.581231 
L 751.33986 165.97294 
L 752.033566 171.163716 
L 752.38042 170.948946 
L 752.727273 170.514365 
L 753.074126 171.176824 
L 753.420979 172.309155 
L 753.767832 181.125811 
L 754.114685 180.678122 
L 754.808392 182.299483 
L 755.155245 182.817754 
L 755.502098 185.984853 
L 755.848951 186.555556 
L 756.542657 189.95255 
L 756.88951 189.968683 
L 757.583217 190.288317 
L 757.93007 188.5631 
L 758.276923 180.326222 
L 758.623776 180.40487 
L 759.317483 181.399063 
L 759.664336 183.264435 
L 760.358042 176.364575 
L 760.704895 176.133672 
L 761.051748 179.902732 
L 761.398601 179.318921 
L 761.745455 176.243578 
L 762.092308 175.966293 
L 762.439161 175.038648 
L 762.786014 176.090315 
L 763.132867 180.909024 
L 763.47972 176.678159 
L 764.173427 176.495655 
L 764.52028 173.276124 
L 764.867133 178.98517 
L 765.213986 176.835455 
L 765.560839 176.835455 
L 765.907692 176.653959 
L 766.254545 179.493358 
L 766.601399 185.346593 
L 766.948252 185.815457 
L 767.295105 185.025951 
L 767.641958 190.497037 
L 768.335664 188.644773 
L 768.682517 188.555033 
L 769.029371 189.370755 
L 769.376224 187.305738 
L 769.723077 187.354137 
L 770.06993 188.351355 
L 770.763636 188.509659 
L 771.11049 189.051121 
L 771.457343 188.462269 
L 771.804196 189.767021 
L 772.151049 189.172118 
L 772.497902 190.937668 
L 773.191608 190.603917 
L 773.538462 192.390641 
L 773.885315 192.278719 
L 774.232168 192.497522 
L 774.579021 192.483406 
L 774.925874 192.08109 
L 775.272727 193.670186 
L 775.61958 192.726408 
L 775.966434 192.744558 
L 776.313287 192.628602 
L 776.66014 192.136547 
L 777.006993 193.314253 
L 777.353846 192.502564 
L 777.700699 192.360392 
L 778.047552 188.605449 
L 778.394406 188.746612 
L 779.088112 190.529303 
L 779.434965 190.431497 
L 779.781818 189.988849 
L 780.128671 189.956583 
L 780.475524 191.24621 
L 780.822378 188.97449 
L 781.169231 189.059188 
L 781.516084 182.241001 
L 781.862937 182.232934 
L 782.20979 181.936491 
L 782.556643 181.804403 
L 782.903497 181.399063 
L 783.25035 179.956172 
L 783.597203 180.415961 
L 783.944056 182.376114 
L 784.290909 178.480007 
L 784.637762 178.787542 
L 784.984615 178.93173 
L 785.331469 181.152027 
L 785.678322 205.762838 
L 786.025175 197.498736 
L 786.372028 200.65071 
L 786.718881 202.69052 
L 787.065734 203.965023 
L 787.412587 203.549599 
L 788.106294 191.87237 
L 788.453147 191.284526 
L 788.8 188.763753 
L 789.146853 188.27674 
L 789.493706 187.229107 
L 789.840559 191.644493 
L 790.187413 193.570363 
L 790.534266 193.757909 
L 790.881119 197.950458 
L 791.227972 198.055323 
L 791.574825 198.413272 
L 791.921678 201.64692 
L 792.962238 199.171521 
L 793.309091 199.145305 
L 793.655944 199.299576 
L 794.34965 201.237546 
L 794.696503 201.291995 
L 795.043357 202.030077 
L 795.39021 198.657283 
L 795.737063 201.221414 
L 796.083916 197.022814 
L 796.777622 193.753875 
L 797.124476 197.59755 
L 797.471329 197.775013 
L 797.818182 193.865798 
L 798.165035 193.249721 
L 798.858741 190.627109 
L 799.552448 192.745566 
L 799.899301 192.548946 
L 800.246154 192.637677 
L 800.593007 194.531282 
L 801.286713 201.259729 
L 801.633566 201.962521 
L 801.98042 201.905047 
L 802.327273 202.323495 
L 802.674126 201.524915 
L 803.020979 201.502732 
L 803.367832 201.287962 
L 803.714685 203.472968 
L 804.061538 204.296757 
L 804.408392 205.989708 
L 804.755245 205.916101 
L 805.102098 203.205766 
L 805.448951 203.253157 
L 805.795804 192.930087 
L 806.48951 192.553987 
L 806.836364 189.077337 
L 807.183217 188.326147 
L 807.53007 186.572697 
L 807.876923 186.599922 
L 808.223776 187.824009 
L 808.570629 180.429069 
L 808.917483 178.750234 
L 809.264336 176.27786 
L 809.611189 175.804963 
L 809.958042 183.802872 
L 810.304895 185.221563 
L 810.651748 187.379345 
L 810.998601 186.866115 
L 811.345455 186.836874 
L 811.692308 192.261578 
L 812.039161 193.960579 
L 812.386014 191.235119 
L 813.07972 190.546444 
L 813.773427 190.740039 
L 814.12028 194.918473 
L 814.813986 195.657563 
L 815.160839 196.009463 
L 815.507692 199.888429 
L 815.854545 201.673136 
L 816.201399 205.834428 
L 816.895105 196.798969 
L 817.588811 194.134008 
L 817.935664 194.551448 
L 818.282517 194.54439 
L 818.629371 195.15845 
L 819.323077 194.52624 
L 819.66993 195.70697 
L 820.016783 197.573351 
L 820.363636 198.017007 
L 820.71049 197.025839 
L 821.057343 197.243634 
L 821.404196 199.336884 
L 822.097902 197.193218 
L 822.444755 197.079279 
L 822.791608 194.624046 
L 823.138462 195.774527 
L 823.485315 194.470783 
L 823.832168 194.342728 
L 824.179021 193.528014 
L 824.525874 194.397177 
L 824.872727 195.603115 
L 825.21958 195.18265 
L 825.566434 195.233065 
L 825.913287 192.269644 
L 826.606993 191.981268 
L 826.953846 189.309248 
L 827.300699 182.780446 
L 827.647552 181.169168 
L 827.994406 181.963716 
L 828.688112 182.27125 
L 829.034965 181.056238 
L 829.381818 181.930442 
L 829.728671 182.448713 
L 830.075524 183.937985 
L 830.422378 189.709547 
L 830.769231 181.810453 
L 831.462937 179.696028 
L 831.80979 179.982388 
L 832.156643 180.600482 
L 832.503497 180.242532 
L 832.85035 180.553091 
L 833.197203 176.665051 
L 833.544056 178.075675 
L 833.890909 186.081651 
L 834.237762 185.877972 
L 834.584615 186.450692 
L 834.931469 185.654128 
L 835.625175 188.769803 
L 836.318881 197.578392 
L 836.665734 205.134662 
L 837.012587 205.506728 
L 837.359441 205.395814 
L 837.706294 201.381735 
L 838.053147 200.222179 
L 838.4 197.428154 
L 838.746853 196.666881 
L 839.093706 198.655267 
L 839.440559 199.913636 
L 839.787413 200.122356 
L 840.134266 204.517576 
L 840.827972 205.079205 
L 841.174825 206.909286 
L 841.868531 207.51528 
L 842.215385 207.021208 
L 842.909091 207.086748 
L 843.255944 207.00205 
L 843.602797 204.745454 
L 843.94965 204.462119 
L 844.296503 204.402629 
L 844.643357 204.545809 
L 844.99021 205.788046 
L 845.337063 204.687981 
L 845.683916 202.789334 
L 846.030769 201.598521 
L 846.377622 201.869756 
L 846.724476 206.474705 
L 847.071329 202.466675 
L 847.418182 203.40037 
L 848.111888 200.489381 
L 848.458741 205.339348 
L 848.805594 206.260943 
L 849.152448 207.70585 
L 849.499301 204.043671 
L 849.846154 204.172735 
L 850.193007 208.894647 
L 850.53986 209.856574 
L 850.886713 212.016372 
L 851.233566 222.228528 
L 851.58042 220.809837 
L 851.927273 221.995608 
L 852.274126 226.547116 
L 852.620979 226.372679 
L 852.967832 223.009967 
L 853.314685 223.006942 
L 853.661538 217.311004 
L 854.008392 214.144913 
L 854.355245 214.124747 
L 854.702098 212.710089 
L 855.048951 213.364481 
L 855.395804 212.946033 
L 856.436364 208.414691 
L 856.783217 208.085983 
L 857.13007 209.066059 
L 858.170629 206.828621 
L 858.517483 205.259692 
L 858.864336 205.334307 
L 859.211189 208.763566 
L 859.558042 208.965228 
L 859.904895 210.460551 
L 860.251748 210.525083 
L 860.598601 210.291155 
L 860.945455 216.571913 
L 861.292308 214.041057 
L 861.639161 213.570176 
L 861.986014 210.028994 
L 862.332867 210.271997 
L 862.67972 210.338545 
L 863.026573 209.412918 
L 863.373427 210.030003 
L 863.72028 208.876497 
L 864.067133 208.785749 
L 864.413986 212.069812 
L 864.760839 211.555575 
L 865.107692 212.026455 
L 865.801399 209.754734 
L 866.148252 202.895207 
L 866.495105 202.764127 
L 866.841958 202.320471 
L 867.188811 202.149058 
L 867.535664 203.407428 
L 867.882517 203.425577 
L 868.229371 202.961755 
L 868.576224 205.420013 
L 868.923077 205.587392 
L 869.26993 209.833383 
L 869.616783 210.142933 
L 869.963636 211.336772 
L 871.004196 209.059001 
L 871.351049 209.663987 
L 871.697902 207.83088 
L 872.044755 207.088765 
L 872.391608 207.332776 
L 873.432168 204.999548 
L 873.779021 204.31289 
L 874.125874 205.476478 
L 874.472727 203.080736 
L 874.81958 204.985432 
L 875.166434 203.841001 
L 875.513287 201.474499 
L 875.86014 202.999063 
L 876.206993 201.697335 
L 876.553846 201.823374 
L 876.900699 198.709715 
L 877.247552 198.908352 
L 877.594406 198.898269 
L 877.941259 196.454128 
L 878.288112 197.253717 
L 878.981818 197.450337 
L 880.022378 205.614617 
L 880.716084 205.248601 
L 881.062937 204.687981 
L 881.40979 205.545043 
L 881.756643 203.317688 
L 882.103497 203.266265 
L 882.45035 203.409444 
L 882.797203 201.810266 
L 883.144056 209.386702 
L 883.490909 208.965228 
L 883.837762 210.098568 
L 884.184615 209.421992 
L 884.531469 209.31007 
L 884.878322 213.858553 
L 885.572028 213.708315 
L 885.918881 213.804104 
L 886.612587 214.900136 
L 886.959441 213.002498 
L 887.306294 213.072072 
L 887.653147 212.814953 
L 888 205.656966 
L 888.346853 206.076422 
L 888.693706 205.283891 
L 889.040559 205.468412 
L 889.734266 204.692014 
L 890.081119 208.930946 
L 890.427972 209.269738 
L 890.774825 212.16056 
L 891.121678 212.135352 
L 891.468531 211.012096 
L 891.815385 210.385936 
L 892.162238 210.555332 
L 892.509091 211.545492 
L 892.855944 211.860084 
L 893.202797 211.653381 
L 893.54965 211.256107 
L 893.896503 209.312087 
L 894.243357 209.598446 
L 894.59021 202.161158 
L 895.283916 199.370158 
L 895.630769 199.280418 
L 895.977622 201.232505 
L 896.671329 202.378952 
L 897.018182 204.159627 
L 897.365035 204.23525 
L 897.711888 197.879877 
L 898.058741 197.551168 
L 898.405594 198.734923 
L 898.752448 194.417343 
L 899.099301 194.952755 
L 899.446154 199.849105 
L 899.793007 200.217138 
L 900.13986 200.418799 
L 900.486713 200.184872 
L 900.833566 192.986552 
L 901.18042 192.680026 
L 901.527273 191.215961 
L 901.874126 193.093433 
L 902.220979 192.85648 
L 902.567832 192.884713 
L 902.914685 192.618519 
L 903.261538 189.362689 
L 903.608392 192.507605 
L 904.302098 194.069476 
L 904.648951 193.960579 
L 904.995804 196.534792 
L 905.342657 197.41303 
L 905.68951 196.830227 
L 906.036364 196.577141 
L 906.383217 195.180633 
L 907.076923 195.040478 
L 907.423776 195.108035 
L 907.770629 195.757386 
L 908.117483 195.740245 
L 908.464336 196.95929 
L 909.158042 201.794133 
L 909.504895 202.771185 
L 910.198601 202.330554 
L 910.545455 203.402386 
L 910.892308 202.62498 
L 911.239161 202.454576 
L 911.586014 200.17983 
L 911.932867 199.944894 
L 912.27972 198.946668 
L 912.626573 199.083798 
L 912.973427 201.221414 
L 913.32028 201.266787 
L 913.667133 204.264491 
L 914.013986 209.326203 
L 914.360839 210.113692 
L 914.707692 210.389969 
L 915.054545 199.734157 
L 915.401399 196.788886 
L 915.748252 196.033663 
L 916.095105 196.464211 
L 916.788811 194.19249 
L 917.135664 193.769 
L 917.482517 194.631104 
L 917.829371 192.87463 
L 918.176224 194.436501 
L 918.523077 203.614131 
L 919.216783 202.88714 
L 919.563636 203.38827 
L 919.91049 203.171484 
L 920.257343 203.629256 
L 920.604196 201.584405 
L 920.951049 201.794133 
L 921.297902 201.658011 
L 921.644755 199.542579 
L 921.991608 200.659785 
L 922.338462 200.563996 
L 922.685315 198.958768 
L 923.032168 199.665592 
L 923.379021 199.726091 
L 923.725874 199.462922 
L 924.072727 201.109491 
L 924.41958 201.661036 
L 924.766434 201.343419 
L 925.113287 196.611424 
L 925.46014 197.072221 
L 925.806993 197.834503 
L 926.500699 200.774733 
L 926.847552 202.40416 
L 927.194406 201.875806 
L 927.541259 199.586944 
L 927.888112 200.384517 
L 928.234965 202.40416 
L 928.581818 202.643129 
L 928.928671 205.142728 
L 929.275524 204.898717 
L 929.622378 204.924933 
L 929.969231 211.232916 
L 930.316084 211.73707 
L 930.662937 212.72118 
L 931.00979 212.141402 
L 931.356643 209.915056 
L 931.703497 210.07336 
L 932.05035 209.638779 
L 932.397203 208.225129 
L 932.744056 207.91457 
L 933.090909 207.278327 
L 933.437762 206.156079 
L 933.784615 206.218594 
L 934.131469 207.533429 
L 934.478322 208.056742 
L 934.825175 208.079933 
L 935.172028 207.126072 
L 935.518881 207.136155 
L 935.865734 206.638051 
L 936.212587 206.74594 
L 936.559441 207.291435 
L 936.906294 208.317894 
L 937.253147 207.737108 
L 937.946853 209.523832 
L 938.293706 209.646845 
L 938.640559 203.982164 
L 939.334266 204.368347 
L 939.681119 203.846042 
L 940.027972 204.680922 
L 940.374825 208.071866 
L 940.721678 208.491323 
L 941.415385 208.918846 
L 941.762238 209.006569 
L 942.109091 208.977328 
L 942.802797 209.368552 
L 943.14965 205.89896 
L 943.496503 206.122805 
L 943.843357 206.205486 
L 944.19021 206.592677 
L 944.537063 183.424756 
L 944.883916 184.175946 
L 945.230769 183.921852 
L 945.577622 181.38898 
L 945.924476 181.026997 
L 946.271329 181.224625 
L 946.618182 187.547732 
L 946.965035 191.632393 
L 947.658741 194.016036 
L 948.005594 194.206606 
L 948.352448 195.315746 
L 948.699301 195.484134 
L 949.046154 202.351728 
L 949.393007 204.411704 
L 950.433566 206.926427 
L 951.127273 209.439134 
L 951.820979 209.516773 
L 952.167832 209.901948 
L 952.861538 218.460476 
L 953.208392 219.649273 
L 953.555245 219.856984 
L 953.902098 220.304674 
L 954.595804 220.830003 
L 954.942657 223.254986 
L 955.28951 223.628061 
L 955.636364 226.014729 
L 957.023776 228.523402 
L 957.717483 231.731842 
L 958.064336 234.075153 
L 958.411189 235.131861 
L 958.758042 235.795328 
L 959.104895 236.818762 
L 959.451748 237.292667 
L 959.798601 238.265686 
L 961.186014 238.921087 
L 962.226573 240.136099 
L 962.573427 240.193573 
L 962.92028 240.550514 
L 963.267133 242.930124 
L 963.613986 244.528294 
L 963.960839 245.48518 
L 964.307692 245.183695 
L 964.654545 245.253269 
L 965.001399 245.617268 
L 965.348252 245.661634 
L 965.695105 247.676236 
L 966.041958 247.958562 
L 966.388811 248.701686 
L 967.082517 255.508782 
L 967.429371 268.158021 
L 967.776224 268.274985 
L 968.123077 270.386384 
L 968.46993 270.964145 
L 968.816783 271.908931 
L 969.163636 272.047069 
L 969.51049 273.481893 
L 969.857343 273.824719 
L 970.204196 279.302862 
L 970.551049 279.312946 
L 970.897902 279.665854 
L 971.244755 279.815084 
L 971.591608 280.349487 
L 971.938462 280.375703 
L 972.632168 280.852634 
L 972.979021 284.102414 
L 973.325874 284.150813 
L 973.672727 287.073902 
L 974.01958 287.112217 
L 974.366434 287.27758 
L 974.713287 287.745436 
L 975.406993 288.161867 
L 976.447552 288.596449 
L 976.794406 289.249833 
L 977.141259 292.125531 
L 977.834965 292.792023 
L 978.528671 293.116699 
L 979.222378 294.923589 
L 979.569231 295.011312 
L 979.916084 297.061204 
L 980.262937 297.166069 
L 980.60979 297.45747 
L 980.956643 298.521236 
L 981.997203 298.931618 
L 982.344056 299.13933 
L 983.037762 299.272426 
L 983.384615 300.168813 
L 983.731469 302.631104 
L 984.078322 307.667609 
L 984.425175 308.111265 
L 984.772028 311.235007 
L 985.118881 311.61514 
L 985.465734 313.162894 
L 985.812587 316.390492 
L 986.159441 316.309827 
L 987.2 316.514514 
L 987.546853 321.572193 
L 987.893706 321.735539 
L 988.240559 322.980801 
L 988.934266 323.031217 
L 989.281119 323.551504 
L 989.627972 323.816689 
L 990.321678 323.93567 
L 990.668531 324.020368 
L 991.015385 333.863482 
L 991.362238 334.543083 
L 992.055944 334.61064 
L 992.74965 335.298306 
L 993.096503 336.289474 
L 993.443357 336.386272 
L 993.79021 336.986216 
L 994.137063 337.053773 
L 994.483916 337.367357 
L 994.830769 341.959197 
L 995.177622 342.768869 
L 995.524476 342.902975 
L 995.871329 344.620125 
L 996.218182 369.36 
L 996.218182 369.36 
" clip-path="url(#p4e3da4507d)" style="fill: none; stroke: #1f77b4; stroke-width: 1.5; stroke-linecap: square"/>
   </g>
   <g id="line2d_14">
    <path d="M 184.581818 340.958954 
L 996.218182 340.958954 
L 996.218182 340.958954 
" clip-path="url(#p4e3da4507d)" style="fill: none; stroke-dasharray: 5.55,2.4; stroke-dashoffset: 0; stroke: #ff7f0e; stroke-width: 1.5"/>
   </g>
   <g id="line2d_15">
    <path d="M 184.581818 203.958973 
L 996.218182 203.958973 
L 996.218182 203.958973 
" clip-path="url(#p4e3da4507d)" style="fill: none; stroke-dasharray: 5.55,2.4; stroke-dashoffset: 0; stroke: #2ca02c; stroke-width: 1.5"/>
   </g>
   <g id="line2d_16">
    <path d="M 184.581818 66.96 
L 996.218182 66.96 
L 996.218182 66.96 
" clip-path="url(#p4e3da4507d)" style="fill: none; stroke-dasharray: 5.55,2.4; stroke-dashoffset: 0; stroke: #d62728; stroke-width: 1.5"/>
   </g>
   <g id="patch_3">
    <path d="M 144 384.48 
L 144 51.84 
" style="fill: none; stroke: #000000; stroke-width: 0.8; stroke-linejoin: miter; stroke-linecap: square"/>
   </g>
   <g id="patch_4">
    <path d="M 1036.8 384.48 
L 1036.8 51.84 
" style="fill: none; stroke: #000000; stroke-width: 0.8; stroke-linejoin: miter; stroke-linecap: square"/>
   </g>
   <g id="patch_5">
    <path d="M 144 384.48 
L 1036.8 384.48 
" style="fill: none; stroke: #000000; stroke-width: 0.8; stroke-linejoin: miter; stroke-linecap: square"/>
   </g>
   <g id="patch_6">
    <path d="M 144 51.84 
L 1036.8 51.84 
" style="fill: none; stroke: #000000; stroke-width: 0.8; stroke-linejoin: miter; stroke-linecap: square"/>
   </g>
   <g id="text_15">
    <!-- PB2 -->
    <g transform="translate(578.848125 45.84)scale(0.12 -0.12)">
     <defs>
      <path id="DejaVuSans-42" d="M 1259 2228 
L 1259 519 
L 2272 519 
Q 2781 519 3026 730 
Q 3272 941 3272 1375 
Q 3272 1813 3026 2020 
Q 2781 2228 2272 2228 
L 1259 2228 
z
M 1259 4147 
L 1259 2741 
L 2194 2741 
Q 2656 2741 2882 2914 
Q 3109 3088 3109 3444 
Q 3109 3797 2882 3972 
Q 2656 4147 2194 4147 
L 1259 4147 
z
M 628 4666 
L 2241 4666 
Q 2963 4666 3353 4366 
Q 3744 4066 3744 3513 
Q 3744 3084 3544 2831 
Q 3344 2578 2956 2516 
Q 3422 2416 3680 2098 
Q 3938 1781 3938 1306 
Q 3938 681 3513 340 
Q 3088 0 2303 0 
L 628 0 
L 628 4666 
z
" transform="scale(0.015625)"/>
     </defs>
     <use xlink:href="#DejaVuSans-50"/>
     <use xlink:href="#DejaVuSans-42" x="60.302734"/>
     <use xlink:href="#DejaVuSans-32" x="128.90625"/>
    </g>
   </g>
   <g id="legend_1">
    <g id="patch_7">
     <path d="M 146 28.936045 
L 1034.8 28.936045 
Q 1036.8 28.936045 1036.8 26.936045 
L 1036.8 13.25792 
Q 1036.8 11.25792 1034.8 11.25792 
L 146 11.25792 
Q 144 11.25792 144 13.25792 
L 144 26.936045 
Q 144 28.936045 146 28.936045 
z
" style="fill: #ffffff; opacity: 0.8; stroke: #cccccc; stroke-linejoin: miter"/>
    </g>
    <g id="line2d_17">
     <path d="M 148 19.356358 
L 158 19.356358 
L 168 19.356358 
" style="fill: none; stroke-dasharray: 5.55,2.4; stroke-dashoffset: 0; stroke: #ff7f0e; stroke-width: 1.5"/>
    </g>
    <g id="text_16">
     <!-- Average depth * 0.2 -->
     <g transform="translate(176 22.856358)scale(0.1 -0.1)">
      <defs>
       <path id="DejaVuSans-41" d="M 2188 4044 
L 1331 1722 
L 3047 1722 
L 2188 4044 
z
M 1831 4666 
L 2547 4666 
L 4325 0 
L 3669 0 
L 3244 1197 
L 1141 1197 
L 716 0 
L 50 0 
L 1831 4666 
z
" transform="scale(0.015625)"/>
       <path id="DejaVuSans-64" d="M 2906 2969 
L 2906 4863 
L 3481 4863 
L 3481 0 
L 2906 0 
L 2906 525 
Q 2725 213 2448 61 
Q 2172 -91 1784 -91 
Q 1150 -91 751 415 
Q 353 922 353 1747 
Q 353 2572 751 3078 
Q 1150 3584 1784 3584 
Q 2172 3584 2448 3432 
Q 2725 3281 2906 2969 
z
M 947 1747 
Q 947 1113 1208 752 
Q 1469 391 1925 391 
Q 2381 391 2643 752 
Q 2906 1113 2906 1747 
Q 2906 2381 2643 2742 
Q 2381 3103 1925 3103 
Q 1469 3103 1208 2742 
Q 947 2381 947 1747 
z
" transform="scale(0.015625)"/>
       <path id="DejaVuSans-2a" d="M 3009 3897 
L 1888 3291 
L 3009 2681 
L 2828 2375 
L 1778 3009 
L 1778 1831 
L 1422 1831 
L 1422 3009 
L 372 2375 
L 191 2681 
L 1313 3291 
L 191 3897 
L 372 4206 
L 1422 3572 
L 1422 4750 
L 1778 4750 
L 1778 3572 
L 2828 4206 
L 3009 3897 
z
" transform="scale(0.015625)"/>
       <path id="DejaVuSans-2e" d="M 684 794 
L 1344 794 
L 1344 0 
L 684 0 
L 684 794 
z
" transform="scale(0.015625)"/>
      </defs>
      <use xlink:href="#DejaVuSans-41"/>
      <use xlink:href="#DejaVuSans-76" x="62.533203"/>
      <use xlink:href="#DejaVuSans-65" x="121.712891"/>
      <use xlink:href="#DejaVuSans-72" x="183.236328"/>
      <use xlink:href="#DejaVuSans-61" x="224.349609"/>
      <use xlink:href="#DejaVuSans-67" x="285.628906"/>
      <use xlink:href="#DejaVuSans-65" x="349.105469"/>
      <use xlink:href="#DejaVuSans-20" x="410.628906"/>
      <use xlink:href="#DejaVuSans-64" x="442.416016"/>
      <use xlink:href="#DejaVuSans-65" x="505.892578"/>
      <use xlink:href="#DejaVuSans-70" x="567.416016"/>
      <use xlink:href="#DejaVuSans-74" x="630.892578"/>
      <use xlink:href="#DejaVuSans-68" x="670.101562"/>
      <use xlink:href="#DejaVuSans-20" x="733.480469"/>
      <use xlink:href="#DejaVuSans-2a" x="765.267578"/>
      <use xlink:href="#DejaVuSans-20" x="815.267578"/>
      <use xlink:href="#DejaVuSans-30" x="847.054688"/>
      <use xlink:href="#DejaVuSans-2e" x="910.677734"/>
      <use xlink:href="#DejaVuSans-32" x="942.464844"/>
     </g>
    </g>
    <g id="line2d_18">
     <path d="M 539.724219 19.356358 
L 549.724219 19.356358 
L 559.724219 19.356358 
" style="fill: none; stroke-dasharray: 5.55,2.4; stroke-dashoffset: 0; stroke: #2ca02c; stroke-width: 1.5"/>
    </g>
    <g id="text_17">
     <!-- Average depth -->
     <g transform="translate(567.724219 22.856358)scale(0.1 -0.1)">
      <use xlink:href="#DejaVuSans-41"/>
      <use xlink:href="#DejaVuSans-76" x="62.533203"/>
      <use xlink:href="#DejaVuSans-65" x="121.712891"/>
      <use xlink:href="#DejaVuSans-72" x="183.236328"/>
      <use xlink:href="#DejaVuSans-61" x="224.349609"/>
      <use xlink:href="#DejaVuSans-67" x="285.628906"/>
      <use xlink:href="#DejaVuSans-65" x="349.105469"/>
      <use xlink:href="#DejaVuSans-20" x="410.628906"/>
      <use xlink:href="#DejaVuSans-64" x="442.416016"/>
      <use xlink:href="#DejaVuSans-65" x="505.892578"/>
      <use xlink:href="#DejaVuSans-70" x="567.416016"/>
      <use xlink:href="#DejaVuSans-74" x="630.892578"/>
      <use xlink:href="#DejaVuSans-68" x="670.101562"/>
     </g>
    </g>
    <g id="line2d_19">
     <path d="M 904.189062 19.356358 
L 914.189062 19.356358 
L 924.189062 19.356358 
" style="fill: none; stroke-dasharray: 5.55,2.4; stroke-dashoffset: 0; stroke: #d62728; stroke-width: 1.5"/>
    </g>
    <g id="text_18">
     <!-- Average depth * 1.8 -->
     <g transform="translate(932.189062 22.856358)scale(0.1 -0.1)">
      <defs>
       <path id="DejaVuSans-38" d="M 2034 2216 
Q 1584 2216 1326 1975 
Q 1069 1734 1069 1313 
Q 1069 891 1326 650 
Q 1584 409 2034 409 
Q 2484 409 2743 651 
Q 3003 894 3003 1313 
Q 3003 1734 2745 1975 
Q 2488 2216 2034 2216 
z
M 1403 2484 
Q 997 2584 770 2862 
Q 544 3141 544 3541 
Q 544 4100 942 4425 
Q 1341 4750 2034 4750 
Q 2731 4750 3128 4425 
Q 3525 4100 3525 3541 
Q 3525 3141 3298 2862 
Q 3072 2584 2669 2484 
Q 3125 2378 3379 2068 
Q 3634 1759 3634 1313 
Q 3634 634 3220 271 
Q 2806 -91 2034 -91 
Q 1263 -91 848 271 
Q 434 634 434 1313 
Q 434 1759 690 2068 
Q 947 2378 1403 2484 
z
M 1172 3481 
Q 1172 3119 1398 2916 
Q 1625 2713 2034 2713 
Q 2441 2713 2670 2916 
Q 2900 3119 2900 3481 
Q 2900 3844 2670 4047 
Q 2441 4250 2034 4250 
Q 1625 4250 1398 4047 
Q 1172 3844 1172 3481 
z
" transform="scale(0.015625)"/>
      </defs>
      <use xlink:href="#DejaVuSans-41"/>
      <use xlink:href="#DejaVuSans-76" x="62.533203"/>
      <use xlink:href="#DejaVuSans-65" x="121.712891"/>
      <use xlink:href="#DejaVuSans-72" x="183.236328"/>
      <use xlink:href="#DejaVuSans-61" x="224.349609"/>
      <use xlink:href="#DejaVuSans-67" x="285.628906"/>
      <use xlink:href="#DejaVuSans-65" x="349.105469"/>
      <use xlink:href="#DejaVuSans-20" x="410.628906"/>
      <use xlink:href="#DejaVuSans-64" x="442.416016"/>
      <use xlink:href="#DejaVuSans-65" x="505.892578"/>
      <use xlink:href="#DejaVuSans-70" x="567.416016"/>
      <use xlink:href="#DejaVuSans-74" x="630.892578"/>
      <use xlink:href="#DejaVuSans-68" x="670.101562"/>
      <use xlink:href="#DejaVuSans-20" x="733.480469"/>
      <use xlink:href="#DejaVuSans-2a" x="765.267578"/>
      <use xlink:href="#DejaVuSans-20" x="815.267578"/>
      <use xlink:href="#DejaVuSans-31" x="847.054688"/>
      <use xlink:href="#DejaVuSans-2e" x="910.677734"/>
      <use xlink:href="#DejaVuSans-38" x="942.464844"/>
     </g>
    </g>
   </g>
  </g>
 </g>
 <defs>
  <clipPath id="p4e3da4507d">
   <rect x="144" y="51.84" width="892.8" height="332.64"/>
  </clipPath>
 </defs>
</svg>
